<?xml version="1.0" encoding="UTF-8"?>
<svg width="24px" height="24px" viewBox="0 0 24 24" version="1.1" xmlns="http://www.w3.org/2000/svg" xmlns:xlink="http://www.w3.org/1999/xlink">
    <title>Icon/Success/Outline</title>
    <defs>
        <path d="M5,0 L59,0 C61.7614237,-8.8817842e-16 64,2.23857625 64,5 L64,203 C64,205.761424 61.7614237,208 59,208 L5,208 C2.23857625,208 0,205.761424 0,203 L0,5 C0,2.23857625 2.23857625,0 5,0 Z" id="path-1"></path>
        <path d="M0,0 L24,0 L24,24 L0,24 L0,0 Z" id="path-2"></path>
    </defs>
    <g id="Icons" stroke="none" stroke-width="1" fill="none" fill-rule="evenodd">
        <g id="Basic-System-feedback" transform="translate(-480, -434)" fill-rule="nonzero">
            <g id="Success" transform="translate(460, 414)" xlink:href="#path-1">
                <g id="Icon/Success/Outline" transform="translate(20, 20)" xlink:href="#path-2">
                    <path d="M12,22.75 C6.07000017,22.75 1.25,17.9299998 1.25,12 C1.25,6.07000017 6.07000017,1.25 12,1.25 C17.9299998,1.25 22.75,6.07000017 22.75,12 C22.75,17.9299998 17.9299998,22.75 12,22.75 Z M12,2.75 C6.9000001,2.75 2.75,6.9000001 2.75,12 C2.75,17.0999999 6.9000001,21.25 12,21.25 C17.0999999,21.25 21.25,17.0999999 21.25,12 C21.25,6.9000001 17.0999999,2.75 12,2.75 Z" id="Vector" fill="CURRENTCOLOR"></path>
                    <path d="M10.5804298,15.5800977 C10.3804298,15.5800977 10.1904301,15.5000974 10.0504301,15.3600974 L7.22042969,12.5300975 C6.9304297,12.2400975 6.9304297,11.7600978 7.22042969,11.4700978 C7.51042968,11.1800978 7.99042961,11.1800978 8.2804296,11.4700978 L10.5804298,13.7700982 L15.7204304,8.63009766 C16.0104304,8.34009767 16.4904308,8.34009767 16.7804308,8.63009766 C17.0704308,8.92009765 17.0704308,9.4000971 16.7804308,9.69009709 L11.1104298,15.3600974 C10.9704298,15.5000974 10.7804298,15.5800977 10.5804298,15.5800977 Z" id="Vector" fill="CURRENTCOLOR"></path>
                    <polygon id="Vector" opacity="0" points="0 0 24 0 24 24 0 24"></polygon>
                </g>
            </g>
        </g>
    </g>
</svg>