<?xml version="1.0" encoding="UTF-8"?>
<svg width="24px" height="24px" viewBox="0 0 24 24" version="1.1" xmlns="http://www.w3.org/2000/svg" xmlns:xlink="http://www.w3.org/1999/xlink">
    <title>Icon/Ticket/Bulk</title>
    <defs>
        <path d="M5,0 L59,0 C61.7614237,-8.8817842e-16 64,2.23857625 64,5 L64,203 C64,205.761424 61.7614237,208 59,208 L5,208 C2.23857625,208 0,205.761424 0,203 L0,5 C0,2.23857625 2.23857625,0 5,0 Z" id="path-1"></path>
        <path d="M0,0 L24,0 L24,24 L0,24 L0,0 Z" id="path-2"></path>
    </defs>
    <g id="Icons" stroke="none" stroke-width="1" fill="none" fill-rule="evenodd">
        <g id="Shop" transform="translate(-480, -577)" fill="#28303F" fill-rule="nonzero">
            <g id="Ticket" transform="translate(460, 413)" xlink:href="#path-1">
                <g id="Icon/Ticket/Bulk" transform="translate(20, 164)" xlink:href="#path-2" fill-rule="evenodd">
                    <g id="ticket-percent" transform="translate(2, 3)">
                        <path d="M4,18 C1.79086113,18 0,16.2091389 0,14 L0,12 C1.65685427,12 3,10.6568543 3,9 C3,7.34314573 1.65685427,6 0,6 L0,4 C0,1.79086113 1.79086113,0 4,0 L16,0 C18.2091389,0 20,1.79086113 20,4 L20,6 C18.3431457,6 17,7.34314573 17,9 C17,10.6568543 18.3431457,12 20,12 L20,14 C20,16.2091389 18.2091389,18 16,18 L4,18 Z" id="Vector" fill-rule="nonzero" opacity="0.400000006"></path>
                        <path d="M8,6 C8,6.55228472 7.55228472,7 7,7 C6.44771528,7 6,6.55228472 6,6 C6,5.44771528 6.44771528,5 7,5 C7.55228472,5 8,5.44771528 8,6 Z" id="Ellipse-1164" fill-rule="nonzero"></path>
                        <path d="M14,12 C14,12.5522847 13.5522847,13 13,13 C12.4477153,13 12,12.5522847 12,12 C12,11.4477153 12.4477153,11 13,11 C13.5522847,11 14,11.4477153 14,12 Z" id="Ellipse-1165" fill-rule="nonzero"></path>
                        <path d="M13.5303302,5.46966992 C13.8232231,5.76256312 13.8232231,6.23743686 13.5303302,6.53033006 L7.53033006,12.5303302 C7.23743686,12.8232231 6.76256312,12.8232231 6.46966992,12.5303302 C6.17677669,12.2374368 6.17677669,11.7625632 6.46966992,11.4696698 L12.4696698,5.46966992 C12.7625632,5.17677669 13.2374368,5.17677669 13.5303302,5.46966992 Z" id="Vector-2897-(Stroke)" fill-rule="nonzero"></path>
                    </g>
                </g>
            </g>
        </g>
    </g>
</svg>