<?xml version="1.0" encoding="UTF-8"?>
<svg width="24px" height="24px" viewBox="0 0 24 24" version="1.1" xmlns="http://www.w3.org/2000/svg" xmlns:xlink="http://www.w3.org/1999/xlink">
    <title>Icon/Ticket/Bold</title>
    <defs>
        <path d="M5,0 L59,0 C61.7614237,-8.8817842e-16 64,2.23857625 64,5 L64,203 C64,205.761424 61.7614237,208 59,208 L5,208 C2.23857625,208 0,205.761424 0,203 L0,5 C0,2.23857625 2.23857625,0 5,0 Z" id="path-1"></path>
        <path d="M0,0 L24,0 L24,24 L0,24 L0,0 Z" id="path-2"></path>
    </defs>
    <g id="Icons" stroke="none" stroke-width="1" fill="none" fill-rule="evenodd">
        <g id="Shop" transform="translate(-480, -529)" fill="CURRENTCOLOR" fill-rule="nonzero">
            <g id="Ticket" transform="translate(460, 413)" xlink:href="#path-1">
                <g id="Icon/Ticket/Bold" transform="translate(20, 116)" xlink:href="#path-2" fill-rule="evenodd">
                    <path d="M6,21 C3.79086113,21 2,19.2091389 2,17 L2,16 C2,15.4477148 2.46000314,15.0163155 2.98189425,14.8356285 C4.15653467,14.4289474 5,13.3129749 5,12 C5,10.6870255 4.15653491,9.57105255 2.98189449,9.16437197 C2.46000338,8.98368406 2,8.55228472 2,8 L2,7 C2,4.79086113 3.79086113,3 6,3 L18,3 C20.2091389,3 22,4.79086113 22,7 L22,8 C22,8.55228472 21.5399971,8.98368406 21.0181065,9.16437197 C19.8434658,9.57105255 19,10.6870255 19,12 C19,13.3129749 19.8434658,14.4289474 21.0181046,14.8356285 C21.5399971,15.0163155 22,15.4477148 22,16 L22,17 C22,19.2091389 20.2091389,21 18,21 L6,21 Z M9,10 C9.55228472,10 10,9.55228472 10,9 C10,8.44771528 9.55228472,8 9,8 C8.44771528,8 8,8.44771528 8,9 C8,9.55228472 8.44771528,10 9,10 Z M16,15 C16,15.5522852 15.5522852,16 15,16 C14.4477148,16 14,15.5522852 14,15 C14,14.4477148 14.4477148,14 15,14 C15.5522852,14 16,14.4477148 16,15 Z M15.5303307,9.53033018 C15.8232231,9.23743677 15.8232231,8.76256323 15.5303307,8.46966982 C15.2374363,8.17677689 14.7625637,8.17677689 14.4696693,8.46966982 L8.46966982,14.4696693 C8.17677689,14.7625637 8.17677689,15.2374363 8.46966982,15.5303307 C8.76256323,15.8232231 9.23743677,15.8232231 9.53033018,15.5303307 L15.5303307,9.53033018 Z" id="Subtract"></path>
                </g>
            </g>
        </g>
    </g>
</svg>