<?xml version="1.0" encoding="UTF-8"?>
<svg width="24px" height="24px" viewBox="0 0 24 24" version="1.1" xmlns="http://www.w3.org/2000/svg" xmlns:xlink="http://www.w3.org/1999/xlink">
    <title>Icon/Ticket/Outline</title>
    <defs>
        <path d="M5,0 L59,0 C61.7614237,-8.8817842e-16 64,2.23857625 64,5 L64,203 C64,205.761424 61.7614237,208 59,208 L5,208 C2.23857625,208 0,205.761424 0,203 L0,5 C0,2.23857625 2.23857625,0 5,0 Z" id="path-1"></path>
        <path d="M0,0 L24,0 L24,24 L0,24 L0,0 Z" id="path-2"></path>
    </defs>
    <g id="Icons" stroke="none" stroke-width="1" fill="none" fill-rule="evenodd">
        <g id="Shop" transform="translate(-480, -433)" fill="CURRENTCOLOR" fill-rule="nonzero">
            <g id="Ticket" transform="translate(460, 413)" xlink:href="#path-1">
                <g id="Icon/Ticket/Outline" transform="translate(20, 20)" xlink:href="#path-2">
                    <path d="M22.75,7 L22.75,8 C22.75,8.87326364 22.1120322,9.57931347 21.2634794,9.87309768 C20.3650599,10.1841458 19.75,11.033494 19.75,12 C19.75,12.966506 20.3650596,13.8158544 21.2634761,14.1269023 C22.1120306,14.4206845 22.75,15.1267349 22.75,16 L22.75,17 C22.75,19.6233524 20.6233524,21.75 18,21.75 L6,21.75 C3.37664757,21.75 1.25,19.6233524 1.25,17 L1.25,16 C1.25,15.1267354 1.8879689,14.4206851 2.73652105,14.1269029 C3.63494055,13.8158544 4.25,12.9665064 4.25,12 C4.25,11.0334938 3.63494053,10.1841457 2.7365212,9.87309755 C1.88796838,9.5793136 1.25,8.87326384 1.25,8 L1.25,7 C1.25,4.37664757 3.37664757,2.25 6,2.25 L18,2.25 C20.6233524,2.25 22.75,4.37664757 22.75,7 Z M6,3.75 C4.20507469,3.75 2.75,5.20507469 2.75,7 L2.75,8 C2.75,8.15361188 2.92987679,8.35268438 3.22726744,8.45564627 C4.72527817,8.97428318 5.75,10.3893424 5.75,12 C5.75,13.6106578 4.72527829,15.0257166 3.22726639,15.5443545 C2.92987637,15.6473156 2.75,15.8463877 2.75,16 L2.75,17 C2.75,18.7949253 4.20507469,20.25 6,20.25 L18,20.25 C19.7949253,20.25 21.25,18.7949253 21.25,17 L21.25,16 C21.25,15.8463876 21.0701238,15.6473158 20.772731,15.544354 C19.2747216,15.0257162 18.25,13.6106572 18.25,12 C18.25,10.3893425 19.2747225,8.97428318 20.772733,8.45564646 C21.0701235,8.35268453 21.25,8.15361211 21.25,8 L21.25,7 C21.25,5.20507469 19.7949253,3.75 18,3.75 L6,3.75 Z" id="Vector"></path>
                    <path d="M10.75,9 C10.75,9.96649828 9.96649828,10.75 9,10.75 C8.03350172,10.75 7.25,9.96649828 7.25,9 C7.25,8.03350172 8.03350172,7.25 9,7.25 C9.96649828,7.25 10.75,8.03350172 10.75,9 Z M8.75,9 C8.75,9.13807116 8.86192884,9.25 9,9.25 C9.13807116,9.25 9.25,9.13807116 9.25,9 C9.25,8.86192884 9.13807116,8.75 9,8.75 C8.86192884,8.75 8.75,8.86192884 8.75,9 Z" id="Vector"></path>
                    <path d="M16.75,15 C16.75,15.9664983 15.9664983,16.75 15,16.75 C14.0335017,16.75 13.25,15.9664983 13.25,15 C13.25,14.0335017 14.0335017,13.25 15,13.25 C15.9664983,13.25 16.75,14.0335017 16.75,15 Z M14.75,15 C14.75,15.1380712 14.8619288,15.25 15,15.25 C15.1380712,15.25 15.25,15.1380712 15.25,15 C15.25,14.8619288 15.1380712,14.75 15,14.75 C14.8619288,14.75 14.75,14.8619288 14.75,15 Z" id="Vector"></path>
                    <path d="M15.5303301,8.46966991 C15.8232233,8.76256313 15.8232233,9.23743687 15.5303301,9.53033009 L9.53033009,15.5303301 C9.23743687,15.8232233 8.76256313,15.8232233 8.46966991,15.5303301 C8.1767767,15.2374369 8.1767767,14.7625631 8.46966991,14.4696699 L14.4696699,8.46966991 C14.7625631,8.1767767 15.2374369,8.1767767 15.5303301,8.46966991 Z" id="Vector"></path>
                </g>
            </g>
        </g>
    </g>
</svg>
