<?xml version="1.0" encoding="UTF-8"?>
<svg width="24px" height="24px" viewBox="0 0 24 24" version="1.1" xmlns="http://www.w3.org/2000/svg" xmlns:xlink="http://www.w3.org/1999/xlink">
    <title>Icon/Ticket/Linear</title>
    <defs>
        <path d="M5,0 L59,0 C61.7614237,-8.8817842e-16 64,2.23857625 64,5 L64,203 C64,205.761424 61.7614237,208 59,208 L5,208 C2.23857625,208 0,205.761424 0,203 L0,5 C0,2.23857625 2.23857625,0 5,0 Z" id="path-1"></path>
        <path d="M0,0 L24,0 L24,24 L0,24 L0,0 Z" id="path-2"></path>
    </defs>
    <g id="Icons" stroke="none" stroke-width="1" fill="none" fill-rule="evenodd" stroke-linecap="round">
        <g id="Shop" transform="translate(-480, -481)" fill-rule="nonzero" stroke="#28303F" stroke-width="1.5">
            <g id="Ticket" transform="translate(460, 413)" xlink:href="#path-1">
                <g id="Icon/Ticket/Linear" transform="translate(20, 68)" xlink:href="#path-2">
                    <path d="M2,17 C2,19.2091389 3.79086113,21 6,21 L18,21 C20.2091389,21 22,19.2091389 22,17 L22,16 C22,15.4477148 21.5399971,15.0163155 21.0181046,14.8356285 C19.8434658,14.4289474 19,13.3129749 19,12 C19,10.6870255 19.8434658,9.57105255 21.0181065,9.16437197 C21.5399971,8.98368406 22,8.55228472 22,8 L22,7 C22,4.79086113 20.2091389,3 18,3 L6,3 C3.79086113,3 2,4.79086113 2,7 L2,8 C2,8.55228472 2.46000338,8.98368406 2.98189449,9.16437197 C4.15653491,9.57105255 5,10.6870255 5,12 C5,13.3129749 4.15653467,14.4289474 2.98189425,14.8356285 C2.46000314,15.0163155 2,15.4477148 2,16 L2,17 Z" id="Vector" stroke-linejoin="round"></path>
                    <path d="M10,9 C10,9.55228472 9.55228472,10 9,10 C8.44771528,10 8,9.55228472 8,9 C8,8.44771528 8.44771528,8 9,8 C9.55228472,8 10,8.44771528 10,9 Z" id="Vector"></path>
                    <path d="M16,15 C16,15.5522847 15.5522847,16 15,16 C14.4477153,16 14,15.5522847 14,15 C14,14.4477153 14.4477153,14 15,14 C15.5522847,14 16,14.4477153 16,15 Z" id="Vector"></path>
                    <line x1="15" y1="9" x2="9" y2="15" id="Vector"></line>
                </g>
            </g>
        </g>
    </g>
</svg>