<?xml version="1.0" encoding="UTF-8"?>
<svg width="24px" height="24px" viewBox="0 0 24 24" version="1.1" xmlns="http://www.w3.org/2000/svg" xmlns:xlink="http://www.w3.org/1999/xlink">
    <title>Icon/Loading/Linear</title>
    <defs>
        <path d="M5,0 L59,0 C61.7614237,-8.8817842e-16 64,2.23857625 64,5 L64,203 C64,205.761424 61.7614237,208 59,208 L5,208 C2.23857625,208 0,205.761424 0,203 L0,5 C0,2.23857625 2.23857625,0 5,0 Z" id="path-1"></path>
        <path d="M0,0 L24,0 L24,24 L0,24 L0,0 Z" id="path-2"></path>
    </defs>
    <g id="Icons" stroke="none" stroke-width="1" fill="none" fill-rule="evenodd" stroke-linecap="round" stroke-linejoin="round">
        <g id="Basic-System-feedback" transform="translate(-792, -482)" fill-rule="nonzero" stroke="CURRENTCOLOR" stroke-width="1.5">
            <g id="loading" transform="translate(772, 414)" xlink:href="#path-1">
                <g id="Icon/Loading/Linear" transform="translate(20, 68)" xlink:href="#path-2">
                    <path d="M12,2 L12,5 M12,19 L12,22 M4.92895508,4.92892456 L7.05027533,7.05024481 M16.9497681,16.9497375 L19.0710888,19.0710583 M22,12 L19,12 M5,12 L2,12 M19.0710449,4.92892456 L16.9497242,7.05024481 M4.92891169,19.0710583 L7.05023193,16.9497375" id="Vector"></path>
                </g>
            </g>
        </g>
    </g>
</svg>