<?xml version="1.0" encoding="UTF-8"?>
<svg width="24px" height="24px" viewBox="0 0 24 24" version="1.1" xmlns="http://www.w3.org/2000/svg" xmlns:xlink="http://www.w3.org/1999/xlink">
    <title>Icon/Loading/Bold</title>
    <defs>
        <path d="M5,0 L59,0 C61.7614237,-8.8817842e-16 64,2.23857625 64,5 L64,203 C64,205.761424 61.7614237,208 59,208 L5,208 C2.23857625,208 0,205.761424 0,203 L0,5 C0,2.23857625 2.23857625,0 5,0 Z" id="path-1"></path>
        <path d="M0,0 L24,0 L24,24 L0,24 L0,0 Z" id="path-2"></path>
    </defs>
    <g id="Icons" stroke="none" stroke-width="1" fill="none" fill-rule="evenodd">
        <g id="Basic-System-feedback" transform="translate(-792, -530)" fill="CURRENTCOLOR" fill-rule="nonzero">
            <g id="loading" transform="translate(772, 414)" xlink:href="#path-1">
                <g id="Icon/Loading/Bold" transform="translate(20, 116)" xlink:href="#path-2">
                    <path d="M12,2 C12.4142135,2 12.75,2.33578643 12.75,2.75 L12.75,5.25 C12.75,5.66421366 12.4142135,6 12,6 C11.5857864,6 11.25,5.66421366 11.25,5.25 L11.25,2.75 C11.25,2.33578643 11.5857864,2 12,2 Z" id="Vector-2579-(Stroke)"></path>
                    <path d="M12,18.25 C12.4142135,18.25 12.75,18.5857864 12.75,19 L12.75,21.25 C12.75,21.6642137 12.4142135,22 12,22 C11.5857864,22 11.25,21.6642137 11.25,21.25 L11.25,19 C11.25,18.5857864 11.5857864,18.25 12,18.25 Z" id="Vector-2580-(Stroke)"></path>
                    <path d="M17.6571322,4.34322526 C18.0713457,4.34322526 18.4071322,4.67901169 18.4071322,5.09322526 L18.4071322,7.59322526 C18.4071322,8.00743891 18.0713457,8.34322526 17.6571322,8.34322526 C17.2429186,8.34322526 16.9071322,8.00743891 16.9071322,7.59322526 L16.9071322,5.09322526 C16.9071322,4.67901169 17.2429186,4.34322526 17.6571322,4.34322526 Z" id="Vector-2579-(Stroke)" transform="translate(17.6571, 6.3432) rotate(45) translate(-17.6571, -6.3432)"></path>
                    <path d="M6.25528613,15.8703154 C6.66949967,15.8703154 7.00528613,16.2061019 7.00528613,16.6203154 L7.00528613,18.8703154 C7.00528613,19.2845291 6.66949967,19.6203154 6.25528613,19.6203154 C5.84107257,19.6203154 5.50528613,19.2845291 5.50528613,18.8703154 L5.50528613,16.6203154 C5.50528613,16.2061019 5.84107257,15.8703154 6.25528613,15.8703154 Z" id="Vector-2580-(Stroke)" transform="translate(6.2553, 17.7453) rotate(45) translate(-6.2553, -17.7453)"></path>
                    <path d="M20,9.99999996 C20.4142135,9.99999996 20.75,10.3357864 20.75,10.75 L20.75,13.25 C20.75,13.6642136 20.4142135,14 20,14 C19.5857864,14 19.25,13.6642136 19.25,13.25 L19.25,10.75 C19.25,10.3357864 19.5857864,9.99999996 20,9.99999996 Z" id="Vector-2579-(Stroke)" transform="translate(20, 12) scale(-1, -1) rotate(-90) translate(-20, -12)"></path>
                    <path d="M3.87499998,10.125 C4.28921352,10.125 4.62499998,10.4607864 4.62499998,10.875 L4.62499998,13.125 C4.62499998,13.5392136 4.28921352,13.875 3.87499998,13.875 C3.46078642,13.875 3.12499998,13.5392136 3.12499998,13.125 L3.12499998,10.875 C3.12499998,10.4607864 3.46078642,10.125 3.87499998,10.125 Z" id="Vector-2580-(Stroke)" transform="translate(3.875, 12) scale(-1, -1) rotate(-90) translate(-3.875, -12)"></path>
                    <path d="M17.6570188,15.6568879 C18.0712324,15.6568879 18.4070188,15.9926743 18.4070188,16.4068879 L18.4070188,18.9068879 C18.4070188,19.3211016 18.0712324,19.6568879 17.6570188,19.6568879 C17.2428053,19.6568879 16.9070188,19.3211016 16.9070188,18.9068879 L16.9070188,16.4068879 C16.9070188,15.9926743 17.2428053,15.6568879 17.6570188,15.6568879 Z" id="Vector-2579-(Stroke)" transform="translate(17.657, 17.6569) scale(-1, -1) rotate(-45) translate(-17.657, -17.6569)"></path>
                    <path d="M6.25517281,4.37979774 C6.66938635,4.37979774 7.00517281,4.71558417 7.00517281,5.12979774 L7.00517281,7.37979774 C7.00517281,7.7940114 6.66938635,8.12979774 6.25517281,8.12979774 C5.84095924,8.12979774 5.50517281,7.7940114 5.50517281,7.37979774 L5.50517281,5.12979774 C5.50517281,4.71558417 5.84095924,4.37979774 6.25517281,4.37979774 Z" id="Vector-2580-(Stroke)" transform="translate(6.2552, 6.2548) scale(-1, -1) rotate(-45) translate(-6.2552, -6.2548)"></path>
                </g>
            </g>
        </g>
    </g>
</svg>