<?xml version="1.0" encoding="UTF-8"?>
<svg width="24px" height="24px" viewBox="0 0 24 24" version="1.1" xmlns="http://www.w3.org/2000/svg" xmlns:xlink="http://www.w3.org/1999/xlink">
    <title>Icon/Loading/Bulk</title>
    <defs>
        <path d="M5,0 L59,0 C61.7614237,-8.8817842e-16 64,2.23857625 64,5 L64,203 C64,205.761424 61.7614237,208 59,208 L5,208 C2.23857625,208 0,205.761424 0,203 L0,5 C0,2.23857625 2.23857625,0 5,0 Z" id="path-1"></path>
        <path d="M0,0 L24,0 L24,24 L0,24 L0,0 Z" id="path-2"></path>
    </defs>
    <g id="Icons" stroke="none" stroke-width="1" fill="none" fill-rule="evenodd">
        <g id="Basic-System-feedback" transform="translate(-792, -578)" fill="CURRENTCOLOR" fill-rule="nonzero">
            <g id="loading" transform="translate(772, 414)" xlink:href="#path-1">
                <g id="Icon/Loading/Bulk" transform="translate(20, 164)" xlink:href="#path-2">
                    <path d="M12,1.25 C12.4142136,1.25 12.75,1.58578643 12.75,2 L12.75,5 C12.75,5.41421366 12.4142136,5.75 12,5.75 C11.5857864,5.75 11.25,5.41421366 11.25,5 L11.25,2 C11.25,1.58578643 11.5857864,1.25 12,1.25 Z" id="Vector-2579-(Stroke)" opacity="0.400000006"></path>
                    <path d="M12,18.25 C12.4142136,18.25 12.75,18.5857864 12.75,19 L12.75,22 C12.75,22.4142137 12.4142136,22.75 12,22.75 C11.5857864,22.75 11.25,22.4142137 11.25,22 L11.25,19 C11.25,18.5857864 11.5857864,18.25 12,18.25 Z" id="Vector-2580-(Stroke)" opacity="0.400000006"></path>
                    <path d="M5.98948437,3.73937109 C6.40369794,3.73937109 6.73948437,4.07515752 6.73948437,4.48937109 L6.73948437,7.48937109 C6.73948437,7.90358475 6.40369794,8.23937109 5.98948437,8.23937109 C5.5752708,8.23937109 5.23948437,7.90358475 5.23948437,7.48937109 L5.23948437,4.48937109 C5.23948437,4.07515752 5.5752708,3.73937109 5.98948437,3.73937109 Z" id="Vector-2587-(Stroke)" opacity="0.400000006" transform="translate(5.9895, 5.9894) rotate(-45) translate(-5.9895, -5.9894)"></path>
                    <path d="M18.0099922,15.7603672 C18.4242058,15.7603672 18.7599922,16.0961536 18.7599922,16.5103672 L18.7599922,19.5103672 C18.7599922,19.9245808 18.4242058,20.2603672 18.0099922,20.2603672 C17.5957786,20.2603672 17.2599922,19.9245808 17.2599922,19.5103672 L17.2599922,16.5103672 C17.2599922,16.0961536 17.5957786,15.7603672 18.0099922,15.7603672 Z" id="Vector-2588-(Stroke)" opacity="0.400000006" transform="translate(18.01, 18.0104) rotate(-45) translate(-18.01, -18.0104)"></path>
                    <path d="M20.5,9.74999995 C20.9142136,9.74999995 21.25,10.0857864 21.25,10.5 L21.25,13.5 C21.25,13.9142136 20.9142136,14.25 20.5,14.25 C20.0857864,14.25 19.75,13.9142136 19.75,13.5 L19.75,10.5 C19.75,10.0857864 20.0857864,9.74999995 20.5,9.74999995 Z" id="Vector-2583-(Stroke)" opacity="0.400000006" transform="translate(20.5, 12) scale(-1, -1) rotate(-90) translate(-20.5, -12)"></path>
                    <path d="M3.49999999,9.74999997 C3.91421356,9.74999997 4.24999999,10.0857864 4.24999999,10.5 L4.24999999,13.5 C4.24999999,13.9142136 3.91421356,14.25 3.49999999,14.25 C3.08578642,14.25 2.74999999,13.9142136 2.74999999,13.5 L2.74999999,10.5 C2.74999999,10.0857864 3.08578642,9.74999997 3.49999999,9.74999997 Z" id="Vector-2584-(Stroke)" opacity="0.400000006" transform="translate(3.5, 12) scale(-1, -1) rotate(-90) translate(-3.5, -12)"></path>
                    <path d="M18.0106289,3.73948437 C18.4248425,3.73948437 18.7606289,4.0752708 18.7606289,4.48948437 L18.7606289,7.48948437 C18.7606289,7.90369803 18.4248425,8.23948437 18.0106289,8.23948437 C17.5964153,8.23948437 17.2606289,7.90369803 17.2606289,7.48948437 L17.2606289,4.48948437 C17.2606289,4.0752708 17.5964153,3.73948437 18.0106289,3.73948437 Z" id="Vector-2585-(Stroke)" transform="translate(18.0106, 5.9895) rotate(45) translate(-18.0106, -5.9895)"></path>
                    <path d="M5.9901211,15.7604805 C6.40433466,15.7604805 6.7401211,16.0962669 6.7401211,16.5104805 L6.7401211,19.5104805 C6.7401211,19.9246941 6.40433466,20.2604805 5.9901211,20.2604805 C5.57590753,20.2604805 5.2401211,19.9246941 5.2401211,19.5104805 L5.2401211,16.5104805 C5.2401211,16.0962669 5.57590753,15.7604805 5.9901211,15.7604805 Z" id="Vector-2586-(Stroke)" opacity="0.400000006" transform="translate(5.9901, 18.0105) rotate(45) translate(-5.9901, -18.0105)"></path>
                </g>
            </g>
        </g>
    </g>
</svg>