<?xml version="1.0" encoding="UTF-8"?>
<svg width="24px" height="24px" viewBox="0 0 24 24" version="1.1" xmlns="http://www.w3.org/2000/svg" xmlns:xlink="http://www.w3.org/1999/xlink">
    <title>Icon/Paste/Bold</title>
    <defs>
        <path d="M5,0 L59,0 C61.7614237,-8.8817842e-16 64,2.23857625 64,5 L64,203 C64,205.761424 61.7614237,208 59,208 L5,208 C2.23857625,208 0,205.761424 0,203 L0,5 C0,2.23857625 2.23857625,0 5,0 Z" id="path-1"></path>
        <path d="M0,0 L24,0 L24,24 L0,24 L0,0 Z" id="path-2"></path>
    </defs>
    <g id="Icons" stroke="none" stroke-width="1" fill="none" fill-rule="evenodd">
        <g id="Basic-Actions" transform="translate(-688, -530)" fill-rule="nonzero">
            <g id="Paste" transform="translate(668, 414)" xlink:href="#path-1">
                <g id="Icon/Paste/Bold" transform="translate(20, 116)" xlink:href="#path-2">
                    <path d="M17.1000004,2 L12.8999996,2 C9.44999957,2 8.05000023,3.36999989 8.01000023,6.75 L11.1000004,6.75 C15.3000002,6.75 17.25,8.69999981 17.25,12.8999996 L17.25,15.9899998 C20.6300001,15.9499998 22,14.5500004 22,11.1000004 L22,6.9000001 C22,3.4000001 20.6000004,2 17.1000004,2 Z" id="Vector" fill="CURRENTCOLOR"></path>
                    <path d="M11.1000004,8 L6.9000001,8 C3.4000001,8 2,9.39999962 2,12.8999996 L2,17.1000004 C2,20.6000004 3.4000001,22 6.9000001,22 L11.1000004,22 C14.6000004,22 16,20.6000004 16,17.1000004 L16,12.8999996 C16,9.39999962 14.6000004,8 11.1000004,8 Z M12.29,13.6499996 L8.57999992,17.3600006 C8.43999992,17.5 8.25999969,17.5699997 8.06999969,17.5699997 C7.8799997,17.5699997 7.69999994,17.5 7.55999994,17.3600006 L5.69999981,15.5 C5.41999981,15.22 5.41999981,14.7699998 5.69999981,14.4899998 C5.97999981,14.2099998 6.43000004,14.2099998 6.71000004,14.4899998 L8.06000042,15.8400002 L11.2700005,12.6300001 C11.5500005,12.3500001 12,12.3500001 12.2799997,12.6300001 C12.5599997,12.9100001 12.57,13.3699996 12.29,13.6499996 Z" id="Vector" fill="CURRENTCOLOR"></path>
                    <polygon id="Vector" opacity="0" points="0 0 24 0 24 24 0 24"></polygon>
                </g>
            </g>
        </g>
    </g>
</svg>