<?xml version="1.0" encoding="UTF-8"?>
<svg width="24px" height="24px" viewBox="0 0 24 24" version="1.1" xmlns="http://www.w3.org/2000/svg" xmlns:xlink="http://www.w3.org/1999/xlink">
    <title>Icon/Paste/Linear</title>
    <defs>
        <path d="M5,0 L59,0 C61.7614237,-8.8817842e-16 64,2.23857625 64,5 L64,203 C64,205.761424 61.7614237,208 59,208 L5,208 C2.23857625,208 0,205.761424 0,203 L0,5 C0,2.23857625 2.23857625,0 5,0 Z" id="path-1"></path>
        <path d="M0,0 L24,0 L24,24 L0,24 L0,0 Z" id="path-2"></path>
    </defs>
    <g id="Icons" stroke="none" stroke-width="1" fill="none" fill-rule="evenodd">
        <g id="Basic-Actions" transform="translate(-688, -482)" fill-rule="nonzero">
            <g id="Paste" transform="translate(668, 414)" xlink:href="#path-1">
                <g id="Icon/Paste/Linear" transform="translate(20, 68)" xlink:href="#path-2">
                    <path d="M22,11.1000004 L22,6.9000001 C22,3.4000001 20.6000004,2 17.1000004,2 L12.8999996,2 C9.39999962,2 8,3.4000001 8,6.9000001 L8,8 L11.1000004,8 C14.6000004,8 16,9.39999962 16,12.8999996 L16,16 L17.1000004,16 C20.6000004,16 22,14.6000004 22,11.1000004 Z" id="Vector" stroke="CURRENTCOLOR" stroke-width="1.5" stroke-linecap="round" stroke-linejoin="round"></path>
                    <path d="M16,17.1000004 L16,12.8999996 C16,9.39999962 14.6000004,8 11.1000004,8 L6.9000001,8 C3.4000001,8 2,9.39999962 2,12.8999996 L2,17.1000004 C2,20.6000004 3.4000001,22 6.9000001,22 L11.1000004,22 C14.6000004,22 16,20.6000004 16,17.1000004 Z" id="Vector" stroke="CURRENTCOLOR" stroke-width="1.5" stroke-linecap="round" stroke-linejoin="round"></path>
                    <polyline id="Vector" stroke="CURRENTCOLOR" stroke-width="1.5" stroke-linecap="round" stroke-linejoin="round" points="6.08007812 14.9999876 8.03007793 16.9499884 11.9200783 13.0499878"></polyline>
                    <polygon id="Vector" opacity="0" points="0 0 24 0 24 24 0 24"></polygon>
                </g>
            </g>
        </g>
    </g>
</svg>