<?xml version="1.0" encoding="UTF-8"?>
<svg width="24px" height="24px" viewBox="0 0 24 24" version="1.1" xmlns="http://www.w3.org/2000/svg" xmlns:xlink="http://www.w3.org/1999/xlink">
    <title>Icon/Paste/Outline</title>
    <defs>
        <path d="M5,0 L59,0 C61.7614237,-8.8817842e-16 64,2.23857625 64,5 L64,203 C64,205.761424 61.7614237,208 59,208 L5,208 C2.23857625,208 0,205.761424 0,203 L0,5 C0,2.23857625 2.23857625,0 5,0 Z" id="path-1"></path>
        <path d="M0,0 L24,0 L24,24 L0,24 L0,0 Z" id="path-2"></path>
    </defs>
    <g id="Icons" stroke="none" stroke-width="1" fill="none" fill-rule="evenodd">
        <g id="Basic-Actions" transform="translate(-688, -434)" fill-rule="nonzero">
            <g id="Paste" transform="translate(668, 414)" xlink:href="#path-1">
                <g id="Icon/Paste/Outline" transform="translate(20, 20)" xlink:href="#path-2">
                    <path d="M17.1000004,1.25 L12.8999996,1.25 C8.98999953,1.25 7.25,2.99000001 7.25,6.9000001 L7.25,8 C7.25,8.41 7.59,8.75 8,8.75 L11.1000004,8.75 C14.2000003,8.75 15.25,9.79999971 15.25,12.8999996 L15.25,16 C15.25,16.41 15.59,16.75 16,16.75 L17.1000004,16.75 C21.0100005,16.75 22.75,15.0100005 22.75,11.1000004 L22.75,6.9000001 C22.75,2.99000001 21.0100005,1.25 17.1000004,1.25 Z M8.75,7.25 L8.75,6.9000001 C8.75,3.80000019 9.79999971,2.75 12.8999996,2.75 L17.1000004,2.75 C20.2000003,2.75 21.25,3.80000019 21.25,6.9000001 L21.25,11.1000004 C21.25,14.2000003 20.2000003,15.25 17.1000004,15.25 L16.75,15.25 L16.75,12.8999996 C16.75,8.98999953 15.0100005,7.25 11.1000004,7.25 L8.75,7.25 Z" id="Vector" fill="CURRENTCOLOR"></path>
                    <path d="M11.1000004,7.25 L6.9000001,7.25 C2.99000001,7.25 1.25,8.98999953 1.25,12.8999996 L1.25,17.1000004 C1.25,21.0100005 2.99000001,22.75 6.9000001,22.75 L11.1000004,22.75 C15.0100005,22.75 16.75,21.0100005 16.75,17.1000004 L16.75,12.8999996 C16.75,8.98999953 15.0100005,7.25 11.1000004,7.25 Z M6.9000001,21.25 C3.80000019,21.25 2.75,20.2000003 2.75,17.1000004 L2.75,12.8999996 C2.75,9.79999971 3.80000019,8.75 6.9000001,8.75 L11.1000004,8.75 C14.2000003,8.75 15.25,9.79999971 15.25,12.8999996 L15.25,17.1000004 C15.25,20.2000003 14.2000003,21.25 11.1000004,21.25 L6.9000001,21.25 Z" id="Vector" fill="CURRENTCOLOR"></path>
                    <path d="M8.02953076,17.7000012 C7.83953077,17.7000012 7.64953104,17.63 7.49953103,17.48 L5.54953125,15.53 C5.25953126,15.24 5.25953126,14.7600005 5.54953125,14.4700005 C5.83953124,14.1800005 6.31953117,14.1800005 6.60953116,14.4700005 L8.02953076,15.8900006 L11.3895316,12.53 C11.6795316,12.24 12.1595311,12.24 12.4495311,12.53 C12.7395311,12.82 12.7395311,13.3000004 12.4495311,13.5900004 L8.54953122,17.48 C8.40953122,17.62 8.21953076,17.7000012 8.02953076,17.7000012 Z" id="Vector" fill="CURRENTCOLOR"></path>
                    <polygon id="Vector" opacity="0" points="0 0 24 0 24 24 0 24"></polygon>
                </g>
            </g>
        </g>
    </g>
</svg>