<?xml version="1.0" encoding="UTF-8"?>
<svg width="24px" height="24px" viewBox="0 0 24 24" version="1.1" xmlns="http://www.w3.org/2000/svg" xmlns:xlink="http://www.w3.org/1999/xlink">
    <title>Icon/Warning/Linear</title>
    <defs>
        <path d="M5,0 L59,0 C61.7614237,-8.8817842e-16 64,2.23857625 64,5 L64,203 C64,205.761424 61.7614237,208 59,208 L5,208 C2.23857625,208 0,205.761424 0,203 L0,5 C0,2.23857625 2.23857625,0 5,0 Z" id="path-1"></path>
        <path d="M0,0 L24,0 L24,24 L0,24 L0,0 Z" id="path-2"></path>
    </defs>
    <g id="Icons" stroke="none" stroke-width="1" fill="none" fill-rule="evenodd">
        <g id="Basic-System-feedback" transform="translate(-376, -482)" fill-rule="nonzero">
            <g id="Warning" transform="translate(356, 414)" xlink:href="#path-1">
                <g id="Icon/Warning/Linear" transform="translate(20, 68)" xlink:href="#path-2">
                    <line x1="12" y1="7.75" x2="12" y2="13" id="Vector" stroke="CURRENTCOLOR" stroke-width="1.5" stroke-linecap="round" stroke-linejoin="round"></line>
                    <path d="M21.0800171,8.58003426 L21.0800171,15.4200001 C21.0800171,16.5400001 20.4800098,17.5800416 19.5100098,18.1500416 L13.5700073,21.5800343 C12.6000073,22.1400343 11.3999829,22.1400343 10.4199829,21.5800343 L4.47998047,18.1500416 C3.50998044,17.5900416 2.90997314,16.5500001 2.90997314,15.4200001 L2.90997314,8.58003426 C2.90997314,7.46003425 3.50998044,6.41999274 4.47998047,5.84999275 L10.4199829,2.42000002 C11.3899829,1.86000001 12.5900073,1.86000001 13.5700073,2.42000002 L19.5100098,5.84999275 C20.4800098,6.41999274 21.0800171,7.45003426 21.0800171,8.58003426 Z" id="Vector" stroke="CURRENTCOLOR" stroke-width="1.5" stroke-linecap="round" stroke-linejoin="round"></path>
                    <polygon id="Vector" opacity="0" points="0 0 24 0 24 24 0 24"></polygon>
                    <line x1="12" y1="16.2000122" x2="12" y2="16.3000122" id="Vector" stroke="CURRENTCOLOR" stroke-width="1.5" stroke-linecap="round" stroke-linejoin="round"></line>
                </g>
            </g>
        </g>
    </g>
</svg>