<?xml version="1.0" encoding="UTF-8"?>
<svg width="24px" height="24px" viewBox="0 0 24 24" version="1.1" xmlns="http://www.w3.org/2000/svg" xmlns:xlink="http://www.w3.org/1999/xlink">
    <title>Icon/Warning/Outline</title>
    <defs>
        <path d="M5,0 L59,0 C61.7614237,-8.8817842e-16 64,2.23857625 64,5 L64,203 C64,205.761424 61.7614237,208 59,208 L5,208 C2.23857625,208 0,205.761424 0,203 L0,5 C0,2.23857625 2.23857625,0 5,0 Z" id="path-1"></path>
        <path d="M0,0 L24,0 L24,24 L0,24 L0,0 Z" id="path-2"></path>
    </defs>
    <g id="Icons" stroke="none" stroke-width="1" fill="none" fill-rule="evenodd">
        <g id="Basic-System-feedback" transform="translate(-376, -434)" fill-rule="nonzero">
            <g id="Warning" transform="translate(356, 414)" xlink:href="#path-1">
                <g id="Icon/Warning/Outline" transform="translate(20, 20)" xlink:href="#path-2">
                    <path d="M11.25,13 L11.25,7.75 C11.25,7.33578643 11.5857864,7 12,7 C12.4142136,7 12.75,7.33578643 12.75,7.75 L12.75,13 C12.75,13.4142136 12.4142136,13.75 12,13.75 C11.5857864,13.75 11.25,13.4142136 11.25,13 Z" id="Vector-(Stroke)" fill="CURRENTCOLOR"></path>
                    <path d="M20.329895,8.58007789 C20.329895,7.72017938 19.8741069,6.93450525 19.1296997,6.49707007 L19.1296997,6.49609351 L13.1980591,3.07128906 L13.055481,2.99609375 C12.3336546,2.64431164 11.4855462,2.67051926 10.7947388,3.06933594 L4.85919189,6.49609351 C4.11613232,6.93289697 3.65997314,7.72899199 3.65997314,8.58007789 L3.65997314,15.4199221 C3.65997314,16.2835091 4.11867756,17.0757185 4.85528564,17.5009768 L10.7918091,20.9287112 C11.5424269,21.3576356 12.4583527,21.3560199 13.1951294,20.9306643 L19.1345825,17.5009768 C19.8752186,17.0636604 20.329895,16.2694398 20.329895,15.4199221 L20.329895,8.58007789 Z M21.829895,15.4199221 C21.829895,16.8086108 21.0870367,18.0936043 19.8904419,18.7968752 L19.8845825,18.7998049 L13.9451294,22.2294924 C12.741906,22.9241368 11.2570506,22.9225211 10.0476685,22.2314456 L10.0447388,22.2294924 L4.10528564,18.7998049 C2.90189373,18.1050632 2.15997314,16.8163351 2.15997314,15.4199221 L2.15997314,8.58007789 C2.15997314,7.19129324 2.90366244,5.90636414 4.10040283,5.203125 L4.10528564,5.20019531 L10.0447388,1.77050781 C11.1728945,1.11920142 12.5486201,1.08015466 13.7127075,1.64746094 L13.9421997,1.76855469 L13.9451294,1.77050781 L19.8845825,5.20019531 L19.8904419,5.203125 C21.0858982,5.90571845 21.829895,7.18006754 21.829895,8.58007789 L21.829895,15.4199221 Z" id="Vector-(Stroke)" fill="CURRENTCOLOR"></path>
                    <polygon id="Vector" opacity="0" points="0 0 24 0 24 24 0 24"></polygon>
                    <path d="M11.25,16.2996216 L11.25,16.2000122 C11.25,15.7857986 11.5857864,15.4500122 12,15.4500122 C12.4142136,15.4500122 12.75,15.7857986 12.75,16.2000122 L12.75,16.2996216 C12.75,16.7138352 12.4142136,17.0496216 12,17.0496216 C11.5857864,17.0496216 11.25,16.7138352 11.25,16.2996216 Z" id="Vector-(Stroke)" fill="CURRENTCOLOR"></path>
                </g>
            </g>
        </g>
    </g>
</svg>