<?xml version="1.0" encoding="UTF-8"?>
<svg width="24px" height="24px" viewBox="0 0 24 24" version="1.1" xmlns="http://www.w3.org/2000/svg" xmlns:xlink="http://www.w3.org/1999/xlink">
    <title>Icon/Warning/Bold</title>
    <defs>
        <path d="M5,0 L59,0 C61.7614237,-8.8817842e-16 64,2.23857625 64,5 L64,203 C64,205.761424 61.7614237,208 59,208 L5,208 C2.23857625,208 0,205.761424 0,203 L0,5 C0,2.23857625 2.23857625,0 5,0 Z" id="path-1"></path>
        <path d="M0,0 L24,0 L24,24 L0,24 L0,0 Z" id="path-2"></path>
    </defs>
    <g id="Icons" stroke="none" stroke-width="1" fill="none" fill-rule="evenodd">
        <g id="Basic-System-feedback" transform="translate(-376, -530)" fill-rule="nonzero">
            <g id="Warning" transform="translate(356, 414)" xlink:href="#path-1">
                <g id="Icon/Warning/Bold" transform="translate(20, 116)" xlink:href="#path-2">
                    <polygon id="Vector" opacity="0" points="0 0 24 0 24 24 0 24"></polygon>
                    <path d="M19.5100002,5.8499999 L13.5699997,2.42000002 C12.5999997,1.86000001 11.4000001,1.86000001 10.4200001,2.42000002 L4.48999977,5.8499999 C3.51999974,6.40999991 2.92000008,7.44999993 2.92000008,8.57999992 L2.92000008,15.4200001 C2.92000008,16.5400001 3.51999974,17.5799996 4.48999977,18.1499996 L10.4300003,21.5799999 C11.4000003,22.1399999 12.5999999,22.1399999 13.5799999,21.5799999 L19.5200005,18.1499996 C20.4900005,17.5899996 21.0900002,16.5500001 21.0900002,15.4200001 L21.0900002,8.57999992 C21.0800002,7.44999993 20.4800003,6.4199999 19.5100002,5.8499999 Z M11.25,7.75 C11.25,7.34 11.59,7 12,7 C12.41,7 12.75,7.34 12.75,7.75 L12.75,13 C12.75,13.41 12.41,13.75 12,13.75 C11.59,13.75 11.25,13.41 11.25,13 L11.25,7.75 Z M12.9200001,16.6299992 C12.8700001,16.7499992 12.8,16.8599991 12.71,16.9599991 C12.52,17.1499991 12.27,17.25 12,17.25 C11.87,17.25 11.7399999,17.2200001 11.6199999,17.1700001 C11.4899999,17.1200001 11.39,17.0499991 11.29,16.9599991 C11.2,16.8599991 11.1299997,16.7499992 11.0699997,16.6299992 C11.0199997,16.5099992 11,16.38 11,16.25 C11,15.99 11.1,15.73 11.29,15.54 C11.39,15.45 11.4899999,15.3799999 11.6199999,15.3299999 C11.9899999,15.1699999 12.43,15.26 12.71,15.54 C12.8,15.64 12.8700001,15.7399999 12.9200001,15.8699999 C12.9700001,15.9899999 13,16.12 13,16.25 C13,16.38 12.9700001,16.5099992 12.9200001,16.6299992 Z" id="Vector" fill="CURRENTCOLOR"></path>
                </g>
            </g>
        </g>
    </g>
</svg>