<?xml version="1.0" encoding="UTF-8"?>
<svg width="24px" height="24px" viewBox="0 0 24 24" version="1.1" xmlns="http://www.w3.org/2000/svg" xmlns:xlink="http://www.w3.org/1999/xlink">
    <title>Icon/Warning/Bulk</title>
    <defs>
        <path d="M5,0 L59,0 C61.7614237,-8.8817842e-16 64,2.23857625 64,5 L64,203 C64,205.761424 61.7614237,208 59,208 L5,208 C2.23857625,208 0,205.761424 0,203 L0,5 C0,2.23857625 2.23857625,0 5,0 Z" id="path-1"></path>
        <path d="M0,0 L24,0 L24,24 L0,24 L0,0 Z" id="path-2"></path>
    </defs>
    <g id="Icons" stroke="none" stroke-width="1" fill="none" fill-rule="evenodd">
        <g id="Basic-System-feedback" transform="translate(-376, -578)" fill-rule="nonzero">
            <g id="Warning" transform="translate(356, 414)" xlink:href="#path-1">
                <g id="Icon/Warning/Bulk" transform="translate(20, 164)" xlink:href="#path-2">
                    <polygon id="Vector" opacity="0" points="0 0 24 0 24 24 0 24"></polygon>
                    <path d="M21.0800171,8.58003426 L21.0800171,15.4200001 C21.0800171,16.5400001 20.4800098,17.5800416 19.5100098,18.1500416 L13.5700073,21.5800343 C12.6000073,22.1400343 11.3999829,22.1400343 10.4199829,21.5800343 L4.47998047,18.1500416 C3.50998044,17.5900416 2.90997314,16.5500001 2.90997314,15.4200001 L2.90997314,8.58003426 C2.90997314,7.46003425 3.50998044,6.41999274 4.47998047,5.84999275 L10.4199829,2.42000002 C11.3899829,1.86000001 12.5900073,1.86000001 13.5700073,2.42000002 L19.5100098,5.84999275 C20.4800098,6.41999274 21.0800171,7.45003426 21.0800171,8.58003426 Z" id="Vector" fill="CURRENTCOLOR" opacity="0.400000006"></path>
                    <path d="M12,13.75 C11.59,13.75 11.25,13.41 11.25,13 L11.25,7.75 C11.25,7.34 11.59,7 12,7 C12.41,7 12.75,7.34 12.75,7.75 L12.75,13 C12.75,13.41 12.41,13.75 12,13.75 Z" id="Vector" fill="CURRENTCOLOR"></path>
                    <path d="M12,17.2499806 C11.87,17.2499806 11.7399951,17.2199635 11.6199951,17.1699635 C11.4899951,17.1199635 11.389978,17.0500025 11.289978,16.9600025 C11.199978,16.8600025 11.1300073,16.7499854 11.0700073,16.6299855 C11.0200073,16.5099855 11,16.3799806 11,16.2499806 C11,15.9899806 11.099978,15.7299586 11.289978,15.5399586 C11.389978,15.4499586 11.4899951,15.3799977 11.6199951,15.3299977 C11.9899951,15.1699977 12.430022,15.2599586 12.710022,15.5399586 C12.800022,15.6399586 12.8699829,15.7399757 12.9199829,15.8699757 C12.9699829,15.9899757 13,16.1199806 13,16.2499806 C13,16.3799806 12.9699829,16.5099855 12.9199829,16.6299855 C12.8699829,16.7499854 12.800022,16.8600025 12.710022,16.9600025 C12.520022,17.1500025 12.27,17.2499806 12,17.2499806 Z" id="Vector" fill="CURRENTCOLOR"></path>
                </g>
            </g>
        </g>
    </g>
</svg>