<?xml version="1.0" encoding="UTF-8"?>
<svg width="24px" height="24px" viewBox="0 0 24 24" version="1.1" xmlns="http://www.w3.org/2000/svg" xmlns:xlink="http://www.w3.org/1999/xlink">
    <title>Icon/Chevron-right/Bold</title>
    <defs>
        <path d="M5,0 L59,0 C61.7614237,-8.8817842e-16 64,2.23857625 64,5 L64,203 C64,205.761424 61.7614237,208 59,208 L5,208 C2.23857625,208 0,205.761424 0,203 L0,5 C0,2.23857625 2.23857625,0 5,0 Z" id="path-1"></path>
        <path d="M0,0 L24,0 L24,24 L0,24 L0,0 Z" id="path-2"></path>
    </defs>
    <g id="Icons" stroke="none" stroke-width="1" fill="none" fill-rule="evenodd">
        <g id="Basic-Navigation" transform="translate(-794, -282)" fill="CURRENTCOLOR" fill-rule="nonzero">
            <g id="Chevron-right" transform="translate(774, 166)" xlink:href="#path-1">
                <g id="Icon/Chevron-right/Bold" transform="translate(20, 116)" xlink:href="#path-2">
                    <path d="M12,2 C6.48999977,2 2,6.48999977 2,12 C2,17.5100002 6.48999977,22 12,22 C17.5100002,22 22,17.5100002 22,12 C22,6.48999977 17.5100002,2 12,2 Z M14.79,12.5299997 L11.2600002,16.0599995 C11.1100002,16.2099995 10.9199995,16.2800007 10.7299995,16.2800007 C10.5399995,16.2800007 10.3499998,16.2099995 10.1999998,16.0599995 C9.90999982,15.7699995 9.90999982,15.29 10.1999998,15 L13.1999998,12 L10.1999998,9 C9.90999982,8.71000001 9.90999982,8.23000005 10.1999998,7.94000006 C10.4899998,7.65000007 10.9700002,7.65000007 11.2600002,7.94000006 L14.79,11.4700003 C15.09,11.7600003 15.09,12.2399997 14.79,12.5299997 Z" id="Vector"></path>
                </g>
            </g>
        </g>
    </g>
</svg>