<?xml version="1.0" encoding="UTF-8"?>
<svg width="24px" height="24px" viewBox="0 0 24 24" version="1.1" xmlns="http://www.w3.org/2000/svg" xmlns:xlink="http://www.w3.org/1999/xlink">
    <title>Icon/Undo/Bold</title>
    <defs>
        <path d="M5,0 L59,0 C61.7614237,-8.8817842e-16 64,2.23857625 64,5 L64,203 C64,205.761424 61.7614237,208 59,208 L5,208 C2.23857625,208 0,205.761424 0,203 L0,5 C0,2.23857625 2.23857625,0 5,0 Z" id="path-1"></path>
        <path d="M0,0 L24,0 L24,24 L0,24 L0,0 Z" id="path-2"></path>
    </defs>
    <g id="Icons" stroke="none" stroke-width="1" fill="none" fill-rule="evenodd">
        <g id="Basic-Actions" transform="translate(-376, -530)" fill-rule="nonzero">
            <g id="Undo" transform="translate(356, 414)" xlink:href="#path-1">
                <g id="Icon/Undo/Bold" transform="translate(20, 116)" xlink:href="#path-2">
                    <path d="M16.1900005,2 L7.80999994,2 C4.16999984,2 2,4.16999984 2,7.80999994 L2,16.1800003 C2,19.8300004 4.16999984,22 7.80999994,22 L16.1800003,22 C19.8200004,22 21.9900341,19.8300006 21.9900341,16.1900005 L21.9900341,7.80999994 C22,4.16999984 19.8300006,2 16.1900005,2 Z M13.9200001,16.6299992 L9,16.6299992 C8.59,16.6299992 8.25,16.2900001 8.25,15.8800001 C8.25,15.4700001 8.59,15.1300001 9,15.1300001 L13.9200001,15.1300001 C15.2,15.1300001 16.25,14.0900002 16.25,12.8000002 C16.25,11.5100002 15.21,10.4700003 13.9200001,10.4700003 L8.85000038,10.4700003 L9.10999966,10.7299995 C9.39999965,11.0199995 9.39999965,11.5 9.10999966,11.79 C8.95999965,11.94 8.76999992,12.0100002 8.57999992,12.0100002 C8.38999993,12.0100002 8.2000002,11.94 8.05000019,11.79 L6.48000002,10.2200003 C6.19000003,9.93000028 6.19000003,9.44999984 6.48000002,9.15999985 L8.05000019,7.59000015 C8.34000018,7.30000016 8.81999967,7.30000016 9.10999966,7.59000015 C9.39999965,7.88000014 9.39999965,8.35999963 9.10999966,8.64999962 L8.77000046,8.97999954 L13.9200001,8.97999954 C16.03,8.97999954 17.75,10.7000005 17.75,12.8100004 C17.75,14.9200003 16.03,16.6299992 13.9200001,16.6299992 Z" id="Vector" fill="CURRENTCOLOR"></path>
                    <polygon id="Vector" opacity="0" transform="translate(12, 12) rotate(-180) translate(-12, -12)" points="0 0 24 0 24 24 0 24"></polygon>
                </g>
            </g>
        </g>
    </g>
</svg>