<?xml version="1.0" encoding="UTF-8"?>
<svg width="24px" height="24px" viewBox="0 0 24 24" version="1.1" xmlns="http://www.w3.org/2000/svg" xmlns:xlink="http://www.w3.org/1999/xlink">
    <title>Icon/Undo/Linear</title>
    <defs>
        <path d="M5,0 L59,0 C61.7614237,-8.8817842e-16 64,2.23857625 64,5 L64,203 C64,205.761424 61.7614237,208 59,208 L5,208 C2.23857625,208 0,205.761424 0,203 L0,5 C0,2.23857625 2.23857625,0 5,0 Z" id="path-1"></path>
        <path d="M0,0 L24,0 L24,24 L0,24 L0,0 Z" id="path-2"></path>
    </defs>
    <g id="Icons" stroke="none" stroke-width="1" fill="none" fill-rule="evenodd">
        <g id="Basic-Actions" transform="translate(-376, -482)" fill-rule="nonzero">
            <g id="Undo" transform="translate(356, 414)" xlink:href="#path-1">
                <g id="Icon/Undo/Linear" transform="translate(20, 68)" xlink:href="#path-2">
                    <path d="M7.13000011,18.3100004 L15.1300001,18.3100004 C17.8900001,18.3100004 20.1300001,16.0700004 20.1300001,13.3100004 C20.1300001,10.5500004 17.8900001,8.31000042 15.1300001,8.31000042 L4.13000011,8.31000042" id="Vector" stroke="CURRENTCOLOR" stroke-width="1.5" stroke-linecap="round" stroke-linejoin="round"></path>
                    <polyline id="Vector" stroke="CURRENTCOLOR" stroke-width="1.5" stroke-linecap="round" stroke-linejoin="round" points="6.42999983 10.8100004 3.86999989 8.25 6.42999983 5.69000006"></polyline>
                    <polygon id="Vector" opacity="0" transform="translate(12, 12) rotate(-180) translate(-12, -12)" points="0 0 24 0 24 24 0 24"></polygon>
                </g>
            </g>
        </g>
    </g>
</svg>