<?xml version="1.0" encoding="UTF-8"?>
<svg width="24px" height="24px" viewBox="0 0 24 24" version="1.1" xmlns="http://www.w3.org/2000/svg" xmlns:xlink="http://www.w3.org/1999/xlink">
    <title>Icon/Undo/Bulk</title>
    <defs>
        <path d="M5,0 L59,0 C61.7614237,-8.8817842e-16 64,2.23857625 64,5 L64,203 C64,205.761424 61.7614237,208 59,208 L5,208 C2.23857625,208 0,205.761424 0,203 L0,5 C0,2.23857625 2.23857625,0 5,0 Z" id="path-1"></path>
        <path d="M0,0 L24,0 L24,24 L0,24 L0,0 Z" id="path-2"></path>
    </defs>
    <g id="Icons" stroke="none" stroke-width="1" fill="none" fill-rule="evenodd">
        <g id="Basic-Actions" transform="translate(-376, -578)" fill-rule="nonzero">
            <g id="Undo" transform="translate(356, 414)" xlink:href="#path-1">
                <g id="Icon/Undo/Bulk" transform="translate(20, 164)" xlink:href="#path-2">
                    <path d="M7.80999994,2 L16.1800003,2 C19.8300004,2 22,4.16999984 22,7.80999994 L22,16.1800003 C22,19.8200004 19.8300006,21.9900341 16.1900005,21.9900341 L7.80999994,21.9900341 C4.16999984,22 2,19.8300006 2,16.1900005 L2,7.80999994 C2,4.16999984 4.16999984,2 7.80999994,2 Z" id="Vector" fill="CURRENTCOLOR" opacity="0.400000006"></path>
                    <path d="M13.9204302,8.9799993 L8.77043033,8.9799993 L9.10043025,8.64999938 C9.39043024,8.35999939 9.39043024,7.87999994 9.10043025,7.58999994 C8.81043026,7.29999995 8.33042982,7.29999995 8.04042983,7.58999994 L6.47042969,9.15999961 C6.1804297,9.4499996 6.1804297,9.93000004 6.47042969,10.22 L8.04042983,11.79 C8.19042984,11.94 8.38042957,12.0100002 8.57042956,12.0100002 C8.76042956,12.0100002 8.95043024,11.94 9.10043025,11.79 C9.39043024,11.5 9.39043024,11.0199993 9.10043025,10.7299993 L8.84043002,10.47 L13.9204302,10.47 C15.2004302,10.47 16.2504301,11.5100002 16.2504301,12.8000002 C16.2504301,14.0900002 15.2104301,15.1300001 13.9204302,15.1300001 L9.00042987,15.1300001 C8.59042987,15.1300001 8.25042987,15.4699996 8.25042987,15.8799996 C8.25042987,16.2899996 8.59042987,16.6299987 9.00042987,16.6299987 L13.9204302,16.6299987 C16.0304301,16.6299987 17.7504301,14.9100001 17.7504301,12.8000002 C17.7504301,10.6900003 16.0304301,8.9799993 13.9204302,8.9799993 Z" id="Vector" fill="CURRENTCOLOR"></path>
                    <polygon id="Vector" opacity="0" points="0 0 24 0 24 24 0 24"></polygon>
                </g>
            </g>
        </g>
    </g>
</svg>