<?xml version="1.0" encoding="UTF-8"?>
<svg width="24px" height="24px" viewBox="0 0 24 24" version="1.1" xmlns="http://www.w3.org/2000/svg" xmlns:xlink="http://www.w3.org/1999/xlink">
    <title>Icon/Undo/Outline</title>
    <defs>
        <path d="M5,0 L59,0 C61.7614237,-8.8817842e-16 64,2.23857625 64,5 L64,203 C64,205.761424 61.7614237,208 59,208 L5,208 C2.23857625,208 0,205.761424 0,203 L0,5 C0,2.23857625 2.23857625,0 5,0 Z" id="path-1"></path>
        <path d="M0,0 L24,0 L24,24 L0,24 L0,0 Z" id="path-2"></path>
    </defs>
    <g id="Icons" stroke="none" stroke-width="1" fill="none" fill-rule="evenodd">
        <g id="Basic-Actions" transform="translate(-376, -434)" fill-rule="nonzero">
            <g id="Undo" transform="translate(356, 414)" xlink:href="#path-1">
                <g id="Icon/Undo/Outline" transform="translate(20, 20)" xlink:href="#path-2">
                    <path d="M15.1300001,19.0599999 L7.13000011,19.0599999 C6.72000012,19.0599999 6.38000011,18.7199999 6.38000011,18.3099999 C6.38000011,17.8999999 6.72000012,17.5599999 7.13000011,17.5599999 L15.1300001,17.5599999 C17.47,17.5599999 19.3800001,15.6500003 19.3800001,13.3100004 C19.3800001,10.9700005 17.47,9.05999994 15.1300001,9.05999994 L4.13000011,9.05999994 C3.72000012,9.05999994 3.38000011,8.72000042 3.38000011,8.31000042 C3.38000011,7.90000042 3.72000012,7.55999994 4.13000011,7.55999994 L15.1300001,7.55999994 C18.3000002,7.55999994 20.8800001,10.1400003 20.8800001,13.3100004 C20.8800001,16.4800005 18.3000002,19.0599999 15.1300001,19.0599999 Z" id="Vector" fill="CURRENTCOLOR"></path>
                    <path d="M6.4295702,11.5600057 C6.2395702,11.5600057 6.04957047,11.4900054 5.89957047,11.3400054 L3.33957031,8.78000474 C3.04957032,8.49000475 3.04957032,8.01000479 3.33957031,7.7200048 L5.89957047,5.16000488 C6.18957046,4.87000489 6.66957042,4.87000489 6.95957041,5.16000488 C7.2495704,5.45000488 7.2495704,5.93000481 6.95957041,6.2200048 L4.9295702,8.25000501 L6.95957041,10.280005 C7.2495704,10.570005 7.2495704,11.0500054 6.95957041,11.3400054 C6.81957041,11.4900054 6.6195702,11.5600057 6.4295702,11.5600057 Z" id="Vector" fill="CURRENTCOLOR"></path>
                    <polygon id="Vector" opacity="0" points="0 0 24 0 24 24 0 24"></polygon>
                </g>
            </g>
        </g>
    </g>
</svg>