<?xml version="1.0" encoding="UTF-8"?>
<svg width="24px" height="24px" viewBox="0 0 24 24" version="1.1" xmlns="http://www.w3.org/2000/svg" xmlns:xlink="http://www.w3.org/1999/xlink">
    <title>Icon/Bag-happy/Linear</title>
    <defs>
        <path d="M5,0 L59,0 C61.7614237,-8.8817842e-16 64,2.23857625 64,5 L64,203 C64,205.761424 61.7614237,208 59,208 L5,208 C2.23857625,208 0,205.761424 0,203 L0,5 C0,2.23857625 2.23857625,0 5,0 Z" id="path-1"></path>
        <path d="M0,0 L24,0 L24,24 L0,24 L0,0 Z" id="path-2"></path>
    </defs>
    <g id="Icons" stroke="none" stroke-width="1" fill="none" fill-rule="evenodd">
        <g id="Shop" transform="translate(-584, -233)" fill-rule="nonzero">
            <g id="bag-happy" transform="translate(564, 165)" xlink:href="#path-1">
                <g id="Icon/Bag-happy/Linear" transform="translate(20, 68)" xlink:href="#path-2">
                    <path d="M7,6.66170788 L7,5.69170761 C7,3.44170761 9.01111158,1.23170796 11.5111116,1.02170797 C14.4888894,0.76170798 17,2.87170792 17,5.50170803 L17,6.88170767" id="Vector" stroke="CURRENTCOLOR" stroke-width="1.5" stroke-linecap="round" stroke-linejoin="round" fill-rule="nonzero"></path>
                    <g id="Group" stroke-width="1" fill-rule="evenodd" transform="translate(2, 6.8417)" stroke="#292D32">
                        <path d="M6.5,8.4000001 C6.5,10.3200001 8.08000004,11.9000001 10,11.9000001 C11.92,11.9000001 13.5,10.3200001 13.5,8.4000001" id="Vector" stroke-width="1.5" stroke-linecap="round" stroke-linejoin="round" fill-rule="nonzero"></path>
                        <path d="M0,2 C0,0.149999976 0.989999771,0 2.21999979,0 L17.7800007,0 C19.0100007,0 20,0.149999976 20,2 C20,4.1500001 19.0100007,4 17.7800007,4 L2.21999979,4 C0.989999771,4 0,4.1500001 0,2 Z" id="Vector" stroke-width="1.5" fill-rule="nonzero"></path>
                        <path d="M1.5,4.1500001 L2.90999985,12.7899995 C3.22999984,14.7299995 4,16.1500001 6.85999966,16.1500001 L12.8900003,16.1500001 C16,16.1500001 16.4599997,14.7900003 16.8199997,12.9100003 L18.5,4.1500001" id="Vector" stroke-width="1.5" stroke-linecap="round" fill-rule="nonzero"></path>
                    </g>
                </g>
            </g>
        </g>
    </g>
</svg>