<?xml version="1.0" encoding="UTF-8"?>
<svg width="24px" height="24px" viewBox="0 0 24 24" version="1.1" xmlns="http://www.w3.org/2000/svg" xmlns:xlink="http://www.w3.org/1999/xlink">
    <title>Icon/Bag-happy/Bold</title>
    <defs>
        <path d="M5,0 L59,0 C61.7614237,-8.8817842e-16 64,2.23857625 64,5 L64,203 C64,205.761424 61.7614237,208 59,208 L5,208 C2.23857625,208 0,205.761424 0,203 L0,5 C0,2.23857625 2.23857625,0 5,0 Z" id="path-1"></path>
        <path d="M0,0 L24,0 L24,24 L0,24 L0,0 Z" id="path-2"></path>
    </defs>
    <g id="Icons" stroke="none" stroke-width="1" fill="none" fill-rule="evenodd">
        <g id="Shop" transform="translate(-584, -281)" fill="CURRENTCOLOR" fill-rule="nonzero">
            <g id="bag-happy" transform="translate(564, 165)" xlink:href="#path-1">
                <g id="Icon/Bag-happy/Bold" transform="translate(20, 116)" xlink:href="#path-2">
                    <path d="M18,6.50156193 L18,6.579 L19.3235293,6.57992518 C20.2129257,6.58213349 21.8909216,6.65279939 21.9949278,8.91410816 L22,9.13985436 C22,10.8198543 21.3600004,11.4198534 20.5200005,11.6198534 C20.2400005,11.6798534 19.9499994,11.6998534 19.6399994,11.6998534 L4.36000013,11.6998534 C4.06000012,11.6998534 3.75000003,11.6898534 3.46000004,11.6198534 C3.15000004,11.5498534 2.85999988,11.4198536 2.61999989,11.1698536 C2.1999999,10.7498536 2,10.1098544 2,9.13985436 C2,6.57985394 3.87,6.57985394 4.76999998,6.57985394 L6.002,6.579 L6.00482194,6.47505147 C6.12655923,3.7391026 8.53744508,1.26782819 11.4241291,1.02535203 C14.9405961,0.718317245 18,3.23850155 18,6.50156193 Z M11.5948168,3.01805243 C9.69294999,3.17780924 8.06981707,4.85103345 8.00219204,6.57975389 L16,6.579 L16,6.50156193 C16,4.46314974 13.991662,2.80878109 11.5948168,3.01805243 Z" id="Combined-Shape"></path>
                    <path d="M19.0499995,12.9998539 L4.86999989,12.9998539 C4.24999988,12.9998539 3.7800001,13.5498537 3.8800001,14.1598537 L4.71999979,19.2998531 C4.99999979,21.0198532 5.74999976,22.9998539 9.07999969,22.9998539 L14.6899998,22.9998539 C18.0599997,22.9998539 18.6600007,21.309854 19.0200007,19.419854 L20.03,14.1898535 C20.15,13.5698535 19.6799995,12.9998539 19.0499995,12.9998539 Z M12.0000002,20.4998539 C9.66000032,20.4998539 7.75,18.5898538 7.75,16.2498539 C7.75,15.8398539 8.08999977,15.4998539 8.49999976,15.4998539 C8.90999976,15.4998539 9.24999976,15.8398539 9.24999976,16.2498539 C9.24999976,17.7698539 10.4800003,18.9998539 12.0000002,18.9998539 C13.5200002,18.9998539 14.7500002,17.7698539 14.7500002,16.2498539 C14.7500002,15.8398539 15.0900002,15.4998539 15.5000002,15.4998539 C15.9100002,15.4998539 16.2500002,15.8398539 16.2500002,16.2498539 C16.2500002,18.5898538 14.3400002,20.4998539 12.0000002,20.4998539 Z" id="Vector"></path>
                </g>
            </g>
        </g>
    </g>
</svg>