<?xml version="1.0" encoding="UTF-8"?>
<svg width="24px" height="24px" viewBox="0 0 24 24" version="1.1" xmlns="http://www.w3.org/2000/svg" xmlns:xlink="http://www.w3.org/1999/xlink">
    <title>Icon/Search-status/Outline</title>
    <defs>
        <path d="M5,0 L59,0 C61.7614237,-8.8817842e-16 64,2.23857625 64,5 L64,203 C64,205.761424 61.7614237,208 59,208 L5,208 C2.23857625,208 0,205.761424 0,203 L0,5 C0,2.23857625 2.23857625,0 5,0 Z" id="path-1"></path>
        <path d="M0,0 L24,0 L24,24 L0,24 L0,0 Z" id="path-2"></path>
    </defs>
    <g id="Icons" stroke="none" stroke-width="1" fill="none" fill-rule="evenodd">
        <g id="Basic-Search" transform="translate(-168, -186)" fill-rule="nonzero">
            <g id="Search-status" transform="translate(148, 166)" xlink:href="#path-1">
                <g id="Icon/Search-status/Outline" transform="translate(20, 20)" xlink:href="#path-2">
                    <path d="M20,4.25 C20.4142136,4.25 20.75,4.58578643 20.75,5 C20.75,5.41421357 20.4142136,5.75 20,5.75 L14,5.75 C13.5857864,5.75 13.25,5.41421357 13.25,5 C13.25,4.58578643 13.5857864,4.25 14,4.25 L20,4.25 Z" id="Vector-(Stroke)" fill="CURRENTCOLOR"></path>
                    <path d="M17,7.25 C17.4142136,7.25 17.75,7.58578643 17.75,8 C17.75,8.41421357 17.4142136,8.75 17,8.75 L14,8.75 C13.5857864,8.75 13.25,8.41421357 13.25,8 C13.25,7.58578643 13.5857864,7.25 14,7.25 L17,7.25 Z" id="Vector-(Stroke)" fill="CURRENTCOLOR"></path>
                    <path d="M1.25,11.5 C1.25,5.83578634 5.83578634,1.25 11.5,1.25 C11.9142136,1.25 12.25,1.58578643 12.25,2 C12.25,2.41421357 11.9142136,2.75 11.5,2.75 C6.66421366,2.75 2.75,6.66421366 2.75,11.5 C2.75,16.3357863 6.66421366,20.25 11.5,20.25 C16.3357863,20.25 20.25,16.3357863 20.25,11.5 C20.25,11.0857864 20.5857864,10.75 21,10.75 C21.4142136,10.75 21.75,11.0857864 21.75,11.5 C21.75,17.1642137 17.1642137,21.75 11.5,21.75 C5.83578634,21.75 1.25,17.1642137 1.25,11.5 Z" id="Vector-(Stroke)" fill="CURRENTCOLOR"></path>
                    <path d="M19.4697271,19.4697271 C19.7626204,19.1768339 20.2373808,19.1768339 20.530274,19.4697271 L22.5302739,21.469727 C22.8231671,21.7626203 22.8231671,22.2373807 22.5302739,22.5302739 C22.2373807,22.8231671 21.7626203,22.8231671 21.469727,22.5302739 L19.4697271,20.530274 C19.1768339,20.2373808 19.1768339,19.7626204 19.4697271,19.4697271 Z" id="Vector-(Stroke)" fill="CURRENTCOLOR"></path>
                    <polygon id="Vector" opacity="0" points="0 0 24 0 24 24 0 24"></polygon>
                </g>
            </g>
        </g>
    </g>
</svg>