<?xml version="1.0" encoding="UTF-8"?>
<svg width="24px" height="24px" viewBox="0 0 24 24" version="1.1" xmlns="http://www.w3.org/2000/svg" xmlns:xlink="http://www.w3.org/1999/xlink">
    <title>Icon/Search-status/Bold</title>
    <defs>
        <path d="M5,0 L59,0 C61.7614237,-8.8817842e-16 64,2.23857625 64,5 L64,203 C64,205.761424 61.7614237,208 59,208 L5,208 C2.23857625,208 0,205.761424 0,203 L0,5 C0,2.23857625 2.23857625,0 5,0 Z" id="path-1"></path>
        <path d="M0,0 L24,0 L24,24 L0,24 L0,0 Z" id="path-2"></path>
    </defs>
    <g id="Icons" stroke="none" stroke-width="1" fill="none" fill-rule="evenodd">
        <g id="Basic-Search" transform="translate(-168, -282)" fill-rule="nonzero">
            <g id="Search-status" transform="translate(148, 166)" xlink:href="#path-1">
                <g id="Icon/Search-status/Bold" transform="translate(20, 116)" xlink:href="#path-2">
                    <path d="M11.5,2 C6.26000023,2 2,6.26000023 2,11.5 C2,16.7399998 6.26000023,21 11.5,21 C16.7399998,21 21,16.7399998 21,11.5 C21,6.26000023 16.7399998,2 11.5,2 Z M11.5,13.75 L8.5,13.75 C8.09,13.75 7.75,13.41 7.75,13 C7.75,12.59 8.09,12.25 8.5,12.25 L11.5,12.25 C11.91,12.25 12.25,12.59 12.25,13 C12.25,13.41 11.91,13.75 11.5,13.75 Z M14.5,10.75 L8.5,10.75 C8.09,10.75 7.75,10.41 7.75,10 C7.75,9.59 8.09,9.25 8.5,9.25 L14.5,9.25 C14.91,9.25 15.25,9.59 15.25,10 C15.25,10.41 14.91,10.75 14.5,10.75 Z" id="Vector" fill="CURRENTCOLOR"></path>
                    <polygon id="Vector" opacity="0" transform="translate(12, 12) rotate(-180) translate(-12, -12)" points="0 0 24 0 24 24 0 24"></polygon>
                    <path d="M21.3005455,21.9985931 C21.1205454,21.9985931 20.9405457,21.9285923 20.8105457,21.7985923 L18.9505469,19.9385935 C18.6805469,19.6685935 18.6805469,19.2285938 18.9505469,18.9485938 C19.2205469,18.6785938 19.6605466,18.6785938 19.9405466,18.9485938 L21.8005455,20.8085926 C22.0705455,21.0785926 22.0705455,21.5185923 21.8005455,21.7985923 C21.6605455,21.9285923 21.4805455,21.9985931 21.3005455,21.9985931 Z" id="Vector" fill="CURRENTCOLOR"></path>
                </g>
            </g>
        </g>
    </g>
</svg>