<?xml version="1.0" encoding="UTF-8"?>
<svg width="24px" height="24px" viewBox="0 0 24 24" version="1.1" xmlns="http://www.w3.org/2000/svg" xmlns:xlink="http://www.w3.org/1999/xlink">
    <title>Icon/Video-Slash/Bulk</title>
    <defs>
        <path d="M5,0 L59,0 C61.7614237,-8.8817842e-16 64,2.23857625 64,5 L64,203 C64,205.761424 61.7614237,208 59,208 L5,208 C2.23857625,208 0,205.761424 0,203 L0,5 C0,2.23857625 2.23857625,0 5,0 Z" id="path-1"></path>
        <path d="M0,0 L24,0 L24,24 L0,24 L0,0 Z" id="path-2"></path>
    </defs>
    <g id="Icons" stroke="none" stroke-width="1" fill="none" fill-rule="evenodd">
        <g id="Video,-Audio" transform="translate(-168, -330)" fill="CURRENTCOLOR" fill-rule="nonzero">
            <g id="video-slash" transform="translate(148, 166)" xlink:href="#path-1">
                <g id="Icon/Video-Slash/Bulk" transform="translate(20, 164)" xlink:href="#path-2">
                    <path d="M17.6449995,6.55499983 L4.19499969,20.0050001 C2.79499972,19.1150001 2.24499989,17.5249999 2.24499989,15.9949999 L2.24499989,7.99499989 C2.24499989,4.57499981 3.57499981,3.24499989 6.99499989,3.24499989 L12.9949999,3.24499989 C15.885,3.24499989 17.2849995,4.19499993 17.6449995,6.55499983 Z" id="Vector" opacity="0.400000006"></path>
                    <path d="M17.7449999,9.24499989 L17.7449999,15.9949999 C17.7449999,16.0749999 17.7349997,16.134999 17.7349997,16.204999 C17.7349997,16.274999 17.7249994,16.345 17.7249994,16.415 L17.7349997,16.415 C17.6249997,19.5249999 16.2749999,20.7449999 12.9949999,20.7449999 L6.99499989,20.7449999 C6.74499989,20.7449999 6.51499985,20.734999 6.28499985,20.704999 L17.7449999,9.24499989 Z" id="Vector" opacity="0.400000006"></path>
                    <path d="M17.7249994,16.415 C17.7249994,16.345 17.7821428,16.274999 17.7821428,16.204999 C17.839285,16.274999 17.839285,16.345 17.7821428,16.415 L17.7249994,16.415 Z" id="Vector" opacity="0.400000006"></path>
                    <path d="M17.7821428,7.56500006 C17.839285,7.63500006 17.839285,7.71499985 17.7821428,7.78499985 C17.7821428,7.71499985 17.7249994,7.64499981 17.7249994,7.57499981 L17.7821428,7.56500006 Z" id="Vector" opacity="0.400000006"></path>
                    <path d="M22.7449999,8.375 L22.7449999,15.6149993 C22.7449999,17.0449992 22.0549995,17.6150003 21.6449995,17.8250003 C21.4549995,17.9250003 21.1649991,18.0350013 20.7949991,18.0350013 C20.3649991,18.0350013 19.824999,17.8949994 19.204999,17.4549994 L17.7349997,16.4150004 L17.7249994,16.4150004 C17.7249994,16.3450004 17.7349997,16.2749994 17.7349997,16.2049994 C17.7349997,16.1349994 17.7449999,16.0750004 17.7449999,15.9950004 L17.7449999,9.24499989 L21.0150003,5.9749999 C21.2850004,5.9949999 21.4949995,6.07499996 21.6449995,6.16499996 C22.0549995,6.37499996 22.7449999,6.94500005 22.7449999,8.375 Z" id="Vector"></path>
                    <path d="M21.7650013,2.22500001 C21.4650013,1.925 20.9750012,1.925 20.6750011,2.22500001 L2.22500001,20.6850014 C1.925,20.9850014 1.925,21.4750015 2.22500001,21.7750015 C2.37500001,21.9150015 2.56499998,21.9950008 2.76499999,21.9950008 C2.96499999,21.9950008 3.15499994,21.9150013 3.30499995,21.7650013 L21.7650013,3.30499995 C22.0750013,3.00499994 22.0750013,2.52500002 21.7650013,2.22500001 Z" id="Vector"></path>
                </g>
            </g>
        </g>
    </g>
</svg>