<?xml version="1.0" encoding="UTF-8"?>
<svg width="24px" height="24px" viewBox="0 0 24 24" version="1.1" xmlns="http://www.w3.org/2000/svg" xmlns:xlink="http://www.w3.org/1999/xlink">
    <title>Icon/Video-Slash/Linear</title>
    <defs>
        <path d="M5,0 L59,0 C61.7614237,-8.8817842e-16 64,2.23857625 64,5 L64,203 C64,205.761424 61.7614237,208 59,208 L5,208 C2.23857625,208 0,205.761424 0,203 L0,5 C0,2.23857625 2.23857625,0 5,0 Z" id="path-1"></path>
        <path d="M0,0 L24,0 L24,24 L0,24 L0,0 Z" id="path-2"></path>
    </defs>
    <g id="Icons" stroke="none" stroke-width="1" fill="none" fill-rule="evenodd" stroke-linecap="round" stroke-linejoin="round">
        <g id="Video,-Audio" transform="translate(-168, -234)" fill-rule="nonzero" stroke="CURRENTCOLOR" stroke-width="1.5">
            <g id="video-slash" transform="translate(148, 166)" xlink:href="#path-1">
                <g id="Icon/Video-Slash/Linear" transform="translate(20, 68)" xlink:href="#path-2">
                    <path d="M16.6299992,7.57999992 C16.6499992,6.94666676 16.6499992,6.52666684 16.6299992,6.32000017 C16.4599992,4.28000021 15.1300004,3.57999992 12.5200005,3.57999992 L6.21000004,3.57999992 C3.04999995,3.57999992 2,4.62999988 2,7.78999996 L2,16.2099991 C2,17.4699991 2.37999988,18.7399992 3.36999989,19.5499992 L4,20" id="Vector"></path>
                    <path d="M16.7399998,10.9500008 L16.7399998,16.21 C16.7399998,19.3700001 15.6899998,20.420001 12.5299997,20.420001 L7.26000023,20.420001" id="Vector"></path>
                    <path d="M22,6.73999977 L22,15.8100004 C22,17.4800004 20.8800005,18.0600004 19.5200005,17.1000004 L16.7399998,15.1499996" id="Vector"></path>
                    <line x1="22.02" y1="2.19000006" x2="2.01999998" y2="22.1900001" id="Vector"></line>
                </g>
            </g>
        </g>
    </g>
</svg>