<?xml version="1.0" encoding="UTF-8"?>
<svg width="24px" height="24px" viewBox="0 0 24 24" version="1.1" xmlns="http://www.w3.org/2000/svg" xmlns:xlink="http://www.w3.org/1999/xlink">
    <title>Icon/Video-Slash/Outline</title>
    <defs>
        <path d="M5,0 L59,0 C61.7614237,-8.8817842e-16 64,2.23857625 64,5 L64,203 C64,205.761424 61.7614237,208 59,208 L5,208 C2.23857625,208 0,205.761424 0,203 L0,5 C0,2.23857625 2.23857625,0 5,0 Z" id="path-1"></path>
        <path d="M0,0 L24,0 L24,24 L0,24 L0,0 Z" id="path-2"></path>
    </defs>
    <g id="Icons" stroke="none" stroke-width="1" fill="none" fill-rule="evenodd">
        <g id="Video,-Audio" transform="translate(-168, -186)" fill="CURRENTCOLOR" fill-rule="nonzero">
            <g id="video-slash" transform="translate(148, 166)" xlink:href="#path-1">
                <g id="Icon/Video-Slash/Outline" transform="translate(20, 20)" xlink:href="#path-2">
                    <path d="M4.02750015,19.4775001 C3.85750015,19.4775001 3.6874999,19.4175 3.5474999,19.3075 C2.5374999,18.4775 1.97749996,17.1475 1.97749996,15.5575 L1.97749996,7.5575 C1.97749996,4.13749993 3.30749989,2.8075 6.72749996,2.8075 L12.7275,2.8075 C14.7674999,2.8075 16.9074993,3.18750012 17.3674994,6.03750002 C17.4374994,6.44750002 17.1575004,6.82750016 16.7475004,6.89750016 C16.3375004,6.96750016 15.9574998,6.68749979 15.8874998,6.27749979 C15.6774998,4.97749984 15.1275001,4.3075 12.7275,4.3075 L6.72749996,4.3075 C4.14750004,4.3075 3.47749996,4.97750008 3.47749996,7.5575 L3.47749996,15.5575 C3.47749996,16.2075 3.60749996,17.4175001 4.49749994,18.1475002 C4.81749994,18.4075001 4.86749986,18.8874996 4.59749985,19.2074996 C4.45749985,19.3874996 4.23750015,19.4775001 4.02750015,19.4775001 Z" id="Vector"></path>
                    <path d="M12.7275,20.3075 L7.72749996,20.3075 C7.31749997,20.3075 6.97749996,19.9675 6.97749996,19.5575 C6.97749996,19.1475 7.31749997,18.8075 7.72749996,18.8075 L12.7275,18.8075 C15.3074999,18.8075 15.9775,18.1374999 15.9775,15.5575 L15.9775,10.5575 C15.9775,10.1475 16.3175,9.8075 16.7275,9.8075 C17.1375,9.8075 17.4775,10.1475 17.4775,10.5575 L17.4775,15.5575 C17.4775,18.9775001 16.1475,20.3075 12.7275,20.3075 Z" id="Vector"></path>
                    <path d="M20.5274992,17.5975009 C20.0974992,17.5975009 19.5674988,17.4574991 18.9374988,17.0174991 L16.2974994,15.1674997 C15.9574994,14.9274997 15.8774991,14.4574997 16.1174991,14.1274997 C16.3574991,13.7874997 16.8175,13.7075004 17.1575,13.9475003 L19.7974994,15.7974998 C20.2374994,16.1074998 20.5574991,16.1375002 20.687499,16.0675002 C20.817499,15.9975002 20.9775,15.7275001 20.9775,15.1875001 L20.9775,6.5575 C20.9775,6.14750001 21.3175,5.8075 21.7275,5.8075 C22.1375,5.8075 22.4775,6.14750001 22.4775,6.5575 L22.4775,15.1774999 C22.4775,16.6074998 21.7874996,17.1774999 21.3774996,17.3874999 C21.1874996,17.4874999 20.8974992,17.5975009 20.5274992,17.5975009 Z" id="Vector"></path>
                    <path d="M1.74749994,22.4975014 C1.55749995,22.4975014 1.36750001,22.4275002 1.2175,22.2775002 C0.92750001,21.9875002 0.92750001,21.5075007 1.2175,21.2175007 L21.2175007,1.2175 C21.5075007,0.92750001 21.9875002,0.92750001 22.2775002,1.2175 C22.5675001,1.50749999 22.5675001,1.98750004 22.2775002,2.27750003 L2.27749991,22.2775002 C2.13749991,22.4275002 1.93749994,22.4975014 1.74749994,22.4975014 Z" id="Vector"></path>
                </g>
            </g>
        </g>
    </g>
</svg>