<?xml version="1.0" encoding="UTF-8"?>
<svg width="24px" height="24px" viewBox="0 0 24 24" version="1.1" xmlns="http://www.w3.org/2000/svg" xmlns:xlink="http://www.w3.org/1999/xlink">
    <title>Icon/Video-Slash/Bold</title>
    <defs>
        <path d="M5,0 L59,0 C61.7614237,-8.8817842e-16 64,2.23857625 64,5 L64,203 C64,205.761424 61.7614237,208 59,208 L5,208 C2.23857625,208 0,205.761424 0,203 L0,5 C0,2.23857625 2.23857625,0 5,0 Z" id="path-1"></path>
        <path d="M0,0 L24,0 L24,24 L0,24 L0,0 Z" id="path-2"></path>
    </defs>
    <g id="Icons" stroke="none" stroke-width="1" fill="none" fill-rule="evenodd">
        <g id="Video,-Audio" transform="translate(-168, -282)" fill="CURRENTCOLOR" fill-rule="nonzero">
            <g id="video-slash" transform="translate(148, 166)" xlink:href="#path-1">
                <g id="Icon/Video-Slash/Bold" transform="translate(20, 116)" xlink:href="#path-2">
                    <path d="M18.162143,7.56500006 C18.2192851,7.63500006 18.2192851,7.71499985 18.162143,7.78499985 C18.162143,7.71499985 18.1049995,7.64499981 18.1049995,7.57499981 L18.162143,7.56500006 Z" id="Vector" opacity="0.400000006"></path>
                    <path d="M17.6550006,6.55499983 L4.20499992,20.0050001 C2.80499995,19.1150001 2.255,17.5249999 2.255,15.9949999 L2.255,7.99499989 C2.255,4.57499981 3.58499992,3.24499989 7.005,3.24499989 L13.005,3.24499989 C15.8950001,3.24499989 17.2850006,4.19499993 17.6550006,6.55499983 Z" id="Vector"></path>
                    <path d="M21.7749996,2.22500001 C21.4749996,1.925 20.9849995,1.925 20.6849995,2.22500001 L2.22500001,20.6850014 C1.925,20.9850014 1.925,21.4750015 2.22500001,21.7750015 C2.37500001,21.9150015 2.57500011,21.9950008 2.7650001,21.9950008 C2.96500011,21.9950008 3.15500006,21.9150013 3.30500007,21.7650013 L21.7749996,3.30499995 C22.0749996,3.00499994 22.0749996,2.52500002 21.7749996,2.22500001 Z" id="Vector"></path>
                    <path d="M22.7549992,8.375 L22.7549992,15.6149993 C22.7549992,17.0449992 22.0550007,17.6150003 21.6550007,17.8250003 C21.4650007,17.9250003 21.1650001,18.0350013 20.7950001,18.0350013 C20.3650001,18.0350013 19.8350002,17.8949994 19.2150002,17.4549994 L17.7350006,16.4150004 C17.6650006,18.6250005 16.965,19.8850005 15.375,20.4150004 C14.735,20.6450004 13.9449999,20.7450004 12.9949999,20.7450004 L6.99499989,20.7450004 C6.75499989,20.7450004 6.52499984,20.7349994 6.28499985,20.7049994 L15.375,11.625 L21.0249996,5.9749999 C21.2849998,5.9949999 21.4950007,6.07499996 21.6550007,6.16499996 C22.0550007,6.37499996 22.7549992,6.94500005 22.7549992,8.375 Z" id="Vector"></path>
                </g>
            </g>
        </g>
    </g>
</svg>