<?xml version="1.0" encoding="UTF-8"?>
<svg width="24px" height="24px" viewBox="0 0 24 24" version="1.1" xmlns="http://www.w3.org/2000/svg" xmlns:xlink="http://www.w3.org/1999/xlink">
    <title>Icon/Share/Outline</title>
    <defs>
        <path d="M5,0 L59,0 C61.7614237,-8.8817842e-16 64,2.23857625 64,5 L64,203 C64,205.761424 61.7614237,208 59,208 L5,208 C2.23857625,208 0,205.761424 0,203 L0,5 C0,2.23857625 2.23857625,0 5,0 Z" id="path-1"></path>
        <path d="M0,0 L24,0 L24,24 L0,24 L0,0 Z" id="path-2"></path>
    </defs>
    <g id="Icons" stroke="none" stroke-width="1" fill="none" fill-rule="evenodd">
        <g id="Basic-Actions" transform="translate(-64, -434)" fill-rule="nonzero">
            <g id="Share" transform="translate(44, 414)" xlink:href="#path-1">
                <g id="Icon/Share/Outline" transform="translate(20, 20)" xlink:href="#path-2" fill-rule="evenodd">
                    <g id="share" fill-rule="nonzero">
                        <path d="M16.3437877,5.74226576 C16.5800978,5.40225136 17.0476293,5.31770453 17.3877331,5.55378921 C19.560212,7.06366201 21.0608765,9.46618533 21.365272,12.2383595 C21.4103578,12.6499144 21.113694,13.0201466 20.7021861,13.0655079 C20.2904473,13.1107184 19.9192716,12.8131842 19.8740611,12.4014454 C19.6183591,10.0739644 18.3594721,8.05627012 16.5322643,6.78621113 C16.1922499,6.54990111 16.1077031,6.0823696 16.3437877,5.74226576 Z" id="Vector-(Stroke)" fill="CURRENTCOLOR"></path>
                        <path d="M6.65727496,5.60770012 C6.99548468,5.36856195 7.4630589,5.44917789 7.70219707,5.78738761 C7.94126594,6.12553695 7.86153886,6.59314167 7.52348614,6.83230948 C5.71421683,8.11159086 4.47356151,10.1294527 4.23637652,12.4465675 C4.19411218,12.8584517 3.82601249,13.158523 3.4141109,13.1164894 C3.00205049,13.07431 2.70200962,12.7053076 2.74418903,12.2932472 C3.02709941,9.53054142 4.5066669,7.12835027 6.65727496,5.60770012 Z" id="Vector-(Stroke)" fill="CURRENTCOLOR"></path>
                        <path d="M7.52105445,20.600157 C7.70878496,20.2310597 8.16069964,20.0835148 8.52984357,20.2710554 C9.58550763,20.807988 10.7894069,21.1099226 12.0601168,21.1099226 C13.2862507,21.1099052 14.4338038,20.8356735 15.461484,20.3355085 C15.8339243,20.1542323 16.2831374,20.3097479 16.4644136,20.6821882 C16.6453396,21.0543995 16.4906877,21.5027726 16.1187105,21.6841414 C14.8865023,22.2838888 13.5138241,22.6099226 12.0601168,22.6099226 C10.5509517,22.6099226 9.11441559,22.251913 7.85015601,21.6089461 C7.48105875,21.4212156 7.33351389,20.9693009 7.52105445,20.600157 Z" id="Vector-(Stroke)" fill="CURRENTCOLOR"></path>
                        <path d="M14.0898438,4.92027283 C14.0898438,3.79922557 13.1815596,2.89014678 12.0605469,2.88999939 C10.9394085,2.88999939 10.0302734,3.79913497 10.0302734,4.92027283 C10.0304212,6.0412848 10.9394995,6.9495697 12.0605469,6.9495697 C13.1814685,6.94942229 14.089696,6.0411942 14.0898438,4.92027283 Z M15.5898438,4.92027283 C15.589696,6.86962152 14.0098954,8.44942229 12.0605469,8.4495697 C10.1110733,8.4495697 8.53042122,6.86971271 8.53027344,4.92027283 C8.53027344,2.97070742 10.1109819,1.38999939 12.0605469,1.38999939 C14.0099868,1.39014679 15.5898438,2.97079861 15.5898438,4.92027283 Z" id="Vector-(Stroke)" fill="CURRENTCOLOR"></path>
                        <path d="M6.85957026,17.1402731 C6.85957026,16.0192264 5.95128608,15.1101474 4.83027339,15.1099997 C3.70913529,15.1099997 2.79999995,16.0191351 2.79999995,17.1402731 C2.80014786,18.2612857 3.70922685,19.16957 4.83027339,19.16957 C5.95119441,19.1694222 6.85942234,18.2611942 6.85957026,17.1402731 Z M8.35957026,17.1402731 C8.35942234,19.0896212 6.77962172,20.6694222 4.83027339,20.66957 C2.88079917,20.66957 1.30014786,19.0897123 1.29999995,17.1402731 C1.29999995,15.1907078 2.88070822,13.6099997 4.83027339,13.6099997 C6.77971268,13.6101474 8.35957026,15.1907988 8.35957026,17.1402731 Z" id="Vector-(Stroke)" fill="CURRENTCOLOR"></path>
                        <path d="M21.1992188,17.140274 C21.1992188,16.0192273 20.2909349,15.110148 19.1699219,15.1100006 C18.0487834,15.1100006 17.1396484,16.0191363 17.1396484,17.140274 C17.1397963,18.2612864 18.0488751,19.1695709 19.1699219,19.1695709 C20.2908434,19.1694235 21.1990708,18.2611954 21.1992188,17.140274 Z M22.6992188,17.140274 C22.6990708,19.0896225 21.1192704,20.6694235 19.1699219,20.6695709 C17.2204479,20.6695709 15.6397964,19.0897135 15.6396484,17.140274 C15.6396484,15.1907085 17.2203571,13.6100006 19.1699219,13.6100006 C21.1193614,13.610148 22.6992188,15.1907995 22.6992188,17.140274 Z" id="Vector-(Stroke)" fill="CURRENTCOLOR"></path>
                        <polygon id="Vector" opacity="0" points="0 0 24 0 24 24 0 24"></polygon>
                    </g>
                </g>
            </g>
        </g>
    </g>
</svg>