<?xml version="1.0" encoding="UTF-8"?>
<svg width="24px" height="24px" viewBox="0 0 24 24" version="1.1" xmlns="http://www.w3.org/2000/svg" xmlns:xlink="http://www.w3.org/1999/xlink">
    <title>Icon/Share/Bold</title>
    <defs>
        <path d="M5,0 L59,0 C61.7614237,-8.8817842e-16 64,2.23857625 64,5 L64,203 C64,205.761424 61.7614237,208 59,208 L5,208 C2.23857625,208 0,205.761424 0,203 L0,5 C0,2.23857625 2.23857625,0 5,0 Z" id="path-1"></path>
        <path d="M0,0 L24,0 L24,24 L0,24 L0,0 Z" id="path-2"></path>
    </defs>
    <g id="Icons" stroke="none" stroke-width="1" fill="none" fill-rule="evenodd">
        <g id="Basic-Actions" transform="translate(-64, -530)" fill-rule="nonzero">
            <g id="Share" transform="translate(44, 414)" xlink:href="#path-1">
                <g id="Icon/Share/Bold" transform="translate(20, 116)" xlink:href="#path-2" fill-rule="evenodd">
                    <g id="Vector" fill-rule="nonzero">
                        <path d="M20.3599997,12.7299995 C19.9899997,12.7299995 19.6799984,12.4499999 19.6399984,12.0799999 C19.3999984,9.87999988 18.2199988,7.89999998 16.3999988,6.63999999 C16.0699988,6.40999998 15.9899985,5.96000025 16.2199985,5.63000023 C16.4499985,5.30000022 16.8999987,5.21999992 17.2299987,5.44999993 C19.3999988,6.95999992 20.7999992,9.32000041 21.0899992,11.9300003 C21.1299992,12.3300003 20.8399996,12.6899995 20.4399996,12.7299995 C20.4099996,12.7299995 20.3899997,12.7299995 20.3599997,12.7299995 Z" fill="CURRENTCOLOR"></path>
                        <path d="M3.7402885,12.7799993 C3.7202885,12.7799993 3.69028856,12.7799993 3.67028856,12.7799993 C3.27028856,12.7399993 2.98028845,12.3799991 3.02028845,11.9799991 C3.29028846,9.36999917 4.67028856,7.00999907 6.82028866,5.48999909 C7.14028865,5.25999908 7.60028841,5.33999917 7.83028841,5.65999916 C8.06028841,5.98999918 7.98028833,6.43999936 7.66028833,6.66999936 C5.86028838,7.94999933 4.69028828,9.92999935 4.47028828,12.1199994 C4.43028828,12.4999994 4.1102885,12.7799993 3.7402885,12.7799993 Z" fill="CURRENTCOLOR"></path>
                        <path d="M15.9896116,21.0999999 C14.7596116,21.6899999 13.4396127,21.9899993 12.0596128,21.9899993 C10.6196127,21.9899993 9.24961206,21.67 7.96961209,21.02 C7.60961208,20.85 7.46961239,20.4099988 7.6496124,20.0499988 C7.8196124,19.6899988 8.2596122,19.5499989 8.61961222,19.7199989 C9.24961221,20.0399989 9.91961271,20.259999 10.5996127,20.389999 C11.5196127,20.569999 12.4596124,20.5799997 13.3796124,20.4199997 C14.0596125,20.2999997 14.7296127,20.0900005 15.3496127,19.7900005 C15.7196127,19.6200005 16.1596116,19.7599987 16.3196115,20.1299987 C16.4996116,20.4899988 16.3596116,20.9299999 15.9896116,21.0999999 Z" fill="CURRENTCOLOR"></path>
                        <path d="M12.0504694,2.00999832 C10.5004694,2.00999832 9.23046875,3.26999831 9.23046875,4.82999825 C9.23046875,6.3899982 10.4904695,7.64999866 12.0504694,7.64999866 C13.6104693,7.64999866 14.8704691,6.3899982 14.8704691,4.82999825 C14.8704691,3.26999831 13.6104693,2.00999832 12.0504694,2.00999832 Z" fill="CURRENTCOLOR"></path>
                        <path d="M5.05046892,13.8699989 C3.50046897,13.8699989 2.23046875,15.1299996 2.23046875,16.6899996 C2.23046875,18.2499995 3.49046898,19.5099993 5.05046892,19.5099993 C6.61046886,19.5099993 7.87046862,18.2499995 7.87046862,16.6899996 C7.87046862,15.1299996 6.60046887,13.8699989 5.05046892,13.8699989 Z" fill="CURRENTCOLOR"></path>
                        <path d="M18.9500008,13.8699999 C17.4000008,13.8699999 16.1299992,15.1300006 16.1299992,16.6900005 C16.1299992,18.2500005 17.3900008,19.5100002 18.9500008,19.5100002 C20.5100007,19.5100002 21.7700005,18.2500005 21.7700005,16.6900005 C21.7700005,15.1300006 20.5100007,13.8699999 18.9500008,13.8699999 Z" fill="CURRENTCOLOR"></path>
                        <polygon opacity="0" points="0 0 24 0 24 24 0 24"></polygon>
                    </g>
                </g>
            </g>
        </g>
    </g>
</svg>