<?xml version="1.0" encoding="UTF-8"?>
<svg width="24px" height="24px" viewBox="0 0 24 24" version="1.1" xmlns="http://www.w3.org/2000/svg" xmlns:xlink="http://www.w3.org/1999/xlink">
    <title>Icon/Share/Linear</title>
    <defs>
        <path d="M5,0 L59,0 C61.7614237,-8.8817842e-16 64,2.23857625 64,5 L64,203 C64,205.761424 61.7614237,208 59,208 L5,208 C2.23857625,208 0,205.761424 0,203 L0,5 C0,2.23857625 2.23857625,0 5,0 Z" id="path-1"></path>
        <path d="M0,0 L24,0 L24,24 L0,24 L0,0 Z" id="path-2"></path>
    </defs>
    <g id="Icons" stroke="none" stroke-width="1" fill="none" fill-rule="evenodd">
        <g id="Basic-Actions" transform="translate(-64, -482)" fill-rule="nonzero">
            <g id="Share" transform="translate(44, 414)" xlink:href="#path-1">
                <g id="Icon/Share/Linear" transform="translate(20, 68)" xlink:href="#path-2" fill-rule="evenodd">
                    <g id="Vector" fill-rule="nonzero">
                        <path d="M16.9599991,6.17000008 C18.9599991,7.56000006 20.3400008,9.76999974 20.6200008,12.3199997" stroke="CURRENTCOLOR" stroke-width="1.5" stroke-linecap="round" stroke-linejoin="round"></path>
                        <path d="M3.49000001,12.3700004 C3.75,9.8300004 5.11000013,7.62000024 7.09000015,6.22000027" stroke="CURRENTCOLOR" stroke-width="1.5" stroke-linecap="round" stroke-linejoin="round"></path>
                        <path d="M8.19042969,20.9400024 C9.35042965,21.5300024 10.6704305,21.8600025 12.0604305,21.8600025 C13.4004306,21.8600025 14.6604301,21.5600021 15.7904301,21.0100021" stroke="CURRENTCOLOR" stroke-width="1.5" stroke-linecap="round" stroke-linejoin="round"></path>
                        <path d="M14.8402739,4.91999936 C14.8402739,6.455351 13.5956258,7.69999886 12.0602741,7.69999886 C10.5249225,7.69999886 9.28027344,6.455351 9.28027344,4.91999936 C9.28027344,3.38464773 10.5249225,2.13999939 12.0602741,2.13999939 C13.5956258,2.13999939 14.8402739,3.38464773 14.8402739,4.91999936 Z" stroke="CURRENTCOLOR" stroke-width="1.5" stroke-linecap="round" stroke-linejoin="round"></path>
                        <path d="M7.61000037,17.1399994 C7.61000037,18.675351 6.36535156,19.9200001 4.82999992,19.9200001 C3.29464829,19.9200001 2.04999995,18.675351 2.04999995,17.1399994 C2.04999995,15.6046478 3.29464829,14.3599997 4.82999992,14.3599997 C6.36535156,14.3599997 7.61000037,15.6046478 7.61000037,17.1399994 Z" stroke="CURRENTCOLOR" stroke-width="1.5" stroke-linecap="round" stroke-linejoin="round"></path>
                        <path d="M21.9496498,17.1400003 C21.9496498,18.675352 20.7050008,19.920001 19.1696491,19.920001 C17.6342975,19.920001 16.3896484,18.675352 16.3896484,17.1400003 C16.3896484,15.6046487 17.6342975,14.3600006 19.1696491,14.3600006 C20.7050008,14.3600006 21.9496498,15.6046487 21.9496498,17.1400003 Z" stroke="CURRENTCOLOR" stroke-width="1.5" stroke-linecap="round" stroke-linejoin="round"></path>
                        <polygon opacity="0" points="0 0 24 0 24 24 0 24"></polygon>
                    </g>
                </g>
            </g>
        </g>
    </g>
</svg>