<?xml version="1.0" encoding="UTF-8"?>
<svg width="24px" height="24px" viewBox="0 0 24 24" version="1.1" xmlns="http://www.w3.org/2000/svg" xmlns:xlink="http://www.w3.org/1999/xlink">
    <title>Icon/Folder-cloud/Bold</title>
    <defs>
        <path d="M5,0 L59,0 C61.7614237,-8.8817842e-16 64,2.23857625 64,5 L64,203 C64,205.761424 61.7614237,208 59,208 L5,208 C2.23857625,208 0,205.761424 0,203 L0,5 C0,2.23857625 2.23857625,0 5,0 Z" id="path-1"></path>
        <path d="M0,0 L24,0 L24,24 L0,24 L0,0 Z" id="path-2"></path>
    </defs>
    <g id="Icons" stroke="none" stroke-width="1" fill="none" fill-rule="evenodd">
        <g id="Content-Managment" transform="translate(-792, -280)" fill-rule="nonzero">
            <g id="Folder-cloud" transform="translate(772, 164)" xlink:href="#path-1">
                <g id="Icon/Folder-cloud/Bold" transform="translate(20, 116)" xlink:href="#path-2">
                    <polygon id="Vector" opacity="0" points="0 0 24 0 24 24 0 24"></polygon>
                    <path d="M15.5800004,19.7000012 C13.4700005,19.8500012 13.4700005,22.9099999 15.5800004,23.0599999 L20.5900006,23.0599999 C21.2000006,23.0599999 21.7799996,22.8400008 22.2299995,22.4300008 C23.7099996,21.1400008 22.9199998,18.5399997 20.9699998,18.2999997 C20.2699998,14.0799999 14.1600001,15.6800013 15.6100001,19.7000012" id="Vector" fill="CURRENTCOLOR"></path>
                    <path d="M15.5800004,19.7000012 C13.4700005,19.8500012 13.4700005,22.9099999 15.5800004,23.0599999 L20.5900006,23.0599999 C21.2000006,23.0599999 21.7799996,22.8400008 22.2299995,22.4300008 C23.7099996,21.1400008 22.9199998,18.5399997 20.9699998,18.2999997 C20.2699998,14.0799999 14.1600001,15.6800013 15.6100001,19.7000012" id="Vector" fill="CURRENTCOLOR"></path>
                    <path d="M22,11.0699997 L22,15.3400002 C22,15.6600001 21.4900005,15.7999997 21.2700005,15.5699997 C20.8000005,15.0799997 20.2100007,14.71 19.5300007,14.5 C17.9600006,14.01 16.1500002,14.4900001 15.0100002,15.6700001 C14.2900002,16.4400001 13.9000001,17.4000006 13.8800001,18.4400005 C13.8800001,18.6200005 13.7899996,18.7799994 13.6499996,18.8899994 C12.9299996,19.4599994 12.4899998,20.3500009 12.4899998,21.3700008 L12.4899998,21.3799992 C12.4899998,21.6999992 12.2599996,21.9900303 11.9399996,21.9900303 L7.34000015,21.9900303 C4.4000001,22 2,19.5999997 2,16.6499996 L2,6.42000008 C2,3.98000002 3.98000002,2 6.42000008,2 L8.73999977,2 C10.3699998,2 10.8799998,2.53000009 11.5299997,3.4000001 L12.9300003,5.26000023 C13.2400003,5.67000023 13.2799997,5.71999979 13.8599997,5.71999979 L16.6499996,5.71999979 C19.0299997,5.71999979 21.0499998,7.27999949 21.7399998,9.43999958 C21.8899998,9.88999957 21.9699998,10.3500001 21.9899998,10.8400002 C22,10.9100002 22,11 22,11.0699997 Z" id="Vector" fill="CURRENTCOLOR"></path>
                </g>
            </g>
        </g>
    </g>
</svg>