<?xml version="1.0" encoding="UTF-8"?>
<svg width="24px" height="24px" viewBox="0 0 24 24" version="1.1" xmlns="http://www.w3.org/2000/svg" xmlns:xlink="http://www.w3.org/1999/xlink">
    <title>Icon/Folder-cloud/Bulk</title>
    <defs>
        <path d="M5,0 L59,0 C61.7614237,-8.8817842e-16 64,2.23857625 64,5 L64,203 C64,205.761424 61.7614237,208 59,208 L5,208 C2.23857625,208 0,205.761424 0,203 L0,5 C0,2.23857625 2.23857625,0 5,0 Z" id="path-1"></path>
        <path d="M0,0 L24,0 L24,24 L0,24 L0,0 Z" id="path-2"></path>
    </defs>
    <g id="Icons" stroke="none" stroke-width="1" fill="none" fill-rule="evenodd">
        <g id="Content-Managment" transform="translate(-792, -328)" fill-rule="nonzero">
            <g id="Folder-cloud" transform="translate(772, 164)" xlink:href="#path-1">
                <g id="Icon/Folder-cloud/Bulk" transform="translate(20, 164)" xlink:href="#path-2">
                    <polygon id="Vector" opacity="0" points="0 0 24 0 24 24 0 24"></polygon>
                    <path d="M21.9902344,10.8399811 C21.9702344,10.3599811 21.8902344,9.88998717 21.7402344,9.43998718 C21.0502344,7.2799871 19.0302687,5.71998596 16.6502686,5.71998596 L13.8602295,5.71998596 C13.2802295,5.71998596 13.2402368,5.65998474 12.9302368,5.24998474 L11.5302734,3.38998413 C10.8802735,2.51998413 10.3702344,1.98999023 8.74023438,1.98999023 L6.41021729,1.98999023 C3.97021723,1.98999023 1.99023438,3.96998835 1.99023438,6.4099884 L1.99023438,9.42997742 L1.99023438,16.6399841 C1.99023438,19.5899842 4.39027095,21.9899902 7.340271,21.9899902 L16.6402588,21.9899902 C19.5902588,21.9899902 21.9902344,19.5899842 21.9902344,16.6399841 L21.9902344,11.0599823 C22.0002344,10.9999823 22.0002344,10.9099811 21.9902344,10.8399811 Z" id="Vector" fill="CURRENTCOLOR" opacity="0.400000006"></path>
                    <path d="M15.5799975,19.6999917 C13.4699976,19.8499917 13.4699976,22.9099923 15.5799975,23.0599923 L20.5900073,23.0599923 C21.2000073,23.0599923 21.7799605,22.8399874 22.2299604,22.4299874 C23.7099605,21.1399875 22.9199512,18.5399978 20.9699512,18.2999978 C20.2699512,14.079998 14.1599658,15.6799917 15.6099658,19.6999917" id="Vector" fill="CURRENTCOLOR"></path>
                </g>
            </g>
        </g>
    </g>
</svg>