<?xml version="1.0" encoding="UTF-8"?>
<svg width="24px" height="24px" viewBox="0 0 24 24" version="1.1" xmlns="http://www.w3.org/2000/svg" xmlns:xlink="http://www.w3.org/1999/xlink">
    <title>Icon/Folder-cloud/Outline</title>
    <defs>
        <path d="M5,0 L59,0 C61.7614237,-8.8817842e-16 64,2.23857625 64,5 L64,203 C64,205.761424 61.7614237,208 59,208 L5,208 C2.23857625,208 0,205.761424 0,203 L0,5 C0,2.23857625 2.23857625,0 5,0 Z" id="path-1"></path>
        <path d="M0,0 L24,0 L24,24 L0,24 L0,0 Z" id="path-2"></path>
    </defs>
    <g id="Icons" stroke="none" stroke-width="1" fill="none" fill-rule="evenodd">
        <g id="Content-Managment" transform="translate(-792, -184)" fill-rule="nonzero">
            <g id="Folder-cloud" transform="translate(772, 164)" xlink:href="#path-1">
                <g id="Icon/Folder-cloud/Outline" transform="translate(20, 20)" xlink:href="#path-2">
                    <path d="M9,22.75 L7,22.75 C2.59000015,22.75 1.25,21.4099998 1.25,17 L1.25,7 C1.25,2.59000015 2.59000015,1.25 7,1.25 L8.5,1.25 C10.25,1.25 10.8,1.81999999 11.5,2.75 L13,4.75 C13.33,5.19 13.38,5.25 14,5.25 L17,5.25 C21.4099998,5.25 22.75,6.59000015 22.75,11 L22.75,13 C22.75,13.41 22.41,13.75 22,13.75 C21.59,13.75 21.25,13.41 21.25,13 L21.25,11 C21.25,7.43000007 20.5799999,6.75 17,6.75 L14,6.75 C12.72,6.75 12.2999878,6.30999392 11.7999878,5.6499939 L10.2999878,3.6499939 C9.77998781,2.9599939 9.62,2.75 8.5,2.75 L7,2.75 C3.42000008,2.75 2.75,3.43000007 2.75,7 L2.75,17 C2.75,20.5699999 3.42000008,21.25 7,21.25 L9,21.25 C9.41,21.25 9.75,21.59 9.75,22 C9.75,22.41 9.41,22.75 9,22.75 Z" id="Vector" fill="CURRENTCOLOR"></path>
                    <path d="M19.340271,22.8099737 C19.330271,22.8099737 19.3202417,22.8099737 19.3102417,22.8099737 L13.7502441,22.8099737 C12.0802442,22.6899737 11.2402344,21.4099786 11.2402344,20.1899786 C11.2402344,19.2099786 11.7902198,18.1799859 12.8502197,17.7599859 C12.6302197,16.5099859 12.9502735,15.3499871 13.7802734,14.4799871 C14.8002734,13.4099871 16.4402295,12.9799798 17.8602295,13.4099798 C19.1002295,13.7899798 19.9902295,14.769981 20.3602295,16.129981 C21.4102294,16.449981 22.2402612,17.2799798 22.5802612,18.4099798 C22.9802612,19.7199798 22.6102393,21.0599896 21.6202393,21.9199896 C21.0202392,22.4899896 20.200271,22.8099737 19.340271,22.8099737 Z M13.7902222,19.0699835 C13.0302222,19.1399835 12.7502441,19.7099786 12.7502441,20.1899786 C12.7502441,20.6699786 13.0302417,21.2499737 13.8102417,21.3099737 L19.3202515,21.3099737 C19.8002515,21.3499737 20.2802588,21.1299737 20.6402588,20.8099737 C21.2902588,20.2399737 21.3302173,19.4299822 21.1602173,18.8499823 C20.9902173,18.2699823 20.4902685,17.6199859 19.6502686,17.5099859 C19.3202685,17.4699859 19.0602441,17.2199908 19.0002441,16.8899908 C18.7802441,15.5399908 18.0202368,15.0399823 17.4302368,14.8499823 C16.5502368,14.5799823 15.510249,14.8599651 14.880249,15.5199652 C14.450249,15.9699652 14.0302441,16.7799835 14.5002441,18.0699835 C14.6402441,18.4599835 14.4402319,18.8899749 14.0502319,19.0299749 C13.9602319,19.0599749 13.8702222,19.0699835 13.7902222,19.0699835 Z" id="Vector" fill="CURRENTCOLOR"></path>
                    <polygon id="Vector" opacity="0" points="0 0 24 0 24 24 0 24"></polygon>
                </g>
            </g>
        </g>
    </g>
</svg>