<?xml version="1.0" encoding="UTF-8"?>
<svg width="24px" height="24px" viewBox="0 0 24 24" version="1.1" xmlns="http://www.w3.org/2000/svg" xmlns:xlink="http://www.w3.org/1999/xlink">
    <title>Icon/Folder-cloud/Linear</title>
    <defs>
        <path d="M5,0 L59,0 C61.7614237,-8.8817842e-16 64,2.23857625 64,5 L64,203 C64,205.761424 61.7614237,208 59,208 L5,208 C2.23857625,208 0,205.761424 0,203 L0,5 C0,2.23857625 2.23857625,0 5,0 Z" id="path-1"></path>
        <path d="M0,0 L24,0 L24,24 L0,24 L0,0 Z" id="path-2"></path>
    </defs>
    <g id="Icons" stroke="none" stroke-width="1" fill="none" fill-rule="evenodd">
        <g id="Content-Managment" transform="translate(-792, -232)" fill-rule="nonzero">
            <g id="Folder-cloud" transform="translate(772, 164)" xlink:href="#path-1">
                <g id="Icon/Folder-cloud/Linear" transform="translate(20, 68)" xlink:href="#path-2">
                    <path d="M9,22 L7,22 C3,22 2,21 2,17 L2,7 C2,3 3,2 7,2 L8.5,2 C10,2 10.3300244,2.44001222 10.9000244,3.20001221 L12.4000244,5.20001221 C12.7800244,5.70001221 13,6 14,6 L17,6 C21,6 22,7 22,11 L22,13" id="Vector" stroke="CURRENTCOLOR" stroke-width="1.5" stroke-linecap="round" stroke-linejoin="round" fill-rule="nonzero"></path>
                    <g id="Group" fill-rule="evenodd" stroke-width="1" transform="translate(11.9975, 14.0035)" stroke="CURRENTCOLOR" stroke-linecap="round" stroke-linejoin="round">
                        <path d="M1.76249993,4.31648064 C-0.587499976,4.48648064 -0.587499976,7.88647087 1.76249993,8.05647087 L7.32249737,8.05647087 C7.99249738,8.05647087 8.65250468,7.80645865 9.14250469,7.35645866 C10.7925047,5.91645861 9.91248035,3.03646234 7.74248028,2.76646233 C6.96248031,-1.92353773 0.182519436,-0.143539906 1.78251946,4.32645988" id="Vector" stroke-width="1.5" fill-rule="nonzero"></path>
                    </g>
                    <polygon id="Vector" opacity="0" fill-rule="nonzero" points="0 0 24 0 24 24 0 24"></polygon>
                </g>
            </g>
        </g>
    </g>
</svg>