<?xml version="1.0" encoding="UTF-8"?>
<svg width="24px" height="24px" viewBox="0 0 24 24" version="1.1" xmlns="http://www.w3.org/2000/svg" xmlns:xlink="http://www.w3.org/1999/xlink">
    <title>Icon/Search-zoom-in/Bold</title>
    <defs>
        <path d="M5,0 L59,0 C61.7614237,-8.8817842e-16 64,2.23857625 64,5 L64,203 C64,205.761424 61.7614237,208 59,208 L5,208 C2.23857625,208 0,205.761424 0,203 L0,5 C0,2.23857625 2.23857625,0 5,0 Z" id="path-1"></path>
        <path d="M0,0 L24,0 L24,24 L0,24 L0,0 Z" id="path-2"></path>
    </defs>
    <g id="Icons" stroke="none" stroke-width="1" fill="none" fill-rule="evenodd">
        <g id="Basic-Search" transform="translate(-64, -530)" fill-rule="nonzero">
            <g id="Search-zoom-in" transform="translate(44, 414)" xlink:href="#path-1">
                <g id="Icon/Search-zoom-in/Bold" transform="translate(20, 116)" xlink:href="#path-2">
                    <path d="M21.3,22.0000007 C21.1199999,22.0000007 20.9400002,21.9299999 20.8100002,21.8 L18.9500014,19.9400011 C18.6800014,19.6700011 18.6800014,19.2300014 18.9500014,18.9500014 C19.2200014,18.6800014 19.6600011,18.6800014 19.9400011,18.9500014 L21.8,20.8100002 C22.07,21.0800002 22.07,21.52 21.8,21.8 C21.66,21.9299999 21.48,22.0000007 21.3,22.0000007 Z" id="Vector" fill="CURRENTCOLOR"></path>
                    <path d="M11.5,2 C6.26000023,2 2,6.26000023 2,11.5 C2,16.7399998 6.26000023,21 11.5,21 C16.7399998,21 21,16.7399998 21,11.5 C21,6.26000023 16.7399998,2 11.5,2 Z M14.1999998,12.4499998 L12.4499998,12.4499998 L12.4499998,14.1999998 C12.4499998,14.6099998 12.1099998,14.9499998 11.6999998,14.9499998 C11.2899998,14.9499998 10.9499998,14.6099998 10.9499998,14.1999998 L10.9499998,12.4499998 L9.19999981,12.4499998 C8.78999981,12.4499998 8.44999981,12.1099998 8.44999981,11.6999998 C8.44999981,11.2899998 8.78999981,10.9499998 9.19999981,10.9499998 L10.9499998,10.9499998 L10.9499998,9.19999981 C10.9499998,8.78999981 11.2899998,8.44999981 11.6999998,8.44999981 C12.1099998,8.44999981 12.4499998,8.78999981 12.4499998,9.19999981 L12.4499998,10.9499998 L14.1999998,10.9499998 C14.6099998,10.9499998 14.9499998,11.2899998 14.9499998,11.6999998 C14.9499998,12.1099998 14.6099998,12.4499998 14.1999998,12.4499998 Z" id="Vector" fill="CURRENTCOLOR"></path>
                    <polygon id="Vector" opacity="0" transform="translate(12, 12) rotate(-180) translate(-12, -12)" points="0 0 24 0 24 24 0 24"></polygon>
                </g>
            </g>
        </g>
    </g>
</svg>