<?xml version="1.0" encoding="UTF-8"?>
<svg width="24px" height="24px" viewBox="0 0 24 24" version="1.1" xmlns="http://www.w3.org/2000/svg" xmlns:xlink="http://www.w3.org/1999/xlink">
    <title>Icon/Search-zoom-in/Linear</title>
    <defs>
        <path d="M5,0 L59,0 C61.7614237,-8.8817842e-16 64,2.23857625 64,5 L64,203 C64,205.761424 61.7614237,208 59,208 L5,208 C2.23857625,208 0,205.761424 0,203 L0,5 C0,2.23857625 2.23857625,0 5,0 Z" id="path-1"></path>
        <path d="M0,0 L24,0 L24,24 L0,24 L0,0 Z" id="path-2"></path>
    </defs>
    <g id="Icons" stroke="none" stroke-width="1" fill="none" fill-rule="evenodd">
        <g id="Basic-Search" transform="translate(-64, -482)" fill-rule="nonzero">
            <g id="Search-zoom-in" transform="translate(44, 414)" xlink:href="#path-1">
                <g id="Icon/Search-zoom-in/Linear" transform="translate(20, 68)" xlink:href="#path-2">
                    <line x1="9.19999981" y1="11.6999998" x2="14.1999998" y2="11.6999998" id="Vector" stroke="CURRENTCOLOR" stroke-width="1.5" stroke-linecap="round" stroke-linejoin="round"></line>
                    <line x1="11.6999998" y1="14.1999998" x2="11.6999998" y2="9.19999981" id="Vector" stroke="CURRENTCOLOR" stroke-width="1.5" stroke-linecap="round" stroke-linejoin="round"></line>
                    <path d="M21,11.5 C21,16.7467051 16.7467051,21 11.5,21 C6.25329494,21 2,16.7467051 2,11.5 C2,6.25329494 6.25329494,2 11.5,2 C16.7467051,2 21,6.25329494 21,11.5 Z" id="Vector" stroke="CURRENTCOLOR" stroke-width="1.5" stroke-linecap="round" stroke-linejoin="round"></path>
                    <line x1="22" y1="22" x2="20" y2="20" id="Vector" stroke="CURRENTCOLOR" stroke-width="1.5" stroke-linecap="round" stroke-linejoin="round"></line>
                    <polygon id="Vector" opacity="0" points="0 0 24 0 24 24 0 24"></polygon>
                </g>
            </g>
        </g>
    </g>
</svg>