<?xml version="1.0" encoding="UTF-8"?>
<svg width="24px" height="24px" viewBox="0 0 24 24" version="1.1" xmlns="http://www.w3.org/2000/svg" xmlns:xlink="http://www.w3.org/1999/xlink">
    <title>Icon/Search-zoom-in/Outline</title>
    <defs>
        <path d="M5,0 L59,0 C61.7614237,-8.8817842e-16 64,2.23857625 64,5 L64,203 C64,205.761424 61.7614237,208 59,208 L5,208 C2.23857625,208 0,205.761424 0,203 L0,5 C0,2.23857625 2.23857625,0 5,0 Z" id="path-1"></path>
        <path d="M0,0 L24,0 L24,24 L0,24 L0,0 Z" id="path-2"></path>
    </defs>
    <g id="Icons" stroke="none" stroke-width="1" fill="none" fill-rule="evenodd">
        <g id="Basic-Search" transform="translate(-64, -434)" fill-rule="nonzero">
            <g id="Search-zoom-in" transform="translate(44, 414)" xlink:href="#path-1">
                <g id="Icon/Search-zoom-in/Outline" transform="translate(20, 20)" xlink:href="#path-2">
                    <path d="M14.1999998,12.4499998 L9.19999981,12.4499998 C8.78999981,12.4499998 8.44999981,12.1099998 8.44999981,11.6999998 C8.44999981,11.2899998 8.78999981,10.9499998 9.19999981,10.9499998 L14.1999998,10.9499998 C14.6099998,10.9499998 14.9499998,11.2899998 14.9499998,11.6999998 C14.9499998,12.1099998 14.6099998,12.4499998 14.1999998,12.4499998 Z" id="Vector" fill="CURRENTCOLOR"></path>
                    <path d="M11.6999998,14.9499998 C11.2899998,14.9499998 10.9499998,14.6099998 10.9499998,14.1999998 L10.9499998,9.19999981 C10.9499998,8.78999981 11.2899998,8.44999981 11.6999998,8.44999981 C12.1099998,8.44999981 12.4499998,8.78999981 12.4499998,9.19999981 L12.4499998,14.1999998 C12.4499998,14.6099998 12.1099998,14.9499998 11.6999998,14.9499998 Z" id="Vector" fill="CURRENTCOLOR"></path>
                    <path d="M11.5,21.75 C5.8499999,21.75 1.25,17.1500001 1.25,11.5 C1.25,5.8499999 5.8499999,1.25 11.5,1.25 C17.1500001,1.25 21.75,5.8499999 21.75,11.5 C21.75,17.1500001 17.1500001,21.75 11.5,21.75 Z M11.5,2.75 C6.67000008,2.75 2.75,6.67999983 2.75,11.5 C2.75,16.3200002 6.67000008,20.25 11.5,20.25 C16.3299999,20.25 20.25,16.3200002 20.25,11.5 C20.25,6.67999983 16.3299999,2.75 11.5,2.75 Z" id="Vector" fill="CURRENTCOLOR"></path>
                    <path d="M21.9999993,22.7499993 C21.8099993,22.7499993 21.6199986,22.68 21.4699986,22.53 L19.4699986,20.53 C19.1799986,20.24 19.1799986,19.7599986 19.4699986,19.4699986 C19.7599986,19.1799986 20.24,19.1799986 20.53,19.4699986 L22.53,21.4699986 C22.82,21.7599986 22.82,22.24 22.53,22.53 C22.38,22.68 22.1899993,22.7499993 21.9999993,22.7499993 Z" id="Vector" fill="CURRENTCOLOR"></path>
                    <polygon id="Vector" opacity="0" points="0 0 24 0 24 24 0 24"></polygon>
                </g>
            </g>
        </g>
    </g>
</svg>