<?xml version="1.0" encoding="UTF-8"?>
<svg width="24px" height="24px" viewBox="0 0 24 24" version="1.1" xmlns="http://www.w3.org/2000/svg" xmlns:xlink="http://www.w3.org/1999/xlink">
    <title>Icon/Information/Bold</title>
    <defs>
        <path d="M5,0 L59,0 C61.7614237,-8.8817842e-16 64,2.23857625 64,5 L64,203 C64,205.761424 61.7614237,208 59,208 L5,208 C2.23857625,208 0,205.761424 0,203 L0,5 C0,2.23857625 2.23857625,0 5,0 Z" id="path-1"></path>
        <path d="M0,0 L24,0 L24,24 L0,24 L0,0 Z" id="path-2"></path>
    </defs>
    <g id="Icons" stroke="none" stroke-width="1" fill="none" fill-rule="evenodd">
        <g id="Basic-System-feedback" transform="translate(-272, -530)" fill-rule="nonzero">
            <g id="information" transform="translate(252, 414)" xlink:href="#path-1">
                <g id="Icon/Information/Bold" transform="translate(20, 116)" xlink:href="#path-2">
                    <path d="M21.5600004,10.74 L20.21,9.16000009 C19.96,8.86000007 19.750001,8.30000034 19.750001,7.90000033 L19.750001,6.20000005 C19.750001,5.1400001 18.8799996,4.26999998 17.8199997,4.26999998 L16.1200008,4.26999998 C15.7200008,4.26999998 15.1500004,4.06000006 14.8500004,3.81000006 L13.2700005,2.46000016 C12.5800005,1.87000018 11.4500002,1.87000018 10.7600002,2.46000016 L9.15999985,3.81000006 C8.85999984,4.06000006 8.3000001,4.26999998 7.9000001,4.26999998 L6.17000008,4.26999998 C5.11000013,4.26999998 4.23999977,5.1400001 4.23999977,6.20000005 L4.23999977,7.90000033 C4.23999977,8.29000032 4.03999996,8.84999985 3.78999996,9.14999986 L2.44000012,10.74 C1.86000013,11.44 1.86000013,12.56 2.44000012,13.24 L3.78999996,14.8300002 C4.03999996,15.1200002 4.23999977,15.6900002 4.23999977,16.0800002 L4.23999977,17.7900012 C4.23999977,18.8500011 5.11000013,19.7199996 6.17000008,19.7199996 L7.90999985,19.7199996 C8.29999983,19.7199996 8.87000006,19.9300005 9.17000008,20.1800005 L10.75,21.5300009 C11.44,22.1200009 12.5700002,22.1200009 13.2600002,21.5300009 L14.8400002,20.1800005 C15.1400002,19.9300005 15.7000004,19.7199996 16.1000004,19.7199996 L17.7999992,19.7199996 C18.8599992,19.7199996 19.7300005,18.8500011 19.7300005,17.7900012 L19.7300005,16.0900004 C19.7300005,15.6900004 19.9400015,15.1300002 20.1900015,14.8300002 L21.5400019,13.2500002 C22.1500019,12.5700002 22.1500004,11.44 21.5600004,10.74 Z M11.25,8.13000035 C11.25,7.72000036 11.59,7.38000035 12,7.38000035 C12.41,7.38000035 12.75,7.72000036 12.75,8.13000035 L12.75,12.9600003 C12.75,13.3700003 12.41,13.7100003 12,13.7100003 C11.59,13.7100003 11.25,13.3700003 11.25,12.9600003 L11.25,8.13000035 Z M12,16.8700011 C11.45,16.8700011 11,16.4200001 11,15.8700001 C11,15.3200001 11.44,14.8700001 12,14.8700001 C12.55,14.8700001 13,15.3200001 13,15.8700001 C13,16.4200001 12.56,16.8700011 12,16.8700011 Z" id="Vector" fill="CURRENTCOLOR"></path>
                    <polygon id="Vector" opacity="0" transform="translate(12, 12) rotate(-180) translate(-12, -12)" points="0 0 24 0 24 24 0 24"></polygon>
                </g>
            </g>
        </g>
    </g>
</svg>