<?xml version="1.0" encoding="UTF-8"?>
<svg width="24px" height="24px" viewBox="0 0 24 24" version="1.1" xmlns="http://www.w3.org/2000/svg" xmlns:xlink="http://www.w3.org/1999/xlink">
    <title>Icon/Information/Linear</title>
    <defs>
        <path d="M5,0 L59,0 C61.7614237,-8.8817842e-16 64,2.23857625 64,5 L64,203 C64,205.761424 61.7614237,208 59,208 L5,208 C2.23857625,208 0,205.761424 0,203 L0,5 C0,2.23857625 2.23857625,0 5,0 Z" id="path-1"></path>
        <path d="M0,0 L24,0 L24,24 L0,24 L0,0 Z" id="path-2"></path>
    </defs>
    <g id="Icons" stroke="none" stroke-width="1" fill="none" fill-rule="evenodd" stroke-linecap="round" stroke-linejoin="round">
        <g id="Basic-System-feedback" transform="translate(-272, -482)" fill-rule="nonzero" stroke="CURRENTCOLOR" stroke-width="1.5">
            <g id="information" transform="translate(252, 414)" xlink:href="#path-1">
                <g id="Icon/Information/Linear" transform="translate(20, 68)" xlink:href="#path-2">
                    <path d="M10.75,2.45000017 C11.45,1.86000019 12.5800002,1.86000019 13.2600002,2.45000017 L14.8400002,3.80000007 C15.1400002,4.05000007 15.7100006,4.26000023 16.1100006,4.26000023 L17.8099995,4.26000023 C18.8699994,4.26000023 19.7400007,5.13000011 19.7400007,6.19000006 L19.7400007,7.88999987 C19.7400007,8.28999987 19.9500017,8.84999961 20.2000017,9.14999962 L21.5500002,10.73 C22.1400002,11.43 22.1400002,12.5600002 21.5500002,13.2400002 L20.2000017,14.8200002 C19.9500017,15.1200002 19.7400007,15.6800004 19.7400007,16.0800004 L19.7400007,17.7800012 C19.7400007,18.8400011 18.8699994,19.7099996 17.8099995,19.7099996 L16.1100006,19.7099996 C15.7100006,19.7099996 15.1500004,19.9200006 14.8500004,20.1700006 L13.2700005,21.5200009 C12.5700005,22.1100009 11.4400002,22.1100009 10.7600002,21.5200009 L9.18000031,20.1700006 C8.88000029,19.9200006 8.31000006,19.7099996 7.92000008,19.7099996 L6.17000008,19.7099996 C5.11000013,19.7099996 4.23999977,18.8400011 4.23999977,17.7800012 L4.23999977,16.0700002 C4.23999977,15.6800002 4.03999996,15.1100002 3.78999996,14.8200002 L2.44000012,13.23 C1.86000013,12.54 1.86000013,11.42 2.44000012,10.73 L3.78999996,9.14000034 C4.03999996,8.84000033 4.23999977,8.27999985 4.23999977,7.88999987 L4.23999977,6.19999981 C4.23999977,5.13999987 5.11000013,4.26999998 6.17000008,4.26999998 L7.9000001,4.26999998 C8.3000001,4.26999998 8.85999984,4.06000006 9.15999985,3.81000006 L10.75,2.45000017 Z" id="Vector"></path>
                    <line x1="12" y1="8.13000011" x2="12" y2="12.96" id="Vector"></line>
                    <line x1="11.9941406" y1="16" x2="12.0941406" y2="16" id="Vector"></line>
                </g>
            </g>
        </g>
    </g>
</svg>