<?xml version="1.0" encoding="UTF-8"?>
<svg width="24px" height="24px" viewBox="0 0 24 24" version="1.1" xmlns="http://www.w3.org/2000/svg" xmlns:xlink="http://www.w3.org/1999/xlink">
    <title>Icon/Information/Outline</title>
    <defs>
        <path d="M5,0 L59,0 C61.7614237,-8.8817842e-16 64,2.23857625 64,5 L64,203 C64,205.761424 61.7614237,208 59,208 L5,208 C2.23857625,208 0,205.761424 0,203 L0,5 C0,2.23857625 2.23857625,0 5,0 Z" id="path-1"></path>
        <path d="M0,0 L24,0 L24,24 L0,24 L0,0 Z" id="path-2"></path>
    </defs>
    <g id="Icons" stroke="none" stroke-width="1" fill="none" fill-rule="evenodd">
        <g id="Basic-System-feedback" transform="translate(-272, -434)" fill="CURRENTCOLOR" fill-rule="nonzero">
            <g id="information" transform="translate(252, 414)" xlink:href="#path-1">
                <g id="Icon/Information/Outline" transform="translate(20, 20)" xlink:href="#path-2">
                    <path d="M18.9907684,6.19015074 C18.9907684,5.54436511 18.4558915,5.01046324 17.8101044,5.01046324 L16.1108856,5.01046324 C15.7964872,5.01046324 15.4636897,4.93168576 15.1811981,4.82882261 C14.8988153,4.72599845 14.5965945,4.57390776 14.3599091,4.37667418 L14.3530731,4.36983824 L12.772995,3.02022898 L12.7690887,3.01632273 C12.3763035,2.67552376 11.6622054,2.66448161 11.2368622,3.01925242 L11.2378387,3.02022898 L9.647995,4.37960386 L9.6401825,4.3864398 C9.40563713,4.58180241 9.1078611,4.73410932 8.82670546,4.83761168 C8.54584855,4.94097622 8.21505687,5.02022886 7.89994764,5.02022886 L6.17045546,5.02022886 C5.52470779,5.02022886 4.9908324,5.55418265 4.99076796,6.19991636 L4.99076796,7.89034605 C4.99071703,8.19707179 4.91536584,8.52293783 4.81498671,8.80245543 C4.71473527,9.08156791 4.56482463,9.3820489 4.36674452,9.61983871 L4.36186171,9.62569809 L3.01225245,11.2155418 C2.66988277,11.6261014 2.66978019,12.3343683 3.01225245,12.7448387 L4.35893202,14.3307762 L4.50248671,14.5212059 C4.63649319,14.7212951 4.74034034,14.9460706 4.81498671,15.154995 C4.9153421,15.4359902 4.99076796,15.7640763 4.99076796,16.070034 L4.99076796,17.779995 C4.99076796,18.4257804 5.5246681,18.9596825 6.17045546,18.9596825 L7.92045546,18.9596825 C8.23164314,18.9596891 8.56247303,19.0398379 8.84233046,19.1422997 C9.05254817,19.2192924 9.27457558,19.3241282 9.47221375,19.4547997 L9.66069031,19.5934715 L9.66752625,19.5993309 L9.66752625,19.6003075 L11.2476044,20.9499168 L11.2515106,20.9538231 C11.6453647,21.2955494 12.361741,21.3047157 12.7866669,20.9469872 L14.3628387,19.6003075 L14.3706512,19.5934715 C14.6051845,19.3981399 14.9030029,19.245791 15.1841278,19.1422997 C15.4649737,19.0389441 15.7957949,18.9596825 16.1108856,18.9596825 L17.8101044,18.9596825 C18.4558922,18.9596825 18.9907684,18.4257799 18.9907684,17.779995 L18.9907684,16.0797997 C18.9908076,15.7646576 19.0690202,15.4338883 19.1724091,15.1530418 C19.27596,14.8718111 19.429107,14.5741059 19.6245575,14.3395653 L19.6304169,14.3327293 L20.9800262,12.7526512 L20.9839325,12.748745 C21.3247254,12.3559666 21.3347779,11.6428408 20.9800262,11.217495 L19.6304169,9.63741684 L19.6245575,9.6305809 C19.4291231,9.39605957 19.2759596,9.09831426 19.1724091,8.81710386 C19.0690288,8.53628066 18.9908207,8.20546454 18.9907684,7.89034605 L18.9907684,6.19015074 Z M20.4907684,7.89034605 C20.4908323,7.97518806 20.516605,8.12467951 20.5806122,8.29854918 C20.6445503,8.47218846 20.7224137,8.60425787 20.7769012,8.66964293 L22.1206512,10.2428856 L22.1235809,10.2467918 C22.944234,11.220448 22.9540094,12.7599934 22.1196747,13.726284 L20.7759247,15.2995262 C20.72143,15.3649198 20.6445552,15.497923 20.5806122,15.6715965 C20.5165853,15.8455198 20.4908163,15.9949712 20.4907684,16.0797997 L20.4907684,17.779995 C20.4907684,19.2542099 19.2843164,20.4596825 17.8101044,20.4596825 L16.1108856,20.4596825 C16.0260983,20.4596825 15.8757898,20.4864168 15.7017059,20.5505028 C15.5283918,20.61435 15.3960418,20.6913646 15.3306122,20.7458153 L13.75737,22.0905418 L13.7534637,22.0934715 C12.7796184,22.9141402 11.2391979,22.9243206 10.272995,22.0895653 L8.69291639,20.7399559 L8.69193983,20.7399559 C8.62564877,20.6873296 8.49643418,20.6126781 8.32670546,20.5505028 C8.14910384,20.4854791 7.99926666,20.4596909 7.92045546,20.4596825 L6.17045546,20.4596825 C4.69624293,20.4596825 3.49076796,19.2542094 3.49076796,17.779995 L3.49076796,16.070034 C3.49076796,15.9860058 3.46499929,15.8338463 3.40287733,15.6598778 C3.3399484,15.4836767 3.26630954,15.3604434 3.22221339,15.3092918 L3.21830714,15.3053856 L1.86869776,13.7155418 L1.86674464,13.7126122 C1.05223095,12.7436217 1.05223095,11.2167588 1.86674464,10.2477684 L1.86869776,10.2448387 L3.21830714,8.65499449 C3.26984183,8.59118147 3.34229604,8.46418937 3.40287733,8.29561949 C3.4648863,8.12294815 3.49070539,7.97358977 3.49076796,7.89034605 L3.49076796,6.19991636 C3.49083166,4.72575569 4.69628119,3.52022886 6.17045546,3.52022886 L7.89994764,3.52022886 C7.9847355,3.52022886 8.13504374,3.49447083 8.30912733,3.43038511 C8.48264052,3.36649431 8.61478487,3.28857787 8.68022108,3.23409617 L10.2632294,1.87960392 L10.2671356,1.87667423 C11.2407517,1.05605495 12.7803297,1.04634953 13.7466278,1.88058048 L13.7476044,1.87960392 L15.3208466,3.22433054 L15.3804169,3.26729918 C15.4528749,3.31449952 15.5614657,3.37008981 15.69487,3.41866636 C15.8723027,3.48325574 16.0253145,3.51046324 16.1108856,3.51046324 L17.8101044,3.51046324 C19.2843171,3.51046324 20.4907684,4.71593654 20.4907684,6.19015074 L20.4907684,7.89034605 Z" id="Vector-(Stroke)"></path>
                    <path d="M11.25,12.9600782 L11.25,8.13000011 C11.25,7.71578655 11.5857864,7.38000011 12,7.38000011 C12.4142136,7.38000011 12.75,7.71578655 12.75,8.13000011 L12.75,12.9600782 C12.7499577,13.3742559 12.4141875,13.7100782 12,13.7100782 C11.5858125,13.7100782 11.2500423,13.3742559 11.25,12.9600782 Z" id="Vector-(Stroke)"></path>
                    <path d="M12.0029297,15.25 C12.4171433,15.25 12.7529297,15.5857864 12.7529297,16 C12.7529297,16.4142136 12.4171433,16.75 12.0029297,16.75 L11.9941406,16.75 C11.5799271,16.75 11.2441406,16.4142136 11.2441406,16 C11.2441406,15.5857864 11.5799271,15.25 11.9941406,15.25 L12.0029297,15.25 Z" id="Vector-(Stroke)"></path>
                </g>
            </g>
        </g>
    </g>
</svg>