<?xml version="1.0" encoding="UTF-8"?>
<svg width="24px" height="24px" viewBox="0 0 24 24" version="1.1" xmlns="http://www.w3.org/2000/svg" xmlns:xlink="http://www.w3.org/1999/xlink">
    <title>Icon/Sun/Linear</title>
    <defs>
        <path d="M5,0 L59,0 C61.7614237,-8.8817842e-16 64,2.23857625 64,5 L64,203 C64,205.761424 61.7614237,208 59,208 L5,208 C2.23857625,208 0,205.761424 0,203 L0,5 C0,2.23857625 2.23857625,0 5,0 Z" id="path-1"></path>
        <path d="M0,0 L24,0 L24,24 L0,24 L0,0 Z" id="path-2"></path>
    </defs>
    <g id="Icons" stroke="none" stroke-width="1" fill="none" fill-rule="evenodd">
        <g id="Weather" transform="translate(-64, -234)" fill-rule="nonzero">
            <g id="sun" transform="translate(44, 166)" xlink:href="#path-1">
                <g id="Icon/Sun/Linear" transform="translate(20, 68)" xlink:href="#path-2">
                    <use fill="#FFFFFF" fill-rule="evenodd" xlink:href="#path-2"></use>
                    <path d="M19.0100002,4.98999977 L19.1399994,4.86000013 L19.0100002,4.98999977 Z M4.86000013,19.1399994 L4.98999977,19.0100002 L4.86000013,19.1399994 Z M12,2.07999992 L12,2 L12,2.07999992 Z M12,22 L12,21.9200001 L12,22 Z M2.07999992,12 L2,12 L2.07999992,12 Z M22,12 L21.9200001,12 L22,12 Z M4.98999977,4.98999977 L4.86000013,4.86000013 L4.98999977,4.98999977 Z M19.1399994,19.1399994 L19.0100002,19.0100002" id="Vector" stroke="CURRENTCOLOR" stroke-width="1.5" stroke-linecap="round" stroke-linejoin="round" fill-rule="nonzero"></path>
                    <path d="M18.5,12 C18.5,15.5898509 15.5898509,18.5 12,18.5 C8.4101491,18.5 5.5,15.5898509 5.5,12 C5.5,8.4101491 8.4101491,5.5 12,5.5 C15.5898509,5.5 18.5,8.4101491 18.5,12 Z" id="Vector" stroke="CURRENTCOLOR" stroke-width="1.5" stroke-linecap="round" stroke-linejoin="round" fill-rule="nonzero"></path>
                </g>
            </g>
        </g>
    </g>
</svg>