<?xml version="1.0" encoding="UTF-8"?>
<svg width="24px" height="24px" viewBox="0 0 24 24" version="1.1" xmlns="http://www.w3.org/2000/svg" xmlns:xlink="http://www.w3.org/1999/xlink">
    <title>Icon/Bag-Star/Bulk</title>
    <defs>
        <path d="M5,0 L59,0 C61.7614237,-8.8817842e-16 64,2.23857625 64,5 L64,203 C64,205.761424 61.7614237,208 59,208 L5,208 C2.23857625,208 0,205.761424 0,203 L0,5 C0,2.23857625 2.23857625,0 5,0 Z" id="path-1"></path>
        <path d="M0,0 L24,0 L24,24 L0,24 L0,0 Z" id="path-2"></path>
    </defs>
    <g id="Icons" stroke="none" stroke-width="1" fill="none" fill-rule="evenodd">
        <g id="Shop" transform="translate(-688, -329)" fill="CURRENTCOLOR" fill-rule="nonzero">
            <g id="bag-Star" transform="translate(668, 165)" xlink:href="#path-1">
                <g id="Icon/Bag-Star/Bulk" transform="translate(20, 164)" xlink:href="#path-2">
                    <path d="M17.75,6.25156939 L17.75,7.63156902 C17.75,8.04578259 17.4142136,8.38156902 17,8.38156902 C16.5857864,8.38156902 16.25,8.04578259 16.25,7.63156902 L16.25,6.25156939 C16.25,4.06007617 14.1102787,2.29748057 11.5738905,2.51893725 C9.50315954,2.69287864 7.75,4.54220764 7.75,6.44156897 L7.75,7.41156923 C7.75,7.8257828 7.41421356,8.16156923 7,8.16156923 C6.58578644,8.16156923 6.25,7.8257828 6.25,7.41156923 L6.25,6.44156897 C6.25,3.75236163 8.61029112,1.26259689 11.4458747,1.02441195 C14.8219793,0.729632682 17.75,3.14159003 17.75,6.25156939 Z" id="Vector-Copy-2"></path>
                    <path d="M19.2399998,6.3298614 L18.8400002,6.3298614 L16.8600006,6.3298614 L7.13999987,6.3298614 L5.17000008,6.3298614 L4.76999998,6.3298614 C3.87,6.3298614 2,6.3298614 2,8.88986182 C2,9.85986185 2.1999999,10.4998611 2.61999989,10.9198611 C2.85999988,11.1698611 3.15000004,11.2998609 3.46000004,11.3698609 C3.75000003,11.4398609 4.06000012,11.4498608 4.36000013,11.4498608 L19.6399994,11.4498608 C19.9499994,11.4498608 20.2400005,11.4298609 20.5200005,11.3698609 C21.3600004,11.1698609 22,10.5698618 22,8.88986182 C22,6.3298614 20.1299998,6.3298614 19.2399998,6.3298614 Z" id="Vector" opacity="0.400000006"></path>
                    <path d="M19.6499987,11.4598614 L4.36000013,11.4598614 C4.07000014,11.4598614 3.75000003,11.4498612 3.46000004,11.3698612 L4.71999979,19.0598608 C4.99999979,20.7798609 5.75,22.7598616 9.07999992,22.7598616 L14.6899996,22.7598616 C18.0599995,22.7598616 18.6600004,21.0698616 19.0200005,19.1798617 L20.5299997,11.3698612 C20.2499997,11.4398612 19.9499987,11.4598614 19.6499987,11.4598614 Z M11.4098436,14.2231315 C11.6512494,13.7145674 12.34875,13.7145664 12.5901558,14.2231306 L13.0073676,15.1020612 C13.10323,15.3040124 13.2885327,15.4439888 13.5028876,15.4763731 L14.4358006,15.617316 C14.9756003,15.6988681 15.1911408,16.3885708 14.8005381,16.7844328 L14.1254751,17.468585 C13.9703665,17.6257821 13.8995868,17.8522685 13.936203,18.0742343 L14.0955637,19.0402719 C14.1877725,19.599238 13.6234831,20.0254982 13.1406715,19.7615901 L12.3062482,19.3054893 C12.1145233,19.2006912 11.8854764,19.2006912 11.6937515,19.3054893 L10.859329,19.7615901 C10.3765175,20.0254982 9.81222692,19.5992391 9.90443573,19.040273 L10.0637965,18.0742346 C10.1004127,17.8522688 10.0296334,17.6257824 9.87452474,17.4685853 L9.19946254,16.7844334 C8.80885981,16.3885714 9.02439848,15.6988682 9.5641982,15.6173162 L10.4971119,15.4763731 C10.7114668,15.4439888 10.8967698,15.3040126 10.9926322,15.1020614 L11.4098436,14.2231315 Z" id="Vector"></path>
                </g>
            </g>
        </g>
    </g>
</svg>