<?xml version="1.0" encoding="UTF-8"?>
<svg width="24px" height="24px" viewBox="0 0 24 24" version="1.1" xmlns="http://www.w3.org/2000/svg" xmlns:xlink="http://www.w3.org/1999/xlink">
    <title>Icon/Bag-Star/Linear</title>
    <defs>
        <path d="M5,0 L59,0 C61.7614237,-8.8817842e-16 64,2.23857625 64,5 L64,203 C64,205.761424 61.7614237,208 59,208 L5,208 C2.23857625,208 0,205.761424 0,203 L0,5 C0,2.23857625 2.23857625,0 5,0 Z" id="path-1"></path>
        <path d="M0,0 L24,0 L24,24 L0,24 L0,0 Z" id="path-2"></path>
    </defs>
    <g id="Icons" stroke="none" stroke-width="1" fill="none" fill-rule="evenodd">
        <g id="Shop" transform="translate(-688, -233)" fill-rule="nonzero">
            <g id="bag-Star" transform="translate(668, 165)" xlink:href="#path-1">
                <g id="Icon/Bag-Star/Linear" transform="translate(20, 68)" xlink:href="#path-2">
                    <path d="M7,6.66170788 L7,5.69170761 C7,3.44170761 9.01111158,1.23170796 11.5111116,1.02170797 C14.4888894,0.76170798 17,2.87170792 17,5.50170803 L17,6.88170767" id="Vector" stroke="CURRENTCOLOR" stroke-width="1.5" stroke-linecap="round" stroke-linejoin="round" fill-rule="nonzero"></path>
                    <g id="Group" stroke-width="1" fill-rule="evenodd" transform="translate(2, 6.8417)">
                        <path d="M9.40984364,7.3814236 C9.65124942,6.87285943 10.34875,6.87285846 10.5901558,7.38142264 L11.0073676,8.26035328 C11.10323,8.4623045 11.2885327,8.60228082 11.5028876,8.6346652 L12.4358006,8.77560806 C12.9756003,8.85716011 13.1911408,9.54686289 12.8005381,9.9427249 L12.1254751,10.626877 C11.9703665,10.7840741 11.8995868,11.0105605 11.936203,11.2325264 L12.0955637,12.198564 C12.1877725,12.7575301 11.6234831,13.1837902 11.1406715,12.9198822 L10.3062482,12.4637814 C10.1145233,12.3589832 9.88547643,12.3589832 9.69375153,12.4637814 L8.85932903,12.9198822 C8.37651746,13.1837902 7.81222692,12.7575312 7.90443573,12.1985651 L8.0637965,11.2325267 C8.10041269,11.0105608 8.0296334,10.7840744 7.87452474,10.6268773 L7.19946254,9.94272547 C6.80885981,9.54686346 7.02439848,8.85716025 7.5641982,8.77560821 L8.49711194,8.6346652 C8.71146684,8.60228082 8.89676982,8.46230465 8.99263225,8.26035342 L9.40984364,7.3814236 Z" id="Star-2" stroke="CURRENTCOLOR" stroke-width="1.5" stroke-linejoin="round" fill-rule="nonzero"></path>
                        <path d="M0,2 C0,0.149999976 0.989999771,0 2.21999979,0 L17.7800007,0 C19.0100007,0 20,0.149999976 20,2 C20,4.1500001 19.0100007,4 17.7800007,4 L2.21999979,4 C0.989999771,4 0,4.1500001 0,2 Z" id="Vector" stroke="#292D32" stroke-width="1.5" fill-rule="nonzero"></path>
                        <path d="M1.5,4.1500001 L2.90999985,12.7899995 C3.22999984,14.7299995 4,16.1500001 6.85999966,16.1500001 L12.8900003,16.1500001 C16,16.1500001 16.4599997,14.7900003 16.8199997,12.9100003 L18.5,4.1500001" id="Vector" stroke="#292D32" stroke-width="1.5" stroke-linecap="round" fill-rule="nonzero"></path>
                    </g>
                </g>
            </g>
        </g>
    </g>
</svg>