<?xml version="1.0" encoding="UTF-8"?>
<svg width="24px" height="24px" viewBox="0 0 24 24" version="1.1" xmlns="http://www.w3.org/2000/svg" xmlns:xlink="http://www.w3.org/1999/xlink">
    <title>Icon/Bag-Star/Bold</title>
    <defs>
        <path d="M5,0 L59,0 C61.7614237,-8.8817842e-16 64,2.23857625 64,5 L64,203 C64,205.761424 61.7614237,208 59,208 L5,208 C2.23857625,208 0,205.761424 0,203 L0,5 C0,2.23857625 2.23857625,0 5,0 Z" id="path-1"></path>
        <path d="M0,0 L24,0 L24,24 L0,24 L0,0 Z" id="path-2"></path>
    </defs>
    <g id="Icons" stroke="none" stroke-width="1" fill="none" fill-rule="evenodd">
        <g id="Shop" transform="translate(-688, -281)" fill="CURRENTCOLOR" fill-rule="nonzero">
            <g id="bag-Star" transform="translate(668, 165)" xlink:href="#path-1">
                <g id="Icon/Bag-Star/Bold" transform="translate(20, 116)" xlink:href="#path-2">
                    <path d="M18,6.50156193 L18,6.579 L19.3235293,6.57992518 C20.2129257,6.58213349 21.8909216,6.65279939 21.9949278,8.91410816 L22,9.13985436 C22,10.8198543 21.3600004,11.4198534 20.5200005,11.6198534 C20.2400005,11.6798534 19.9499994,11.6998534 19.6399994,11.6998534 L4.36000013,11.6998534 C4.06000012,11.6998534 3.75000003,11.6898534 3.46000004,11.6198534 C3.15000004,11.5498534 2.85999988,11.4198536 2.61999989,11.1698536 C2.1999999,10.7498536 2,10.1098544 2,9.13985436 C2,6.57985394 3.87,6.57985394 4.76999998,6.57985394 L6.002,6.579 L6.00482194,6.47505147 C6.12655923,3.7391026 8.53744508,1.26782819 11.4241291,1.02535203 C14.9405961,0.718317245 18,3.23850155 18,6.50156193 Z M11.5948168,3.01805243 C9.69294999,3.17780924 8.06981707,4.85103345 8.00219204,6.57975389 L16,6.579 L16,6.50156193 C16,4.46314974 13.991662,2.80878109 11.5948168,3.01805243 Z" id="Combined-Shape"></path>
                    <path d="M19.0499995,12.9998539 L4.86999989,12.9998539 C4.24999988,12.9998539 3.7800001,13.5498537 3.8800001,14.1598537 L4.71999979,19.2998531 C4.99999979,21.0198532 5.74999976,22.9998539 9.07999969,22.9998539 L14.6899998,22.9998539 C18.0599997,22.9998539 18.6600007,21.309854 19.0200007,19.419854 L20.03,14.1898535 C20.15,13.5698535 19.6799995,12.9998539 19.0499995,12.9998539 Z M11.4098436,15.2231315 C11.6512494,14.7145674 12.34875,14.7145664 12.5901558,15.2231306 L13.0073676,16.1020612 C13.10323,16.3040124 13.2885327,16.4439888 13.5028876,16.4763731 L14.4358006,16.617316 C14.9756003,16.6988681 15.1911408,17.3885708 14.8005381,17.7844328 L14.1254751,18.468585 C13.9703665,18.6257821 13.8995868,18.8522685 13.936203,19.0742343 L14.0955637,20.0402719 C14.1877725,20.599238 13.6234831,21.0254982 13.1406715,20.7615901 L12.3062482,20.3054893 C12.1145233,20.2006912 11.8854764,20.2006912 11.6937515,20.3054893 L10.859329,20.7615901 C10.3765175,21.0254982 9.81222692,20.5992391 9.90443573,20.040273 L10.0637965,19.0742346 C10.1004127,18.8522688 10.0296334,18.6257824 9.87452474,18.4685853 L9.19946254,17.7844334 C8.80885981,17.3885714 9.02439848,16.6988682 9.5641982,16.6173162 L10.4971119,16.4763731 C10.7114668,16.4439888 10.8967698,16.3040126 10.9926322,16.1020614 L11.4098436,15.2231315 Z" id="Vector"></path>
                </g>
            </g>
        </g>
    </g>
</svg>