<?xml version="1.0" encoding="UTF-8"?>
<svg width="24px" height="24px" viewBox="0 0 24 24" version="1.1" xmlns="http://www.w3.org/2000/svg" xmlns:xlink="http://www.w3.org/1999/xlink">
    <title>Icon/Bag-Star/Outline</title>
    <defs>
        <path d="M5,0 L59,0 C61.7614237,-8.8817842e-16 64,2.23857625 64,5 L64,203 C64,205.761424 61.7614237,208 59,208 L5,208 C2.23857625,208 0,205.761424 0,203 L0,5 C0,2.23857625 2.23857625,0 5,0 Z" id="path-1"></path>
        <path d="M0,0 L24,0 L24,24 L0,24 L0,0 Z" id="path-2"></path>
    </defs>
    <g id="Icons" stroke="none" stroke-width="1" fill="none" fill-rule="evenodd">
        <g id="Shop" transform="translate(-688, -185)" fill="CURRENTCOLOR" fill-rule="nonzero">
            <g id="bag-Star" transform="translate(668, 165)" xlink:href="#path-1">
                <g id="Icon/Bag-Star/Outline" transform="translate(20, 20)" xlink:href="#path-2">
                    <path d="M17.75,5.50170803 L17.75,6.88170767 C17.75,7.29592123 17.4142136,7.63170767 17,7.63170767 C16.5857864,7.63170767 16.25,7.29592123 16.25,6.88170767 L16.25,5.50170803 C16.25,3.31021482 14.1102787,1.54761921 11.5738905,1.76907589 C9.50315954,1.94301729 7.75,3.79234628 7.75,5.69170761 L7.75,6.66170788 C7.75,7.07592144 7.41421356,7.41170788 7,7.41170788 C6.58578644,7.41170788 6.25,7.07592144 6.25,6.66170788 L6.25,5.69170761 C6.25,3.00250027 8.61029112,0.512735533 11.4458747,0.274550591 C14.8219793,-0.0202286738 17.75,2.39172867 17.75,5.50170803 Z" id="Vector"></path>
                    <path d="M22.75,8.84170794 C22.75,10.0123571 22.4797181,10.7818412 21.8509723,11.2184348 C21.3703371,11.5521821 20.9789132,11.6003366 19.997298,11.5928104 C19.8877978,11.5919767 19.8877978,11.5919767 19.7800007,11.5917079 L4.21999979,11.5917079 C4.1122027,11.5919767 4.1122027,11.5919767 4.00270248,11.5928104 C3.02108728,11.6003366 2.6296633,11.5521821 2.14902805,11.2184348 C1.52028205,10.7818413 1.25,10.0123571 1.25,8.84170794 C1.25,6.75572792 2.24139714,6.09170794 4.21999979,6.09170794 L19.7800007,6.09170794 C21.7586032,6.09170794 22.75,6.75572792 22.75,8.84170794 Z M4.21999979,7.59170794 C2.97255606,7.59170794 2.75,7.74077199 2.75,8.84170794 C2.75,9.5708777 2.86088832,9.88657313 3.00457468,9.98634719 C3.1262604,10.0708443 3.34541749,10.0978058 3.99120213,10.0928545 C4.10277802,10.0920015 4.10277802,10.0920015 4.21999979,10.0917079 L19.7800007,10.0917079 C19.8972225,10.0920015 19.8972225,10.0920015 20.0087983,10.0928545 C20.6545829,10.0978058 20.8737398,10.0708443 20.9954254,9.98634725 C21.1391117,9.88657323 21.25,9.57087776 21.25,8.84170794 C21.25,7.74077187 21.0274442,7.59170794 19.7800007,7.59170794 L4.21999979,7.59170794 Z" id="Vector"></path>
                    <path d="M20.6412613,10.2551313 C21.0480614,10.3331478 21.3145932,10.7261693 21.2365767,11.1329693 L19.5566161,19.8927625 C19.0295561,22.6451868 17.9830936,23.741708 14.8900003,23.741708 L8.85999966,23.741708 C5.91816053,23.741708 4.60913738,22.4160444 4.16979185,19.7525053 L2.759792,11.1125059 C2.6930772,10.7037003 2.97039658,10.3182148 3.37920217,10.2515 C3.78800776,10.1847852 4.1734932,10.4621046 4.240208,10.8709102 L5.65000044,19.5096455 C5.97764228,21.4959742 6.71401524,22.241708 8.85999966,22.241708 L14.8900003,22.241708 C17.1789934,22.241708 17.680114,21.7166158 18.083423,19.610447 L19.7634233,10.8504467 C19.8414398,10.4436467 20.2344612,10.1771149 20.6412613,10.2551313 Z" id="Vector"></path>
                    <path d="M13.2676976,13.9015142 L13.6669696,14.7426514 L14.5478379,14.8757315 C15.7016939,15.0500541 16.150011,16.4846146 15.3344026,17.3112048 L14.6798915,17.9745283 L14.8355625,18.9181994 C15.0273865,20.0810283 13.8241733,20.9899266 12.7809485,20.419693 L11.9999999,19.9928217 L11.2190523,20.4196928 C10.1758278,20.9899263 8.97261287,20.0810299 9.16443689,18.9182005 L9.32010806,17.9745283 L8.66559795,17.3112053 C7.84999,16.4846156 8.29830423,15.0500544 9.45216088,14.8757316 L10.3330304,14.7426514 L10.7323018,13.9015152 C11.2448349,12.8217731 12.7551642,12.8217715 13.2676976,13.9015142 Z M11.6701741,15.4236777 C11.4683314,15.8488951 11.0724127,16.1479686 10.6091493,16.2179577 L9.81285519,16.3382604 L10.4083893,16.9418134 C10.733001,17.2707958 10.8792637,17.7388209 10.8037953,18.1963072 L10.6694597,19.0106441 L11.3340282,18.6473866 C11.7499175,18.4200588 12.2500822,18.4200588 12.6659712,18.6473864 L13.3305398,19.0106441 L13.1962042,18.1963069 C13.1207358,17.7388206 13.2669989,17.2707955 13.5916106,16.941813 L14.1871448,16.3382605 L13.3908503,16.2179577 C12.9275868,16.1479686 12.5316684,15.8488949 12.3298258,15.4236776 L11.9999999,14.728841 L11.6701741,15.4236777 Z" id="Star-2"></path>
                </g>
            </g>
        </g>
    </g>
</svg>