<?xml version="1.0" encoding="UTF-8"?>
<svg width="24px" height="24px" viewBox="0 0 24 24" version="1.1" xmlns="http://www.w3.org/2000/svg" xmlns:xlink="http://www.w3.org/1999/xlink">
    <title>Icon/Cloud-Notif/Bold</title>
    <defs>
        <path d="M5,0 L59,0 C61.7614237,-8.8817842e-16 64,2.23857625 64,5 L64,203 C64,205.761424 61.7614237,208 59,208 L5,208 C2.23857625,208 0,205.761424 0,203 L0,5 C0,2.23857625 2.23857625,0 5,0 Z" id="path-1"></path>
        <path d="M0,0 L24,0 L24,24 L0,24 L0,0 Z" id="path-2"></path>
    </defs>
    <g id="Icons" stroke="none" stroke-width="1" fill="none" fill-rule="evenodd">
        <g id="Weather" transform="translate(-792, -282)" fill-rule="nonzero">
            <g id="cloud-notif-" transform="translate(772, 166)" xlink:href="#path-1">
                <g id="Icon/Cloud-Notif/Bold" transform="translate(20, 116)" xlink:href="#path-2">
                    <use fill="#FFFFFF" fill-rule="evenodd" xlink:href="#path-2"></use>
                    <path d="M21.2700005,8.76000023 C21.2700005,9.78000021 20.8000009,10.7000002 20.0400009,11.3000002 C19.4900009,11.7500002 18.7800002,12.0200005 18.0100002,12.0200005 C16.2200003,12.0200005 14.7600002,10.5600004 14.7600002,8.77000046 C14.7600002,7.88000047 15.1200002,7.06999999 15.7200003,6.48000002 L15.7200003,6.46999979 C16.3100002,5.87999982 17.1200002,5.51000023 18.0100002,5.51000023 C19.8100002,5.51000023 21.2700005,6.97000027 21.2700005,8.76000023 Z" id="Vector" fill="CURRENTCOLOR" fill-rule="nonzero"></path>
                    <path d="M20.1800001,18.7299995 C19.1300001,19.6899995 17.7800001,20.2199984 16.3500001,20.2199984 L5.96999979,20.2199984 C3.22999978,20.0199984 2.00999999,17.9100007 2.00999999,16.0300007 C2.00999999,14.3500007 2.98000002,12.4900002 5.11000013,11.9700003 C4.18000013,8.39000034 5.9599998,5.88999975 8.03999972,4.69999969 C10.0999997,3.52999973 13,3.33999968 15.1800001,4.94999969 C14.9900001,5.08999969 14.8199994,5.23999973 14.6499994,5.40999973 L14.22,5.86000013 L14.22,5.92000008 C13.6,6.73000008 13.26,7.72000027 13.26,8.76000023 C13.26,11.3800001 15.4000003,13.5100002 18.0200002,13.5100002 C19.1000003,13.5100002 20.1499991,13.1400003 20.9699991,12.4700003 C21.1199991,12.3500003 21.2699994,12.2199999 21.3999994,12.0799999 C22.3899994,14.1599998 22.25,16.9199996 20.1800001,18.7299995 Z" id="Vector" fill="CURRENTCOLOR" fill-rule="nonzero"></path>
                </g>
            </g>
        </g>
    </g>
</svg>