<?xml version="1.0" encoding="UTF-8"?>
<svg width="24px" height="24px" viewBox="0 0 24 24" version="1.1" xmlns="http://www.w3.org/2000/svg" xmlns:xlink="http://www.w3.org/1999/xlink">
    <title>Icon/Cloud-Notif/Bulk</title>
    <defs>
        <path d="M5,0 L59,0 C61.7614237,-8.8817842e-16 64,2.23857625 64,5 L64,203 C64,205.761424 61.7614237,208 59,208 L5,208 C2.23857625,208 0,205.761424 0,203 L0,5 C0,2.23857625 2.23857625,0 5,0 Z" id="path-1"></path>
        <path d="M0,0 L24,0 L24,24 L0,24 L0,0 Z" id="path-2"></path>
    </defs>
    <g id="Icons" stroke="none" stroke-width="1" fill="none" fill-rule="evenodd">
        <g id="Weather" transform="translate(-792, -330)" fill-rule="nonzero">
            <g id="cloud-notif-" transform="translate(772, 166)" xlink:href="#path-1">
                <g id="Icon/Cloud-Notif/Bulk" transform="translate(20, 164)" xlink:href="#path-2">
                    <use fill="#FFFFFF" fill-rule="evenodd" xlink:href="#path-2"></use>
                    <path d="M20.5699987,11.0100002 C19.8099988,10.1000002 18.8100001,9.48999977 17.6700001,9.23999977 C17.4200001,8.08999979 16.9599994,7.08999997 16.3099995,6.26999998 C16.2899995,6.23999998 16.27,6.21000006 16.25,6.19000006 C14.0599999,3.53999996 10.4700003,3.55000001 8.05000019,4.92000002 C5.98000026,6.09999996 4.21999985,8.58999944 5.13999987,12.1599994 C3.01999998,12.6799994 2.03999996,14.5300003 2.03999996,16.2000003 C2.03999996,18.0700003 3.25999975,20.1800013 5.98999977,20.3700013 L16.2900009,20.3700013 C16.3000009,20.3700013 16.3199999,20.3700013 16.3299999,20.3700013 C17.7499999,20.3700013 19.0999985,19.8499989 20.1399984,18.8899989 C22.6599984,16.6899989 22.3299987,13.0800002 20.5699987,11.0100002 Z" id="Vector" fill="CURRENTCOLOR" fill-rule="nonzero" opacity="0.400000006"></path>
                    <path d="M21.2700005,8.76000023 C21.2700005,9.78000021 20.8000009,10.7000002 20.0400009,11.3000002 C19.4900009,11.7500002 18.7800002,12.0200005 18.0100002,12.0200005 C16.2200003,12.0200005 14.7600002,10.5600004 14.7600002,8.77000046 C14.7600002,7.88000047 15.1200002,7.06999999 15.7200003,6.48000002 L15.7200003,6.46999979 C16.3100002,5.87999982 17.1200002,5.51000023 18.0100002,5.51000023 C19.8100002,5.51000023 21.2700005,6.97000027 21.2700005,8.76000023 Z" id="Vector" fill="CURRENTCOLOR" fill-rule="nonzero"></path>
                </g>
            </g>
        </g>
    </g>
</svg>