<?xml version="1.0" encoding="UTF-8"?>
<svg width="24px" height="24px" viewBox="0 0 24 24" version="1.1" xmlns="http://www.w3.org/2000/svg" xmlns:xlink="http://www.w3.org/1999/xlink">
    <title>Icon/Cloud-Notif/Outline</title>
    <defs>
        <path d="M5,0 L59,0 C61.7614237,-8.8817842e-16 64,2.23857625 64,5 L64,203 C64,205.761424 61.7614237,208 59,208 L5,208 C2.23857625,208 0,205.761424 0,203 L0,5 C0,2.23857625 2.23857625,0 5,0 Z" id="path-1"></path>
        <path d="M0,0 L24,0 L24,24 L0,24 L0,0 Z" id="path-2"></path>
    </defs>
    <g id="Icons" stroke="none" stroke-width="1" fill="none" fill-rule="evenodd">
        <g id="Weather" transform="translate(-792, -186)" fill-rule="nonzero">
            <g id="cloud-notif-" transform="translate(772, 166)" xlink:href="#path-1">
                <g id="Icon/Cloud-Notif/Outline" transform="translate(20, 20)" xlink:href="#path-2">
                    <use fill="#FFFFFF" fill-rule="evenodd" xlink:href="#path-2"></use>
                    <path d="M16.6700003,20.8300006 C16.6500003,20.8300006 16.6399994,20.8300006 16.6299994,20.8300006 L5.5400002,20.8300006 C2.60000014,20.6200006 1.27999997,18.3499999 1.27999997,16.3399999 C1.27999997,14.54 2.33000016,12.5399995 4.61000013,11.9899995 C3.98000014,9.46999955 4.52999985,7.11000013 6.18999982,5.4000001 C8.06999981,3.46000004 11.0599999,2.70999995 13.6099999,3.53999993 C13.9999999,3.66999993 14.2200004,4.09000003 14.0900004,4.48000002 C13.9600004,4.87 13.5399998,5.09000003 13.1499999,4.96000004 C11.1199999,4.31000006 8.75000048,4.89999986 7.26000047,6.44999981 C5.81000042,7.94999981 5.47000045,10.0400002 6.30000043,12.3500001 C6.38000043,12.5800001 6.35000028,12.8399995 6.21000028,13.0299995 C6.07000028,13.2199995 5.83999966,13.3500001 5.59999967,13.3500001 C3.65999961,13.4900001 2.78999996,14.9499999 2.78999996,16.3399999 C2.78999996,17.7299999 3.65999961,19.1900009 5.59999967,19.3400009 L16.6399996,19.3400009 C17.78,19.3500009 18.9199997,18.9199991 19.7699997,18.1399992 C20.9199997,17.1299992 21.4199994,15.6600001 21.1699994,14.1000001 C21.0999994,13.6900001 21.3800002,13.3099995 21.7900002,13.2399995 C22.2000002,13.1699995 22.5799989,13.4499994 22.6499989,13.8599994 C22.9899989,15.9199994 22.28,17.9400009 20.78,19.2600009 C19.66,20.2600009 18.2000003,20.8300006 16.6700003,20.8300006 Z" id="Vector" fill="CURRENTCOLOR" fill-rule="nonzero"></path>
                    <path d="M7.26000023,13.7599998 C7.15000023,13.7599998 7.02999983,13.7299998 6.92999983,13.6799998 C6.50999984,13.4699998 6.04999992,13.3599999 5.57999992,13.3499999 C5.16999993,13.3399999 4.84000015,12.9999997 4.84000015,12.5899997 C4.85000015,12.1799997 5.23999989,11.84 5.5999999,11.85 C6.2899999,11.86 6.98000014,12.0299997 7.59000015,12.3399997 C7.96000016,12.5199997 8.10999984,12.9799999 7.92999983,13.3499999 C7.79999983,13.6099999 7.54000023,13.7599998 7.26000023,13.7599998 Z" id="Vector" fill="CURRENTCOLOR" fill-rule="nonzero"></path>
                    <path d="M18.4699993,12.75 C16.1299994,12.75 14.2200003,10.8399999 14.2200003,8.5 C14.2200003,7.39999998 14.6399996,6.3599999 15.3999996,5.57999992 C15.4199996,5.54999992 15.44,5.53000023 15.46,5.51000023 C16.2600001,4.70000023 17.3199991,4.26000023 18.4599991,4.26000023 C20.799999,4.26000023 22.7099991,6.17000031 22.7099991,8.51000023 C22.7099991,9.81000018 22.1300006,11.0199999 21.1100006,11.8299999 C20.3800006,12.4199999 19.4399993,12.75 18.4699993,12.75 Z M16.6000004,6.5 C16.5800004,6.53 16.5600007,6.54999992 16.5300007,6.57999992 C16.0100007,7.08999991 15.7200003,7.78000021 15.7200003,8.51000023 C15.7200003,10.0300002 16.9499993,11.2600002 18.4699993,11.2600002 C19.0899993,11.2600002 19.7000003,11.0499998 20.1800003,10.6599998 C20.8500003,10.1299999 21.2200003,9.3500002 21.2200003,8.51000023 C21.2200003,6.99000025 19.9899993,5.76000023 18.4699993,5.76000023 C17.7599993,5.75000023 17.1000004,6.02000001 16.6000004,6.5 Z" id="Vector" fill="CURRENTCOLOR" fill-rule="nonzero"></path>
                </g>
            </g>
        </g>
    </g>
</svg>