<?xml version="1.0" encoding="UTF-8"?>
<svg width="24px" height="24px" viewBox="0 0 24 24" version="1.1" xmlns="http://www.w3.org/2000/svg" xmlns:xlink="http://www.w3.org/1999/xlink">
    <title>Icon/Category-View/Bulk</title>
    <defs>
        <path d="M5,0 L59,0 C61.7614237,-8.8817842e-16 64,2.23857625 64,5 L64,203 C64,205.761424 61.7614237,208 59,208 L5,208 C2.23857625,208 0,205.761424 0,203 L0,5 C0,2.23857625 2.23857625,0 5,0 Z" id="path-1"></path>
        <path d="M0,0 L24,0 L24,24 L0,24 L0,0 Z" id="path-2"></path>
    </defs>
    <g id="Icons" stroke="none" stroke-width="1" fill="none" fill-rule="evenodd">
        <g id="View-Controls" transform="translate(-164, -578)" fill-rule="nonzero">
            <g id="Category-View" transform="translate(144, 414)" xlink:href="#path-1">
                <g id="Icon/Category-View/Bulk" transform="translate(20, 164)" xlink:href="#path-2">
                    <path d="M7.23999977,2 L5.34000015,2 C3.1500001,2 2,3.14999986 2,5.32999992 L2,7.23000002 C2,9.41000009 3.14999986,10.5600004 5.32999992,10.5600004 L7.23000002,10.5600004 C9.41000009,10.5600004 10.5600653,9.41000009 10.5600653,7.23000002 L10.5600653,5.32999992 C10.5700004,3.14999986 9.41999984,2 7.23999977,2 Z" id="Vector" fill="CURRENTCOLOR"></path>
                    <path d="M18.6700001,2 L16.7700005,2 C14.5900004,2 13.4399996,3.14999986 13.4399996,5.32999992 L13.4399996,7.23000002 C13.4399996,9.41000009 14.5900004,10.5600004 16.7700005,10.5600004 L18.6700001,10.5600004 C20.8500001,10.5600004 22,9.41000009 22,7.23000002 L22,5.32999992 C22,3.14999986 20.8500001,2 18.6700001,2 Z" id="Vector" fill="CURRENTCOLOR" opacity="0.400000006"></path>
                    <path d="M18.6700001,13.4300003 L16.7700005,13.4300003 C14.5900004,13.4300003 13.4399996,14.5800002 13.4399996,16.7600002 L13.4399996,18.6599998 C13.4399996,20.8399999 14.5900004,21.9899998 16.7700005,21.9899998 L18.6700001,21.9899998 C20.8500001,21.9899998 22,20.8399999 22,18.6599998 L22,16.7600002 C22,14.5800002 20.8500001,13.4300003 18.6700001,13.4300003 Z" id="Vector" fill="CURRENTCOLOR"></path>
                    <path d="M7.23999977,13.4300003 L5.34000015,13.4300003 C3.1500001,13.4300003 2,14.5800002 2,16.7600002 L2,18.6599998 C2,20.8499999 3.14999986,22 5.32999992,22 L7.23000002,22 C9.41000009,22 10.5600653,20.8500001 10.5600653,18.6700001 L10.5600653,16.7700005 C10.5700004,14.5800004 9.41999984,13.4300003 7.23999977,13.4300003 Z" id="Vector" fill="CURRENTCOLOR" opacity="0.400000006"></path>
                    <polygon id="Vector" opacity="0" points="0 0 24 0 24 24 0 24"></polygon>
                </g>
            </g>
        </g>
    </g>
</svg>