<?xml version="1.0" encoding="UTF-8"?>
<svg width="24px" height="24px" viewBox="0 0 24 24" version="1.1" xmlns="http://www.w3.org/2000/svg" xmlns:xlink="http://www.w3.org/1999/xlink">
    <title>Icon/Category-View/Outline</title>
    <defs>
        <path d="M5,0 L59,0 C61.7614237,-8.8817842e-16 64,2.23857625 64,5 L64,203 C64,205.761424 61.7614237,208 59,208 L5,208 C2.23857625,208 0,205.761424 0,203 L0,5 C0,2.23857625 2.23857625,0 5,0 Z" id="path-1"></path>
        <path d="M0,0 L24,0 L24,24 L0,24 L0,0 Z" id="path-2"></path>
    </defs>
    <g id="Icons" stroke="none" stroke-width="1" fill="none" fill-rule="evenodd">
        <g id="View-Controls" transform="translate(-164, -434)" fill-rule="nonzero">
            <g id="Category-View" transform="translate(144, 414)" xlink:href="#path-1">
                <g id="Icon/Category-View/Outline" transform="translate(20, 20)" xlink:href="#path-2">
                    <path d="M7,10.75 L5,10.75 C2.57999992,10.75 1.25,9.42000008 1.25,7 L1.25,5 C1.25,2.57999992 2.57999992,1.25 5,1.25 L7,1.25 C9.42000008,1.25 10.75,2.57999992 10.75,5 L10.75,7 C10.75,9.42000008 9.42000008,10.75 7,10.75 Z M5,2.75 C3.41999996,2.75 2.75,3.41999996 2.75,5 L2.75,7 C2.75,8.58000004 3.41999996,9.25 5,9.25 L7,9.25 C8.58000004,9.25 9.25,8.58000004 9.25,7 L9.25,5 C9.25,3.41999996 8.58000004,2.75 7,2.75 L5,2.75 Z" id="Vector" fill="CURRENTCOLOR"></path>
                    <path d="M19,10.75 L17,10.75 C14.5799999,10.75 13.25,9.42000008 13.25,7 L13.25,5 C13.25,2.57999992 14.5799999,1.25 17,1.25 L19,1.25 C21.4200001,1.25 22.75,2.57999992 22.75,5 L22.75,7 C22.75,9.42000008 21.4200001,10.75 19,10.75 Z M17,2.75 C15.42,2.75 14.75,3.41999996 14.75,5 L14.75,7 C14.75,8.58000004 15.42,9.25 17,9.25 L19,9.25 C20.58,9.25 21.25,8.58000004 21.25,7 L21.25,5 C21.25,3.41999996 20.58,2.75 19,2.75 L17,2.75 Z" id="Vector" fill="CURRENTCOLOR"></path>
                    <path d="M19,22.75 L17,22.75 C14.5799999,22.75 13.25,21.4200001 13.25,19 L13.25,17 C13.25,14.5799999 14.5799999,13.25 17,13.25 L19,13.25 C21.4200001,13.25 22.75,14.5799999 22.75,17 L22.75,19 C22.75,21.4200001 21.4200001,22.75 19,22.75 Z M17,14.75 C15.42,14.75 14.75,15.42 14.75,17 L14.75,19 C14.75,20.58 15.42,21.25 17,21.25 L19,21.25 C20.58,21.25 21.25,20.58 21.25,19 L21.25,17 C21.25,15.42 20.58,14.75 19,14.75 L17,14.75 Z" id="Vector" fill="CURRENTCOLOR"></path>
                    <path d="M7,22.75 L5,22.75 C2.57999992,22.75 1.25,21.4200001 1.25,19 L1.25,17 C1.25,14.5799999 2.57999992,13.25 5,13.25 L7,13.25 C9.42000008,13.25 10.75,14.5799999 10.75,17 L10.75,19 C10.75,21.4200001 9.42000008,22.75 7,22.75 Z M5,14.75 C3.41999996,14.75 2.75,15.42 2.75,17 L2.75,19 C2.75,20.58 3.41999996,21.25 5,21.25 L7,21.25 C8.58000004,21.25 9.25,20.58 9.25,19 L9.25,17 C9.25,15.42 8.58000004,14.75 7,14.75 L5,14.75 Z" id="Vector" fill="CURRENTCOLOR"></path>
                    <polygon id="Vector" opacity="0" points="0 0 24 0 24 24 0 24"></polygon>
                </g>
            </g>
        </g>
    </g>
</svg>