<?xml version="1.0" encoding="UTF-8"?>
<svg width="24px" height="24px" viewBox="0 0 24 24" version="1.1" xmlns="http://www.w3.org/2000/svg" xmlns:xlink="http://www.w3.org/1999/xlink">
    <title>Icon/Close/Outline</title>
    <defs>
        <path d="M5,0 L59,0 C61.7614237,-8.8817842e-16 64,2.23857625 64,5 L64,203 C64,205.761424 61.7614237,208 59,208 L5,208 C2.23857625,208 0,205.761424 0,203 L0,5 C0,2.23857625 2.23857625,0 5,0 Z" id="path-1"></path>
        <path d="M0,0 L24,0 L24,24 L0,24 L0,0 Z" id="path-2"></path>
    </defs>
    <g id="Icons" stroke="none" stroke-width="1" fill="none" fill-rule="evenodd">
        <g id="Basic-Actions" transform="translate(-64, -186)" fill-rule="nonzero">
            <g id="Close" transform="translate(44, 166)" xlink:href="#path-1">
                <g id="Icon/Close/Outline" transform="translate(20, 20)" xlink:href="#path-2">
                    <path d="M12,22.75 C6.07000017,22.75 1.25,17.9299998 1.25,12 C1.25,6.07000017 6.07000017,1.25 12,1.25 C17.9299998,1.25 22.75,6.07000017 22.75,12 C22.75,17.9299998 17.9299998,22.75 12,22.75 Z M12,2.75 C6.9000001,2.75 2.75,6.9000001 2.75,12 C2.75,17.0999999 6.9000001,21.25 12,21.25 C17.0999999,21.25 21.25,17.0999999 21.25,12 C21.25,6.9000001 17.0999999,2.75 12,2.75 Z" id="Vector" fill="CURRENTCOLOR"></path>
                    <path d="M9.17000031,15.5800004 C8.98000032,15.5800004 8.79000062,15.5100001 8.64000061,15.3600001 C8.35000062,15.0700001 8.35000062,14.5900007 8.64000061,14.3000007 L14.3000007,8.64000061 C14.5900007,8.35000062 15.0700001,8.35000062 15.3600001,8.64000061 C15.6500001,8.9300006 15.6500001,9.41000006 15.3600001,9.70000005 L9.70000005,15.3600001 C9.56000005,15.5100001 9.36000031,15.5800004 9.17000031,15.5800004 Z" id="Vector" fill="CURRENTCOLOR"></path>
                    <path d="M14.8300004,15.5800004 C14.6400004,15.5800004 14.4500007,15.5100001 14.3000007,15.3600001 L8.64000061,9.70000005 C8.35000062,9.41000006 8.35000062,8.9300006 8.64000061,8.64000061 C8.9300006,8.35000062 9.41000006,8.35000062 9.70000005,8.64000061 L15.3600001,14.3000007 C15.6500001,14.5900007 15.6500001,15.0700001 15.3600001,15.3600001 C15.2100001,15.5100001 15.0200004,15.5800004 14.8300004,15.5800004 Z" id="Vector" fill="CURRENTCOLOR"></path>
                    <polygon id="Vector" opacity="0" points="0 0 24 0 24 24 0 24"></polygon>
                </g>
            </g>
        </g>
    </g>
</svg>