<?xml version="1.0" encoding="UTF-8"?>
<svg width="24px" height="24px" viewBox="0 0 24 24" version="1.1" xmlns="http://www.w3.org/2000/svg" xmlns:xlink="http://www.w3.org/1999/xlink">
    <title>Icon/Close/Bulk</title>
    <defs>
        <path d="M5,0 L59,0 C61.7614237,-8.8817842e-16 64,2.23857625 64,5 L64,203 C64,205.761424 61.7614237,208 59,208 L5,208 C2.23857625,208 0,205.761424 0,203 L0,5 C0,2.23857625 2.23857625,0 5,0 Z" id="path-1"></path>
        <path d="M0,0 L24,0 L24,24 L0,24 L0,0 Z" id="path-2"></path>
    </defs>
    <g id="Icons" stroke="none" stroke-width="1" fill="none" fill-rule="evenodd">
        <g id="Basic-Actions" transform="translate(-64, -330)" fill-rule="nonzero">
            <g id="Close" transform="translate(44, 166)" xlink:href="#path-1">
                <g id="Icon/Close/Bulk" transform="translate(20, 164)" xlink:href="#path-2">
                    <path d="M22,12 C22,17.5228477 17.5228477,22 12,22 C6.47715235,22 2,17.5228477 2,12 C2,6.47715235 6.47715235,2 12,2 C17.5228477,2 22,6.47715235 22,12 Z" id="Vector" fill="CURRENTCOLOR" opacity="0.400000006"></path>
                    <path d="M13.0600009,12.0000002 L15.3600001,9.70000005 C15.6500001,9.41000006 15.6500001,8.9300006 15.3600001,8.64000061 C15.0700001,8.35000062 14.5900007,8.35000062 14.3000007,8.64000061 L12.0000002,10.9399998 L9.70000005,8.64000061 C9.41000006,8.35000062 8.9300006,8.35000062 8.64000061,8.64000061 C8.35000062,8.9300006 8.35000062,9.41000006 8.64000061,9.70000005 L10.9399998,12.0000002 L8.64000061,14.3000007 C8.35000062,14.5900007 8.35000062,15.0700001 8.64000061,15.3600001 C8.79000062,15.5100001 8.98000032,15.5800004 9.17000031,15.5800004 C9.36000031,15.5800004 9.55000004,15.5100001 9.70000005,15.3600001 L12.0000002,13.0600009 L14.3000007,15.3600001 C14.4500007,15.5100001 14.6400004,15.5800004 14.8300004,15.5800004 C15.0200004,15.5800004 15.2100001,15.5100001 15.3600001,15.3600001 C15.6500001,15.0700001 15.6500001,14.5900007 15.3600001,14.3000007 L13.0600009,12.0000002 Z" id="Vector" fill="CURRENTCOLOR"></path>
                    <polygon id="Vector" opacity="0" points="0 0 24 0 24 24 0 24"></polygon>
                </g>
            </g>
        </g>
    </g>
</svg>