<?xml version="1.0" encoding="UTF-8"?>
<svg width="24px" height="24px" viewBox="0 0 24 24" version="1.1" xmlns="http://www.w3.org/2000/svg" xmlns:xlink="http://www.w3.org/1999/xlink">
    <title>Icon/Close/Bold</title>
    <defs>
        <path d="M5,0 L59,0 C61.7614237,-8.8817842e-16 64,2.23857625 64,5 L64,203 C64,205.761424 61.7614237,208 59,208 L5,208 C2.23857625,208 0,205.761424 0,203 L0,5 C0,2.23857625 2.23857625,0 5,0 Z" id="path-1"></path>
        <path d="M0,0 L24,0 L24,24 L0,24 L0,0 Z" id="path-2"></path>
    </defs>
    <g id="Icons" stroke="none" stroke-width="1" fill="none" fill-rule="evenodd">
        <g id="Basic-Actions" transform="translate(-64, -282)" fill-rule="nonzero">
            <g id="Close" transform="translate(44, 166)" xlink:href="#path-1">
                <g id="Icon/Close/Bold" transform="translate(20, 116)" xlink:href="#path-2">
                    <path d="M12,2 C6.48999977,2 2,6.48999977 2,12 C2,17.5100002 6.48999977,22 12,22 C17.5100002,22 22,17.5100002 22,12 C22,6.48999977 17.5100002,2 12,2 Z M15.3599997,14.3000002 C15.6499996,14.5900002 15.6499996,15.0699997 15.3599997,15.3599997 C15.2099997,15.5099997 15.0199999,15.5799999 14.8299999,15.5799999 C14.6399999,15.5799999 14.4500002,15.5099997 14.3000002,15.3599997 L12,13.0600004 L9.69999981,15.3599997 C9.5499998,15.5099997 9.36000007,15.5799999 9.17000008,15.5799999 C8.98000008,15.5799999 8.79000035,15.5099997 8.64000034,15.3599997 C8.35000035,15.0699997 8.35000035,14.5900002 8.64000034,14.3000002 L10.9399996,12 L8.64000034,9.69999981 C8.35000035,9.40999982 8.35000035,8.93000033 8.64000034,8.64000034 C8.93000033,8.35000035 9.40999982,8.35000035 9.69999981,8.64000034 L12,10.9399996 L14.3000002,8.64000034 C14.5900002,8.35000035 15.0699997,8.35000035 15.3599997,8.64000034 C15.6499996,8.93000033 15.6499996,9.40999982 15.3599997,9.69999981 L13.0600004,12 L15.3599997,14.3000002 Z" id="Vector" fill="CURRENTCOLOR"></path>
                    <polygon id="Vector" opacity="0" transform="translate(12, 12) rotate(-180) translate(-12, -12)" points="0 0 24 0 24 24 0 24"></polygon>
                </g>
            </g>
        </g>
    </g>
</svg>