<?xml version="1.0" encoding="UTF-8"?>
<svg width="24px" height="24px" viewBox="0 0 24 24" version="1.1" xmlns="http://www.w3.org/2000/svg" xmlns:xlink="http://www.w3.org/1999/xlink">
    <title>Icon/Flash/Bold</title>
    <defs>
        <path d="M5,0 L59,0 C61.7614237,-8.8817842e-16 64,2.23857625 64,5 L64,203 C64,205.761424 61.7614237,208 59,208 L5,208 C2.23857625,208 0,205.761424 0,203 L0,5 C0,2.23857625 2.23857625,0 5,0 Z" id="path-1"></path>
        <path d="M0,0 L24,0 L24,24 L0,24 L0,0 Z" id="path-2"></path>
    </defs>
    <g id="Icons" stroke="none" stroke-width="1" fill="none" fill-rule="evenodd">
        <g id="Weather" transform="translate(-376, -530)" fill-rule="nonzero">
            <g id="flash" transform="translate(356, 414)" xlink:href="#path-1">
                <g id="Icon/Flash/Bold" transform="translate(20, 116)" xlink:href="#path-2">
                    <use fill="#FFFFFF" fill-rule="evenodd" xlink:href="#path-2"></use>
                    <path d="M9.31999946,13.28 L12.4099994,13.28 L12.4099994,20.4799998 C12.4099994,21.5399997 13.7299998,22.04 14.4299998,21.24 L22,12.6400006 C22.66,11.8900006 22.1299992,10.7200005 21.1299992,10.7200005 L18.0400009,10.7200005 L18.0400009,3.5200001 C18.0400009,2.46000016 16.72,1.96000007 16.02,2.76000008 L8.44999957,11.3599999 C7.79999959,12.1099999 8.32999945,13.28 9.31999946,13.28 Z" id="Vector" fill="CURRENTCOLOR" fill-rule="nonzero"></path>
                    <path d="M8.5,4.75 L1.5,4.75 C1.09,4.75 0.75,4.41 0.75,4 C0.75,3.59 1.09,3.25 1.5,3.25 L8.5,3.25 C8.91,3.25 9.25,3.59 9.25,4 C9.25,4.41 8.91,4.75 8.5,4.75 Z" id="Vector" fill="CURRENTCOLOR" fill-rule="nonzero"></path>
                    <path d="M7.5,20.75 L1.5,20.75 C1.09,20.75 0.75,20.41 0.75,20 C0.75,19.59 1.09,19.25 1.5,19.25 L7.5,19.25 C7.91,19.25 8.25,19.59 8.25,20 C8.25,20.41 7.91,20.75 7.5,20.75 Z" id="Vector" fill="CURRENTCOLOR" fill-rule="nonzero"></path>
                    <path d="M4.5,12.75 L1.5,12.75 C1.09,12.75 0.75,12.41 0.75,12 C0.75,11.59 1.09,11.25 1.5,11.25 L4.5,11.25 C4.91,11.25 5.25,11.59 5.25,12 C5.25,12.41 4.91,12.75 4.5,12.75 Z" id="Vector" fill="CURRENTCOLOR" fill-rule="nonzero"></path>
                </g>
            </g>
        </g>
    </g>
</svg>