<?xml version="1.0" encoding="UTF-8"?>
<svg width="24px" height="24px" viewBox="0 0 24 24" version="1.1" xmlns="http://www.w3.org/2000/svg" xmlns:xlink="http://www.w3.org/1999/xlink">
    <title>Icon/Flash/Outline</title>
    <defs>
        <path d="M5,0 L59,0 C61.7614237,-8.8817842e-16 64,2.23857625 64,5 L64,203 C64,205.761424 61.7614237,208 59,208 L5,208 C2.23857625,208 0,205.761424 0,203 L0,5 C0,2.23857625 2.23857625,0 5,0 Z" id="path-1"></path>
        <path d="M0,0 L24,0 L24,24 L0,24 L0,0 Z" id="path-2"></path>
    </defs>
    <g id="Icons" stroke="none" stroke-width="1" fill="none" fill-rule="evenodd">
        <g id="Weather" transform="translate(-376, -434)" fill-rule="nonzero">
            <g id="flash" transform="translate(356, 414)" xlink:href="#path-1">
                <g id="Icon/Flash/Outline" transform="translate(20, 20)" xlink:href="#path-2">
                    <use fill="#FFFFFF" fill-rule="evenodd" xlink:href="#path-2"></use>
                    <path d="M13.5699687,22.3800011 C13.3399687,22.3800011 13.109976,22.3400021 12.889976,22.2600021 C12.139976,21.9800021 11.659965,21.2800015 11.659965,20.4800014 L11.659965,14.0300026 L9.31996858,14.0300026 C8.55996859,14.0300026 7.89995763,13.6000027 7.58995762,12.9100027 C7.27995762,12.2200027 7.39995518,11.4400027 7.89995518,10.8700027 L15.4699621,2.27000272 C15.9999621,1.6700027 16.8199682,1.46000275 17.5699682,1.75000274 C18.3199682,2.03000274 18.7999487,2.7300027 18.7999487,3.53000271 L18.7999487,9.9800024 L21.1399755,9.9800024 C21.8999755,9.9800024 22.559956,10.4100032 22.869956,11.1000032 C23.179956,11.7900032 23.0599585,12.5700032 22.5599585,13.1400032 L14.9899516,21.7400017 C14.6199516,22.1600017 14.0999687,22.3800011 13.5699687,22.3800011 Z M16.8799658,3.12000263 C16.7899658,3.12000263 16.6799572,3.15000273 16.5899572,3.26000273 L9.01995027,11.8700027 C8.85995027,12.0500028 8.91997346,12.2300031 8.94997346,12.3000031 C8.97997346,12.3700031 9.07996859,12.5400028 9.31996858,12.5400028 L12.409965,12.5400028 C12.819965,12.5400028 13.159965,12.8800028 13.159965,13.2900028 L13.159965,20.4900017 C13.159965,20.7400017 13.3399748,20.8400027 13.4199748,20.8700027 C13.4999748,20.9000027 13.6999467,20.9500021 13.8599467,20.7600021 L21.4299536,12.1500025 C21.5899536,11.9700025 21.5299609,11.7900031 21.4999609,11.7200031 C21.4699609,11.6500031 21.3699658,11.4800024 21.1299658,11.4800024 L18.0399694,11.4800024 C17.6299694,11.4800024 17.2899694,11.1400024 17.2899694,10.7300024 L17.2899694,3.53000271 C17.2899694,3.28000271 17.1099597,3.18000284 17.0299597,3.15000284 C16.9999597,3.13000284 16.9399658,3.12000263 16.8799658,3.12000263 Z" id="Vector" fill="CURRENTCOLOR" fill-rule="nonzero"></path>
                    <path d="M8.5,4.75 L1.5,4.75 C1.09,4.75 0.75,4.41 0.75,4 C0.75,3.59 1.09,3.25 1.5,3.25 L8.5,3.25 C8.91,3.25 9.25,3.59 9.25,4 C9.25,4.41 8.91,4.75 8.5,4.75 Z" id="Vector" fill="CURRENTCOLOR" fill-rule="nonzero"></path>
                    <path d="M7.5,20.75 L1.5,20.75 C1.09,20.75 0.75,20.41 0.75,20 C0.75,19.59 1.09,19.25 1.5,19.25 L7.5,19.25 C7.91,19.25 8.25,19.59 8.25,20 C8.25,20.41 7.91,20.75 7.5,20.75 Z" id="Vector" fill="CURRENTCOLOR" fill-rule="nonzero"></path>
                    <path d="M4.5,12.75 L1.5,12.75 C1.09,12.75 0.75,12.41 0.75,12 C0.75,11.59 1.09,11.25 1.5,11.25 L4.5,11.25 C4.91,11.25 5.25,11.59 5.25,12 C5.25,12.41 4.91,12.75 4.5,12.75 Z" id="Vector" fill="CURRENTCOLOR" fill-rule="nonzero"></path>
                </g>
            </g>
        </g>
    </g>
</svg>