<?xml version="1.0" encoding="UTF-8"?>
<svg width="24px" height="24px" viewBox="0 0 24 24" version="1.1" xmlns="http://www.w3.org/2000/svg" xmlns:xlink="http://www.w3.org/1999/xlink">
    <title>Icon/Notification-favorite/Bulk</title>
    <defs>
        <path d="M5,0 L59,0 C61.7614237,-8.8817842e-16 64,2.23857625 64,5 L64,203 C64,205.761424 61.7614237,208 59,208 L5,208 C2.23857625,208 0,205.761424 0,203 L0,5 C0,2.23857625 2.23857625,0 5,0 Z" id="path-1"></path>
        <path d="M0,0 L24,0 L24,24 L0,24 L0,0 Z" id="path-2"></path>
    </defs>
    <g id="Icons" stroke="none" stroke-width="1" fill="none" fill-rule="evenodd">
        <g id="Basic-System-feedback" transform="translate(-792, -330)" fill="CURRENTCOLOR" fill-rule="nonzero">
            <g id="Notification-favorite" transform="translate(772, 166)" xlink:href="#path-1">
                <g id="Icon/Notification-favorite/Bulk" transform="translate(20, 164)" xlink:href="#path-2">
                    <path d="M22,5 C22,6.65685427 20.6568543,8 19,8 C17.3431457,8 16,6.65685427 16,5 C16,3.34314573 17.3431457,2 19,2 C20.6568543,2 22,3.34314573 22,5 Z" id="Vector"></path>
                    <path d="M19,9.5 C16.52,9.5 14.5,7.48000002 14.5,5 C14.5,4.27999997 14.6899998,3.61000001 14.9899998,3 L7.51999998,3 C4.06999993,3 2,5.06000042 2,8.52000046 L2,16.4699993 C2,19.9399993 4.06999993,22 7.51999998,22 L15.4700003,22 C18.9300003,22 20.9899998,19.9399996 20.9899998,16.4799995 L20.9899998,9.01000023 C20.3899997,9.31000024 19.72,9.5 19,9.5 Z" id="Vector" opacity="0.400000006"></path>
                    <path d="M10.8999996,12.3599992 C10.3299996,12.1799992 9.71999973,12.2799994 9.28999972,12.6199994 C8.84999973,12.2799994 8.24999982,12.1799992 7.68999982,12.3599992 C6.4599998,12.7599992 6.06999987,14.1599993 6.41999987,15.2399993 C6.94999984,16.8799993 8.67999995,17.7299991 9.29999995,17.7299991 C9.90999997,17.7299991 11.6700003,16.8599993 12.1800003,15.2399993 C12.5300003,14.1599993 12.1299996,12.7599992 10.8999996,12.3599992 Z" id="Vector"></path>
                </g>
            </g>
        </g>
    </g>
</svg>