<?xml version="1.0" encoding="UTF-8"?>
<svg width="24px" height="24px" viewBox="0 0 24 24" version="1.1" xmlns="http://www.w3.org/2000/svg" xmlns:xlink="http://www.w3.org/1999/xlink">
    <title>Icon/Notification-favorite/Linear</title>
    <defs>
        <path d="M5,0 L59,0 C61.7614237,-8.8817842e-16 64,2.23857625 64,5 L64,203 C64,205.761424 61.7614237,208 59,208 L5,208 C2.23857625,208 0,205.761424 0,203 L0,5 C0,2.23857625 2.23857625,0 5,0 Z" id="path-1"></path>
        <path d="M0,0 L24,0 L24,24 L0,24 L0,0 Z" id="path-2"></path>
    </defs>
    <g id="Icons" stroke="none" stroke-width="1" fill="none" fill-rule="evenodd" stroke-linecap="round" stroke-linejoin="round">
        <g id="Basic-System-feedback" transform="translate(-792, -234)" fill-rule="nonzero" stroke="CURRENTCOLOR" stroke-width="1.5">
            <g id="Notification-favorite" transform="translate(772, 166)" xlink:href="#path-1">
                <g id="Icon/Notification-favorite/Linear" transform="translate(20, 68)" xlink:href="#path-2">
                    <path d="M22,5 C22,6.65685427 20.6568543,8 19,8 C17.3431457,8 16,6.65685427 16,5 C16,3.34314573 17.3431457,2 19,2 C20.6568543,2 22,3.34314573 22,5 Z" id="Vector"></path>
                    <path d="M14,2 L9,2 C2,2 2,2 2,9 L2,15 C2,20 2,22 9,22 L15,22 C20,22 22,20 22,15 L22,10" id="Vector"></path>
                    <path d="M6.80999971,14.9300003 C6.45999972,13.8300003 6.86999953,12.4600002 8.02999949,12.0900002 C8.63999951,11.8900002 9.38999945,12.0599997 9.81999946,12.6499997 C10.2199995,12.0399997 11.0000004,11.9000002 11.6000004,12.0900002 C12.7600003,12.4600002 13.1699997,13.8300003 12.8199997,14.9300003 C12.2699997,16.6800003 10.3499994,17.5900002 9.81999946,17.5900002 C9.27999943,17.5800002 7.3799997,16.6900003 6.80999971,14.9300003 Z" id="Vector"></path>
                </g>
            </g>
        </g>
    </g>
</svg>