<?xml version="1.0" encoding="UTF-8"?>
<svg width="24px" height="24px" viewBox="0 0 24 24" version="1.1" xmlns="http://www.w3.org/2000/svg" xmlns:xlink="http://www.w3.org/1999/xlink">
    <title>Icon/Notification-favorite/Outline</title>
    <defs>
        <path d="M5,0 L59,0 C61.7614237,-8.8817842e-16 64,2.23857625 64,5 L64,203 C64,205.761424 61.7614237,208 59,208 L5,208 C2.23857625,208 0,205.761424 0,203 L0,5 C0,2.23857625 2.23857625,0 5,0 Z" id="path-1"></path>
        <path d="M0,0 L24,0 L24,24 L0,24 L0,0 Z" id="path-2"></path>
    </defs>
    <g id="Icons" stroke="none" stroke-width="1" fill="none" fill-rule="evenodd">
        <g id="Basic-System-feedback" transform="translate(-792, -186)" fill="CURRENTCOLOR" fill-rule="nonzero">
            <g id="Notification-favorite" transform="translate(772, 166)" xlink:href="#path-1">
                <g id="Icon/Notification-favorite/Outline" transform="translate(20, 20)" xlink:href="#path-2">
                    <path d="M21.25,5 C21.25,3.75735927 20.2426407,2.75 19,2.75 C17.7573593,2.75 16.75,3.75735927 16.75,5 C16.75,6.24264073 17.7573593,7.25 19,7.25 C20.2426407,7.25 21.25,6.24264073 21.25,5 Z M22.75,5 C22.75,7.07106781 21.0710678,8.75 19,8.75 C16.9289322,8.75 15.25,7.07106781 15.25,5 C15.25,2.92893219 16.9289322,1.25 19,1.25 C21.0710678,1.25 22.75,2.92893219 22.75,5 Z" id="Vector-(Stroke)"></path>
                    <path d="M1.25,15 L1.25,9 C1.25,6.42602777 1.76025784,4.42919528 3.09472656,3.09472656 C4.42919528,1.76025784 6.42602777,1.25 9,1.25 L14,1.25 C14.4142136,1.25 14.75,1.58578643 14.75,2 C14.75,2.41421357 14.4142136,2.75 14,2.75 L9,2.75 C6.57397223,2.75 5.07080472,3.23974216 4.15527344,4.15527344 C3.23974216,5.07080472 2.75,6.57397223 2.75,9 L2.75,15 C2.75,17.4260278 3.23974216,18.9291953 4.15527344,19.8447266 C5.07080472,20.7602578 6.57397223,21.25 9,21.25 L15,21.25 C17.4260278,21.25 18.9291953,20.7602578 19.8447266,19.8447266 C20.7602578,18.9291953 21.25,17.4260278 21.25,15 L21.25,10 C21.25,9.58578643 21.5857864,9.25 22,9.25 C22.4142136,9.25 22.75,9.58578643 22.75,10 L22.75,15 C22.75,17.5739722 22.2397422,19.5708047 20.9052734,20.9052734 C19.5708047,22.2397422 17.5739722,22.75 15,22.75 L9,22.75 C6.42602777,22.75 4.42919528,22.2397422 3.09472656,20.9052734 C1.76025784,19.5708047 1.25,17.5739722 1.25,15 Z" id="Vector-(Stroke)"></path>
                    <path d="M7.80227041,11.3760908 C8.44055831,11.1686918 9.19408107,11.2380275 9.80617666,11.6280439 C10.4345705,11.2193643 11.222878,11.1839088 11.8266845,11.3751142 L11.827661,11.3751142 C13.517409,11.9140856 13.9597736,13.8115786 13.5346923,15.1534345 L13.5356688,15.1544111 C13.1973366,16.2309228 12.4510555,17.0173146 11.7534423,17.5235519 C11.4010592,17.7792445 11.0448358,17.9746952 10.7300048,18.1094894 C10.4413849,18.2330612 10.1080105,18.3399582 9.81984854,18.3399582 L9.80617666,18.3399582 C9.5254634,18.3347598 9.19879207,18.2318472 8.90773916,18.1075363 C8.59363031,17.9733448 8.23916355,17.7779986 7.88723135,17.5235519 C7.18948352,17.0190703 6.44500443,16.238142 6.09621578,15.161247 L6.09523922,15.1573408 C5.66826063,13.8152847 6.11104059,11.9145582 7.80227041,11.3751142 L7.80227041,11.3760908 Z M9.21437979,13.0919111 C8.9988924,12.7962424 8.60284859,12.691491 8.26320791,12.8028486 L8.2583251,12.8048017 C7.6303637,13.0050997 7.2529116,13.8424997 7.5239501,14.699333 L7.61867666,14.9483564 C7.8681336,15.5152693 8.30258867,15.9735557 8.7661376,16.3087082 C9.02772787,16.4977932 9.28493488,16.6372086 9.49660635,16.7276535 C9.68475121,16.8080315 9.79496031,16.8318575 9.82570791,16.8380051 C9.85518123,16.8315326 9.95961209,16.8078847 10.140161,16.7305832 C10.3513612,16.6401156 10.6093497,16.4999216 10.8716063,16.3096848 C11.4038901,15.9234545 11.8923574,15.3784977 12.1040282,14.7051923 L12.1050048,14.7022626 C12.3778529,13.8443981 12.0002915,13.0053306 11.3716063,12.8048017 L11.3716063,12.8038251 C10.99872,12.6866663 10.6131912,12.8078936 10.4468017,13.0616376 C10.3117468,13.267287 10.0843816,13.3934507 9.83840322,13.3995283 C9.59243654,13.4055678 9.3593993,13.2906545 9.21437979,13.0919111 Z" id="Vector-(Stroke)"></path>
                </g>
            </g>
        </g>
    </g>
</svg>