<?xml version="1.0" encoding="UTF-8"?>
<svg width="24px" height="24px" viewBox="0 0 24 24" version="1.1" xmlns="http://www.w3.org/2000/svg" xmlns:xlink="http://www.w3.org/1999/xlink">
    <title>Icon/Shop-add/Bulk</title>
    <defs>
        <path d="M5,0 L59,0 C61.7614237,-8.8817842e-16 64,2.23857625 64,5 L64,203 C64,205.761424 61.7614237,208 59,208 L5,208 C2.23857625,208 0,205.761424 0,203 L0,5 C0,2.23857625 2.23857625,0 5,0 Z" id="path-1"></path>
        <path d="M0,0 L24,0 L24,24 L0,24 L0,0 Z" id="path-2"></path>
    </defs>
    <g id="Icons" stroke="none" stroke-width="1" fill="none" fill-rule="evenodd">
        <g id="Shop" transform="translate(-376, -577)" fill-rule="nonzero">
            <g id="shop-add" transform="translate(356, 413)" xlink:href="#path-1">
                <g id="Icon/Shop-add/Bulk" transform="translate(20, 164)" xlink:href="#path-2">
                    <polygon id="Vector" opacity="0" points="0 0 24 0 24 24 0 24"></polygon>
                    <path d="M21.0499878,11.710022 L21.0499878,17.7000122 C21.0499878,20.4600122 18.8099976,22.7000122 16.0499878,22.7000122 L7.30999756,22.7000122 C7.07999755,22.7000122 6.85000488,22.6800244 6.63000488,22.6500244 C7.00000489,22.4900244 7.33000487,22.27 7.63000488,22 C7.67000488,21.97 7.69998047,21.9400244 7.72998047,21.9000244 C7.99998048,21.6700244 8.22998291,21.3799976 8.41998291,21.0599976 C8.78998291,20.4599975 9,19.75 9,19 C9,17.95 8.5899927,17.0000293 7.92999268,16.2800293 C7.82999267,16.1700293 7.71997558,16.0599707 7.59997559,15.9699707 C6.8999756,15.3599707 6,15 5,15 C4.29000002,15 3.61997801,15.1900195 3.03997803,15.5200195 C2.84997803,15.6200195 2.67,15.7400049 2.5,15.8800049 C2.43,15.9300049 2.36999756,15.9899878 2.30999756,16.0499878 L2.30999756,11.7800293 C3.06999755,12.6000293 4.15000737,13.0700073 5.32000732,13.0700073 C6.58000731,13.0700073 7.7899878,12.4399927 8.54998779,11.4299927 C9.2299878,12.4399927 10.3899927,13.0700073 11.6799927,13.0700073 C12.9599926,13.0700073 14.099978,12.4699707 14.789978,11.4699707 C15.559978,12.4599707 16.7499902,13.0700073 17.9899902,13.0700073 C19.1999903,13.0700073 20.2999878,12.580022 21.0499878,11.710022 Z" id="Vector" fill="CURRENTCOLOR" opacity="0.400000006"></path>
                    <path d="M14.6699586,1.57000732 L8.66995871,1.57000732 L7.92996846,8.92999268 C7.86996846,9.60999268 7.96994647,10.2500171 8.21994647,10.8300171 C8.79994646,12.1900171 10.1599684,13.0700073 11.6799684,13.0700073 C13.2199683,13.0700073 14.5500001,12.2100269 15.1500001,10.8400269 C15.3300001,10.4100268 15.4399879,9.9100244 15.4499879,9.40002441 L15.4499879,9.21002197 L14.6699586,1.57000732 Z" id="Vector" fill="CURRENTCOLOR"></path>
                    <path d="M22.039978,8.59002686 L21.7600098,5.80999756 C21.3400098,2.78999758 19.9699781,1.55999756 17.039978,1.55999756 L13.2000122,1.55999756 L13.9400024,9.05999756 C13.9500024,9.15999756 13.960022,9.27002198 13.960022,9.46002197 C14.020022,9.98002195 14.1799829,10.4600146 14.4199829,10.8900146 C15.1399829,12.2100147 16.54,13.0599976 18,13.0599976 C19.33,13.0599976 20.5300293,12.4699926 21.2800293,11.4299927 C21.8700293,10.6399927 22.139978,9.63002682 22.039978,8.59002686 Z" id="Vector" fill="CURRENTCOLOR" opacity="0.600000024"></path>
                    <path d="M6.27000856,1.57000732 C3.33000851,1.57000732 1.96996701,2.79997563 1.539967,5.84997559 L1.2700085,8.59997559 C1.1700085,9.66997564 1.46001583,10.7100195 2.09001583,11.5200195 C2.85001582,12.5100195 4.0199964,13.0700073 5.31999636,13.0700073 C6.7799964,13.0700073 8.1800037,12.2199829 8.89000368,10.9199829 C9.15000367,10.4699829 9.31998367,9.94997317 9.36998367,9.40997314 L10.150013,1.58001709 L6.27000856,1.58001709 L6.27000856,1.57000732 Z" id="Vector" fill="CURRENTCOLOR" opacity="0.600000024"></path>
                    <path d="M7.92999268,16.2800293 C7.82999267,16.1700293 7.71997558,16.0599707 7.59997559,15.9699707 C6.8999756,15.3599707 6,15 5,15 C4.29000002,15 3.61997801,15.1900195 3.03997803,15.5200195 C2.84997803,15.6200195 2.67,15.7400049 2.5,15.8800049 C1.57999998,16.6100049 1,17.74 1,19 C1,19.75 1.21001709,20.4599975 1.58001709,21.0599976 C1.67001709,21.2199976 1.78002442,21.3700098 1.90002441,21.5100098 C1.92002441,21.5400098 1.9499707,21.5600269 1.9699707,21.5900269 C2.68997073,22.4500269 3.77999997,23 5,23 C6.00999999,23 6.93000489,22.63 7.63000488,22 C7.67000488,21.97 7.69998047,21.9400244 7.72998047,21.9000244 C7.99998048,21.6700244 8.22998291,21.3799976 8.41998291,21.0599976 C8.78998291,20.4599975 9,19.75 9,19 C9,17.95 8.5899927,17.0000293 7.92999268,16.2800293 Z M6.5,19.7299805 L5.75,19.7299805 L5.75,20.5100098 C5.75,20.9200098 5.41,21.2600098 5,21.2600098 C4.59,21.2600098 4.25,20.9200098 4.25,20.5100098 L4.25,19.7299805 L3.5,19.7299805 C3.09,19.7299805 2.75,19.3899805 2.75,18.9799805 C2.75,18.5699805 3.09,18.2299805 3.5,18.2299805 L4.25,18.2299805 L4.25,17.5200195 C4.25,17.1100195 4.59,16.7700195 5,16.7700195 C5.41,16.7700195 5.75,17.1100195 5.75,17.5200195 L5.75,18.2299805 L6.5,18.2299805 C6.91,18.2299805 7.25,18.5699805 7.25,18.9799805 C7.25,19.3899805 6.91,19.7299805 6.5,19.7299805 Z" id="Vector" fill="CURRENTCOLOR"></path>
                </g>
            </g>
        </g>
    </g>
</svg>