<?xml version="1.0" encoding="UTF-8"?>
<svg width="24px" height="24px" viewBox="0 0 24 24" version="1.1" xmlns="http://www.w3.org/2000/svg" xmlns:xlink="http://www.w3.org/1999/xlink">
    <title>Icon/Mnue-square/Outline</title>
    <defs>
        <path d="M5,0 L59,0 C61.7614237,-8.8817842e-16 64,2.23857625 64,5 L64,203 C64,205.761424 61.7614237,208 59,208 L5,208 C2.23857625,208 0,205.761424 0,203 L0,5 C0,2.23857625 2.23857625,0 5,0 Z" id="path-1"></path>
        <path d="M0,0 L24,0 L24,24 L0,24 L0,0 Z" id="path-2"></path>
    </defs>
    <g id="Icons" stroke="none" stroke-width="1" fill="none" fill-rule="evenodd">
        <g id="Basic-Navigation" transform="translate(-168, -434)" fill="CURRENTCOLOR" fill-rule="nonzero">
            <g id="More-square" transform="translate(148, 414)" xlink:href="#path-1">
                <g id="Icon/Mnue-square/Outline" transform="translate(20, 20)" xlink:href="#path-2">
                    <path d="M21.25,9 C21.25,6.57397223 20.7602578,5.07080472 19.8447266,4.15527344 C18.9291953,3.23974216 17.4260278,2.75 15,2.75 L9,2.75 C6.57397223,2.75 5.07080472,3.23974216 4.15527344,4.15527344 C3.23974216,5.07080472 2.75,6.57397223 2.75,9 L2.75,15 C2.75,17.4260278 3.23974216,18.9291953 4.15527344,19.8447266 C5.07080472,20.7602578 6.57397223,21.25 9,21.25 L15,21.25 C17.4260278,21.25 18.9291953,20.7602578 19.8447266,19.8447266 C20.7602578,18.9291953 21.25,17.4260278 21.25,15 L21.25,9 Z M22.75,15 C22.75,17.5739722 22.2397422,19.5708047 20.9052734,20.9052734 C19.5708047,22.2397422 17.5739722,22.75 15,22.75 L9,22.75 C6.42602777,22.75 4.42919528,22.2397422 3.09472656,20.9052734 C1.76025784,19.5708047 1.25,17.5739722 1.25,15 L1.25,9 C1.25,6.42602777 1.76025784,4.42919528 3.09472656,3.09472656 C4.42919528,1.76025784 6.42602777,1.25 9,1.25 L15,1.25 C17.5739722,1.25 19.5708047,1.76025784 20.9052734,3.09472656 C22.2397422,4.42919528 22.75,6.42602777 22.75,9 L22.75,15 Z" id="Vector-(Stroke)"></path>
                    <path d="M16.0058594,11.25 L16.0820312,11.2539062 C16.4602664,11.2922723 16.7558594,11.611644 16.7558594,12 C16.7558594,12.4140746 16.4198813,12.7497747 16.0058594,12.75 L15.9960938,12.75 C15.5820487,12.7498019 15.2460938,12.4140913 15.2460938,12 C15.2460938,11.5859087 15.5820487,11.2501981 15.9960938,11.25 L16.0058594,11.25 Z" id="Vector-(Stroke)"></path>
                    <path d="M12.0048828,11.25 L12.0810547,11.2539062 C12.4592899,11.2922723 12.7548828,11.611644 12.7548828,12 C12.7548828,12.4140746 12.4189047,12.7497747 12.0048828,12.75 L11.9951172,12.75 C11.5810722,12.7498019 11.2451172,12.4140913 11.2451172,12 C11.2451172,11.5859087 11.5810722,11.2501981 11.9951172,11.25 L12.0048828,11.25 Z" id="Vector-(Stroke)"></path>
                    <path d="M8.00390625,11.25 L8.08007812,11.2539062 C8.45831332,11.2922723 8.75390625,11.611644 8.75390625,12 C8.75390625,12.4140746 8.41792816,12.7497747 8.00390625,12.75 L7.99414062,12.75 C7.58009559,12.7498019 7.24414062,12.4140913 7.24414062,12 C7.24414062,11.5859087 7.58009559,11.2501981 7.99414062,11.25 L8.00390625,11.25 Z" id="Vector-(Stroke)"></path>
                </g>
            </g>
        </g>
    </g>
</svg>