<?xml version="1.0" encoding="UTF-8"?>
<svg width="24px" height="24px" viewBox="0 0 24 24" version="1.1" xmlns="http://www.w3.org/2000/svg" xmlns:xlink="http://www.w3.org/1999/xlink">
    <title>Icon/Mnue-square/Bold</title>
    <defs>
        <path d="M5,0 L59,0 C61.7614237,-8.8817842e-16 64,2.23857625 64,5 L64,203 C64,205.761424 61.7614237,208 59,208 L5,208 C2.23857625,208 0,205.761424 0,203 L0,5 C0,2.23857625 2.23857625,0 5,0 Z" id="path-1"></path>
        <path d="M0,0 L24,0 L24,24 L0,24 L0,0 Z" id="path-2"></path>
    </defs>
    <g id="Icons" stroke="none" stroke-width="1" fill="none" fill-rule="evenodd">
        <g id="Basic-Navigation" transform="translate(-168, -530)" fill="CURRENTCOLOR" fill-rule="nonzero">
            <g id="More-square" transform="translate(148, 414)" xlink:href="#path-1">
                <g id="Icon/Mnue-square/Bold" transform="translate(20, 116)" xlink:href="#path-2">
                    <path d="M16.1900005,2 L7.80999994,2 C4.16999984,2 2,4.16999984 2,7.80999994 L2,16.1800003 C2,19.8300004 4.16999984,22 7.80999994,22 L16.1800003,22 C19.8200004,22 21.9900341,19.8300006 21.9900341,16.1900005 L21.9900341,7.80999994 C22,4.16999984 19.8300006,2 16.1900005,2 Z M8,13 C7.44,13 7,12.55 7,12 C7,11.45 7.44999999,11 8,11 C8.55000001,11 9,11.45 9,12 C9,12.55 8.56,13 8,13 Z M12,13 C11.44,13 11,12.55 11,12 C11,11.45 11.45,11 12,11 C12.55,11 13,11.45 13,12 C13,12.55 12.56,13 12,13 Z M16,13 C15.44,13 15,12.55 15,12 C15,11.45 15.45,11 16,11 C16.55,11 17,11.45 17,12 C17,12.55 16.56,13 16,13 Z" id="Vector"></path>
                </g>
            </g>
        </g>
    </g>
</svg>