<?xml version="1.0" encoding="UTF-8"?>
<svg width="24px" height="24px" viewBox="0 0 24 24" version="1.1" xmlns="http://www.w3.org/2000/svg" xmlns:xlink="http://www.w3.org/1999/xlink">
    <title>Icon/Mnue-square/Linear</title>
    <defs>
        <path d="M5,0 L59,0 C61.7614237,-8.8817842e-16 64,2.23857625 64,5 L64,203 C64,205.761424 61.7614237,208 59,208 L5,208 C2.23857625,208 0,205.761424 0,203 L0,5 C0,2.23857625 2.23857625,0 5,0 Z" id="path-1"></path>
        <path d="M0,0 L24,0 L24,24 L0,24 L0,0 Z" id="path-2"></path>
    </defs>
    <g id="Icons" stroke="none" stroke-width="1" fill="none" fill-rule="evenodd" stroke-linecap="round" stroke-linejoin="round">
        <g id="Basic-Navigation" transform="translate(-168, -482)" fill-rule="nonzero" stroke="CURRENTCOLOR" stroke-width="1.5">
            <g id="More-square" transform="translate(148, 414)" xlink:href="#path-1">
                <g id="Icon/Mnue-square/Linear" transform="translate(20, 68)" xlink:href="#path-2">
                    <path d="M9,22 L15,22 C20,22 22,20 22,15 L22,9 C22,2 20,2 15,2 L9,2 C2,2 2,2 2,9 L2,15 C2,20 2,22 9,22 Z" id="Vector"></path>
                    <line x1="15.9964605" y1="12" x2="16.0054424" y2="12" id="Vector"></line>
                    <line x1="11.9954839" y1="12" x2="12.0044658" y2="12" id="Vector"></line>
                    <line x1="7.99450733" y1="12" x2="8.00348927" y2="12" id="Vector"></line>
                </g>
            </g>
        </g>
    </g>
</svg>