<?xml version="1.0" encoding="UTF-8"?>
<svg width="24px" height="24px" viewBox="0 0 24 24" version="1.1" xmlns="http://www.w3.org/2000/svg" xmlns:xlink="http://www.w3.org/1999/xlink">
    <title>Icon/Notification-Bell/Outline</title>
    <defs>
        <path d="M5,0 L59,0 C61.7614237,-8.8817842e-16 64,2.23857625 64,5 L64,203 C64,205.761424 61.7614237,208 59,208 L5,208 C2.23857625,208 0,205.761424 0,203 L0,5 C0,2.23857625 2.23857625,0 5,0 Z" id="path-1"></path>
        <path d="M0,0 L24,0 L24,24 L0,24 L0,0 Z" id="path-2"></path>
    </defs>
    <g id="Icons" stroke="none" stroke-width="1" fill="none" fill-rule="evenodd">
        <g id="Basic-System-feedback" transform="translate(-272, -186)" fill="CURRENTCOLOR" fill-rule="nonzero">
            <g id="Notification-Bell" transform="translate(252, 166)" xlink:href="#path-1">
                <g id="Icon/Notification-Bell/Outline" transform="translate(20, 20)" xlink:href="#path-2">
                    <path d="M14.2978511,19.7363281 C14.4433836,19.3487634 14.8759556,19.1525455 15.2636714,19.2978516 C15.6512365,19.4433839 15.8474541,19.8759559 15.702148,20.2636719 C15.1513616,21.7327141 13.6853011,22.75 11.9999995,22.75 C10.3146973,22.75 8.8486377,21.7327139 8.29785156,20.2636719 C8.15254554,19.8759562 8.34876359,19.4433842 8.73632812,19.2978516 C9.12404382,19.1525455 9.55661578,19.3487636 9.70214844,19.7363281 C10.0248651,20.5974232 10.9154178,21.25 11.9999995,21.25 C13.0845813,21.25 13.9751346,20.597423 14.2978511,19.7363281 Z M11.9999995,1.25 C12.917087,1.25 13.7392809,1.65995258 14.2919917,2.30371094 C14.5616667,2.61795214 14.5260537,3.0915266 14.2119136,3.36132813 C13.8976407,3.63115299 13.4241213,3.59454629 13.1542964,3.28027344 C12.874398,2.95426774 12.4613109,2.75 11.9999995,2.75 C11.1606948,2.75 10.480693,3.43027925 10.4804687,4.26953125 L10.4804687,4.37402344 C10.4803155,4.69445702 10.275838,4.97920208 9.97265625,5.08300781 C8.0557344,5.73942828 6.70895331,7.27097881 6.50585937,9.05957031 L6.05859375,13 C5.96035766,13.8652626 5.59583527,14.6802258 5.01855469,15.3583984 C4.68707711,15.74799 4.68434004,16.1851284 4.890625,16.5488281 C5.10447447,16.9256643 5.56770039,17.249948 6.22265625,17.25 L17.7773433,17.25 C18.4322992,17.2499481 18.8955247,16.9256647 19.1093745,16.5488281 C19.3156602,16.185128 19.3129233,15.7479902 18.9814448,15.3583984 C18.4041651,14.6802264 18.0396418,13.8652633 17.9414058,13 C17.8946937,12.5884288 18.1909674,12.216634 18.6025386,12.1699219 C19.0139491,12.1234488 19.3849433,12.419618 19.4316401,12.8310547 C19.4945551,13.3847638 19.7292703,13.9230415 20.1230464,14.3857422 C20.8882145,15.2846394 20.9120645,16.4111876 20.414062,17.2890625 C19.9232741,18.1539069 18.9506135,18.7499468 17.7773433,18.75 L6.22265625,18.75 C5.04938602,18.7499466 4.07672504,18.153907 3.58593747,17.2890625 C3.08793551,16.4111875 3.11178565,15.2846391 3.87695312,14.3857422 C4.27072939,13.9230419 4.50544418,13.3847647 4.56835937,12.8310547 L5.015625,8.890625 C5.2757903,6.59845185 6.87741876,4.74494481 9.00976562,3.84667969 C9.21560335,2.37921882 10.4757953,1.25 11.9999995,1.25 Z M20.2499995,7 C20.2499995,5.75735927 19.2426403,4.75 17.9999995,4.75 C16.7573588,4.75 15.7499995,5.75735927 15.7499995,7 C15.7499995,8.24264073 16.7573588,9.25 17.9999995,9.25 C19.2426403,9.25 20.2499995,8.24264073 20.2499995,7 Z M21.7499995,7 C21.7499995,9.07106781 20.0710673,10.75 17.9999995,10.75 C15.9289317,10.75 14.2499995,9.07106781 14.2499995,7 C14.2499995,4.92893219 15.9289317,3.25 17.9999995,3.25 C20.0710673,3.25 21.7499995,4.92893219 21.7499995,7 Z" id="Vector-(Stroke)"></path>
                </g>
            </g>
        </g>
    </g>
</svg>