<?xml version="1.0" encoding="UTF-8"?>
<svg width="24px" height="24px" viewBox="0 0 24 24" version="1.1" xmlns="http://www.w3.org/2000/svg" xmlns:xlink="http://www.w3.org/1999/xlink">
    <title>Icon/Notification-Bell/Bold</title>
    <defs>
        <path d="M5,0 L59,0 C61.7614237,-8.8817842e-16 64,2.23857625 64,5 L64,203 C64,205.761424 61.7614237,208 59,208 L5,208 C2.23857625,208 0,205.761424 0,203 L0,5 C0,2.23857625 2.23857625,0 5,0 Z" id="path-1"></path>
        <path d="M0,0 L24,0 L24,24 L0,24 L0,0 Z" id="path-2"></path>
    </defs>
    <g id="Icons" stroke="none" stroke-width="1" fill="none" fill-rule="evenodd">
        <g id="Basic-System-feedback" transform="translate(-272, -282)" fill="CURRENTCOLOR" fill-rule="nonzero">
            <g id="Notification-Bell" transform="translate(252, 166)" xlink:href="#path-1">
                <g id="Icon/Notification-Bell/Bold" transform="translate(20, 116)" xlink:href="#path-2">
                    <path d="M11.9999997,2.00024414 C13.2536571,2.00024414 14.2699468,3.01653349 14.2699468,4.27019024 L14.2699468,4.3739059 C14.2900998,4.38080621 14.3102042,4.38779593 14.3302591,4.39487433 C13.8073985,5.1300683 13.4999387,6.02912951 13.4999387,7 C13.4999387,9.48528147 15.5146577,11.5 17.9999387,11.5 C18.1767461,11.5 18.3511712,11.4898033 18.522659,11.4699659 L18.6867234,12.9155016 C18.7672641,13.6251297 19.0665605,14.3018322 19.5522153,14.872366 C20.649244,16.1611233 19.6055658,18.0002441 17.7771861,18.0002441 L6.22281382,18.0002441 C4.39443371,18.0002441 3.35075725,16.1611233 4.44778538,14.872366 C4.93344054,14.3018322 5.23273597,13.6251297 5.31327674,12.9155016 L5.76046417,8.97543097 C6.00159523,6.85087776 7.58765743,5.10743618 9.73005411,4.37390566 L9.73005411,4.27019024 C9.73005411,3.01653349 10.7463438,2.00024414 11.9999997,2.00024414 Z M17.9999998,4 C19.6568539,4 20.9999998,5.34314573 20.9999998,7 C20.9999998,8.65685415 19.6568539,10 17.9999998,10 C16.3431455,10 14.9999998,8.65685415 14.9999998,7 C14.9999998,5.34314573 16.3431455,4 17.9999998,4 Z M11.9999998,22.0002441 C13.3565195,22.0002441 14.5147183,21.1994514 14.9720948,20.0717754 C14.9911711,20.024743 14.9999998,19.9742472 14.9999998,19.9234934 C14.9999998,19.6896044 14.810396,19.5 14.5765069,19.5 L9.42349306,19.5 C9.18960415,19.5 8.99999976,19.6896044 8.99999976,19.9234934 C8.99999976,19.9742472 9.00882896,20.0247429 9.02790496,20.0717754 C9.48528145,21.1994514 10.6434807,22.0002441 11.9999998,22.0002441 Z" id="Combo-shape"></path>
                </g>
            </g>
        </g>
    </g>
</svg>