<?xml version="1.0" encoding="UTF-8"?>
<svg width="24px" height="24px" viewBox="0 0 24 24" version="1.1" xmlns="http://www.w3.org/2000/svg" xmlns:xlink="http://www.w3.org/1999/xlink">
    <title>Icon/Notification-Bell/Bulk</title>
    <defs>
        <path d="M5,0 L59,0 C61.7614237,-8.8817842e-16 64,2.23857625 64,5 L64,203 C64,205.761424 61.7614237,208 59,208 L5,208 C2.23857625,208 0,205.761424 0,203 L0,5 C0,2.23857625 2.23857625,0 5,0 Z" id="path-1"></path>
        <path d="M0,0 L24,0 L24,24 L0,24 L0,0 Z" id="path-2"></path>
    </defs>
    <g id="Icons" stroke="none" stroke-width="1" fill="none" fill-rule="evenodd">
        <g id="Basic-System-feedback" transform="translate(-272, -330)" fill="CURRENTCOLOR" fill-rule="nonzero">
            <g id="Notification-Bell" transform="translate(252, 166)" xlink:href="#path-1">
                <g id="Icon/Notification-Bell/Bulk" transform="translate(20, 164)" xlink:href="#path-2">
                    <path d="M15,19 C14.5633159,20.1651924 13.38503,21 12,21 C10.6149704,21 9.43668461,20.1651924 9,19 L15,19 Z" id="Ellipse-248"></path>
                    <path d="M12.0000002,3 C12.67118,3 13.2743233,3.29129792 13.689901,3.75436456 C13.2542907,4.39449655 13.0000002,5.16755191 13.0000002,6 C13.0000002,8.209139 14.7908612,10 17.0000002,10 C17.424223,10 17.8330214,9.93396051 18.2166758,9.81160121 L18.2395365,9.97518635 L18.6867239,13.9152575 C18.7672646,14.6248856 19.066561,15.3015881 19.5522158,15.8721218 C20.6492445,17.1608791 19.6055662,19 17.7771866,19 L6.2228143,19 C4.39443419,19 3.35075772,17.1608791 4.44778586,15.8721218 C4.93344105,15.3015881 5.23273644,14.6248856 5.31327722,13.9152575 L5.76046464,9.97518682 C6.00159571,7.85063362 7.5876579,6.10719204 9.73005459,5.37366152 L9.73005459,5.2699461 C9.73005459,4.01628935 10.7463443,3 12.0000002,3 Z" id="Subtract" opacity="0.400000006"></path>
                    <circle id="Ellipse-247" cx="17" cy="6" r="3"></circle>
                </g>
            </g>
        </g>
    </g>
</svg>