<?xml version="1.0" encoding="UTF-8"?>
<svg width="24px" height="24px" viewBox="0 0 24 24" version="1.1" xmlns="http://www.w3.org/2000/svg" xmlns:xlink="http://www.w3.org/1999/xlink">
    <title>Icon/Sort-up/Bold</title>
    <defs>
        <path d="M5,0 L59,0 C61.7614237,-8.8817842e-16 64,2.23857625 64,5 L64,203 C64,205.761424 61.7614237,208 59,208 L5,208 C2.23857625,208 0,205.761424 0,203 L0,5 C0,2.23857625 2.23857625,0 5,0 Z" id="path-1"></path>
        <path d="M0,0 L24,0 L24,24 L0,24 L0,0 Z" id="path-2"></path>
    </defs>
    <g id="Icons" stroke="none" stroke-width="1" fill="none" fill-rule="evenodd" stroke-linecap="round">
        <g id="View-Controls" transform="translate(-476, -282)" fill-rule="nonzero" stroke="CURRENTCOLOR">
            <g id="Sort-up" transform="translate(456, 166)" xlink:href="#path-1">
                <g id="Icon/Sort-up/Bold" transform="translate(20, 116)" xlink:href="#path-2">
                    <path d="M21,5 L12,5 M18,11 L12,11 M12,17 L15,17" id="Vector" stroke-width="2" fill-rule="nonzero" transform="translate(16.5, 11) scale(1, -1) translate(-16.5, -11)"></path>
                    <g id="Group-765" fill-rule="evenodd" stroke-width="1" transform="translate(5.9994, 11.0001) scale(1, -1) translate(-5.9994, -11.0001)translate(2.6494, 4.0001)" stroke-linejoin="round">
                        <line x1="3.34960938" y1="0" x2="3.34960938" y2="12.8800001" id="Vector" stroke-width="2" fill-rule="nonzero"></line>
                        <polyline id="Vector" stroke-width="2" fill-rule="nonzero" points="6.70000076 10.6499023 3.35000038 13.9999027 0 10.6499023"></polyline>
                    </g>
                </g>
            </g>
        </g>
    </g>
</svg>