<?xml version="1.0" encoding="UTF-8"?>
<svg width="24px" height="24px" viewBox="0 0 24 24" version="1.1" xmlns="http://www.w3.org/2000/svg" xmlns:xlink="http://www.w3.org/1999/xlink">
    <title>Icon/Sort-up/Outline</title>
    <defs>
        <path d="M5,0 L59,0 C61.7614237,-8.8817842e-16 64,2.23857625 64,5 L64,203 C64,205.761424 61.7614237,208 59,208 L5,208 C2.23857625,208 0,205.761424 0,203 L0,5 C0,2.23857625 2.23857625,0 5,0 Z" id="path-1"></path>
        <path d="M0,0 L24,0 L24,24 L0,24 L0,0 Z" id="path-2"></path>
    </defs>
    <g id="Icons" stroke="none" stroke-width="1" fill="none" fill-rule="evenodd">
        <g id="View-Controls" transform="translate(-476, -186)" fill="CURRENTCOLOR" fill-rule="nonzero">
            <g id="Sort-up" transform="translate(456, 166)" xlink:href="#path-1">
                <g id="Icon/Sort-up/Outline" transform="translate(20, 20)" xlink:href="#path-2">
                    <path d="M21,5.75 C21.4142136,5.75 21.75,5.41421357 21.75,5 C21.75,4.58578643 21.4142136,4.25 21,4.25 L12,4.25 C11.5857864,4.25 11.25,4.58578643 11.25,5 C11.25,5.41421357 11.5857864,5.75 12,5.75 L21,5.75 Z M18,11.75 C18.4142136,11.75 18.75,11.4142136 18.75,11 C18.75,10.5857864 18.4142136,10.25 18,10.25 L12,10.25 C11.5857864,10.25 11.25,10.5857864 11.25,11 C11.25,11.4142136 11.5857864,11.75 12,11.75 L18,11.75 Z M15,17.75 C15.4142136,17.75 15.75,17.4142136 15.75,17 C15.75,16.5857864 15.4142136,16.25 15,16.25 L12,16.25 C11.5857864,16.25 11.25,16.5857864 11.25,17 C11.25,17.4142136 11.5857864,17.75 12,17.75 L15,17.75 Z" id="Vector-(Stroke)" fill-rule="nonzero" transform="translate(16.5, 11) scale(1, -1) translate(-16.5, -11)"></path>
                    <g id="Group-763" fill-rule="evenodd" stroke-width="1" transform="translate(5.9994, 10.9998) scale(1, -1) translate(-5.9994, -10.9998)translate(1.8994, 3.2501)">
                        <path d="M3.34960938,13.6298828 L3.34960938,0.75 C3.34960938,0.335786432 3.68539581,0 4.09960938,0 C4.51382294,0 4.84960938,0.335786432 4.84960938,0.75 L4.84960938,13.6298828 C4.84960938,14.0440964 4.51382294,14.3798828 4.09960938,14.3798828 C3.68539581,14.3798828 3.34960938,14.0440964 3.34960938,13.6298828 Z" id="Vector-(Stroke)" fill-rule="nonzero"></path>
                        <path d="M6.91986513,10.8695723 C7.2127662,10.5767763 7.68755123,10.5767115 7.98041201,10.8695723 C8.27317554,11.1624409 8.27317554,11.6372505 7.98041201,11.9301192 L4.62982607,15.2797284 C4.33693284,15.5726216 3.86217242,15.5726216 3.56927919,15.2797284 L0.219669923,11.9301192 C-0.0732233077,11.6372259 -0.0732233077,11.1624655 0.219669923,10.8695723 C0.512563154,10.576679 0.987323582,10.576679 1.28021681,10.8695723 L4.09955263,13.6889081 L6.91986513,10.8695723 Z" id="Vector-(Stroke)" fill-rule="nonzero"></path>
                    </g>
                </g>
            </g>
        </g>
    </g>
</svg>