<?xml version="1.0" encoding="UTF-8"?>
<svg width="24px" height="24px" viewBox="0 0 24 24" version="1.1" xmlns="http://www.w3.org/2000/svg" xmlns:xlink="http://www.w3.org/1999/xlink">
    <title>Icon/Notification-circle/Outline</title>
    <defs>
        <path d="M5,0 L59,0 C61.7614237,-8.8817842e-16 64,2.23857625 64,5 L64,203 C64,205.761424 61.7614237,208 59,208 L5,208 C2.23857625,208 0,205.761424 0,203 L0,5 C0,2.23857625 2.23857625,0 5,0 Z" id="path-1"></path>
        <path d="M0,0 L24,0 L24,24 L0,24 L0,0 Z" id="path-2"></path>
    </defs>
    <g id="Icons" stroke="none" stroke-width="1" fill="none" fill-rule="evenodd">
        <g id="Basic-System-feedback" transform="translate(-688, -186)" fill="CURRENTCOLOR" fill-rule="nonzero">
            <g id="notification-circle" transform="translate(668, 166)" xlink:href="#path-1">
                <g id="Icon/Notification-circle/Outline" transform="translate(20, 20)" xlink:href="#path-2">
                    <path d="M21.25,5 C21.25,3.75735927 20.2426407,2.75 19,2.75 C17.7573593,2.75 16.75,3.75735927 16.75,5 C16.75,6.24264073 17.7573593,7.25 19,7.25 C20.2426407,7.25 21.25,6.24264073 21.25,5 Z M22.75,5 C22.75,7.07106781 21.0710678,8.75 19,8.75 C16.9289322,8.75 15.25,7.07106781 15.25,5 C15.25,2.92893219 16.9289322,1.25 19,1.25 C21.0710678,1.25 22.75,2.92893219 22.75,5 Z" id="Vector-(Stroke)"></path>
                    <path d="M1.25,12 C1.25,6.06578636 6.06578636,1.25 12,1.25 C12.741428,1.25 13.4600945,1.32501447 14.1650391,1.46386719 C14.5713516,1.54392152 14.8357753,1.93840858 14.7558594,2.34472656 C14.6758099,2.75113147 14.2814049,3.01559632 13.875,2.93554687 C13.2599823,2.81441426 12.638532,2.75 12,2.75 C6.89421368,2.75 2.75,6.89421368 2.75,12 C2.75,17.1057863 6.89421368,21.25 12,21.25 C17.1057863,21.25 21.25,17.1057863 21.25,12 C21.25,11.3711004 21.1856412,10.7509902 21.0654297,10.1591797 C20.9830201,9.75339097 21.2446901,9.35800988 21.6503906,9.27539063 C22.0562123,9.1929581 22.4525657,9.45460239 22.5351563,9.86035156 C22.6749447,10.548541 22.75,11.2688996 22.75,12 C22.75,17.9342136 17.9342136,22.75 12,22.75 C6.06578636,22.75 1.25,17.9342136 1.25,12 Z" id="Vector-(Stroke)"></path>
                </g>
            </g>
        </g>
    </g>
</svg>