<?xml version="1.0" encoding="UTF-8"?>
<svg width="24px" height="24px" viewBox="0 0 24 24" version="1.1" xmlns="http://www.w3.org/2000/svg" xmlns:xlink="http://www.w3.org/1999/xlink">
    <title>Icon/Notification-circle/Bold</title>
    <defs>
        <path d="M5,0 L59,0 C61.7614237,-8.8817842e-16 64,2.23857625 64,5 L64,203 C64,205.761424 61.7614237,208 59,208 L5,208 C2.23857625,208 0,205.761424 0,203 L0,5 C0,2.23857625 2.23857625,0 5,0 Z" id="path-1"></path>
        <path d="M0,0 L24,0 L24,24 L0,24 L0,0 Z" id="path-2"></path>
    </defs>
    <g id="Icons" stroke="none" stroke-width="1" fill="none" fill-rule="evenodd">
        <g id="Basic-System-feedback" transform="translate(-688, -282)" fill="CURRENTCOLOR" fill-rule="nonzero">
            <g id="notification-circle" transform="translate(668, 166)" xlink:href="#path-1">
                <g id="Icon/Notification-circle/Bold" transform="translate(20, 116)" xlink:href="#path-2">
                    <path d="M22,5 C22,6.65685427 20.6568543,8 19,8 C17.3431457,8 16,6.65685427 16,5 C16,3.34314573 17.3431457,2 19,2 C20.6568543,2 22,3.34314573 22,5 Z" id="Vector"></path>
                    <path d="M17.7900009,9.34000027 C16.2800009,8.94000027 15.0599999,7.72000015 14.6599998,6.21000016 C14.3999999,5.25000018 14.46,4.32999998 14.75,3.50999999 C14.95,2.94999999 14.6099997,2.33000005 14.0299997,2.21000005 C12.5599997,1.90000005 10.9700004,1.90999991 9.31000042,2.3599999 C5.53000045,3.41999984 2.64000001,6.68999994 2.09999999,10.58 C1.17999997,17.1999999 6.78999996,22.8099998 13.4099998,21.8999997 C17.3099999,21.3599997 20.5700018,18.4700004 21.6200018,14.6800004 C22.0800018,13.0300004 22.0900016,11.4400002 21.7800016,9.96000016 C21.6600016,9.38000017 21.0400005,9.04999989 20.4800005,9.23999989 C19.6700005,9.52999988 18.7500009,9.59000027 17.7900009,9.34000027 Z" id="Vector"></path>
                </g>
            </g>
        </g>
    </g>
</svg>