<?xml version="1.0" encoding="UTF-8"?>
<svg width="24px" height="24px" viewBox="0 0 24 24" version="1.1" xmlns="http://www.w3.org/2000/svg" xmlns:xlink="http://www.w3.org/1999/xlink">
    <title>Icon/Copy/Bulk</title>
    <defs>
        <path d="M5,0 L59,0 C61.7614237,-8.8817842e-16 64,2.23857625 64,5 L64,203 C64,205.761424 61.7614237,208 59,208 L5,208 C2.23857625,208 0,205.761424 0,203 L0,5 C0,2.23857625 2.23857625,0 5,0 Z" id="path-1"></path>
        <path d="M0,0 L24,0 L24,24 L0,24 L0,0 Z" id="path-2"></path>
    </defs>
    <g id="Icons" stroke="none" stroke-width="1" fill="none" fill-rule="evenodd">
        <g id="Basic-Actions" transform="translate(-584, -578)" fill="CURRENTCOLOR" fill-rule="nonzero">
            <g id="Copy" transform="translate(564, 414)" xlink:href="#path-1">
                <g id="Icon/Copy/Bulk" transform="translate(20, 164)" xlink:href="#path-2">
                    <path d="M8,6 C8,3.79086089 9.79086113,2 12,2 L18.0000334,2 C20.2091722,2 22.0000343,3.79086113 22.0000343,6 L22.0000343,12 C22.0000343,14.2091389 20.2091722,16 18.0000334,16 L12,16 C9.79086256,16 8,14.2091389 8,12 L8,6 Z" id="Rectangle-1125" opacity="0.400000006"></path>
                    <path d="M2,12 C2,9.79086089 3.79086113,8 6,8 L12.0000334,8 C14.2091722,8 16.0000343,9.79086113 16.0000343,12 L16.0000343,18 C16.0000343,20.2091389 14.2091722,22 12.0000334,22 L6,22 C3.79086256,22 2,20.2091389 2,18 L2,12 Z" id="Rectangle-1126"></path>
                </g>
            </g>
        </g>
    </g>
</svg>