<?xml version="1.0" encoding="UTF-8"?>
<svg width="24px" height="24px" viewBox="0 0 24 24" version="1.1" xmlns="http://www.w3.org/2000/svg" xmlns:xlink="http://www.w3.org/1999/xlink">
    <title>Icon/Copy/Outline</title>
    <defs>
        <path d="M5,0 L59,0 C61.7614237,-8.8817842e-16 64,2.23857625 64,5 L64,203 C64,205.761424 61.7614237,208 59,208 L5,208 C2.23857625,208 0,205.761424 0,203 L0,5 C0,2.23857625 2.23857625,0 5,0 Z" id="path-1"></path>
        <path d="M0,0 L24,0 L24,24 L0,24 L0,0 Z" id="path-2"></path>
    </defs>
    <g id="Icons" stroke="none" stroke-width="1" fill="none" fill-rule="evenodd">
        <g id="Basic-Actions" transform="translate(-584, -434)" fill="CURRENTCOLOR" fill-rule="nonzero">
            <g id="Copy" transform="translate(564, 414)" xlink:href="#path-1">
                <g id="Icon/Copy/Outline" transform="translate(20, 20)" xlink:href="#path-2">
                    <path d="M15.25,12 C15.25,10.2050747 13.7949253,8.75 12,8.75 L6,8.75 C4.20507467,8.75 2.75,10.2050747 2.75,12 L2.75,18 C2.75,19.7949253 4.20507479,21.25 6,21.25 L12,21.25 C13.7949253,21.25 15.25,19.7949253 15.25,18 L15.25,12 Z M16.75,15.25 L18,15.25 C19.7949253,15.25 21.25,13.7949253 21.25,12 L21.25,6 C21.25,4.26107574 19.8843201,2.84081724 18.1669922,2.75390625 L18,2.75 L12,2.75 C10.2050747,2.75 8.75,4.20507467 8.75,6 L8.75,7.25 L12,7.25 C14.6233525,7.25 16.75,9.37664747 16.75,12 L16.75,15.25 Z M22.75,12 C22.75,14.6233525 20.6233525,16.75 18,16.75 L16.75,16.75 L16.75,18 C16.75,20.6233525 14.6233525,22.75 12,22.75 L6,22.75 C3.37664747,22.75 1.25,20.6233523 1.25,18 L1.25,12 C1.25,9.37664747 3.37664747,7.25 6,7.25 L7.25,7.25 L7.25,6 C7.25,3.37664747 9.37664747,1.25 12,1.25 L18,1.25 C20.6233523,1.25 22.75,3.37664747 22.75,6 L22.75,12 Z" id="Vector-(Stroke)"></path>
                </g>
            </g>
        </g>
    </g>
</svg>