<?xml version="1.0" encoding="UTF-8"?>
<svg width="24px" height="24px" viewBox="0 0 24 24" version="1.1" xmlns="http://www.w3.org/2000/svg" xmlns:xlink="http://www.w3.org/1999/xlink">
    <title>Icon/Search-zoom-out/Bulk</title>
    <defs>
        <path d="M5,0 L59,0 C61.7614237,-8.8817842e-16 64,2.23857625 64,5 L64,203 C64,205.761424 61.7614237,208 59,208 L5,208 C2.23857625,208 0,205.761424 0,203 L0,5 C0,2.23857625 2.23857625,0 5,0 Z" id="path-1"></path>
        <path d="M0,0 L24,0 L24,24 L0,24 L0,0 Z" id="path-2"></path>
    </defs>
    <g id="Icons" stroke="none" stroke-width="1" fill="none" fill-rule="evenodd">
        <g id="Basic-Search" transform="translate(-168, -578)" fill-rule="nonzero">
            <g id="Search-zoom-out" transform="translate(148, 414)" xlink:href="#path-1">
                <g id="Icon/Search-zoom-out/Bulk" transform="translate(20, 164)" xlink:href="#path-2">
                    <path d="M21,11.5 C21,16.7467051 16.7467051,21 11.5,21 C6.25329494,21 2,16.7467051 2,11.5 C2,6.25329494 6.25329494,2 11.5,2 C16.7467051,2 21,6.25329494 21,11.5 Z" id="Vector" fill="CURRENTCOLOR" opacity="0.400000006"></path>
                    <path d="M21.3,22.0000007 C21.1199999,22.0000007 20.9400002,21.9299999 20.8100002,21.8 L18.9500014,19.9400011 C18.6800014,19.6700011 18.6800014,19.2300014 18.9500014,18.9500014 C19.2200014,18.6800014 19.6600011,18.6800014 19.9400011,18.9500014 L21.8,20.8100002 C22.07,21.0800002 22.07,21.52 21.8,21.8 C21.66,21.9299999 21.48,22.0000007 21.3,22.0000007 Z" id="Vector" fill="CURRENTCOLOR"></path>
                    <path d="M14,12.4499998 L9,12.4499998 C8.59,12.4499998 8.25,12.1099998 8.25,11.6999998 C8.25,11.2899998 8.59,10.9499998 9,10.9499998 L14,10.9499998 C14.41,10.9499998 14.75,11.2899998 14.75,11.6999998 C14.75,12.1099998 14.41,12.4499998 14,12.4499998 Z" id="Vector" fill="CURRENTCOLOR"></path>
                    <polygon id="Vector" opacity="0" points="0 0 24 0 24 24 0 24"></polygon>
                </g>
            </g>
        </g>
    </g>
</svg>