<?xml version="1.0" encoding="UTF-8"?>
<svg width="24px" height="24px" viewBox="0 0 24 24" version="1.1" xmlns="http://www.w3.org/2000/svg" xmlns:xlink="http://www.w3.org/1999/xlink">
    <title>Icon/UserMenu/Bold</title>
    <defs>
        <path d="M5,0 L59,0 C61.7614237,-8.8817842e-16 64,2.23857625 64,5 L64,203 C64,205.761424 61.7614237,208 59,208 L5,208 C2.23857625,208 0,205.761424 0,203 L0,5 C0,2.23857625 2.23857625,0 5,0 Z" id="path-1"></path>
        <path d="M0,0 L24,0 L24,24 L0,24 L0,0 Z" id="path-2"></path>
    </defs>
    <g id="Icons" stroke="none" stroke-width="1" fill="none" fill-rule="evenodd">
        <g id="Basic-Users" transform="translate(-64, -778)" fill-rule="nonzero">
            <g id="User-Menu" transform="translate(44, 662)" xlink:href="#path-1">
                <g id="Icon/UserMenu/Bold" transform="translate(20, 116)" xlink:href="#path-2">
                    <path d="M11.5,3 C6.25,3 2,7.25 2,12.5 C2,17.75 6.25,22 11.5,22 C16.75,22 21,17.75 21,12.5 C21,11.1900001 20.73,9.92997801 20.25,8.78997803" id="Vector" stroke="CURRENTCOLOR" stroke-width="1.5" fill="CURRENTCOLOR" fill-rule="nonzero" stroke-linecap="round" stroke-linejoin="round"></path>
                    <g id="Group" fill-rule="evenodd" stroke-width="1" transform="translate(6.27, 7.11)" fill="#FFFFFF">
                        <path d="M8,2.80999756 C8,4.36191773 6.7419188,5.61999512 5.18999863,5.61999512 C3.63807845,5.61999512 2.38000107,4.36191773 2.38000107,2.80999756 C2.38000107,1.25807738 3.63807845,0 5.18999863,0 C6.7419188,0 8,1.25807738 8,2.80999756 Z" id="Vector" fill-rule="nonzero"></path>
                        <path d="M10.3800011,12.0900269 C10.3800011,9.76002693 8.05999851,7.85998535 5.18999863,7.85998535 C2.31999874,7.85998535 0,9.75002694 0,12.0900269" id="Vector" fill-rule="nonzero"></path>
                    </g>
                    <g id="Group-784" fill-rule="evenodd" stroke-width="1" transform="translate(14, 2.25)" stroke-linecap="round">
                        <line x1="0" y1="0" x2="8" y2="0.1" id="Line-3" stroke="CURRENTCOLOR" stroke-width="1.5" fill-rule="nonzero"></line>
                        <line x1="0" y1="3" x2="8" y2="3.1" id="Line-4" stroke="#FFFFFF" stroke-width="2.5" fill-rule="nonzero"></line>
                        <line x1="0" y1="3" x2="8" y2="3.1" id="Line-4" stroke="CURRENTCOLOR" stroke-width="1.5" fill-rule="nonzero"></line>
                    </g>
                </g>
            </g>
        </g>
    </g>
</svg>