<?xml version="1.0" encoding="UTF-8"?>
<svg width="24px" height="24px" viewBox="0 0 24 24" version="1.1" xmlns="http://www.w3.org/2000/svg" xmlns:xlink="http://www.w3.org/1999/xlink">
    <title>Icon/Info/Bold</title>
    <defs>
        <path d="M5,0 L59,0 C61.7614237,-8.8817842e-16 64,2.23857625 64,5 L64,203 C64,205.761424 61.7614237,208 59,208 L5,208 C2.23857625,208 0,205.761424 0,203 L0,5 C0,2.23857625 2.23857625,0 5,0 Z" id="path-1"></path>
        <path d="M0,0 L24,0 L24,24 L0,24 L0,0 Z" id="path-2"></path>
    </defs>
    <g id="Icons" stroke="none" stroke-width="1" fill="none" fill-rule="evenodd">
        <g id="Basic-System-feedback" transform="translate(-64, -530)" fill="CURRENTCOLOR" fill-rule="nonzero">
            <g id="Info" transform="translate(44, 414)" xlink:href="#path-1">
                <g id="Icon/Info/Bold" transform="translate(20, 116)" xlink:href="#path-2">
                    <path d="M12,2 C6.48999977,2 2,6.48999977 2,12 C2,17.5100002 6.48999977,22 12,22 C17.5100002,22 22,17.5100002 22,12 C22,6.48999977 17.5100002,2 12,2 Z M11.25,8 C11.25,7.59 11.59,7.25 12,7.25 C12.41,7.25 12.75,7.59 12.75,8 L12.75,13 C12.75,13.41 12.41,13.75 12,13.75 C11.59,13.75 11.25,13.41 11.25,13 L11.25,8 Z M12.9200001,16.3799992 C12.8700001,16.5099992 12.8,16.6099991 12.71,16.7099991 C12.61,16.7999991 12.5,16.8700001 12.3800001,16.9200001 C12.2600001,16.9700001 12.13,17 12,17 C11.87,17 11.7399999,16.9700001 11.6199999,16.9200001 C11.5,16.8700001 11.39,16.7999991 11.29,16.7099991 C11.2,16.6099991 11.1299999,16.5099992 11.0799999,16.3799992 C11.0299999,16.2599992 11,16.13 11,16 C11,15.87 11.0299999,15.7399999 11.0799999,15.6199999 C11.1299999,15.5 11.2,15.39 11.29,15.29 C11.39,15.2 11.5,15.1299999 11.6199999,15.0799999 C11.8599999,14.9799999 12.1400001,14.9799999 12.3800001,15.0799999 C12.5,15.1299999 12.61,15.2 12.71,15.29 C12.8,15.39 12.8700001,15.5 12.9200001,15.6199999 C12.9700001,15.7399999 13,15.87 13,16 C13,16.13 12.9700001,16.2599992 12.9200001,16.3799992 Z" id="Vector"></path>
                </g>
            </g>
        </g>
    </g>
</svg>