<?xml version="1.0" encoding="UTF-8"?>
<svg width="24px" height="24px" viewBox="0 0 24 24" version="1.1" xmlns="http://www.w3.org/2000/svg" xmlns:xlink="http://www.w3.org/1999/xlink">
    <title>Icon/Info/Bulk</title>
    <defs>
        <path d="M5,0 L59,0 C61.7614237,-8.8817842e-16 64,2.23857625 64,5 L64,203 C64,205.761424 61.7614237,208 59,208 L5,208 C2.23857625,208 0,205.761424 0,203 L0,5 C0,2.23857625 2.23857625,0 5,0 Z" id="path-1"></path>
        <path d="M0,0 L24,0 L24,24 L0,24 L0,0 Z" id="path-2"></path>
    </defs>
    <g id="Icons" stroke="none" stroke-width="1" fill="none" fill-rule="evenodd">
        <g id="Basic-System-feedback" transform="translate(-64, -578)" fill="CURRENTCOLOR" fill-rule="nonzero">
            <g id="Info" transform="translate(44, 414)" xlink:href="#path-1">
                <g id="Icon/Info/Bulk" transform="translate(20, 164)" xlink:href="#path-2">
                    <path d="M22,12 C22,17.5228477 17.5228477,22 12,22 C6.47715235,22 2,17.5228477 2,12 C2,6.47715235 6.47715235,2 12,2 C17.5228477,2 22,6.47715235 22,12 Z" id="Vector" opacity="0.400000006"></path>
                    <path d="M12,13.75 C12.41,13.75 12.75,13.41 12.75,13 L12.75,8 C12.75,7.59 12.41,7.25 12,7.25 C11.59,7.25 11.25,7.59 11.25,8 L11.25,13 C11.25,13.41 11.59,13.75 12,13.75 Z" id="Vector"></path>
                    <path d="M12.9200001,15.6200048 C12.8700001,15.5000048 12.8,15.3900049 12.71,15.2900049 C12.61,15.2000049 12.5,15.1300049 12.3800001,15.0800049 C12.1400001,14.9800049 11.8599999,14.9800049 11.6199999,15.0800049 C11.5,15.1300049 11.39,15.2000049 11.29,15.2900049 C11.2,15.3900049 11.1299999,15.5000048 11.0799999,15.6200048 C11.0299999,15.7400048 11,15.870005 11,16.0000049 C11,16.1300049 11.0299999,16.2600042 11.0799999,16.3800042 C11.1299999,16.5100042 11.2,16.6100041 11.29,16.7100041 C11.39,16.8000041 11.5,16.8700051 11.6199999,16.9200051 C11.7399999,16.9700051 11.87,17.000005 12,17.000005 C12.13,17.000005 12.2600001,16.9700051 12.3800001,16.9200051 C12.5,16.8700051 12.61,16.8000041 12.71,16.7100041 C12.8,16.6100041 12.8700001,16.5100042 12.9200001,16.3800042 C12.9700001,16.2600042 13,16.1300049 13,16.0000049 C13,15.870005 12.9700001,15.7400048 12.9200001,15.6200048 Z" id="Vector"></path>
                </g>
            </g>
        </g>
    </g>
</svg>