<?xml version="1.0" encoding="UTF-8"?>
<svg width="24px" height="24px" viewBox="0 0 24 24" version="1.1" xmlns="http://www.w3.org/2000/svg" xmlns:xlink="http://www.w3.org/1999/xlink">
    <title>Icon/Info/Linear</title>
    <defs>
        <path d="M5,0 L59,0 C61.7614237,-8.8817842e-16 64,2.23857625 64,5 L64,203 C64,205.761424 61.7614237,208 59,208 L5,208 C2.23857625,208 0,205.761424 0,203 L0,5 C0,2.23857625 2.23857625,0 5,0 Z" id="path-1"></path>
        <path d="M0,0 L24,0 L24,24 L0,24 L0,0 Z" id="path-2"></path>
    </defs>
    <g id="Icons" stroke="none" stroke-width="1" fill="none" fill-rule="evenodd" stroke-linecap="round" stroke-linejoin="round">
        <g id="Basic-System-feedback" transform="translate(-64, -482)" fill-rule="nonzero" stroke="CURRENTCOLOR">
            <g id="Info" transform="translate(44, 414)" xlink:href="#path-1">
                <g id="Icon/Info/Linear" transform="translate(20, 68)" xlink:href="#path-2">
                    <path d="M12,22 C17.5,22 22,17.5 22,12 C22,6.5 17.5,2 12,2 C6.5,2 2,6.5 2,12 C2,17.5 6.5,22 12,22 Z" id="Vector" stroke-width="1.5"></path>
                    <line x1="12" y1="8" x2="12" y2="13" id="Vector" stroke-width="1.5"></line>
                    <line x1="11.9941406" y1="16" x2="12.0941406" y2="16" id="Vector" stroke-width="2"></line>
                </g>
            </g>
        </g>
    </g>
</svg>