<?xml version="1.0" encoding="UTF-8"?>
<svg width="24px" height="24px" viewBox="0 0 24 24" version="1.1" xmlns="http://www.w3.org/2000/svg" xmlns:xlink="http://www.w3.org/1999/xlink">
    <title>Icon/Flash2/Bulk</title>
    <defs>
        <path d="M5,0 L59,0 C61.7614237,-8.8817842e-16 64,2.23857625 64,5 L64,203 C64,205.761424 61.7614237,208 59,208 L5,208 C2.23857625,208 0,205.761424 0,203 L0,5 C0,2.23857625 2.23857625,0 5,0 Z" id="path-1"></path>
        <path d="M0,0 L24,0 L24,24 L0,24 L0,0 Z" id="path-2"></path>
    </defs>
    <g id="Icons" stroke="none" stroke-width="1" fill="none" fill-rule="evenodd">
        <g id="Weather" transform="translate(-480, -578)" fill-rule="nonzero">
            <g id="flash-2" transform="translate(460, 414)" xlink:href="#path-1">
                <g id="Icon/Flash2/Bulk" transform="translate(20, 164)" xlink:href="#path-2" fill-rule="evenodd">
                    <use fill="#FFFFFF" xlink:href="#path-2"></use>
                    <g id="Group" stroke-width="1" transform="translate(6, 3)" fill="CURRENTCOLOR">
                        <path d="M5.60445023,0.507084789 L0.154449731,10.057085 C-0.0520418286,10.4103298 -0.0514433682,10.8476038 0.156014353,11.2002821 C0.363472074,11.5529604 0.745375037,11.7659378 1.15444982,11.7570848 L4.01445007,11.7570848 C4.38217831,11.7544203 4.73576164,11.8986349 4.99672842,12.1577244 C5.25769567,12.4168139 5.40446043,12.7693472 5.40445042,13.137085 L5.40445042,16.7470856 C5.40783596,17.1856422 5.69658232,17.570816 6.11659288,17.6970482 C6.53660297,17.8232803 6.98985195,17.6611099 7.23445082,17.2970848 L12.514452,9.37708473 C12.7455349,9.02862263 12.767314,8.58161831 12.5712013,8.21234226 C12.3750877,7.84306574 11.9925556,7.61078024 11.5744505,7.60708475 L8.85445023,7.60708475 C8.09229755,7.60708475 7.47445059,6.98923779 7.47445059,6.22708464 L7.47445059,1.00708485 C7.47763443,0.551691892 7.17272997,0.151663637 6.73278093,0.0340301747 C6.29283142,-0.0836032798 5.82896852,0.110872121 5.60445023,0.507084789 Z" id="Icon-Copy-2" fill-opacity="0.4" fill-rule="nonzero"></path>
                        <path d="M5.60445023,0.507084789 L0.154449731,10.057085 C-0.0520418286,10.4103298 -0.0514433682,10.8476038 0.156014353,11.2002821 C0.363472074,11.5529604 0.745375037,11.7659378 1.15444982,11.7570848 L4.01445007,11.7570848 C4.38217831,11.7544203 4.73576164,11.8986349 4.99672842,12.1577244 C5.25769567,12.4168139 5.40446043,12.7693472 5.40445042,13.137085 L8.85445023,7.60708475 C8.09229755,7.60708475 7.47445059,6.98923779 7.47445059,6.22708464 L7.47445059,1.00708485 C7.47763443,0.551691892 7.17272997,0.151663637 6.73278093,0.0340301747 C6.29283142,-0.0836032798 5.82896852,0.110872121 5.60445023,0.507084789 Z" id="Icon-Copy" fill-rule="nonzero"></path>
                    </g>
                </g>
            </g>
        </g>
    </g>
</svg>