<?xml version="1.0" encoding="UTF-8"?>
<svg width="24px" height="24px" viewBox="0 0 24 24" version="1.1" xmlns="http://www.w3.org/2000/svg" xmlns:xlink="http://www.w3.org/1999/xlink">
    <title>Icon/Flash2/Outline</title>
    <defs>
        <path d="M5,0 L59,0 C61.7614237,-8.8817842e-16 64,2.23857625 64,5 L64,203 C64,205.761424 61.7614237,208 59,208 L5,208 C2.23857625,208 0,205.761424 0,203 L0,5 C0,2.23857625 2.23857625,0 5,0 Z" id="path-1"></path>
        <path d="M0,0 L24,0 L24,24 L0,24 L0,0 Z" id="path-2"></path>
    </defs>
    <g id="Icons" stroke="none" stroke-width="1" fill="none" fill-rule="evenodd">
        <g id="Weather" transform="translate(-480, -434)" fill-rule="nonzero">
            <g id="flash-2" transform="translate(460, 414)" xlink:href="#path-1">
                <g id="Icon/Flash2/Outline" transform="translate(20, 20)" xlink:href="#path-2" fill-rule="evenodd">
                    <use fill="#FFFFFF" xlink:href="#path-2"></use>
                    <path d="M10.9079576,5 C11.2648563,4.38183194 11.9241591,4.00073215 12.6379576,4 L12.6479573,4.02 C13.7525263,4.02 14.6479568,4.91543043 14.6479568,6.01999998 L14.6479568,10.1300001 L16.6879568,10.1300001 C17.4268065,10.1276708 18.1067534,10.532876 18.456295,11.1838183 C18.8058357,11.8347607 18.7680244,12.6253862 18.3579569,13.2399998 L13.8079567,20.1000004 C13.3177128,20.8295364 12.4086227,21.1534958 11.5674996,20.8984013 C10.7263765,20.6433067 10.1503816,19.8689518 10.1479573,18.9899998 L10.1479573,16.1400003 L8.00795794,16.1400003 C7.29200757,16.142849 6.62914574,15.7627764 6.26993758,15.1434517 C5.91072944,14.524127 5.90997455,13.7600336 6.26795828,13.1400003 L10.9079576,5 Z M12.9979939,5.64286351 C12.9020519,5.5488025 12.7722907,5.49731278 12.6379581,5.5 C12.4548597,5.50062037 12.2880631,5.60535312 12.2079582,5.76999998 L7.56795776,13.8900003 C7.48307896,14.0451269 7.48644996,14.2335491 7.576823,14.38554 C7.66719604,14.5375309 7.83112908,14.6304836 8.0079577,14.6300001 L10.6479583,14.6300001 C11.200243,14.6300001 11.6479583,15.0777149 11.6479583,15.6300001 L11.6479583,18.9799995 C11.6506209,19.1972237 11.7932439,19.3878736 12.0008779,19.4517612 C12.2085118,19.5156488 12.433641,19.4381542 12.5579581,19.2600002 L17.1279583,12.3899994 C17.2321396,12.2358961 17.2421608,12.0366974 17.1539707,11.8729167 C17.0657816,11.709136 16.893961,11.607851 16.7079582,11.6100001 L14.1479588,11.6100001 C13.5956736,11.6100001 13.1479583,11.1622849 13.1479583,10.6100001 L13.1479583,6 C13.1479855,5.86564088 13.0939364,5.73692465 12.9979939,5.64286351 Z" id="Icon" fill="CURRENTCOLOR"></path>
                </g>
            </g>
        </g>
    </g>
</svg>