<?xml version="1.0" encoding="UTF-8"?>
<svg width="24px" height="24px" viewBox="0 0 24 24" version="1.1" xmlns="http://www.w3.org/2000/svg" xmlns:xlink="http://www.w3.org/1999/xlink">
    <title>Icon/Flash2/Linear</title>
    <defs>
        <path d="M5,0 L59,0 C61.7614237,-8.8817842e-16 64,2.23857625 64,5 L64,203 C64,205.761424 61.7614237,208 59,208 L5,208 C2.23857625,208 0,205.761424 0,203 L0,5 C0,2.23857625 2.23857625,0 5,0 Z" id="path-1"></path>
        <path d="M0,0 L24,0 L24,24 L0,24 L0,0 Z" id="path-2"></path>
    </defs>
    <g id="Icons" stroke="none" stroke-width="1" fill="none" fill-rule="evenodd">
        <g id="Weather" transform="translate(-480, -482)" fill-rule="nonzero">
            <g id="flash-2" transform="translate(460, 414)" xlink:href="#path-1">
                <g id="Icon/Flash2/Linear" transform="translate(20, 68)" xlink:href="#path-2">
                    <use fill="#FFFFFF" fill-rule="evenodd" xlink:href="#path-2"></use>
                    <path d="M12.5390517,3.75857764 C12.6490388,3.78798599 12.7252649,3.887993 12.7244689,4.00184141 L12.7244506,9.22708464 C12.7244506,10.4034512 13.6780839,11.3570848 14.8544502,11.3570848 L17.5744505,11.3570848 C17.7108578,11.3583197 17.8417246,11.4377861 17.9088166,11.5641184 C17.9759072,11.6904487 17.9684564,11.8433716 17.8894018,11.9625822 L12.6104131,19.8810596 C12.5507789,19.9698016 12.4374657,20.0103444 12.3324632,19.9787864 C12.2274608,19.9472284 12.1552745,19.8509354 12.1544281,19.7412959 L12.1544504,16.137085 C12.1544659,15.5695096 11.9279377,15.0253821 11.5251402,14.6254829 C11.1223442,14.2255845 10.5765964,14.0029918 10.0090157,14.0071045 L7.15444982,14.0070848 C7.00065703,14.0102375 6.87222953,13.9386167 6.8024651,13.8200171 C6.73270044,13.7014172 6.73249918,13.5543695 6.80193892,13.4355791 L12.2558423,3.87882167 C12.3130981,3.77778808 12.429064,3.72916917 12.5390517,3.75857764 Z" id="Icon-Copy-3" stroke="CURRENTCOLOR" stroke-width="1.5" fill-rule="nonzero"></path>
                </g>
            </g>
        </g>
    </g>
</svg>