<?xml version="1.0" encoding="UTF-8"?>
<svg width="24px" height="24px" viewBox="0 0 24 24" version="1.1" xmlns="http://www.w3.org/2000/svg" xmlns:xlink="http://www.w3.org/1999/xlink">
    <title>Icon/Flash2/Bold</title>
    <defs>
        <path d="M5,0 L59,0 C61.7614237,-8.8817842e-16 64,2.23857625 64,5 L64,203 C64,205.761424 61.7614237,208 59,208 L5,208 C2.23857625,208 0,205.761424 0,203 L0,5 C0,2.23857625 2.23857625,0 5,0 Z" id="path-1"></path>
        <path d="M0,0 L24,0 L24,24 L0,24 L0,0 Z" id="path-2"></path>
    </defs>
    <g id="Icons" stroke="none" stroke-width="1" fill="none" fill-rule="evenodd">
        <g id="Weather" transform="translate(-480, -530)" fill-rule="nonzero">
            <g id="flash-2" transform="translate(460, 414)" xlink:href="#path-1">
                <g id="Icon/Flash2/Bold" transform="translate(20, 116)" xlink:href="#path-2">
                    <use fill="#FFFFFF" fill-rule="evenodd" xlink:href="#path-2"></use>
                    <path d="M11.6044502,3.50708479 L6.15444973,13.057085 C5.94795817,13.4103298 5.94855663,13.8476038 6.15601435,14.2002821 C6.36347207,14.5529604 6.74537504,14.7659378 7.15444982,14.7570848 L10.0144501,14.7570848 C10.3821783,14.7544203 10.7357616,14.8986349 10.9967284,15.1577244 C11.2576957,15.4168139 11.4044604,15.7693472 11.4044504,16.137085 L11.4044504,19.7470856 C11.407836,20.1856422 11.6965823,20.570816 12.1165929,20.6970482 C12.536603,20.8232803 12.989852,20.6611099 13.2344508,20.2970848 L18.514452,12.3770847 C18.7455349,12.0286226 18.767314,11.5816183 18.5712013,11.2123423 C18.3750877,10.8430657 17.9925556,10.6107802 17.5744505,10.6070848 L14.8544502,10.6070848 C14.0922976,10.6070848 13.4744506,9.98923779 13.4744506,9.22708464 L13.4744506,4.00708485 C13.4776344,3.55169189 13.17273,3.15166363 12.7327809,3.03403017 C12.2928314,2.91639672 11.8289685,3.11087212 11.6044502,3.50708479 Z" id="Icon" fill="CURRENTCOLOR" fill-rule="nonzero"></path>
                </g>
            </g>
        </g>
    </g>
</svg>