<?xml version="1.0" encoding="UTF-8"?>
<svg width="24px" height="24px" viewBox="0 0 24 24" version="1.1" xmlns="http://www.w3.org/2000/svg" xmlns:xlink="http://www.w3.org/1999/xlink">
    <title>Icon/GridView/Outline</title>
    <defs>
        <path d="M5,0 L59,0 C61.7614237,-8.8817842e-16 64,2.23857625 64,5 L64,203 C64,205.761424 61.7614237,208 59,208 L5,208 C2.23857625,208 0,205.761424 0,203 L0,5 C0,2.23857625 2.23857625,0 5,0 Z" id="path-1"></path>
        <path d="M0,0 L24,0 L24,24 L0,24 L0,0 Z" id="path-2"></path>
    </defs>
    <g id="Icons" stroke="none" stroke-width="1" fill="none" fill-rule="evenodd">
        <g id="View-Controls" transform="translate(-788, -186)" fill-rule="nonzero">
            <g id="Grid-View" transform="translate(768, 166)" xlink:href="#path-1">
                <g id="Icon/GridView/Outline" transform="translate(20, 20)" xlink:href="#path-2">
                    <path d="M19.7700005,11.25 L15.7299995,11.25 C13.7199996,11.25 12.75,10.3600005 12.75,8.52000046 L12.75,3.98000002 C12.75,2.13999999 13.7299995,1.25 15.7299995,1.25 L19.7700005,1.25 C21.7800004,1.25 22.75,2.13999999 22.75,3.98000002 L22.75,8.51000023 C22.75,10.3600003 21.7700005,11.25 19.7700005,11.25 Z M15.7299995,2.75 C14.3899995,2.75 14.25,3.13 14.25,3.98000002 L14.25,8.51000023 C14.25,9.37000024 14.3899995,9.73999977 15.7299995,9.73999977 L19.7700005,9.73999977 C21.1100005,9.73999977 21.25,9.36000025 21.25,8.51000023 L21.25,3.98000002 C21.25,3.12 21.1100005,2.75 19.7700005,2.75 L15.7299995,2.75 Z" id="Vector" fill="CURRENTCOLOR"></path>
                    <path d="M19.7700005,22.75 L15.7299995,22.75 C13.7199996,22.75 12.75,21.7700005 12.75,19.7700005 L12.75,15.7299995 C12.75,13.7199996 13.7299995,12.75 15.7299995,12.75 L19.7700005,12.75 C21.7800004,12.75 22.75,13.7299995 22.75,15.7299995 L22.75,19.7700005 C22.75,21.7700005 21.7700005,22.75 19.7700005,22.75 Z M15.7299995,14.25 C14.5499996,14.25 14.25,14.5499996 14.25,15.7299995 L14.25,19.7700005 C14.25,20.9500004 14.5499996,21.25 15.7299995,21.25 L19.7700005,21.25 C20.9500004,21.25 21.25,20.9500004 21.25,19.7700005 L21.25,15.7299995 C21.25,14.5499996 20.9500004,14.25 19.7700005,14.25 L15.7299995,14.25 Z" id="Vector" fill="CURRENTCOLOR"></path>
                    <path d="M8.27000046,11.25 L4.23000002,11.25 C2.22000003,11.25 1.25,10.3600005 1.25,8.52000046 L1.25,3.98000002 C1.25,2.13999999 2.23000002,1.25 4.23000002,1.25 L8.27000046,1.25 C10.2800004,1.25 11.25,2.13999999 11.25,3.98000002 L11.25,8.51000023 C11.25,10.3600003 10.2700005,11.25 8.27000046,11.25 Z M4.23000002,2.75 C2.88999999,2.75 2.75,3.13 2.75,3.98000002 L2.75,8.51000023 C2.75,9.37000024 2.88999999,9.73999977 4.23000002,9.73999977 L8.27000046,9.73999977 C9.61000049,9.73999977 9.75,9.36000025 9.75,8.51000023 L9.75,3.98000002 C9.75,3.12 9.61000049,2.75 8.27000046,2.75 L4.23000002,2.75 Z" id="Vector" fill="CURRENTCOLOR"></path>
                    <path d="M8.27000046,22.75 L4.23000002,22.75 C2.22000003,22.75 1.25,21.7700005 1.25,19.7700005 L1.25,15.7299995 C1.25,13.7199996 2.23000002,12.75 4.23000002,12.75 L8.27000046,12.75 C10.2800004,12.75 11.25,13.7299995 11.25,15.7299995 L11.25,19.7700005 C11.25,21.7700005 10.2700005,22.75 8.27000046,22.75 Z M4.23000002,14.25 C3.05000007,14.25 2.75,14.5499996 2.75,15.7299995 L2.75,19.7700005 C2.75,20.9500004 3.05000007,21.25 4.23000002,21.25 L8.27000046,21.25 C9.45000041,21.25 9.75,20.9500004 9.75,19.7700005 L9.75,15.7299995 C9.75,14.5499996 9.45000041,14.25 8.27000046,14.25 L4.23000002,14.25 Z" id="Vector" fill="CURRENTCOLOR"></path>
                    <polygon id="Vector" opacity="0" points="0 0 24 0 24 24 0 24"></polygon>
                </g>
            </g>
        </g>
    </g>
</svg>