<?xml version="1.0" encoding="UTF-8"?>
<svg width="24px" height="24px" viewBox="0 0 24 24" version="1.1" xmlns="http://www.w3.org/2000/svg" xmlns:xlink="http://www.w3.org/1999/xlink">
    <title>Icon/User-octagon/Outline</title>
    <defs>
        <path d="M5,0 L59,0 C61.7614237,-8.8817842e-16 64,2.23857625 64,5 L64,203 C64,205.761424 61.7614237,208 59,208 L5,208 C2.23857625,208 0,205.761424 0,203 L0,5 C0,2.23857625 2.23857625,0 5,0 Z" id="path-1"></path>
        <path d="M0,0 L24,0 L24,24 L0,24 L0,0 Z" id="path-2"></path>
    </defs>
    <g id="Icons" stroke="none" stroke-width="1" fill="none" fill-rule="evenodd">
        <g id="Basic-Users" transform="translate(-272, -186)" fill="CURRENTCOLOR" fill-rule="nonzero">
            <g id="User-octagon" transform="translate(252, 166)" xlink:href="#path-1">
                <g id="Icon/User-octagon/Outline" transform="translate(20, 20)" xlink:href="#path-2">
                    <path d="M20.329922,8.58007824 C20.329922,7.72017634 19.8741324,6.93450367 19.1297266,6.49707043 L19.1297266,6.49609387 L13.198086,3.07128906 L13.0555079,2.99609375 C12.3336788,2.64429745 11.4855822,2.67051411 10.7947657,3.06933594 L4.85921884,6.49609387 C4.11615884,6.9328948 3.66000009,7.7289868 3.66000009,8.58007824 L3.66000009,15.4199215 C3.66000009,16.2835118 4.11870742,17.0757204 4.85531259,17.5009772 L10.791836,20.9287115 C11.5424535,21.3576361 12.458379,21.3560206 13.1951563,20.9306647 L19.1346095,17.5009772 C19.8752272,17.0636592 20.329922,16.2694325 20.329922,15.4199215 L20.329922,8.58007824 Z M21.829922,15.4199215 C21.829922,16.8087031 21.0862353,18.0936342 19.8894923,18.7968756 L19.8846095,18.7998053 L13.9451563,22.2294928 C12.7419331,22.9241358 11.2570779,22.9225222 10.0476954,22.2314459 L10.0447657,22.2294928 L4.10531259,18.7998053 C2.9019177,18.1050612 2.16000009,16.8163315 2.16000009,15.4199215 L2.16000009,8.58007824 C2.16000009,7.1912967 2.90368652,5.90636599 4.10042977,5.20312512 L4.10531259,5.20019543 L10.0447657,1.77050781 C11.1729306,1.11919636 12.5486434,1.0801408 13.7127345,1.64746097 L13.9422266,1.76855469 L13.9451563,1.77050781 L19.8846095,5.20019543 L19.8904688,5.20312512 L19.8894923,5.20312512 C21.0850871,5.90569174 21.829922,7.1799804 21.829922,8.58007824 L21.829922,15.4199215 Z" id="Vector-(Stroke)"></path>
                    <path d="M13.5801563,8.67010498 C13.5801563,7.79753941 12.8726707,7.09006911 12.0000782,7.09002686 C11.1274499,7.09002686 10.4200001,7.79751337 10.4200001,8.67010498 C10.420066,9.54266614 11.1275162,10.2501831 12.0000782,10.2501831 C12.8726043,10.2501408 13.5800904,9.54264009 13.5801563,8.67010498 Z M15.0801563,8.67010498 C15.0800904,10.3710526 13.7010456,11.7501831 12.0000782,11.7501831 C10.2990746,11.7501831 8.92006605,10.3710786 8.92000008,8.67010498 C8.92000008,6.96904945 10.2990595,5.59002686 12.0000782,5.59002686 C13.7010611,5.59002686 15.0801563,6.96907556 15.0801563,8.67010498 Z" id="Vector-(Stroke)"></path>
                    <path d="M15.25,16.65979 C15.2498727,15.4100423 13.9462179,14.1500244 12,14.1500244 C10.0537819,14.1500244 8.75012732,15.4100423 8.75,16.65979 C8.75,17.0740037 8.41421357,17.40979 8,17.40979 C7.58578643,17.40979 7.25,17.0740037 7.25,16.65979 C7.25011823,14.309695 9.5263772,12.6500244 12,12.6500244 C14.473623,12.6500244 16.7498818,14.309695 16.75,16.65979 C16.75,17.0740037 16.4142132,17.40979 16,17.40979 C15.5857863,17.40979 15.25,17.0740037 15.25,16.65979 Z" id="Vector-(Stroke)"></path>
                </g>
            </g>
        </g>
    </g>
</svg>