<?xml version="1.0" encoding="UTF-8"?>
<svg width="24px" height="24px" viewBox="0 0 24 24" version="1.1" xmlns="http://www.w3.org/2000/svg" xmlns:xlink="http://www.w3.org/1999/xlink">
    <title>Icon/User-octagon/Bulk</title>
    <defs>
        <path d="M5,0 L59,0 C61.7614237,-8.8817842e-16 64,2.23857625 64,5 L64,203 C64,205.761424 61.7614237,208 59,208 L5,208 C2.23857625,208 0,205.761424 0,203 L0,5 C0,2.23857625 2.23857625,0 5,0 Z" id="path-1"></path>
        <path d="M0,0 L24,0 L24,24 L0,24 L0,0 Z" id="path-2"></path>
    </defs>
    <g id="Icons" stroke="none" stroke-width="1" fill="none" fill-rule="evenodd">
        <g id="Basic-Users" transform="translate(-272, -330)" fill="CURRENTCOLOR" fill-rule="nonzero">
            <g id="User-octagon" transform="translate(252, 166)" xlink:href="#path-1">
                <g id="Icon/User-octagon/Bulk" transform="translate(20, 164)" xlink:href="#path-2">
                    <path d="M21.0800002,8.58003426 L21.0800002,15.4200001 C21.0800002,16.5400001 20.4800005,17.5800416 19.5100005,18.1500416 L13.5699999,21.5800343 C12.5999999,22.1400343 11.4000003,22.1400343 10.4200003,21.5800343 L4.48000002,18.1500416 C3.50999999,17.5900416 2.91000009,16.5500001 2.91000009,15.4200001 L2.91000009,8.58003426 C2.91000009,7.46003425 3.50999999,6.41999274 4.48000002,5.84999275 L10.4200003,2.42000002 C11.3900003,1.86000001 12.5899999,1.86000001 13.5699999,2.42000002 L19.5100005,5.84999275 C20.4800005,6.41999274 21.0800002,7.45003426 21.0800002,8.58003426 Z" id="Vector" opacity="0.400000006"></path>
                    <path d="M14.3299999,9.66998291 C14.3299999,10.9568064 13.2868235,12 12,12 C10.7131765,12 9.67000008,10.9568064 9.67000008,9.66998291 C9.67000008,8.3831594 10.7131765,7.34002686 12,7.34002686 C13.2868235,7.34002686 14.3299999,8.3831594 14.3299999,9.66998291 Z" id="Vector"></path>
                    <path d="M14.6800003,16.6599731 C15.4900003,16.6599731 15.9600002,15.7600269 15.5100002,15.0900269 C14.8300002,14.0800269 13.51,13.4000244 12,13.4000244 C10.49,13.4000244 9.16999976,14.0800269 8.48999976,15.0900269 C8.03999977,15.7600269 8.50999969,16.6599731 9.31999969,16.6599731 L14.6800003,16.6599731 Z" id="Vector"></path>
                </g>
            </g>
        </g>
    </g>
</svg>