<?xml version="1.0" encoding="UTF-8"?>
<svg width="24px" height="24px" viewBox="0 0 24 24" version="1.1" xmlns="http://www.w3.org/2000/svg" xmlns:xlink="http://www.w3.org/1999/xlink">
    <title>Icon/User-octagon/Linear</title>
    <defs>
        <path d="M5,0 L59,0 C61.7614237,-8.8817842e-16 64,2.23857625 64,5 L64,203 C64,205.761424 61.7614237,208 59,208 L5,208 C2.23857625,208 0,205.761424 0,203 L0,5 C0,2.23857625 2.23857625,0 5,0 Z" id="path-1"></path>
        <path d="M0,0 L24,0 L24,24 L0,24 L0,0 Z" id="path-2"></path>
    </defs>
    <g id="Icons" stroke="none" stroke-width="1" fill="none" fill-rule="evenodd" stroke-linecap="round" stroke-linejoin="round">
        <g id="Basic-Users" transform="translate(-272, -234)" fill-rule="nonzero" stroke="CURRENTCOLOR" stroke-width="1.5">
            <g id="User-octagon" transform="translate(252, 166)" xlink:href="#path-1">
                <g id="Icon/User-octagon/Linear" transform="translate(20, 68)" xlink:href="#path-2">
                    <path d="M21.0800002,8.58003426 L21.0800002,15.4200001 C21.0800002,16.5400001 20.4800005,17.5800416 19.5100005,18.1500416 L13.5699999,21.5800343 C12.5999999,22.1400343 11.4000003,22.1400343 10.4200003,21.5800343 L4.48000002,18.1500416 C3.50999999,17.5900416 2.91000009,16.5500001 2.91000009,15.4200001 L2.91000009,8.58003426 C2.91000009,7.46003425 3.50999999,6.41999274 4.48000002,5.84999275 L10.4200003,2.42000002 C11.3900003,1.86000001 12.5899999,1.86000001 13.5699999,2.42000002 L19.5100005,5.84999275 C20.4800005,6.41999274 21.0800002,7.45003426 21.0800002,8.58003426 Z" id="Vector"></path>
                    <path d="M14.3299999,8.66998291 C14.3299999,9.95680642 13.2868235,11 12,11 C10.7131765,11 9.67000008,9.95680642 9.67000008,8.66998291 C9.67000008,7.3831594 10.7131765,6.34002686 12,6.34002686 C13.2868235,6.34002686 14.3299999,7.3831594 14.3299999,8.66998291 Z" id="Vector"></path>
                    <path d="M16,16.6599731 C16,14.8599732 14.21,13.4000244 12,13.4000244 C9.78999996,13.4000244 8,14.8599732 8,16.6599731" id="Vector"></path>
                </g>
            </g>
        </g>
    </g>
</svg>