<?xml version="1.0" encoding="UTF-8"?>
<svg width="24px" height="24px" viewBox="0 0 24 24" version="1.1" xmlns="http://www.w3.org/2000/svg" xmlns:xlink="http://www.w3.org/1999/xlink">
    <title>Icon/User-octagon/Bold</title>
    <defs>
        <path d="M5,0 L59,0 C61.7614237,-8.8817842e-16 64,2.23857625 64,5 L64,203 C64,205.761424 61.7614237,208 59,208 L5,208 C2.23857625,208 0,205.761424 0,203 L0,5 C0,2.23857625 2.23857625,0 5,0 Z" id="path-1"></path>
        <path d="M0,0 L24,0 L24,24 L0,24 L0,0 Z" id="path-2"></path>
    </defs>
    <g id="Icons" stroke="none" stroke-width="1" fill="none" fill-rule="evenodd">
        <g id="Basic-Users" transform="translate(-272, -282)" fill="CURRENTCOLOR" fill-rule="nonzero">
            <g id="User-octagon" transform="translate(252, 166)" xlink:href="#path-1">
                <g id="Icon/User-octagon/Bold" transform="translate(20, 116)" xlink:href="#path-2">
                    <path d="M19.5100002,5.8499999 L13.5699997,2.42000002 C12.5999997,1.86000001 11.4000001,1.86000001 10.4200001,2.42000002 L4.48999977,5.8499999 C3.51999974,6.40999991 2.92000008,7.44999993 2.92000008,8.57999992 L2.92000008,15.4200001 C2.92000008,16.5400001 3.51999974,17.5799996 4.48999977,18.1499996 L10.4300003,21.5799999 C11.4000003,22.1399999 12.5999999,22.1399999 13.5799999,21.5799999 L19.5200005,18.1499996 C20.4900005,17.5899996 21.0900002,16.5500001 21.0900002,15.4200001 L21.0900002,8.57999992 C21.0800002,7.44999993 20.4800003,6.4199999 19.5100002,5.8499999 Z M12,7.34000015 C13.29,7.34000015 14.3299999,8.38000011 14.3299999,9.67000008 C14.3299999,10.96 13.29,12 12,12 C10.71,12 9.67000008,10.96 9.67000008,9.67000008 C9.67000008,8.3900001 10.71,7.34000015 12,7.34000015 Z M14.6800003,16.6599998 L9.31999969,16.6599998 C8.50999969,16.6599998 8.03999978,15.7600002 8.48999977,15.0900002 C9.16999978,14.0800002 10.49,13.3999996 12,13.3999996 C13.51,13.3999996 14.8300002,14.0800002 15.5100002,15.0900002 C15.9600002,15.7500002 15.4800003,16.6599998 14.6800003,16.6599998 Z" id="Vector"></path>
                </g>
            </g>
        </g>
    </g>
</svg>