<?xml version="1.0" encoding="UTF-8"?>
<svg width="24px" height="24px" viewBox="0 0 24 24" version="1.1" xmlns="http://www.w3.org/2000/svg" xmlns:xlink="http://www.w3.org/1999/xlink">
    <title>Icon/arrow-right/Outline</title>
    <defs>
        <path d="M5,0 L59,0 C61.7614237,-8.8817842e-16 64,2.23857625 64,5 L64,203 C64,205.761424 61.7614237,208 59,208 L5,208 C2.23857625,208 0,205.761424 0,203 L0,5 C0,2.23857625 2.23857625,0 5,0 Z" id="path-1"></path>
        <path d="M0,0 L24,0 L24,24 L0,24 L0,0 Z" id="path-2"></path>
    </defs>
    <g id="Icons" stroke="none" stroke-width="1" fill="none" fill-rule="evenodd">
        <g id="Basic-Navigation" transform="translate(-377, -186)" fill="CURRENTCOLOR" fill-rule="nonzero">
            <g id="arrow-right" transform="translate(357, 166)" xlink:href="#path-1">
                <g id="Icon/arrow-right/Outline" transform="translate(20, 20)" xlink:href="#path-2">
                    <path d="M13.8997265,5.39972648 C14.1926197,5.10683328 14.6673802,5.10683328 14.9602734,5.39972648 L21.0305858,11.4700389 C21.1710426,11.6106611 21.2503123,11.8015473 21.2503123,12.0003123 C21.2502297,12.199112 21.1711643,12.3900071 21.0305858,12.5305858 L14.9602734,18.5999222 C14.6673802,18.8928154 14.1926197,18.8928154 13.8997265,18.5999222 C13.6070088,18.3070148 13.6068918,17.83221 13.8997265,17.5393753 L19.4387889,11.9993358 L13.8997265,6.46027339 C13.6068333,6.16738015 13.6068333,5.69261968 13.8997265,5.39972648 Z" id="Vector-(Stroke)"></path>
                    <path d="M20.3300781,11.25 L20.40625,11.2539062 C20.7846461,11.2921174 21.0800781,11.6115292 21.0800781,12 C21.0800781,12.3884708 20.7846461,12.7078826 20.40625,12.7460938 L20.3300781,12.75 L3.5,12.75 C3.08578643,12.75 2.75,12.4142136 2.75,12 C2.75,11.5857864 3.08578643,11.25 3.5,11.25 L20.3300781,11.25 Z" id="Vector-(Stroke)"></path>
                </g>
            </g>
        </g>
    </g>
</svg>