<?xml version="1.0" encoding="UTF-8"?>
<svg width="24px" height="24px" viewBox="0 0 24 24" version="1.1" xmlns="http://www.w3.org/2000/svg" xmlns:xlink="http://www.w3.org/1999/xlink">
    <title>Icon/Folder-Square/Bold</title>
    <defs>
        <path d="M5,0 L59,0 C61.7614237,-8.8817842e-16 64,2.23857625 64,5 L64,203 C64,205.761424 61.7614237,208 59,208 L5,208 C2.23857625,208 0,205.761424 0,203 L0,5 C0,2.23857625 2.23857625,0 5,0 Z" id="path-1"></path>
        <path d="M0,0 L24,0 L24,24 L0,24 L0,0 Z" id="path-2"></path>
    </defs>
    <g id="Icons" stroke="none" stroke-width="1" fill="none" fill-rule="evenodd">
        <g id="Content-Managment" transform="translate(-584, -280)" fill-rule="nonzero">
            <g id="Folder-Square" transform="translate(564, 164)" xlink:href="#path-1">
                <g id="Icon/Folder-Square/Bold" transform="translate(20, 116)" xlink:href="#path-2">
                    <path d="M19.7600002,4.6500001 C19.5400002,4.55000009 19.3200004,4.47999983 19.1000004,4.42999983 C18.6300004,4.28999983 18.1099999,4.21999979 17.5799999,4.21999979 L14.2797109,4.21999979 C14.1224949,4.21999979 13.9744342,4.14605497 13.8799884,4.0203694 L12.7299995,2.49000001 L12.7299995,2.49000001 C12.6099995,2.32000001 12.4800002,2.16 12.3400002,2 L15.7200003,2 C17.5300002,2 19.0900002,3.09000015 19.7600002,4.6500001 Z" id="Vector" fill="CURRENTCOLOR"></path>
                    <path d="M20.1399994,6.53999996 C19.7099994,6.22999996 19.2200005,6 18.6900005,5.86999989 C18.3300005,5.76999988 17.9599999,5.71999979 17.5799999,5.71999979 L13.8599997,5.71999979 C13.2799997,5.71999979 13.2400003,5.67000023 12.9300003,5.26000023 L11.5299997,3.4000001 C10.8799998,2.53000009 10.3699998,2 8.73999977,2 L6.42000008,2 C3.98000002,2 2,3.98000002 2,6.42000008 L2,17.5799999 C2,20.02 3.98000002,22 6.42000008,22 L17.5799999,22 C20.02,22 22,20.02 22,17.5799999 L22,10.1400003 C22,8.65000033 21.2699994,7.33999997 20.1399994,6.53999996 Z M14.3900003,16.3400002 L9.60000038,16.3400002 C9.2100004,16.3400002 8.90999985,16.0300003 8.90999985,15.6400003 C8.90999985,15.2600003 9.2100004,14.9399996 9.60000038,14.9399996 L14.3900003,14.9399996 C14.7800003,14.9399996 15.0900002,15.2600003 15.0900002,15.6400003 C15.0900002,16.0300003 14.7800003,16.3400002 14.3900003,16.3400002 Z" id="Vector" fill="CURRENTCOLOR"></path>
                    <polygon id="Vector" opacity="0" transform="translate(12, 12) rotate(-180) translate(-12, -12)" points="0 0 24 0 24 24 0 24"></polygon>
                </g>
            </g>
        </g>
    </g>
</svg>