<?xml version="1.0" encoding="UTF-8"?>
<svg width="24px" height="24px" viewBox="0 0 24 24" version="1.1" xmlns="http://www.w3.org/2000/svg" xmlns:xlink="http://www.w3.org/1999/xlink">
    <title>Icon/Filter-edit/Outline</title>
    <defs>
        <path d="M5,0 L59,0 C61.7614237,-8.8817842e-16 64,2.23857625 64,5 L64,203 C64,205.761424 61.7614237,208 59,208 L5,208 C2.23857625,208 0,205.761424 0,203 L0,5 C0,2.23857625 2.23857625,0 5,0 Z" id="path-1"></path>
        <path d="M0,0 L24,0 L24,24 L0,24 L0,0 Z" id="path-2"></path>
    </defs>
    <g id="Icons" stroke="none" stroke-width="1" fill="none" fill-rule="evenodd">
        <g id="Basic-Search" transform="translate(-376, -186)" fill-rule="nonzero">
            <g id="Filter-edit" transform="translate(356, 166)" xlink:href="#path-1">
                <g id="Icon/Filter-edit/Outline" transform="translate(20, 20)" xlink:href="#path-2">
                    <path d="M19.9394531,6.25024414 L19.9394531,4.02954102 C19.9392014,3.33409727 19.3654057,2.76021116 18.6699219,2.76000977 L5.33007813,2.76000977 C4.65780622,2.76000977 4.05957031,3.31042826 4.05957031,4.13012695 L4.05957031,6.45043945 C4.05967468,6.61337245 4.1196636,6.88272855 4.2578125,7.19067383 C4.35932514,7.41690931 4.48579703,7.62563355 4.6171875,7.7902832 L4.75,7.93969727 L4.76269531,7.95336914 L8.60351562,11.9934082 L8.63964844,12.0344238 C8.9023574,12.3548134 9.14050062,12.777564 9.31445313,13.2131348 C9.48717184,13.6456456 9.61914062,14.148508 9.61914062,14.630127 L9.61914062,19.9797363 C9.61914062,20.9700562 10.7561613,21.5824865 11.6015625,21.0627441 L13.0029297,20.1594238 C13.350918,19.9350283 13.8154736,20.0351354 14.0400391,20.3830566 C14.2646319,20.7310441 14.1643423,21.1955234 13.8164062,21.420166 L12.40625,22.3303223 C12.4022139,22.3329264 12.3976401,22.3356087 12.3935547,22.3381348 C10.6192762,23.4347721 8.11914063,22.2281134 8.11914063,19.9797363 L8.11914063,14.630127 C8.11914063,14.4018268 8.05156535,14.0946344 7.921875,13.7697754 C7.79625838,13.4552145 7.63398969,13.178322 7.48925781,12.998291 L3.67578125,8.98657227 L3.67578125,8.9855957 C3.34873065,8.65413308 3.07798409,8.22685876 2.88867187,7.80493164 C2.6995153,7.38328609 2.55957031,6.89743215 2.55957031,6.45043945 L2.55957031,4.13012695 C2.55957031,2.52982557 3.78234994,1.26000977 5.33007813,1.26000977 L18.6699219,1.26000977 C20.1938015,1.26000977 21.4392037,2.50564313 21.4394531,4.02954102 L21.4394531,6.25024414 C21.4394531,6.79768163 21.271981,7.36209452 21.0546875,7.83813477 C20.8364924,8.31608313 20.5366955,8.7730304 20.2099609,9.09985352 C19.9170677,9.39274675 19.4423073,9.39274675 19.1494141,9.09985352 C18.8566735,8.80694798 18.8565717,8.33214897 19.1494141,8.03930664 C19.3224033,7.86622053 19.5278238,7.56908023 19.6894531,7.21508789 C19.8520818,6.85880572 19.9393991,6.51270053 19.9394531,6.25024414 Z" id="Vector-(Stroke)" fill="CURRENTCOLOR"></path>
                    <path d="M18.0037227,10.5767514 C18.6666665,10.5087689 19.2768145,10.806016 19.8201289,11.3492123 C20.3666727,11.8957561 20.6680952,12.5077134 20.602356,13.1724546 C20.5404829,13.7975868 20.1677522,14.2828389 19.8201289,14.6304622 L16.2800901,18.1705012 L16.2791135,18.1695247 C16.1340007,18.3190043 15.9588079,18.4297661 15.8132932,18.5025325 C15.6574711,18.5804342 15.4677335,18.6511294 15.2771604,18.6812439 L15.2644651,18.683197 L15.2644651,18.6822205 L13.9148556,18.8716736 L13.9158322,18.8726501 C13.474135,18.9356871 13.0183439,18.8198481 12.6892697,18.4908137 C12.3602152,18.1617593 12.2444241,17.7059439 12.3074338,17.2642512 L12.4968869,15.9156184 L12.49884,15.9029231 C12.529423,15.7092711 12.6019469,15.521093 12.6795041,15.3677669 C12.7570457,15.2144796 12.8673384,15.0422916 13.0095822,14.8999934 L16.5496211,11.3599545 C16.8972684,11.0123073 17.3816169,10.6406723 18.0037227,10.5767514 Z M18.157043,12.068939 C18.0491683,12.080023 17.8725207,12.1581487 17.610168,12.4205015 L14.070129,15.9605403 C14.0679069,15.9632269 14.0632359,15.9692622 14.0564572,15.979095 C14.0446707,15.9962342 14.0312893,16.0190278 14.0183712,16.0445247 C14.0053992,16.0701684 13.9950151,16.0950142 13.9880978,16.1148372 C13.9840228,16.1265444 13.9820812,16.1340558 13.9812618,16.1372981 L13.9802853,16.1363215 L13.8064572,17.3726497 L15.043762,17.197845 C15.0476465,17.1968894 15.056679,17.195634 15.0701292,17.191009 C15.0914988,17.1836602 15.1169097,17.1734766 15.1423948,17.1607356 C15.1680258,17.1479147 15.1883765,17.1350176 15.2019651,17.1255794 C15.2089197,17.1207409 15.211759,17.1177495 15.2117307,17.1177669 L18.759582,13.5699155 C19.0218949,13.3076026 19.0995113,13.1323688 19.110168,13.0249937 C19.1168677,12.9573034 19.1128185,12.7640368 18.759582,12.4107358 C18.4137144,12.0648682 18.2241405,12.0621254 18.157043,12.068939 Z" id="Vector-(Stroke)" fill="CURRENTCOLOR"></path>
                    <path d="M16.3791156,11.6673237 C16.7780835,11.5564992 17.1919159,11.7899514 17.3029438,12.188808 C17.5325393,13.0153518 18.1746421,13.6574547 19.0011859,13.8870502 C19.400219,13.9979586 19.6335215,14.4118139 19.5226703,14.8108783 C19.4117297,15.2097632 18.9987749,15.4430592 18.5998187,15.3323627 C17.2664967,14.9619954 16.228133,13.9244143 15.8576313,12.5911518 C15.7468069,12.1921839 15.9802591,11.7783516 16.3791156,11.6673237 Z" id="Vector-(Stroke)" fill="CURRENTCOLOR"></path>
                    <polygon id="Vector" opacity="0" transform="translate(12, 12) rotate(-180) translate(-12, -12)" points="0 0 24 0 24 24 0 24"></polygon>
                </g>
            </g>
        </g>
    </g>
</svg>