<?xml version="1.0" encoding="UTF-8"?>
<svg width="24px" height="24px" viewBox="0 0 24 24" version="1.1" xmlns="http://www.w3.org/2000/svg" xmlns:xlink="http://www.w3.org/1999/xlink">
    <title>Icon/Filter-edit/Bulk</title>
    <defs>
        <path d="M5,0 L59,0 C61.7614237,-8.8817842e-16 64,2.23857625 64,5 L64,203 C64,205.761424 61.7614237,208 59,208 L5,208 C2.23857625,208 0,205.761424 0,203 L0,5 C0,2.23857625 2.23857625,0 5,0 Z" id="path-1"></path>
        <path d="M0,0 L24,0 L24,24 L0,24 L0,0 Z" id="path-2"></path>
    </defs>
    <g id="Icons" stroke="none" stroke-width="1" fill="none" fill-rule="evenodd">
        <g id="Basic-Search" transform="translate(-376, -330)" fill-rule="nonzero">
            <g id="Filter-edit" transform="translate(356, 166)" xlink:href="#path-1">
                <g id="Icon/Filter-edit/Bulk" transform="translate(20, 164)" xlink:href="#path-2">
                    <polygon id="Vector" opacity="0" transform="translate(12, 12) rotate(-180) translate(-12, -12)" points="0 0 24 0 24 24 0 24"></polygon>
                    <path d="M20.5800171,4.01998901 L20.5800171,5.97000122 C19.9000171,5.47000122 19.1200196,5.10000366 18.2700195,4.91000366 C17.8300195,4.80000366 17.3600049,4.75 16.8800049,4.75 C13.4300048,4.75 10.6300049,7.54999995 10.6300049,11 C10.6300049,12.14 10.9400293,13.2600012 11.5300293,14.2200012 C12.0300293,15.0600012 12.7299902,15.760011 13.4899902,16.230011 C13.7499902,16.400011 14.0199878,16.5499927 14.2999878,16.6799927 L14.2999878,19.0700073 C14.2999878,19.6800073 13.9000244,20.4900085 13.4000244,20.7900085 L12,21.7000122 C10.7,22.5100122 8.90997314,21.600011 8.90997314,19.980011 L8.90997314,14.6300049 C8.90997314,13.9200049 8.50998536,13.0100098 8.10998535,12.5100098 L4.32000732,8.47000122 C3.82000732,7.96000123 3.41998291,7.05001223 3.41998291,6.45001221 L3.41998291,4.11999512 C3.41998291,2.90999508 4.31997311,2 5.40997314,2 L18.5900269,2 C19.6800269,2 20.5800171,2.909989 20.5800171,4.01998901 Z" id="Vector" fill="CURRENTCOLOR" opacity="0.400000006"></path>
                    <path d="M17.9199829,6.36999512 C17.5899829,6.28999512 17.2400049,6.25 16.8800049,6.25 C14.260005,6.25 12.1300049,8.38000011 12.1300049,11 C12.1300049,11.89 12.3800073,12.7300122 12.8200073,13.4500122 C13.1900073,14.0700122 13.7000073,14.600011 14.3200073,14.980011 C15.0600073,15.470011 15.9400049,15.75 16.8800049,15.75 C18.6200049,15.75 20.1300049,14.8200122 20.9500122,13.4500122 C21.3900122,12.7300122 21.6300049,11.89 21.6300049,11 C21.6300049,8.74000001 20.049983,6.83999512 17.9199829,6.36999512 Z M18.8300171,10.5700073 L16.4000244,13 C16.3100244,13.09 16.1199902,13.1800122 15.9899902,13.2000122 L15.0599976,13.3299866 C14.7199976,13.3799866 14.489978,13.1399976 14.539978,12.8099976 L14.6699829,11.8800049 C14.6899829,11.75 14.7799951,11.5700012 14.8699951,11.4700012 L16.9500122,9.39001465 L17.2999878,9.04000854 C17.7199878,8.62000856 18.2100073,8.42000854 18.8200073,9.04000854 C19.4300073,9.66000855 19.2500171,10.1500073 18.8300171,10.5700073 Z" id="Vector" fill="CURRENTCOLOR"></path>
                </g>
            </g>
        </g>
    </g>
</svg>