<?xml version="1.0" encoding="UTF-8"?>
<svg width="24px" height="24px" viewBox="0 0 24 24" version="1.1" xmlns="http://www.w3.org/2000/svg" xmlns:xlink="http://www.w3.org/1999/xlink">
    <title>Icon/Filter-edit/Bold</title>
    <defs>
        <path d="M5,0 L59,0 C61.7614237,-8.8817842e-16 64,2.23857625 64,5 L64,203 C64,205.761424 61.7614237,208 59,208 L5,208 C2.23857625,208 0,205.761424 0,203 L0,5 C0,2.23857625 2.23857625,0 5,0 Z" id="path-1"></path>
        <path d="M0,0 L24,0 L24,24 L0,24 L0,0 Z" id="path-2"></path>
    </defs>
    <g id="Icons" stroke="none" stroke-width="1" fill="none" fill-rule="evenodd">
        <g id="Basic-Search" transform="translate(-376, -282)" fill-rule="nonzero">
            <g id="Filter-edit" transform="translate(356, 166)" xlink:href="#path-1">
                <g id="Icon/Filter-edit/Bold" transform="translate(20, 116)" xlink:href="#path-2">
                    <polygon id="Vector" opacity="0" transform="translate(12, 12) rotate(-180) translate(-12, -12)" points="0 0 24 0 24 24 0 24"></polygon>
                    <path d="M17.9200001,6.36999989 C17.5900001,6.28999989 17.2399992,6.25 16.8799992,6.25 C14.2599993,6.25 12.1300001,8.38000011 12.1300001,11 C12.1300001,11.89 12.3799997,12.7299998 12.8199997,13.4499998 C13.1899997,14.0699998 13.6999997,14.5999995 14.3199997,14.9799995 C15.0599997,15.4699996 15.9399992,15.75 16.8799992,15.75 C18.6199992,15.75 20.1300001,14.8199998 20.9500008,13.4499998 C21.3900008,12.7299998 21.6300001,11.89 21.6300001,11 C21.6300001,8.74000001 20.0500002,6.83999988 17.9200001,6.36999989 Z M18.8299999,10.5699997 L16.3999996,13 C16.3099996,13.09 16.1199998,13.1799998 15.9899998,13.1999998 L15.0600004,13.3299999 C14.7200004,13.3799999 14.49,13.1400004 14.54,12.8100004 L14.6700001,11.8800001 C14.6900001,11.75 14.7799999,11.5700003 14.8699999,11.4700003 L16.9500008,9.39000034 L17.2999992,9.03999996 C17.7199992,8.61999997 18.2099997,8.41999996 18.8199997,9.03999996 C19.4299997,9.65999997 19.2499999,10.1499997 18.8299999,10.5699997 Z" id="Vector" fill="CURRENTCOLOR"></path>
                    <path d="M20.5799999,4.01999998 L20.5799999,4.98000002 C20.5799999,5.39000002 20.1099998,5.63999981 19.7399998,5.44999981 C19.2799998,5.20999981 18.7900004,5.02999984 18.2700005,4.90999985 C17.8300005,4.79999985 17.3599992,4.75 16.8799992,4.75 C13.4299991,4.75 10.6300001,7.54999995 10.6300001,11 C10.6300001,12.14 10.9399998,13.2600003 11.5299997,14.2200003 C12.0299997,15.0600002 12.7299998,15.7599995 13.4899998,16.2299995 C13.6599998,16.3399995 13.8400002,16.4400009 14.0100002,16.5400009 C14.1800002,16.6300009 14.3000002,16.81 14.3000002,17 L14.3000002,19.0699997 C14.3000002,19.6799997 13.8999996,20.4900009 13.3999996,20.7900009 L12,21.7000008 C10.7,22.5100008 8.90999985,21.5999995 8.90999985,19.9799995 L8.90999985,14.6300001 C8.90999985,13.9200001 8.50999966,13.0100002 8.10999966,12.5100002 L4.32000017,8.47000027 C3.82000017,7.96000028 3.42000008,7.04999983 3.42000008,6.44999981 L3.42000008,4.11999989 C3.42000008,2.90999985 4.31999981,2 5.40999985,2 L18.5900002,2 C19.6800002,2 20.5799999,2.90999997 20.5799999,4.01999998 Z" id="Vector" fill="CURRENTCOLOR"></path>
                </g>
            </g>
        </g>
    </g>
</svg>