<?xml version="1.0" encoding="UTF-8"?>
<svg width="24px" height="24px" viewBox="0 0 24 24" version="1.1" xmlns="http://www.w3.org/2000/svg" xmlns:xlink="http://www.w3.org/1999/xlink">
    <title>Icon/Baging/Outline</title>
    <defs>
        <path d="M5,0 L59,0 C61.7614237,-8.8817842e-16 64,2.23857625 64,5 L64,203 C64,205.761424 61.7614237,208 59,208 L5,208 C2.23857625,208 0,205.761424 0,203 L0,5 C0,2.23857625 2.23857625,0 5,0 Z" id="path-1"></path>
        <path d="M0,0 L24,0 L24,24 L0,24 L0,0 Z" id="path-2"></path>
    </defs>
    <g id="Icons" stroke="none" stroke-width="1" fill="none" fill-rule="evenodd">
        <g id="Shop" transform="translate(-168, -185)" fill="CURRENTCOLOR" fill-rule="nonzero">
            <g id="Baging" transform="translate(148, 165)" xlink:href="#path-1">
                <g id="Icon/Baging/Outline" transform="translate(20, 20)" xlink:href="#path-2">
                    <path d="M19.8342268,9.94064046 L20.7344053,17.4421922 C21.1226,20.7351542 19.6518867,22.75 16.0195618,22.75 L7.02955627,22.75 C3.38680866,22.75 1.91355117,20.7316686 2.31489765,17.440639 L3.21434082,9.9454889 C3.55085109,6.97808001 4.58224273,5.75 7.91955566,5.75 L15.1195679,5.75 C18.4543911,5.75 19.4821454,6.97090415 19.8342268,9.94064046 Z M7.91955566,7.25 C5.45222289,7.25 4.96365922,7.83173371 4.70422185,10.1193586 L3.80403958,17.6207896 C3.50432425,20.0784552 4.35947972,21.25 7.02955627,21.25 L16.0195618,21.25 C18.680061,21.25 19.5348556,20.0789497 19.2449053,17.6193571 L18.3447851,10.1182979 C18.0733216,7.82856294 17.5862887,7.25 15.1195679,7.25 L7.91955566,7.25 Z" id="Vector"></path>
                    <path d="M16.2695618,4.5 L16.2695618,8 C16.2695618,8.41421356 15.9337753,8.75 15.5195618,8.75 C15.1053482,8.75 14.7695618,8.41421356 14.7695618,8 L14.7695618,4.5 C14.7695618,3.41421356 14.1053482,2.75 13.0195618,2.75 L10.0195618,2.75 C8.93377533,2.75 8.26956177,3.41421356 8.26956177,4.5 L8.26956177,8 C8.26956177,8.41421356 7.93377533,8.75 7.51956177,8.75 C7.10534821,8.75 6.76956177,8.41421356 6.76956177,8 L6.76956177,4.5 C6.76956177,2.58578644 8.10534821,1.25 10.0195618,1.25 L13.0195618,1.25 C14.9337753,1.25 16.2695618,2.58578644 16.2695618,4.5 Z" id="Vector"></path>
                    <path d="M20.6795654,17.0299988 C20.6795654,17.4442123 20.343779,17.7799988 19.9295654,17.7799988 L3.51956177,17.7799988 C3.10534821,17.7799988 2.76956177,17.4442123 2.76956177,17.0299988 C2.76956177,16.6157852 3.10534821,16.2799988 3.51956177,16.2799988 L19.9295654,16.2799988 C20.343779,16.2799988 20.6795654,16.6157852 20.6795654,17.0299988 Z" id="Vector"></path>
                </g>
            </g>
        </g>
    </g>
</svg>