<?xml version="1.0" encoding="UTF-8"?>
<svg width="24px" height="24px" viewBox="0 0 24 24" version="1.1" xmlns="http://www.w3.org/2000/svg" xmlns:xlink="http://www.w3.org/1999/xlink">
    <title>Icon/Baging/Bold</title>
    <defs>
        <path d="M5,0 L59,0 C61.7614237,-8.8817842e-16 64,2.23857625 64,5 L64,203 C64,205.761424 61.7614237,208 59,208 L5,208 C2.23857625,208 0,205.761424 0,203 L0,5 C0,2.23857625 2.23857625,0 5,0 Z" id="path-1"></path>
        <path d="M0,0 L24,0 L24,24 L0,24 L0,0 Z" id="path-2"></path>
    </defs>
    <g id="Icons" stroke="none" stroke-width="1" fill="none" fill-rule="evenodd">
        <g id="Shop" transform="translate(-168, -281)" fill="CURRENTCOLOR" fill-rule="nonzero">
            <g id="Baging" transform="translate(148, 165)" xlink:href="#path-1">
                <g id="Icon/Baging/Bold" transform="translate(20, 116)" xlink:href="#path-2" fill-rule="evenodd">
                    <path d="M16.3,8.5 C15.9,8.5 15.5,8.2 15.5,7.7 L15.5,4.2 C15.5,3.1 14.8,2.4 13.7,2.4 L10.7,2.4 C9.6,2.4 8.9,3.1 8.9,4.2 L8.9,7.7 C8.9,8.1 8.6,8.5 8.1,8.5 C7.6,8.5 7.6,8.1 7.6,7.7 L7.6,4.2 C7.6,2.3 8.9,1 10.8,1 L13.8,1 C15.7,1 17,2.3 17,4.2 L17,7.7 C17.1,8.1 16.7,8.5 16.3,8.5 Z" id="Path"></path>
                    <path d="M20.6,9.6 C20.3,7.4 19.8,5.4 15.9,5.4 L8.7,5.4 C4.8,5.4 4.2,7.4 4,9.6 L3.3,15.2 C3.3,15.6 3.6,15.9 4,15.9 L20.7,15.9 C21.1,15.9 21.4,15.6 21.4,15.2 L20.6,9.6 Z" id="Path"></path>
                    <path d="M20.9,17.5 L3.7,17.5 C3.3,17.5 3,17.8 3,18.1 C3,19.3 3.3,20.3 3.9,21.1 C4.8,22 6.1,22.5 7.8,22.5 L16.8,22.5 C18.5,22.5 19.8,22 20.6,21.1 C21.2,20.4 21.6,19.4 21.6,18.1 C21.6,17.8 21.3,17.5 20.9,17.5 Z" id="Path"></path>
                </g>
            </g>
        </g>
    </g>
</svg>