<?xml version="1.0" encoding="UTF-8"?>
<svg width="24px" height="24px" viewBox="0 0 24 24" version="1.1" xmlns="http://www.w3.org/2000/svg" xmlns:xlink="http://www.w3.org/1999/xlink">
    <title>Icon/Baging/Linear</title>
    <defs>
        <path d="M5,0 L59,0 C61.7614237,-8.8817842e-16 64,2.23857625 64,5 L64,203 C64,205.761424 61.7614237,208 59,208 L5,208 C2.23857625,208 0,205.761424 0,203 L0,5 C0,2.23857625 2.23857625,0 5,0 Z" id="path-1"></path>
        <path d="M0,0 L24,0 L24,24 L0,24 L0,0 Z" id="path-2"></path>
    </defs>
    <g id="Icons" stroke="none" stroke-width="1" fill="none" fill-rule="evenodd" stroke-linecap="round" stroke-linejoin="round">
        <g id="Shop" transform="translate(-168, -233)" fill-rule="nonzero" stroke="CURRENTCOLOR" stroke-width="1.5">
            <g id="Baging" transform="translate(148, 165)" xlink:href="#path-1">
                <g id="Icon/Baging/Linear" transform="translate(20, 68)" xlink:href="#path-2">
                    <path d="M7.91955566,6.5 L15.1195679,6.5 C18.519568,6.5 18.8595691,8.08999872 19.0895691,10.0299988 L19.989563,17.5299988 C20.279563,19.9899988 19.5195618,22 16.0195618,22 L7.02955627,22 C3.51955628,22 2.75955516,19.9899988 3.05955517,17.5299988 L3.95956433,10.0299988 C4.17956433,8.08999872 4.51955557,6.5 7.91955566,6.5 Z" id="Vector"></path>
                    <path d="M7.51956177,8 L7.51956177,4.5 C7.51956177,3 8.51956177,2 10.0195618,2 L13.0195618,2 C14.5195618,2 15.5195618,3 15.5195618,4.5 L15.5195618,8" id="Vector"></path>
                    <line x1="19.9295654" y1="17.0299988" x2="3.51956177" y2="17.0299988" id="Vector"></line>
                </g>
            </g>
        </g>
    </g>
</svg>