<?xml version="1.0" encoding="UTF-8"?>
<svg width="24px" height="24px" viewBox="0 0 24 24" version="1.1" xmlns="http://www.w3.org/2000/svg" xmlns:xlink="http://www.w3.org/1999/xlink">
    <title>Icon/Mnue-horizontal/Outline</title>
    <defs>
        <path d="M5,0 L59,0 C61.7614237,-8.8817842e-16 64,2.23857625 64,5 L64,203 C64,205.761424 61.7614237,208 59,208 L5,208 C2.23857625,208 0,205.761424 0,203 L0,5 C0,2.23857625 2.23857625,0 5,0 Z" id="path-1"></path>
        <path d="M0,0 L24,0 L24,24 L0,24 L0,0 Z" id="path-2"></path>
    </defs>
    <g id="Icons" stroke="none" stroke-width="1" fill="none" fill-rule="evenodd">
        <g id="Basic-Navigation" transform="translate(-376, -434)" fill="CURRENTCOLOR" fill-rule="nonzero">
            <g id="More-horizontal" transform="translate(356, 414)" xlink:href="#path-1">
                <g id="Icon/Mnue-horizontal/Outline" transform="translate(20, 20)" xlink:href="#path-2">
                    <path d="M5.24999988,12 C5.24999988,11.3096441 4.69035596,10.75 3.99999988,10.75 C3.30964392,10.75 2.74999988,11.309644 2.74999988,12 C2.74999988,12.690356 3.30964392,13.25 3.99999988,13.25 C4.69035578,13.25 5.24999988,12.690356 5.24999988,12 Z M13.2499999,12 C13.2499999,11.3096441 12.690356,10.75 11.9999999,10.75 C11.3096439,10.75 10.7499999,11.309644 10.7499999,12 C10.7499999,12.6903559 11.3096439,13.25 11.9999999,13.25 C12.6903558,13.25 13.2499999,12.6903561 13.2499999,12 Z M21.2499999,12 C21.2499999,11.3096441 20.690356,10.75 19.9999999,10.75 C19.3096439,10.75 18.7499999,11.309644 18.7499999,12 C18.7499999,12.6903559 19.3096439,13.25 19.9999999,13.25 C20.6903558,13.25 21.2499999,12.6903561 21.2499999,12 Z M6.74999988,12 C6.74999988,13.5187831 5.51878297,14.75 3.99999988,14.75 C2.48121679,14.75 1.24999988,13.518783 1.24999988,12 C1.24999988,10.4812169 2.48121679,9.25 3.99999988,9.25 C5.51878285,9.25 6.74999988,10.4812168 6.74999988,12 Z M14.7499999,12 C14.7499999,13.518783 13.5187831,14.75 11.9999999,14.75 C10.4812168,14.75 9.24999988,13.5187831 9.24999988,12 C9.24999988,10.4812169 10.4812168,9.25 11.9999999,9.25 C13.5187829,9.25 14.7499999,10.4812168 14.7499999,12 Z M22.7499999,12 C22.7499999,13.518783 21.5187831,14.75 19.9999999,14.75 C18.4812168,14.75 17.2499999,13.5187831 17.2499999,12 C17.2499999,10.4812169 18.4812168,9.25 19.9999999,9.25 C21.5187829,9.25 22.7499999,10.4812168 22.7499999,12 Z" id="Vector-(Stroke)"></path>
                </g>
            </g>
        </g>
    </g>
</svg>