<?xml version="1.0" encoding="UTF-8"?>
<svg width="24px" height="24px" viewBox="0 0 24 24" version="1.1" xmlns="http://www.w3.org/2000/svg" xmlns:xlink="http://www.w3.org/1999/xlink">
    <title>Icon/Mnue-horizontal/Bulk</title>
    <defs>
        <path d="M5,0 L59,0 C61.7614237,-8.8817842e-16 64,2.23857625 64,5 L64,203 C64,205.761424 61.7614237,208 59,208 L5,208 C2.23857625,208 0,205.761424 0,203 L0,5 C0,2.23857625 2.23857625,0 5,0 Z" id="path-1"></path>
        <path d="M0,0 L24,0 L24,24 L0,24 L0,0 Z" id="path-2"></path>
    </defs>
    <g id="Icons" stroke="none" stroke-width="1" fill="none" fill-rule="evenodd">
        <g id="Basic-Navigation" transform="translate(-376, -578)" fill="CURRENTCOLOR" fill-rule="nonzero">
            <g id="More-horizontal" transform="translate(356, 414)" xlink:href="#path-1">
                <g id="Icon/Mnue-horizontal/Bulk" transform="translate(20, 164)" xlink:href="#path-2">
                    <path d="M13.9999998,11.2499999 C13.9999998,11.9403559 13.440356,12.5000001 12.7499999,12.5000001 C12.0596439,12.5000001 11.4999998,11.9403559 11.4999998,11.2499999 C11.4999998,10.559644 12.0596439,10.0000001 12.7499999,10.0000001 C13.440356,10.0000001 13.9999998,10.559644 13.9999998,11.2499999 Z" id="Ellipse-236" transform="translate(12.75, 11.25) scale(-1, -1) rotate(-90) translate(-12.75, -11.25)"></path>
                    <path d="M18.4999998,11.2499999 C18.4999998,11.9403559 17.940356,12.5000001 17.2499999,12.5000001 C16.5596439,12.5000001 15.9999998,11.9403559 15.9999998,11.2499999 C15.9999998,10.559644 16.5596439,10.0000001 17.2499999,10.0000001 C17.940356,10.0000001 18.4999998,10.559644 18.4999998,11.2499999 Z" id="Ellipse-237" opacity="0.400000006" transform="translate(17.25, 11.25) scale(-1, -1) rotate(-90) translate(-17.25, -11.25)"></path>
                    <path d="M8.99999983,11.2500001 C8.99999983,11.940356 8.44035597,12.5000001 7.74999995,12.5000001 C7.05964392,12.5000001 6.49999983,11.940356 6.49999983,11.2500001 C6.49999983,10.5596441 7.05964392,10.0000001 7.74999995,10.0000001 C8.44035597,10.0000001 8.99999983,10.5596441 8.99999983,11.2500001 Z" id="Ellipse-238" opacity="0.400000006" transform="translate(7.75, 11.25) scale(-1, -1) rotate(-90) translate(-7.75, -11.25)"></path>
                </g>
            </g>
        </g>
    </g>
</svg>