<?xml version="1.0" encoding="UTF-8"?>
<svg width="24px" height="24px" viewBox="0 0 24 24" version="1.1" xmlns="http://www.w3.org/2000/svg" xmlns:xlink="http://www.w3.org/1999/xlink">
    <title>Icon/Mnue-horizontal/Bold</title>
    <defs>
        <path d="M5,0 L59,0 C61.7614237,-8.8817842e-16 64,2.23857625 64,5 L64,203 C64,205.761424 61.7614237,208 59,208 L5,208 C2.23857625,208 0,205.761424 0,203 L0,5 C0,2.23857625 2.23857625,0 5,0 Z" id="path-1"></path>
        <path d="M0,0 L24,0 L24,24 L0,24 L0,0 Z" id="path-2"></path>
    </defs>
    <g id="Icons" stroke="none" stroke-width="1" fill="none" fill-rule="evenodd">
        <g id="Basic-Navigation" transform="translate(-376, -530)" fill="CURRENTCOLOR" fill-rule="nonzero">
            <g id="More-horizontal" transform="translate(356, 414)" xlink:href="#path-1">
                <g id="Icon/Mnue-horizontal/Bold" transform="translate(20, 116)" xlink:href="#path-2">
                    <path d="M13.9999999,11.2499999 C13.9999999,11.9403558 13.4403558,12.4999999 12.7499999,12.4999999 C12.059644,12.4999999 11.4999999,11.9403558 11.4999999,11.2499999 C11.4999999,10.559644 12.059644,9.99999995 12.7499999,9.99999995 C13.4403558,9.99999995 13.9999999,10.559644 13.9999999,11.2499999 Z" id="Ellipse-239" transform="translate(12.75, 11.25) scale(-1, -1) rotate(-90) translate(-12.75, -11.25)"></path>
                    <path d="M18.9999999,11.2499999 C18.9999999,11.9403558 18.4403558,12.4999999 17.7499999,12.4999999 C17.059644,12.4999999 16.4999999,11.9403558 16.4999999,11.2499999 C16.4999999,10.559644 17.059644,9.99999995 17.7499999,9.99999995 C18.4403558,9.99999995 18.9999999,10.559644 18.9999999,11.2499999 Z" id="Ellipse-240" transform="translate(17.75, 11.25) scale(-1, -1) rotate(-90) translate(-17.75, -11.25)"></path>
                    <path d="M8.99999995,11.2499999 C8.99999995,11.9403558 8.44035584,12.4999999 7.74999995,12.4999999 C7.05964405,12.4999999 6.49999995,11.9403558 6.49999995,11.2499999 C6.49999995,10.559644 7.05964405,9.99999995 7.74999995,9.99999995 C8.44035584,9.99999995 8.99999995,10.559644 8.99999995,11.2499999 Z" id="Ellipse-241" transform="translate(7.75, 11.25) scale(-1, -1) rotate(-90) translate(-7.75, -11.25)"></path>
                </g>
            </g>
        </g>
    </g>
</svg>