<?xml version="1.0" encoding="UTF-8"?>
<svg width="24px" height="24px" viewBox="0 0 24 24" version="1.1" xmlns="http://www.w3.org/2000/svg" xmlns:xlink="http://www.w3.org/1999/xlink">
    <title>Icon/Video/Bulk</title>
    <defs>
        <path d="M5,0 L59,0 C61.7614237,-8.8817842e-16 64,2.23857625 64,5 L64,203 C64,205.761424 61.7614237,208 59,208 L5,208 C2.23857625,208 0,205.761424 0,203 L0,5 C0,2.23857625 2.23857625,0 5,0 Z" id="path-1"></path>
        <path d="M0,0 L24,0 L24,24 L0,24 L0,0 Z" id="path-2"></path>
    </defs>
    <g id="Icons" stroke="none" stroke-width="1" fill="none" fill-rule="evenodd">
        <g id="Video,-Audio" transform="translate(-64, -330)" fill="CURRENTCOLOR" fill-rule="nonzero">
            <g id="video" transform="translate(44, 166)" xlink:href="#path-1">
                <g id="Icon/Video/Bulk" transform="translate(20, 164)" xlink:href="#path-2">
                    <path d="M12.75,3 L6.75,3 C3.32999992,3 2,4.32999992 2,7.75 L2,15.75 C2,18.05 3.25,20.5 6.75,20.5 L12.75,20.5 C16.1700001,20.5 17.5,19.1700001 17.5,15.75 L17.5,7.75 C17.5,4.32999992 16.1700001,3 12.75,3 Z" id="Vector" opacity="0.400000006"></path>
                    <path d="M13.1300001,9.25 C13.1300001,10.2882954 12.2882954,11.1300001 11.25,11.1300001 C10.2117046,11.1300001 9.36999989,10.2882954 9.36999989,9.25 C9.36999989,8.21170461 10.2117046,7.36999989 11.25,7.36999989 C12.2882954,7.36999989 13.1300001,8.21170461 13.1300001,9.25 Z" id="Vector"></path>
                    <path d="M21.3999996,5.91999984 C20.9899996,5.70999984 20.129999,5.46999973 18.9599991,6.28999972 L17.4799995,7.32999969 C17.4899995,7.46999969 17.5,7.59999976 17.5,7.74999976 L17.5,15.75 C17.5,15.9 17.4799995,16.0300001 17.4799995,16.1700001 L18.9599991,17.2099991 C19.5799991,17.6499991 20.1199992,17.7900009 20.5499992,17.7900009 C20.9199992,17.7900009 21.2099996,17.6900002 21.3999996,17.5900002 C21.8099996,17.3800002 22.5,16.8100001 22.5,15.3800001 L22.5,8.12999988 C22.5,6.69999993 21.8099996,6.12999983 21.3999996,5.91999984 Z" id="Vector"></path>
                </g>
            </g>
        </g>
    </g>
</svg>