<?xml version="1.0" encoding="UTF-8"?>
<svg width="24px" height="24px" viewBox="0 0 24 24" version="1.1" xmlns="http://www.w3.org/2000/svg" xmlns:xlink="http://www.w3.org/1999/xlink">
    <title>Icon/Video/Bold</title>
    <defs>
        <path d="M5,0 L59,0 C61.7614237,-8.8817842e-16 64,2.23857625 64,5 L64,203 C64,205.761424 61.7614237,208 59,208 L5,208 C2.23857625,208 0,205.761424 0,203 L0,5 C0,2.23857625 2.23857625,0 5,0 Z" id="path-1"></path>
        <path d="M0,0 L24,0 L24,24 L0,24 L0,0 Z" id="path-2"></path>
    </defs>
    <g id="Icons" stroke="none" stroke-width="1" fill="none" fill-rule="evenodd">
        <g id="Video,-Audio" transform="translate(-64, -282)" fill="CURRENTCOLOR" fill-rule="nonzero">
            <g id="video" transform="translate(44, 166)" xlink:href="#path-1">
                <g id="Icon/Video/Bold" transform="translate(20, 116)" xlink:href="#path-2">
                    <path d="M21.3999996,5.92000008 C20.9899996,5.70000008 20.129999,5.46999997 18.9599991,6.28999996 L17.4899998,7.32999992 C17.3799998,4.22000003 16.03,3 12.75,3 L6.75,3 C3.32999992,3 2,4.32999992 2,7.75 L2,15.75 C2,18.05 3.25,20.5 6.75,20.5 L12.75,20.5 C16.03,20.5 17.3799998,19.28 17.4899998,16.1700001 L18.9599991,17.2099991 C19.5799991,17.6499991 20.1199992,17.7900009 20.5499992,17.7900009 C20.9199992,17.7900009 21.2099996,17.6799999 21.3999996,17.5799999 C21.8099996,17.3699999 22.5,16.7999998 22.5,15.3699999 L22.5,8.13000011 C22.5,6.70000017 21.8099996,6.13000007 21.3999996,5.92000008 Z M11.25,11.1300001 C10.22,11.1300001 9.36999989,10.29 9.36999989,9.25 C9.36999989,8.21000004 10.22,7.36999989 11.25,7.36999989 C12.28,7.36999989 13.1300001,8.21000004 13.1300001,9.25 C13.1300001,10.29 12.28,11.1300001 11.25,11.1300001 Z" id="Vector"></path>
                </g>
            </g>
        </g>
    </g>
</svg>