<?xml version="1.0" encoding="UTF-8"?>
<svg width="24px" height="24px" viewBox="0 0 24 24" version="1.1" xmlns="http://www.w3.org/2000/svg" xmlns:xlink="http://www.w3.org/1999/xlink">
    <title>Icon/Video/Outline</title>
    <defs>
        <path d="M5,0 L59,0 C61.7614237,-8.8817842e-16 64,2.23857625 64,5 L64,203 C64,205.761424 61.7614237,208 59,208 L5,208 C2.23857625,208 0,205.761424 0,203 L0,5 C0,2.23857625 2.23857625,0 5,0 Z" id="path-1"></path>
        <path d="M0,0 L24,0 L24,24 L0,24 L0,0 Z" id="path-2"></path>
    </defs>
    <g id="Icons" stroke="none" stroke-width="1" fill="none" fill-rule="evenodd">
        <g id="Video,-Audio" transform="translate(-64, -186)" fill="CURRENTCOLOR" fill-rule="nonzero">
            <g id="video" transform="translate(44, 166)" xlink:href="#path-1">
                <g id="Icon/Video/Outline" transform="translate(20, 20)" xlink:href="#path-2">
                    <path d="M12.8800001,20.7200012 L6.80999994,20.7200012 C3.25999999,20.7200012 2,18.2299988 2,15.9099989 L2,7.80999947 C2,4.34999943 3.3499999,3 6.80999994,3 L12.8800001,3 C16.3400002,3 17.6900005,4.34999943 17.6900005,7.80999947 L17.6900005,15.9099989 C17.6900005,19.3699989 16.3400002,20.7200012 12.8800001,20.7200012 Z M6.80999994,4.51999974 C4.20000005,4.51999974 3.51999998,5.19999957 3.51999998,7.80999947 L3.51999998,15.9099989 C3.51999998,17.1399989 3.95000005,19.2000008 6.80999994,19.2000008 L12.8800001,19.2000008 C15.49,19.2000008 16.1700001,18.5199988 16.1700001,15.9099989 L16.1700001,7.80999947 C16.1700001,5.19999957 15.49,4.51999974 12.8800001,4.51999974 L6.80999994,4.51999974 L6.80999994,4.51999974 Z" id="Vector"></path>
                    <path d="M20.779932,17.9700041 C20.349932,17.9700041 19.7999314,17.8300042 19.1699314,17.3900042 L16.4999313,15.5200033 C16.2999313,15.3800033 16.1799316,15.1500034 16.1799316,14.9000034 L16.1799316,8.82000303 C16.1799316,8.57000303 16.2999313,8.34000315 16.4999313,8.20000315 L19.1699314,6.33000278 C20.3599315,5.5000028 21.2299307,5.74000315 21.6399307,5.95000315 C22.0499307,6.17000315 22.7499313,6.74000287 22.7499313,8.19000292 L22.7499313,15.5200033 C22.7499313,16.9700034 22.0499307,17.5500031 21.6399307,17.7600031 C21.4499307,17.8700031 21.149932,17.9700041 20.779932,17.9700041 Z M17.6899319,14.5000038 L20.0399323,16.1400042 C20.4899322,16.4500042 20.8099319,16.4800027 20.9399319,16.4100027 C21.0799319,16.3400027 21.2299309,16.0600033 21.2299309,15.5200033 L21.2299309,8.20000315 C21.2299309,7.65000314 21.0699319,7.3800028 20.9399319,7.3100028 C20.8099319,7.2400028 20.4899322,7.27000278 20.0399323,7.58000278 L17.6899319,9.22000265 L17.6899319,14.5000038 Z" id="Vector"></path>
                    <path d="M11.5,11.6100006 C10.26,11.6100006 9.25,10.6000006 9.25,9.36000061 C9.25,8.1200006 10.26,7.11000061 11.5,7.11000061 C12.74,7.11000061 13.75,8.1200006 13.75,9.36000061 C13.75,10.6000006 12.74,11.6100006 11.5,11.6100006 Z M11.5,8.61000061 C11.09,8.61000061 10.75,8.95000061 10.75,9.36000061 C10.75,9.77000061 11.09,10.1100006 11.5,10.1100006 C11.91,10.1100006 12.25,9.77000061 12.25,9.36000061 C12.25,8.95000061 11.91,8.61000061 11.5,8.61000061 Z" id="Vector"></path>
                </g>
            </g>
        </g>
    </g>
</svg>