<?xml version="1.0" encoding="UTF-8"?>
<svg width="24px" height="24px" viewBox="0 0 24 24" version="1.1" xmlns="http://www.w3.org/2000/svg" xmlns:xlink="http://www.w3.org/1999/xlink">
    <title>Icon/Folder-change/Outline</title>
    <defs>
        <path d="M5,0 L59,0 C61.7614237,-8.8817842e-16 64,2.23857625 64,5 L64,203 C64,205.761424 61.7614237,208 59,208 L5,208 C2.23857625,208 0,205.761424 0,203 L0,5 C0,2.23857625 2.23857625,0 5,0 Z" id="path-1"></path>
        <path d="M0,0 L24,0 L24,24 L0,24 L0,0 Z" id="path-2"></path>
    </defs>
    <g id="Icons" stroke="none" stroke-width="1" fill="none" fill-rule="evenodd">
        <g id="Content-Managment" transform="translate(-168, -432)" fill-rule="nonzero">
            <g id="Folder-change" transform="translate(148, 412)" xlink:href="#path-1">
                <g id="Icon/Folder-change/Outline" transform="translate(20, 20)" xlink:href="#path-2">
                    <path d="M9,22.75 L7,22.75 C2.59000015,22.75 1.25,21.4099998 1.25,17 L1.25,7 C1.25,2.59000015 2.59000015,1.25 7,1.25 L8.5,1.25 C10.25,1.25 10.8,1.81999999 11.5,2.75 L13,4.75 C13.33,5.19 13.38,5.25 14,5.25 L17,5.25 C21.4099998,5.25 22.75,6.59000015 22.75,11 L22.75,13 C22.75,13.41 22.41,13.75 22,13.75 C21.59,13.75 21.25,13.41 21.25,13 L21.25,11 C21.25,7.43000007 20.5799999,6.75 17,6.75 L14,6.75 C12.72,6.75 12.2999878,6.30999392 11.7999878,5.6499939 L10.2999878,3.6499939 C9.77998781,2.9599939 9.62,2.75 8.5,2.75 L7,2.75 C3.42000008,2.75 2.75,3.43000007 2.75,7 L2.75,17 C2.75,20.5699999 3.42000008,21.25 7,21.25 L9,21.25 C9.41,21.25 9.75,21.59 9.75,22 C9.75,22.41 9.41,22.75 9,22.75 Z" id="Vector" fill="CURRENTCOLOR" fill-rule="nonzero"></path>
                    <g id="Group-769" fill-rule="evenodd" stroke-width="1" transform="translate(12.9895, 13.4188)" fill="CURRENTCOLOR">
                        <path d="M7.25,5.15753174 C6.84,5.15753174 6.5,4.81753173 6.5,4.40753174 L6.5,3.12750244 C6.5,2.90750244 6.31999634,2.7175293 6.08999634,2.7175293 L0.75,2.7175293 C0.340000004,2.7175293 0,2.37752929 0,1.9675293 C0,1.5575293 0.340000004,1.2175293 0.75,1.2175293 L6.08999634,1.2175293 C7.13999629,1.2175293 8,2.07750249 8,3.12750244 L8,4.40753174 C8,4.81753173 7.66,5.15753174 7.25,5.15753174 Z" id="Vector" fill-rule="nonzero"></path>
                        <path d="M1.9694531,3.93747067 C1.7794531,3.93747067 1.58945432,3.86749998 1.43945432,3.71749997 L0.219453126,2.49752927 C-0.0705468655,2.20752928 -0.0705468655,1.72747067 0.219453126,1.43747067 L1.43945432,0.217500001 C1.72945431,-0.0724999905 2.20945188,-0.0724999905 2.49945188,0.217500001 C2.78945187,0.507499993 2.78945187,0.987497538 2.49945188,1.27749753 L1.80944943,1.96749997 L2.49945188,2.65750241 C2.78945187,2.9475024 2.78945187,3.42749998 2.49945188,3.71749997 C2.34945187,3.86749998 2.15945309,3.93747067 1.9694531,3.93747067 Z" id="Vector" fill-rule="nonzero"></path>
                        <path d="M7.25,7.99761963 L1.91000366,7.99761963 C0.86000371,7.99761963 0,7.1375854 0,6.08758545 L0,4.80761719 C0,4.39761719 0.340000004,4.05761719 0.75,4.05761719 C1.16,4.05761719 1.5,4.39761719 1.5,4.80761719 L1.5,6.08758545 C1.5,6.30758545 1.68000366,6.49761963 1.91000366,6.49761963 L7.25,6.49761963 C7.66,6.49761963 8,6.83761963 8,7.24761963 C8,7.65761963 7.66,7.99761963 7.25,7.99761963 Z" id="Vector" fill-rule="nonzero"></path>
                        <path d="M6.03070188,9.21749997 C5.84070188,9.21749997 5.65070313,9.14752927 5.50070313,8.99752927 C5.21070313,8.70752928 5.21070313,8.22747067 5.50070313,7.93747067 L6.19070554,7.24752927 L5.50070313,6.55752683 C5.21070313,6.26752684 5.21070313,5.78752929 5.50070313,5.4975293 C5.79070312,5.20752931 6.27070066,5.20752931 6.56070065,5.4975293 L7.78070188,6.71749997 C8.07070187,7.00749996 8.07070187,7.48749754 7.78070188,7.77749753 L6.56070065,8.99752927 C6.42070065,9.14752927 6.22070187,9.21749997 6.03070188,9.21749997 Z" id="Vector" fill-rule="nonzero"></path>
                    </g>
                    <polygon id="Vector" opacity="0" fill-rule="nonzero" points="0 0 24 0 24 24 0 24"></polygon>
                </g>
            </g>
        </g>
    </g>
</svg>