<?xml version="1.0" encoding="UTF-8"?>
<svg width="24px" height="24px" viewBox="0 0 24 24" version="1.1" xmlns="http://www.w3.org/2000/svg" xmlns:xlink="http://www.w3.org/1999/xlink">
    <title>Icon/Folder-change/Bulk</title>
    <defs>
        <path d="M5,0 L59,0 C61.7614237,-8.8817842e-16 64,2.23857625 64,5 L64,203 C64,205.761424 61.7614237,208 59,208 L5,208 C2.23857625,208 0,205.761424 0,203 L0,5 C0,2.23857625 2.23857625,0 5,0 Z" id="path-1"></path>
        <path d="M0,0 L24,0 L24,24 L0,24 L0,0 Z" id="path-2"></path>
    </defs>
    <g id="Icons" stroke="none" stroke-width="1" fill="none" fill-rule="evenodd">
        <g id="Content-Managment" transform="translate(-168, -576)" fill-rule="nonzero">
            <g id="Folder-change" transform="translate(148, 412)" xlink:href="#path-1">
                <g id="Icon/Folder-change/Bulk" transform="translate(20, 164)" xlink:href="#path-2">
                    <polygon id="Vector" opacity="0" points="0 0 24 0 24 24 0 24"></polygon>
                    <path d="M18.4971466,15.4350424 C17.4771466,15.4350424 16.5371465,15.8250431 15.8271465,16.4650431 C15.6671465,16.6050431 15.5171466,16.7550422 15.3871466,16.9250422 C14.8271466,17.6150422 14.4971466,18.4850424 14.4971466,19.4350424 C14.4971466,21.6450424 16.2971466,23.4350424 18.4971466,23.4350424 C19.4571466,23.4350424 20.3271466,23.095043 21.0171466,22.545043 C21.5771466,22.075043 22.0171468,21.4650423 22.2571468,20.7650423 C22.4171468,20.3550423 22.4971466,19.9050424 22.4971466,19.4350424 C22.4971466,17.2350423 20.7071466,15.4350424 18.4971466,15.4350424 Z M20.8971467,18.6650419 C20.8971467,18.9450419 20.6771465,19.1550417 20.4071465,19.1550417 C20.1371464,19.1550417 19.9171467,18.9450419 19.9171467,18.6650419 L19.9171467,18.5650415 C19.9171467,18.4550415 19.8371466,18.3650427 19.7271466,18.3650427 L17.7271466,18.3650427 C17.8271466,18.5550427 17.8071467,18.7850426 17.6471467,18.9450426 C17.5571467,19.0350426 17.4371466,19.085042 17.2971466,19.085042 C17.1771466,19.085042 17.0471466,19.0350426 16.9571466,18.9450426 L16.2371466,18.2250433 C16.1971466,18.1850433 16.1571467,18.1250415 16.1271467,18.0650415 C16.0871467,17.9450415 16.0871467,17.8150426 16.1271467,17.6950426 C16.1571467,17.6450426 16.1871466,17.5750428 16.2371466,17.5350428 L16.9571466,16.8250418 C17.1471466,16.6250418 17.4571465,16.6250418 17.6371465,16.8250418 C17.7971465,16.9750418 17.8171464,17.2150415 17.7171464,17.3950415 L19.7271466,17.3950415 C20.3671466,17.3950415 20.8871465,17.9150416 20.8871465,18.5650415 L20.8871465,18.6650419 L20.8971467,18.6650419 Z M19.6971464,22.1950426 C19.5671464,22.1950426 19.4371465,22.1550432 19.3471465,22.0550432 C19.1871465,21.9050432 19.1671466,21.6650416 19.2671466,21.4850416 L17.2571466,21.4850416 C16.6171466,21.4850416 16.0971465,20.9650415 16.0971465,20.3150415 L16.0971465,20.2150431 C16.0971465,19.9350424 16.3171465,19.7250433 16.5871465,19.7250433 C16.8571465,19.7250433 17.0771465,19.9350424 17.0771465,20.2150431 L17.0771465,20.3150415 C17.0771465,20.4250415 17.1571466,20.5150423 17.2671466,20.5150423 L19.2771468,20.5150423 C19.1771468,20.3250423 19.1971467,20.0950424 19.3571467,19.9350424 C19.5471467,19.7450424 19.8571466,19.7450424 20.0371466,19.9350424 L20.7571468,20.6550417 C20.7971468,20.6950417 20.8371465,20.7550415 20.8671465,20.8150415 C20.9071465,20.9350424 20.9071465,21.0650424 20.8671465,21.1850424 C20.8371465,21.2350424 20.7971468,21.295042 20.7571468,21.335042 L20.0371466,22.045043 C19.9471466,22.145043 19.8171464,22.1950426 19.6971464,22.1950426 Z" id="Vector" fill="CURRENTCOLOR"></path>
                    <path d="M22,11.0699997 L22,15.3400002 C22,15.6600001 21.4900005,15.7999997 21.2700005,15.5699997 C20.8000005,15.0799997 20.2100007,14.71 19.5300007,14.5 C17.9600006,14.01 16.1500002,14.4900001 15.0100002,15.6700001 C14.2900002,16.4400001 13.9000001,17.4000006 13.8800001,18.4400005 C13.8800001,18.6200005 13.7899996,18.7799994 13.6499996,18.8899994 C12.9299996,19.4599994 12.4899998,20.3500009 12.4899998,21.3700008 L12.4899998,21.3799992 C12.4899998,21.6999992 12.2599996,21.9900303 11.9399996,21.9900303 L7.34000015,21.9900303 C4.4000001,22 2,19.5999997 2,16.6499996 L2,6.42000008 C2,3.98000002 3.98000002,2 6.42000008,2 L8.73999977,2 C10.3699998,2 10.8799998,2.53000009 11.5299997,3.4000001 L12.9300003,5.26000023 C13.2400003,5.67000023 13.2799997,5.71999979 13.8599997,5.71999979 L16.6499996,5.71999979 C19.0299997,5.71999979 21.0499998,7.27999949 21.7399998,9.43999958 C21.8899998,9.88999957 21.9699998,10.3500001 21.9899998,10.8400002 C22,10.9100002 22,11 22,11.0699997 Z" id="Vector" fill="CURRENTCOLOR" opacity="0.400000006"></path>
                </g>
            </g>
        </g>
    </g>
</svg>