<?xml version="1.0" encoding="UTF-8"?>
<svg width="24px" height="24px" viewBox="0 0 24 24" version="1.1" xmlns="http://www.w3.org/2000/svg" xmlns:xlink="http://www.w3.org/1999/xlink">
    <title>Icon/Bag-shop2/Bold</title>
    <defs>
        <path d="M5,0 L59,0 C61.7614237,-8.8817842e-16 64,2.23857625 64,5 L64,203 C64,205.761424 61.7614237,208 59,208 L5,208 C2.23857625,208 0,205.761424 0,203 L0,5 C0,2.23857625 2.23857625,0 5,0 Z" id="path-1"></path>
        <path d="M0,0 L24,0 L24,24 L0,24 L0,0 Z" id="path-2"></path>
    </defs>
    <g id="Icons" stroke="none" stroke-width="1" fill="none" fill-rule="evenodd">
        <g id="Shop" transform="translate(-272, -281)" fill="CURRENTCOLOR" fill-rule="nonzero">
            <g id="bag-Shop-2" transform="translate(252, 165)" xlink:href="#path-1">
                <g id="Icon/Bag-shop2/Bold" transform="translate(20, 116)" xlink:href="#path-2">
                    <path d="M19.8034954,8.96234179 C19.1334954,8.22234178 18.1234945,7.79234162 16.7234945,7.64234161 L16.7234945,6.88234186 C16.7234945,5.51234186 16.1434951,4.19234175 15.1234951,3.27234173 C14.0934951,2.33234173 12.7534958,1.89234176 11.3634958,2.02234175 C8.97349572,2.25234176 6.96349573,4.56234169 6.96349573,7.06234169 L6.96349573,7.64234161 C5.56349576,7.79234162 4.55349577,8.22234178 3.88349575,8.96234179 C2.91349572,10.0423418 2.94349582,11.4823418 3.05349582,12.4823418 L3.75349587,18.0523415 C3.96349587,20.0023415 4.75349569,22.0023422 9.05349588,22.0023422 L14.6334953,22.0023422 C18.9334955,22.0023422 19.7234965,20.0023417 19.9334965,18.0623417 L20.6334972,12.4723425 C20.7434972,11.4823425 20.7634954,10.0423418 19.8034954,8.96234179 Z M11.5034952,3.41234183 C12.5034952,3.32234183 13.4534957,3.63234192 14.1934958,4.30234194 C14.9234958,4.96234196 15.3334951,5.90234184 15.3334951,6.88234186 L15.3334951,7.58234167 L8.35349608,7.58234167 L8.35349608,7.06234169 C8.35349608,5.28234172 9.82349527,3.57234183 11.5034952,3.41234183 Z M8.26349592,13.1523418 L8.25349569,13.1523418 C7.70349568,13.1523418 7.25349569,12.7023419 7.25349569,12.1523418 C7.25349569,11.6023418 7.70349568,11.1523418 8.25349569,11.1523418 C8.8134957,11.1523418 9.26349592,11.6023418 9.26349592,12.1523418 C9.26349592,12.7023419 8.81349593,13.1523418 8.26349592,13.1523418 Z M15.2634954,13.1523418 L15.2534952,13.1523418 C14.7034952,13.1523418 14.2534952,12.7023419 14.2534952,12.1523418 C14.2534952,11.6023418 14.7034952,11.1523418 15.2534952,11.1523418 C15.8134952,11.1523418 16.2634954,11.6023418 16.2634954,12.1523418 C16.2634954,12.7023419 15.8134955,13.1523418 15.2634954,13.1523418 Z" id="Vector"></path>
                </g>
            </g>
        </g>
    </g>
</svg>