<?xml version="1.0" encoding="UTF-8"?>
<svg width="24px" height="24px" viewBox="0 0 24 24" version="1.1" xmlns="http://www.w3.org/2000/svg" xmlns:xlink="http://www.w3.org/1999/xlink">
    <title>Icon/Bag-shop2/Bulk</title>
    <defs>
        <path d="M5,0 L59,0 C61.7614237,-8.8817842e-16 64,2.23857625 64,5 L64,203 C64,205.761424 61.7614237,208 59,208 L5,208 C2.23857625,208 0,205.761424 0,203 L0,5 C0,2.23857625 2.23857625,0 5,0 Z" id="path-1"></path>
        <path d="M0,0 L24,0 L24,24 L0,24 L0,0 Z" id="path-2"></path>
    </defs>
    <g id="Icons" stroke="none" stroke-width="1" fill="none" fill-rule="evenodd">
        <g id="Shop" transform="translate(-272, -329)" fill="CURRENTCOLOR" fill-rule="nonzero">
            <g id="bag-Shop-2" transform="translate(252, 165)" xlink:href="#path-1">
                <g id="Icon/Bag-shop2/Bulk" transform="translate(20, 164)" xlink:href="#path-2">
                    <path d="M16.0334959,8.8623414 C15.6434959,8.8623414 15.3334951,8.55234158 15.3334951,8.16234159 L15.3334951,6.88234186 C15.3334951,5.90234184 14.9134963,4.96234196 14.1934962,4.30234194 C13.453496,3.63234192 12.5034957,3.32234183 11.5034957,3.41234183 C9.82349575,3.57234183 8.35349608,5.28234172 8.35349608,7.06234169 L8.35349608,7.96234179 C8.35349608,8.35234177 8.04349578,8.66234159 7.65349579,8.66234159 C7.2634958,8.66234159 6.95349598,8.35234177 6.95349598,7.96234179 L6.95349598,7.06234169 C6.95349598,4.56234169 8.9734962,2.25234175 11.3634963,2.02234175 C12.7534963,1.89234176 14.0934961,2.33234173 15.1234961,3.27234173 C16.143496,4.19234174 16.7234945,5.51234186 16.7234945,6.88234186 L16.7234945,8.16234159 C16.7234945,8.55234158 16.4134959,8.8623414 16.0334959,8.8623414 Z" id="Vector" opacity="0.400000006"></path>
                    <path d="M19.8034954,8.96234179 C18.9634954,8.03234178 17.5834956,7.58234167 15.5634956,7.58234167 L8.12349558,7.58234167 C6.1034956,7.58234167 4.72349572,8.03234178 3.88349575,8.96234179 C2.91349572,10.0423418 2.94349582,11.4823413 3.05349582,12.4823413 L3.75349587,18.052341 C3.96349587,20.002341 4.75349569,22.0023417 9.05349588,22.0023417 L14.6334953,22.0023417 C18.9334955,22.0023417 19.7234965,20.0023413 19.9334965,18.0623412 L20.6334972,12.472342 C20.7434972,11.482342 20.7634954,10.0423418 19.8034954,8.96234179 Z M8.26349592,13.1523414 L8.25349569,13.1523414 C7.70349568,13.1523414 7.25349569,12.7023414 7.25349569,12.1523414 C7.25349569,11.6023414 7.70349568,11.1523414 8.25349569,11.1523414 C8.8134957,11.1523414 9.26349592,11.6023414 9.26349592,12.1523414 C9.26349592,12.7023414 8.81349593,13.1523414 8.26349592,13.1523414 Z M15.2634954,13.1523414 L15.2534952,13.1523414 C14.7034952,13.1523414 14.2534952,12.7023414 14.2534952,12.1523414 C14.2534952,11.6023414 14.7034952,11.1523414 15.2534952,11.1523414 C15.8134952,11.1523414 16.2634954,11.6023414 16.2634954,12.1523414 C16.2634954,12.7023414 15.8134955,13.1523414 15.2634954,13.1523414 Z" id="Vector"></path>
                </g>
            </g>
        </g>
    </g>
</svg>