<?xml version="1.0" encoding="UTF-8"?>
<svg width="24px" height="24px" viewBox="0 0 24 24" version="1.1" xmlns="http://www.w3.org/2000/svg" xmlns:xlink="http://www.w3.org/1999/xlink">
    <title>Icon/Bag-shop2/Outline</title>
    <defs>
        <path d="M5,0 L59,0 C61.7614237,-8.8817842e-16 64,2.23857625 64,5 L64,203 C64,205.761424 61.7614237,208 59,208 L5,208 C2.23857625,208 0,205.761424 0,203 L0,5 C0,2.23857625 2.23857625,0 5,0 Z" id="path-1"></path>
        <path d="M0,0 L24,0 L24,24 L0,24 L0,0 Z" id="path-2"></path>
    </defs>
    <g id="Icons" stroke="none" stroke-width="1" fill="none" fill-rule="evenodd">
        <g id="Shop" transform="translate(-272, -185)" fill="CURRENTCOLOR" fill-rule="nonzero">
            <g id="bag-Shop-2" transform="translate(252, 165)" xlink:href="#path-1">
                <g id="Icon/Bag-shop2/Outline" transform="translate(20, 20)" xlink:href="#path-2">
                    <path d="M16.0037246,8.38420534 C15.5937246,8.38420534 15.2537246,8.04420534 15.2537246,7.63420534 L15.2537246,6.25420523 C15.2537246,5.20420527 14.803725,4.18420523 14.023725,3.47420526 C13.233725,2.75420523 12.2137247,2.42420521 11.1337247,2.52420521 C9.33372473,2.69420521 7.75372457,4.53420508 7.75372457,6.45420504 L7.75372457,7.4242053 C7.75372457,7.8342053 7.41372457,8.1742053 7.00372457,8.1742053 C6.59372458,8.1742053 6.25372457,7.8342053 6.25372457,7.4242053 L6.25372457,6.44420528 C6.25372457,3.75420523 8.42372441,1.2742052 10.9937243,1.0242052 C12.4937243,0.884205202 13.9337243,1.35420513 15.0337243,2.36420512 C16.1237243,3.35420513 16.7537246,4.77420521 16.7537246,6.25420523 L16.7537246,7.63420534 C16.7537246,8.04420534 16.4137246,8.38420534 16.0037246,8.38420534 Z" id="Vector"></path>
                    <path d="M14.5037241,22.5042052 L8.50372457,22.5042052 C3.88372469,22.5042052 3.02372446,20.3542054 2.80372447,18.2642055 L2.05372446,12.2742057 C1.94372446,11.1942056 1.90372461,9.64420474 2.95372456,8.48420477 C3.85372454,7.48420477 5.34372449,7.00420523 7.50372457,7.00420523 L15.5037241,7.00420523 C17.6737242,7.00420523 19.1637243,7.49420476 20.0537243,8.48420477 C21.0937242,9.64420474 21.0637258,11.1942053 20.9537258,12.2542052 L20.2037258,18.2642055 C19.9837258,20.3542054 19.123724,22.5042052 14.5037241,22.5042052 Z M7.50372457,8.50420523 C5.81372452,8.50420523 4.65372449,8.83420497 4.06372452,9.494205 C3.57372451,10.034205 3.41372442,10.8642056 3.54372442,12.1042056 L4.29372453,18.0942054 C4.46372454,19.6942054 4.90372467,21.0142055 8.50372457,21.0142055 L14.5037241,21.0142055 C18.103724,21.0142055 18.5437241,19.7042059 18.7137241,18.1142058 L19.4637241,12.1042056 C19.5937241,10.8842056 19.4337256,10.0542052 18.9437256,9.50420523 C18.3537256,8.83420521 17.1937242,8.50420523 15.5037241,8.50420523 L7.50372457,8.50420523 Z" id="Vector"></path>
                    <path d="M14.9237246,12.9042048 C14.3637246,12.9042048 13.9137244,12.4542049 13.9137244,11.9042048 C13.9137244,11.3542048 14.3637244,10.9042048 14.9137244,10.9042048 C15.4637244,10.9042048 15.9137244,11.3542048 15.9137244,11.9042048 C15.9137244,12.4542049 15.4737247,12.9042048 14.9237246,12.9042048 Z" id="Vector"></path>
                    <path d="M7.92372465,12.9042048 C7.36372465,12.9042048 6.91372442,12.4542049 6.91372442,11.9042048 C6.91372442,11.3542048 7.36372441,10.9042048 7.91372442,10.9042048 C8.46372443,10.9042048 8.91372442,11.3542048 8.91372442,11.9042048 C8.91372442,12.4542049 8.47372466,12.9042048 7.92372465,12.9042048 Z" id="Vector"></path>
                </g>
            </g>
        </g>
    </g>
</svg>