<?xml version="1.0" encoding="UTF-8"?>
<svg width="24px" height="24px" viewBox="0 0 24 24" version="1.1" xmlns="http://www.w3.org/2000/svg" xmlns:xlink="http://www.w3.org/1999/xlink">
    <title>Icon/User-add/Bulk</title>
    <defs>
        <path d="M5,0 L59,0 C61.7614237,-8.8817842e-16 64,2.23857625 64,5 L64,203 C64,205.761424 61.7614237,208 59,208 L5,208 C2.23857625,208 0,205.761424 0,203 L0,5 C0,2.23857625 2.23857625,0 5,0 Z" id="path-1"></path>
        <path d="M0,0 L24,0 L24,24 L0,24 L0,0 Z" id="path-2"></path>
    </defs>
    <g id="Icons" stroke="none" stroke-width="1" fill="none" fill-rule="evenodd">
        <g id="Basic-Users" transform="translate(-376, -330)" fill="CURRENTCOLOR" fill-rule="nonzero">
            <g id="User-add" transform="translate(356, 166)" xlink:href="#path-1">
                <g id="Icon/User-add/Bulk" transform="translate(20, 164)" xlink:href="#path-2">
                    <path d="M21.0899963,21.5 C21.0899963,21.78 20.8699963,22 20.5899963,22 L3.41000366,22 C3.13000366,22 2.91000366,21.78 2.91000366,21.5 C2.91000366,17.3600001 6.98999977,14 12,14 C13.03,14 14.0300122,14.1399731 14.9500122,14.4099731 C14.3600122,15.1099731 14,16.02 14,17 C14,17.75 14.2099866,18.4599975 14.5799866,19.0599976 C14.7799866,19.3999976 15.0399963,19.7099707 15.3399963,19.9699707 C16.0399963,20.6099707 16.97,21 18,21 C19.12,21 20.1300061,20.5399878 20.8500061,19.7999878 C21.0100061,20.3399878 21.0899963,20.91 21.0899963,21.5 Z" id="Vector" opacity="0.400000006"></path>
                    <path d="M20.9700012,14.3300171 C20.2500012,13.5100171 19.1799999,13 18,13 C16.88,13 15.8600049,13.460022 15.1300049,14.210022 C14.4300049,14.930022 14,15.92 14,17 C14,17.75 14.2099866,18.4599975 14.5799866,19.0599976 C14.7799866,19.3999976 15.0399963,19.7099707 15.3399963,19.9699707 C16.0399963,20.6099707 16.97,21 18,21 C19.46,21 20.7300134,20.2199975 21.4200134,19.0599976 C21.6300134,18.7199976 21.7900049,18.3299927 21.8800049,17.9299927 C21.9600049,17.6299927 22,17.32 22,17 C22,15.98 21.6100012,15.0400171 20.9700012,14.3300171 Z M19.5,17.7299805 L18.75,17.7299805 L18.75,18.5100098 C18.75,18.9200098 18.41,19.2600098 18,19.2600098 C17.59,19.2600098 17.25,18.9200098 17.25,18.5100098 L17.25,17.7299805 L16.5,17.7299805 C16.09,17.7299805 15.75,17.3899805 15.75,16.9799805 C15.75,16.5699805 16.09,16.2299805 16.5,16.2299805 L17.25,16.2299805 L17.25,15.5200195 C17.25,15.1100195 17.59,14.7700195 18,14.7700195 C18.41,14.7700195 18.75,15.1100195 18.75,15.5200195 L18.75,16.2299805 L19.5,16.2299805 C19.91,16.2299805 20.25,16.5699805 20.25,16.9799805 C20.25,17.3899805 19.91,17.7299805 19.5,17.7299805 Z" id="Vector"></path>
                    <path d="M17,7 C17,9.76142383 14.7614238,12 12,12 C9.23857617,12 7,9.76142383 7,7 C7,4.23857617 9.23857617,2 12,2 C14.7614238,2 17,4.23857617 17,7 Z" id="Vector"></path>
                </g>
            </g>
        </g>
    </g>
</svg>