<?xml version="1.0" encoding="UTF-8"?>
<svg width="24px" height="24px" viewBox="0 0 24 24" version="1.1" xmlns="http://www.w3.org/2000/svg" xmlns:xlink="http://www.w3.org/1999/xlink">
    <title>Icon/User-add/Outline</title>
    <defs>
        <path d="M5,0 L59,0 C61.7614237,-8.8817842e-16 64,2.23857625 64,5 L64,203 C64,205.761424 61.7614237,208 59,208 L5,208 C2.23857625,208 0,205.761424 0,203 L0,5 C0,2.23857625 2.23857625,0 5,0 Z" id="path-1"></path>
        <path d="M0,0 L24,0 L24,24 L0,24 L0,0 Z" id="path-2"></path>
    </defs>
    <g id="Icons" stroke="none" stroke-width="1" fill="none" fill-rule="evenodd">
        <g id="Basic-Users" transform="translate(-376, -186)" fill="CURRENTCOLOR" fill-rule="nonzero">
            <g id="User-add" transform="translate(356, 166)" xlink:href="#path-1">
                <g id="Icon/User-add/Outline" transform="translate(20, 20)" xlink:href="#path-2">
                    <path d="M16.25,7 C16.25,4.65278983 14.3472102,2.75 12,2.75 C9.65278983,2.75 7.75,4.65278983 7.75,7 C7.75,9.34721017 9.65278983,11.25 12,11.25 C14.3472102,11.25 16.25,9.34721017 16.25,7 Z M17.75,7 C17.75,10.1756375 15.1756375,12.75 12,12.75 C8.82436252,12.75 6.25,10.1756375 6.25,7 C6.25,3.82436252 8.82436252,1.25 12,1.25 C15.1756375,1.25 17.75,3.82436252 17.75,7 Z" id="Vector-(Stroke)"></path>
                    <path d="M2.66000366,22 C2.66000366,17.5791912 6.99703741,14.25 11.9998474,14.25 C13.0273359,14.25 14.0249329,14.3895643 14.9598083,14.6474609 C15.3587828,14.7577816 15.5932494,15.1702353 15.4832458,15.5693359 C15.3730945,15.9686348 14.9596931,16.2029248 14.5603943,16.0927734 C13.7553303,15.8707074 12.8922805,15.75 11.9998474,15.75 C7.52279854,15.7500666 4.16000366,18.6808918 4.16000366,22 C4.16000366,22.4142136 3.82421723,22.75 3.41000366,22.75 C2.99579009,22.75 2.66000366,22.4142136 2.66000366,22 Z" id="Vector-(Stroke)"></path>
                    <path d="M21.25,18 C21.25,17.1739315 20.9346703,16.4106655 20.4130859,15.8320313 L20.40625,15.8251953 C19.8270087,15.1655038 18.9617057,14.75 18,14.75 C17.0889648,14.75 16.2604285,15.1237035 15.6669922,15.7333984 C15.0991252,16.3178304 14.75,17.1217571 14.75,18 C14.75,18.5332726 14.8800821,19.0396478 15.1123047,19.4814453 L15.21875,19.6660156 L15.2265625,19.6796875 C15.3447532,19.8806076 15.4903427,20.0703127 15.6572266,20.2402344 L15.8310547,20.4033203 L15.8457031,20.4160156 C16.4125291,20.9342564 17.1640602,21.25 18,21.25 C19.1858164,21.25 20.2155623,20.6178036 20.7753906,19.6767578 L20.7822266,19.6660156 C20.9484501,19.3968816 21.0766866,19.0843971 21.1484375,18.765625 L21.1552734,18.7363281 C21.2178849,18.5014019 21.25,18.2566364 21.25,18 Z M22.75,18 C22.75,18.3730889 22.7025597,18.7379268 22.6103516,19.09375 L22.6113281,19.0947266 C22.5030856,19.5757104 22.3122188,20.0434126 22.0585938,20.4541016 L22.0576172,20.453125 C21.2360503,21.8263518 19.7298278,22.75 18,22.75 C16.782948,22.75 15.68017,22.2901437 14.8486328,21.5361328 C14.492843,21.2277086 14.1835648,20.8597093 13.9423828,20.453125 C13.5002565,19.7361451 13.25,18.8905911 13.25,18 C13.25,16.7185789 13.7610254,15.5420358 14.5927734,14.6865234 C15.459317,13.7963983 16.6711867,13.25 18,13.25 C19.3947024,13.25 20.6657012,13.8522599 21.5263672,14.828125 L21.5273438,14.828125 C22.2856101,15.6694585 22.75,16.786203 22.75,18 Z" id="Vector-(Stroke)"></path>
                    <path d="M19.4902344,17.2299805 C19.9042235,17.2302442 20.2402344,17.5659297 20.2402344,17.9799805 C20.2402344,18.3940313 19.9042235,18.7297167 19.4902344,18.7299805 L16.5097656,18.7299805 C16.0955521,18.7299805 15.7597656,18.394194 15.7597656,17.9799805 C15.7597656,17.5657669 16.0955521,17.2299805 16.5097656,17.2299805 L19.4902344,17.2299805 Z" id="Vector-(Stroke)"></path>
                    <path d="M17.25,19.5102539 L17.25,16.5200195 C17.25,16.105806 17.5857864,15.7700195 18,15.7700195 C18.4142136,15.7700195 18.75,16.105806 18.75,16.5200195 L18.75,19.5102539 C18.7498681,19.9243553 18.4141322,20.2602539 18,20.2602539 C17.5858678,20.2602539 17.2501319,19.9243553 17.25,19.5102539 Z" id="Vector-(Stroke)"></path>
                </g>
            </g>
        </g>
    </g>
</svg>