<?xml version="1.0" encoding="UTF-8"?>
<svg width="24px" height="24px" viewBox="0 0 24 24" version="1.1" xmlns="http://www.w3.org/2000/svg" xmlns:xlink="http://www.w3.org/1999/xlink">
    <title>Icon/Sun-Fog/Bold</title>
    <defs>
        <path d="M5,0 L59,0 C61.7614237,-8.8817842e-16 64,2.23857625 64,5 L64,203 C64,205.761424 61.7614237,208 59,208 L5,208 C2.23857625,208 0,205.761424 0,203 L0,5 C0,2.23857625 2.23857625,0 5,0 Z" id="path-1"></path>
        <path d="M0,0 L24,0 L24,24 L0,24 L0,0 Z" id="path-2"></path>
    </defs>
    <g id="Icons" stroke="none" stroke-width="1" fill="none" fill-rule="evenodd">
        <g id="Weather" transform="translate(-376, -282)" fill-rule="nonzero">
            <g id="sun-fog" transform="translate(356, 166)" xlink:href="#path-1">
                <g id="Icon/Sun-Fog/Bold" transform="translate(20, 116)" xlink:href="#path-2">
                    <use fill="#FFFFFF" fill-rule="evenodd" xlink:href="#path-2"></use>
                    <path d="M18.4799995,13.25 C18.7599995,13.25 18.9999995,13.0099995 18.9799995,12.7299995 C18.7099995,9.09999943 15.6900001,6.25 12,6.25 C8.30999994,6.25 5.28999985,9.09999943 5.01999984,12.7299995 C4.99999984,13.0099995 5.23999986,13.25 5.51999986,13.25 L18.4799995,13.25 Z" id="Vector" fill="CURRENTCOLOR" fill-rule="nonzero"></path>
                    <path d="M22,14 L21.9200001,14 C21.3700001,14 20.9200001,13.55 20.9200001,13 C20.9200001,12.45 21.3700001,12 21.9200001,12 C22.4700001,12 22.9599991,12.45 22.9599991,13 C22.9599991,13.55 22.55,14 22,14 Z M2.07999992,14 L2,14 C1.44999999,14 1,13.55 1,13 C1,12.45 1.44999999,12 2,12 C2.55000001,12 3.03999996,12.45 3.03999996,13 C3.03999996,13.55 2.62999994,14 2.07999992,14 Z M19.0100002,6.98999977 C18.7500002,6.98999977 18.5,6.88999981 18.2999992,6.69999981 C17.9099993,6.30999982 17.9099993,5.67999995 18.2999992,5.28999996 L18.4300003,5.15999985 C18.8200003,4.76999986 19.4500002,4.76999986 19.8400002,5.15999985 C20.2300001,5.54999983 20.2300001,6.18000019 19.8400002,6.57000017 L19.7099991,6.69999981 C19.5199991,6.88999981 19.2700002,6.98999977 19.0100002,6.98999977 Z M4.98999977,6.98999977 C4.72999978,6.98999977 4.48000021,6.88999981 4.28000021,6.69999981 L4.1500001,6.55999994 C3.76000011,6.16999996 3.76000011,5.54000008 4.1500001,5.1500001 C4.54000008,4.76000011 5.16999996,4.76000011 5.55999994,5.1500001 L5.69000006,5.28000021 C6.08000004,5.6700002 6.08000004,6.30000007 5.69000006,6.69000006 C5.5,6.89000006 5.23999977,6.98999977 4.98999977,6.98999977 Z M12,4.03999996 C11.45,4.03999996 11,3.62999994 11,3.07999992 L11,3 C11,2.44999999 11.45,2 12,2 C12.55,2 13,2.44999999 13,3 C13,3.55000001 12.55,4.03999996 12,4.03999996 Z" id="Vector" fill="CURRENTCOLOR" fill-rule="nonzero"></path>
                    <path d="M20,16.75 L4,16.75 C3.59,16.75 3.25,16.41 3.25,16 C3.25,15.59 3.59,15.25 4,15.25 L20,15.25 C20.41,15.25 20.75,15.59 20.75,16 C20.75,16.41 20.41,16.75 20,16.75 Z" id="Vector" fill="CURRENTCOLOR" fill-rule="nonzero"></path>
                    <path d="M18,19.75 L6,19.75 C5.59,19.75 5.25,19.41 5.25,19 C5.25,18.59 5.59,18.25 6,18.25 L18,18.25 C18.41,18.25 18.75,18.59 18.75,19 C18.75,19.41 18.41,19.75 18,19.75 Z" id="Vector" fill="CURRENTCOLOR" fill-rule="nonzero"></path>
                    <path d="M15,22.75 L9,22.75 C8.59,22.75 8.25,22.41 8.25,22 C8.25,21.59 8.59,21.25 9,21.25 L15,21.25 C15.41,21.25 15.75,21.59 15.75,22 C15.75,22.41 15.41,22.75 15,22.75 Z" id="Vector" fill="CURRENTCOLOR" fill-rule="nonzero"></path>
                </g>
            </g>
        </g>
    </g>
</svg>
