<?xml version="1.0" encoding="UTF-8"?>
<svg width="24px" height="24px" viewBox="0 0 24 24" version="1.1" xmlns="http://www.w3.org/2000/svg" xmlns:xlink="http://www.w3.org/1999/xlink">
    <title>Icon/Sun-Fog/Bulk</title>
    <defs>
        <path d="M5,0 L59,0 C61.7614237,-8.8817842e-16 64,2.23857625 64,5 L64,203 C64,205.761424 61.7614237,208 59,208 L5,208 C2.23857625,208 0,205.761424 0,203 L0,5 C0,2.23857625 2.23857625,0 5,0 Z" id="path-1"></path>
        <path d="M0,0 L24,0 L24,24 L0,24 L0,0 Z" id="path-2"></path>
    </defs>
    <g id="Icons" stroke="none" stroke-width="1" fill="none" fill-rule="evenodd">
        <g id="Weather" transform="translate(-376, -330)" fill-rule="nonzero">
            <g id="sun-fog" transform="translate(356, 166)" xlink:href="#path-1">
                <g id="Icon/Sun-Fog/Bulk" transform="translate(20, 164)" xlink:href="#path-2">
                    <use fill="#FFFFFF" fill-rule="evenodd" xlink:href="#path-2"></use>
                    <g id="Group" fill-rule="evenodd" stroke-width="1" transform="translate(5.0189, 6.25)" fill="#292D32">
                        <path d="M13.4611273,7 C13.7411273,7 13.9811273,6.75999573 13.9611273,6.47999573 C13.6911273,2.85999584 10.6711473,0 6.98114729,0 C3.29114723,0 0.27116669,2.84999561 0.00116667908,6.47999573 C-0.0188333205,6.75999573 0.2211667,7 0.501166701,7 L13.4611273,7 Z" id="Vector" fill-rule="nonzero"></path>
                    </g>
                    <path d="M22,14 L21.9199829,14 C21.3699829,14 20.9199829,13.55 20.9199829,13 C20.9199829,12.45 21.3699829,12 21.9199829,12 C22.4699829,12 22.960022,12.45 22.960022,13 C22.960022,13.55 22.55,14 22,14 Z M2.08001709,14 L2,14 C1.44999999,14 1,13.55 1,13 C1,12.45 1.44999999,12 2,12 C2.55000001,12 3.03997803,12.45 3.03997803,13 C3.03997803,13.55 2.6300171,14 2.08001709,14 Z M19.0100098,6.99000549 C18.7500098,6.99000549 18.4999878,6.88999695 18.2999878,6.69999695 C17.9099878,6.30999696 17.9099878,5.67999327 18.2999878,5.28999329 L18.4299927,5.16000366 C18.8199927,4.77000368 19.4500269,4.77000368 19.8400269,5.16000366 C20.2300268,5.55000365 20.2300268,6.18000734 19.8400269,6.57000732 L19.710022,6.69999695 C19.520022,6.88999695 19.2700098,6.99000549 19.0100098,6.99000549 Z M4.98999023,6.99000549 C4.72999024,6.99000549 4.4800293,6.88999695 4.2800293,6.69999695 L4.15002441,6.57000732 C3.76002443,6.18000734 3.76002443,5.55000365 4.15002441,5.16000366 C4.5400244,4.77000368 5.16999757,4.77000368 5.55999756,5.16000366 L5.69000244,5.28999329 C6.08000243,5.67999327 6.08000243,6.30999696 5.69000244,6.69999695 C5.5,6.88999695 5.23999023,6.99000549 4.98999023,6.99000549 Z M12,4.03999329 C11.45,4.03999329 11,3.63000184 11,3.08000183 L11,3 C11,2.44999999 11.45,2 12,2 C12.55,2 13,2.44999999 13,3 C13,3.55000001 12.55,4.03999329 12,4.03999329 Z" id="Vector" fill="#292D32" fill-rule="nonzero"></path>
                    <path d="M20,16.75 L4,16.75 C3.59,16.75 3.25,16.41 3.25,16 C3.25,15.59 3.59,15.25 4,15.25 L20,15.25 C20.41,15.25 20.75,15.59 20.75,16 C20.75,16.41 20.41,16.75 20,16.75 Z" id="Vector" fill="CURRENTCOLOR" fill-rule="nonzero" opacity="0.400000006"></path>
                    <path d="M18,19.75 L6,19.75 C5.59,19.75 5.25,19.41 5.25,19 C5.25,18.59 5.59,18.25 6,18.25 L18,18.25 C18.41,18.25 18.75,18.59 18.75,19 C18.75,19.41 18.41,19.75 18,19.75 Z" id="Vector" fill="CURRENTCOLOR" fill-rule="nonzero" opacity="0.400000006"></path>
                    <path d="M15,22.75 L9,22.75 C8.59,22.75 8.25,22.41 8.25,22 C8.25,21.59 8.59,21.25 9,21.25 L15,21.25 C15.41,21.25 15.75,21.59 15.75,22 C15.75,22.41 15.41,22.75 15,22.75 Z" id="Vector" fill="CURRENTCOLOR" fill-rule="nonzero" opacity="0.400000006"></path>
                </g>
            </g>
        </g>
    </g>
</svg>
