<?xml version="1.0" encoding="UTF-8"?>
<svg width="24px" height="24px" viewBox="0 0 24 24" version="1.1" xmlns="http://www.w3.org/2000/svg" xmlns:xlink="http://www.w3.org/1999/xlink">
    <title>Icon/Sun-Fog/Linear</title>
    <defs>
        <path d="M5,0 L59,0 C61.7614237,-8.8817842e-16 64,2.23857625 64,5 L64,203 C64,205.761424 61.7614237,208 59,208 L5,208 C2.23857625,208 0,205.761424 0,203 L0,5 C0,2.23857625 2.23857625,0 5,0 Z" id="path-1"></path>
        <path d="M0,0 L24,0 L24,24 L0,24 L0,0 Z" id="path-2"></path>
    </defs>
    <g id="Icons" stroke="none" stroke-width="1" fill="none" fill-rule="evenodd">
        <g id="Weather" transform="translate(-376, -234)" fill-rule="nonzero">
            <g id="sun-fog" transform="translate(356, 166)" xlink:href="#path-1">
                <g id="Icon/Sun-Fog/Linear" transform="translate(20, 68)" xlink:href="#path-2">
                    <use fill="#FFFFFF" fill-rule="evenodd" xlink:href="#path-2"></use>
                    <path d="M18.5,12 C18.5,8.41000009 15.5899999,5.5 12,5.5 C8.41000009,5.5 5.5,8.41000009 5.5,12" id="Vector" stroke="#292D32" stroke-width="1.5" stroke-linecap="round" stroke-linejoin="round" fill-rule="nonzero"></path>
                    <path d="M19.0100098,4.98999023 L19.1400146,4.85998535 L19.0100098,4.98999023 Z M12,2.07998657 L12,2 L12,2.07998657 Z M2.08001709,12 L2,12 L2.08001709,12 Z M22,12 L21.9199829,12 L22,12 Z M4.98999023,4.98999023 L4.85998535,4.85998535" id="Vector" stroke="#292D32" stroke-width="1.5" stroke-linecap="round" stroke-linejoin="round" fill-rule="nonzero"></path>
                    <line x1="4" y1="15" x2="20" y2="15" id="Vector" stroke="#292D32" stroke-width="1.5" stroke-linecap="round" stroke-linejoin="round" fill-rule="nonzero"></line>
                    <line x1="6" y1="18" x2="18" y2="18" id="Vector" stroke="#292D32" stroke-width="1.5" stroke-linecap="round" stroke-linejoin="round" fill-rule="nonzero"></line>
                    <line x1="9" y1="21" x2="15" y2="21" id="Vector" stroke="#292D32" stroke-width="1.5" stroke-linecap="round" stroke-linejoin="round" fill-rule="nonzero"></line>
                </g>
            </g>
        </g>
    </g>
</svg>