<?xml version="1.0" encoding="UTF-8"?>
<svg width="24px" height="24px" viewBox="0 0 24 24" version="1.1" xmlns="http://www.w3.org/2000/svg" xmlns:xlink="http://www.w3.org/1999/xlink">
    <title>Icon/Notification-bell-rotation/Bulk</title>
    <defs>
        <path d="M5,0 L59,0 C61.7614237,-8.8817842e-16 64,2.23857625 64,5 L64,203 C64,205.761424 61.7614237,208 59,208 L5,208 C2.23857625,208 0,205.761424 0,203 L0,5 C0,2.23857625 2.23857625,0 5,0 Z" id="path-1"></path>
        <path d="M0,0 L24,0 L24,24 L0,24 L0,0 Z" id="path-2"></path>
    </defs>
    <g id="Icons" stroke="none" stroke-width="1" fill="none" fill-rule="evenodd">
        <g id="Basic-System-feedback" transform="translate(-376, -330)" fill="CURRENTCOLOR" fill-rule="nonzero">
            <g id="Botification-bell-rotation" transform="translate(356, 166)" xlink:href="#path-1">
                <g id="Icon/Notification-bell-rotation/Bulk" transform="translate(20, 164)" xlink:href="#path-2">
                    <path d="M9.50274211,19.5140498 C10.4821059,20.4934136 11.9055781,20.7362894 13.0382762,20.2211566 L8.79563519,15.9785156 C8.28050241,17.1112137 8.52337819,18.5346859 9.50274211,19.5140498 Z" id="Ellipse-218"></path>
                    <path d="M4.71029812,11.8934727 L12.8804731,20.0636482 C14.1733327,21.3565078 16.2117794,20.794044 16.347352,19.1070385 C16.4073705,18.3602004 16.6742371,17.6700647 17.1190691,17.111331 L19.5889101,14.0090714 C20.9206908,12.3362801 21.0319762,9.98196626 20.0357571,7.94837856 L20.1090946,7.87504053 C20.9955638,6.98857135 20.9955636,5.55132103 20.1090946,4.66485208 C19.2226254,3.77838284 17.7853749,3.77838254 16.8989058,4.66485173 L16.8255672,4.73818964 C14.7919796,3.74197084 12.4376653,3.8532548 10.764874,5.18503535 L7.66261411,7.65487671 C7.10388035,8.09970862 6.41374564,8.36657557 5.66690731,8.42659378 C3.97990227,8.56216678 3.41743821,10.6006128 4.71029812,11.8934727 Z" id="Vector" opacity="0.400000006"></path>
                </g>
            </g>
        </g>
    </g>
</svg>