<?xml version="1.0" encoding="UTF-8"?>
<svg width="24px" height="24px" viewBox="0 0 24 24" version="1.1" xmlns="http://www.w3.org/2000/svg" xmlns:xlink="http://www.w3.org/1999/xlink">
    <title>Icon/Notification-bell-rotation/Linear</title>
    <defs>
        <path d="M5,0 L59,0 C61.7614237,-8.8817842e-16 64,2.23857625 64,5 L64,203 C64,205.761424 61.7614237,208 59,208 L5,208 C2.23857625,208 0,205.761424 0,203 L0,5 C0,2.23857625 2.23857625,0 5,0 Z" id="path-1"></path>
        <path d="M0,0 L24,0 L24,24 L0,24 L0,0 Z" id="path-2"></path>
    </defs>
    <g id="Icons" stroke="none" stroke-width="1" fill="none" fill-rule="evenodd" stroke-linecap="round">
        <g id="Basic-System-feedback" transform="translate(-376, -234)" fill-rule="nonzero" stroke="CURRENTCOLOR">
            <g id="Botification-bell-rotation" transform="translate(356, 166)" xlink:href="#path-1">
                <g id="Icon/Notification-bell-rotation/Linear" transform="translate(20, 68)" xlink:href="#path-2" fill-rule="evenodd">
                    <g id="Vector" transform="translate(4, 3)">
                        <path d="M0.710298061,7.89347267 L8.88047314,16.0636482 C10.1733327,17.3565078 12.2117794,16.794044 12.347352,15.1070385 C12.4073705,14.3602004 12.6742371,13.6700647 13.1190691,13.111331 L15.5889101,10.0090714 C16.9206908,8.33628011 17.0319762,5.98196626 16.0357571,3.94837856 L16.1090946,3.87504053 C16.9955638,2.98857135 16.9955636,1.55132103 16.1090946,0.664852083 C15.2226254,-0.221617162 13.7853749,-0.22161746 12.8989058,0.664851725 L12.8255672,0.738189638 C10.7919796,-0.258029163 8.43766534,-0.146745205 6.76487398,1.18503535 L3.66261411,3.65487671 C3.10388035,4.09970862 2.41374564,4.36657557 1.66690731,4.42659378 C-0.0200977325,4.56216678 -0.582561851,6.60061276 0.710298061,7.89347267 Z" stroke-width="1.5" fill-rule="nonzero"></path>
                        <path d="M7.6238122,17.635416 C6.49111414,18.1505488 5.06764209,17.9076723 4.08827829,16.9283085 C3.10891426,15.9489444 2.86603844,14.5254726 3.38117123,13.3927746" stroke-width="1.5" fill-rule="nonzero"></path>
                    </g>
                </g>
            </g>
        </g>
    </g>
</svg>