<?xml version="1.0" encoding="UTF-8"?>
<svg width="24px" height="24px" viewBox="0 0 24 24" version="1.1" xmlns="http://www.w3.org/2000/svg" xmlns:xlink="http://www.w3.org/1999/xlink">
    <title>Icon/Notification-bell-rotation/Outline</title>
    <defs>
        <path d="M5,0 L59,0 C61.7614237,-8.8817842e-16 64,2.23857625 64,5 L64,203 C64,205.761424 61.7614237,208 59,208 L5,208 C2.23857625,208 0,205.761424 0,203 L0,5 C0,2.23857625 2.23857625,0 5,0 Z" id="path-1"></path>
        <path d="M0,0 L24,0 L24,24 L0,24 L0,0 Z" id="path-2"></path>
    </defs>
    <g id="Icons" stroke="none" stroke-width="1" fill="none" fill-rule="evenodd">
        <g id="Basic-System-feedback" transform="translate(-376, -186)" fill="CURRENTCOLOR" fill-rule="nonzero">
            <g id="Botification-bell-rotation" transform="translate(356, 166)" xlink:href="#path-1">
                <g id="Icon/Notification-bell-rotation/Outline" transform="translate(20, 20)" xlink:href="#path-2">
                    <path d="M6.69824219,16.082031 C6.8697255,15.7051534 7.31445041,15.538688 7.69140625,15.7099607 C8.06845853,15.881438 8.23495385,16.3260725 8.06347656,16.7031248 C7.68280947,17.5402006 7.85126126,18.6315345 8.61816406,19.3984373 C9.38506854,20.1653358 10.4764023,20.3337946 11.3134761,19.9531248 C11.6905284,19.7816475 12.1351629,19.9481428 12.3066401,20.3251951 C12.4778987,20.7021449 12.3114368,21.1468762 11.9345698,21.3183591 C10.5062575,21.9679325 8.74942946,21.6507905 7.55761719,20.4589841 C6.36580431,19.2671713 6.04866761,17.5103459 6.69824219,16.082031 Z M16.6884761,2.85742182 C17.8717166,1.96465248 19.5616214,2.05673903 20.639648,3.13476557 C21.7174298,4.21277827 21.8086557,5.90180957 20.9160151,7.0849607 C21.7889623,9.22809887 21.6127939,11.6715932 20.1757808,13.4765623 L17.7060542,16.5781248 C17.3588378,17.0142479 17.1434339,17.561148 17.0947261,18.1669919 C17.0001525,19.3438237 16.2201467,20.1572819 15.2470698,20.425781 C14.2885591,20.6901434 13.1801658,20.4232575 12.3505855,19.5937498 L4.17968744,11.4238279 C3.35011041,10.5941646 3.08413626,9.48493749 3.34863273,8.52636695 C3.61718825,7.55352718 4.42992663,6.77340408 5.60644531,6.6787107 C6.21223229,6.63002781 6.75919843,6.41549638 7.1953125,6.06835937 L10.2978516,3.59863281 C12.1026487,2.16175687 14.5454855,1.98475903 16.6884761,2.85742182 Z M19.5791011,4.1953125 C18.9855784,3.60178983 18.0232758,3.60189718 17.429687,4.1953125 L17.3554683,4.26855469 C17.1289209,4.49490577 16.7837793,4.55275904 16.4960933,4.41210937 C14.676506,3.52072561 12.6408068,3.65049005 11.2324219,4.77148437 L8.12988281,7.2412107 C7.44856459,7.78363734 6.61435294,8.10248233 5.7265625,8.17382789 C5.21662134,8.2149529 4.90518589,8.52262986 4.79394519,8.92578101 C4.67881499,9.34342396 4.77726132,9.900224 5.24023426,10.363281 L13.4111323,18.5332029 C13.8742934,18.9962932 14.4309528,19.0947414 14.8486323,18.9794919 C15.2517421,18.8681525 15.5586198,18.5569245 15.5996089,18.0468748 C15.6709573,17.1592214 15.9899354,16.3257849 16.5322261,15.644531 L19.0019526,12.5419919 C20.1232351,11.1335983 20.2537594,9.09807241 19.3623042,7.27832007 C19.2212714,6.99042901 19.2791754,6.64465353 19.5058589,6.41796851 L19.5791011,6.34472632 C20.1724387,5.75121534 20.1723897,4.78885365 19.5791011,4.1953125 Z" id="Vector-(Stroke)"></path>
                </g>
            </g>
        </g>
    </g>
</svg>