<?xml version="1.0" encoding="UTF-8"?>
<svg width="24px" height="24px" viewBox="0 0 24 24" version="1.1" xmlns="http://www.w3.org/2000/svg" xmlns:xlink="http://www.w3.org/1999/xlink">
    <title>Icon/Notification-bell-rotation/Bold</title>
    <defs>
        <path d="M5,0 L59,0 C61.7614237,-8.8817842e-16 64,2.23857625 64,5 L64,203 C64,205.761424 61.7614237,208 59,208 L5,208 C2.23857625,208 0,205.761424 0,203 L0,5 C0,2.23857625 2.23857625,0 5,0 Z" id="path-1"></path>
        <path d="M0,0 L24,0 L24,24 L0,24 L0,0 Z" id="path-2"></path>
    </defs>
    <g id="Icons" stroke="none" stroke-width="1" fill="none" fill-rule="evenodd">
        <g id="Basic-System-feedback" transform="translate(-376, -282)" fill="CURRENTCOLOR" fill-rule="nonzero">
            <g id="Botification-bell-rotation" transform="translate(356, 166)" xlink:href="#path-1">
                <g id="Icon/Notification-bell-rotation/Bold" transform="translate(20, 116)" xlink:href="#path-2">
                    <path d="M7.5487234,16.2864483 C7.81244111,16.1191149 8.15695679,16.1571621 8.37780452,16.3780099 L11.6283836,19.6285889 C11.847024,19.8472292 11.88975,20.1862211 11.7322006,20.4522762 C11.6615882,20.5715199 11.5568657,20.6684527 11.4268236,20.7163515 C10.3297839,21.1204276 9.01158774,20.8517478 8.08819145,19.9283516 C7.16101748,19.0011778 6.89392869,17.6759679 7.30518501,16.5762678 C7.35056382,16.4549247 7.43933514,16.355857 7.5487234,16.2864483 Z M16.8989058,3.66485175 C17.7853747,2.77838257 19.2226258,2.77838287 20.1090947,3.66485211 C20.9955636,4.55132106 20.9955636,5.98857144 20.1090947,6.87504056 L20.0357571,6.94837859 C21.0319768,8.98196605 20.9206906,11.3362799 19.5889102,13.0090714 L17.1190692,16.111331 C16.6742373,16.670065 16.4073706,17.3602009 16.3473521,18.1070385 C16.2117797,19.7940445 14.1733323,20.3565083 12.8804732,19.0636483 L4.71029812,10.8934727 C3.41743821,9.60061267 3.97990233,7.56216672 5.66690737,7.42659381 C6.4137457,7.36657575 7.10388047,7.09970859 7.66261417,6.65487674 L10.764874,4.18503538 C12.437665,2.85325482 14.7919799,2.74197087 16.8255673,3.73818967 Z" id="Combo-shape"></path>
                </g>
            </g>
        </g>
    </g>
</svg>