<?xml version="1.0" encoding="UTF-8"?>
<svg width="24px" height="24px" viewBox="0 0 24 24" version="1.1" xmlns="http://www.w3.org/2000/svg" xmlns:xlink="http://www.w3.org/1999/xlink">
    <title>Icon/Bag-tick/Bold</title>
    <defs>
        <path d="M5,0 L59,0 C61.7614237,-8.8817842e-16 64,2.23857625 64,5 L64,203 C64,205.761424 61.7614237,208 59,208 L5,208 C2.23857625,208 0,205.761424 0,203 L0,5 C0,2.23857625 2.23857625,0 5,0 Z" id="path-1"></path>
        <path d="M0,0 L24,0 L24,24 L0,24 L0,0 Z" id="path-2"></path>
    </defs>
    <g id="Icons" stroke="none" stroke-width="1" fill="none" fill-rule="evenodd">
        <g id="Shop" transform="translate(-480, -281)" fill-rule="nonzero">
            <g id="bag-tick" transform="translate(460, 165)" xlink:href="#path-1">
                <g id="Icon/Bag-tick/Bold" transform="translate(20, 116)" xlink:href="#path-2">
                    <path d="M18,6.5 L18,6.5 L19.3,6.6 C20.2,6.6 21.9,6.7 22,8.9 L22,9.1 C22,10.8 21.4,11.4 20.5,11.6 C20.2,11.7 19.9,11.7 19.6,11.7 L4.4,11.7 C4.1,11.7 3.8,11.7 3.5,11.6 C3.2,11.5 2.9,11.4 2.7,11.2 C2.2,10.7 2,10.1 2,9.1 C2,6.5 3.9,6.5 4.8,6.5 L6,6.5 L6,6.4 C6.1,3.7 8.5,1.3 11.4,1 C14.9,0.7 18,3.2 18,6.5 Z M11.6,3 C9.7,3.2 8.1,4.9 8,6.6 L16,6.6 L16,6.5 C16,4.5 14,2.8 11.6,3 Z" id="Combined-Shape" fill="CURRENTCOLOR" fill-rule="nonzero"></path>
                    <path d="M19,13 L4.9,13 C4.3,13 3.8,13.5 3.9,14.2 L4.7,19.3 C5,21 5.7,23 9.1,23 L14.7,23 C18.1,23 18.7,21.3 19,19.4 L20,14.2 C20.1,13.6 19.7,13 19,13 Z" id="Vector" fill="CURRENTCOLOR" fill-rule="evenodd"></path>
                    <g id="Group" stroke-width="1" fill-rule="evenodd" transform="translate(8.85, 15.85)" fill="#FFFFFF">
                        <path d="M6.05110258,0.241293667 C6.3320554,0.545659219 6.31307563,1.02015351 6.00871008,1.30110633 L2.75871008,4.30110633 C2.46291351,4.57414932 2.00431714,4.56498105 1.71966991,4.28033383 L0.219669914,2.78033383 C-0.0732233047,2.48744061 -0.0732233047,2.01256688 0.219669914,1.71967366 C0.512563133,1.42678044 0.987436867,1.42678044 1.28033009,1.71967366 L2.27078911,2.71013268 L4.99128992,0.19890116 C5.29565548,-0.0820516573 5.77014977,-0.0630718857 6.05110258,0.241293667 Z" id="Vector" fill-rule="nonzero"></path>
                    </g>
                </g>
            </g>
        </g>
    </g>
</svg>