<?xml version="1.0" encoding="UTF-8"?>
<svg width="24px" height="24px" viewBox="0 0 24 24" version="1.1" xmlns="http://www.w3.org/2000/svg" xmlns:xlink="http://www.w3.org/1999/xlink">
    <title>Icon/Bag-tick/Bulk</title>
    <defs>
        <path d="M5,0 L59,0 C61.7614237,-8.8817842e-16 64,2.23857625 64,5 L64,203 C64,205.761424 61.7614237,208 59,208 L5,208 C2.23857625,208 0,205.761424 0,203 L0,5 C0,2.23857625 2.23857625,0 5,0 Z" id="path-1"></path>
        <path d="M0,0 L24,0 L24,24 L0,24 L0,0 Z" id="path-2"></path>
    </defs>
    <g id="Icons" stroke="none" stroke-width="1" fill="none" fill-rule="evenodd">
        <g id="Shop" transform="translate(-480, -329)" fill-rule="nonzero">
            <g id="bag-tick" transform="translate(460, 165)" xlink:href="#path-1">
                <g id="Icon/Bag-tick/Bulk" transform="translate(20, 164)" xlink:href="#path-2">
                    <path d="M17.8,6.3 L17.8,7.7 C17.8,8.1 17.5,8.5 17,8.5 C16.5,8.5 16.2,8 16.2,7.6 L16.2,6.3 C16.2,4.1 14.1,2.3 11.5,2.6 C9.4,2.8 7.7,4.6 7.7,6.5 L7.7,7.5 C7.7,7.9 7.4,8.3 6.9,8.3 C6.4,8.3 6.2,7.8 6.2,7.4 L6.2,6.4 C6.2,3.7 8.6,1.2 11.4,1 C14.8,0.7 17.8,3.1 17.8,6.3 Z" id="Vector-Copy-2" fill="CURRENTCOLOR" fill-rule="evenodd"></path>
                    <path d="M19.2,6.3 L18.8,6.3 L16.8,6.3 L7.1,6.3 L5.1,6.3 L4.8,6.3 C3.9,6.3 2,6.3 2,8.9 C2,9.9 2.2,10.5 2.6,10.9 C2.8,11.1 3.1,11.3 3.4,11.3 C3.7,11.4 4,11.4 4.3,11.4 L19.6,11.4 C19.9,11.4 20.2,11.4 20.5,11.3 C21.3,11.1 22,10.5 22,8.8 C22,6.3 20.1,6.3 19.2,6.3 Z" id="Vector" fill="CURRENTCOLOR" fill-rule="evenodd" opacity="0.4"></path>
                    <path d="M19.6,11.5 L4.4,11.5 C4.1,11.5 3.8,11.5 3.5,11.4 L4.8,19.1 C5.1,20.8 5.8,22.8 9.2,22.8 L14.8,22.8 C18.2,22.8 18.8,21.1 19.1,19.2 L20.6,11.4 C20.2,11.4 19.9,11.5 19.6,11.5 Z" id="Vector_00000108307022605947955160000010677718834098077343_" fill="CURRENTCOLOR" fill-rule="evenodd"></path>
                    <path d="M14.9011026,16.0912899 C15.1820554,16.3956555 15.1630756,16.8701498 14.8587101,17.1511026 L11.6087101,20.1511026 C11.3129135,20.4241456 10.8543171,20.4149773 10.5696699,20.1303301 L9.06966991,18.6303301 C8.7767767,18.3374369 8.7767767,17.8625631 9.06966991,17.5696699 C9.36256313,17.2767767 9.83743687,17.2767767 10.1303301,17.5696699 L11.1207891,18.5601289 L13.8412899,16.0488974 C14.1456555,15.7679446 14.6201498,15.7869244 14.9011026,16.0912899 Z" id="Vector" fill="#FFFFFF" fill-rule="nonzero"></path>
                </g>
            </g>
        </g>
    </g>
</svg>