<?xml version="1.0" encoding="UTF-8"?>
<svg width="24px" height="24px" viewBox="0 0 24 24" version="1.1" xmlns="http://www.w3.org/2000/svg" xmlns:xlink="http://www.w3.org/1999/xlink">
    <title>Icon/Folder-Add/Bulk</title>
    <defs>
        <path d="M5,0 L59,0 C61.7614237,-8.8817842e-16 64,2.23857625 64,5 L64,203 C64,205.761424 61.7614237,208 59,208 L5,208 C2.23857625,208 0,205.761424 0,203 L0,5 C0,2.23857625 2.23857625,0 5,0 Z" id="path-1"></path>
        <path d="M0,0 L24,0 L24,24 L0,24 L0,0 Z" id="path-2"></path>
    </defs>
    <g id="Icons" stroke="none" stroke-width="1" fill="none" fill-rule="evenodd">
        <g id="Content-Managment" transform="translate(-272, -328)" fill-rule="nonzero">
            <g id="Folder-add-" transform="translate(252, 164)" xlink:href="#path-1">
                <g id="Icon/Folder-Add/Bulk" transform="translate(20, 164)" xlink:href="#path-2">
                    <path d="M21.7399998,9.43999958 L2,9.43999958 L2,6.42000008 C2,3.98000002 3.98000002,2 6.42000008,2 L8.75,2 C10.38,2 10.89,2.53000009 11.54,3.4000001 L12.9399996,5.26000023 C13.2499996,5.67000023 13.2899999,5.73000002 13.8699999,5.73000002 L16.6599998,5.73000002 C19.0299997,5.72000002 21.0499998,7.27999949 21.7399998,9.43999958 Z" id="Vector" fill="CURRENTCOLOR" opacity="0.400000006"></path>
                    <path d="M21.9899998,10.8400002 C21.9699998,10.3500001 21.8899998,9.88999957 21.7399998,9.43999958 L2,9.43999958 L2,16.6499996 C2,19.5999997 4.39999986,22 7.3499999,22 L16.6499996,22 C19.5999997,22 22,19.5999997 22,16.6499996 L22,11.0699997 C22,10.9999997 22,10.9100002 21.9899998,10.8400002 Z M14.5,16.25 L12.8100004,16.25 L12.8100004,18 C12.8100004,18.41 12.4700004,18.75 12.0600004,18.75 C11.6500004,18.75 11.3100004,18.41 11.3100004,18 L11.3100004,16.25 L9.5,16.25 C9.09,16.25 8.75,15.91 8.75,15.5 C8.75,15.09 9.09,14.75 9.5,14.75 L11.3100004,14.75 L11.3100004,13 C11.3100004,12.59 11.6500004,12.25 12.0600004,12.25 C12.4700004,12.25 12.8100004,12.59 12.8100004,13 L12.8100004,14.75 L14.5,14.75 C14.91,14.75 15.25,15.09 15.25,15.5 C15.25,15.91 14.91,16.25 14.5,16.25 Z" id="Vector" fill="CURRENTCOLOR"></path>
                    <polygon id="Vector" opacity="0" points="0 0 24 0 24 24 0 24"></polygon>
                </g>
            </g>
        </g>
    </g>
</svg>