<?xml version="1.0" encoding="UTF-8"?>
<svg width="24px" height="24px" viewBox="0 0 24 24" version="1.1" xmlns="http://www.w3.org/2000/svg" xmlns:xlink="http://www.w3.org/1999/xlink">
    <title>Icon/Folder-Add/Outline</title>
    <defs>
        <path d="M5,0 L59,0 C61.7614237,-8.8817842e-16 64,2.23857625 64,5 L64,203 C64,205.761424 61.7614237,208 59,208 L5,208 C2.23857625,208 0,205.761424 0,203 L0,5 C0,2.23857625 2.23857625,0 5,0 Z" id="path-1"></path>
        <path d="M0,0 L24,0 L24,24 L0,24 L0,0 Z" id="path-2"></path>
    </defs>
    <g id="Icons" stroke="none" stroke-width="1" fill="none" fill-rule="evenodd">
        <g id="Content-Managment" transform="translate(-272, -184)" fill-rule="nonzero">
            <g id="Folder-add-" transform="translate(252, 164)" xlink:href="#path-1">
                <g id="Icon/Folder-Add/Outline" transform="translate(20, 20)" xlink:href="#path-2">
                    <path d="M12.0600004,17.25 C11.6500004,17.25 11.3100004,16.91 11.3100004,16.5 L11.3100004,11.5 C11.3100004,11.09 11.6500004,10.75 12.0600004,10.75 C12.4700004,10.75 12.8100004,11.09 12.8100004,11.5 L12.8100004,16.5 C12.8100004,16.91 12.4700004,17.25 12.0600004,17.25 Z" id="Vector" fill="CURRENTCOLOR"></path>
                    <path d="M14.5,14.75 L9.5,14.75 C9.09,14.75 8.75,14.41 8.75,14 C8.75,13.59 9.09,13.25 9.5,13.25 L14.5,13.25 C14.91,13.25 15.25,13.59 15.25,14 C15.25,14.41 14.91,14.75 14.5,14.75 Z" id="Vector" fill="CURRENTCOLOR"></path>
                    <path d="M17,22.75 L7,22.75 C2.59000015,22.75 1.25,21.4099998 1.25,17 L1.25,7 C1.25,2.59000015 2.59000015,1.25 7,1.25 L8.5,1.25 C10.25,1.25 10.8,1.81999999 11.5,2.75 L13,4.75 C13.33,5.19 13.38,5.25 14,5.25 L17,5.25 C21.4099998,5.25 22.75,6.59000015 22.75,11 L22.75,17 C22.75,21.4099998 21.4099998,22.75 17,22.75 Z M7,2.75 C3.43000007,2.75 2.75,3.43000007 2.75,7 L2.75,17 C2.75,20.5699999 3.43000007,21.25 7,21.25 L17,21.25 C20.5699999,21.25 21.25,20.5699999 21.25,17 L21.25,11 C21.25,7.43000007 20.5699999,6.75 17,6.75 L14,6.75 C12.72,6.75 12.3000002,6.31000012 11.8000002,5.6500001 L10.3000002,3.6500001 C9.78000021,2.9600001 9.63,2.75 8.5,2.75 L7,2.75 L7,2.75 Z" id="Vector" fill="CURRENTCOLOR"></path>
                    <polygon id="Vector" opacity="0" points="0 0 24 0 24 24 0 24"></polygon>
                </g>
            </g>
        </g>
    </g>
</svg>