<?xml version="1.0" encoding="UTF-8"?>
<svg width="24px" height="24px" viewBox="0 0 24 24" version="1.1" xmlns="http://www.w3.org/2000/svg" xmlns:xlink="http://www.w3.org/1999/xlink">
    <title>Icon/Folder-Add/Bold</title>
    <defs>
        <path d="M5,0 L59,0 C61.7614237,-8.8817842e-16 64,2.23857625 64,5 L64,203 C64,205.761424 61.7614237,208 59,208 L5,208 C2.23857625,208 0,205.761424 0,203 L0,5 C0,2.23857625 2.23857625,0 5,0 Z" id="path-1"></path>
        <path d="M0,0 L24,0 L24,24 L0,24 L0,0 Z" id="path-2"></path>
    </defs>
    <g id="Icons" stroke="none" stroke-width="1" fill="none" fill-rule="evenodd">
        <g id="Content-Managment" transform="translate(-272, -280)" fill-rule="nonzero">
            <g id="Folder-add-" transform="translate(252, 164)" xlink:href="#path-1">
                <g id="Icon/Folder-Add/Bold" transform="translate(20, 116)" xlink:href="#path-2">
                    <path d="M21.6700001,9.25 L3,9.25 C2.44771525,9.25 2,8.80228475 2,8.25 L2,6.42000008 L2,6.42000008 C2,3.98000002 3.98000002,2 6.42000008,2 L8.73999977,2 C10.3699998,2 10.8799998,2.53000009 11.5299997,3.4000001 L12.9300003,5.26000023 C13.2400003,5.67000023 13.2799997,5.71999979 13.8599997,5.71999979 L16.6499996,5.71999979 C18.9599996,5.71999979 20.9300001,7.19000006 21.6700001,9.25 Z" id="Vector" fill="CURRENTCOLOR"></path>
                    <path d="M20.9833659,10.7496657 L3,10.7500011 C2.44772215,10.7500109 2.00001767,11.1977233 2.00001767,11.7500011 L2,16.650001 L2,16.650001 C2,19.6000011 4.39999986,22 7.3499999,22 L16.6499996,22 C19.5999997,22 22,19.6000011 22,16.650001 L21.9833778,11.746276 C21.9815102,11.1953108 21.5343342,10.749656 20.9833659,10.7496657 Z M14.5,16.7500014 L12.8100004,16.7500014 L12.8100004,18.5000014 C12.8100004,18.9100014 12.4700004,19.25 12.0600004,19.25 C11.6400004,19.25 11.3100004,18.9100014 11.3100004,18.5000014 L11.3100004,16.7500014 L9.5,16.7500014 C9.09,16.7500014 8.75,16.4100014 8.75,16.0000014 C8.75,15.5900014 9.09,15.2500014 9.5,15.2500014 L11.3100004,15.2500014 L11.3100004,13.500001 C11.3100004,13.090001 11.6400004,12.750001 12.0600004,12.750001 C12.4700004,12.750001 12.8100004,13.090001 12.8100004,13.500001 L12.8100004,15.2500014 L14.5,15.2500014 C14.91,15.2500014 15.25,15.5900014 15.25,16.0000014 C15.25,16.4100014 14.91,16.7500014 14.5,16.7500014 Z" id="Vector" fill="CURRENTCOLOR"></path>
                    <polygon id="Vector" opacity="0" transform="translate(12, 12) rotate(-180) translate(-12, -12)" points="0 0 24 0 24 24 0 24"></polygon>
                </g>
            </g>
        </g>
    </g>
</svg>