<?xml version="1.0" encoding="UTF-8"?>
<svg width="24px" height="24px" viewBox="0 0 24 24" version="1.1" xmlns="http://www.w3.org/2000/svg" xmlns:xlink="http://www.w3.org/1999/xlink">
    <title>Icon/Shopping-cart/Linear</title>
    <defs>
        <path d="M5,0 L59,0 C61.7614237,-8.8817842e-16 64,2.23857625 64,5 L64,203 C64,205.761424 61.7614237,208 59,208 L5,208 C2.23857625,208 0,205.761424 0,203 L0,5 C0,2.23857625 2.23857625,0 5,0 Z" id="path-1"></path>
        <path d="M0,0 L24,0 L24,24 L0,24 L0,0 Z" id="path-2"></path>
    </defs>
    <g id="Icons" stroke="none" stroke-width="1" fill="none" fill-rule="evenodd" stroke-linecap="round" stroke-linejoin="round">
        <g id="Shop" transform="translate(-64, -481)" fill-rule="nonzero" stroke="CURRENTCOLOR" stroke-width="1.5">
            <g id="shopping-cart" transform="translate(44, 413)" xlink:href="#path-1">
                <g id="Icon/Shopping-cart/Linear" transform="translate(20, 68)" xlink:href="#path-2">
                    <path d="M2,2 L3.74000549,2 C4.82000554,2 5.67000183,2.92999995 5.58000183,4 L4.75,13.9599915 C4.61,15.5899915 5.8999933,16.9899902 7.53999329,16.9899902 L18.1900024,16.9899902 C19.6300025,16.9899902 20.89,15.8100048 21,14.3800049 L21.5399933,6.88000488 C21.6599933,5.22000492 20.3999957,3.86999512 18.7299957,3.86999512 L5.82000732,3.86999512" id="Vector"></path>
                    <path d="M17.5,20.75 C17.5,21.440356 16.940356,22 16.25,22 C15.559644,22 15,21.440356 15,20.75 C15,20.059644 15.559644,19.5 16.25,19.5 C16.940356,19.5 17.5,20.059644 17.5,20.75 Z" id="Vector"></path>
                    <path d="M9.5,20.75 C9.5,21.440356 8.94035596,22 8.25,22 C7.55964404,22 7,21.440356 7,20.75 C7,20.059644 7.55964404,19.5 8.25,19.5 C8.94035596,19.5 9.5,20.059644 9.5,20.75 Z" id="Vector"></path>
                    <line x1="9" y1="8" x2="21" y2="8" id="Vector"></line>
                </g>
            </g>
        </g>
    </g>
</svg>