<?xml version="1.0" encoding="UTF-8"?>
<svg width="24px" height="24px" viewBox="0 0 24 24" version="1.1" xmlns="http://www.w3.org/2000/svg" xmlns:xlink="http://www.w3.org/1999/xlink">
    <title>Icon/Shopping-cart/Bulk</title>
    <defs>
        <path d="M5,0 L59,0 C61.7614237,-8.8817842e-16 64,2.23857625 64,5 L64,203 C64,205.761424 61.7614237,208 59,208 L5,208 C2.23857625,208 0,205.761424 0,203 L0,5 C0,2.23857625 2.23857625,0 5,0 Z" id="path-1"></path>
        <path d="M0,0 L24,0 L24,24 L0,24 L0,0 Z" id="path-2"></path>
    </defs>
    <g id="Icons" stroke="none" stroke-width="1" fill="none" fill-rule="evenodd">
        <g id="Shop" transform="translate(-64, -577)" fill="CURRENTCOLOR" fill-rule="nonzero">
            <g id="shopping-cart" transform="translate(44, 413)" xlink:href="#path-1">
                <g id="Icon/Shopping-cart/Bulk" transform="translate(20, 164)" xlink:href="#path-2">
                    <path d="M18.75,20.5 C18.75,21.4664983 17.9664983,22.25 17,22.25 C16.0335017,22.25 15.25,21.4664983 15.25,20.5 C15.25,19.5335017 16.0335017,18.75 17,18.75 C17.9664983,18.75 18.75,19.5335017 18.75,20.5 Z" id="Vector"></path>
                    <path d="M10.75,20.5 C10.75,21.4664983 9.96649832,22.25 9,22.25 C8.03350168,22.25 7.25,21.4664983 7.25,20.5 C7.25,19.5335017 8.03350168,18.75 9,18.75 C9.96649832,18.75 10.75,19.5335017 10.75,20.5 Z" id="Vector"></path>
                    <path d="M5.58999634,3.69000244 L5.38999939,6.13999939 C5.34999939,6.60999939 5.72000244,7 6.19000244,7 L21.5,7 C21.92,7 22.2700031,6.67999449 22.3000031,6.25999451 C22.430003,4.48999453 21.0799975,3.05000305 19.3099976,3.05000305 L7.03999329,3.05000305 C6.93999328,2.61000305 6.73999268,2.18999633 6.42999268,1.83999634 C5.93999267,1.30999637 5.2400043,1 4.52000427,1 L2.75,1 C2.34,1 2,1.34 2,1.75 C2,2.16 2.34,2.5 2.75,2.5 L4.49000549,2.5 C4.8000055,2.5 5.09000306,2.6300061 5.30000305,2.8500061 C5.51000305,3.08000611 5.60999634,3.38000244 5.58999634,3.69000244 Z" id="Vector" opacity="0.400000006"></path>
                    <path d="M21.2599926,8.5 L5.91999567,8.5 C5.49999568,8.5 5.15999267,8.81999573 5.11999267,9.22999573 L4.75999206,13.5800018 C4.61999206,15.2800019 5.95999575,16.75 7.66999578,16.75 L18.7899904,16.75 C20.2899904,16.75 21.6099993,15.5200043 21.7199993,14.0200043 L22.0500011,9.3500061 C22.0900011,8.8900061 21.7299926,8.5 21.2599926,8.5 Z" id="Vector"></path>
                </g>
            </g>
        </g>
    </g>
</svg>