<?xml version="1.0" encoding="UTF-8"?>
<svg width="24px" height="24px" viewBox="0 0 24 24" version="1.1" xmlns="http://www.w3.org/2000/svg" xmlns:xlink="http://www.w3.org/1999/xlink">
    <title>Icon/Shopping-cart/Outline</title>
    <defs>
        <path d="M5,0 L59,0 C61.7614237,-8.8817842e-16 64,2.23857625 64,5 L64,203 C64,205.761424 61.7614237,208 59,208 L5,208 C2.23857625,208 0,205.761424 0,203 L0,5 C0,2.23857625 2.23857625,0 5,0 Z" id="path-1"></path>
        <path d="M0,0 L24,0 L24,24 L0,24 L0,0 Z" id="path-2"></path>
    </defs>
    <g id="Icons" stroke="none" stroke-width="1" fill="none" fill-rule="evenodd">
        <g id="Shop" transform="translate(-64, -433)" fill="CURRENTCOLOR" fill-rule="nonzero">
            <g id="shopping-cart" transform="translate(44, 413)" xlink:href="#path-1">
                <g id="Icon/Shopping-cart/Outline" transform="translate(20, 20)" xlink:href="#path-2">
                    <path d="M17.9400024,17.5 L7.28999329,17.5 C6.29999328,17.5 5.34999269,17.0800061 4.67999268,16.3500061 C4.00999266,15.6200061 3.67,14.6399939 3.75,13.6499939 L4.58000183,3.69000244 C4.61000183,3.38000244 4.5,3.08000611 4.28999329,2.8500061 C4.07999329,2.6200061 3.78999573,2.5 3.47999573,2.5 L1.75,2.5 C1.34,2.5 1,2.16 1,1.75 C1,1.34 1.34,1 1.75,1 L3.49000549,1 C4.22000551,1 4.90999389,1.30999637 5.3999939,1.83999634 C5.66999391,2.13999635 5.86999573,2.4900049 5.97999573,2.88000488 L18.4700012,2.88000488 C19.4800012,2.88000488 20.4099963,3.27999997 21.0899963,4 C21.7599964,4.73000002 22.1000043,5.68000245 22.0200043,6.69000244 L21.4799957,14.1900024 C21.3699957,16.0200025 19.7700025,17.5 17.9400024,17.5 Z M6.02999878,4.36999512 L5.25,13.769989 C5.2,14.349989 5.38999879,14.8999866 5.77999878,15.3299866 C6.16999876,15.7599866 6.7099933,15.9899902 7.28999329,15.9899902 L17.9400024,15.9899902 C18.9800024,15.9899902 19.92,15.1100073 20,14.0700073 L20.5399933,6.57000732 C20.5799933,5.98000735 20.39,5.42000976 20,5.01000977 C19.61,4.59000978 19.0699957,4.35998535 18.4799957,4.35998535 L6.02999878,4.35998535 L6.02999878,4.36999512 Z" id="Vector"></path>
                    <path d="M16,22.5 C14.9,22.5 14,21.6 14,20.5 C14,19.4 14.9,18.5 16,18.5 C17.1,18.5 18,19.4 18,20.5 C18,21.6 17.1,22.5 16,22.5 Z M16,20 C15.72,20 15.5,20.22 15.5,20.5 C15.5,20.78 15.72,21 16,21 C16.28,21 16.5,20.78 16.5,20.5 C16.5,20.22 16.28,20 16,20 Z" id="Vector"></path>
                    <path d="M8,22.5 C6.89999998,22.5 6,21.6 6,20.5 C6,19.4 6.89999998,18.5 8,18.5 C9.10000002,18.5 10,19.4 10,20.5 C10,21.6 9.10000002,22.5 8,22.5 Z M8,20 C7.72,20 7.5,20.22 7.5,20.5 C7.5,20.78 7.72,21 8,21 C8.28,21 8.5,20.78 8.5,20.5 C8.5,20.22 8.28,20 8,20 Z" id="Vector"></path>
                    <path d="M20.75,8.5 L8.75,8.5 C8.34,8.5 8,8.16 8,7.75 C8,7.34 8.34,7 8.75,7 L20.75,7 C21.16,7 21.5,7.34 21.5,7.75 C21.5,8.16 21.16,8.5 20.75,8.5 Z" id="Vector"></path>
                </g>
            </g>
        </g>
    </g>
</svg>