<?xml version="1.0" encoding="UTF-8"?>
<svg width="24px" height="24px" viewBox="0 0 24 24" version="1.1" xmlns="http://www.w3.org/2000/svg" xmlns:xlink="http://www.w3.org/1999/xlink">
    <title>Icon/Shopping-cart/Bold</title>
    <defs>
        <path d="M5,0 L59,0 C61.7614237,-8.8817842e-16 64,2.23857625 64,5 L64,203 C64,205.761424 61.7614237,208 59,208 L5,208 C2.23857625,208 0,205.761424 0,203 L0,5 C0,2.23857625 2.23857625,0 5,0 Z" id="path-1"></path>
        <path d="M0,0 L24,0 L24,24 L0,24 L0,0 Z" id="path-2"></path>
    </defs>
    <g id="Icons" stroke="none" stroke-width="1" fill="none" fill-rule="evenodd">
        <g id="Shop" transform="translate(-64, -529)" fill="CURRENTCOLOR" fill-rule="nonzero">
            <g id="shopping-cart" transform="translate(44, 413)" xlink:href="#path-1">
                <g id="Icon/Shopping-cart/Bold" transform="translate(20, 116)" xlink:href="#path-2">
                    <path d="M18.75,20.5 C18.75,21.4664983 17.9664983,22.25 17,22.25 C16.0335017,22.25 15.25,21.4664983 15.25,20.5 C15.25,19.5335017 16.0335017,18.75 17,18.75 C17.9664983,18.75 18.75,19.5335017 18.75,20.5 Z" id="Vector"></path>
                    <path d="M10.75,20.5 C10.75,21.4664983 9.96649832,22.25 9,22.25 C8.03350168,22.25 7.25,21.4664983 7.25,20.5 C7.25,19.5335017 8.03350168,18.75 9,18.75 C9.96649832,18.75 10.75,19.5335017 10.75,20.5 Z" id="Vector"></path>
                    <path d="M5.59000015,3.69000006 L5.38999987,6.13999987 C5.34999987,6.60999987 5.72000006,7 6.19000006,7 L21.5,7 C21.92,7 22.2699992,6.68000022 22.2999992,6.26000023 C22.4299992,4.49000025 21.0799994,3.04999995 19.3099995,3.04999995 L7.01999998,3.04999995 C6.91999998,2.60999995 6.71999985,2.18999991 6.40999985,1.83999991 C5.90999985,1.30999994 5.21000004,1 4.49000001,1 L2.75,1 C2.34,1 2,1.34 2,1.75 C2,2.16 2.34,2.5 2.75,2.5 L4.49000001,2.5 C4.80000001,2.5 5.0900002,2.62999991 5.30000019,2.8499999 C5.51000018,3.07999991 5.61000015,3.38000005 5.59000015,3.69000006 Z" id="Vector"></path>
                    <path d="M21.2600007,8.5 L5.92000008,8.5 C5.50000009,8.5 5.15999985,8.81999955 5.11999986,9.22999954 L4.76000019,13.5799999 C4.62000019,15.29 5.96000004,16.75 7.67000008,16.75 L18.7900004,16.75 C20.2900004,16.75 21.6099998,15.5200005 21.7199998,14.0200005 L22.0499997,9.35000038 C22.0899997,8.89000037 21.7300007,8.5 21.2600007,8.5 Z" id="Vector"></path>
                </g>
            </g>
        </g>
    </g>
</svg>