<?xml version="1.0" encoding="UTF-8"?>
<svg width="24px" height="24px" viewBox="0 0 24 24" version="1.1" xmlns="http://www.w3.org/2000/svg" xmlns:xlink="http://www.w3.org/1999/xlink">
    <title>Icon/ListView/Bulk</title>
    <defs>
        <path d="M5,0 L59,0 C61.7614237,-8.8817842e-16 64,2.23857625 64,5 L64,203 C64,205.761424 61.7614237,208 59,208 L5,208 C2.23857625,208 0,205.761424 0,203 L0,5 C0,2.23857625 2.23857625,0 5,0 Z" id="path-1"></path>
        <path d="M0,0 L24,0 L24,24 L0,24 L0,0 Z" id="path-2"></path>
    </defs>
    <g id="Icons" stroke="none" stroke-width="1" fill="none" fill-rule="evenodd">
        <g id="View-Controls" transform="translate(-372, -578)" fill="CURRENTCOLOR" fill-rule="nonzero">
            <g id="List-view" transform="translate(352, 414)" xlink:href="#path-1">
                <g id="Icon/ListView/Bulk" transform="translate(20, 164)" xlink:href="#path-2">
                    <path d="M7.0000001,8.00000015 C7.0000001,9.38071171 5.88071201,10.5000002 4.5000001,10.5000002 C3.11928819,10.5000002 2.0000001,9.38071171 2.0000001,8.00000015 C2.0000001,6.61928812 3.11928819,5.50000015 4.5000001,5.50000015 C5.88071201,5.50000015 7.0000001,6.61928812 7.0000001,8.00000015 Z" id="Ellipse-245" transform="translate(4.5, 8) scale(-1, -1) rotate(-90) translate(-4.5, -8)"></path>
                    <path d="M7.0000001,16.0000002 C7.0000001,17.3807117 5.88071225,18.5000002 4.5000001,18.5000002 C3.11928843,18.5000002 2.0000001,17.3807117 2.0000001,16.0000002 C2.0000001,14.6192881 3.11928843,13.5000002 4.5000001,13.5000002 C5.88071225,13.5000002 7.0000001,14.6192881 7.0000001,16.0000002 Z" id="Ellipse-246" opacity="0.400000006" transform="translate(4.5, 16) scale(-1, -1) rotate(-90) translate(-4.5, -16)"></path>
                    <path d="M9.25,6.25 C9.25,5.83578643 9.58578643,5.5 10,5.5 L16,5.5 C16.4142137,5.5 16.75,5.83578643 16.75,6.25 C16.75,6.66421357 16.4142137,7 16,7 L10,7 C9.58578643,7 9.25,6.66421357 9.25,6.25 Z" id="Vector-664-(Stroke)" opacity="0.400000006" transform="translate(13, 6.25) rotate(-0) translate(-13, -6.25)"></path>
                    <path d="M9.25,14.25 C9.25,13.8357864 9.58578643,13.5 10,13.5 L16,13.5 C16.4142137,13.5 16.75,13.8357864 16.75,14.25 C16.75,14.6642136 16.4142137,15 16,15 L10,15 C9.58578643,15 9.25,14.6642136 9.25,14.25 Z" id="Vector-666-(Stroke)"></path>
                    <path d="M9.25,9.75 C9.25,9.33578643 9.58578643,9 10,9 L22,9 C22.4142132,9 22.75,9.33578643 22.75,9.75 C22.75,10.1642136 22.4142132,10.5 22,10.5 L10,10.5 C9.58578643,10.5 9.25,10.1642136 9.25,9.75 Z" id="Vector-665-(Stroke)" opacity="0.400000006" transform="translate(16, 9.75) rotate(-0) translate(-16, -9.75)"></path>
                    <path d="M9.25,17.75 C9.25,17.3357864 9.58578643,17 10,17 L22,17 C22.4142132,17 22.75,17.3357864 22.75,17.75 C22.75,18.1642136 22.4142132,18.5 22,18.5 L10,18.5 C9.58578643,18.5 9.25,18.1642136 9.25,17.75 Z" id="Vector-667-(Stroke)"></path>
                </g>
            </g>
        </g>
    </g>
</svg>