<?xml version="1.0" encoding="UTF-8"?>
<svg width="24px" height="24px" viewBox="0 0 24 24" version="1.1" xmlns="http://www.w3.org/2000/svg" xmlns:xlink="http://www.w3.org/1999/xlink">
    <title>Icon/ListView/Outline</title>
    <defs>
        <path d="M5,0 L59,0 C61.7614237,-8.8817842e-16 64,2.23857625 64,5 L64,203 C64,205.761424 61.7614237,208 59,208 L5,208 C2.23857625,208 0,205.761424 0,203 L0,5 C0,2.23857625 2.23857625,0 5,0 Z" id="path-1"></path>
        <path d="M0,0 L24,0 L24,24 L0,24 L0,0 Z" id="path-2"></path>
    </defs>
    <g id="Icons" stroke="none" stroke-width="1" fill="none" fill-rule="evenodd">
        <g id="View-Controls" transform="translate(-372, -434)" fill="CURRENTCOLOR" fill-rule="nonzero">
            <g id="List-view" transform="translate(352, 414)" xlink:href="#path-1">
                <g id="Icon/ListView/Outline" transform="translate(20, 20)" xlink:href="#path-2">
                    <path d="M5.25000024,16 C5.25000024,15.309644 4.69035608,14.75 4.00000024,14.75 C3.30964446,14.75 2.75000024,15.309644 2.75000024,16 C2.75000024,16.690356 3.30964434,17.25 4.00000024,17.25 C4.69035596,17.25 5.25000024,16.690356 5.25000024,16 Z M22.0000002,17.25 C22.4142138,17.25 22.7500002,17.5857864 22.7500002,18 C22.7500002,18.4142136 22.4142138,18.75 22.0000002,18.75 L10.0000002,18.75 C9.58578667,18.75 9.25000024,18.4142136 9.25000024,18 C9.25000024,17.5857864 9.58578667,17.25 10.0000002,17.25 L22.0000002,17.25 Z M16.0000002,13.25 C16.4142138,13.25 16.7500002,13.5857864 16.7500002,14 C16.7500002,14.4142136 16.4142138,14.75 16.0000002,14.75 L10.0000002,14.75 C9.58578667,14.75 9.25000024,14.4142136 9.25000024,14 C9.25000024,13.5857864 9.58578667,13.25 10.0000002,13.25 L16.0000002,13.25 Z M5.25000024,8 C5.25000024,7.30964404 4.69035608,6.75 4.00000024,6.75 C3.30964434,6.75 2.75000024,7.30964398 2.75000024,8 C2.75000024,8.69035602 3.30964446,9.25 4.00000024,9.25 C4.69035596,9.25 5.25000024,8.69035596 5.25000024,8 Z M22.0000002,9.25 C22.4142138,9.25 22.7500002,9.58578643 22.7500002,10 C22.7500002,10.4142136 22.4142138,10.75 22.0000002,10.75 L10.0000002,10.75 C9.58578667,10.75 9.25000024,10.4142136 9.25000024,10 C9.25000024,9.58578643 9.58578667,9.25 10.0000002,9.25 L22.0000002,9.25 Z M16.0000002,5.25 C16.4142138,5.25 16.7500002,5.58578646 16.7500002,6 C16.7500002,6.41421357 16.4142138,6.75 16.0000002,6.75 L10.0000002,6.75 C9.58578667,6.75 9.25000024,6.41421357 9.25000024,6 C9.25000024,5.58578646 9.5857867,5.25 10.0000002,5.25 L16.0000002,5.25 Z M6.75000024,16 C6.75000024,17.518783 5.51878321,18.75 4.00000024,18.75 C2.48121727,18.75 1.25000024,17.5187831 1.25000024,16 C1.25000024,14.4812169 2.48121715,13.25 4.00000024,13.25 C5.51878321,13.25 6.75000024,14.4812169 6.75000024,16 Z M6.75000024,8 C6.75000024,9.51878297 5.51878321,10.75 4.00000024,10.75 C2.48121727,10.75 1.25000024,9.51878297 1.25000024,8 C1.25000024,6.48121691 2.48121727,5.25 4.00000024,5.25 C5.51878321,5.25 6.75000024,6.48121691 6.75000024,8 Z" id="Vector-(Stroke)"></path>
                </g>
            </g>
        </g>
    </g>
</svg>