<?xml version="1.0" encoding="UTF-8"?>
<svg width="24px" height="24px" viewBox="0 0 24 24" version="1.1" xmlns="http://www.w3.org/2000/svg" xmlns:xlink="http://www.w3.org/1999/xlink">
    <title>Icon/ListView/Linear</title>
    <defs>
        <path d="M5,0 L59,0 C61.7614237,-8.8817842e-16 64,2.23857625 64,5 L64,203 C64,205.761424 61.7614237,208 59,208 L5,208 C2.23857625,208 0,205.761424 0,203 L0,5 C0,2.23857625 2.23857625,0 5,0 Z" id="path-1"></path>
        <path d="M0,0 L24,0 L24,24 L0,24 L0,0 Z" id="path-2"></path>
    </defs>
    <g id="Icons" stroke="none" stroke-width="1" fill="none" fill-rule="evenodd" stroke-linecap="round">
        <g id="View-Controls" transform="translate(-372, -482)" fill-rule="nonzero" stroke="CURRENTCOLOR">
            <g id="List-view" transform="translate(352, 414)" xlink:href="#path-1">
                <g id="Icon/ListView/Linear" transform="translate(20, 68)" xlink:href="#path-2" fill-rule="evenodd">
                    <g id="Vector" transform="translate(2, 6)">
                        <path d="M2,4 C0.895430326,4 0,3.10456944 0,2 C0,0.895430326 0.895430565,0 2,0 C3.10456944,0 4,0.895430446 4,2 C4,3.10456955 3.1045692,4 2,4 Z" stroke-width="1.5" fill-rule="nonzero"></path>
                        <path d="M2,12 C0.895430326,12 0,11.1045696 0,10 C0,8.89543045 0.895430565,8 2,8 C3.10456944,8 4,8.89543045 4,10 C4,11.1045696 3.1045692,12 2,12 Z" stroke-width="1.5" fill-rule="nonzero"></path>
                        <path d="M14,0 L8,0 M14,8 L8,8 M20,4 L8,4 M8,12 L20,12" stroke-width="1.5" fill-rule="nonzero"></path>
                    </g>
                </g>
            </g>
        </g>
    </g>
</svg>