<?xml version="1.0" encoding="UTF-8"?>
<svg width="24px" height="24px" viewBox="0 0 24 24" version="1.1" xmlns="http://www.w3.org/2000/svg" xmlns:xlink="http://www.w3.org/1999/xlink">
    <title>Icon/ListView/Bold</title>
    <defs>
        <path d="M5,0 L59,0 C61.7614237,-8.8817842e-16 64,2.23857625 64,5 L64,203 C64,205.761424 61.7614237,208 59,208 L5,208 C2.23857625,208 0,205.761424 0,203 L0,5 C0,2.23857625 2.23857625,0 5,0 Z" id="path-1"></path>
        <path d="M0,0 L24,0 L24,24 L0,24 L0,0 Z" id="path-2"></path>
    </defs>
    <g id="Icons" stroke="none" stroke-width="1" fill="none" fill-rule="evenodd">
        <g id="View-Controls" transform="translate(-372, -530)" fill="CURRENTCOLOR" fill-rule="nonzero">
            <g id="List-view" transform="translate(352, 414)" xlink:href="#path-1">
                <g id="Icon/ListView/Bold" transform="translate(20, 116)" xlink:href="#path-2">
                    <path d="M4,5.2499999 C5.51878309,5.24999999 6.74999993,6.48121696 6.74999985,8.00000005 C6.74999977,9.51878315 5.51878279,10.75 3.9999997,10.7499999 C2.48121661,10.7499998 1.24999977,9.51878285 1.24999985,7.99999975 C1.24999993,6.48121666 2.48121691,5.24999982 4,5.2499999 Z M4,13.2499999 C5.51878309,13.25 6.74999993,14.481217 6.74999985,16.0000001 C6.74999977,17.5187831 5.51878279,18.75 3.9999997,18.7499999 C2.48121661,18.7499998 1.24999977,17.5187828 1.24999985,15.9999998 C1.24999993,14.4812167 2.48121691,13.2499998 4,13.2499999 Z M9.25,6 C9.25,5.58578643 9.58578643,5.25 10,5.25 L16,5.25 C16.4142137,5.25 16.75,5.58578643 16.75,6 C16.75,6.41421354 16.4142137,6.75 16,6.75 L10,6.75 C9.58578643,6.75 9.25,6.41421354 9.25,6 Z M9.25,14 C9.25,13.5857864 9.58578643,13.25 10,13.25 L16,13.25 C16.4142137,13.25 16.75,13.5857864 16.75,14 C16.75,14.4142135 16.4142137,14.75 16,14.75 L10,14.75 C9.58578643,14.75 9.25,14.4142135 9.25,14 Z M9.25,10 C9.25,9.58578643 9.58578643,9.25 10,9.25 L22,9.25 C22.4142132,9.25 22.75,9.58578643 22.75,10 C22.75,10.4142135 22.4142132,10.75 22,10.75 L10,10.75 C9.58578643,10.75 9.25,10.4142135 9.25,10 Z M9.25,18 C9.25,17.5857864 9.58578643,17.25 10,17.25 L22,17.25 C22.4142132,17.25 22.75,17.5857864 22.75,18 C22.75,18.4142135 22.4142132,18.75 22,18.75 L10,18.75 C9.58578643,18.75 9.25,18.4142135 9.25,18 Z" id="combo-shape"></path>
                </g>
            </g>
        </g>
    </g>
</svg>