<?xml version="1.0" encoding="UTF-8"?>
<svg width="24px" height="24px" viewBox="0 0 24 24" version="1.1" xmlns="http://www.w3.org/2000/svg" xmlns:xlink="http://www.w3.org/1999/xlink">
    <title>Icon/Sun2/Linear</title>
    <defs>
        <path d="M5,0 L59,0 C61.7614237,-8.8817842e-16 64,2.23857625 64,5 L64,203 C64,205.761424 61.7614237,208 59,208 L5,208 C2.23857625,208 0,205.761424 0,203 L0,5 C0,2.23857625 2.23857625,0 5,0 Z" id="path-1"></path>
        <path d="M0,0 L24,0 L24,24 L0,24 L0,0 Z" id="path-2"></path>
    </defs>
    <g id="Icons" stroke="none" stroke-width="1" fill="none" fill-rule="evenodd">
        <g id="Weather" transform="translate(-168, -234)" fill-rule="nonzero">
            <g id="sun-2" transform="translate(148, 166)" xlink:href="#path-1">
                <g id="Icon/Sun2/Linear" transform="translate(20, 68)" xlink:href="#path-2">
                    <use fill="#FFFFFF" fill-rule="evenodd" xlink:href="#path-2"></use>
                    <path d="M12,3 L12,2 M12,22 L12,21 M19.7941914,7.5 L20.6602173,7 M3.33972168,17 L4.20574951,16.5 M4.20574713,7.5 L3.33972168,7 M19.7941895,16.5 L20.6602173,17" id="Vector" stroke="CURRENTCOLOR" stroke-width="1.5" stroke-linecap="round" fill-rule="nonzero"></path>
                    <path d="M18,12 C18,15.3137085 15.3137085,18 12,18 C8.68629146,18 6,15.3137085 6,12 C6,8.68629146 8.68629146,6 12,6 C15.3137085,6 18,8.68629146 18,12 Z" id="Vector" stroke="CURRENTCOLOR" stroke-width="1.5" fill-rule="nonzero"></path>
                </g>
            </g>
        </g>
    </g>
</svg>