<?xml version="1.0" encoding="UTF-8"?>
<svg width="24px" height="24px" viewBox="0 0 24 24" version="1.1" xmlns="http://www.w3.org/2000/svg" xmlns:xlink="http://www.w3.org/1999/xlink">
    <title>Icon/Sun2/Bold</title>
    <defs>
        <path d="M5,0 L59,0 C61.7614237,-8.8817842e-16 64,2.23857625 64,5 L64,203 C64,205.761424 61.7614237,208 59,208 L5,208 C2.23857625,208 0,205.761424 0,203 L0,5 C0,2.23857625 2.23857625,0 5,0 Z" id="path-1"></path>
        <path d="M0,0 L24,0 L24,24 L0,24 L0,0 Z" id="path-2"></path>
    </defs>
    <g id="Icons" stroke="none" stroke-width="1" fill="none" fill-rule="evenodd">
        <g id="Weather" transform="translate(-168, -282)" fill-rule="nonzero">
            <g id="sun-2" transform="translate(148, 166)" xlink:href="#path-1">
                <g id="Icon/Sun2/Bold" transform="translate(20, 116)" xlink:href="#path-2">
                    <use fill="#FFFFFF" fill-rule="evenodd" xlink:href="#path-2"></use>
                    <path d="M18.0351808,12 C18.0351808,15.3137083 15.3488891,18 12.0351808,18 C8.72147223,18 6.03518077,15.3137083 6.03518077,12 C6.03518077,8.68629146 8.72147223,6 12.0351808,6 C15.3488891,6 18.0351808,8.68629146 18.0351808,12 Z" id="Ellipse-51" fill="CURRENTCOLOR" fill-rule="nonzero"></path>
                    <path d="M12.0351808,2 C12.4493943,2 12.7851808,2.33578643 12.7851808,2.75 L12.7851808,3.75 C12.7851808,4.16421366 12.4493943,4.5 12.0351808,4.5 C11.6209672,4.5 11.2851808,4.16421366 11.2851808,3.75 L11.2851808,2.75 C11.2851808,2.33578643 11.6209672,2 12.0351808,2 Z" id="Vector-2762-(Stroke)" fill="CURRENTCOLOR" fill-rule="nonzero"></path>
                    <path d="M12.0351808,19.5 C12.4493943,19.5 12.7851808,19.8357864 12.7851808,20.25 L12.7851808,21.25 C12.7851808,21.6642137 12.4493943,22 12.0351808,22 C11.6209672,22 11.2851808,21.6642137 11.2851808,21.25 L11.2851808,20.25 C11.2851808,19.8357864 11.6209672,19.5 12.0351808,19.5 Z" id="Vector-2763-(Stroke)" fill="CURRENTCOLOR" fill-rule="nonzero"></path>
                    <path d="M4.45755628,6.37501701 C4.87176982,6.37501701 5.20755628,6.71080344 5.20755628,7.12501701 L5.20755628,8.12501701 C5.20755628,8.53923067 4.87176982,8.87501701 4.45755628,8.87501701 C4.04334271,8.87501701 3.70755628,8.53923067 3.70755628,8.12501701 L3.70755628,7.12501701 C3.70755628,6.71080344 4.04334271,6.37501701 4.45755628,6.37501701 Z" id="Vector-2762-(Stroke)" fill="CURRENTCOLOR" fill-rule="nonzero" transform="translate(4.4576, 7.625) rotate(-60) translate(-4.4576, -7.625)"></path>
                    <path d="M19.6128297,15.125017 C20.0270433,15.125017 20.3628297,15.4608034 20.3628297,15.875017 L20.3628297,16.875017 C20.3628297,17.2892307 20.0270433,17.625017 19.6128297,17.625017 C19.1986162,17.625017 18.8628297,17.2892307 18.8628297,16.875017 L18.8628297,15.875017 C18.8628297,15.4608034 19.1986162,15.125017 19.6128297,15.125017 Z" id="Vector-2763-(Stroke)" fill="CURRENTCOLOR" fill-rule="nonzero" transform="translate(19.6128, 16.375) rotate(-60) translate(-19.6128, -16.375)"></path>
                    <path d="M19.6128042,6.37498292 C20.0270178,6.37498292 20.3628042,6.71076935 20.3628042,7.12498292 L20.3628042,8.12498292 C20.3628042,8.53919657 20.0270178,8.87498292 19.6128042,8.87498292 C19.1985907,8.87498292 18.8628042,8.53919657 18.8628042,8.12498292 L18.8628042,7.12498292 C18.8628042,6.71076935 19.1985907,6.37498292 19.6128042,6.37498292 Z" id="Vector-2762-(Stroke)" fill="CURRENTCOLOR" fill-rule="nonzero" transform="translate(19.6128, 7.625) rotate(60) translate(-19.6128, -7.625)"></path>
                    <path d="M4.45753175,15.1249829 C4.87174529,15.1249829 5.20753175,15.4607693 5.20753175,15.8749829 L5.20753175,16.8749829 C5.20753175,17.2891966 4.87174529,17.6249829 4.45753175,17.6249829 C4.04331819,17.6249829 3.70753175,17.2891966 3.70753175,16.8749829 L3.70753175,15.8749829 C3.70753175,15.4607693 4.04331819,15.1249829 4.45753175,15.1249829 Z" id="Vector-2763-(Stroke)" fill="CURRENTCOLOR" fill-rule="nonzero" transform="translate(4.4575, 16.375) rotate(60) translate(-4.4575, -16.375)"></path>
                </g>
            </g>
        </g>
    </g>
</svg>