<?xml version="1.0" encoding="UTF-8"?>
<svg width="24px" height="24px" viewBox="0 0 24 24" version="1.1" xmlns="http://www.w3.org/2000/svg" xmlns:xlink="http://www.w3.org/1999/xlink">
    <title>Icon/Sun2/Bulk</title>
    <defs>
        <path d="M5,0 L59,0 C61.7614237,-8.8817842e-16 64,2.23857625 64,5 L64,203 C64,205.761424 61.7614237,208 59,208 L5,208 C2.23857625,208 0,205.761424 0,203 L0,5 C0,2.23857625 2.23857625,0 5,0 Z" id="path-1"></path>
        <path d="M0,0 L24,0 L24,24 L0,24 L0,0 Z" id="path-2"></path>
    </defs>
    <g id="Icons" stroke="none" stroke-width="1" fill="none" fill-rule="evenodd">
        <g id="Weather" transform="translate(-168, -330)" fill-rule="nonzero">
            <g id="sun-2" transform="translate(148, 166)" xlink:href="#path-1">
                <g id="Icon/Sun2/Bulk" transform="translate(20, 164)" xlink:href="#path-2">
                    <use fill="#FFFFFF" fill-rule="evenodd" xlink:href="#path-2"></use>
                    <circle id="Ellipse-51" fill="CURRENTCOLOR" fill-rule="nonzero" opacity="0.400000006" cx="12.2643664" cy="12" r="6"></circle>
                    <path d="M12.0143597,2 C12.4285732,2 12.7643597,2.33578643 12.7643597,2.75 L12.7643597,3.75 C12.7643597,4.16421354 12.4285732,4.5 12.0143597,4.5 C11.6001461,4.5 11.2643597,4.16421354 11.2643597,3.75 L11.2643597,2.75 C11.2643597,2.33578643 11.6001461,2 12.0143597,2 Z" id="Vector-2762-(Stroke)" fill="CURRENTCOLOR" fill-rule="nonzero"></path>
                    <path d="M12.0142643,19.4778633 C12.4284779,19.4778633 12.7642643,19.8136497 12.7642643,20.2278633 L12.7642643,21.2278633 C12.7642643,21.6420768 12.4284779,21.9778633 12.0142643,21.9778633 C11.6000507,21.9778633 11.2642643,21.6420768 11.2642643,21.2278633 L11.2642643,20.2278633 C11.2642643,19.8136497 11.6000507,19.4778633 12.0142643,19.4778633 Z" id="Vector-2763-(Stroke)" fill="CURRENTCOLOR" fill-rule="nonzero"></path>
                    <path d="M21.0578492,5.74986085 C21.4720628,5.74986085 21.8078492,6.08564728 21.8078492,6.49986085 L21.8078492,7.49986085 C21.8078492,7.91407438 21.4720628,8.24986085 21.0578492,8.24986085 C20.6436357,8.24986085 20.3078492,7.91407438 20.3078492,7.49986085 L20.3078492,6.49986085 C20.3078492,6.08564728 20.6436357,5.74986085 21.0578492,5.74986085 Z" id="Vector-2764-(Stroke)" fill="CURRENTCOLOR" fill-rule="nonzero" transform="translate(21.0578, 6.9999) rotate(60) translate(-21.0578, -6.9999)"></path>
                    <path d="M3.45753175,15.250105 C3.87174532,15.250105 4.20753175,15.5858914 4.20753175,16.000105 L4.20753175,17.000105 C4.20753175,17.4143185 3.87174532,17.750105 3.45753175,17.750105 C3.04331819,17.750105 2.70753175,17.4143185 2.70753175,17.000105 L2.70753175,16.000105 C2.70753175,15.5858914 3.04331819,15.250105 3.45753175,15.250105 Z" id="Vector-2765-(Stroke)" fill="CURRENTCOLOR" fill-rule="nonzero" transform="translate(3.4575, 16.5001) rotate(60) translate(-3.4575, -16.5001)"></path>
                    <path d="M3.47045669,5.74989498 C3.88467025,5.74989498 4.22045669,6.08568141 4.22045669,6.49989498 L4.22045669,7.49989498 C4.22045669,7.91410851 3.88467025,8.24989498 3.47045669,8.24989498 C3.05624312,8.24989498 2.72045669,7.91410851 2.72045669,7.49989498 L2.72045669,6.49989498 C2.72045669,6.08568141 3.05624312,5.74989498 3.47045669,5.74989498 Z" id="Vector-2766-(Stroke)" fill="CURRENTCOLOR" fill-rule="nonzero" transform="translate(3.4705, 6.9999) rotate(-60) translate(-3.4705, -6.9999)"></path>
                    <path d="M21.0578738,15.2501391 C21.4720874,15.2501391 21.8078738,15.5859255 21.8078738,16.0001391 L21.8078738,17.0001391 C21.8078738,17.4143527 21.4720874,17.7501391 21.0578738,17.7501391 C20.6436602,17.7501391 20.3078738,17.4143527 20.3078738,17.0001391 L20.3078738,16.0001391 C20.3078738,15.5859255 20.6436602,15.2501391 21.0578738,15.2501391 Z" id="Vector-2767-(Stroke)" fill="CURRENTCOLOR" fill-rule="nonzero" transform="translate(21.0579, 16.5001) rotate(-60) translate(-21.0579, -16.5001)"></path>
                </g>
            </g>
        </g>
    </g>
</svg>