<?xml version="1.0" encoding="UTF-8"?>
<svg width="24px" height="24px" viewBox="0 0 24 24" version="1.1" xmlns="http://www.w3.org/2000/svg" xmlns:xlink="http://www.w3.org/1999/xlink">
    <title>Icon/Bag-Shop/Bulk</title>
    <defs>
        <path d="M5,0 L59,0 C61.7614237,-8.8817842e-16 64,2.23857625 64,5 L64,203 C64,205.761424 61.7614237,208 59,208 L5,208 C2.23857625,208 0,205.761424 0,203 L0,5 C0,2.23857625 2.23857625,0 5,0 Z" id="path-1"></path>
        <path d="M0,0 L24,0 L24,24 L0,24 L0,0 Z" id="path-2"></path>
    </defs>
    <g id="Icons" stroke="none" stroke-width="1" fill="none" fill-rule="evenodd">
        <g id="Shop" transform="translate(-64, -329)" fill="CURRENTCOLOR" fill-rule="nonzero">
            <g id="bag-Shop" transform="translate(44, 165)" xlink:href="#path-1">
                <g id="Icon/Bag-Shop/Bulk" transform="translate(20, 164)" xlink:href="#path-2">
                    <path d="M4.56972754,10.0128469 C4.92445722,8.12095535 6.57635617,6.75 8.50121641,6.75 L15.8618069,6.75 C17.7866671,6.75 19.4385652,8.12095416 19.7932949,10.0128458 L21.2932949,18.0128431 C21.7548551,20.4744976 19.866359,22.75 17.3618069,22.75 L7.00121689,22.75 C4.49666476,22.75 2.60816736,20.4745004 3.06972758,18.012846 L4.56972754,10.0128469 Z" id="Rectangle-788" opacity="0.400000006"></path>
                    <path d="M8.43139648,5.75 C8.43139648,3.67893219 10.1103287,2 12.1813965,2 C14.2524643,2 15.9313965,3.67893219 15.9313965,5.75 L15.9313965,8.75 C15.9313965,9.16421366 15.5956101,9.5 15.1813965,9.5 C14.7671828,9.5 14.4313965,9.16421366 14.4313965,8.75 L14.4313965,5.75 C14.4313965,4.50735939 13.424037,3.5 12.1813965,3.5 C10.9387559,3.5 9.93139648,4.50735939 9.93139648,5.75 L9.93139648,8.75 C9.93139648,9.16421366 9.59561005,9.5 9.18139648,9.5 C8.76718292,9.5 8.43139648,9.16421366 8.43139648,8.75 L8.43139648,5.75 Z" id="Rectangle-760-(Stroke)"></path>
                </g>
            </g>
        </g>
    </g>
</svg>