<?xml version="1.0" encoding="UTF-8"?>
<svg width="24px" height="24px" viewBox="0 0 24 24" version="1.1" xmlns="http://www.w3.org/2000/svg" xmlns:xlink="http://www.w3.org/1999/xlink">
    <title>Icon/Bag-Shop/Bold</title>
    <defs>
        <path d="M5,0 L59,0 C61.7614237,-8.8817842e-16 64,2.23857625 64,5 L64,203 C64,205.761424 61.7614237,208 59,208 L5,208 C2.23857625,208 0,205.761424 0,203 L0,5 C0,2.23857625 2.23857625,0 5,0 Z" id="path-1"></path>
        <path d="M0,0 L24,0 L24,24 L0,24 L0,0 Z" id="path-2"></path>
    </defs>
    <g id="Icons" stroke="none" stroke-width="1" fill="none" fill-rule="evenodd">
        <g id="Shop" transform="translate(-64, -281)" fill="#28303F" fill-rule="nonzero">
            <g id="bag-Shop" transform="translate(44, 165)" xlink:href="#path-1">
                <g id="Icon/Bag-Shop/Bold" transform="translate(20, 116)" xlink:href="#path-2" fill-rule="evenodd">
                    <path d="M12.1815109,2 C10.1104436,2 8.4315114,3.67893219 8.4315114,5.75 L8.4315114,6.75059986 C6.5365963,6.78323174 4.92016781,8.14383221 4.56972754,10.0128469 L3.06972758,18.012846 C2.60816736,20.4745007 4.49666476,22.75 7.00121689,22.75 L17.3618069,22.75 C19.8663578,22.75 21.7548542,20.4744968 21.2932949,18.0128441 L19.7932949,10.012846 C19.4428539,8.14383078 17.8264265,6.78323126 15.9315109,6.75059986 L15.9315109,5.75 C15.9315109,3.67893243 14.2525787,2 12.1815109,2 Z M14.4315109,6.75 L14.4315109,5.75 C14.4315109,4.5073595 13.4241524,3.5 12.1815109,3.5 C10.9388709,3.5 9.9315114,4.5073595 9.9315114,5.75 L9.9315114,6.75 L14.4315109,6.75 Z" id="Union"></path>
                </g>
            </g>
        </g>
    </g>
</svg>