<?xml version="1.0" encoding="UTF-8"?>
<svg width="24px" height="24px" viewBox="0 0 24 24" version="1.1" xmlns="http://www.w3.org/2000/svg" xmlns:xlink="http://www.w3.org/1999/xlink">
    <title>Icon/Bag-Shop/Outline</title>
    <defs>
        <path d="M5,0 L59,0 C61.7614237,-8.8817842e-16 64,2.23857625 64,5 L64,203 C64,205.761424 61.7614237,208 59,208 L5,208 C2.23857625,208 0,205.761424 0,203 L0,5 C0,2.23857625 2.23857625,0 5,0 Z" id="path-1"></path>
        <path d="M0,0 L24,0 L24,24 L0,24 L0,0 Z" id="path-2"></path>
    </defs>
    <g id="Icons" stroke="none" stroke-width="1" fill="none" fill-rule="evenodd">
        <g id="Shop" transform="translate(-64, -185)" fill="CURRENTCOLOR" fill-rule="nonzero">
            <g id="bag-Shop" transform="translate(44, 165)" xlink:href="#path-1">
                <g id="Icon/Bag-Shop/Outline" transform="translate(20, 20)" xlink:href="#path-2">
                    <path d="M8.50121641,5.25 L15.8618069,5.25 C18.1475783,5.25 20.1092075,6.87800818 20.530449,9.12462954 L22.030449,17.1246267 C22.5785519,20.0478418 20.3359621,22.75 17.3618069,22.75 L7.00121689,22.75 C4.02706125,22.75 1.78447068,20.0478442 2.33257344,17.1246296 L3.83257341,9.12463056 C4.25381493,6.87800909 6.21544505,5.25 8.50121641,5.25 Z M8.50121641,6.75 C6.93726778,6.75 5.5950996,7.86390113 5.30688168,9.40106335 L3.80688172,17.4010624 C3.43186406,19.4011565 4.96626816,21.25 7.00121689,21.25 L17.3618069,21.25 C19.3967547,21.25 20.9311586,19.4011545 20.5561408,17.4010596 L19.0561408,9.4010624 C18.7679229,7.86390025 17.4257556,6.75 15.8618069,6.75 L8.50121641,6.75 Z" id="Vector"></path>
                    <path d="M16.9315114,6 L15.4315114,6 C15.4315114,4.20507469 13.9764362,2.75 12.1815109,2.75 C10.3865857,2.75 8.9315114,4.20507457 8.9315114,6 L7.4315114,6 C7.4315114,3.3766475 9.55815856,1.25 12.1815109,1.25 C14.8048634,1.25 16.9315114,3.37664757 16.9315114,6 Z" id="Vector"></path>
                </g>
            </g>
        </g>
    </g>
</svg>