<?xml version="1.0" encoding="UTF-8"?>
<svg width="24px" height="24px" viewBox="0 0 24 24" version="1.1" xmlns="http://www.w3.org/2000/svg" xmlns:xlink="http://www.w3.org/1999/xlink">
    <title>Icon/Tick/Outline</title>
    <defs>
        <path d="M5,0 L59,0 C61.7614237,-8.8817842e-16 64,2.23857625 64,5 L64,203 C64,205.761424 61.7614237,208 59,208 L5,208 C2.23857625,208 0,205.761424 0,203 L0,5 C0,2.23857625 2.23857625,0 5,0 Z" id="path-1"></path>
        <path d="M0,0 L24,0 L24,24 L0,24 L0,0 Z" id="path-2"></path>
    </defs>
    <g id="Icons" stroke="none" stroke-width="1" fill="none" fill-rule="evenodd">
        <g id="Basic-Actions" transform="translate(-168, -186)" fill-rule="nonzero">
            <g id="Tick" transform="translate(148, 166)" xlink:href="#path-1">
                <g id="Icon/Tick/Outline" transform="translate(20, 20)" xlink:href="#path-2">
                    <path d="M12,22.75 C6.07000017,22.75 1.25,17.9299998 1.25,12 C1.25,6.07000017 6.07000017,1.25 12,1.25 C17.9299998,1.25 22.75,6.07000017 22.75,12 C22.75,17.9299998 17.9299998,22.75 12,22.75 Z M12,2.75 C6.9000001,2.75 2.75,6.9000001 2.75,12 C2.75,17.0999999 6.9000001,21.25 12,21.25 C17.0999999,21.25 21.25,17.0999999 21.25,12 C21.25,6.9000001 17.0999999,2.75 12,2.75 Z" id="Vector" fill="CURRENTCOLOR"></path>
                    <path d="M10.5799997,15.5800004 C10.3799997,15.5800004 10.19,15.5000001 10.05,15.3600001 L7.21999958,12.5300002 C6.92999959,12.2400002 6.92999959,11.7600005 7.21999958,11.4700005 C7.50999957,11.1800005 7.9899995,11.1800005 8.27999949,11.4700005 L10.5799997,13.7700009 L15.7200003,8.63000038 C16.0100003,8.34000039 16.4900007,8.34000039 16.7800007,8.63000038 C17.0700007,8.92000037 17.0700007,9.39999983 16.7800007,9.68999982 L11.1099997,15.3600001 C10.9699997,15.5000001 10.7799997,15.5800004 10.5799997,15.5800004 Z" id="Vector" fill="CURRENTCOLOR"></path>
                    <polygon id="Vector" opacity="0" points="0 0 24 0 24 24 0 24"></polygon>
                </g>
            </g>
        </g>
    </g>
</svg>