<?xml version="1.0" encoding="UTF-8"?>
<svg width="24px" height="24px" viewBox="0 0 24 24" version="1.1" xmlns="http://www.w3.org/2000/svg" xmlns:xlink="http://www.w3.org/1999/xlink">
    <title>Icon/arrow-down/Bold</title>
    <defs>
        <path d="M5,0 L59,0 C61.7614237,-8.8817842e-16 64,2.23857625 64,5 L64,203 C64,205.761424 61.7614237,208 59,208 L5,208 C2.23857625,208 0,205.761424 0,203 L0,5 C0,2.23857625 2.23857625,0 5,0 Z" id="path-1"></path>
        <path d="M0,0 L24,0 L24,24 L0,24 L0,0 Z" id="path-2"></path>
    </defs>
    <g id="Icons" stroke="none" stroke-width="1" fill="none" fill-rule="evenodd">
        <g id="Basic-Navigation" transform="translate(-169, -282)" fill="CURRENTCOLOR" fill-rule="nonzero">
            <g id="arrow-down" transform="translate(149, 166)" xlink:href="#path-1">
                <g id="Icon/arrow-down/Bold" transform="translate(20, 116)" xlink:href="#path-2">
                    <path d="M16.1900005,2 L7.80999994,2 C4.16999984,2 2,4.16999984 2,7.80999994 L2,16.1800003 C2,19.8300004 4.16999984,22 7.80999994,22 L16.1800003,22 C19.8200004,22 21.9900341,19.8300006 21.9900341,16.1900005 L21.9900341,7.80999994 C22,4.16999984 19.8300006,2 16.1900005,2 Z M16.8199997,14.2399998 L12.5299997,18.5300007 C12.3899997,18.6700007 12.2,18.75 12,18.75 C11.8,18.75 11.6100003,18.6700007 11.4700003,18.5300007 L7.17999983,14.2399998 C6.88999984,13.9499998 6.88999984,13.4700003 7.17999983,13.1800003 C7.46999982,12.8900003 7.94999978,12.8900003 8.23999977,13.1800003 L11.25,16.1900005 L11.25,6 C11.25,5.59 11.59,5.25 12,5.25 C12.41,5.25 12.75,5.59 12.75,6 L12.75,16.1900005 L15.7600002,13.1800003 C16.0500002,12.8900003 16.5299997,12.8900003 16.8199997,13.1800003 C16.9699997,13.3300003 17.0400009,13.52 17.0400009,13.71 C17.0400009,13.9 16.9599997,14.0999998 16.8199997,14.2399998 Z" id="Vector"></path>
                </g>
            </g>
        </g>
    </g>
</svg>