<?xml version="1.0" encoding="UTF-8"?>
<svg width="24px" height="24px" viewBox="0 0 24 24" version="1.1" xmlns="http://www.w3.org/2000/svg" xmlns:xlink="http://www.w3.org/1999/xlink">
    <title>Icon/arrow-down/Outline</title>
    <defs>
        <path d="M5,0 L59,0 C61.7614237,-8.8817842e-16 64,2.23857625 64,5 L64,203 C64,205.761424 61.7614237,208 59,208 L5,208 C2.23857625,208 0,205.761424 0,203 L0,5 C0,2.23857625 2.23857625,0 5,0 Z" id="path-1"></path>
        <path d="M0,0 L24,0 L24,24 L0,24 L0,0 Z" id="path-2"></path>
    </defs>
    <g id="Icons" stroke="none" stroke-width="1" fill="none" fill-rule="evenodd">
        <g id="Basic-Navigation" transform="translate(-169, -186)" fill="CURRENTCOLOR" fill-rule="nonzero">
            <g id="arrow-down" transform="translate(149, 166)" xlink:href="#path-1">
                <g id="Icon/arrow-down/Outline" transform="translate(20, 20)" xlink:href="#path-2">
                    <path d="M17.5393753,13.8997265 C17.83221,13.6068918 18.3070148,13.6070088 18.5999222,13.8997265 C18.8928154,14.1926197 18.8928154,14.6673802 18.5999222,14.9602734 L12.5305858,21.0305858 C12.3900071,21.1711643 12.199112,21.2502297 12.0003123,21.2503123 C11.8015473,21.2503123 11.6106611,21.1710426 11.4700389,21.0305858 L5.39972648,14.9602734 C5.10683328,14.6673802 5.10683328,14.1926197 5.39972648,13.8997265 C5.69261968,13.6068333 6.16738015,13.6068333 6.46027339,13.8997265 L11.9993358,19.4387889 L17.5393753,13.8997265 Z" id="Vector-(Stroke)"></path>
                    <path d="M11.25,20.3300781 L11.25,3.5 C11.25,3.08578643 11.5857864,2.75 12,2.75 C12.4142136,2.75 12.75,3.08578643 12.75,3.5 L12.75,20.3300781 L12.7460938,20.40625 C12.7078826,20.7846461 12.3884708,21.0800781 12,21.0800781 C11.6115292,21.0800781 11.2921174,20.7846461 11.2539062,20.40625 L11.25,20.3300781 Z" id="Vector-(Stroke)"></path>
                </g>
            </g>
        </g>
    </g>
</svg>