<?xml version="1.0" encoding="UTF-8"?>
<svg width="24px" height="24px" viewBox="0 0 24 24" version="1.1" xmlns="http://www.w3.org/2000/svg" xmlns:xlink="http://www.w3.org/1999/xlink">
    <title>Icon/Cloud-fog/Bulk</title>
    <defs>
        <path d="M5,0 L59,0 C61.7614237,-8.8817842e-16 64,2.23857625 64,5 L64,203 C64,205.761424 61.7614237,208 59,208 L5,208 C2.23857625,208 0,205.761424 0,203 L0,5 C0,2.23857625 2.23857625,0 5,0 Z" id="path-1"></path>
        <path d="M0,0 L24,0 L24,24 L0,24 L0,0 Z" id="path-2"></path>
    </defs>
    <g id="Icons" stroke="none" stroke-width="1" fill="none" fill-rule="evenodd">
        <g id="Weather" transform="translate(-272, -578)" fill-rule="nonzero">
            <g id="cloud-fog" transform="translate(252, 414)" xlink:href="#path-1">
                <g id="Icon/Cloud-fog/Bulk" transform="translate(20, 164)" xlink:href="#path-2">
                    <use fill="#FFFFFF" fill-rule="evenodd" xlink:href="#path-2"></use>
                    <path d="M19.799963,11.999999 L4.19998652,11.999999 C3.97998652,11.999999 3.77999628,11.8499984 3.70999628,11.6399984 C0.959996283,2.54999828 14.8399767,-0.939993382 16.4399767,8.82000685 C18.0999767,9.03000684 19.4099459,9.96999478 20.2199459,11.2299948 C20.4399459,11.5599948 20.189963,11.999999 19.799963,11.999999 Z" id="Vector" fill="#292D32" fill-rule="nonzero"></path>
                    <path d="M20,15.7799988 L4,15.7799988 C3.59,15.7799988 3.25,15.4399988 3.25,15.0299988 C3.25,14.6199988 3.59,14.2799988 4,14.2799988 L20,14.2799988 C20.41,14.2799988 20.75,14.6199988 20.75,15.0299988 C20.75,15.4399988 20.41,15.7799988 20,15.7799988 Z" id="Vector" fill="CURRENTCOLOR" fill-rule="nonzero" opacity="0.400000006"></path>
                    <path d="M18,18.7799988 L6,18.7799988 C5.59,18.7799988 5.25,18.4399988 5.25,18.0299988 C5.25,17.6199988 5.59,17.2799988 6,17.2799988 L18,17.2799988 C18.41,17.2799988 18.75,17.6199988 18.75,18.0299988 C18.75,18.4399988 18.41,18.7799988 18,18.7799988 Z" id="Vector" fill="CURRENTCOLOR" fill-rule="nonzero" opacity="0.400000006"></path>
                    <path d="M15,21.7799988 L9,21.7799988 C8.59,21.7799988 8.25,21.4399988 8.25,21.0299988 C8.25,20.6199988 8.59,20.2799988 9,20.2799988 L15,20.2799988 C15.41,20.2799988 15.75,20.6199988 15.75,21.0299988 C15.75,21.4399988 15.41,21.7799988 15,21.7799988 Z" id="Vector" fill="CURRENTCOLOR" fill-rule="nonzero" opacity="0.400000006"></path>
                </g>
            </g>
        </g>
    </g>
</svg>
