<?xml version="1.0" encoding="UTF-8"?>
<svg width="24px" height="24px" viewBox="0 0 24 24" version="1.1" xmlns="http://www.w3.org/2000/svg" xmlns:xlink="http://www.w3.org/1999/xlink">
    <title>Icon/Cloud-fog/Bold</title>
    <defs>
        <path d="M5,0 L59,0 C61.7614237,-8.8817842e-16 64,2.23857625 64,5 L64,203 C64,205.761424 61.7614237,208 59,208 L5,208 C2.23857625,208 0,205.761424 0,203 L0,5 C0,2.23857625 2.23857625,0 5,0 Z" id="path-1"></path>
        <path d="M0,0 L24,0 L24,24 L0,24 L0,0 Z" id="path-2"></path>
    </defs>
    <g id="Icons" stroke="none" stroke-width="1" fill="none" fill-rule="evenodd">
        <g id="Weather" transform="translate(-272, -530)" fill-rule="nonzero">
            <g id="cloud-fog" transform="translate(252, 414)" xlink:href="#path-1">
                <g id="Icon/Cloud-fog/Bold" transform="translate(20, 116)" xlink:href="#path-2">
                    <use fill="#FFFFFF" fill-rule="evenodd" xlink:href="#path-2"></use>
                    <path d="M19.7999992,12 L4.19999981,12 C3.97999981,12 3.78000007,11.8500003 3.71000007,11.6400003 C0.960000068,2.55000019 14.8400007,-0.940000534 16.4500008,8.81999969 C18.1100007,9.02999969 19.4199995,9.96999955 20.2299995,11.2299995 C20.4399995,11.5599996 20.1899992,12 19.7999992,12 Z" id="Vector" fill="#292D32" fill-rule="nonzero"></path>
                    <path d="M20,15.7799997 L4,15.7799997 C3.59,15.7799997 3.25,15.4399997 3.25,15.0299997 C3.25,14.6199997 3.59,14.2799997 4,14.2799997 L20,14.2799997 C20.41,14.2799997 20.75,14.6199997 20.75,15.0299997 C20.75,15.4399997 20.41,15.7799997 20,15.7799997 Z" id="Vector" fill="CURRENTCOLOR" fill-rule="nonzero"></path>
                    <path d="M18,18.7800007 L6,18.7800007 C5.59,18.7800007 5.25,18.4400007 5.25,18.0300007 C5.25,17.6200007 5.59,17.2800007 6,17.2800007 L18,17.2800007 C18.41,17.2800007 18.75,17.6200007 18.75,18.0300007 C18.75,18.4400007 18.41,18.7800007 18,18.7800007 Z" id="Vector" fill="CURRENTCOLOR" fill-rule="nonzero"></path>
                    <path d="M15,21.7800007 L9,21.7800007 C8.59,21.7800007 8.25,21.4400007 8.25,21.0300007 C8.25,20.6200007 8.59,20.2800007 9,20.2800007 L15,20.2800007 C15.41,20.2800007 15.75,20.6200007 15.75,21.0300007 C15.75,21.4400007 15.41,21.7800007 15,21.7800007 Z" id="Vector" fill="CURRENTCOLOR" fill-rule="nonzero"></path>
                </g>
            </g>
        </g>
    </g>
</svg>
