<?xml version="1.0" encoding="UTF-8"?>
<svg width="24px" height="24px" viewBox="0 0 24 24" version="1.1" xmlns="http://www.w3.org/2000/svg" xmlns:xlink="http://www.w3.org/1999/xlink">
    <title>Icon/Cloud-fog/Outline</title>
    <defs>
        <path d="M5,0 L59,0 C61.7614237,-8.8817842e-16 64,2.23857625 64,5 L64,203 C64,205.761424 61.7614237,208 59,208 L5,208 C2.23857625,208 0,205.761424 0,203 L0,5 C0,2.23857625 2.23857625,0 5,0 Z" id="path-1"></path>
        <path d="M0,0 L24,0 L24,24 L0,24 L0,0 Z" id="path-2"></path>
    </defs>
    <g id="Icons" stroke="none" stroke-width="1" fill="none" fill-rule="evenodd">
        <g id="Weather" transform="translate(-272, -434)" fill-rule="nonzero">
            <g id="cloud-fog" transform="translate(252, 414)" xlink:href="#path-1">
                <g id="Icon/Cloud-fog/Outline" transform="translate(20, 20)" xlink:href="#path-2">
                    <use fill="#FFFFFF" fill-rule="evenodd" xlink:href="#path-2"></use>
                    <path d="M4.29007542,12.3699608 C3.98007542,12.3699608 3.69011448,12.1799608 3.58011448,11.8699608 C2.57011449,9.04996085 3.03012431,6.3399781 4.84012425,4.44997811 C6.69012427,2.50997806 9.6501193,1.73996466 12.2101192,2.52996469 C14.5501192,3.24996471 16.200085,5.17995143 16.8000851,7.8599515 C18.600085,8.26995149 20.1101022,9.52995229 20.8801022,11.3299522 C21.0401022,11.7099522 20.8700875,12.149973 20.4900875,12.319973 C20.1100875,12.479973 19.6700973,12.3099583 19.5000973,11.9299583 C18.8500973,10.4299583 17.6000948,9.45997591 16.0600948,9.25997591 C15.7300948,9.21997591 15.4700704,8.96998081 15.4100704,8.63998079 C15.0100704,6.2399807 13.7101071,4.57997692 11.760107,3.97997689 C9.74010706,3.35997689 7.39008021,3.96996593 5.92008018,5.49996591 C4.49008024,6.98996592 4.16007787,9.0799706 4.98007786,11.3799706 C5.12007786,11.7699705 4.92012668,12.199962 4.53012669,12.339962 C4.46012669,12.349962 4.37007542,12.3699608 4.29007542,12.3699608 Z" id="Vector" fill="#292D32" fill-rule="nonzero"></path>
                    <path d="M14.5399414,9.67999268 C14.2599414,9.67999268 13.9999585,9.53000978 13.8699585,9.26000977 C13.6799585,8.89000976 13.8399853,8.44 14.2099853,8.25 C14.8399853,7.94 15.5099755,7.77000977 16.1999755,7.76000977 C16.6299755,7.78000977 16.9599853,8.08000001 16.9599853,8.5 C16.9699853,8.91 16.639934,9.26000977 16.219934,9.26000977 C15.749934,9.27000977 15.2999585,9.37999634 14.8699585,9.58999634 C14.7599585,9.65999634 14.6499414,9.67999268 14.5399414,9.67999268 Z" id="Vector" fill="#292D32" fill-rule="nonzero"></path>
                    <path d="M20,15.7800293 L4,15.7800293 C3.59,15.7800293 3.25,15.4400293 3.25,15.0300293 C3.25,14.6200293 3.59,14.2800293 4,14.2800293 L20,14.2800293 C20.41,14.2800293 20.75,14.6200293 20.75,15.0300293 C20.75,15.4400293 20.41,15.7800293 20,15.7800293 Z" id="Vector" fill="#292D32" fill-rule="nonzero"></path>
                    <path d="M18,18.7800293 L6,18.7800293 C5.59,18.7800293 5.25,18.4400293 5.25,18.0300293 C5.25,17.6200293 5.59,17.2800293 6,17.2800293 L18,17.2800293 C18.41,17.2800293 18.75,17.6200293 18.75,18.0300293 C18.75,18.4400293 18.41,18.7800293 18,18.7800293 Z" id="Vector" fill="#292D32" fill-rule="nonzero"></path>
                    <path d="M15,21.7800293 L9,21.7800293 C8.59,21.7800293 8.25,21.4400293 8.25,21.0300293 C8.25,20.6200293 8.59,20.2800293 9,20.2800293 L15,20.2800293 C15.41,20.2800293 15.75,20.6200293 15.75,21.0300293 C15.75,21.4400293 15.41,21.7800293 15,21.7800293 Z" id="Vector" fill="#292D32" fill-rule="nonzero"></path>
                </g>
            </g>
        </g>
    </g>
</svg>