<?xml version="1.0" encoding="UTF-8"?>
<svg width="24px" height="24px" viewBox="0 0 24 24" version="1.1" xmlns="http://www.w3.org/2000/svg" xmlns:xlink="http://www.w3.org/1999/xlink">
    <title>Icon/Cloud/Bulk</title>
    <defs>
        <path d="M5,0 L59,0 C61.7614237,-8.8817842e-16 64,2.23857625 64,5 L64,203 C64,205.761424 61.7614237,208 59,208 L5,208 C2.23857625,208 0,205.761424 0,203 L0,5 C0,2.23857625 2.23857625,0 5,0 Z" id="path-1"></path>
        <path d="M0,0 L24,0 L24,24 L0,24 L0,0 Z" id="path-2"></path>
    </defs>
    <g id="Icons" stroke="none" stroke-width="1" fill="none" fill-rule="evenodd">
        <g id="Weather" transform="translate(-688, -330)" fill-rule="nonzero">
            <g id="Claud" transform="translate(668, 166)" xlink:href="#path-1">
                <g id="Icon/Cloud/Bulk" transform="translate(20, 164)" xlink:href="#path-2">
                    <use fill="#FFFFFF" fill-rule="evenodd" xlink:href="#path-2"></use>
                    <path d="M20.4799993,10.9076333 L2.00999999,15.9376335 C2.11999999,14.3476335 3.11000013,12.6776335 5.11000013,12.1876335 C4.52000016,9.85763359 5.01999974,7.66763365 6.53999972,6.07763362 C8.26999974,4.26763368 11.0299995,3.54763368 13.4099996,4.28763369 C15.5999997,4.9576337 17.1400003,6.75763369 17.6900003,9.25763369 C18.7800003,9.50763369 19.7499993,10.0776333 20.4799993,10.9076333 Z" id="Vector" fill="CURRENTCOLOR" fill-rule="nonzero"></path>
                    <path d="M20.1700001,18.9576333 C19.1300001,19.9076331 17.7700003,20.4376328 16.3500004,20.4376328 L5.96999979,20.4376328 C3.22999978,20.2376328 2,18.1276342 2,16.2476342 C2,16.1476342 2,16.0476338 2.00999999,15.9376338 L20.4799995,10.9076331 C21.0499995,11.5176331 21.4799998,12.2676333 21.7399998,13.1276333 C22.3999998,15.2976334 21.8000001,17.5276333 20.1700001,18.9576333 Z" id="Vector" fill="CURRENTCOLOR" fill-rule="nonzero" opacity="0.400000006"></path>
                </g>
            </g>
        </g>
    </g>
</svg>