<?xml version="1.0" encoding="UTF-8"?>
<svg width="24px" height="24px" viewBox="0 0 24 24" version="1.1" xmlns="http://www.w3.org/2000/svg" xmlns:xlink="http://www.w3.org/1999/xlink">
    <title>Icon/Cloud/Linear</title>
    <defs>
        <path d="M5,0 L59,0 C61.7614237,-8.8817842e-16 64,2.23857625 64,5 L64,203 C64,205.761424 61.7614237,208 59,208 L5,208 C2.23857625,208 0,205.761424 0,203 L0,5 C0,2.23857625 2.23857625,0 5,0 Z" id="path-1"></path>
        <path d="M0,0 L24,0 L24,24 L0,24 L0,0 Z" id="path-2"></path>
    </defs>
    <g id="Icons" stroke="none" stroke-width="1" fill="none" fill-rule="evenodd">
        <g id="Weather" transform="translate(-688, -234)" fill-rule="nonzero">
            <g id="Claud" transform="translate(668, 166)" xlink:href="#path-1">
                <g id="Icon/Cloud/Linear" transform="translate(20, 68)" xlink:href="#path-2">
                    <use fill="#FFFFFF" fill-rule="evenodd" xlink:href="#path-2"></use>
                    <path d="M7.22999954,13.0556555 C6.69999957,12.7856555 6.10999978,12.6456556 5.50999975,12.6456556 C0.829999924,12.9756556 0.829999924,19.7856559 5.50999975,20.1158028 L16.5999994,20.1158028 C17.9499995,20.1256559 19.2499998,19.6256554 20.2399998,18.7156553 C23.5299997,15.8456554 21.7699995,10.0756553 17.4399996,9.52565527 C15.8799996,0.155655384 2.34999943,3.71565533 5.55999947,12.6456556" id="Vector" stroke="CURRENTCOLOR" stroke-width="1.5" stroke-linecap="round" stroke-linejoin="round" fill-rule="nonzero"></path>
                </g>
            </g>
        </g>
    </g>
</svg>