<?xml version="1.0" encoding="UTF-8"?>
<svg width="24px" height="24px" viewBox="0 0 24 24" version="1.1" xmlns="http://www.w3.org/2000/svg" xmlns:xlink="http://www.w3.org/1999/xlink">
    <title>Icon/Cloud/Outline</title>
    <defs>
        <path d="M5,0 L59,0 C61.7614237,-8.8817842e-16 64,2.23857625 64,5 L64,203 C64,205.761424 61.7614237,208 59,208 L5,208 C2.23857625,208 0,205.761424 0,203 L0,5 C0,2.23857625 2.23857625,0 5,0 Z" id="path-1"></path>
        <path d="M0,0 L24,0 L24,24 L0,24 L0,0 Z" id="path-2"></path>
    </defs>
    <g id="Icons" stroke="none" stroke-width="1" fill="none" fill-rule="evenodd">
        <g id="Weather" transform="translate(-688, -186)" fill-rule="nonzero">
            <g id="Claud" transform="translate(668, 166)" xlink:href="#path-1">
                <g id="Icon/Cloud/Outline" transform="translate(20, 20)" xlink:href="#path-2">
                    <use fill="#FFFFFF" fill-rule="evenodd" xlink:href="#path-2"></use>
                    <path d="M16.3900003,20.6167011 C16.3800003,20.6167011 16.3599994,20.6167011 16.3499994,20.6167011 L5.26000023,20.6167011 C2.32000017,20.4067011 1,18.1467004 1,16.1267004 C1,14.3267004 2.05000019,12.3267 4.34000015,11.7767 C3.70000017,9.27670001 4.23999989,6.92670058 5.86999989,5.22670053 C7.71999991,3.28670048 10.6899998,2.51670032 13.2399998,3.30670034 C15.5799997,4.02670037 17.2300018,5.95670055 17.8300018,8.63670062 C19.8800018,9.09670063 21.5099981,10.6467001 22.1699982,12.7867002 C22.8799981,15.1167002 22.2400017,17.5067012 20.4900017,19.0367012 C19.3700017,20.0467012 17.9100003,20.6167011 16.3900003,20.6167011 Z M5.28000021,13.1367006 C5.27000021,13.1367006 5.27000023,13.1367006 5.26000023,13.1367006 C3.36000025,13.2767006 2.49000001,14.7367004 2.49000001,16.1267004 C2.49000001,17.5167004 3.36000013,18.9767011 5.30000019,19.1167011 L16.3399992,19.1167011 C17.5,19.0967011 18.6100012,18.6966994 19.4700012,17.9166994 C21.0300012,16.5466994 21.1400012,14.5966998 20.7200012,13.2266998 C20.3000012,11.8466998 19.1300001,10.2867 17.0900002,10.0267 C16.7600001,9.98670001 16.5,9.73670014 16.4399996,9.40670012 C16.0399996,7.00670003 14.74,5.34670042 12.79,4.7467004 C10.76,4.12670039 8.41999984,4.73670052 6.94999981,6.2667005 C5.61999977,7.65670048 5.24000013,9.57669996 5.86000013,11.6866999 C6.37000012,11.7566999 6.85999995,11.9067006 7.30999994,12.1367006 C7.67999995,12.3267006 7.82999986,12.7766999 7.63999987,13.1466999 C7.44999987,13.5166999 7,13.6666998 6.63000011,13.4766998 C6.22000012,13.2666998 5.77000016,13.1567001 5.32000017,13.1567001 C5.31000017,13.1367001 5.30000021,13.1367006 5.28000021,13.1367006 Z" id="Vector" fill="CURRENTCOLOR" fill-rule="nonzero"></path>
                    <path d="M15.5600006,10.4567007 C15.2800006,10.4567007 15.0200005,10.3067006 14.8900006,10.0367006 C14.7000006,9.66670059 14.8600007,9.21670039 15.2300007,9.0267004 C15.8500007,8.71670039 16.5400005,8.54670061 17.2200005,8.53670061 C17.6200005,8.52670061 17.9800007,8.85670038 17.9800007,9.27670037 C17.9900007,9.68670036 17.660001,10.0367006 17.240001,10.0367006 C16.780001,10.0467006 16.3100006,10.1567005 15.8900006,10.3667005 C15.7800006,10.4267005 15.6700006,10.4567007 15.5600006,10.4567007 Z" id="Vector" fill="CURRENTCOLOR" fill-rule="nonzero"></path>
                </g>
            </g>
        </g>
    </g>
</svg>