<?xml version="1.0" encoding="UTF-8"?>
<svg width="24px" height="24px" viewBox="0 0 24 24" version="1.1" xmlns="http://www.w3.org/2000/svg" xmlns:xlink="http://www.w3.org/1999/xlink">
    <title>Icon/User-minus/Bold</title>
    <defs>
        <path d="M5,0 L59,0 C61.7614237,-8.8817842e-16 64,2.23857625 64,5 L64,203 C64,205.761424 61.7614237,208 59,208 L5,208 C2.23857625,208 0,205.761424 0,203 L0,5 C0,2.23857625 2.23857625,0 5,0 Z" id="path-1"></path>
        <path d="M0,0 L24,0 L24,24 L0,24 L0,0 Z" id="path-2"></path>
    </defs>
    <g id="Icons" stroke="none" stroke-width="1" fill="none" fill-rule="evenodd">
        <g id="Basic-Users" transform="translate(-480, -282)" fill-rule="nonzero">
            <g id="User-minus" transform="translate(460, 166)" xlink:href="#path-1">
                <g id="Icon/User-minus/Bold" transform="translate(20, 116)" xlink:href="#path-2">
                    <path d="M11.8,17 C11.8,15.9 12.1000001,14.9000004 12.6000001,14.1000004 C12.3000001,14.1000004 11.9000002,14.1000004 11.6000001,14.1000004 C6.50000024,14.1000004 2.39999991,17.499999 2.49999991,21.7999992 C2.49999991,21.9999992 2.7,22.1000004 2.90000001,22.1000004 L14.6999996,22.1000004 C12.9999995,21.1000004 11.8,19.2000003 11.8,17.1000004 L11.8,17 Z" id="Vector" fill="CURRENTCOLOR"></path>
                    <path d="M21.4499025,16.8999023 C21.4499025,17.2199023 21.4099017,17.5299017 21.3299017,17.8299026 C21.2399037,18.2299027 21.0799016,18.6199018 20.8699026,18.9599018 C20.1799016,20.1199018 18.9099015,20.8999023 17.4499025,20.8999023 C16.4199015,20.8999023 15.4899037,20.5099037 14.7899027,19.8699017 C14.4899027,19.6099017 14.2299025,19.2999018 14.0299025,18.9599018 C13.6599025,18.3599018 13.4499025,17.6499023 13.4499025,16.8999023 C13.4499025,15.8199023 13.8799027,14.8299024 14.5799026,14.1099024 C15.3099027,13.3599024 16.3299016,12.8999023 17.4499025,12.8999023 C18.6299025,12.8999023 19.6999028,13.4099023 20.4199018,14.2299023 C21.0599028,14.9399022 21.4499025,15.8799024 21.4499025,16.8999023 Z" id="Vector" stroke="CURRENTCOLOR" stroke-width="1.5" stroke-linecap="round" stroke-linejoin="round"></path>
                    <line x1="18.9395676" y1="16.8798828" x2="15.9596682" y2="16.8798828" id="Vector" stroke="CURRENTCOLOR" stroke-width="1.5" stroke-linecap="round" stroke-linejoin="round"></line>
                    <path d="M11.5,12 C14.3,12 16.5,9.79999995 16.5,7 C16.5,4.20000005 14.3,2 11.5,2 C8.70000005,2 6.5,4.20000005 6.5,7 C6.5,9.79999995 8.70000005,12 11.5,12 Z" id="Vector" fill="CURRENTCOLOR"></path>
                </g>
            </g>
        </g>
    </g>
</svg>