<?xml version="1.0" encoding="UTF-8"?>
<svg width="24px" height="24px" viewBox="0 0 24 24" version="1.1" xmlns="http://www.w3.org/2000/svg" xmlns:xlink="http://www.w3.org/1999/xlink">
    <title>Icon/User-minus/Linear</title>
    <defs>
        <path d="M5,0 L59,0 C61.7614237,-8.8817842e-16 64,2.23857625 64,5 L64,203 C64,205.761424 61.7614237,208 59,208 L5,208 C2.23857625,208 0,205.761424 0,203 L0,5 C0,2.23857625 2.23857625,0 5,0 Z" id="path-1"></path>
        <path d="M0,0 L24,0 L24,24 L0,24 L0,0 Z" id="path-2"></path>
    </defs>
    <g id="Icons" stroke="none" stroke-width="1" fill="none" fill-rule="evenodd" stroke-linecap="round" stroke-linejoin="round">
        <g id="Basic-Users" transform="translate(-480, -234)" fill-rule="nonzero" stroke="CURRENTCOLOR" stroke-width="1.5">
            <g id="User-minus" transform="translate(460, 166)" xlink:href="#path-1">
                <g id="Icon/User-minus/Linear" transform="translate(20, 68)" xlink:href="#path-2">
                    <path d="M17,7 C17,9.76142383 14.7614238,12 12,12 C9.23857617,12 7,9.76142383 7,7 C7,4.23857617 9.23857617,2 12,2 C14.7614238,2 17,4.23857617 17,7 Z" id="Vector"></path>
                    <path d="M3.40997314,22 C3.40997314,18.1300001 7.26000023,15 12,15 C12.96,15 13.8900098,15.1299951 14.7600098,15.3699951" id="Vector"></path>
                    <path d="M22,18 C22,18.32 21.9600049,18.6299927 21.8800049,18.9299927 C21.7900049,19.3299927 21.6299829,19.7199976 21.4199829,20.0599976 C20.7299829,21.2199975 19.46,22 18,22 C16.97,22 16.0400268,21.6099707 15.3400269,20.9699707 C15.0400268,20.7099707 14.7800171,20.3999976 14.5800171,20.0599976 C14.2100171,19.4599975 14,18.75 14,18 C14,16.92 14.4300049,15.930022 15.1300049,15.210022 C15.8600049,14.460022 16.88,14 18,14 C19.1799999,14 20.2499707,14.5100171 20.9699707,15.3300171 C21.6099707,16.0400171 22,16.98 22,18 Z" id="Vector"></path>
                    <line x1="19.4897461" y1="17.9799805" x2="16.5097656" y2="17.9799805" id="Vector"></line>
                </g>
            </g>
        </g>
    </g>
</svg>