<?xml version="1.0" encoding="UTF-8"?>
<svg width="24px" height="24px" viewBox="0 0 24 24" version="1.1" xmlns="http://www.w3.org/2000/svg" xmlns:xlink="http://www.w3.org/1999/xlink">
    <title>Icon/User-minus/Outline</title>
    <defs>
        <path d="M5,0 L59,0 C61.7614237,-8.8817842e-16 64,2.23857625 64,5 L64,203 C64,205.761424 61.7614237,208 59,208 L5,208 C2.23857625,208 0,205.761424 0,203 L0,5 C0,2.23857625 2.23857625,0 5,0 Z" id="path-1"></path>
        <path d="M0,0 L24,0 L24,24 L0,24 L0,0 Z" id="path-2"></path>
    </defs>
    <g id="Icons" stroke="none" stroke-width="1" fill="none" fill-rule="evenodd">
        <g id="Basic-Users" transform="translate(-480, -186)" fill="CURRENTCOLOR" fill-rule="nonzero">
            <g id="User-minus" transform="translate(460, 166)" xlink:href="#path-1">
                <g id="Icon/User-minus/Outline" transform="translate(20, 20)" xlink:href="#path-2">
                    <path d="M12,12.75 C8.82999992,12.75 6.25,10.1700001 6.25,7 C6.25,3.82999992 8.82999992,1.25 12,1.25 C15.1700001,1.25 17.75,3.82999992 17.75,7 C17.75,10.1700001 15.1700001,12.75 12,12.75 Z M12,2.75 C9.66000009,2.75 7.75,4.66000009 7.75,7 C7.75,9.33999991 9.66000009,11.25 12,11.25 C14.3399999,11.25 16.25,9.33999991 16.25,7 C16.25,4.66000009 14.3399999,2.75 12,2.75 Z" id="Vector"></path>
                    <path d="M3.41015625,22.75 C3.00015625,22.75 2.66015625,22.41 2.66015625,22 C2.66015625,17.73 6.85018301,14.25 12.0001831,14.25 C13.0101831,14.25 14.0002051,14.3800244 14.9602051,14.6500244 C15.3602051,14.7600244 15.5901636,15.1700073 15.4801636,15.5700073 C15.3701636,15.9700073 14.9601807,16.2000269 14.5601807,16.0900269 C13.7401807,15.8600269 12.8801831,15.75 12.0001831,15.75 C7.68018293,15.75 4.16015625,18.55 4.16015625,22 C4.16015625,22.41 3.82015625,22.75 3.41015625,22.75 Z" id="Vector"></path>
                    <path d="M18,22.75 C16.8200001,22.75 15.7000171,22.3100196 14.8300171,21.5200195 C14.4800171,21.2200195 14.1699927,20.8500024 13.9299927,20.4400024 C13.4899927,19.7200024 13.25,18.87 13.25,18 C13.25,16.75 13.7300268,15.5800024 14.5900269,14.6900024 C15.4900268,13.7600024 16.7,13.25 18,13.25 C19.36,13.25 20.6500293,13.8300171 21.5300293,14.8300171 C22.3100293,15.7000171 22.75,16.8200001 22.75,18 C22.75,18.38 22.6999756,18.7599951 22.5999756,19.1199951 C22.4999756,19.5699951 22.3099878,20.0400122 22.0499878,20.4500122 C21.2199878,21.8700122 19.66,22.75 18,22.75 Z M18,14.75 C17.11,14.75 16.2899829,15.0999805 15.6699829,15.7299805 C15.0799829,16.3399805 14.75,17.14 14.75,18 C14.75,18.59 14.9099707,19.1699829 15.2199707,19.6699829 C15.3799707,19.9499829 15.5900171,20.1999732 15.8300171,20.4099731 C16.4300171,20.9599732 17.2,21.2600098 18,21.2600098 C19.13,21.2600098 20.2000293,20.6600025 20.7800293,19.6900024 C20.9500293,19.4100024 21.0800244,19.0900293 21.1500244,18.7800293 C21.2200244,18.5200293 21.25,18.2700098 21.25,18.0100098 C21.25,17.2100098 20.9499732,16.4400269 20.4099731,15.8400269 C19.8099731,15.1400269 18.93,14.75 18,14.75 Z" id="Vector"></path>
                    <path d="M19.4997559,18.7299805 L16.5097656,18.7299805 C16.0997656,18.7299805 15.7597656,18.3899805 15.7597656,17.9799805 C15.7597656,17.5699805 16.0997656,17.2299805 16.5097656,17.2299805 L19.4997559,17.2299805 C19.9097559,17.2299805 20.2497559,17.5699805 20.2497559,17.9799805 C20.2497559,18.3899805 19.9097559,18.7299805 19.4997559,18.7299805 Z" id="Vector"></path>
                </g>
            </g>
        </g>
    </g>
</svg>