<?xml version="1.0" encoding="UTF-8"?>
<svg width="24px" height="24px" viewBox="0 0 24 24" version="1.1" xmlns="http://www.w3.org/2000/svg" xmlns:xlink="http://www.w3.org/1999/xlink">
    <title>Icon/World/Outline</title>
    <defs>
        <path d="M5,0 L59,0 C61.7614237,-8.8817842e-16 64,2.23857625 64,5 L64,203 C64,205.761424 61.7614237,208 59,208 L5,208 C2.23857625,208 0,205.761424 0,203 L0,5 C0,2.23857625 2.23857625,0 5,0 Z" id="path-1"></path>
        <path d="M0,0 L24,0 L24,24 L0,24 L0,0 Z" id="path-2"></path>
    </defs>
    <g id="Icons" stroke="none" stroke-width="1" fill="none" fill-rule="evenodd">
        <g id="Weather" transform="translate(-688, -434)" fill-rule="nonzero">
            <g id="World" transform="translate(668, 414)" xlink:href="#path-1">
                <g id="Icon/World/Outline" transform="translate(20, 20)" xlink:href="#path-2">
                    <use fill="#FFFFFF" fill-rule="evenodd" xlink:href="#path-2"></use>
                    <path d="M11.9534884,2 C6.46511628,2 2,6.46511628 2,11.9534884 C2,17.4418605 6.46511628,22 11.9534884,22 C17.4418605,22 22,17.4418605 22,11.9534884 C22,6.46511628 17.4418605,2 11.9534884,2 Z M20.6046512,11.9534884 C20.6046512,13.4418605 20.2325581,14.8372093 19.5813953,16.0465116 C18.9302326,15.7674419 18.2790698,15.5813953 17.4418605,15.4883721 C16.4186047,15.4883721 16.3255814,13.627907 16.3255814,12.0465116 C16.3255814,11.6744186 16.0465116,11.3953488 15.6744186,10.9302326 C15.5813953,10.8372093 15.4883721,10.744186 15.3953488,10.5581395 L15.3023256,10.4651163 C14.6511628,9.90697674 14.2790698,9.34883721 14.2790698,8.79069767 C14.2790698,7.95348837 14.9302326,7.6744186 16.5116279,7.6744186 C16.9767442,7.6744186 17.4418605,7.39534884 18.2790698,6.09302326 C19.6744186,7.58139535 20.6046512,9.72093023 20.6046512,11.9534884 Z M3.39534884,11.9534884 C3.39534884,9.62790698 4.3255814,7.48837209 5.81395349,6 C7.95348837,6.74418605 9.34883721,8.41860465 9.34883721,8.41860465 C9.62790698,8.69767442 9.72093023,8.97674419 9.72093023,9.25581395 C9.62790698,9.62790698 9.06976744,10.0930233 8.88372093,10.1860465 C8.60465116,10.372093 8.3255814,10.5581395 7.95348837,10.8372093 C7.39534884,11.2093023 6.74418605,11.6744186 6.37209302,11.8604651 C6,11.9534884 5.81395349,12.2325581 5.62790698,12.5116279 C5.53488372,12.7906977 5.53488372,13.0697674 5.62790698,13.4418605 L6.27906977,14.9302326 L7.58139535,16.5116279 C7.6744186,16.6976744 7.76744186,16.8837209 7.76744186,16.9767442 L7.58139535,19.3023256 C4.97674419,17.8139535 3.39534884,15.0232558 3.39534884,11.9534884 Z M11.9534884,20.6046512 C10.8372093,20.6046512 9.81395349,20.4186047 8.79069767,20.0465116 L9.06976744,17.0697674 C9.06976744,16.6046512 8.97674419,16.1395349 8.60465116,15.6744186 L7.48837209,14.2790698 L6.93023256,13.0697674 C7.48837209,12.7906977 8.13953488,12.4186047 8.69767442,11.9534884 C9.06976744,11.7674419 9.34883721,11.4883721 9.53488372,11.3953488 C9.62790698,11.3023256 10.9302326,10.6511628 11.1162791,9.53488372 C11.2093023,9.06976744 11.1162791,8.3255814 10.4651163,7.58139535 C10.372093,7.48837209 9.1627907,5.90697674 7.02325581,4.97674419 C8.41860465,3.95348837 10.0930233,3.39534884 11.9534884,3.39534884 C13.9069767,3.39534884 15.6744186,4.04651163 17.1627907,5.1627907 C16.6976744,5.90697674 16.4186047,6.18604651 16.3255814,6.27906977 C15.3023256,6.27906977 12.7906977,6.37209302 12.7906977,8.88372093 C12.8837209,9.81395349 13.3488372,10.744186 14.2790698,11.4883721 C14.372093,11.5813953 14.4651163,11.6744186 14.5581395,11.8604651 C14.6511628,11.9534884 14.744186,12.1395349 14.8372093,12.2325581 C14.8372093,13.7209302 14.9302326,16.8837209 17.3488372,16.8837209 C17.3488372,16.8837209 17.3488372,16.8837209 17.3488372,16.8837209 C17.9069767,16.9767442 18.372093,17.0697674 18.8372093,17.255814 C17.1627907,19.2093023 14.744186,20.6046512 11.9534884,20.6046512 Z" id="Shape" fill="CURRENTCOLOR" fill-rule="nonzero"></path>
                </g>
            </g>
        </g>
    </g>
</svg>