<?xml version="1.0" encoding="UTF-8"?>
<svg width="24px" height="24px" viewBox="0 0 24 24" version="1.1" xmlns="http://www.w3.org/2000/svg" xmlns:xlink="http://www.w3.org/1999/xlink">
    <title>Icon/World/Linear</title>
    <defs>
        <path d="M5,0 L59,0 C61.7614237,-8.8817842e-16 64,2.23857625 64,5 L64,203 C64,205.761424 61.7614237,208 59,208 L5,208 C2.23857625,208 0,205.761424 0,203 L0,5 C0,2.23857625 2.23857625,0 5,0 Z" id="path-1"></path>
        <path d="M0,0 L24,0 L24,24 L0,24 L0,0 Z" id="path-2"></path>
    </defs>
    <g id="Icons" stroke="none" stroke-width="1" fill="none" fill-rule="evenodd">
        <g id="Weather" transform="translate(-688, -482)" fill-rule="nonzero">
            <g id="World" transform="translate(668, 414)" xlink:href="#path-1">
                <g id="Icon/World/Linear" transform="translate(20, 68)" xlink:href="#path-2">
                    <use fill="#FFFFFF" fill-rule="evenodd" xlink:href="#path-2"></use>
                    <path d="M20.1,17.2 C19.4,16.8 18.7,16.6 17.8,16.5 C15.8,16.5 15.8,13.5 15.8,12.1 C15.8,11.9 15.3,11.4 15,11 L15,11 C14.3,10.4 13.7,9.6 13.6,8.6 C13.6,6.6 15.8,6.6 16.8,6.6 C17.2,6.6 17.9,5.6 18.4,4.8" id="Path" stroke="CURRENTCOLOR" stroke-width="1.5"></path>
                    <circle id="Oval" stroke="CURRENTCOLOR" stroke-width="1.5" cx="12" cy="12" r="10"></circle>
                    <path d="M7.8,21.1 L8.1,17.4 C8.1,17 8,16.7 7.8,16.4 L6.5,14.8 L5.8,13.2 C5.7,12.9 5.8,12.6 6.1,12.5 C7,12.1 8.3,11.1 9,10.7 C9,10.7 11.4,9.5 9.7,7.7 C9.7,7.7 7.9,5.4 5,4.7" id="Path" stroke="CURRENTCOLOR" stroke-width="1.5"></path>
                </g>
            </g>
        </g>
    </g>
</svg>