<?xml version="1.0" encoding="UTF-8"?>
<svg width="24px" height="24px" viewBox="0 0 24 24" version="1.1" xmlns="http://www.w3.org/2000/svg" xmlns:xlink="http://www.w3.org/1999/xlink">
    <title>Icon/World/Bold</title>
    <defs>
        <path d="M5,0 L59,0 C61.7614237,-8.8817842e-16 64,2.23857625 64,5 L64,203 C64,205.761424 61.7614237,208 59,208 L5,208 C2.23857625,208 0,205.761424 0,203 L0,5 C0,2.23857625 2.23857625,0 5,0 Z" id="path-1"></path>
        <path d="M0,0 L24,0 L24,24 L0,24 L0,0 Z" id="path-2"></path>
    </defs>
    <g id="Icons" stroke="none" stroke-width="1" fill="none" fill-rule="evenodd">
        <g id="Weather" transform="translate(-688, -530)" fill-rule="nonzero">
            <g id="World" transform="translate(668, 414)" xlink:href="#path-1">
                <g id="Icon/World/Bold" transform="translate(20, 116)" xlink:href="#path-2" fill-rule="evenodd">
                    <use fill="#FFFFFF" xlink:href="#path-2"></use>
                    <path d="M12,2 C6.47715257,2 2,6.47715257 2,12 C2,17.5228474 6.47715257,22 12,22 C17.5228474,22 22,17.5228474 22,12 C22,9.34783474 20.9464308,6.80429599 19.0710674,4.92893209 C17.195704,3.05356831 14.6521653,2 12,2 Z M10.2315761,10.294737 C9.78025276,10.294737 9.3289294,10.7447558 8.87630151,11.1960756 C8.42104952,11.6500116 7.96447844,12.1052636 7.50526017,12.1052636 C7.26342944,12.0994331 7.02976919,12.1929363 6.85871968,12.3639864 C6.68766965,12.5350354 6.59416741,12.7686956 6.59999687,13.0105264 L7.50526017,14.8315795 C7.50526017,16.6491228 7.81052328,17.8596487 8.42104952,18.4631573 C9.03157576,19.0666665 9.03157576,19.3684211 8.42104952,19.3684211 C5.7657675,18.3007385 3.92957866,15.8389447 3.66315493,12.9894742 C3.45344031,10.8883029 4.05608807,8.78656879 5.34736548,7.11578961 C5.49308968,6.91786605 5.72075156,6.79675745 5.96632144,6.78652502 C6.21189158,6.7762931 6.44883949,6.87804312 6.61052342,7.06315783 C6.8147327,7.36072129 7.14498811,7.54721882 7.50526017,7.56842101 C8.42104952,7.56842101 11.147366,10.294737 10.2315761,10.294737 Z M17.8209981,14.5662452 C18.3451737,14.8538503 18.8408946,15.1258422 19.1894736,14.9684197 C20.2070167,14.5122796 20.5403496,12.9263151 20.1894724,10.210526 C19.677192,7.83859644 18.7368414,6.3964913 17.3684205,5.88421059 C17.0875363,5.79058261 16.8735518,6.18140386 16.631432,6.62361286 C16.3563572,7.12601049 16.0449654,7.69473668 15.5578939,7.69473668 C14.6421045,7.69473668 13.7368417,7.70526324 13.7368417,8.61052603 C13.7368417,9.06315793 14.1921047,9.51842097 14.6473678,9.97368401 C15.1026308,10.428947 15.5578939,10.8842101 15.5578939,11.336841 C15.5578939,12.2421048 15.5578939,14.0526314 16.4631577,14.0526314 C16.8849086,14.0526314 17.3637786,14.3153777 17.8209981,14.5662452 Z" id="Icon" fill="CURRENTCOLOR"></path>
                </g>
            </g>
        </g>
    </g>
</svg>