<?xml version="1.0" encoding="UTF-8"?>
<svg width="24px" height="24px" viewBox="0 0 24 24" version="1.1" xmlns="http://www.w3.org/2000/svg" xmlns:xlink="http://www.w3.org/1999/xlink">
    <title>Icon/Folder/Outline</title>
    <defs>
        <path d="M5,0 L59,0 C61.7614237,-8.8817842e-16 64,2.23857625 64,5 L64,203 C64,205.761424 61.7614237,208 59,208 L5,208 C2.23857625,208 0,205.761424 0,203 L0,5 C0,2.23857625 2.23857625,0 5,0 Z" id="path-1"></path>
        <path d="M0,0 L24,0 L24,24 L0,24 L0,0 Z" id="path-2"></path>
    </defs>
    <g id="Icons" stroke="none" stroke-width="1" fill="none" fill-rule="evenodd">
        <g id="Content-Managment" transform="translate(-64, -184)" fill-rule="nonzero">
            <g id="Folder-Copy" transform="translate(44, 164)" xlink:href="#path-1">
                <g id="Icon/Folder/Outline" transform="translate(20, 20)" xlink:href="#path-2">
                    <path d="M1.25,17 L1.25,7 C1.25,5.00536013 1.4812209,3.45823222 2.46972656,2.46972656 C3.45823222,1.4812209 5.00536013,1.25 7,1.25 L8.5,1.25 C9.3147198,1.25 9.92798871,1.36768225 10.4345703,1.671875 C10.9234788,1.96557838 11.2329,2.39386669 11.5,2.75 L12.9970703,4.74609375 C13.207035,5.0223631 13.2729617,5.09563138 13.3554688,5.14550781 C13.4183281,5.18349971 13.5676878,5.25 14,5.25 L17,5.25 C18.9946399,5.25 20.5417678,5.4812209 21.5302734,6.46972656 C22.5187791,7.45823222 22.75,9.00536013 22.75,11 L22.75,17 C22.75,18.9946399 22.5187791,20.5417678 21.5302734,21.5302734 C20.5417678,22.5187791 18.9946399,22.75 17,22.75 L7,22.75 C5.00536013,22.75 3.45823222,22.5187791 2.46972656,21.5302734 C1.4812209,20.5417678 1.25,18.9946399 1.25,17 Z M2.75,17 C2.75,19.0053601 3.0187791,19.9582322 3.53027344,20.4697266 C4.04176778,20.9812209 4.99463987,21.25 7,21.25 L17,21.25 C19.0053601,21.25 19.9582322,20.9812209 20.4697266,20.4697266 C20.9812209,19.9582322 21.25,19.0053601 21.25,17 L21.25,11 C21.25,8.99463987 20.9812209,8.04176778 20.4697266,7.53027344 C19.9582322,7.0187791 19.0053601,6.75 17,6.75 L14,6.75 C13.4323122,6.75 12.9712424,6.6666957 12.5791016,6.4296875 C12.2068688,6.20464791 11.9726956,5.87794326 11.8027344,5.65429687 L10.2998047,3.65039062 C9.99690467,3.24652395 9.85570069,3.07430447 9.66210938,2.95800781 C9.48622729,2.85242985 9.18472517,2.75 8.5,2.75 L7,2.75 C4.99463987,2.75 4.04176778,3.0187791 3.53027344,3.53027344 C3.0187791,4.04176778 2.75,4.99463987 2.75,7 L2.75,17 Z" id="Vector-(Stroke)" fill="CURRENTCOLOR"></path>
                    <polygon id="Vector" opacity="0" points="0 0 24 0 24 24 0 24"></polygon>
                </g>
            </g>
        </g>
    </g>
</svg>