<?xml version="1.0" encoding="UTF-8"?>
<svg width="24px" height="24px" viewBox="0 0 24 24" version="1.1" xmlns="http://www.w3.org/2000/svg" xmlns:xlink="http://www.w3.org/1999/xlink">
    <title>Icon/Folder/Bold</title>
    <defs>
        <path d="M5,0 L59,0 C61.7614237,-8.8817842e-16 64,2.23857625 64,5 L64,203 C64,205.761424 61.7614237,208 59,208 L5,208 C2.23857625,208 0,205.761424 0,203 L0,5 C0,2.23857625 2.23857625,0 5,0 Z" id="path-1"></path>
        <path d="M0,0 L24,0 L24,24 L0,24 L0,0 Z" id="path-2"></path>
    </defs>
    <g id="Icons" stroke="none" stroke-width="1" fill="none" fill-rule="evenodd">
        <g id="Content-Managment" transform="translate(-64, -280)" fill-rule="nonzero">
            <g id="Folder-Copy" transform="translate(44, 164)" xlink:href="#path-1">
                <g id="Icon/Folder/Bold" transform="translate(20, 116)" xlink:href="#path-2">
                    <path d="M21.6700001,9.25 L3,9.25 C2.44771525,9.25 2,8.80228475 2,8.25 L2,6.42000008 L2,6.42000008 C2,3.98000002 3.98000002,2 6.42000008,2 L8.73999977,2 C10.3699998,2 10.8799998,2.53000009 11.5299997,3.4000001 L12.9300003,5.26000023 C13.2400003,5.67000023 13.2799997,5.71999979 13.8599997,5.71999979 L16.6499996,5.71999979 C18.9599996,5.71999979 20.9300001,7.19000006 21.6700001,9.25 Z" id="Vector" fill="CURRENTCOLOR"></path>
                    <path d="M21.9833779,11.7463547 L22,16.6499987 L22,16.6499987 C22,19.5999987 19.5999997,22 16.6499996,22 L7.3499999,22 C4.39999986,22 2,19.5999987 2,16.6499987 L2.00001344,11.7499996 C2.00001344,11.1977201 2.4477205,10.750007 3,10.7499996 L20.9833702,10.7497445 C21.5343368,10.7497371 21.9815102,11.1953912 21.9833779,11.7463547 Z" id="Vector" fill="CURRENTCOLOR"></path>
                    <polygon id="Vector" opacity="0" transform="translate(12, 12) rotate(-180) translate(-12, -12)" points="0 0 24 0 24 24 0 24"></polygon>
                </g>
            </g>
        </g>
    </g>
</svg>