<?xml version="1.0" encoding="UTF-8"?>
<svg width="24px" height="24px" viewBox="0 0 24 24" version="1.1" xmlns="http://www.w3.org/2000/svg" xmlns:xlink="http://www.w3.org/1999/xlink">
    <title>Icon/Sort-arrow-up/Linear</title>
    <defs>
        <path d="M5,0 L59,0 C61.7614237,-8.8817842e-16 64,2.23857625 64,5 L64,203 C64,205.761424 61.7614237,208 59,208 L5,208 C2.23857625,208 0,205.761424 0,203 L0,5 C0,2.23857625 2.23857625,0 5,0 Z" id="path-1"></path>
        <path d="M0,0 L24,0 L24,24 L0,24 L0,0 Z" id="path-2"></path>
    </defs>
    <g id="Icons" stroke="none" stroke-width="1" fill="none" fill-rule="evenodd" stroke-linecap="round">
        <g id="View-Controls" transform="translate(-268, -234)" fill-rule="nonzero" stroke="CURRENTCOLOR" stroke-width="1.5">
            <g id="Sort-arrow-up" transform="translate(248, 166)" xlink:href="#path-1">
                <g id="Icon/Sort-arrow-up/Linear" transform="translate(20, 68)" xlink:href="#path-2">
                    <path d="M21,17 L12,17 M18,11 L12,11 M12,5 L15,5" id="Vector"></path>
                    <line x1="5.99902344" y1="5.12002468" x2="5.99902344" y2="18.0000248" id="Vector" stroke-linejoin="round" transform="translate(6.049, 11.56) scale(1, -1) translate(-6.049, -11.56)"></line>
                    <polyline id="Vector" stroke-linejoin="round" transform="translate(5.9994, 5.6751) scale(1, -1) translate(-5.9994, -5.6751)" points="9.34941483 4.00012207 5.99941444 7.35012245 2.64941406 4.00012207"></polyline>
                </g>
            </g>
        </g>
    </g>
</svg>