<?xml version="1.0" encoding="UTF-8"?>
<svg width="24px" height="24px" viewBox="0 0 24 24" version="1.1" xmlns="http://www.w3.org/2000/svg" xmlns:xlink="http://www.w3.org/1999/xlink">
    <title>Icon/Sort-arrow-up/Outline</title>
    <defs>
        <path d="M5,0 L59,0 C61.7614237,-8.8817842e-16 64,2.23857625 64,5 L64,203 C64,205.761424 61.7614237,208 59,208 L5,208 C2.23857625,208 0,205.761424 0,203 L0,5 C0,2.23857625 2.23857625,0 5,0 Z" id="path-1"></path>
        <path d="M0,0 L24,0 L24,24 L0,24 L0,0 Z" id="path-2"></path>
    </defs>
    <g id="Icons" stroke="none" stroke-width="1" fill="none" fill-rule="evenodd">
        <g id="View-Controls" transform="translate(-268, -186)" fill="CURRENTCOLOR" fill-rule="nonzero">
            <g id="Sort-arrow-up" transform="translate(248, 166)" xlink:href="#path-1">
                <g id="Icon/Sort-arrow-up/Outline" transform="translate(20, 20)" xlink:href="#path-2">
                    <path d="M21,16.25 C21.4142136,16.25 21.75,16.5857864 21.75,17 C21.75,17.4142136 21.4142136,17.75 21,17.75 L12,17.75 C11.5857864,17.75 11.25,17.4142136 11.25,17 C11.25,16.5857864 11.5857864,16.25 12,16.25 L21,16.25 Z M18,10.25 C18.4142136,10.25 18.75,10.5857864 18.75,11 C18.75,11.4142136 18.4142136,11.75 18,11.75 L12,11.75 C11.5857864,11.75 11.25,11.4142136 11.25,11 C11.25,10.5857864 11.5857864,10.25 12,10.25 L18,10.25 Z M15,4.25 C15.4142136,4.25 15.75,4.58578643 15.75,5 C15.75,5.41421357 15.4142136,5.75 15,5.75 L12,5.75 C11.5857864,5.75 11.25,5.41421357 11.25,5 C11.25,4.58578643 11.5857864,4.25 12,4.25 L15,4.25 Z" id="Vector-(Stroke)"></path>
                    <path d="M5.24902344,17.9995193 L5.24902344,5.11963654 C5.24902344,4.70542297 5.58480987,4.36963654 5.99902344,4.36963654 C6.41323701,4.36963654 6.74902344,4.70542297 6.74902344,5.11963654 L6.74902344,17.9995193 C6.74902344,18.4137329 6.41323701,18.7495193 5.99902344,18.7495193 C5.58480987,18.7495193 5.24902344,18.4137329 5.24902344,17.9995193 Z" id="Vector-(Stroke)" transform="translate(5.999, 11.5596) scale(1, -1) translate(-5.999, -11.5596)"></path>
                    <path d="M8.81927919,3.46979104 C9.11218026,3.17699511 9.58696529,3.17693026 9.87982607,3.46979104 C10.1725896,3.76265968 10.1725896,4.23746929 9.87982607,4.53033793 L6.52924013,7.87994719 C6.2363469,8.17284042 5.76158649,8.17284042 5.46869326,7.87994719 L2.11908399,4.53033793 C1.82619075,4.2374447 1.82619075,3.76268427 2.11908399,3.46979104 C2.41197722,3.17689781 2.88673764,3.17689781 3.17963088,3.46979104 L5.99896669,6.28912687 L8.81927919,3.46979104 Z" id="Vector-(Stroke)" transform="translate(5.9994, 5.6749) scale(1, -1) translate(-5.9994, -5.6749)"></path>
                </g>
            </g>
        </g>
    </g>
</svg>