<?xml version="1.0" encoding="UTF-8"?>
<svg width="24px" height="24px" viewBox="0 0 24 24" version="1.1" xmlns="http://www.w3.org/2000/svg" xmlns:xlink="http://www.w3.org/1999/xlink">
    <title>Icon/Mnue/Outline</title>
    <defs>
        <path d="M5,0 L59,0 C61.7614237,-8.8817842e-16 64,2.23857625 64,5 L64,203 C64,205.761424 61.7614237,208 59,208 L5,208 C2.23857625,208 0,205.761424 0,203 L0,5 C0,2.23857625 2.23857625,0 5,0 Z" id="path-1"></path>
        <path d="M0,0 L24,0 L24,24 L0,24 L0,0 Z" id="path-2"></path>
    </defs>
    <g id="Icons" stroke="none" stroke-width="1" fill="none" fill-rule="evenodd">
        <g id="Basic-Navigation" transform="translate(-64, -434)" fill="CURRENTCOLOR" fill-rule="nonzero">
            <g id="Menu" transform="translate(44, 414)" xlink:href="#path-1">
                <g id="Icon/Mnue/Outline" transform="translate(20, 20)" xlink:href="#path-2">
                    <path d="M21,6.25 C21.4142136,6.25 21.75,6.58578643 21.75,7 C21.75,7.41421357 21.4142136,7.75 21,7.75 L3,7.75 C2.58578643,7.75 2.25,7.41421357 2.25,7 C2.25,6.58578643 2.58578643,6.25 3,6.25 L21,6.25 Z" id="Vector-(Stroke)"></path>
                    <path d="M21,11.25 C21.4142136,11.25 21.75,11.5857864 21.75,12 C21.75,12.4142136 21.4142136,12.75 21,12.75 L3,12.75 C2.58578643,12.75 2.25,12.4142136 2.25,12 C2.25,11.5857864 2.58578643,11.25 3,11.25 L21,11.25 Z" id="Vector-(Stroke)"></path>
                    <path d="M21,16.25 C21.4142136,16.25 21.75,16.5857864 21.75,17 C21.75,17.4142136 21.4142136,17.75 21,17.75 L3,17.75 C2.58578643,17.75 2.25,17.4142136 2.25,17 C2.25,16.5857864 2.58578643,16.25 3,16.25 L21,16.25 Z" id="Vector-(Stroke)"></path>
                </g>
            </g>
        </g>
    </g>
</svg>