<?xml version="1.0" encoding="UTF-8"?>
<svg width="24px" height="24px" viewBox="0 0 24 24" version="1.1" xmlns="http://www.w3.org/2000/svg" xmlns:xlink="http://www.w3.org/1999/xlink">
    <title>Icon/Shop/Outline</title>
    <defs>
        <path d="M5,0 L59,0 C61.7614237,-8.8817842e-16 64,2.23857625 64,5 L64,203 C64,205.761424 61.7614237,208 59,208 L5,208 C2.23857625,208 0,205.761424 0,203 L0,5 C0,2.23857625 2.23857625,0 5,0 Z" id="path-1"></path>
        <path d="M0,0 L24,0 L24,24 L0,24 L0,0 Z" id="path-2"></path>
    </defs>
    <g id="Icons" stroke="none" stroke-width="1" fill="none" fill-rule="evenodd">
        <g id="Shop" transform="translate(-168, -433)" fill="CURRENTCOLOR" fill-rule="nonzero">
            <g transform="translate(148, 413)" xlink:href="#path-1" id="Icon/Shop/Outline">
                <g transform="translate(20, 20)" xlink:href="#path-2">
                    <path d="M22.0786033,11.2200003 L22.0786033,15.71 C22.0786033,20.620254 19.8723226,22.75 14.8125656,22.75 L9.22887086,22.75 C4.16911384,22.75 1.96283313,20.620254 1.96283313,15.71 L1.96283313,11.2200003 C1.96283313,10.8057867 2.29861957,10.4700003 2.71283313,10.4700003 C3.1270467,10.4700003 3.46283313,10.8057867 3.46283313,11.2200003 L3.46283313,15.71 C3.46283313,19.7797457 4.98592261,21.25 9.22887086,21.25 L14.8125656,21.25 C19.0555138,21.25 20.5786033,19.7797457 20.5786033,15.71 L20.5786033,11.2200003 C20.5786033,10.8057867 20.9143897,10.4700003 21.3286033,10.4700003 C21.7428168,10.4700003 22.0786033,10.8057867 22.0786033,11.2200003 Z" id="Vector"></path>
                    <path d="M15.1960908,1.92363427 L15.879843,8.60397246 C16.1118762,10.8811439 14.3610096,12.75 12.0258983,12.75 C9.69078689,12.75 7.93992038,10.8811439 8.17210613,8.60248976 L8.86618334,1.92248945 C8.90588989,1.54034205 9.22796264,1.25 9.61216733,1.25 L14.4499888,1.25 C14.8346338,1.25 15.1569259,1.54098835 15.1960908,1.92363427 Z M10.288277,2.75 L9.66422669,8.75602815 C9.5235764,10.1363687 10.566899,11.25 12.0258983,11.25 C13.4848975,11.25 14.5282201,10.1363687 14.3876044,8.75636604 L13.7728352,2.75 L10.288277,2.75 Z" id="Vector"></path>
                    <path d="M22.437044,5.5213283 L22.7272914,8.27309918 C22.9808341,10.7328112 21.0926167,12.75 18.5626542,12.75 C16.4726117,12.75 14.6050527,11.1237471 14.3876874,9.08717276 L13.6625323,2.07717253 C13.6167703,1.63479586 13.963814,1.25 14.4085514,1.25 L17.5681565,1.25 C21.1510302,1.25 22.0602928,1.88449707 22.437044,5.5213283 Z M18.5626542,11.25 C20.2159156,11.25 21.3962232,9.98907355 21.2353819,8.42867199 L20.9451738,5.67728154 C20.6569186,2.89472355 20.4495233,2.75 17.5681565,2.75 L15.2401375,2.75 L15.8794706,8.93040272 C16.0140955,10.1917288 17.2293947,11.25 18.5626542,11.25 Z" id="Vector"></path>
                    <path d="M10.3270973,2.07728171 L9.8298832,6.87693591 L9.60217774,9.08496375 C9.39771766,11.1203158 7.53011707,12.75 5.43734482,12.75 C2.90738246,12.75 1.019166,10.7328113 1.2726053,8.27410937 L1.55245075,5.52271827 C1.92934721,1.88449719 2.83861034,1.25 6.42148437,1.25 L9.58108953,1.25 C10.0258707,1.25 10.3729285,1.63486814 10.3270973,2.07728171 Z M6.42148437,2.75 C3.54011717,2.75 3.33272144,2.8947238 3.04460898,5.67589091 L2.76480284,8.42690158 C2.60377691,9.98907383 3.7840837,11.25 5.43734482,11.25 C6.77108053,11.25 7.98341067,10.1921104 8.10989,8.93306451 L8.33783197,6.72271848 L8.74938061,2.75 L6.42148437,2.75 Z" id="Vector"></path>
                    <path d="M15.3657384,19.5 L15.3657384,22 C15.3657384,22.4142136 15.0299519,22.75 14.6157384,22.75 L9.43605812,22.75 C9.02184456,22.75 8.68605812,22.4142136 8.68605812,22 L8.68605812,19.5 C8.68605812,17.4097459 9.88748071,16.25 12.0258983,16.25 C14.1643158,16.25 15.3657384,17.4097459 15.3657384,19.5 Z M10.1860581,19.5 L10.1860581,21.25 L13.8657384,21.25 L13.8657384,19.5 C13.8657384,18.2502542 13.347507,17.75 12.0258983,17.75 C10.7042895,17.75 10.1860581,18.2502542 10.1860581,19.5 Z" id="Vector"></path>
                </g>
            </g>
        </g>
    </g>
</svg>