<?xml version="1.0" encoding="UTF-8"?>
<svg width="24px" height="24px" viewBox="0 0 24 24" version="1.1" xmlns="http://www.w3.org/2000/svg" xmlns:xlink="http://www.w3.org/1999/xlink">
    <title>Icon/Shop/Bulk</title>
    <defs>
        <path d="M5,0 L59,0 C61.7614237,-8.8817842e-16 64,2.23857625 64,5 L64,203 C64,205.761424 61.7614237,208 59,208 L5,208 C2.23857625,208 0,205.761424 0,203 L0,5 C0,2.23857625 2.23857625,0 5,0 Z" id="path-1"></path>
        <path d="M0,0 L24,0 L24,24 L0,24 L0,0 Z" id="path-2"></path>
    </defs>
    <g id="Icons" stroke="none" stroke-width="1" fill="none" fill-rule="evenodd">
        <g id="Shop" transform="translate(-168, -577)" fill="CURRENTCOLOR" fill-rule="nonzero">
            <g transform="translate(148, 413)" xlink:href="#path-1" id="Icon/Shop/Bulk">
                <g transform="translate(20, 164)" xlink:href="#path-2" fill-rule="evenodd">
                    <g id="Group" transform="translate(2, 2)">
                        <path d="M19.0289443,9.59772905 L19.0289443,15.2673921 C19.0289443,17.8797917 16.8761021,20 14.223494,20 L5.82356788,20 C3.17095985,20 1.01811854,17.8797917 1.01811854,15.2673921 L1.01811854,9.66398528 C1.74854683,10.440133 2.7865237,10.8849981 3.9109988,10.8849981 C5.12197203,10.8849981 6.28489081,10.2886891 7.0153191,9.33270236 C7.66886022,10.2886891 8.78372461,10.8849981 10.0235305,10.8849981 C11.2537255,10.8849981 12.3493677,10.3170848 13.0125197,9.37056319 C13.7525588,10.3076196 14.8962556,10.8849981 16.0880071,10.8849981 C17.2509258,10.8849981 18.3081269,10.4212028 19.0289443,9.59772905 Z" id="Vector" fill-rule="nonzero" opacity="0.400000006"></path>
                        <path d="M12.8971894,0 L7.13065018,0 L6.41944391,6.96639844 C6.36177852,7.61003311 6.45788748,8.21580747 6.69815995,8.76478996 C7.25559206,10.0520593 8.56267438,10.8849981 10.023531,10.8849981 C11.5036093,10.8849981 12.7818591,10.07099 13.3585131,8.7742554 C13.5315092,8.36725111 13.6372293,7.89398982 13.6468402,7.41126383 L13.6468402,7.23142513 L12.8971894,0 Z" id="Vector" fill-rule="nonzero"></path>
                        <path d="M19.9804221,6.64458186 L19.7017052,4.02271668 C19.2980475,1.16422155 17.9813551,0 15.1653617,0 L11.4747764,0 L12.1859827,7.09891178 C12.1955936,7.19356394 12.2052049,7.29768095 12.2052049,7.47752005 C12.2628703,7.96971125 12.4166438,8.4240419 12.6473054,8.83104618 C13.3392901,10.0804547 14.6848158,10.8849981 16.0880071,10.8849981 C17.3662566,10.8849981 18.5195651,10.3265502 19.2403825,9.3421678 C19.8170364,8.58495053 20.0765311,7.62896426 19.9804221,6.64458186 Z" id="Vector" fill-rule="nonzero" opacity="0.600000024"></path>
                        <path d="M4.82403457,0 C1.9984303,0 0.69134792,1.16422178 0.278079269,4.05111252 L0.0185850283,6.65404639 C-0.07752396,7.66682452 0.201192182,8.65120698 0.806678795,9.41788945 C1.53710709,10.3549458 2.66158213,10.8849981 3.91099892,10.8849981 C5.31419017,10.8849981 6.65971613,10.080455 7.34208992,8.84997705 C7.59197327,8.42404235 7.75535812,7.93185093 7.80341262,7.42072926 L8.55306337,0.00946520668 L4.82403457,0.00946520668 L4.82403457,0 Z" id="Vector" fill-rule="nonzero" opacity="0.600000024"></path>
                        <path d="M9.39882245,14.5858969 C8.17823834,14.7089447 7.25559157,15.7311877 7.25559157,16.9427353 L7.25559157,19.9999995 L12.7818583,19.9999995 L12.7818583,17.2740182 C12.7914692,15.2957882 11.6093291,14.3587317 9.39882245,14.5858969 Z" id="Vector" fill-rule="nonzero"></path>
                    </g>
                </g>
            </g>
        </g>
    </g>
</svg>