<?xml version="1.0" encoding="UTF-8"?>
<svg width="24px" height="24px" viewBox="0 0 24 24" version="1.1" xmlns="http://www.w3.org/2000/svg" xmlns:xlink="http://www.w3.org/1999/xlink">
    <title>Icon/Shop/Bold</title>
    <defs>
        <path d="M5,0 L59,0 C61.7614237,-8.8817842e-16 64,2.23857625 64,5 L64,203 C64,205.761424 61.7614237,208 59,208 L5,208 C2.23857625,208 0,205.761424 0,203 L0,5 C0,2.23857625 2.23857625,0 5,0 Z" id="path-1"></path>
        <path d="M0,0 L24,0 L24,24 L0,24 L0,0 Z" id="path-2"></path>
    </defs>
    <g id="Icons" stroke="none" stroke-width="1" fill="none" fill-rule="evenodd">
        <g id="Shop" transform="translate(-168, -529)" fill="CURRENTCOLOR" fill-rule="nonzero">
            <g transform="translate(148, 413)" xlink:href="#path-1" id="Icon/Shop/Bold">
                <g transform="translate(20, 116)" xlink:href="#path-2" fill-rule="evenodd">
                    <g id="Group" transform="translate(2, 2)">
                        <path d="M19.9804221,6.64458186 L19.7017052,4.02271668 C19.2980474,1.16422155 17.9813559,0 15.1653624,0 L12.8971896,0 L11.474777,0 L8.55306372,0 L7.13065018,0 L4.82403476,0 C1.99843038,0 0.691347948,1.16422178 0.278079281,4.05111252 L0.0185850291,6.65404639 C-0.0775239631,7.66682452 0.20119219,8.65120698 0.806678827,9.41788945 C1.53710715,10.3549458 2.66158224,10.8849981 3.91099908,10.8849981 C5.12197235,10.8849981 6.28489118,10.2886891 7.0153195,9.33270236 C7.66886064,10.2886891 8.78372507,10.8849981 10.023531,10.8849981 C11.263337,10.8849981 12.3493683,10.3170848 13.0125203,9.37056319 C13.7525595,10.3076196 14.8962554,10.8849981 16.0880069,10.8849981 C17.3662565,10.8849981 18.519565,10.3265502 19.2403825,9.3421678 C19.8170364,8.58495053 20.0765311,7.62896426 19.9804221,6.64458186 Z" id="Vector" fill-rule="nonzero"></path>
                        <path d="M9.39882283,14.5858969 C8.17823867,14.7089447 7.25559186,15.7311877 7.25559186,16.9427353 L7.25559186,19.5362042 C7.25559186,19.791765 7.46703141,19.9999995 7.72652569,19.9999995 L12.310925,19.9999995 C12.5704193,19.9999995 12.7818588,19.791765 12.7818588,19.5362042 L12.7818588,17.2740182 C12.7914697,15.2957882 11.6093296,14.3587317 9.39882283,14.5858969 Z" id="Vector" fill-rule="nonzero"></path>
                        <path d="M19.0289451,12.4467583 L19.0289451,15.2673921 C19.0289451,17.8797917 16.8761027,20 14.2234946,20 C13.9640003,20 13.7525599,19.7917655 13.7525599,19.5362046 L13.7525599,17.2740187 C13.7525599,16.0624711 13.3777342,15.1159504 12.6473059,14.4723157 C12.0033757,13.8949375 11.1287847,13.6109803 10.0427531,13.6109803 C9.80248067,13.6109803 9.56220776,13.6204455 9.30271347,13.6488411 C7.59197346,13.819215 6.29450195,15.238997 6.29450195,16.9427358 L6.29450195,19.5362046 C6.29450195,19.7917655 6.0830624,20 5.82356812,20 C3.17095998,20 1.01811858,17.8797917 1.01811858,15.2673921 L1.01811858,12.4656892 C1.01811858,11.8031241 1.68127055,11.3582584 2.30597897,11.5759584 C2.56547326,11.6611453 2.82496746,11.7274026 3.09407263,11.7652634 C3.20940342,11.7841938 3.334345,11.8031242 3.44967579,11.8031242 C3.60345017,11.8220547 3.75722458,11.8315196 3.91099896,11.8315196 C5.02586322,11.8315196 6.12150605,11.4245153 6.98648694,10.7240893 C7.81302428,11.4245153 8.88944486,11.8315196 10.0235309,11.8315196 C11.1672279,11.8315196 12.2244264,11.4434462 13.0509637,10.7430202 C13.9159446,11.433981 14.9923652,11.8315196 16.0880077,11.8315196 C16.2610039,11.8315196 16.4339998,11.8220547 16.5973851,11.8031242 C16.7127159,11.793659 16.8184359,11.7841938 16.9241558,11.7652634 C17.2220937,11.7274026 17.4911978,11.6422154 17.760303,11.5570284 C18.3850114,11.3487937 19.0289451,11.8031236 19.0289451,12.4467583 Z" id="Vector" fill-rule="nonzero"></path>
                    </g>
                </g>
            </g>
        </g>
    </g>
</svg>