<?xml version="1.0" encoding="UTF-8"?>
<svg width="24px" height="24px" viewBox="0 0 24 24" version="1.1" xmlns="http://www.w3.org/2000/svg" xmlns:xlink="http://www.w3.org/1999/xlink">
    <title>Icon/Filter-search/Bold</title>
    <defs>
        <path d="M5,0 L59,0 C61.7614237,-8.8817842e-16 64,2.23857625 64,5 L64,203 C64,205.761424 61.7614237,208 59,208 L5,208 C2.23857625,208 0,205.761424 0,203 L0,5 C0,2.23857625 2.23857625,0 5,0 Z" id="path-1"></path>
        <path d="M0,0 L24,0 L24,24 L0,24 L0,0 Z" id="path-2"></path>
    </defs>
    <g id="Icons" stroke="none" stroke-width="1" fill="none" fill-rule="evenodd">
        <g id="Basic-Search" transform="translate(-480, -282)" fill-rule="nonzero">
            <g id="Filter-search" transform="translate(460, 166)" xlink:href="#path-1">
                <g id="Icon/Filter-search/Bold" transform="translate(20, 116)" xlink:href="#path-2">
                    <polygon id="Vector" opacity="0" transform="translate(12, 12) rotate(-180) translate(-12, -12)" points="0 0 24 0 24 24 0 24"></polygon>
                    <path d="M20.7196474,18.2399998 L19.7796488,17.2999992 C20.2696488,16.5599992 20.5596476,15.67 20.5596476,14.71 C20.5596476,12.1100001 18.4496484,10 15.8496485,10 C13.2496486,10 11.1396484,12.1100001 11.1396484,14.71 C11.1396484,17.3099999 13.2496486,19.4200001 15.8496485,19.4200001 C16.8096485,19.4200001 17.6896486,19.1299994 18.4396486,18.6399994 L19.3796473,19.5799999 C19.5696473,19.7699999 19.8096476,19.8600006 20.0596476,19.8600006 C20.3096476,19.8600006 20.5496479,19.7699999 20.7396479,19.5799999 C21.0896479,19.2199999 21.0896474,18.6199998 20.7196474,18.2399998 Z" id="Vector" fill="CURRENTCOLOR"></path>
                    <path d="M19.5799999,4.01999998 L19.5799999,6.23999977 C19.5799999,7.04999977 19.0799999,8.0599997 18.5799999,8.56999969 L18.3999996,8.72999954 C18.2599996,8.85999954 18.0500008,8.88999992 17.8700008,8.82999992 C17.6700008,8.75999992 17.4700005,8.70999985 17.2700005,8.65999985 C16.8300005,8.54999985 16.3600001,8.5 15.8800001,8.5 C12.4300001,8.5 9.63000011,11.3 9.63000011,14.75 C9.63000011,15.89 9.93999976,17.0099993 10.5299997,17.9699993 C11.0299997,18.8099993 11.7299998,19.5099995 12.4899998,19.9799995 C12.7199998,20.1299995 12.8099997,20.4499992 12.6099997,20.6299992 C12.5399997,20.6899992 12.4699996,20.7400009 12.3999996,20.7900009 L11,21.7000008 C9.70000005,22.5100008 7.90999985,21.5999995 7.90999985,19.9799995 L7.90999985,14.6300001 C7.90999985,13.9200001 7.51000014,13.0100002 7.11000013,12.5100002 L3.31999993,8.47000027 C2.81999993,7.96000028 2.42000008,7.04999983 2.42000008,6.44999981 L2.42000008,4.11999989 C2.42000008,2.90999985 3.31999981,2 4.40999985,2 L17.5900002,2 C18.6800002,2 19.5799999,2.90999997 19.5799999,4.01999998 Z" id="Vector" fill="CURRENTCOLOR"></path>
                </g>
            </g>
        </g>
    </g>
</svg>