<?xml version="1.0" encoding="UTF-8"?>
<svg width="24px" height="24px" viewBox="0 0 24 24" version="1.1" xmlns="http://www.w3.org/2000/svg" xmlns:xlink="http://www.w3.org/1999/xlink">
    <title>Icon/Filter-search/Bulk</title>
    <defs>
        <path d="M5,0 L59,0 C61.7614237,-8.8817842e-16 64,2.23857625 64,5 L64,203 C64,205.761424 61.7614237,208 59,208 L5,208 C2.23857625,208 0,205.761424 0,203 L0,5 C0,2.23857625 2.23857625,0 5,0 Z" id="path-1"></path>
        <path d="M0,0 L24,0 L24,24 L0,24 L0,0 Z" id="path-2"></path>
    </defs>
    <g id="Icons" stroke="none" stroke-width="1" fill="none" fill-rule="evenodd">
        <g id="Basic-Search" transform="translate(-480, -330)" fill-rule="nonzero">
            <g id="Filter-search" transform="translate(460, 166)" xlink:href="#path-1">
                <g id="Icon/Filter-search/Bulk" transform="translate(20, 164)" xlink:href="#path-2">
                    <polygon id="Vector" opacity="0" transform="translate(12, 12) rotate(-180) translate(-12, -12)" points="0 0 24 0 24 24 0 24"></polygon>
                    <path d="M19.75,15.4100037 L18.9000244,14.5599976 C19.3400244,13.8899975 19.5999756,13.0999902 19.5999756,12.2399902 C19.5999756,9.89999032 17.6999853,8 15.3599854,8 C13.0199854,8 11.1199951,9.89999032 11.1199951,12.2399902 C11.1199951,14.5799901 13.0199854,16.480011 15.3599854,16.480011 C16.2199854,16.480011 17.0199926,16.2199988 17.6799927,15.7799988 L18.5300293,16.6300049 C18.7000293,16.8000049 18.9200146,16.8800049 19.1400146,16.8800049 C19.3600146,16.8800049 19.58,16.8000049 19.75,16.6300049 C20.08,16.2900049 20.08,15.7400037 19.75,15.4100037 Z" id="Vector" fill="CURRENTCOLOR"></path>
                    <path d="M5.40997314,2 L18.5800171,2 C19.6800171,2 20.5800171,2.909989 20.5800171,4.01998901 L20.5800171,6.23999023 C20.5800171,7.04999024 20.0800171,8.05999756 19.5800171,8.55999756 L15.289978,12.3999939 C14.689978,12.9099939 14.289978,13.9200012 14.289978,14.7200012 L14.289978,19.0599976 C14.289978,19.6699976 13.8900146,20.4699988 13.3900146,20.7799988 L11.9899902,21.6900024 C10.6899903,22.5 8.90002441,21.5900012 8.90002441,19.9700012 L8.90002441,14.6199951 C8.90002441,13.9099951 8.49997559,13 8.09997559,12.5 L4.30999756,8.45999146 C3.80999756,7.94999146 3.40997314,7.05000246 3.40997314,6.44000244 L3.40997314,4.11999512 C3.41997314,2.90999508 4.31997311,2 5.40997314,2 Z" id="Vector" fill="CURRENTCOLOR" opacity="0.400000006"></path>
                </g>
            </g>
        </g>
    </g>
</svg>