<?xml version="1.0" encoding="UTF-8"?>
<svg width="24px" height="24px" viewBox="0 0 24 24" version="1.1" xmlns="http://www.w3.org/2000/svg" xmlns:xlink="http://www.w3.org/1999/xlink">
    <title>Icon/Filter-search/Outline</title>
    <defs>
        <path d="M5,0 L59,0 C61.7614237,-8.8817842e-16 64,2.23857625 64,5 L64,203 C64,205.761424 61.7614237,208 59,208 L5,208 C2.23857625,208 0,205.761424 0,203 L0,5 C0,2.23857625 2.23857625,0 5,0 Z" id="path-1"></path>
        <path d="M0,0 L24,0 L24,24 L0,24 L0,0 Z" id="path-2"></path>
    </defs>
    <g id="Icons" stroke="none" stroke-width="1" fill="none" fill-rule="evenodd">
        <g id="Basic-Search" transform="translate(-480, -186)" fill-rule="nonzero">
            <g id="Filter-search" transform="translate(460, 166)" xlink:href="#path-1">
                <g id="Icon/Filter-search/Outline" transform="translate(20, 20)" xlink:href="#path-2">
                    <path d="M19.9394531,6.25024414 L19.9394531,4.02954102 C19.9392014,3.33409727 19.3654057,2.76021116 18.6699219,2.76000977 L5.33007813,2.76000977 C4.65780622,2.76000977 4.05957031,3.31042826 4.05957031,4.13012695 L4.05957031,6.45043945 C4.05967468,6.61337245 4.1196636,6.88272855 4.2578125,7.19067383 C4.35932514,7.41690931 4.48579703,7.62563355 4.6171875,7.7902832 L4.75,7.93969727 L4.76269531,7.95336914 L8.60351562,11.9934082 L8.63964844,12.0344238 C8.9023574,12.3548134 9.14050062,12.777564 9.31445313,13.2131348 C9.48717184,13.6456456 9.61914062,14.148508 9.61914062,14.630127 L9.61914062,19.9797363 C9.61914062,20.9700562 10.7561613,21.5824865 11.6015625,21.0627441 L13.0029297,20.1594238 L13.0195312,20.1486816 C13.1198124,20.0877264 13.2662384,19.935799 13.390625,19.6965332 C13.512968,19.4611527 13.5693359,19.2267342 13.5693359,19.0695801 C13.5695666,18.6556441 13.9053769,18.3197119 14.3193359,18.3195801 C14.733407,18.3195801 15.0691051,18.6555629 15.0693359,19.0695801 C15.0693359,19.5223971 14.9268072,19.9943398 14.7216797,20.388916 C14.5213795,20.7741441 14.2166093,21.1694666 13.8154297,21.4191895 L12.40625,22.3303223 C12.4022139,22.3329264 12.3976401,22.3356087 12.3935547,22.3381348 C10.6192762,23.4347721 8.11914063,22.2281134 8.11914063,19.9797363 L8.11914063,14.630127 C8.11914063,14.4018268 8.05156535,14.0946344 7.921875,13.7697754 C7.79625838,13.4552145 7.63398969,13.178322 7.48925781,12.998291 L3.67578125,8.98657227 L3.67578125,8.9855957 C3.34873065,8.65413308 3.07798409,8.22685876 2.88867187,7.80493164 C2.6995153,7.38328609 2.55957031,6.89743215 2.55957031,6.45043945 L2.55957031,4.13012695 C2.55957031,2.52982557 3.78234994,1.26000977 5.33007813,1.26000977 L18.6699219,1.26000977 C20.1938015,1.26000977 21.4392037,2.50564313 21.4394531,4.02954102 L21.4394531,6.25024414 C21.4394531,6.79768163 21.271981,7.36209452 21.0546875,7.83813477 C20.8364924,8.31608313 20.5366955,8.7730304 20.2099609,9.09985352 C19.9170677,9.39274675 19.4423073,9.39274675 19.1494141,9.09985352 C18.8566735,8.80694798 18.8565717,8.33214897 19.1494141,8.03930664 C19.3224033,7.86622053 19.5278238,7.56908023 19.6894531,7.21508789 C19.8520818,6.85880572 19.9393991,6.51270053 19.9394531,6.25024414 Z" id="Vector-(Stroke)" fill="CURRENTCOLOR"></path>
                    <path d="M18.5203857,13.3201904 C18.5203857,11.9671538 17.4232039,10.8700941 16.0701904,10.8699951 C14.7170928,10.8699951 13.6199951,11.9670928 13.6199951,13.3201904 C13.6200941,14.6731946 14.7171445,15.7703857 16.0701904,15.7703857 C17.4231522,15.7702868 18.5202868,14.6731336 18.5203857,13.3201904 Z M20.0203857,13.3201904 C20.0202868,15.5015793 18.2515607,17.2702868 16.0701904,17.2703857 C13.888736,17.2703857 12.1200941,15.5016403 12.1199951,13.3201904 C12.1199951,11.1386657 13.8886657,9.36999512 16.0701904,9.36999512 C18.251631,9.37009407 20.0203857,11.1387267 20.0203857,13.3201904 Z" id="Vector-(Stroke)" fill="CURRENTCOLOR"></path>
                    <path d="M18.3397223,15.5897223 C18.6326155,15.296829 19.1073759,15.296829 19.4002692,15.5897223 L20.400269,16.5897223 C20.6931623,16.8826155 20.6931623,17.3573758 20.400269,17.650269 C20.1073758,17.9431623 19.6326155,17.9431623 19.3397223,17.650269 L18.3397223,16.6502692 C18.046829,16.3573759 18.046829,15.8826155 18.3397223,15.5897223 Z" id="Vector-(Stroke)" fill="CURRENTCOLOR"></path>
                    <polygon id="Vector" opacity="0" transform="translate(12, 12) rotate(-180) translate(-12, -12)" points="0 0 24 0 24 24 0 24"></polygon>
                </g>
            </g>
        </g>
    </g>
</svg>