<?xml version="1.0" encoding="UTF-8"?>
<svg width="24px" height="24px" viewBox="0 0 24 24" version="1.1" xmlns="http://www.w3.org/2000/svg" xmlns:xlink="http://www.w3.org/1999/xlink">
    <title>Icon/Folder-Favorite/Linear</title>
    <defs>
        <path d="M5,0 L59,0 C61.7614237,-8.8817842e-16 64,2.23857625 64,5 L64,203 C64,205.761424 61.7614237,208 59,208 L5,208 C2.23857625,208 0,205.761424 0,203 L0,5 C0,2.23857625 2.23857625,0 5,0 Z" id="path-1"></path>
        <path d="M0,0 L24,0 L24,24 L0,24 L0,0 Z" id="path-2"></path>
    </defs>
    <g id="Icons" stroke="none" stroke-width="1" fill="none" fill-rule="evenodd">
        <g id="Content-Managment" transform="translate(-480, -232)" fill-rule="nonzero">
            <g id="Folder-favorite" transform="translate(460, 164)" xlink:href="#path-1">
                <g id="Icon/Folder-Favorite/Linear" transform="translate(20, 68)" xlink:href="#path-2">
                    <path d="M9.19999945,14.7799995 L11.7799995,17.0400009 C11.8999995,17.1500009 12.0899998,17.1500009 12.2099998,17.0400009 L14.7899995,14.7799995 C15.4599995,14.1899995 15.5499993,13.1899996 14.9899993,12.4899997 C14.4299993,11.7899997 13.4099993,11.6599996 12.6999993,12.1999997 L11.9999998,12.7399997 L11.2899997,12.2099999 C10.5699997,11.6699999 9.55999967,11.7999999 8.99999967,12.4999999 C8.43999967,13.1899999 8.52999943,14.1999995 9.19999945,14.7799995 Z" id="Vector" stroke="CURRENTCOLOR" stroke-width="1.5" stroke-linecap="round" stroke-linejoin="round"></path>
                    <polygon id="Vector" opacity="0" points="0 0 24 0 24 24 0 24"></polygon>
                    <path d="M22,11 L22,17 C22,21 21,22 17,22 L7,22 C3,22 2,21 2,17 L2,7 C2,3 3,2 7,2 L8.5,2 C10,2 10.3299996,2.44000006 10.8999996,3.20000005 L12.3999996,5.19999981 C12.7799996,5.69999981 13,6 14,6 L17,6 C21,6 22,7 22,11 Z" id="Vector" stroke="CURRENTCOLOR" stroke-width="1.5"></path>
                </g>
            </g>
        </g>
    </g>
</svg>