<?xml version="1.0" encoding="UTF-8"?>
<svg width="24px" height="24px" viewBox="0 0 24 24" version="1.1" xmlns="http://www.w3.org/2000/svg" xmlns:xlink="http://www.w3.org/1999/xlink">
    <title>Icon/Folder-Favorite/Outline</title>
    <defs>
        <path d="M5,0 L59,0 C61.7614237,-8.8817842e-16 64,2.23857625 64,5 L64,203 C64,205.761424 61.7614237,208 59,208 L5,208 C2.23857625,208 0,205.761424 0,203 L0,5 C0,2.23857625 2.23857625,0 5,0 Z" id="path-1"></path>
        <path d="M0,0 L24,0 L24,24 L0,24 L0,0 Z" id="path-2"></path>
    </defs>
    <g id="Icons" stroke="none" stroke-width="1" fill="none" fill-rule="evenodd">
        <g id="Content-Managment" transform="translate(-480, -184)" fill-rule="nonzero">
            <g id="Folder-favorite" transform="translate(460, 164)" xlink:href="#path-1">
                <g id="Icon/Folder-Favorite/Outline" transform="translate(20, 20)" xlink:href="#path-2">
                    <path d="M12,17.8799992 C11.75,17.8799992 11.49,17.7900006 11.29,17.6100006 L8.71000016,15.3500004 C7.74000013,14.5000004 7.61000019,13.04 8.4200002,12.03 C9.24000019,11.01 10.7,10.8199998 11.75,11.6099999 L12,11.8000004 L12.2600002,11.6000006 C13.3100002,10.8100006 14.7700002,11.0000007 15.5900002,12.0200007 C16.4000002,13.0300007 16.2700002,14.4900001 15.3000002,15.3400002 L12.7200003,17.6000004 C12.5100003,17.7900004 12.25,17.8799992 12,17.8799992 Z M9.6899997,14.2200005 L12,16.2399998 L14.3100004,14.2200005 C14.6800004,13.9000005 14.7300001,13.3500005 14.4200001,12.9700005 C14.1100001,12.5800005 13.5599999,12.5100006 13.1599998,12.8100007 L12.4499998,13.3400004 C12.1799998,13.5400004 11.8200002,13.5400004 11.5500002,13.3400004 L10.8400002,12.8100007 C10.4500002,12.5100006 9.89000005,12.5800005 9.58000004,12.9700005 C9.28000003,13.3500005 9.32999969,13.9000005 9.6899997,14.2200005 Z" id="Vector" fill="CURRENTCOLOR"></path>
                    <path d="M17,22.75 L7,22.75 C2.59000015,22.75 1.25,21.4099998 1.25,17 L1.25,7 C1.25,2.59000015 2.59000015,1.25 7,1.25 L8.5,1.25 C10.25,1.25 10.8,1.81999999 11.5,2.75 L13,4.75 C13.33,5.19 13.38,5.25 14,5.25 L17,5.25 C21.4099998,5.25 22.75,6.59000015 22.75,11 L22.75,17 C22.75,21.4099998 21.4099998,22.75 17,22.75 Z M7,2.75 C3.42000008,2.75 2.75,3.43000007 2.75,7 L2.75,17 C2.75,20.5699999 3.42000008,21.25 7,21.25 L17,21.25 C20.5799999,21.25 21.25,20.5699999 21.25,17 L21.25,11 C21.25,7.43000007 20.5799999,6.75 17,6.75 L14,6.75 C12.72,6.75 12.3000002,6.31000012 11.8000002,5.6500001 L10.3000002,3.6500001 C9.78000021,2.9600001 9.62,2.75 8.5,2.75 L7,2.75 L7,2.75 Z" id="Vector" fill="CURRENTCOLOR"></path>
                    <polygon id="Vector" opacity="0" points="0 0 24 0 24 24 0 24"></polygon>
                </g>
            </g>
        </g>
    </g>
</svg>