<?xml version="1.0" encoding="UTF-8"?>
<svg width="24px" height="24px" viewBox="0 0 24 24" version="1.1" xmlns="http://www.w3.org/2000/svg" xmlns:xlink="http://www.w3.org/1999/xlink">
    <title>Icon/Folder-Favorite/Bold</title>
    <defs>
        <path d="M5,0 L59,0 C61.7614237,-8.8817842e-16 64,2.23857625 64,5 L64,203 C64,205.761424 61.7614237,208 59,208 L5,208 C2.23857625,208 0,205.761424 0,203 L0,5 C0,2.23857625 2.23857625,0 5,0 Z" id="path-1"></path>
        <path d="M0,0 L24,0 L24,24 L0,24 L0,0 Z" id="path-2"></path>
    </defs>
    <g id="Icons" stroke="none" stroke-width="1" fill="none" fill-rule="evenodd">
        <g id="Content-Managment" transform="translate(-480, -280)" fill-rule="nonzero">
            <g id="Folder-favorite" transform="translate(460, 164)" xlink:href="#path-1">
                <g id="Icon/Folder-Favorite/Bold" transform="translate(20, 116)" xlink:href="#path-2">
                    <path d="M21.6700001,9.25 L3,9.25 C2.44771525,9.25 2,8.80228475 2,8.25 L2,6.42000008 L2,6.42000008 C2,3.98000002 3.98000002,2 6.42000008,2 L8.73999977,2 C10.3699998,2 10.8799998,2.53000009 11.5299997,3.4000001 L12.9300003,5.26000023 C13.2400003,5.67000023 13.2799997,5.71999979 13.8599997,5.71999979 L16.6499996,5.71999979 C18.9599996,5.71999979 20.9300001,7.19000006 21.6700001,9.25 Z" id="Vector" fill="CURRENTCOLOR"></path>
                    <path d="M20.9833837,10.75 L3,10.75 C2.44771525,10.75 2,11.1977153 2,11.75 L2,16.6499991 L2,16.6499991 C2,19.5999992 4.39999986,22 7.3499999,22 L16.6499996,22 C19.5999997,22 22,19.5999992 22,16.6499991 L21.983378,11.7466101 C21.9815103,11.1956519 21.5343451,10.75 20.9833837,10.75 Z M14.54,16.9699988 L12.3900003,18.8500004 C12.2800003,18.9500004 12.14,19 12,19 C11.86,19 11.7199997,18.9500004 11.6099997,18.8500004 L9.46000004,16.9699988 C8.78000003,16.3699988 8.69000024,15.3500003 9.26000023,14.6400003 C9.83000022,13.9200003 10.8600004,13.7900001 11.6000004,14.3400002 L12,14.6400003 L12.3999996,14.3400002 C13.1399996,13.7900001 14.1699998,13.9200003 14.7399998,14.6400003 C15.3099998,15.3500003 15.22,16.3699988 14.54,16.9699988 Z" id="Vector" fill="CURRENTCOLOR"></path>
                    <polygon id="Vector" opacity="0" transform="translate(12, 12) rotate(-180) translate(-12, -12)" points="0 0 24 0 24 24 0 24"></polygon>
                </g>
            </g>
        </g>
    </g>
</svg>