<?xml version="1.0" encoding="UTF-8"?>
<svg width="24px" height="24px" viewBox="0 0 24 24" version="1.1" xmlns="http://www.w3.org/2000/svg" xmlns:xlink="http://www.w3.org/1999/xlink">
    <title>Icon/Folder-Favorite/Bulk</title>
    <defs>
        <path d="M5,0 L59,0 C61.7614237,-8.8817842e-16 64,2.23857625 64,5 L64,203 C64,205.761424 61.7614237,208 59,208 L5,208 C2.23857625,208 0,205.761424 0,203 L0,5 C0,2.23857625 2.23857625,0 5,0 Z" id="path-1"></path>
        <path d="M0,0 L24,0 L24,24 L0,24 L0,0 Z" id="path-2"></path>
    </defs>
    <g id="Icons" stroke="none" stroke-width="1" fill="none" fill-rule="evenodd">
        <g id="Content-Managment" transform="translate(-480, -328)" fill-rule="nonzero">
            <g id="Folder-favorite" transform="translate(460, 164)" xlink:href="#path-1">
                <g id="Icon/Folder-Favorite/Bulk" transform="translate(20, 164)" xlink:href="#path-2">
                    <path d="M21.7399998,9.43999958 L2,9.43999958 L2,6.42000008 C2,3.98000002 3.98000002,2 6.42000008,2 L8.75,2 C10.38,2 10.89,2.53000009 11.54,3.4000001 L12.9399996,5.26000023 C13.2499996,5.67000023 13.2899999,5.73000002 13.8699999,5.73000002 L16.6599998,5.73000002 C19.0299997,5.72000002 21.0499998,7.27999949 21.7399998,9.43999958 Z" id="Vector" fill="CURRENTCOLOR" opacity="0.400000006"></path>
                    <path d="M21.9899998,10.8400002 C21.9699998,10.3500001 21.8899998,9.88999957 21.7399998,9.43999958 L2,9.43999958 L2,16.6499996 C2,19.5999997 4.39999986,22 7.3499999,22 L16.6499996,22 C19.5999997,22 22,19.5999997 22,16.6499996 L22,11.0699997 C22,10.9999997 22,10.9100002 21.9899998,10.8400002 Z M14.54,15.9700003 L12.3900003,17.8500004 C12.2800003,17.9500004 12.14,18 12,18 C11.86,18 11.7199997,17.9500004 11.6099997,17.8500004 L9.46000004,15.9700003 C8.78000003,15.3700002 8.69,14.3500003 9.25,13.6400003 C9.82999998,12.9200003 10.8500001,12.7900001 11.5900002,13.3400002 L11.9899998,13.6400003 L12.3900003,13.3400002 C13.1300004,12.7900001 14.1499996,12.9200003 14.7299995,13.6400003 C15.3099995,14.3500003 15.22,15.3700002 14.54,15.9700003 Z" id="Vector" fill="CURRENTCOLOR"></path>
                    <polygon id="Vector" opacity="0" points="0 0 24 0 24 24 0 24"></polygon>
                </g>
            </g>
        </g>
    </g>
</svg>