<?xml version="1.0" encoding="UTF-8"?>
<svg width="24px" height="24px" viewBox="0 0 24 24" version="1.1" xmlns="http://www.w3.org/2000/svg" xmlns:xlink="http://www.w3.org/1999/xlink">
    <title>Icon/Category/Linear</title>
    <defs>
        <path d="M5,0 L59,0 C61.7614237,-8.8817842e-16 64,2.23857625 64,5 L64,203 C64,205.761424 61.7614237,208 59,208 L5,208 C2.23857625,208 0,205.761424 0,203 L0,5 C0,2.23857625 2.23857625,0 5,0 Z" id="path-1"></path>
        <path d="M0,0 L24,0 L24,24 L0,24 L0,0 Z" id="path-2"></path>
    </defs>
    <g id="Icons" stroke="none" stroke-width="1" fill="none" fill-rule="evenodd">
        <g id="View-Controls" transform="translate(-60, -482)" fill-rule="nonzero">
            <g id="Category" transform="translate(40, 414)" xlink:href="#path-1">
                <g id="Icon/Category/Linear" transform="translate(20, 68)" xlink:href="#path-2">
                    <path d="M17,10 L19,10 C21,10 22,9 22,7 L22,5 C22,3 21,2 19,2 L17,2 C15,2 14,3 14,5 L14,7 C14,9 15,10 17,10 Z" id="Vector" stroke="CURRENTCOLOR" stroke-width="1.5" stroke-linecap="round" stroke-linejoin="round"></path>
                    <path d="M5,22 L7,22 C9,22 10,21 10,19 L10,17 C10,15 9,14 7,14 L5,14 C3,14 2,15 2,17 L2,19 C2,21 3,22 5,22 Z" id="Vector" stroke="CURRENTCOLOR" stroke-width="1.5" stroke-linecap="round" stroke-linejoin="round"></path>
                    <path d="M10,6 C10,8.20913911 8.20913911,10 6,10 C3.79086089,10 2,8.20913911 2,6 C2,3.79086089 3.79086089,2 6,2 C8.20913911,2 10,3.79086089 10,6 Z" id="Vector" stroke="CURRENTCOLOR" stroke-width="1.5" stroke-linecap="round" stroke-linejoin="round"></path>
                    <path d="M22,18 C22,20.2091391 20.2091391,22 18,22 C15.7908609,22 14,20.2091391 14,18 C14,15.7908609 15.7908609,14 18,14 C20.2091391,14 22,15.7908609 22,18 Z" id="Vector" stroke="CURRENTCOLOR" stroke-width="1.5" stroke-linecap="round" stroke-linejoin="round"></path>
                    <polygon id="Vector" opacity="0" points="0 0 24 0 24 24 0 24"></polygon>
                </g>
            </g>
        </g>
    </g>
</svg>