<?xml version="1.0" encoding="UTF-8"?>
<svg width="24px" height="24px" viewBox="0 0 24 24" version="1.1" xmlns="http://www.w3.org/2000/svg" xmlns:xlink="http://www.w3.org/1999/xlink">
    <title>Icon/Category/Outline</title>
    <defs>
        <path d="M5,0 L59,0 C61.7614237,-8.8817842e-16 64,2.23857625 64,5 L64,203 C64,205.761424 61.7614237,208 59,208 L5,208 C2.23857625,208 0,205.761424 0,203 L0,5 C0,2.23857625 2.23857625,0 5,0 Z" id="path-1"></path>
        <path d="M0,0 L24,0 L24,24 L0,24 L0,0 Z" id="path-2"></path>
    </defs>
    <g id="Icons" stroke="none" stroke-width="1" fill="none" fill-rule="evenodd">
        <g id="View-Controls" transform="translate(-60, -434)" fill-rule="nonzero">
            <g id="Category" transform="translate(40, 414)" xlink:href="#path-1">
                <g id="Icon/Category/Outline" transform="translate(20, 20)" xlink:href="#path-2">
                    <path d="M19,10.75 L17,10.75 C14.5799999,10.75 13.25,9.42000008 13.25,7 L13.25,5 C13.25,2.57999992 14.5799999,1.25 17,1.25 L19,1.25 C21.4200001,1.25 22.75,2.57999992 22.75,5 L22.75,7 C22.75,9.42000008 21.4200001,10.75 19,10.75 Z M17,2.75 C15.42,2.75 14.75,3.41999996 14.75,5 L14.75,7 C14.75,8.58000004 15.42,9.25 17,9.25 L19,9.25 C20.58,9.25 21.25,8.58000004 21.25,7 L21.25,5 C21.25,3.41999996 20.58,2.75 19,2.75 L17,2.75 Z" id="Vector" fill="CURRENTCOLOR"></path>
                    <path d="M7,22.75 L5,22.75 C2.57999992,22.75 1.25,21.4200001 1.25,19 L1.25,17 C1.25,14.5799999 2.57999992,13.25 5,13.25 L7,13.25 C9.42000008,13.25 10.75,14.5799999 10.75,17 L10.75,19 C10.75,21.4200001 9.42000008,22.75 7,22.75 Z M5,14.75 C3.41999996,14.75 2.75,15.42 2.75,17 L2.75,19 C2.75,20.58 3.41999996,21.25 5,21.25 L7,21.25 C8.58000004,21.25 9.25,20.58 9.25,19 L9.25,17 C9.25,15.42 8.58000004,14.75 7,14.75 L5,14.75 Z" id="Vector" fill="CURRENTCOLOR"></path>
                    <path d="M6,10.75 C3.38000011,10.75 1.25,8.61999989 1.25,6 C1.25,3.38000011 3.38000011,1.25 6,1.25 C8.61999989,1.25 10.75,3.38000011 10.75,6 C10.75,8.61999989 8.61999989,10.75 6,10.75 Z M6,2.75 C4.21000004,2.75 2.75,4.21000004 2.75,6 C2.75,7.78999996 4.21000004,9.25 6,9.25 C7.78999996,9.25 9.25,7.78999996 9.25,6 C9.25,4.21000004 7.78999996,2.75 6,2.75 Z" id="Vector" fill="CURRENTCOLOR"></path>
                    <path d="M18,22.75 C15.3800001,22.75 13.25,20.6199999 13.25,18 C13.25,15.3800001 15.3800001,13.25 18,13.25 C20.6199999,13.25 22.75,15.3800001 22.75,18 C22.75,20.6199999 20.6199999,22.75 18,22.75 Z M18,14.75 C16.21,14.75 14.75,16.21 14.75,18 C14.75,19.79 16.21,21.25 18,21.25 C19.79,21.25 21.25,19.79 21.25,18 C21.25,16.21 19.79,14.75 18,14.75 Z" id="Vector" fill="CURRENTCOLOR"></path>
                    <polygon id="Vector" opacity="0" points="0 0 24 0 24 24 0 24"></polygon>
                </g>
            </g>
        </g>
    </g>
</svg>