<?xml version="1.0" encoding="UTF-8"?>
<svg width="24px" height="24px" viewBox="0 0 24 24" version="1.1" xmlns="http://www.w3.org/2000/svg" xmlns:xlink="http://www.w3.org/1999/xlink">
    <title>Icon/UserRadius/Outline</title>
    <defs>
        <path d="M5,0 L59,0 C61.7614237,-8.8817842e-16 64,2.23857625 64,5 L64,203 C64,205.761424 61.7614237,208 59,208 L5,208 C2.23857625,208 0,205.761424 0,203 L0,5 C0,2.23857625 2.23857625,0 5,0 Z" id="path-1"></path>
        <path d="M0,0 L24,0 L24,24 L0,24 L0,0 Z" id="path-2"></path>
    </defs>
    <g id="Icons" stroke="none" stroke-width="1" fill="none" fill-rule="evenodd">
        <g id="Basic-Users" transform="translate(-168, -186)" fill="CURRENTCOLOR" fill-rule="nonzero">
            <g id="User-radius" transform="translate(148, 166)" xlink:href="#path-1">
                <g id="Icon/UserRadius/Outline" transform="translate(20, 20)" xlink:href="#path-2">
                    <path d="M18.25,17.5 C18.25,16.9706337 17.8012252,16.2897916 16.6142578,15.6962891 C15.472096,15.1252081 13.8418094,14.75 12,14.75 C10.1581906,14.75 8.52790403,15.1252081 7.38574219,15.6962891 C6.19877481,16.2897916 5.75,16.9706337 5.75,17.5 C5.75,18.0293663 6.19877481,18.7102084 7.38574219,19.3037109 C8.52790403,19.8747919 10.1581906,20.25 12,20.25 C13.8418094,20.25 15.472096,19.8747919 16.6142578,19.3037109 C17.8012252,18.7102084 18.25,18.0293663 18.25,17.5 Z M15.25,7 C15.25,5.20507443 13.7949256,3.75 12,3.75 C10.2050744,3.75 8.75,5.20507443 8.75,7 C8.75,8.79492557 10.2050744,10.25 12,10.25 C13.7949256,10.25 15.25,8.79492557 15.25,7 Z M19.75,17.5 C19.75,18.903594 18.6316029,19.972266 17.2851562,20.6455078 C15.8938164,21.3411778 14.0241838,21.75 12,21.75 C9.97581625,21.75 8.10618365,21.3411778 6.71484375,20.6455078 C5.36839712,19.972266 4.25,18.903594 4.25,17.5 C4.25,16.096406 5.36839712,15.027734 6.71484375,14.3544922 C8.10618365,13.6588222 9.97581625,13.25 12,13.25 C14.0241838,13.25 15.8938164,13.6588222 17.2851562,14.3544922 C18.6316029,15.027734 19.75,16.096406 19.75,17.5 Z M16.75,7 C16.75,9.62335277 14.6233528,11.75 12,11.75 C9.37664723,11.75 7.25,9.62335277 7.25,7 C7.25,4.37664723 9.37664723,2.25 12,2.25 C14.6233528,2.25 16.75,4.37664723 16.75,7 Z" id="Vector-(Stroke)"></path>
                </g>
            </g>
        </g>
    </g>
</svg>