<?xml version="1.0" encoding="UTF-8"?>
<svg width="24px" height="24px" viewBox="0 0 24 24" version="1.1" xmlns="http://www.w3.org/2000/svg" xmlns:xlink="http://www.w3.org/1999/xlink">
    <title>Icon/UserRadius/Bold</title>
    <defs>
        <path d="M5,0 L59,0 C61.7614237,-8.8817842e-16 64,2.23857625 64,5 L64,203 C64,205.761424 61.7614237,208 59,208 L5,208 C2.23857625,208 0,205.761424 0,203 L0,5 C0,2.23857625 2.23857625,0 5,0 Z" id="path-1"></path>
        <path d="M0,0 L24,0 L24,24 L0,24 L0,0 Z" id="path-2"></path>
    </defs>
    <g id="Icons" stroke="none" stroke-width="1" fill="none" fill-rule="evenodd">
        <g id="Basic-Users" transform="translate(-168, -282)" fill="CURRENTCOLOR" fill-rule="nonzero">
            <g id="User-radius" transform="translate(148, 166)" xlink:href="#path-1">
                <g id="Icon/UserRadius/Bold" transform="translate(20, 116)" xlink:href="#path-2">
                    <path d="M16,7 C16,9.20913887 14.2091389,11 12,11 C9.79086113,11 8,9.20913887 8,7 C8,4.79086113 9.79086113,3 12,3 C14.2091389,3 16,4.79086113 16,7 Z M19,17 C19,19.2091389 15.8659935,21 12,21 C8.13400674,21 5,19.2091389 5,17 C5,14.7908611 8.13400674,13 12,13 C15.8659935,13 19,14.7908611 19,17 Z" id="Combo-shape"></path>
                </g>
            </g>
        </g>
    </g>
</svg>