<?xml version="1.0" encoding="UTF-8"?>
<svg width="24px" height="24px" viewBox="0 0 24 24" version="1.1" xmlns="http://www.w3.org/2000/svg" xmlns:xlink="http://www.w3.org/1999/xlink">
    <title>Icon/UserRadius/Linear</title>
    <defs>
        <path d="M5,0 L59,0 C61.7614237,-8.8817842e-16 64,2.23857625 64,5 L64,203 C64,205.761424 61.7614237,208 59,208 L5,208 C2.23857625,208 0,205.761424 0,203 L0,5 C0,2.23857625 2.23857625,0 5,0 Z" id="path-1"></path>
        <path d="M0,0 L24,0 L24,24 L0,24 L0,0 Z" id="path-2"></path>
    </defs>
    <g id="Icons" stroke="none" stroke-width="1" fill="none" fill-rule="evenodd" stroke-linejoin="round">
        <g id="Basic-Users" transform="translate(-168, -234)" fill-rule="nonzero" stroke="CURRENTCOLOR">
            <g id="User-radius" transform="translate(148, 166)" xlink:href="#path-1">
                <g id="Icon/UserRadius/Linear" transform="translate(20, 68)" xlink:href="#path-2" fill-rule="evenodd">
                    <g id="Vector" transform="translate(5, 3)">
                        <path d="M11,4 C11,6.20913911 9.20913911,8 7,8 C4.79086089,8 3,6.20913911 3,4 C3,1.79086089 4.79086089,0 7,0 C9.20913911,0 11,1.79086089 11,4 Z" stroke-width="1.5" fill-rule="nonzero"></path>
                        <path d="M14,14.5 C14,16.4329966 10.8659933,18 7,18 C3.13400674,18 0,16.4329966 0,14.5 C0,12.5670034 3.13400674,11 7,11 C10.8659933,11 14,12.5670034 14,14.5 Z" stroke-width="1.5" fill-rule="nonzero"></path>
                    </g>
                </g>
            </g>
        </g>
    </g>
</svg>