<?xml version="1.0" encoding="UTF-8"?>
<svg width="24px" height="24px" viewBox="0 0 24 24" version="1.1" xmlns="http://www.w3.org/2000/svg" xmlns:xlink="http://www.w3.org/1999/xlink">
    <title>Icon/Zoom-out-Square/Outline</title>
    <defs>
        <path d="M5,0 L59,0 C61.7614237,-8.8817842e-16 64,2.23857625 64,5 L64,203 C64,205.761424 61.7614237,208 59,208 L5,208 C2.23857625,208 0,205.761424 0,203 L0,5 C0,2.23857625 2.23857625,0 5,0 Z" id="path-1"></path>
        <path d="M0,0 L24,0 L24,24 L0,24 L0,0 Z" id="path-2"></path>
    </defs>
    <g id="Icons" stroke="none" stroke-width="1" fill="none" fill-rule="evenodd" stroke-linecap="round">
        <g id="Basic-Search" transform="translate(-272, -434)" fill-rule="nonzero" stroke="CURRENTCOLOR">
            <g id="Zoom-out-Square" transform="translate(252, 414)" xlink:href="#path-1">
                <g id="Icon/Zoom-out-Square/Outline" transform="translate(20, 20)" xlink:href="#path-2" fill-rule="evenodd">
                    <g id="Vector" transform="translate(3, 3)">
                        <path d="M18,12 C18,15.3137085 15.3137085,18 12,18 C8.68629146,18 6,15.3137085 6,12 C6,8.68629146 8.68629146,6 12,6 C15.3137085,6 18,8.68629146 18,12 Z" stroke-width="1.5" fill-rule="nonzero"></path>
                        <path d="M16.5,16.5 L18,18 M10,12 L14,12 M4,18 L4,18 L4,18 C1.79086113,18 0,16.2091389 0,14 L0,4 C0,1.79086089 1.79086113,0 4,0 L14,0 C16.2091389,0 18,1.79086113 18,4 C18,5.04047003 17.5866749,6.03832511 16.8509515,6.77404852" stroke-width="1.5" fill-rule="nonzero"></path>
                    </g>
                </g>
            </g>
        </g>
    </g>
</svg>