<?xml version="1.0" encoding="UTF-8"?>
<svg width="24px" height="24px" viewBox="0 0 24 24" version="1.1" xmlns="http://www.w3.org/2000/svg" xmlns:xlink="http://www.w3.org/1999/xlink">
    <title>Icon/Zoom-out-Square/Bulk</title>
    <defs>
        <path d="M5,0 L59,0 C61.7614237,-8.8817842e-16 64,2.23857625 64,5 L64,203 C64,205.761424 61.7614237,208 59,208 L5,208 C2.23857625,208 0,205.761424 0,203 L0,5 C0,2.23857625 2.23857625,0 5,0 Z" id="path-1"></path>
        <path d="M0,0 L24,0 L24,24 L0,24 L0,0 Z" id="path-2"></path>
    </defs>
    <g id="Icons" stroke="none" stroke-width="1" fill="none" fill-rule="evenodd">
        <g id="Basic-Search" transform="translate(-272, -578)" fill="CURRENTCOLOR" fill-rule="nonzero">
            <g id="Zoom-out-Square" transform="translate(252, 414)" xlink:href="#path-1">
                <g id="Icon/Zoom-out-Square/Bulk" transform="translate(20, 164)" xlink:href="#path-2">
                    <g id="Group-767" fill-rule="evenodd" stroke-width="1" transform="translate(9, 9)">
                        <path d="M8.96966992,8.96966992 C9.26256312,8.67677669 9.73743686,8.67677669 10.0303301,8.96966992 L12.5303302,11.4696698 C12.8232234,11.7625631 12.8232234,12.2374368 12.5303302,12.5303302 C12.2374368,12.8232234 11.7625631,12.8232234 11.4696698,12.5303302 L8.96966992,10.0303301 C8.67677669,9.73743686 8.67677669,9.26256312 8.96966992,8.96966992 Z" id="Vector-(Stroke)" fill-rule="nonzero" opacity="0.400000006"></path>
                        <path d="M6,0 C9.3137085,0 12,2.6862915 12,6 C12,9.3137085 9.3137085,12 6,12 C2.6862915,12 0,9.3137085 0,6 C0,2.6862915 2.6862915,0 6,0 Z M8,5.39892578 L4,5.39892578 C3.58578634,5.39892578 3.25,5.66811443 3.25,6.00017548 C3.25,6.33223652 3.58578634,6.60142517 4,6.60142517 L8,6.60142517 C8.41421357,6.60142517 8.75,6.33223652 8.75,6.00017548 C8.75,5.66811443 8.41421357,5.39892578 8,5.39892578 Z" id="Subtract" fill-rule="nonzero"></path>
                    </g>
                    <path d="M2.25,7 C2.25,4.37664747 4.37664747,2.25 7,2.25 L17,2.25 C19.6233521,2.25 21.75,4.37664771 21.75,7 L21.75,8.625 C21.75,9.03921366 21.4142132,9.375 21,9.375 C20.5857868,9.375 20.25,9.03921366 20.25,8.625 L20.25,7 C20.25,5.20507455 18.7949257,3.75 17,3.75 L7,3.75 C5.20507455,3.75 3.75,5.20507479 3.75,7 L3.75,17 C3.75,18.7949257 5.20507455,20.25 7,20.25 L8.625,20.25 C9.03921366,20.25 9.375,20.5857868 9.375,21 C9.375,21.4142132 9.03921366,21.75 8.625,21.75 L7,21.75 C4.37664747,21.75 2.25,19.6233521 2.25,17 L2.25,7 Z" id="Vector-407-(Stroke)" fill-rule="nonzero" opacity="0.400000006"></path>
                </g>
            </g>
        </g>
    </g>
</svg>