<?xml version="1.0" encoding="UTF-8"?>
<svg width="24px" height="24px" viewBox="0 0 24 24" version="1.1" xmlns="http://www.w3.org/2000/svg" xmlns:xlink="http://www.w3.org/1999/xlink">
    <title>Icon/Zoom-out-Square/Bold</title>
    <defs>
        <path d="M5,0 L59,0 C61.7614237,-8.8817842e-16 64,2.23857625 64,5 L64,203 C64,205.761424 61.7614237,208 59,208 L5,208 C2.23857625,208 0,205.761424 0,203 L0,5 C0,2.23857625 2.23857625,0 5,0 Z" id="path-1"></path>
        <path d="M0,0 L24,0 L24,24 L0,24 L0,0 Z" id="path-2"></path>
    </defs>
    <g id="Icons" stroke="none" stroke-width="1" fill="none" fill-rule="evenodd">
        <g id="Basic-Search" transform="translate(-272, -530)" fill="CURRENTCOLOR" fill-rule="nonzero">
            <g id="Zoom-out-Square" transform="translate(252, 414)" xlink:href="#path-1">
                <g id="Icon/Zoom-out-Square/Bold" transform="translate(20, 116)" xlink:href="#path-2">
                    <path d="M17,2.25 C19.6233521,2.25 21.75,4.37664771 21.75,7 L21.75,8.625 C21.75,9.03921366 21.4142132,9.375 21,9.375 C20.5857868,9.375 20.25,9.03921366 20.25,8.625 L20.25,7 C20.25,5.20507455 18.7949257,3.75 17,3.75 L7,3.75 C5.20507455,3.75 3.75,5.20507479 3.75,7 L3.75,17 C3.75,18.7949257 5.20507455,20.25 7,20.25 L8.625,20.25 C9.03921366,20.25 9.375,20.5857868 9.375,21 C9.375,21.4142132 9.03921366,21.75 8.625,21.75 L7,21.75 C4.37664747,21.75 2.25,19.6233521 2.25,17 L2.25,7 C2.25,4.37664747 4.37664747,2.25 7,2.25 L17,2.25 Z M14.625,8.625 C17.9387085,8.625 20.625,11.3112915 20.625,14.625 C20.625,16.0114585 20.1547397,17.2880819 19.3650213,18.3040679 L21.1553302,20.0946698 C21.4482234,20.3875631 21.4482234,20.8624368 21.1553302,21.1553302 C20.8624368,21.4482234 20.3875631,21.4482234 20.0946698,21.1553302 L18.3040679,19.3650213 C17.2880819,20.1547397 16.0114585,20.625 14.625,20.625 C11.3112915,20.625 8.625,17.9387085 8.625,14.625 C8.625,11.3112915 11.3112915,8.625 14.625,8.625 Z M16.625,14.0239258 L12.625,14.0239258 C12.2107863,14.0239258 11.875,14.2931144 11.875,14.6251755 C11.875,14.9572365 12.2107863,15.2264252 12.625,15.2264252 L16.625,15.2264252 C17.0392136,15.2264252 17.375,14.9572365 17.375,14.6251755 C17.375,14.2931144 17.0392136,14.0239258 16.625,14.0239258 Z" id="Combo-shape"></path>
                </g>
            </g>
        </g>
    </g>
</svg>