<?xml version="1.0" encoding="UTF-8"?>
<svg width="24px" height="24px" viewBox="0 0 24 24" version="1.1" xmlns="http://www.w3.org/2000/svg" xmlns:xlink="http://www.w3.org/1999/xlink">
    <title>Icon/VerifiedUser/Bulk</title>
    <defs>
        <path d="M5,0 L59,0 C61.7614237,-8.8817842e-16 64,2.23857625 64,5 L64,203 C64,205.761424 61.7614237,208 59,208 L5,208 C2.23857625,208 0,205.761424 0,203 L0,5 C0,2.23857625 2.23857625,0 5,0 Z" id="path-1"></path>
        <path d="M0,0 L24,0 L24,24 L0,24 L0,0 Z" id="path-2"></path>
    </defs>
    <g id="Icons" stroke="none" stroke-width="1" fill="none" fill-rule="evenodd">
        <g id="Basic-Users" transform="translate(-584, -330)" fill="CURRENTCOLOR" fill-rule="nonzero">
            <g id="Verified-User" transform="translate(564, 166)" xlink:href="#path-1">
                <g id="Icon/VerifiedUser/Bulk" transform="translate(20, 164)" xlink:href="#path-2">
                    <path d="M18,13 C17.06,13 16.19,13.3300049 15.5,13.8800049 C14.58,14.6100049 14,15.74 14,17 C14,17.75 14.2099866,18.4599975 14.5799866,19.0599976 C15.2699866,20.2199975 16.54,21 18,21 C19.01,21 19.9300049,20.63 20.6300049,20 C20.9400049,19.74 21.2100134,19.4199976 21.4200134,19.0599976 C21.7900134,18.4599975 22,17.75 22,17 C22,14.79 20.21,13 18,13 Z M20.0700073,16.5700073 L17.9400024,18.539978 C17.8000024,18.669978 17.6099927,18.7399902 17.4299927,18.7399902 C17.2399927,18.7399902 17.0499939,18.6700195 16.8999939,18.5200195 L15.9100037,17.5300293 C15.6200037,17.2400293 15.6200037,16.7599707 15.9100037,16.4699707 C16.2000037,16.1799707 16.6800012,16.1799707 16.9700012,16.4699707 L17.4500122,16.9500122 L19.0499878,15.4699707 C19.3499878,15.1899707 19.8299854,15.2100098 20.1099854,15.5100098 C20.3899854,15.8100098 20.3700073,16.2800073 20.0700073,16.5700073 Z" id="Vector"></path>
                    <path d="M21.0900269,21.5 C21.0900269,21.78 20.8700269,22 20.5900269,22 L3.40997314,22 C3.12997314,22 2.90997314,21.78 2.90997314,21.5 C2.90997314,17.3600001 6.98999977,14 12,14 C13.03,14 14.0300122,14.1399731 14.9500122,14.4099731 C14.3600122,15.1099731 14,16.02 14,17 C14,17.75 14.2100171,18.4599975 14.5800171,19.0599976 C14.7800171,19.3999976 15.0400268,19.7099707 15.3400269,19.9699707 C16.0400268,20.6099707 16.97,21 18,21 C19.12,21 20.1299756,20.5399878 20.8499756,19.7999878 C21.0099756,20.3399878 21.0900269,20.91 21.0900269,21.5 Z" id="Vector" opacity="0.400000006"></path>
                    <path d="M17,7 C17,9.76142383 14.7614238,12 12,12 C9.23857617,12 7,9.76142383 7,7 C7,4.23857617 9.23857617,2 12,2 C14.7614238,2 17,4.23857617 17,7 Z" id="Vector"></path>
                </g>
            </g>
        </g>
    </g>
</svg>