<?xml version="1.0" encoding="UTF-8"?>
<svg width="24px" height="24px" viewBox="0 0 24 24" version="1.1" xmlns="http://www.w3.org/2000/svg" xmlns:xlink="http://www.w3.org/1999/xlink">
    <title>Icon/VerifiedUser/Outline</title>
    <defs>
        <path d="M5,0 L59,0 C61.7614237,-8.8817842e-16 64,2.23857625 64,5 L64,203 C64,205.761424 61.7614237,208 59,208 L5,208 C2.23857625,208 0,205.761424 0,203 L0,5 C0,2.23857625 2.23857625,0 5,0 Z" id="path-1"></path>
        <path d="M0,0 L24,0 L24,24 L0,24 L0,0 Z" id="path-2"></path>
    </defs>
    <g id="Icons" stroke="none" stroke-width="1" fill="none" fill-rule="evenodd">
        <g id="Basic-Users" transform="translate(-584, -186)" fill-rule="nonzero">
            <g id="Verified-User" transform="translate(564, 166)" xlink:href="#path-1">
                <g id="Icon/VerifiedUser/Outline" transform="translate(20, 20)" xlink:href="#path-2">
                    <path d="M12,12.75 C8.82999992,12.75 6.25,10.1700001 6.25,7 C6.25,3.82999992 8.82999992,1.25 12,1.25 C15.1700001,1.25 17.75,3.82999992 17.75,7 C17.75,10.1700001 15.1700001,12.75 12,12.75 Z M12,2.75 C9.66000009,2.75 7.75,4.66000009 7.75,7 C7.75,9.33999991 9.66000009,11.25 12,11.25 C14.3399999,11.25 16.25,9.33999991 16.25,7 C16.25,4.66000009 14.3399999,2.75 12,2.75 Z" id="Vector" fill="CURRENTCOLOR" fill-rule="nonzero"></path>
                    <path d="M3.41015625,22.75 C3.00015625,22.75 2.66015625,22.41 2.66015625,22 C2.66015625,17.73 6.85018301,14.25 12.0001831,14.25 C13.0101831,14.25 14.0002051,14.3800244 14.9602051,14.6500244 C15.3602051,14.7600244 15.5901636,15.1700073 15.4801636,15.5700073 C15.3701636,15.9700073 14.9601807,16.2000269 14.5601807,16.0900269 C13.7401807,15.8600269 12.8801831,15.75 12.0001831,15.75 C7.68018293,15.75 4.16015625,18.55 4.16015625,22 C4.16015625,22.41 3.82015625,22.75 3.41015625,22.75 Z" id="Vector" fill="CURRENTCOLOR" fill-rule="nonzero"></path>
                    <g id="Group-759" fill-rule="evenodd" stroke-width="1" transform="translate(14, 14)" stroke="CURRENTCOLOR" stroke-linecap="round" stroke-linejoin="round">
                        <path d="M8,4 C8,4.75 7.79001343,5.45999753 7.42001343,6.05999756 C7.21001343,6.41999757 6.94000489,6.74000001 6.63000488,7 C5.93000489,7.63 5.00999999,8 4,8 C2.53999996,8 1.26998657,7.21999753 0.579986572,6.05999756 C0.209986567,5.45999753 0,4.75 0,4 C0,2.74000001 0.579999983,1.6100049 1.5,0.880004883 C2.19,0.330004871 3.06,0 4,0 C6.21000004,0 8,1.78999996 8,4 Z" id="Vector" stroke-width="1.5" fill-rule="nonzero"></path>
                        <polyline id="Vector" stroke-width="1.5" fill-rule="nonzero" points="2.44042969 4 3.43041992 4.98999023 5.5604248 3.02001953"></polyline>
                    </g>
                </g>
            </g>
        </g>
    </g>
</svg>