<?xml version="1.0" encoding="UTF-8"?>
<svg width="24px" height="24px" viewBox="0 0 24 24" version="1.1" xmlns="http://www.w3.org/2000/svg" xmlns:xlink="http://www.w3.org/1999/xlink">
    <title>Icon/VerifiedUser/Linear</title>
    <defs>
        <path d="M5,0 L59,0 C61.7614237,-8.8817842e-16 64,2.23857625 64,5 L64,203 C64,205.761424 61.7614237,208 59,208 L5,208 C2.23857625,208 0,205.761424 0,203 L0,5 C0,2.23857625 2.23857625,0 5,0 Z" id="path-1"></path>
        <path d="M0,0 L24,0 L24,24 L0,24 L0,0 Z" id="path-2"></path>
    </defs>
    <g id="Icons" stroke="none" stroke-width="1" fill="none" fill-rule="evenodd" stroke-linecap="round" stroke-linejoin="round">
        <g id="Basic-Users" transform="translate(-584, -234)" fill-rule="nonzero" stroke="CURRENTCOLOR">
            <g id="Verified-User" transform="translate(564, 166)" xlink:href="#path-1">
                <g id="Icon/VerifiedUser/Linear" transform="translate(20, 68)" xlink:href="#path-2">
                    <path d="M17,7 C17,9.76142383 14.7614238,12 12,12 C9.23857617,12 7,9.76142383 7,7 C7,4.23857617 9.23857617,2 12,2 C14.7614238,2 17,4.23857617 17,7 Z" id="Vector" stroke-width="1.5" fill-rule="nonzero"></path>
                    <path d="M3.40997314,22 C3.40997314,18.1300001 7.26000023,15 12,15 C12.96,15 13.8900098,15.1299951 14.7600098,15.3699951" id="Vector" stroke-width="1.5" fill-rule="nonzero"></path>
                    <g id="Group-759" fill-rule="evenodd" stroke-width="1" transform="translate(14, 14)">
                        <path d="M8,4 C8,4.75 7.79001343,5.45999753 7.42001343,6.05999756 C7.21001343,6.41999757 6.94000489,6.74000001 6.63000488,7 C5.93000489,7.63 5.00999999,8 4,8 C2.53999996,8 1.26998657,7.21999753 0.579986572,6.05999756 C0.209986567,5.45999753 0,4.75 0,4 C0,2.74000001 0.579999983,1.6100049 1.5,0.880004883 C2.19,0.330004871 3.06,0 4,0 C6.21000004,0 8,1.78999996 8,4 Z" id="Vector" stroke-width="1.5" fill-rule="nonzero"></path>
                        <polyline id="Vector" stroke-width="1.5" fill-rule="nonzero" points="2.44042969 4 3.43041992 4.98999023 5.5604248 3.02001953"></polyline>
                    </g>
                </g>
            </g>
        </g>
    </g>
</svg>