<?xml version="1.0" encoding="UTF-8"?>
<svg width="24px" height="24px" viewBox="0 0 24 24" version="1.1" xmlns="http://www.w3.org/2000/svg" xmlns:xlink="http://www.w3.org/1999/xlink">
    <title>Icon/VerifiedUser/Bold</title>
    <defs>
        <path d="M5,0 L59,0 C61.7614237,-8.8817842e-16 64,2.23857625 64,5 L64,203 C64,205.761424 61.7614237,208 59,208 L5,208 C2.23857625,208 0,205.761424 0,203 L0,5 C0,2.23857625 2.23857625,0 5,0 Z" id="path-1"></path>
        <path d="M0,0 L24,0 L24,24 L0,24 L0,0 Z" id="path-2"></path>
    </defs>
    <g id="Icons" stroke="none" stroke-width="1" fill="none" fill-rule="evenodd">
        <g id="Basic-Users" transform="translate(-584, -282)" fill="CURRENTCOLOR" fill-rule="nonzero">
            <g id="Verified-User" transform="translate(564, 166)" xlink:href="#path-1">
                <g id="Icon/VerifiedUser/Bold" transform="translate(20, 116)" xlink:href="#path-2">
                    <path d="M11.8,17 C11.8,15.9 12.1000001,14.9000004 12.6000001,14.1000004 C12.3000001,14.1000004 11.9000002,14.1000004 11.6000001,14.1000004 C6.50000024,14.1000004 2.39999991,17.499999 2.49999991,21.7999992 C2.49999991,21.9999992 2.7,22.1000004 2.90000001,22.1000004 L14.6999996,22.1000004 C12.9999995,21.1000004 11.8,19.2000003 11.8,17.1000004 L11.8,17 Z" id="Vector"></path>
                    <path d="M17.4501953,12.8999023 C16.5101953,12.8999023 15.6401953,13.2299072 14.9501953,13.7799072 C14.0301953,14.5099072 13.4501953,15.6399024 13.4501953,16.8999023 C13.4501953,17.6499023 13.6601819,18.3598999 14.0301819,18.9598999 C14.7201819,20.1198999 15.9901953,20.8999023 17.4501953,20.8999023 C18.4601953,20.8999023 19.3802002,20.5299023 20.0802002,19.8999023 C20.3902002,19.6399024 20.6602087,19.3198999 20.8702087,18.9598999 C21.2402087,18.3598999 21.4501953,17.6499023 21.4501953,16.8999023 C21.4501953,14.6899023 19.6601954,12.8999023 17.4501953,12.8999023 Z M19.5202026,16.4699097 L17.3901978,18.4398804 C17.2501978,18.5698804 17.060188,18.6398926 16.880188,18.6398926 C16.690188,18.6398926 16.5001892,18.5699219 16.3501892,18.4199219 L15.360199,17.4299316 C15.070199,17.1399316 15.070199,16.659873 15.360199,16.369873 C15.650199,16.0798731 16.1301965,16.0798731 16.4201965,16.369873 L16.9002075,16.8499146 L18.5001831,15.369873 C18.8001831,15.089873 19.2801807,15.1099121 19.5601807,15.4099121 C19.8401807,15.7099121 19.8202026,16.1799097 19.5202026,16.4699097 Z" id="Vector"></path>
                    <path d="M11.5,12 C14.3,12 16.5,9.79999995 16.5,7 C16.5,4.20000005 14.3,2 11.5,2 C8.70000005,2 6.5,4.20000005 6.5,7 C6.5,9.79999995 8.70000005,12 11.5,12 Z" id="Vector"></path>
                </g>
            </g>
        </g>
    </g>
</svg>