<?xml version="1.0" encoding="UTF-8"?>
<svg width="24px" height="24px" viewBox="0 0 24 24" version="1.1" xmlns="http://www.w3.org/2000/svg" xmlns:xlink="http://www.w3.org/1999/xlink">
    <title>Icon/Notification-silent/Outline</title>
    <defs>
        <path d="M5,0 L59,0 C61.7614237,-8.8817842e-16 64,2.23857625 64,5 L64,203 C64,205.761424 61.7614237,208 59,208 L5,208 C2.23857625,208 0,205.761424 0,203 L0,5 C0,2.23857625 2.23857625,0 5,0 Z" id="path-1"></path>
        <path d="M0,0 L24,0 L24,24 L0,24 L0,0 Z" id="path-2"></path>
    </defs>
    <g id="Icons" stroke="none" stroke-width="1" fill="none" fill-rule="evenodd">
        <g id="Basic-System-feedback" transform="translate(-168, -186)" fill="CURRENTCOLOR" fill-rule="nonzero">
            <g id="Notification-silent" transform="translate(148, 166)" xlink:href="#path-1">
                <g id="Icon/Notification-silent/Outline" transform="translate(20, 20)" xlink:href="#path-2">
                    <path d="M14.2976689,19.7363281 C14.4431794,19.3487237 14.8757535,19.152538 15.2634892,19.2978516 C15.6511601,19.4433252 15.8472919,19.8759027 15.7019658,20.2636719 C15.1511622,21.7326816 13.6850963,22.75 11.9998174,22.75 C10.314569,22.75 8.84841716,21.7326932 8.29766846,20.2636719 C8.15230498,19.8758029 8.34925261,19.443215 8.73712158,19.2978516 C9.12475649,19.1527212 9.55644006,19.3488821 9.70196533,19.7363281 C10.0246638,20.5973747 10.9153185,21.2499266 11.9998174,21.25 C13.0843987,21.25 13.9749523,20.5974232 14.2976689,19.7363281 Z M2.51837169,2.46972656 C2.81126492,2.17683333 3.28602535,2.17683333 3.57891858,2.46972656 L21.578918,20.4697266 C21.8718112,20.7626198 21.8718112,21.2373802 21.578918,21.5302734 C21.2860247,21.8231667 20.8112643,21.8231667 20.5183711,21.5302734 L17.7380986,18.75 L6.22247314,18.75 C5.04928482,18.7498846 4.07651657,18.153862 3.58575451,17.2890625 C3.08779854,16.4111989 3.11162549,15.2846123 3.87677014,14.3857422 C4.27058792,13.9230273 4.50525352,13.3847935 4.56817627,12.8310547 L5.01544189,8.890625 C5.10351123,8.11467046 5.34865728,7.38639748 5.71563721,6.72753906 L2.51837169,3.53027344 C2.22547846,3.23738021 2.22547846,2.76261979 2.51837169,2.46972656 Z M6.83282471,7.84472656 C6.66570021,8.22884586 6.55378605,8.63586056 6.50567627,9.05957031 L6.05841064,13 C5.96017824,13.8651924 5.59655142,14.6802605 5.01934814,15.3583984 C4.68768787,15.7480235 4.68415883,16.185068 4.89044189,16.5488281 C5.10427144,16.9256292 5.56761402,17.2498876 6.22247314,17.25 L16.2380986,17.25 L6.83282471,7.84472656 Z M11.9998174,1.25 C13.5239663,1.25 14.7831683,2.37929642 14.9890752,3.84667969 C17.1219223,4.74479145 18.7249714,6.59808731 18.985168,8.890625 L19.431457,12.8310547 C19.4943644,13.3847349 19.7291287,13.923056 20.1228633,14.3857422 C20.5116897,14.8425253 20.718792,15.3718392 20.7468867,15.9101563 C20.768363,16.3236825 20.4504525,16.6765949 20.0369258,16.6982422 C19.623321,16.7198282 19.2704991,16.4018649 19.2488399,15.9882812 C19.2385078,15.7903098 19.163877,15.5729921 18.9812617,15.3583984 C18.4039775,14.680221 18.0394562,13.865271 17.9412236,13 L17.493958,9.05957031 C17.2908506,7.27093601 15.9441639,5.73939419 14.0271611,5.08300781 C13.7239793,4.97920211 13.5204783,4.69445711 13.5203252,4.37402344 L13.5203252,4.26953125 C13.5201011,3.43027878 12.839122,2.75 11.9998174,2.75 C11.1605968,2.75009945 10.4805103,3.43034029 10.4802861,4.26953125 L10.4802861,4.37402344 C10.480133,4.6942918 10.2763726,4.97906896 9.97344971,5.08300781 C9.69043148,5.17990983 9.41855386,5.29662734 9.16094971,5.43066406 C8.79367793,5.62180497 8.3405997,5.47938082 8.14923096,5.11230469 C7.9580829,4.74501917 8.10048366,4.29194228 8.46759033,4.10058594 C8.6435262,4.00902285 8.82477394,3.92445609 9.00958252,3.84667969 C9.21540111,2.37926531 10.4756866,1.25 11.9998174,1.25 Z" id="Vector-(Stroke)"></path>
                </g>
            </g>
        </g>
    </g>
</svg>