<?xml version="1.0" encoding="UTF-8"?>
<svg width="24px" height="24px" viewBox="0 0 24 24" version="1.1" xmlns="http://www.w3.org/2000/svg" xmlns:xlink="http://www.w3.org/1999/xlink">
    <title>Icon/Notification-silent/Bold</title>
    <defs>
        <path d="M5,0 L59,0 C61.7614237,-8.8817842e-16 64,2.23857625 64,5 L64,203 C64,205.761424 61.7614237,208 59,208 L5,208 C2.23857625,208 0,205.761424 0,203 L0,5 C0,2.23857625 2.23857625,0 5,0 Z" id="path-1"></path>
        <path d="M0,0 L24,0 L24,24 L0,24 L0,0 Z" id="path-2"></path>
    </defs>
    <g id="Icons" stroke="none" stroke-width="1" fill="none" fill-rule="evenodd">
        <g id="Basic-System-feedback" transform="translate(-168, -282)" fill="CURRENTCOLOR" fill-rule="nonzero">
            <g id="Notification-silent" transform="translate(148, 166)" xlink:href="#path-1">
                <g id="Icon/Notification-silent/Bold" transform="translate(20, 116)" xlink:href="#path-2">
                    <path d="M18.2397194,8.97518635 L18.6869068,12.9152575 C18.7674484,13.6248856 19.0667439,14.3015881 19.5523987,14.8721218 C19.8381672,15.2078352 19.9786739,15.5808926 19.9978886,15.9490604 L8.8144269,4.76559877 C9.10568142,4.61401987 9.41181421,4.4826858 9.73023748,4.37366152 L9.73023748,4.2699461 C9.73023748,3.01628935 10.7465267,2 12.0001841,2 C13.2538404,2 14.2701302,3.01628935 14.2701302,4.2699461 L14.2701302,4.37366199 C16.4125271,5.10719228 17.9985886,6.85063314 18.2397194,8.97518635 Z M16.9881668,18 L6.22299719,18 C4.39461708,18 3.35094059,16.1608791 4.44796872,14.8721218 C4.93362379,14.3015881 5.23291922,13.6248856 5.31346011,12.9152575 L5.76064754,8.9751873 C5.82873797,8.37525702 6.00407076,7.80571604 6.26888967,7.28072214 L2.51849747,3.53033006 C2.22560501,3.23743689 2.22560501,2.76256311 2.51849747,2.46966994 C2.81139183,2.17677671 3.28626442,2.17677671 3.57915878,2.46966994 L21.5791588,20.4696693 C21.8720512,20.7625637 21.8720512,21.2374363 21.5791588,21.5303307 C21.2862644,21.8232231 20.8113918,21.8232231 20.5184975,21.5303307 L16.9881668,18 Z" id="Union" fill-rule="evenodd"></path>
                    <path d="M12,22 C13.3565335,22 14.5147424,21.1991909 14.9721093,20.0714966 C14.9911752,20.0244868 15,19.9740157 15,19.9232867 C15,19.6895119 14.8104887,19.5 14.5767136,19.5 L9.42328694,19.5 C9.18951218,19.5 9,19.6895119 9,19.9232867 C9,19.9740157 9.00882509,20.0244869 9.02789117,20.0714967 C9.485258,21.1991908 10.6434671,22 12,22 Z" id="Ellipse-218" fill-rule="nonzero"></path>
                </g>
            </g>
        </g>
    </g>
</svg>