<?xml version="1.0" encoding="UTF-8"?>
<svg width="24px" height="24px" viewBox="0 0 24 24" version="1.1" xmlns="http://www.w3.org/2000/svg" xmlns:xlink="http://www.w3.org/1999/xlink">
    <title>Icon/Notification-silent/Linear</title>
    <defs>
        <path d="M5,0 L59,0 C61.7614237,-8.8817842e-16 64,2.23857625 64,5 L64,203 C64,205.761424 61.7614237,208 59,208 L5,208 C2.23857625,208 0,205.761424 0,203 L0,5 C0,2.23857625 2.23857625,0 5,0 Z" id="path-1"></path>
        <path d="M0,0 L24,0 L24,24 L0,24 L0,0 Z" id="path-2"></path>
    </defs>
    <g id="Icons" stroke="none" stroke-width="1" fill="none" fill-rule="evenodd" stroke-linecap="round">
        <g id="Basic-System-feedback" transform="translate(-168, -234)" fill-rule="nonzero" stroke="CURRENTCOLOR" stroke-width="1.5">
            <g id="Notification-silent" transform="translate(148, 166)" xlink:href="#path-1">
                <g id="Icon/Notification-silent/Linear" transform="translate(20, 68)" xlink:href="#path-2">
                    <path d="M21.048645,21 L3.04864502,3 M8.20182908,18 L6.22281408,18 L6.22281408,18 C4.39443398,18 3.35075748,16.1608791 4.44778562,14.8721218 C4.93344077,14.3015881 5.23273623,13.6248856 5.31327701,12.9152575 L5.76046443,8.9751873 C5.8545996,8.14578295 6.15370822,7.37446165 6.61087084,6.6986351 M19.9977055,15.9490604 C19.9784908,15.5808926 19.8379841,15.2078352 19.5522156,14.8721218 C19.0665607,14.3015881 18.7672644,13.6248856 18.6867237,12.9152575 L18.2395363,8.97518635 C17.9984055,6.85063314 16.412344,5.10719228 14.2699471,4.37366199 L14.2699471,4.2699461 C14.2699471,3.01628935 13.2536573,2 12.000001,2 C10.7463441,2 9.73005438,3.01628935 9.73005438,4.2699461 L9.73005438,4.37366152 C9.41163111,4.4826858 9.10549831,4.61401987 8.81424379,4.76559877 M15,20 C14.5633154,21.1651924 13.3850296,22 12,22 C10.6149701,22 9.43668461,21.1651924 9,20" id="Vector"></path>
                </g>
            </g>
        </g>
    </g>
</svg>