<?xml version="1.0" encoding="UTF-8"?>
<svg width="24px" height="24px" viewBox="0 0 24 24" version="1.1" xmlns="http://www.w3.org/2000/svg" xmlns:xlink="http://www.w3.org/1999/xlink">
    <title>Icon/Notification-silent/Bulk</title>
    <defs>
        <path d="M5,0 L59,0 C61.7614237,-8.8817842e-16 64,2.23857625 64,5 L64,203 C64,205.761424 61.7614237,208 59,208 L5,208 C2.23857625,208 0,205.761424 0,203 L0,5 C0,2.23857625 2.23857625,0 5,0 Z" id="path-1"></path>
        <path d="M0,0 L24,0 L24,24 L0,24 L0,0 Z" id="path-2"></path>
    </defs>
    <g id="Icons" stroke="none" stroke-width="1" fill="none" fill-rule="evenodd">
        <g id="Basic-System-feedback" transform="translate(-168, -330)" fill="CURRENTCOLOR" fill-rule="nonzero">
            <g id="Notification-silent" transform="translate(148, 166)" xlink:href="#path-1">
                <g id="Icon/Notification-silent/Bulk" transform="translate(20, 164)" xlink:href="#path-2">
                    <path d="M15,19 C14.5633159,20.1651924 13.38503,21 12,21 C10.6149704,21 9.43668461,20.1651924 9,19 L9,18 L15,18 L15,19 Z" id="Ellipse-219"></path>
                    <path d="M6.22281408,19 L17.7771864,19 C19.605566,19 20.6492443,17.1608791 19.5522156,15.8721218 C19.0665607,15.3015881 18.7672644,14.6248856 18.6867237,13.9152575 L18.2395363,9.97518635 C17.9984055,7.85063314 16.412344,6.10719204 14.2699471,5.37366176 L14.2699471,5.2699461 C14.2699471,4.01628935 13.2536573,3 12,3 C10.7463441,3 9.73005438,4.01628935 9.73005438,5.2699461 L9.73005438,5.37366152 C7.58765769,6.10719204 6.0015955,7.85063362 5.76046443,9.97518682 L5.31327701,13.9152575 C5.23273623,14.6248856 4.93344083,15.3015881 4.44778565,15.8721218 C3.35075751,17.1608791 4.39443398,19 6.22281408,19 Z" id="Vector" opacity="0.400000006"></path>
                    <path d="M17.7773695,19 L6.22299719,19 C4.39461708,19 3.35094059,17.1608791 4.44796872,15.8721218 C4.93362391,15.3015881 5.23291934,14.6248856 5.31346011,13.9152575 L5.76064754,9.97518682 C5.85687801,9.12732106 6.16730827,8.34015262 6.64181566,7.6536479 L2.51849747,3.53033006 C2.22560501,3.23743686 2.22560501,2.76256312 2.51849747,2.46966992 C2.81139183,2.17677669 3.28626442,2.17677669 3.57915878,2.46966992 L21.5791588,20.4696693 C21.872052,20.7625637 21.872052,21.2374363 21.5791588,21.5303307 C21.2862656,21.8232231 20.8113907,21.8232231 20.5184975,21.5303307 L17.9804735,18.9923058 C17.9139327,18.9973921 17.8462073,19 17.7773695,19 Z" id="Vector"></path>
                </g>
            </g>
        </g>
    </g>
</svg>