<?xml version="1.0" encoding="UTF-8"?>
<svg width="24px" height="24px" viewBox="0 0 24 24" version="1.1" xmlns="http://www.w3.org/2000/svg" xmlns:xlink="http://www.w3.org/1999/xlink">
    <title>Icon/Snow/Linear</title>
    <defs>
        <path d="M5,0 L59,0 C61.7614237,-8.8817842e-16 64,2.23857625 64,5 L64,203 C64,205.761424 61.7614237,208 59,208 L5,208 C2.23857625,208 0,205.761424 0,203 L0,5 C0,2.23857625 2.23857625,0 5,0 Z" id="path-1"></path>
        <path d="M0,0 L24,0 L24,24 L0,24 L0,0 Z" id="path-2"></path>
    </defs>
    <g id="Icons" stroke="none" stroke-width="1" fill="none" fill-rule="evenodd">
        <g id="Weather" transform="translate(-792, -482)" fill-rule="nonzero">
            <g id="Snow" transform="translate(772, 414)" xlink:href="#path-1">
                <g id="Icon/Snow/Linear" transform="translate(20, 68)" xlink:href="#path-2">
                    <use fill="#FFFFFF" fill-rule="evenodd" xlink:href="#path-2"></use>
                    <line x1="11.79" y1="8.5" x2="11.79" y2="3" id="Vector" stroke="CURRENTCOLOR" stroke-width="1.5" stroke-linecap="round" stroke-linejoin="round" fill-rule="nonzero"></line>
                    <line x1="11.79" y1="21" x2="11.79" y2="15.5" id="Vector" stroke="CURRENTCOLOR" stroke-width="1.5" stroke-linecap="round" stroke-linejoin="round" fill-rule="nonzero"></line>
                    <line x1="9.78999996" y1="3" x2="13.79" y2="3" id="Vector" stroke="CURRENTCOLOR" stroke-width="1.5" stroke-linecap="round" stroke-linejoin="round" fill-rule="nonzero"></line>
                    <line x1="9.78999996" y1="21" x2="13.79" y2="21" id="Vector" stroke="CURRENTCOLOR" stroke-width="1.5" stroke-linecap="round" stroke-linejoin="round" fill-rule="nonzero"></line>
                    <line x1="8.76000023" y1="10.25" x2="4" y2="7.5" id="Vector" stroke="CURRENTCOLOR" stroke-width="1.5" stroke-linecap="round" stroke-linejoin="round" fill-rule="nonzero"></line>
                    <line x1="19.5800009" y1="16.5" x2="14.8199997" y2="13.75" id="Vector" stroke="CURRENTCOLOR" stroke-width="1.5" stroke-linecap="round" stroke-linejoin="round" fill-rule="nonzero"></line>
                    <line x1="3" y1="9.22999573" x2="5" y2="5.77000427" id="Vector" stroke="CURRENTCOLOR" stroke-width="1.5" stroke-linecap="round" stroke-linejoin="round" fill-rule="nonzero"></line>
                    <line x1="18.5800009" y1="18.2299957" x2="20.5800009" y2="14.7700043" id="Vector" stroke="CURRENTCOLOR" stroke-width="1.5" stroke-linecap="round" stroke-linejoin="round" fill-rule="nonzero"></line>
                    <path d="M15.29,12 C15.29,12.64 15.1199997,13.23 14.8199997,13.75 C14.2099997,14.8 13.0799999,15.5 11.79,15.5 C10.5,15.5 9.37000024,14.8 8.76000023,13.75 C8.46000022,13.23 8.28999996,12.64 8.28999996,12 C8.28999996,11.36 8.46000022,10.77 8.76000023,10.25 C9.37000024,9.20000005 10.5,8.5 11.79,8.5 C13.0799999,8.5 14.2099997,9.20000005 14.8199997,10.25 C15.1199997,10.77 15.29,11.36 15.29,12 Z" id="Vector" stroke="CURRENTCOLOR" stroke-width="1.5" stroke-linecap="round" stroke-linejoin="round" fill-rule="nonzero"></path>
                    <line x1="19.5800009" y1="7.5" x2="14.8199997" y2="10.25" id="Vector" stroke="CURRENTCOLOR" stroke-width="1.5" stroke-linecap="round" stroke-linejoin="round" fill-rule="nonzero"></line>
                    <line x1="8.76000023" y1="13.75" x2="4" y2="16.5" id="Vector" stroke="CURRENTCOLOR" stroke-width="1.5" stroke-linecap="round" stroke-linejoin="round" fill-rule="nonzero"></line>
                    <line x1="20.5800009" y1="9.22999573" x2="18.5800009" y2="5.77000427" id="Vector" stroke="CURRENTCOLOR" stroke-width="1.5" stroke-linecap="round" stroke-linejoin="round" fill-rule="nonzero"></line>
                    <line x1="5" y1="18.2299957" x2="3" y2="14.7700043" id="Vector" stroke="CURRENTCOLOR" stroke-width="1.5" stroke-linecap="round" stroke-linejoin="round" fill-rule="nonzero"></line>
                </g>
            </g>
        </g>
    </g>
</svg>