<?xml version="1.0" encoding="UTF-8"?>
<svg width="24px" height="24px" viewBox="0 0 24 24" version="1.1" xmlns="http://www.w3.org/2000/svg" xmlns:xlink="http://www.w3.org/1999/xlink">
    <title>Icon/Snow/Outline</title>
    <defs>
        <path d="M5,0 L59,0 C61.7614237,-8.8817842e-16 64,2.23857625 64,5 L64,203 C64,205.761424 61.7614237,208 59,208 L5,208 C2.23857625,208 0,205.761424 0,203 L0,5 C0,2.23857625 2.23857625,0 5,0 Z" id="path-1"></path>
        <path d="M0,0 L24,0 L24,24 L0,24 L0,0 Z" id="path-2"></path>
    </defs>
    <g id="Icons" stroke="none" stroke-width="1" fill="none" fill-rule="evenodd">
        <g id="Weather" transform="translate(-792, -434)" fill-rule="nonzero">
            <g id="Snow" transform="translate(772, 414)" xlink:href="#path-1">
                <g id="Icon/Snow/Outline" transform="translate(20, 20)" xlink:href="#path-2">
                    <use fill="#FFFFFF" fill-rule="evenodd" xlink:href="#path-2"></use>
                    <path d="M9.54333329,3.5 L10.7933333,3.5 L10.7933333,8.25 C10.7933333,8.66 11.1333333,9 11.5433333,9 C11.9533333,9 12.2933333,8.66 12.2933333,8.25 L12.2933333,3.5 L13.5433333,3.5 C13.9533333,3.5 14.2933333,3.16 14.2933333,2.75 C14.2933333,2.34 13.9533333,2 13.5433333,2 L9.54333329,2 C9.1333333,2 8.79333329,2.34 8.79333329,2.75 C8.79333329,3.16 9.1333333,3.5 9.54333329,3.5 Z" id="Vector" fill="CURRENTCOLOR" fill-rule="nonzero"></path>
                    <path d="M13.5433333,20 L12.2933333,20 L12.2933333,15.25 C12.2933333,14.84 11.9533333,14.5 11.5433333,14.5 C11.1333333,14.5 10.7933333,14.84 10.7933333,15.25 L10.7933333,20 L9.54333329,20 C9.1333333,20 8.79333329,20.34 8.79333329,20.75 C8.79333329,21.16 9.1333333,21.5 9.54333329,21.5 L13.5433333,21.5 C13.9533333,21.5 14.2933333,21.16 14.2933333,20.75 C14.2933333,20.34 13.9533333,20 13.5433333,20 Z" id="Vector" fill="CURRENTCOLOR" fill-rule="nonzero"></path>
                    <path d="M2.37333331,9.63000011 C2.4933333,9.70000011 2.62333346,9.72999954 2.74333346,9.72999954 C3.00333345,9.72999954 3.25333332,9.60000038 3.39333332,9.35000038 L4.02333331,8.27000022 L8.14333391,10.6499996 C8.25333391,10.7199996 8.3833338,10.75 8.5133338,10.75 C8.77333379,10.75 9.02333342,10.6199999 9.16333342,10.3699999 C9.37333341,10.0199999 9.24333391,9.56000037 8.89333391,9.35000038 L4.77333331,6.96999955 L5.3933332,5.88999975 C5.60333319,5.52999973 5.47333321,5.06999975 5.12333322,4.86999975 C4.7633332,4.65999976 4.30333324,4.7799997 4.10333323,5.13999972 L2.10333334,8.60000014 C1.89333335,8.97000015 2.01333329,9.42000012 2.37333331,9.63000011 Z" id="Vector" fill="CURRENTCOLOR" fill-rule="nonzero"></path>
                    <path d="M20.7133334,13.8699998 C20.3533334,13.6599998 19.8933329,13.7800002 19.6933329,14.1400002 L19.0633337,15.2200003 L14.9433328,12.8500003 C14.5833328,12.6400003 14.1233333,12.7699998 13.9233333,13.1199998 C13.7133333,13.4799998 13.8433328,13.9400002 14.1933328,14.1400002 L18.3033335,16.5200005 L17.6833327,17.6000004 C17.4733327,17.9600004 17.6033331,18.4200008 17.9533331,18.6200008 C18.0733331,18.6900008 18.203334,18.7199993 18.323334,18.7199993 C18.583334,18.7199993 18.8333336,18.5900002 18.9733336,18.3400002 L20.9733336,14.8800001 C21.1933336,14.5300001 21.0733334,14.0799998 20.7133334,13.8699998 Z" id="Vector" fill="CURRENTCOLOR" fill-rule="nonzero"></path>
                    <path d="M18.3133337,6.96999955 L14.1933329,9.35000038 C13.8333329,9.56000037 13.7133334,10.0199999 13.9233334,10.3699999 C14.0633334,10.6099999 14.313333,10.75 14.573333,10.75 C14.703333,10.75 14.8333329,10.7199996 14.9433329,10.6499996 L19.0533335,8.27000022 L19.6833327,9.35000038 C19.8233327,9.59000038 20.0733342,9.72999954 20.3333342,9.72999954 C20.4633342,9.72999954 20.5933331,9.70000011 20.7033331,9.63000011 C21.0633332,9.42000012 21.1833336,8.95999941 20.9733336,8.60999942 L18.9733336,5.14999995 C18.7633336,4.78999993 18.3033331,4.66999999 17.9533331,4.87999998 C17.5933331,5.08999997 17.4733327,5.54999998 17.6833327,5.89999998 L18.3133337,6.96999955 Z" id="Vector" fill="CURRENTCOLOR" fill-rule="nonzero"></path>
                    <path d="M4.77333331,16.5300004 L8.88333368,14.1499994 C9.2433337,13.9399994 9.36333318,13.4799998 9.15333319,13.1299998 C8.94333319,12.7699998 8.48333368,12.6499994 8.13333368,12.8599994 L4.02333331,15.2399995 L3.39333332,14.1599996 C3.18333332,13.7999996 2.7233333,13.6800001 2.37333331,13.8900001 C2.01333329,14.1000001 1.89333335,14.5599996 2.10333334,14.9099996 L4.10333323,18.3700004 C4.24333324,18.6100004 4.49333334,18.7499995 4.75333333,18.7499995 C4.88333333,18.7499995 5.01333322,18.7199991 5.12333322,18.6499991 C5.48333323,18.4399991 5.60333319,17.9799987 5.3933332,17.6299987 L4.77333331,16.5300004 Z" id="Vector" fill="CURRENTCOLOR" fill-rule="nonzero"></path>
                    <path d="M15.0433333,11.75 C15.0433333,12.39 14.873333,12.98 14.573333,13.5 C13.963333,14.55 12.8333333,15.25 11.5433333,15.25 C10.2533333,15.25 9.12333357,14.55 8.51333356,13.5 C8.21333355,12.98 8.04333329,12.39 8.04333329,11.75 C8.04333329,11.11 8.21333355,10.52 8.51333356,10 C9.12333357,8.95000005 10.2533333,8.25 11.5433333,8.25 C12.8333333,8.25 13.963333,8.95000005 14.573333,10 C14.873333,10.52 15.0433333,11.11 15.0433333,11.75 Z" id="Vector" fill="CURRENTCOLOR" fill-rule="nonzero"></path>
                </g>
            </g>
        </g>
    </g>
</svg>