<?xml version="1.0" encoding="UTF-8"?>
<svg width="24px" height="24px" viewBox="0 0 24 24" version="1.1" xmlns="http://www.w3.org/2000/svg" xmlns:xlink="http://www.w3.org/1999/xlink">
    <title>Icon/Snow/Bold</title>
    <defs>
        <path d="M5,0 L59,0 C61.7614237,-8.8817842e-16 64,2.23857625 64,5 L64,203 C64,205.761424 61.7614237,208 59,208 L5,208 C2.23857625,208 0,205.761424 0,203 L0,5 C0,2.23857625 2.23857625,0 5,0 Z" id="path-1"></path>
        <path d="M0,0 L24,0 L24,24 L0,24 L0,0 Z" id="path-2"></path>
    </defs>
    <g id="Icons" stroke="none" stroke-width="1" fill="none" fill-rule="evenodd">
        <g id="Weather" transform="translate(-792, -530)" fill-rule="nonzero">
            <g id="Snow" transform="translate(772, 414)" xlink:href="#path-1">
                <g id="Icon/Snow/Bold" transform="translate(20, 116)" xlink:href="#path-2">
                    <use fill="#FFFFFF" fill-rule="evenodd" xlink:href="#path-2"></use>
                    <path d="M11.5410156,9 C11.1310156,9 10.7910156,8.66 10.7910156,8.25 L10.7910156,2.75 C10.7910156,2.34 11.1310156,2 11.5410156,2 C11.9510156,2 12.2910156,2.34 12.2910156,2.75 L12.2910156,8.25 C12.2910156,8.66 11.9510156,9 11.5410156,9 Z" id="Vector" fill="CURRENTCOLOR" fill-rule="nonzero"></path>
                    <path d="M11.5410156,21.5 C11.1310156,21.5 10.7910156,21.16 10.7910156,20.75 L10.7910156,15.25 C10.7910156,14.84 11.1310156,14.5 11.5410156,14.5 C11.9510156,14.5 12.2910156,14.84 12.2910156,15.25 L12.2910156,20.75 C12.2910156,21.16 11.9510156,21.5 11.5410156,21.5 Z" id="Vector" fill="CURRENTCOLOR" fill-rule="nonzero"></path>
                    <path d="M13.5410156,3.5 L9.54101562,3.5 C9.13101563,3.5 8.79101562,3.16 8.79101562,2.75 C8.79101562,2.34 9.13101563,2 9.54101562,2 L13.5410156,2 C13.9510156,2 14.2910156,2.34 14.2910156,2.75 C14.2910156,3.16 13.9510156,3.5 13.5410156,3.5 Z" id="Vector" fill="CURRENTCOLOR" fill-rule="nonzero"></path>
                    <path d="M13.5410156,21.5 L9.54101562,21.5 C9.13101563,21.5 8.79101562,21.16 8.79101562,20.75 C8.79101562,20.34 9.13101563,20 9.54101562,20 L13.5410156,20 C13.9510156,20 14.2910156,20.34 14.2910156,20.75 C14.2910156,21.16 13.9510156,21.5 13.5410156,21.5 Z" id="Vector" fill="CURRENTCOLOR" fill-rule="nonzero"></path>
                    <path d="M8.51114607,10.7499843 C8.38114607,10.7499843 8.25114618,10.7199782 8.14114618,10.6499782 L3.38114581,7.8999784 C3.02114579,7.68997841 2.90114585,7.22998932 3.11114584,6.87998933 C3.32114583,6.51998931 3.78114608,6.39998507 4.13114607,6.60998506 L8.89114618,9.35998511 C9.2511462,9.56998511 9.37114568,10.0299894 9.16114569,10.3799894 C9.02114569,10.6199894 8.77114606,10.7499843 8.51114607,10.7499843 Z" id="Vector" fill="CURRENTCOLOR" fill-rule="nonzero"></path>
                    <path d="M19.3309708,16.9999843 C19.2009708,16.9999843 19.0709699,16.9699782 18.9609699,16.8999782 L14.2009697,14.1499784 C13.8409697,13.9399784 13.7209702,13.4799893 13.9309702,13.1299893 C14.1409702,12.7699893 14.6009697,12.6499851 14.9509697,12.8599851 L19.7109699,15.6099851 C20.0709699,15.8199851 20.1909704,16.2799894 19.9809704,16.6299894 C19.8409704,16.8699894 19.5909708,16.9999843 19.3309708,16.9999843 Z" id="Vector" fill="CURRENTCOLOR" fill-rule="nonzero"></path>
                    <path d="M2.75114596,9.72999954 C2.62114596,9.72999954 2.4911458,9.7000087 2.38114581,9.6300087 C2.02114579,9.4200087 1.90114585,8.96000418 2.11114584,8.61000419 L4.11114597,5.14999756 C4.32114597,4.78999755 4.78114596,4.67000856 5.13114595,4.88000855 C5.49114597,5.09000854 5.61114593,5.5499976 5.40114594,5.89999759 L3.40114582,9.36000443 C3.26114582,9.60000442 3.00114596,9.72999954 2.75114596,9.72999954 Z" id="Vector" fill="CURRENTCOLOR" fill-rule="nonzero"></path>
                    <path d="M18.3312252,18.7299995 C18.2012252,18.7299995 18.0712243,18.7000087 17.9612243,18.6300087 C17.6012243,18.4200087 17.4812238,17.9600042 17.6912238,17.6100042 L19.6912239,14.1499976 C19.9012239,13.7899975 20.3612243,13.6700086 20.7112243,13.8800085 C21.0712243,14.0900085 21.1912248,14.5499976 20.9812248,14.8999976 L18.9812248,18.3600044 C18.8512248,18.6000044 18.5912251,18.7299995 18.3312252,18.7299995 Z" id="Vector" fill="CURRENTCOLOR" fill-rule="nonzero"></path>
                    <path d="M11.5410156,16.0000153 C10.0310156,16.0000153 8.62101531,15.1900201 7.86101532,13.8800201 C7.48101532,13.2200201 7.29101562,12.5100098 7.29101562,11.7500153 C7.29101562,10.9900153 7.48101532,10.2800201 7.86101532,9.63002014 C8.62101531,8.3200202 10.0310156,7.51000977 11.5410156,7.51000977 C13.0510156,7.51000977 14.4610159,8.3200202 15.2210159,9.63002014 C15.6010159,10.2900202 15.7910156,11.0000098 15.7910156,11.7600098 C15.7910156,12.5200098 15.6010159,13.2300202 15.2210159,13.8800201 C14.4610159,15.1900201 13.0510156,16.0000153 11.5410156,16.0000153 Z" id="Vector" fill="CURRENTCOLOR" fill-rule="nonzero"></path>
                    <path d="M11.5410156,9.00001526 C10.5610156,9.00001526 9.65101552,9.53002012 9.16101551,10.3800201 C8.92101552,10.8000201 8.79101562,11.2700153 8.79101562,11.7500153 C8.79101562,12.2300152 8.91101551,12.7000201 9.16101551,13.1300201 C9.65101552,13.9800202 10.5610156,14.5100098 11.5410156,14.5100098 C12.5210156,14.5100098 13.4310157,13.9800202 13.9210157,13.1300201 C14.1610157,12.7100202 14.2910156,12.2400098 14.2910156,11.7600098 C14.2910156,11.2800098 14.1710157,10.8100201 13.9210157,10.3800201 C13.4310157,9.53002012 12.5210156,9.00001526 11.5410156,9.00001526 Z" id="Vector" fill="CURRENTCOLOR" fill-rule="nonzero"></path>
                    <path d="M14.5709628,10.7500367 C14.3109629,10.7500367 14.0609632,10.6200321 13.9209632,10.3700321 C13.7109632,10.0100321 13.8409627,9.55004306 14.1909627,9.35004306 L18.950963,6.600043 C19.310963,6.39004301 19.7709635,6.52003202 19.9709635,6.87003201 C20.1809635,7.23003203 20.050963,7.69003622 19.700963,7.89003623 L14.9409627,10.6400361 C14.8309627,10.7200361 14.7009628,10.7500367 14.5709628,10.7500367 Z" id="Vector" fill="CURRENTCOLOR" fill-rule="nonzero"></path>
                    <path d="M3.75113899,17.0000367 C3.49113899,17.0000367 3.24113887,16.8700321 3.10113887,16.6200321 C2.89113887,16.2600321 3.02113885,15.8000431 3.37113884,15.6000431 L8.13113928,12.850043 C8.49113929,12.640043 8.95113878,12.770032 9.15113878,13.120032 C9.36113878,13.480032 9.23113927,13.9400362 8.88113928,14.1400362 L4.12113881,16.8900361 C4.01113881,16.9700361 3.88113898,17.0000367 3.75113899,17.0000367 Z" id="Vector" fill="CURRENTCOLOR" fill-rule="nonzero"></path>
                    <path d="M20.3312185,9.72999811 C20.0712185,9.72999811 19.821217,9.60000849 19.681217,9.35000849 L17.6812169,5.89000189 C17.4712169,5.53000188 17.6012173,5.06999765 17.9512173,4.86999765 C18.3112173,4.65999766 18.7712177,4.79000193 18.9712178,5.14000192 L20.9712179,8.60000873 C21.1812179,8.96000874 21.0512174,9.4199975 20.7012174,9.6199975 C20.5912174,9.6999975 20.4612185,9.72999811 20.3312185,9.72999811 Z" id="Vector" fill="CURRENTCOLOR" fill-rule="nonzero"></path>
                    <path d="M4.75113893,18.7299981 C4.49113894,18.7299981 4.24113883,18.6000085 4.10113883,18.3500085 L2.10113887,14.8900019 C1.89113887,14.5300019 2.02113885,14.0699977 2.37113884,13.8699977 C2.73113886,13.6599977 3.19113879,13.7900019 3.39113879,14.1400019 L5.39113879,17.6000087 C5.60113879,17.9600087 5.47113881,18.4199975 5.12113881,18.6199975 C5.00113881,18.6999975 4.87113892,18.7299981 4.75113893,18.7299981 Z" id="Vector" fill="CURRENTCOLOR" fill-rule="nonzero"></path>
                </g>
            </g>
        </g>
    </g>
</svg>