<?xml version="1.0" encoding="UTF-8"?>
<svg width="24px" height="24px" viewBox="0 0 24 24" version="1.1" xmlns="http://www.w3.org/2000/svg" xmlns:xlink="http://www.w3.org/1999/xlink">
    <title>Icon/Snow/Bulk</title>
    <defs>
        <path d="M5,0 L59,0 C61.7614237,-8.8817842e-16 64,2.23857625 64,5 L64,203 C64,205.761424 61.7614237,208 59,208 L5,208 C2.23857625,208 0,205.761424 0,203 L0,5 C0,2.23857625 2.23857625,0 5,0 Z" id="path-1"></path>
        <path d="M0,0 L24,0 L24,24 L0,24 L0,0 Z" id="path-2"></path>
    </defs>
    <g id="Icons" stroke="none" stroke-width="1" fill="none" fill-rule="evenodd">
        <g id="Weather" transform="translate(-792, -578)" fill-rule="nonzero">
            <g id="Snow" transform="translate(772, 414)" xlink:href="#path-1">
                <g id="Icon/Snow/Bulk" transform="translate(20, 164)" xlink:href="#path-2">
                    <use fill="#FFFFFF" fill-rule="evenodd" xlink:href="#path-2"></use>
                    <path d="M9.54333305,3.5 L10.7933331,3.5 L10.7933331,8.25 C10.7933331,8.66 11.1333331,9 11.5433331,9 C11.9533331,9 12.2933331,8.66 12.2933331,8.25 L12.2933331,3.5 L13.5433331,3.5 C13.9533331,3.5 14.2933331,3.16 14.2933331,2.75 C14.2933331,2.34 13.9533331,2 13.5433331,2 L9.54333305,2 C9.13333306,2 8.79333305,2.34 8.79333305,2.75 C8.79333305,3.16 9.13333306,3.5 9.54333305,3.5 Z" id="Vector" fill="CURRENTCOLOR" fill-rule="nonzero" opacity="0.400000006"></path>
                    <path d="M13.5433331,20 L12.2933331,20 L12.2933331,15.25 C12.2933331,14.84 11.9533331,14.5 11.5433331,14.5 C11.1333331,14.5 10.7933331,14.84 10.7933331,15.25 L10.7933331,20 L9.54333305,20 C9.13333306,20 8.79333305,20.34 8.79333305,20.75 C8.79333305,21.16 9.13333306,21.5 9.54333305,21.5 L13.5433331,21.5 C13.9533331,21.5 14.2933331,21.16 14.2933331,20.75 C14.2933331,20.34 13.9533331,20 13.5433331,20 Z" id="Vector" fill="CURRENTCOLOR" fill-rule="nonzero" opacity="0.400000006"></path>
                    <path d="M2.37333316,9.63000154 C2.49333315,9.70000155 2.62333328,9.73000002 2.74333328,9.73000002 C3.00333327,9.73000002 3.25333308,9.59999895 3.39333308,9.34999895 L4.02333331,8.27000117 L8.14333344,10.650002 C8.25333343,10.720002 8.38333333,10.7500005 8.51333332,10.7500005 C8.77333331,10.7500005 9.02333294,10.6199994 9.16333294,10.3699994 C9.37333293,10.0099994 9.24333343,9.54999895 8.89333344,9.34999895 L4.78333306,6.97000194 L5.40333343,5.8900001 C5.61333342,5.53000009 5.48333344,5.06999963 5.13333344,4.86999962 C4.77333343,4.65999963 4.31333347,4.78000006 4.11333346,5.14000008 L2.11333315,8.59999919 C1.89333315,8.96999919 2.01333314,9.42000155 2.37333316,9.63000154 Z" id="Vector" fill="CURRENTCOLOR" fill-rule="nonzero" opacity="0.400000006"></path>
                    <path d="M20.7133331,13.8699986 C20.3533331,13.6599986 19.8933327,13.779999 19.6933327,14.139999 L19.0633335,15.220001 L14.9433326,12.8499982 C14.5833325,12.6399982 14.1233331,12.7699986 13.9233331,13.1199986 C13.7133331,13.4799986 13.8433326,13.939999 14.1933326,14.139999 L18.3033333,16.5200002 L17.6833324,17.599998 C17.4733324,17.959998 17.6033329,18.4199985 17.9533329,18.6199985 C18.0733329,18.6899985 18.2033337,18.7200007 18.3233337,18.7200007 C18.5833337,18.7200007 18.8333334,18.5899997 18.9733334,18.3399997 L20.9733334,14.8800008 C21.1933334,14.5300008 21.0733331,14.0799986 20.7133331,13.8699986 Z" id="Vector" fill="CURRENTCOLOR" fill-rule="nonzero" opacity="0.400000006"></path>
                    <path d="M18.3133335,6.97000194 L14.2033329,9.34999895 C13.8433329,9.55999894 13.7233334,10.0199994 13.9333334,10.3699994 C14.0733334,10.6099994 14.323333,10.7500005 14.583333,10.7500005 C14.713333,10.7500005 14.8433329,10.720002 14.9533329,10.650002 L19.0633335,8.27000117 L19.6933327,9.34999895 C19.8333327,9.58999895 20.0833323,9.73000002 20.3433323,9.73000002 C20.4733323,9.73000002 20.6033331,9.70000155 20.7133331,9.63000154 C21.0733331,9.42000155 21.1933336,8.96000132 20.9833336,8.61000133 L18.9833336,5.15000221 C18.7733336,4.7900022 18.3133331,4.67000177 17.9633331,4.88000176 C17.6033331,5.09000175 17.4833327,5.55000225 17.6933327,5.90000224 L18.3133335,6.97000194 Z" id="Vector" fill="CURRENTCOLOR" fill-rule="nonzero" opacity="0.400000006"></path>
                    <path d="M4.77333331,16.5299995 L8.88333368,14.1500022 C9.2433337,13.9400022 9.36333318,13.4800017 9.15333319,13.1300018 C8.94333319,12.7700017 8.48333368,12.6500013 8.13333368,12.8600013 L4.02333331,15.2400024 L3.39333332,14.1600006 C3.18333332,13.8000005 2.7233333,13.6800001 2.37333331,13.8900001 C2.01333329,14.1000001 1.89333335,14.5600006 2.10333334,14.9100006 L4.10333323,18.3699994 C4.24333324,18.6099994 4.49333334,18.7500005 4.75333333,18.7500005 C4.88333333,18.7500005 5.01333322,18.720002 5.12333322,18.650002 C5.48333323,18.440002 5.60333319,17.9800015 5.3933332,17.6300015 L4.77333331,16.5299995 Z" id="Vector" fill="CURRENTCOLOR" fill-rule="nonzero" opacity="0.400000006"></path>
                    <path d="M15.0433333,11.75 C15.0433333,12.39 14.873333,12.98 14.573333,13.5 C13.963333,14.55 12.8333333,15.25 11.5433333,15.25 C10.2533333,15.25 9.12333357,14.55 8.51333356,13.5 C8.21333355,12.98 8.04333329,12.39 8.04333329,11.75 C8.04333329,11.11 8.21333355,10.52 8.51333356,10 C9.12333357,8.95000005 10.2533333,8.25 11.5433333,8.25 C12.8333333,8.25 13.963333,8.95000005 14.573333,10 C14.873333,10.52 15.0433333,11.11 15.0433333,11.75 Z" id="Vector" fill="CURRENTCOLOR" fill-rule="nonzero"></path>
                </g>
            </g>
        </g>
    </g>
</svg>