<?xml version="1.0" encoding="UTF-8"?>
<svg width="24px" height="24px" viewBox="0 0 24 24" version="1.1" xmlns="http://www.w3.org/2000/svg" xmlns:xlink="http://www.w3.org/1999/xlink">
    <title>Icon/Disk/Bold</title>
    <defs>
        <path d="M5,0 L59,0 C61.7614237,-8.8817842e-16 64,2.23857625 64,5 L64,203 C64,205.761424 61.7614237,208 59,208 L5,208 C2.23857625,208 0,205.761424 0,203 L0,5 C0,2.23857625 2.23857625,0 5,0 Z" id="path-1"></path>
        <path d="M0,0 L24,0 L24,24 L0,24 L0,0 Z" id="path-2"></path>
    </defs>
    <g id="Icons" stroke="none" stroke-width="1" fill="none" fill-rule="evenodd">
        <g id="Basic-Actions" transform="translate(-584, -282)" fill="CURRENTCOLOR" fill-rule="nonzero">
            <g id="Disk" transform="translate(564, 166)" xlink:href="#path-1">
                <g id="Icon/Disk/Bold" transform="translate(20, 116)" xlink:href="#path-2" fill-rule="evenodd">
                    <path d="M2,6 C2,3.79086113 3.79086161,2 6,2 L14.7875919,2 C15.8484583,2 16.8658724,2.42142737 17.6160183,3.17157292 L20.8284264,6.38398218 C21.5785732,7.13412762 22,8.15154409 22,9.21240997 L22,18 C22,20.2091427 20.2091389,22 18,22 L6,22 C3.79086113,22 2,20.2091389 2,18 L2,6 Z M15.75,7 C15.75,7.41421366 15.4142132,7.75 15,7.75 L9,7.74999905 C8.58578634,7.74999905 8.25,7.4142127 8.25,7 C8.25,6.58578539 8.58578634,6.24999905 9,6.24999905 L15,6.25 C15.4142141,6.25 15.75,6.58578634 15.75,7 Z M7,19 L7,15 C7,14.4477158 7.44771528,14 8,14 L16,14 C16.5522842,14 17,14.4477158 17,15 L17,19 C17,19.5522842 16.5522852,20 16,20 L8,20 C7.44771528,20 7,19.5522842 7,19 Z" id="Subtract"></path>
                </g>
            </g>
        </g>
    </g>
</svg>