<?xml version="1.0" encoding="UTF-8"?>
<svg width="24px" height="24px" viewBox="0 0 24 24" version="1.1" xmlns="http://www.w3.org/2000/svg" xmlns:xlink="http://www.w3.org/1999/xlink">
    <title>Icon/Disk/Outline</title>
    <defs>
        <path d="M5,0 L59,0 C61.7614237,-8.8817842e-16 64,2.23857625 64,5 L64,203 C64,205.761424 61.7614237,208 59,208 L5,208 C2.23857625,208 0,205.761424 0,203 L0,5 C0,2.23857625 2.23857625,0 5,0 Z" id="path-1"></path>
        <path d="M0,0 L24,0 L24,24 L0,24 L0,0 Z" id="path-2"></path>
    </defs>
    <g id="Icons" stroke="none" stroke-width="1" fill="none" fill-rule="evenodd">
        <g id="Basic-Actions" transform="translate(-584, -186)" fill="CURRENTCOLOR" fill-rule="nonzero">
            <g id="Disk" transform="translate(564, 166)" xlink:href="#path-1">
                <g id="Icon/Disk/Outline" transform="translate(20, 20)" xlink:href="#path-2">
                    <path d="M16.25,16 C16.25,15.3096441 15.6903559,14.75 15,14.75 L9,14.75 C8.3096441,14.75 7.75,15.3096441 7.75,16 L7.75,21.25 L16.25,21.25 L16.25,16 Z M15,6.25 C15.4142135,6.25 15.75,6.58578646 15.75,7 C15.75,7.41421354 15.4142135,7.75 15,7.75 L9,7.75 C8.58578661,7.75 8.25,7.41421333 8.25,7 C8.25,6.58578646 8.58578646,6.25 9,6.25 L15,6.25 Z M1.25,6 C1.25,3.37664771 3.37664795,1.25 6,1.25 L14.7871094,1.25 C16.0468879,1.25 17.2556867,1.75080389 18.1464844,2.64160156 L21.3583984,5.85351563 C22.2491961,6.74431324 22.75,7.95311201 22.75,9.21289063 L22.75,18 C22.75,20.6233535 20.6233516,22.75 18,22.75 L6,22.75 C3.37664747,22.75 1.25,20.6233525 1.25,18 L1.25,6 Z M2.75,18 C2.75,19.7949253 4.20507467,21.25 6,21.25 L6.25,21.25 L6.25,16 C6.25,14.481217 7.48121703,13.25 9,13.25 L15,13.25 C16.518783,13.25 17.75,14.481217 17.75,16 L17.75,21.25 L18,21.25 C19.7949263,21.25 21.25,19.7949244 21.25,18 L21.25,9.21289063 C21.25,8.35093725 20.9073449,7.52355587 20.2978516,6.9140625 L17.0859375,3.70214844 C16.4764442,3.09265512 15.6490628,2.75 14.7871094,2.75 L6,2.75 C4.20507479,2.75 2.75,4.20507503 2.75,6 L2.75,18 Z" id="Vector-(Stroke)"></path>
                </g>
            </g>
        </g>
    </g>
</svg>