<?xml version="1.0" encoding="UTF-8"?>
<svg width="24px" height="24px" viewBox="0 0 24 24" version="1.1" xmlns="http://www.w3.org/2000/svg" xmlns:xlink="http://www.w3.org/1999/xlink">
    <title>Icon/Disk/Linear</title>
    <defs>
        <path d="M5,0 L59,0 C61.7614237,-8.8817842e-16 64,2.23857625 64,5 L64,203 C64,205.761424 61.7614237,208 59,208 L5,208 C2.23857625,208 0,205.761424 0,203 L0,5 C0,2.23857625 2.23857625,0 5,0 Z" id="path-1"></path>
        <path d="M0,0 L24,0 L24,24 L0,24 L0,0 Z" id="path-2"></path>
    </defs>
    <g id="Icons" stroke="none" stroke-width="1" fill="none" fill-rule="evenodd" stroke-linecap="round" stroke-linejoin="round">
        <g id="Basic-Actions" transform="translate(-584, -234)" fill-rule="nonzero" stroke="CURRENTCOLOR">
            <g id="Disk" transform="translate(564, 166)" xlink:href="#path-1">
                <g id="Icon/Disk/Linear" transform="translate(20, 68)" xlink:href="#path-2" fill-rule="evenodd">
                    <g id="Vector" transform="translate(2, 2)">
                        <path d="M0,4 C0,1.79086113 1.79086161,0 4,0 L12.7875919,0 C13.8484579,0 14.8658728,0.421427429 15.6160183,1.17157292 L18.8284264,4.38398218 C19.5785719,5.13412768 20,6.15154397 20,7.21240997 L20,16 C20,18.2091427 18.2091389,20 16,20 L4,20 C1.79086113,20 0,18.2091389 0,16 L0,4 Z" stroke-width="1.5" fill-rule="nonzero"></path>
                        <path d="M5,20 L5,14 C5,12.8954306 5.89543056,12 7,12 L13,12 C14.1045694,12 15,12.8954306 15,14 L15,20 M13,5 L7,5" stroke-width="1.5" fill-rule="nonzero"></path>
                    </g>
                </g>
            </g>
        </g>
    </g>
</svg>