<?xml version="1.0" encoding="UTF-8"?>
<svg width="24px" height="24px" viewBox="0 0 24 24" version="1.1" xmlns="http://www.w3.org/2000/svg" xmlns:xlink="http://www.w3.org/1999/xlink">
    <title>Icon/Search/Bold</title>
    <defs>
        <path d="M5,0 L59,0 C61.7614237,-8.8817842e-16 64,2.23857625 64,5 L64,203 C64,205.761424 61.7614237,208 59,208 L5,208 C2.23857625,208 0,205.761424 0,203 L0,5 C0,2.23857625 2.23857625,0 5,0 Z" id="path-1"></path>
        <path d="M0,0 L24,0 L24,24 L0,24 L0,0 Z" id="path-2"></path>
    </defs>
    <g id="Icons" stroke="none" stroke-width="1" fill="none" fill-rule="evenodd">
        <g id="Basic-Search" transform="translate(-64, -282)" fill-rule="nonzero">
            <g id="Search" transform="translate(44, 166)" xlink:href="#path-1">
                <g id="Icon/Search/Bold" transform="translate(20, 116)" xlink:href="#path-2">
                    <path d="M21,11.5 C21,16.7467051 16.7467051,21 11.5,21 C6.25329494,21 2,16.7467051 2,11.5 C2,6.25329494 6.25329494,2 11.5,2 C16.7467051,2 21,6.25329494 21,11.5 Z" id="Vector" fill="CURRENTCOLOR"></path>
                    <path d="M21.2995689,22.0000579 C21.1195689,22.0000579 20.9395691,21.9300572 20.8095691,21.8000572 L18.9495703,19.9400584 C18.6795703,19.6700583 18.6795703,19.2300586 18.9495703,18.9500586 C19.2195703,18.6800586 19.6595701,18.6800586 19.9395701,18.9500586 L21.7995689,20.8100574 C22.0695689,21.0800574 22.0695689,21.5200572 21.7995689,21.8000572 C21.6595689,21.9300572 21.4795689,22.0000579 21.2995689,22.0000579 Z" id="Vector" fill="CURRENTCOLOR"></path>
                    <polygon id="Vector" opacity="0" transform="translate(12, 12) rotate(-180) translate(-12, -12)" points="0 0 24 0 24 24 0 24"></polygon>
                </g>
            </g>
        </g>
    </g>
</svg>