<?xml version="1.0" encoding="UTF-8"?>
<svg width="24px" height="24px" viewBox="0 0 24 24" version="1.1" xmlns="http://www.w3.org/2000/svg" xmlns:xlink="http://www.w3.org/1999/xlink">
    <title>Icon/User-remove/Linear</title>
    <defs>
        <path d="M5,0 L59,0 C61.7614237,-8.8817842e-16 64,2.23857625 64,5 L64,203 C64,205.761424 61.7614237,208 59,208 L5,208 C2.23857625,208 0,205.761424 0,203 L0,5 C0,2.23857625 2.23857625,0 5,0 Z" id="path-1"></path>
        <path d="M0,0 L24,0 L24,24 L0,24 L0,0 Z" id="path-2"></path>
    </defs>
    <g id="Icons" stroke="none" stroke-width="1" fill="none" fill-rule="evenodd" stroke-linecap="round" stroke-linejoin="round">
        <g id="Basic-Users" transform="translate(-792, -234)" fill-rule="nonzero" stroke="CURRENTCOLOR">
            <g id="User-remove" transform="translate(772, 166)" xlink:href="#path-1">
                <g id="Icon/User-remove/Linear" transform="translate(20, 68)" xlink:href="#path-2">
                    <path d="M17,7 C17,9.76142383 14.7614238,12 12,12 C9.23857617,12 7,9.76142383 7,7 C7,4.23857617 9.23857617,2 12,2 C14.7614238,2 17,4.23857617 17,7 Z" id="Vector" stroke-width="1.5" fill-rule="nonzero"></path>
                    <path d="M3.40997314,22 C3.40997314,18.1300001 7.26000023,15 12,15 C12.96,15 13.8900098,15.1299951 14.7600098,15.3699951" id="Vector" stroke-width="1.5" fill-rule="nonzero"></path>
                    <g id="Group-761" fill-rule="evenodd" stroke-width="1" transform="translate(14, 14)">
                        <path d="M8,4 C8,4.31999999 7.96000488,4.62999266 7.88000488,4.92999268 C7.79000488,5.32999268 7.63001342,5.71999756 7.42001343,6.05999756 C6.73001343,7.21999753 5.46000004,8 4,8 C2.97000003,8 2.03999633,7.60997069 1.33999634,6.9699707 C1.03999633,6.70997071 0.779986575,6.39999756 0.579986572,6.05999756 C0.209986567,5.45999753 0,4.75 0,4 C0,2.91999996 0.430004895,1.930022 1.13000488,1.21002197 C1.8600049,0.460021973 2.88,0 4,0 C5.17999995,0 6.25000119,0.510017097 6.97000122,1.33001709 C7.61000121,2.04001707 8,2.98000002 8,4 Z" id="Vector" stroke-width="1.5" fill-rule="nonzero"></path>
                        <g id="Group" transform="translate(2.9199, 2.9399)" fill-rule="nonzero" stroke-width="1.5">
                            <line x1="2.10998535" y1="0" x2="0" y2="2.10998535" id="Vector"></line>
                            <line x1="0.0199890137" y1="0.0200195312" x2="2.13998413" y2="2.13000488" id="Vector"></line>
                        </g>
                    </g>
                </g>
            </g>
        </g>
    </g>
</svg>