<?xml version="1.0" encoding="UTF-8"?>
<svg width="24px" height="24px" viewBox="0 0 24 24" version="1.1" xmlns="http://www.w3.org/2000/svg" xmlns:xlink="http://www.w3.org/1999/xlink">
    <title>Icon/User-remove/Outline</title>
    <defs>
        <path d="M5,0 L59,0 C61.7614237,-8.8817842e-16 64,2.23857625 64,5 L64,203 C64,205.761424 61.7614237,208 59,208 L5,208 C2.23857625,208 0,205.761424 0,203 L0,5 C0,2.23857625 2.23857625,0 5,0 Z" id="path-1"></path>
        <path d="M0,0 L24,0 L24,24 L0,24 L0,0 Z" id="path-2"></path>
    </defs>
    <g id="Icons" stroke="none" stroke-width="1" fill="none" fill-rule="evenodd">
        <g id="Basic-Users" transform="translate(-792, -186)" fill="CURRENTCOLOR" fill-rule="nonzero">
            <g id="User-remove" transform="translate(772, 166)" xlink:href="#path-1">
                <g id="Icon/User-remove/Outline" transform="translate(20, 20)" xlink:href="#path-2">
                    <path d="M12,12.75 C8.82999992,12.75 6.25,10.1700001 6.25,7 C6.25,3.82999992 8.82999992,1.25 12,1.25 C15.1700001,1.25 17.75,3.82999992 17.75,7 C17.75,10.1700001 15.1700001,12.75 12,12.75 Z M12,2.75 C9.66000009,2.75 7.75,4.66000009 7.75,7 C7.75,9.33999991 9.66000009,11.25 12,11.25 C14.3399999,11.25 16.25,9.33999991 16.25,7 C16.25,4.66000009 14.3399999,2.75 12,2.75 Z" id="Vector" fill-rule="nonzero"></path>
                    <path d="M3.41015625,22.75 C3.00015625,22.75 2.66015625,22.41 2.66015625,22 C2.66015625,17.73 6.85018301,14.25 12.0001831,14.25 C13.0101831,14.25 14.0002051,14.3800244 14.9602051,14.6500244 C15.3602051,14.7600244 15.5901636,15.1700073 15.4801636,15.5700073 C15.3701636,15.9700073 14.9601807,16.2000269 14.5601807,16.0900269 C13.7401807,15.8600269 12.8801831,15.75 12.0001831,15.75 C7.68018293,15.75 4.16015625,18.55 4.16015625,22 C4.16015625,22.41 3.82015625,22.75 3.41015625,22.75 Z" id="Vector" fill-rule="nonzero"></path>
                    <g id="Group-761" fill-rule="evenodd" stroke-width="1" transform="translate(13.25, 13.25)">
                        <path d="M8,4.75 C8,3.92393154 7.68467033,3.16066551 7.16308594,2.58203125 L7.15625,2.57519531 C6.57700866,1.9155038 5.71170574,1.5 4.75,1.5 C3.83896482,1.5 3.01042855,1.87370354 2.41699219,2.48339844 C1.84912521,3.06783044 1.5,3.87175715 1.5,4.75 C1.5,5.28327256 1.63008212,5.78964782 1.86230469,6.23144531 L1.96875,6.41601563 L1.9765625,6.4296875 C2.09475324,6.6306076 2.24034266,6.82031266 2.40722656,6.99023437 L2.58105469,7.15332031 L2.59570313,7.16601562 C3.16252905,7.68425643 3.91406018,8 4.75,8 C5.93581641,8 6.96556234,7.36780357 7.52539062,6.42675781 L7.53222656,6.41601563 C7.69845006,6.14688161 7.82668664,5.83439711 7.8984375,5.515625 L7.90527344,5.48632813 C7.9678849,5.2514019 8,5.00663641 8,4.75 Z M9.5,4.75 C9.5,5.12308893 9.45255969,5.48792678 9.36035156,5.84375 L9.36132813,5.84472656 C9.25308555,6.32571036 9.06221882,6.79341263 8.80859375,7.20410156 L8.80761719,7.203125 C7.98605031,8.57635176 6.47982776,9.5 4.75,9.5 C3.53294802,9.5 2.43017,9.04014367 1.59863281,8.28613281 C1.24284303,7.97770861 0.933564767,7.60970926 0.692382813,7.203125 C0.250256479,6.48614508 0,5.64059108 0,4.75 C0,3.46857893 0.511025369,2.29203582 1.34277344,1.43652344 C2.20931703,0.546398282 3.42118669,0 4.75,0 C6.14470243,0 7.41570115,0.602259874 8.27636719,1.578125 L8.27734375,1.578125 C9.03561008,2.41945851 9.5,3.53620303 9.5,4.75 Z" id="Vector-(Stroke)" fill-rule="nonzero"></path>
                        <path d="M5.25,3.15966803 C5.54290801,2.86695799 6.01771471,2.86683586 6.31054687,3.15966803 C6.60319605,3.45251498 6.60319605,3.92736802 6.31054687,4.22021496 L4.20019543,6.33056641 C3.90734848,6.62321559 3.43249545,6.62321559 3.1396485,6.33056641 C2.84681633,6.03773424 2.84693846,5.56292754 3.1396485,5.27001953 L5.25,3.15966803 Z" id="Vector-(Stroke)" fill-rule="nonzero"></path>
                        <path d="M3.1586608,3.18066397 C3.45088321,2.88735667 3.92571515,2.8866041 4.21920764,3.17871085 L6.33932495,5.28808594 C6.63284588,5.5802587 6.63337716,6.05505207 6.34127808,6.34863281 C6.04907876,6.64221832 5.57431671,6.64376181 5.2807312,6.3515625 L3.16061392,4.24121082 C2.86730662,3.94898841 2.86655405,3.47415647 3.1586608,3.18066397 Z" id="Vector-(Stroke)" fill-rule="nonzero"></path>
                    </g>
                </g>
            </g>
        </g>
    </g>
</svg>