<?xml version="1.0" encoding="UTF-8"?>
<svg width="24px" height="24px" viewBox="0 0 24 24" version="1.1" xmlns="http://www.w3.org/2000/svg" xmlns:xlink="http://www.w3.org/1999/xlink">
    <title>Icon/User-remove/Bold</title>
    <defs>
        <path d="M5,0 L59,0 C61.7614237,-8.8817842e-16 64,2.23857625 64,5 L64,203 C64,205.761424 61.7614237,208 59,208 L5,208 C2.23857625,208 0,205.761424 0,203 L0,5 C0,2.23857625 2.23857625,0 5,0 Z" id="path-1"></path>
        <path d="M0,0 L24,0 L24,24 L0,24 L0,0 Z" id="path-2"></path>
    </defs>
    <g id="Icons" stroke="none" stroke-width="1" fill="none" fill-rule="evenodd">
        <g id="Basic-Users" transform="translate(-792, -282)" fill="CURRENTCOLOR" fill-rule="nonzero">
            <g id="User-remove" transform="translate(772, 166)" xlink:href="#path-1">
                <g id="Icon/User-remove/Bold" transform="translate(20, 116)" xlink:href="#path-2">
                    <path d="M11.8,17 C11.8,15.9 12.1000001,14.9000004 12.6000001,14.1000004 C12.3000001,14.1000004 11.9000002,14.1000004 11.6000001,14.1000004 C6.50000024,14.1000004 2.39999991,17.499999 2.49999991,21.7999992 C2.49999991,21.9999992 2.7,22.1000004 2.90000001,22.1000004 L14.6999996,22.1000004 C12.9999995,21.1000004 11.8,19.2000003 11.8,17.1000004 L11.8,17 Z" id="Vector"></path>
                    <path d="M21.330503,15.9439304 C21.230503,15.5539304 21.070492,15.1639256 20.850492,14.8139256 C20.700492,14.5539256 20.5004847,14.3039354 20.2804847,14.0739354 C19.5604846,13.3539354 18.6204895,12.9639622 17.6604896,12.9139622 C16.5704895,12.8439622 15.4605114,13.2439354 14.6205114,14.0739354 C13.8305114,14.8639354 13.430498,15.9139502 13.450498,16.9639502 C13.460498,17.9639502 13.8605114,18.9639697 14.6205114,19.7339697 C15.1505114,20.2639697 15.8005067,20.6139477 16.4905066,20.7739477 C16.8705066,20.8739477 17.2704993,20.9139331 17.6704993,20.8839331 C18.6204993,20.8439331 19.5504847,20.4639697 20.2804847,19.7339697 C21.3104846,18.7039697 21.660503,17.2539303 21.330503,15.9439304 Z M19.0505042,18.5039282 C18.7605042,18.7939282 18.2805066,18.7939282 17.9905066,18.5039282 L17.4404883,17.9539404 L16.9104896,18.4839697 C16.6204896,18.7739697 16.140492,18.7739697 15.850492,18.4839697 C15.560492,18.1839697 15.560492,17.7139721 15.850492,17.4239721 L16.3804908,16.8939426 L15.8705115,16.3939426 C15.5805115,16.0939426 15.5805115,15.6239353 15.8705115,15.3239353 C16.1705115,15.0339353 16.6404883,15.0339353 16.9404883,15.3239353 L17.4404883,15.833945 L17.9704871,15.3039768 C18.2604871,15.0139768 18.7304847,15.0139768 19.0304847,15.3039768 C19.3204847,15.5939768 19.3204847,16.0739743 19.0304847,16.3639743 L18.5004859,16.8939426 L19.0505042,17.4439306 C19.3405042,17.7339306 19.3405042,18.2139282 19.0505042,18.5039282 Z" id="Vector"></path>
                    <path d="M11.5,12 C14.3,12 16.5,9.79999995 16.5,7 C16.5,4.20000005 14.3,2 11.5,2 C8.70000005,2 6.5,4.20000005 6.5,7 C6.5,9.79999995 8.70000005,12 11.5,12 Z" id="Vector"></path>
                </g>
            </g>
        </g>
    </g>
</svg>