<?xml version="1.0" encoding="UTF-8"?>
<svg width="24px" height="24px" viewBox="0 0 24 24" version="1.1" xmlns="http://www.w3.org/2000/svg" xmlns:xlink="http://www.w3.org/1999/xlink">
    <title>Icon/User-remove/Bulk</title>
    <defs>
        <path d="M5,0 L59,0 C61.7614237,-8.8817842e-16 64,2.23857625 64,5 L64,203 C64,205.761424 61.7614237,208 59,208 L5,208 C2.23857625,208 0,205.761424 0,203 L0,5 C0,2.23857625 2.23857625,0 5,0 Z" id="path-1"></path>
        <path d="M0,0 L24,0 L24,24 L0,24 L0,0 Z" id="path-2"></path>
    </defs>
    <g id="Icons" stroke="none" stroke-width="1" fill="none" fill-rule="evenodd">
        <g id="Basic-Users" transform="translate(-792, -330)" fill="CURRENTCOLOR" fill-rule="nonzero">
            <g id="User-remove" transform="translate(772, 166)" xlink:href="#path-1">
                <g id="Icon/User-remove/Bulk" transform="translate(20, 164)" xlink:href="#path-2">
                    <path d="M21.8803077,16.044028 C21.7803077,15.6540281 21.6202967,15.2640233 21.4002967,14.9140233 C21.2502967,14.6540233 21.0502894,14.404033 20.8302894,14.174033 C20.1102893,13.454033 19.1702942,13.0640599 18.2102942,13.0140599 C17.1202942,12.9440599 16.0103161,13.3440331 15.1703161,14.174033 C14.3803161,14.9640331 13.9803027,16.0140479 14.0003027,17.0640478 C14.0103027,18.0640478 14.4103161,19.0640674 15.1703161,19.8340673 C15.7003161,20.3640673 16.3503113,20.7140454 17.0403113,20.8740454 C17.4203113,20.9740454 17.820304,21.0140307 18.220304,20.9840307 C19.170304,20.9440307 20.1002893,20.5640674 20.8302894,19.8340673 C21.8602893,18.8040674 22.2103077,17.354028 21.8803077,16.044028 Z M19.6003089,18.6040258 C19.3103089,18.8940258 18.8303113,18.8940258 18.5403113,18.6040258 L17.990293,18.054038 L17.4602942,18.5840673 C17.1702943,18.8740673 16.6902967,18.8740673 16.4002967,18.5840673 C16.1102967,18.2840673 16.1102967,17.8140698 16.4002967,17.5240698 L16.9302955,16.9940403 L16.4203162,16.4940403 C16.1303162,16.1940402 16.1303162,15.7240329 16.4203162,15.4240329 C16.7203162,15.1340329 17.190293,15.1340329 17.490293,15.4240329 L17.990293,15.9340427 L18.5202918,15.4040744 C18.8102918,15.1140744 19.2802894,15.1140744 19.5802894,15.4040744 C19.8702894,15.6940744 19.8702894,16.174072 19.5802894,16.464072 L19.0502906,16.9940403 L19.6003089,17.5440283 C19.8903089,17.8340283 19.8903089,18.3140258 19.6003089,18.6040258 Z" id="Vector"></path>
                    <path d="M21.0900269,21.5 C21.0900269,21.78 20.8700269,22 20.5900269,22 L3.40997314,22 C3.12997314,22 2.90997314,21.78 2.90997314,21.5 C2.90997314,17.3600001 6.98999977,14 12,14 C13.03,14 14.0300122,14.1399731 14.9500122,14.4099731 C14.3600122,15.1099731 14,16.02 14,17 C14,17.75 14.2100171,18.4599975 14.5800171,19.0599976 C14.7800171,19.3999976 15.0400268,19.7099707 15.3400269,19.9699707 C16.0400268,20.6099707 16.97,21 18,21 C19.12,21 20.1299756,20.5399878 20.8499756,19.7999878 C21.0099756,20.3399878 21.0900269,20.91 21.0900269,21.5 Z" id="Vector" opacity="0.400000006"></path>
                    <path d="M17,7 C17,9.76142383 14.7614238,12 12,12 C9.23857617,12 7,9.76142383 7,7 C7,4.23857617 9.23857617,2 12,2 C14.7614238,2 17,4.23857617 17,7 Z" id="Vector"></path>
                </g>
            </g>
        </g>
    </g>
</svg>