<?xml version="1.0" encoding="UTF-8"?>
<svg width="24px" height="24px" viewBox="0 0 24 24" version="1.1" xmlns="http://www.w3.org/2000/svg" xmlns:xlink="http://www.w3.org/1999/xlink">
    <title>Icon/Camera/Outline</title>
    <defs>
        <path d="M5,0 L59,0 C61.7614237,-8.8817842e-16 64,2.23857625 64,5 L64,203 C64,205.761424 61.7614237,208 59,208 L5,208 C2.23857625,208 0,205.761424 0,203 L0,5 C0,2.23857625 2.23857625,0 5,0 Z" id="path-1"></path>
        <path d="M0,0 L24,0 L24,24 L0,24 L0,0 Z" id="path-2"></path>
    </defs>
    <g id="Icons" stroke="none" stroke-width="1" fill="none" fill-rule="evenodd">
        <g id="Video,-Audio" transform="translate(-272, -186)" fill="CURRENTCOLOR" fill-rule="nonzero">
            <g id="camera" transform="translate(252, 166)" xlink:href="#path-1">
                <g id="Icon/Camera/Outline" transform="translate(20, 20)" xlink:href="#path-2">
                    <path d="M15.75,13.5 C15.75,15.5710678 14.0710678,17.25 12,17.25 C9.92893217,17.25 8.25,15.5710678 8.25,13.5 C8.25,11.4289322 9.92893217,9.75 12,9.75 C14.0710678,9.75 15.75,11.4289322 15.75,13.5 Z M9.75,13.5 C9.75,14.7426407 10.7573593,15.75 12,15.75 C13.2426407,15.75 14.25,14.7426407 14.25,13.5 C14.25,12.2573593 13.2426407,11.25 12,11.25 C10.7573593,11.25 9.75,12.2573593 9.75,13.5 Z" id="Vector"></path>
                    <path d="M16.2177705,3.47457441 L17.4013878,5.25 L18,5.25 C20.6233524,5.25 22.75,7.37664757 22.75,10 L22.75,17 C22.75,19.6233524 20.6233524,21.75 18,21.75 L6,21.75 C3.3766474,21.75 1.25,19.6233525 1.25,17 L1.25,10 C1.25,7.37664757 3.37664757,5.25 6,5.25 L6.5986122,5.25 L7.78222945,3.4745741 C8.29226042,2.70952781 9.15089647,2.25 10.0703678,2.25 L13.9296322,2.25 C14.8491038,2.25 15.7077395,2.70952797 16.2177705,3.47457441 Z M7,6.75 L6,6.75 C4.20507469,6.75 2.75,8.20507469 2.75,10 L2.75,17 C2.75,18.7949254 4.20507454,20.25 6,20.25 L18,20.25 C19.7949253,20.25 21.25,18.7949253 21.25,17 L21.25,10 C21.25,8.20507469 19.7949253,6.75 18,6.75 L17,6.75 C16.7492351,6.75 16.5150617,6.62467417 16.3759623,6.4160252 L14.9696952,4.30662482 C14.7378627,3.95887625 14.347574,3.75 13.9296322,3.75 L10.0703678,3.75 C9.65242609,3.75 9.26213704,3.95887624 9.03030486,4.30662447 L7.62403772,6.41602516 C7.48493839,6.62467415 7.25076489,6.75 7,6.75 Z" id="Vector"></path>
                    <circle id="Ellipse-352" cx="12" cy="6" r="1"></circle>
                </g>
            </g>
        </g>
    </g>
</svg>