<?xml version="1.0" encoding="UTF-8"?>
<svg width="24px" height="24px" viewBox="0 0 24 24" version="1.1" xmlns="http://www.w3.org/2000/svg" xmlns:xlink="http://www.w3.org/1999/xlink">
    <title>Icon/Camera/Linear</title>
    <defs>
        <path d="M5,0 L59,0 C61.7614237,-8.8817842e-16 64,2.23857625 64,5 L64,203 C64,205.761424 61.7614237,208 59,208 L5,208 C2.23857625,208 0,205.761424 0,203 L0,5 C0,2.23857625 2.23857625,0 5,0 Z" id="path-1"></path>
        <path d="M0,0 L24,0 L24,24 L0,24 L0,0 Z" id="path-2"></path>
    </defs>
    <g id="Icons" stroke="none" stroke-width="1" fill="none" fill-rule="evenodd">
        <g id="Video,-Audio" transform="translate(-272, -234)" fill-rule="nonzero">
            <g id="camera" transform="translate(252, 166)" xlink:href="#path-1">
                <g id="Icon/Camera/Linear" transform="translate(20, 68)" xlink:href="#path-2">
                    <path d="M15,13.5 C15,15.1568543 13.6568543,16.5 12,16.5 C10.3431457,16.5 9,15.1568543 9,13.5 C9,11.8431457 10.3431457,10.5 12,10.5 C13.6568543,10.5 15,11.8431457 15,13.5 Z" id="Vector" stroke="CURRENTCOLOR" stroke-width="1.5"></path>
                    <path d="M8.40626717,3.89059925 L7,6 L6,6 C3.79086113,6 2,7.79086113 2,10 L2,17 C2,19.2091389 3.79086089,21 6,21 L18,21 C20.2091389,21 22,19.2091389 22,17 L22,10 C22,7.79086113 20.2091389,6 18,6 L17,6 L15.5937328,3.89059961 C15.2228012,3.33420229 14.5983391,3 13.9296322,3 L10.0703678,3 C9.4016614,3 8.77719879,3.33420193 8.40626717,3.89059925 Z" id="Vector" stroke="CURRENTCOLOR" stroke-width="1.5" stroke-linejoin="round"></path>
                    <circle id="Ellipse-352" fill="CURRENTCOLOR" cx="12" cy="6" r="1"></circle>
                </g>
            </g>
        </g>
    </g>
</svg>