<?xml version="1.0" encoding="UTF-8"?>
<svg width="24px" height="24px" viewBox="0 0 24 24" version="1.1" xmlns="http://www.w3.org/2000/svg" xmlns:xlink="http://www.w3.org/1999/xlink">
    <title>Icon/Camera/Bulk</title>
    <defs>
        <path d="M5,0 L59,0 C61.7614237,-8.8817842e-16 64,2.23857625 64,5 L64,203 C64,205.761424 61.7614237,208 59,208 L5,208 C2.23857625,208 0,205.761424 0,203 L0,5 C0,2.23857625 2.23857625,0 5,0 Z" id="path-1"></path>
        <path d="M0,0 L24,0 L24,24 L0,24 L0,0 Z" id="path-2"></path>
    </defs>
    <g id="Icons" stroke="none" stroke-width="1" fill="none" fill-rule="evenodd">
        <g id="Video,-Audio" transform="translate(-272, -330)" fill="CURRENTCOLOR" fill-rule="nonzero">
            <g id="camera" transform="translate(252, 166)" xlink:href="#path-1">
                <g id="Icon/Camera/Bulk" transform="translate(20, 164)" xlink:href="#path-2">
                    <path d="M7,6 L8.40626717,3.89059925 C8.77719867,3.33420193 9.4016614,3 10.0703678,3 L13.9296322,3 C14.5983386,3 15.2228012,3.33420229 15.5937328,3.89059961 L17,6 L18,6 C20.2091389,6 22,7.79086113 22,10 L22,17 C22,19.2091389 20.2091389,21 18,21 L6,21 C3.79086089,21 2,19.2091389 2,17 L2,10 C2,7.79086113 3.79086113,6 6,6 L7,6 Z" id="Vector" opacity="0.400000006"></path>
                    <path d="M15,13.5 C15,15.1568543 13.6568543,16.5 12,16.5 C10.3431457,16.5 9,15.1568543 9,13.5 C9,11.8431457 10.3431457,10.5 12,10.5 C13.6568543,10.5 15,11.8431457 15,13.5 Z" id="Ellipse-350"></path>
                    <circle id="Ellipse-352" cx="12" cy="6" r="1"></circle>
                </g>
            </g>
        </g>
    </g>
</svg>