<?xml version="1.0" encoding="UTF-8"?>
<svg width="24px" height="24px" viewBox="0 0 24 24" version="1.1" xmlns="http://www.w3.org/2000/svg" xmlns:xlink="http://www.w3.org/1999/xlink">
    <title>Icon/Sun3/Bulk</title>
    <defs>
        <path d="M5,0 L59,0 C61.7614237,-8.8817842e-16 64,2.23857625 64,5 L64,203 C64,205.761424 61.7614237,208 59,208 L5,208 C2.23857625,208 0,205.761424 0,203 L0,5 C0,2.23857625 2.23857625,0 5,0 Z" id="path-1"></path>
        <path d="M0,0 L24,0 L24,24 L0,24 L0,0 Z" id="path-2"></path>
    </defs>
    <g id="Icons" stroke="none" stroke-width="1" fill="none" fill-rule="evenodd">
        <g id="Weather" transform="translate(-272, -330)" fill-rule="nonzero">
            <g id="sun-3" transform="translate(252, 166)" xlink:href="#path-1">
                <g id="Icon/Sun3/Bulk" transform="translate(20, 164)" xlink:href="#path-2">
                    <use fill="#FFFFFF" fill-rule="evenodd" xlink:href="#path-2"></use>
                    <path d="M16.75,11.75 C16.75,14.5114236 14.5114236,16.75 11.75,16.75 C8.98857617,16.75 6.75,14.5114236 6.75,11.75 C6.75,8.98857617 8.98857617,6.75 11.75,6.75 C14.5114236,6.75 16.75,8.98857617 16.75,11.75 Z" id="Icon" fill-opacity="0.4" fill="CURRENTCOLOR" fill-rule="nonzero"></path>
                    <path d="M11.75,5.5 C12.161962,5.49461412 12.4946142,5.16196203 12.5,4.75 L12.5,1.75 C12.5,1.33578643 12.1642135,1 11.75,1 C11.3357864,1 11,1.33578643 11,1.75 L11,4.75 C11.0053858,5.16196203 11.3380379,5.49461412 11.75,5.5 Z" id="Icon" fill="CURRENTCOLOR" fill-rule="nonzero"></path>
                    <path d="M11.75,18 C11.3380379,18.0053858 11.0053858,18.3380379 11,18.75 L11,21.75 C11,22.1642137 11.3357865,22.5 11.75,22.5 C12.1642135,22.5 12.5,22.1642137 12.5,21.75 L12.5,18.75 C12.4946142,18.3380379 12.161962,18.0053858 11.75,18 Z" id="Icon" fill="CURRENTCOLOR" fill-rule="nonzero"></path>
                    <path d="M6.2699995,7.3300004 C6.5628171,7.62245369 7.03718162,7.62245369 7.32999897,7.3300004 C7.6224525,7.03718281 7.6224525,6.56281805 7.32999897,6.27000046 L5.21000004,4.1500001 C5.02302945,3.94934689 4.74144423,3.86675077 4.47571087,3.93461442 C4.20997757,4.00247807 4.00247805,4.20997772 3.93461442,4.47571111 C3.86675079,4.74144453 3.94934696,5.02302945 4.1500001,5.21000004 L6.2699995,7.3300004 Z" id="Icon" fill="CURRENTCOLOR" fill-rule="nonzero"></path>
                    <path d="M17.2299995,16.1700001 C16.9344898,15.8946412 16.4739904,15.9027662 16.1883783,16.1883783 C15.9027663,16.4739904 15.8946413,16.9344916 16.1700001,17.2300014 L18.2900009,19.3500004 C18.4298849,19.4916368 18.6209333,19.5709414 18.8199997,19.5700016 C19.0192909,19.5720923 19.210773,19.4926085 19.3500004,19.3500004 C19.6424539,19.0571828 19.6424539,18.5828185 19.3500004,18.2900009 L17.2299995,16.1700001 Z" id="Icon" fill="CURRENTCOLOR" fill-rule="nonzero"></path>
                    <path d="M5.5,11.75 C5.49461412,11.3380379 5.16196203,11.0053858 4.75,11 L1.74999994,11 C1.3357864,11 1,11.3357865 1,11.75 C1,12.1642135 1.3357864,12.5 1.74999994,12.5 L4.75,12.5 C5.16196203,12.4946142 5.49461412,12.161962 5.5,11.75 Z" id="Icon" fill="CURRENTCOLOR" fill-rule="nonzero"></path>
                    <path d="M21.75,11 L18.75,11 C18.3357864,11 18,11.3357864 18,11.75 C18,12.1642135 18.3357864,12.5 18.75,12.5 L21.75,12.5 C22.1642137,12.5 22.5,12.1642135 22.5,11.75 C22.5,11.3357864 22.1642137,11 21.75,11 Z" id="Icon" fill="CURRENTCOLOR" fill-rule="nonzero"></path>
                    <path d="M6.26999855,16.1700001 L4.14999819,18.2900009 C3.85754478,18.5828185 3.85754478,19.0571828 4.14999819,19.3500004 C4.28922579,19.4926085 4.48070687,19.5720923 4.67999816,19.5700016 C4.87906468,19.5709414 5.07011425,19.4916368 5.20999813,19.3500004 L7.32999897,17.2300014 C7.60535789,16.9344916 7.59723282,16.4739904 7.31162071,16.1883783 C7.02600861,15.9027662 6.56550837,15.8946412 6.26999855,16.1700001 Z" id="Icon" fill="CURRENTCOLOR" fill-rule="nonzero"></path>
                    <path d="M16.75,7.55000019 C16.9490665,7.55094004 17.1401149,7.47163653 17.2799988,7.3300004 L19.3500004,5.21000004 C19.5506537,5.02302945 19.6332495,4.74144453 19.5653858,4.47571111 C19.4975221,4.20997772 19.2900217,4.00247807 19.0242882,3.93461442 C18.7585549,3.86675077 18.4769697,3.94934689 18.289999,4.1500001 L16.1700001,6.27000046 C15.8775467,6.56281805 15.8775467,7.03718281 16.1700001,7.3300004 C16.321783,7.48473835 16.5337769,7.56514978 16.75,7.55000019 Z" id="Icon" fill="CURRENTCOLOR" fill-rule="nonzero"></path>
                </g>
            </g>
        </g>
    </g>
</svg>