<?xml version="1.0" encoding="UTF-8"?>
<svg width="24px" height="24px" viewBox="0 0 24 24" version="1.1" xmlns="http://www.w3.org/2000/svg" xmlns:xlink="http://www.w3.org/1999/xlink">
    <title>Icon/Sun3/Linear</title>
    <defs>
        <path d="M5,0 L59,0 C61.7614237,-8.8817842e-16 64,2.23857625 64,5 L64,203 C64,205.761424 61.7614237,208 59,208 L5,208 C2.23857625,208 0,205.761424 0,203 L0,5 C0,2.23857625 2.23857625,0 5,0 Z" id="path-1"></path>
        <path d="M0,0 L24,0 L24,24 L0,24 L0,0 Z" id="path-2"></path>
    </defs>
    <g id="Icons" stroke="none" stroke-width="1" fill="none" fill-rule="evenodd">
        <g id="Weather" transform="translate(-272, -234)" fill-rule="nonzero">
            <g id="sun-3" transform="translate(252, 166)" xlink:href="#path-1">
                <g id="Icon/Sun3/Linear" transform="translate(20, 68)" xlink:href="#path-2">
                    <use fill="#FFFFFF" fill-rule="evenodd" xlink:href="#path-2"></use>
                    <path d="M16,11.75 C16,14.09721 14.09721,16 11.75,16 C9.40278982,16 7.5,14.0972101 7.5,11.75 C7.5,9.40278974 9.40278974,7.5 11.75,7.5 C14.0972101,7.5 16,9.40278982 16,11.75 Z" id="Icon" stroke="CURRENTCOLOR" stroke-width="1.5" fill-rule="nonzero"></path>
                    <path d="M11.75,4.75 C11.7499987,4.74914886 11.7498326,4.74862797 11.7495244,4.74834471 C11.7497129,4.74819217 11.7498718,4.74803052 11.75,4.74785866 Z M11.75,4.74125051 C11.7499639,4.74090426 11.7499406,4.74055222 11.7499359,4.74019566 L11.75,1.75000001 Z" id="Icon" stroke="CURRENTCOLOR" stroke-width="1.5" fill-rule="nonzero"></path>
                    <path d="M11.7504756,18.7516553 C11.7502934,18.7518027 11.7501387,18.7519587 11.7500139,18.7521246 L11.75,18.75 C11.7500013,18.7508511 11.7501674,18.751372 11.7504756,18.7516553 Z" id="Icon" stroke="CURRENTCOLOR" stroke-width="1.5" fill-rule="nonzero"></path>
                    <path d="" id="Icon" stroke="CURRENTCOLOR" stroke-width="1.5" fill-rule="nonzero"></path>
                    <path d="M18.821834,18.8211938 L18.8213526,18.8207124 C18.8215224,18.8206847 18.8217006,18.8206552 18.8218865,18.8206248 C18.8217015,18.8207833 18.8217073,18.8209736 18.821834,18.8211938 Z" id="Icon" stroke="CURRENTCOLOR" stroke-width="1.5" fill-rule="nonzero"></path>
                    <path d="M4.74019577,11.7500641 L1.74999994,11.75 L4.74120598,11.75 C4.74087399,11.7500381 4.74053694,11.7500596 4.74019577,11.7500641 Z" id="Icon" stroke="CURRENTCOLOR" stroke-width="1.5" fill-rule="nonzero"></path>
                    <path d="" id="Icon" stroke="CURRENTCOLOR" stroke-width="1.5" fill-rule="nonzero"></path>
                    <path d="M4.68102102,18.8203682 C4.680974,18.8203206 4.68093438,18.8202805 4.68089988,18.8202456 C4.68109394,18.8202173 4.6813013,18.8201876 4.68151886,18.8201592 C4.68128924,18.8202136 4.68112416,18.820283 4.68102102,18.8203682 Z M4.68353907,18.82001 C4.68345327,18.8200096 4.68336759,18.8200103 4.68328216,18.820012 C4.68335984,18.8200097 4.68344815,18.8200096 4.68353907,18.82001 Z" id="Icon" stroke="CURRENTCOLOR" stroke-width="1.5" fill-rule="nonzero"></path>
                    <path d="M16.7491324,6.80014643 C16.7043841,6.80157402 16.7033035,6.80260713 16.7049716,6.80435641 C16.70066,6.80000041 16.7006601,6.80000045 16.7006601,6.80000039 L18.8107713,4.68988798 Z M16.7529406,6.80002732 C16.7531409,6.80001267 16.7533406,6.8000076 16.7535409,6.80000855 C16.7533341,6.80001487 16.7531281,6.80002119 16.7529406,6.80002732 Z M18.8387076,4.66129169 C18.8387079,4.66129178 18.8387082,4.66129195 18.8387084,4.66129202 L18.8386029,4.66140005 C18.8387075,4.66129166 18.8387075,4.66129165 18.8387074,4.66129165 Z" id="Icon" stroke="CURRENTCOLOR" stroke-width="1.5" fill-rule="nonzero"></path>
                </g>
            </g>
        </g>
    </g>
</svg>