<?xml version="1.0" encoding="UTF-8"?>
<svg width="24px" height="24px" viewBox="0 0 24 24" version="1.1" xmlns="http://www.w3.org/2000/svg" xmlns:xlink="http://www.w3.org/1999/xlink">
    <title>Icon/Moon/Outline</title>
    <defs>
        <path d="M5,0 L59,0 C61.7614237,-8.8817842e-16 64,2.23857625 64,5 L64,203 C64,205.761424 61.7614237,208 59,208 L5,208 C2.23857625,208 0,205.761424 0,203 L0,5 C0,2.23857625 2.23857625,0 5,0 Z" id="path-1"></path>
        <path d="M0,0 L24,0 L24,24 L0,24 L0,0 Z" id="path-2"></path>
    </defs>
    <g id="Icons" stroke="none" stroke-width="1" fill="none" fill-rule="evenodd">
        <g id="Weather" transform="translate(-480, -186)" fill="CURRENTCOLOR" fill-rule="nonzero">
            <g id="Moon" transform="translate(460, 166)" xlink:href="#path-1">
                <g id="Icon/Moon/Outline" transform="translate(20, 20)" xlink:href="#path-2">
                    <path d="M13.2084837,22.5020676 C13.0384837,22.5020676 12.8684835,22.5020676 12.6984835,22.4920673 C7.09848356,22.2420673 2.41848337,17.7320671 2.02848338,12.2320671 C1.68848338,7.51206732 4.41848278,3.10206762 8.81848288,1.2520676 C10.0684829,0.732067615 10.7284839,1.13206756 11.0084839,1.42206755 C11.2884839,1.70206755 11.6784835,2.35206747 11.1584835,3.54206753 C10.6984835,4.60206747 10.4684832,5.73206747 10.4784832,6.89206743 C10.4984832,11.3220673 14.178484,15.0820678 18.6684837,15.2620678 C19.3184837,15.2920678 19.9584836,15.2420677 20.5784836,15.1320677 C21.8984836,14.8920677 22.4484835,15.4220678 22.6584835,15.7620678 C22.8684835,16.1020678 23.1084831,16.8320674 22.3084831,17.9120674 C20.1884832,20.8120675 16.8184836,22.5020676 13.2084837,22.5020676 Z M3.5184834,12.1220675 C3.8584834,16.8820677 7.91848373,20.7820673 12.7584839,20.9920673 C16.0484838,21.1520673 19.1684839,19.6520681 21.0884838,17.0320683 C21.2384838,16.8220683 21.3084838,16.6720677 21.3384838,16.5920677 C21.2484838,16.5820677 21.0884838,16.5720684 20.8384838,16.6220684 C20.1084838,16.7520684 19.348484,16.802068 18.598484,16.772068 C13.3184838,16.562068 8.99848345,12.1320672 8.96848345,6.91206741 C8.96848345,5.53206742 9.23848313,4.20206761 9.78848314,2.95206761 C9.88848314,2.73206761 9.90848326,2.58206756 9.91848326,2.50206757 C9.82848325,2.50206757 9.66848302,2.52206768 9.40848303,2.63206768 C5.59848309,4.2320677 3.2384834,8.05206728 3.5184834,12.1220675 Z" id="Vector"></path>
                </g>
            </g>
        </g>
    </g>
</svg>