<?xml version="1.0" encoding="UTF-8"?>
<svg width="24px" height="24px" viewBox="0 0 24 24" version="1.1" xmlns="http://www.w3.org/2000/svg" xmlns:xlink="http://www.w3.org/1999/xlink">
    <title>Icon/Moon/Bold</title>
    <defs>
        <path d="M5,0 L59,0 C61.7614237,-8.8817842e-16 64,2.23857625 64,5 L64,203 C64,205.761424 61.7614237,208 59,208 L5,208 C2.23857625,208 0,205.761424 0,203 L0,5 C0,2.23857625 2.23857625,0 5,0 Z" id="path-1"></path>
        <path d="M0,0 L24,0 L24,24 L0,24 L0,0 Z" id="path-2"></path>
    </defs>
    <g id="Icons" stroke="none" stroke-width="1" fill="none" fill-rule="evenodd">
        <g id="Weather" transform="translate(-480, -282)" fill="CURRENTCOLOR" fill-rule="nonzero">
            <g id="Moon" transform="translate(460, 166)" xlink:href="#path-1">
                <g id="Icon/Moon/Bold" transform="translate(20, 116)" xlink:href="#path-2">
                    <path d="M21.2240448,15.9293842 C21.0640448,15.6593842 20.6140434,15.2393835 19.4940434,15.4393835 C18.8740433,15.5493835 18.2440442,15.5993836 17.6140442,15.5693836 C15.2840443,15.4693836 13.1740444,14.3993839 11.7040443,12.7493839 C10.4040444,11.2993839 9.60404373,9.40938377 9.59404373,7.36938381 C9.59404373,6.22938383 9.81404382,5.12938428 10.2640438,4.08938432 C10.7040438,3.07938433 10.3940437,2.54938403 10.1740437,2.32938403 C9.94404365,2.09938402 9.40404367,1.77938414 8.34404373,2.21938413 C4.25404358,3.93938416 1.72404415,8.03938437 2.02404416,12.4293842 C2.32404418,16.5593843 5.22404408,20.089384 9.064044,21.419384 C9.98404402,21.739384 10.9540443,21.9293832 11.9540443,21.9693832 C12.1140443,21.9793832 12.2740439,21.9893837 12.4340439,21.9893837 C15.7840438,21.9893837 18.9240432,20.4093833 20.9040432,17.7193832 C21.5740432,16.7893832 21.3940448,16.1993842 21.2240448,15.9293842 Z" id="Vector"></path>
                </g>
            </g>
        </g>
    </g>
</svg>