<?xml version="1.0" encoding="UTF-8"?>
<svg width="24px" height="24px" viewBox="0 0 24 24" version="1.1" xmlns="http://www.w3.org/2000/svg" xmlns:xlink="http://www.w3.org/1999/xlink">
    <title>Icon/Moon/Linear</title>
    <defs>
        <path d="M5,0 L59,0 C61.7614237,-8.8817842e-16 64,2.23857625 64,5 L64,203 C64,205.761424 61.7614237,208 59,208 L5,208 C2.23857625,208 0,205.761424 0,203 L0,5 C0,2.23857625 2.23857625,0 5,0 Z" id="path-1"></path>
        <path d="M0,0 L24,0 L24,24 L0,24 L0,0 Z" id="path-2"></path>
    </defs>
    <g id="Icons" stroke="none" stroke-width="1" fill="none" fill-rule="evenodd" stroke-linecap="round" stroke-linejoin="round">
        <g id="Weather" transform="translate(-480, -234)" fill-rule="nonzero" stroke="CURRENTCOLOR" stroke-width="1.5">
            <g id="Moon" transform="translate(460, 166)" xlink:href="#path-1">
                <g id="Icon/Moon/Linear" transform="translate(20, 68)" xlink:href="#path-2">
                    <path d="M2.02716008,12.4248438 C2.38716009,17.5748439 6.75715971,21.7648444 11.9871597,21.9948444 C15.6771598,22.1548444 18.977159,20.4348431 20.957159,17.724843 C21.777159,16.614843 21.3371593,15.8748446 19.9671593,16.1248446 C19.2971593,16.2448445 18.6071594,16.2948439 17.8871593,16.2648439 C12.9971595,16.0648439 8.9971595,11.974844 8.9771595,7.14484406 C8.9671595,5.8448441 9.23715949,4.61484396 9.7271595,3.49484396 C10.2671595,2.25484395 9.61715984,1.66484407 8.36715984,2.19484404 C4.40715981,3.86484399 1.69716006,7.85484362 2.02716008,12.4248438 Z" id="Vector"></path>
                </g>
            </g>
        </g>
    </g>
</svg>