<?xml version="1.0" encoding="UTF-8"?>
<svg width="24px" height="24px" viewBox="0 0 24 24" version="1.1" xmlns="http://www.w3.org/2000/svg" xmlns:xlink="http://www.w3.org/1999/xlink">
    <title>Icon/Moon/Bulk</title>
    <defs>
        <path d="M5,0 L59,0 C61.7614237,-8.8817842e-16 64,2.23857625 64,5 L64,203 C64,205.761424 61.7614237,208 59,208 L5,208 C2.23857625,208 0,205.761424 0,203 L0,5 C0,2.23857625 2.23857625,0 5,0 Z" id="path-1"></path>
        <path d="M0,0 L24,0 L24,24 L0,24 L0,0 Z" id="path-2"></path>
    </defs>
    <g id="Icons" stroke="none" stroke-width="1" fill="none" fill-rule="evenodd">
        <g id="Weather" transform="translate(-480, -330)" fill="CURRENTCOLOR" fill-rule="nonzero">
            <g id="Moon" transform="translate(460, 166)" xlink:href="#path-1">
                <g id="Icon/Moon/Bulk" transform="translate(20, 164)" xlink:href="#path-2">
                    <path d="M8.69404411,18.9993839 C8.69404411,19.8393839 8.824044,20.659384 9.064044,21.419384 C5.22404408,20.089384 2.32404418,16.5593843 2.02404416,12.4293842 C1.72404415,8.03938437 4.25404358,3.93938416 8.34404373,2.21938413 C9.40404367,1.77938414 9.94404365,2.09938402 10.1740437,2.32938403 C10.3940437,2.54938403 10.7040438,3.07938433 10.2640438,4.08938432 C9.81404382,5.12938428 9.59404373,6.22938383 9.59404373,7.36938381 C9.60404373,9.40938377 10.4040444,11.2993839 11.7040443,12.7493839 C9.8740443,14.209384 8.69404411,16.469384 8.69404411,18.9993839 Z" id="Vector"></path>
                    <path d="M20.9040434,17.7193835 C18.9240434,20.4093835 15.784044,21.9893839 12.4340441,21.9893839 C12.2740441,21.9893839 12.1140446,21.9793835 11.9540446,21.9693835 C10.9540446,21.9293835 9.98404425,21.7393842 9.06404424,21.4193842 C8.82404424,20.6593843 8.69404435,19.8393841 8.69404435,18.9993842 C8.69404435,16.4693842 9.87404454,14.2093842 11.7040446,12.7493842 C13.1740446,14.3993841 15.2840445,15.4693839 17.6140444,15.5693839 C18.2440444,15.5993839 18.8740436,15.5493837 19.4940436,15.4393837 C20.6140436,15.2393837 21.064045,15.6593845 21.224045,15.9293845 C21.394045,16.1993845 21.5740435,16.7893835 20.9040434,17.7193835 Z" id="Vector" opacity="0.400000006"></path>
                </g>
            </g>
        </g>
    </g>
</svg>