<?xml version="1.0" encoding="UTF-8"?>
<svg width="24px" height="24px" viewBox="0 0 24 24" version="1.1" xmlns="http://www.w3.org/2000/svg" xmlns:xlink="http://www.w3.org/1999/xlink">
    <title>Icon/Folder-Cross/Bulk</title>
    <defs>
        <path d="M5,0 L59,0 C61.7614237,-8.8817842e-16 64,2.23857625 64,5 L64,203 C64,205.761424 61.7614237,208 59,208 L5,208 C2.23857625,208 0,205.761424 0,203 L0,5 C0,2.23857625 2.23857625,0 5,0 Z" id="path-1"></path>
        <path d="M0,0 L24,0 L24,24 L0,24 L0,0 Z" id="path-2"></path>
    </defs>
    <g id="Icons" stroke="none" stroke-width="1" fill="none" fill-rule="evenodd">
        <g id="Content-Managment" transform="translate(-168, -328)" fill-rule="nonzero">
            <g id="Folder-cross" transform="translate(148, 164)" xlink:href="#path-1">
                <g id="Icon/Folder-Cross/Bulk" transform="translate(20, 164)" xlink:href="#path-2">
                    <path d="M21.8700018,9.43999958 L2.13000011,9.43999958 L2.13000011,6.42000008 C2.13000011,3.98000002 4.11000013,2 6.55000019,2 L8.88000011,2 C10.5100001,2 11.0200001,2.53000009 11.6700001,3.4000001 L13.0699997,5.26000023 C13.3799997,5.67000023 13.42,5.73000002 14,5.73000002 L16.7900009,5.73000002 C19.1600008,5.72000002 21.1800018,7.27999949 21.8700018,9.43999958 Z" id="Vector" fill="CURRENTCOLOR" opacity="0.400000006"></path>
                    <path d="M21.9899998,10.8400002 C21.9699998,10.3600002 21.8899998,9.88999957 21.7399998,9.43999958 L2,9.43999958 L2,16.6499996 C2,19.5999997 4.39999986,22 7.3499999,22 L16.6499996,22 C19.5999997,22 22,19.5999997 22,16.6499996 L22,11.0699997 C22,10.9999997 22,10.9100002 21.9899998,10.8400002 Z M14.3400002,17.7800007 C14.1900001,17.9200007 14,18 13.8100004,18 C13.6200004,18 13.4299997,17.9300007 13.2799997,17.7800007 L12.04,16.5400009 L10.7600002,17.8199997 C10.6100002,17.9699997 10.4199995,18.0400009 10.2299995,18.0400009 C10.0399995,18.0400009 9.84999982,17.9699997 9.69999981,17.8199997 C9.40999982,17.5299997 9.40999982,17.0500002 9.69999981,16.7600002 L10.9799995,15.4799995 L9.73999977,14.2399998 C9.44999978,13.9499998 9.44999978,13.4700003 9.73999977,13.1800003 C10.0299998,12.8900003 10.5100002,12.8900003 10.8000002,13.1800003 L12.04,14.4200001 L13.2399998,13.2200003 C13.5299998,12.9300003 14.0100002,12.9300003 14.3000002,13.2200003 C14.5900002,13.5100003 14.5900002,13.9899997 14.3000002,14.2799997 L13.1000004,15.4799995 L14.3400002,16.7199993 C14.6300001,17.0099993 14.6300001,17.4900007 14.3400002,17.7800007 Z" id="Vector" fill="CURRENTCOLOR"></path>
                    <polygon id="Vector" opacity="0" points="0 0 24 0 24 24 0 24"></polygon>
                </g>
            </g>
        </g>
    </g>
</svg>