<?xml version="1.0" encoding="UTF-8"?>
<svg width="24px" height="24px" viewBox="0 0 24 24" version="1.1" xmlns="http://www.w3.org/2000/svg" xmlns:xlink="http://www.w3.org/1999/xlink">
    <title>Icon/Folder-Cross/Bold</title>
    <defs>
        <path d="M5,0 L59,0 C61.7614237,-8.8817842e-16 64,2.23857625 64,5 L64,203 C64,205.761424 61.7614237,208 59,208 L5,208 C2.23857625,208 0,205.761424 0,203 L0,5 C0,2.23857625 2.23857625,0 5,0 Z" id="path-1"></path>
        <path d="M0,0 L24,0 L24,24 L0,24 L0,0 Z" id="path-2"></path>
    </defs>
    <g id="Icons" stroke="none" stroke-width="1" fill="none" fill-rule="evenodd">
        <g id="Content-Managment" transform="translate(-168, -280)" fill-rule="nonzero">
            <g id="Folder-cross" transform="translate(148, 164)" xlink:href="#path-1">
                <g id="Icon/Folder-Cross/Bold" transform="translate(20, 116)" xlink:href="#path-2">
                    <path d="M21.6700001,9.25 L3,9.25 C2.44771525,9.25 2,8.80228475 2,8.25 L2,6.42000008 L2,6.42000008 C2,3.98000002 3.98000002,2 6.42000008,2 L8.73999977,2 C10.3699998,2 10.8799998,2.53000009 11.5299997,3.4000001 L12.9300003,5.26000023 C13.2400003,5.67000023 13.2799997,5.71999979 13.8599997,5.71999979 L16.6499996,5.71999979 C18.9599996,5.71999979 20.9300001,7.19000006 21.6700001,9.25 Z" id="Vector" fill="CURRENTCOLOR"></path>
                    <path d="M20.9833665,10.7496747 L3,10.7499993 C2.44772193,10.7500087 2.0000171,11.1977212 2.0000171,11.7499993 L2,16.6499991 L2,16.6499991 C2,19.5999992 4.39999986,22 7.3499999,22 L16.6499996,22 C19.5999997,22 22,19.5999992 22,16.6499991 L21.9833778,11.746285 C21.9815102,11.19532 21.5343346,10.7496653 20.9833665,10.7496747 Z M14.3400002,18.2800002 C14.1900001,18.4200002 14,18.4999995 13.8100004,18.4999995 C13.6200004,18.4999995 13.4199997,18.4200002 13.2799997,18.2800002 L12.04,17.0400004 L10.7600002,18.3199992 C10.6200002,18.4599992 10.4199995,18.5400004 10.2299995,18.5400004 C10.0399995,18.5400004 9.84999982,18.4599992 9.69999981,18.3199992 C9.40999982,18.0299992 9.40999982,17.5499997 9.69999981,17.2599998 L10.9799995,15.9799991 L9.73999977,14.7399993 C9.44999978,14.4499993 9.44999978,13.9699991 9.73999977,13.6799991 C10.0399998,13.3899991 10.5100002,13.3899991 10.8000002,13.6799991 L12.04,14.9199996 L13.2399998,13.7199991 C13.5299998,13.4299991 14,13.4299991 14.3000002,13.7199991 C14.5900002,14.0199991 14.5900002,14.4899993 14.3000002,14.7799993 L13.1000004,15.9799991 L14.3400002,17.2199988 C14.6300001,17.5099988 14.6300001,17.9900002 14.3400002,18.2800002 Z" id="Vector" fill="CURRENTCOLOR"></path>
                    <polygon id="Vector" opacity="0" transform="translate(12, 12) rotate(-180) translate(-12, -12)" points="0 0 24 0 24 24 0 24"></polygon>
                </g>
            </g>
        </g>
    </g>
</svg>