<?xml version="1.0" encoding="UTF-8"?>
<svg width="24px" height="24px" viewBox="0 0 24 24" version="1.1" xmlns="http://www.w3.org/2000/svg" xmlns:xlink="http://www.w3.org/1999/xlink">
    <title>Icon/Folder-Cross/Outline</title>
    <defs>
        <path d="M5,0 L59,0 C61.7614237,-8.8817842e-16 64,2.23857625 64,5 L64,203 C64,205.761424 61.7614237,208 59,208 L5,208 C2.23857625,208 0,205.761424 0,203 L0,5 C0,2.23857625 2.23857625,0 5,0 Z" id="path-1"></path>
        <path d="M0,0 L24,0 L24,24 L0,24 L0,0 Z" id="path-2"></path>
    </defs>
    <g id="Icons" stroke="none" stroke-width="1" fill="none" fill-rule="evenodd">
        <g id="Content-Managment" transform="translate(-168, -184)" fill-rule="nonzero">
            <g id="Folder-cross" transform="translate(148, 164)" xlink:href="#path-1">
                <g id="Icon/Folder-Cross/Outline" transform="translate(20, 20)" xlink:href="#path-2">
                    <path d="M13.8100009,16.48 C13.6200009,16.48 13.43,16.4100007 13.28,16.2600007 L9.74000004,12.7200005 C9.45000005,12.4300005 9.45000005,11.9500001 9.74000004,11.6600001 C10.03,11.3700001 10.5100004,11.3700001 10.8000004,11.6600001 L14.3400006,15.2 C14.6300006,15.49 14.6300006,15.9700007 14.3400006,16.2600007 C14.1900006,16.4000007 14.0000009,16.48 13.8100009,16.48 Z" id="Vector" fill="CURRENTCOLOR"></path>
                    <path d="M10.2299998,16.5200009 C10.0399998,16.5200009 9.85000008,16.4499997 9.70000008,16.2999997 C9.41000009,16.0099997 9.41000009,15.53 9.70000008,15.24 L13.24,11.7000001 C13.53,11.4100001 14.0100007,11.4100001 14.3000007,11.7000001 C14.5900007,11.9900001 14.5900007,12.4700005 14.3000007,12.7600005 L10.7600005,16.2999997 C10.6200005,16.4399997 10.4199998,16.5200009 10.2299998,16.5200009 Z" id="Vector" fill="CURRENTCOLOR"></path>
                    <path d="M17,22.75 L7,22.75 C2.59000015,22.75 1.25,21.4099998 1.25,17 L1.25,7 C1.25,2.59000015 2.59000015,1.25 7,1.25 L8.5,1.25 C10.25,1.25 10.8,1.81999999 11.5,2.75 L13,4.75 C13.33,5.19 13.38,5.25 14,5.25 L17,5.25 C21.4099998,5.25 22.75,6.59000015 22.75,11 L22.75,17 C22.75,21.4099998 21.4099998,22.75 17,22.75 Z M7,2.75 C3.43000007,2.75 2.75,3.43000007 2.75,7 L2.75,17 C2.75,20.5699999 3.43000007,21.25 7,21.25 L17,21.25 C20.5699999,21.25 21.25,20.5699999 21.25,17 L21.25,11 C21.25,7.43000007 20.5699999,6.75 17,6.75 L14,6.75 C12.72,6.75 12.3000002,6.31000012 11.8000002,5.6500001 L10.3000002,3.6500001 C9.78000021,2.9600001 9.63,2.75 8.5,2.75 L7,2.75 L7,2.75 Z" id="Vector" fill="CURRENTCOLOR"></path>
                    <polygon id="Vector" opacity="0" points="0 0 24 0 24 24 0 24"></polygon>
                </g>
            </g>
        </g>
    </g>
</svg>