<?xml version="1.0" encoding="UTF-8"?>
<svg width="24px" height="24px" viewBox="0 0 24 24" version="1.1" xmlns="http://www.w3.org/2000/svg" xmlns:xlink="http://www.w3.org/1999/xlink">
    <title>Icon/Danger/Outline</title>
    <defs>
        <path d="M5,0 L59,0 C61.7614237,-8.8817842e-16 64,2.23857625 64,5 L64,203 C64,205.761424 61.7614237,208 59,208 L5,208 C2.23857625,208 0,205.761424 0,203 L0,5 C0,2.23857625 2.23857625,0 5,0 Z" id="path-1"></path>
        <path d="M0,0 L24,0 L24,24 L0,24 L0,0 Z" id="path-2"></path>
    </defs>
    <g id="Icons" stroke="none" stroke-width="1" fill="none" fill-rule="evenodd">
        <g id="Basic-System-feedback" transform="translate(-168, -434)" fill="CURRENTCOLOR" fill-rule="nonzero">
            <g id="Denger" transform="translate(148, 414)" xlink:href="#path-1">
                <g id="Icon/Danger/Outline" transform="translate(20, 20)" xlink:href="#path-2">
                    <path d="M11.7558594,14.9101562 C11.3458594,14.9101562 11.0058594,14.5701562 11.0058594,14.1601563 L11.0058594,9.16015625 C11.0058594,8.75015625 11.3458594,8.41015625 11.7558594,8.41015625 C12.1658594,8.41015625 12.5058594,8.75015625 12.5058594,9.16015625 L12.5058594,14.1601563 C12.5058594,14.5701562 12.1658594,14.9101562 11.7558594,14.9101562 Z" id="Vector"></path>
                    <path d="M11.7558594,18.1602144 C11.6958594,18.1602144 11.6258596,18.150214 11.5558596,18.140214 C11.4958596,18.130214 11.4358593,18.1102145 11.3758593,18.0802145 C11.3158593,18.0602145 11.2558594,18.0302143 11.195859,17.9902143 C11.145859,17.9502143 11.0958593,17.9102135 11.0458593,17.8702135 C10.8658593,17.6802135 10.7558594,17.4202144 10.7558594,17.1602144 C10.7558594,16.9002144 10.8658593,16.6402153 11.0458593,16.4502153 C11.0958593,16.4102153 11.145859,16.3702145 11.195859,16.3302145 C11.2558594,16.2902145 11.3158593,16.2602143 11.3758593,16.2402143 C11.4358593,16.2102143 11.4958596,16.1902148 11.5558596,16.1802148 C11.6858596,16.1502148 11.825859,16.1502148 11.945859,16.1802148 C12.015859,16.1902148 12.0758595,16.2102143 12.1358595,16.2402143 C12.1958595,16.2602143 12.2558594,16.2902145 12.3158598,16.3302145 C12.3658598,16.3702145 12.4158594,16.4102153 12.4658594,16.4502153 C12.6458594,16.6402153 12.7558594,16.9002144 12.7558594,17.1602144 C12.7558594,17.4202144 12.6458594,17.6802135 12.4658594,17.8702135 C12.4158594,17.9102135 12.3658598,17.9502143 12.3158598,17.9902143 C12.2558594,18.0302143 12.1958595,18.0602145 12.1358595,18.0802145 C12.0758595,18.1102145 12.015859,18.130214 11.945859,18.140214 C11.885859,18.150214 11.8158594,18.1602144 11.7558594,18.1602144 Z" id="Vector"></path>
                    <path d="M17.8163223,22.3199997 L5.69632339,22.3199997 C3.74632335,22.3199997 2.25632355,21.6099999 1.49632356,20.3299999 C0.746323556,19.05 0.84632349,17.3999996 1.79632348,15.6899996 L7.85632372,4.78999996 C8.85632372,2.99000001 10.2363238,2 11.7563238,2 C13.2763238,2 14.6563234,2.99000001 15.6563234,4.78999996 L21.7163219,15.6999998 C22.6663219,17.4099998 22.7763231,19.0500002 22.0163231,20.3400002 C21.2563231,21.6100001 19.7663224,22.3199997 17.8163223,22.3199997 Z M11.7563238,3.5 C10.8163238,3.5 9.89632368,4.22000003 9.16632366,5.51999998 L3.11632347,16.4300003 C2.43632346,17.6500003 2.32632354,18.7699999 2.79632354,19.5799999 C3.26632354,20.3899999 4.30632317,20.8299999 5.70632315,20.8299999 L17.8263226,20.8299999 C19.2263225,20.8299999 20.2563224,20.3899999 20.7363224,19.5799999 C21.2163224,18.7699999 21.0963227,17.6600003 20.4163227,16.4300003 L14.346324,5.51999998 C13.6163239,4.22000003 12.6963238,3.5 11.7563238,3.5 Z" id="Vector"></path>
                </g>
            </g>
        </g>
    </g>
</svg>