<?xml version="1.0" encoding="UTF-8"?>
<svg width="24px" height="24px" viewBox="0 0 24 24" version="1.1" xmlns="http://www.w3.org/2000/svg" xmlns:xlink="http://www.w3.org/1999/xlink">
    <title>Icon/Danger/Bulk</title>
    <defs>
        <path d="M5,0 L59,0 C61.7614237,-8.8817842e-16 64,2.23857625 64,5 L64,203 C64,205.761424 61.7614237,208 59,208 L5,208 C2.23857625,208 0,205.761424 0,203 L0,5 C0,2.23857625 2.23857625,0 5,0 Z" id="path-1"></path>
        <path d="M0,0 L24,0 L24,24 L0,24 L0,0 Z" id="path-2"></path>
    </defs>
    <g id="Icons" stroke="none" stroke-width="1" fill="none" fill-rule="evenodd">
        <g id="Basic-System-feedback" transform="translate(-168, -578)" fill-rule="nonzero">
            <g id="Denger" transform="translate(148, 414)" xlink:href="#path-1">
                <g id="Icon/Danger/Bulk" transform="translate(20, 164)" xlink:href="#path-2">
                    <polygon id="Vector" points="0 0 24 0 24 24 0 24"></polygon>
                    <path d="M21.8003387,16.0999517 L15.4003391,4.59995103 C14.5003392,2.999951 13.3003395,2.19995117 12.0003395,2.19995117 C10.7003396,2.19995117 9.50033939,2.999951 8.60033941,4.59995103 L2.20033914,16.0999517 C1.40033913,17.5999517 1.3003391,18.9999508 2.00033909,20.0999508 C2.70033908,21.1999512 3.90033889,21.7999496 5.60033894,21.7999496 L18.4003391,21.7999496 C20.1003392,21.7999496 21.4003395,21.1999512 22.0003395,20.0999508 C22.6003395,18.9999508 22.6003388,17.5999517 21.8003387,16.0999517 Z" id="Vector" fill="CURRENTCOLOR" opacity="0.400000006"></path>
                    <path d="M12,14.8999996 C11.6,14.8999996 11.1999998,14.6000004 11.1999998,14.1000004 L11.1999998,9.10000038 C11.1999998,8.70000038 11.5,8.30000019 12,8.30000019 C12.5,8.30000019 12.8000002,8.60000038 12.8000002,9.10000038 L12.8000002,14.1000004 C12.8000002,14.5000004 12.5,14.8999996 12,14.8999996 Z" id="Vector" fill="CURRENTCOLOR"></path>
                    <path d="M12,18.2000008 C11.9333335,18.2000008 11.8666669,18.2000008 11.8000002,18.2000008 C11.7333337,18.2000008 11.666667,18.2000008 11.6000004,18.2000008 C11.5333335,18.2000008 11.4666665,18.2000008 11.3999996,18.2000008 C11.3333333,18.2000008 11.3000002,18.1666673 11.3000002,18.1000004 C11.1000002,17.9000004 11,17.6999996 11,17.3999996 C11,17.1000004 11.1000002,16.9000008 11.3000002,16.7000008 C11.2999998,16.7000005 11.333333,16.666667 11.3999996,16.6000004 C11.4666665,16.6000004 11.5333335,16.6000004 11.6000004,16.6000004 C11.6666669,16.6000004 11.7333335,16.6000004 11.8000002,16.6000004 C11.9000002,16.6000004 12.0999998,16.6000004 12.1999998,16.6000004 C12.2666663,16.6000004 12.333333,16.6000004 12.3999996,16.6000004 C12.4666665,16.6000004 12.5333335,16.6000004 12.6000004,16.6000004 C12.6666669,16.6000004 12.7333335,16.6333338 12.8000002,16.7000008 C13,16.9000008 13.1000004,17.1000004 13.1000004,17.3999996 C13.1000004,17.6999996 13,17.9000004 12.8000002,18.1000004 C12.7333337,18.1000004 12.666667,18.1333338 12.6000004,18.2000008 C12.5333335,18.2000008 12.4666665,18.2000008 12.3999996,18.2000008 C12.3333331,18.2000008 12.2666665,18.2000008 12.1999998,18.2000008 C12.1333333,18.2000008 12.0666667,18.2000008 12,18.2000008 Z" id="Vector" fill="CURRENTCOLOR"></path>
                </g>
            </g>
        </g>
    </g>
</svg>