<?xml version="1.0" encoding="UTF-8"?>
<svg width="24px" height="24px" viewBox="0 0 24 24" version="1.1" xmlns="http://www.w3.org/2000/svg" xmlns:xlink="http://www.w3.org/1999/xlink">
    <title>Icon/Danger/Bold</title>
    <defs>
        <path d="M5,0 L59,0 C61.7614237,-8.8817842e-16 64,2.23857625 64,5 L64,203 C64,205.761424 61.7614237,208 59,208 L5,208 C2.23857625,208 0,205.761424 0,203 L0,5 C0,2.23857625 2.23857625,0 5,0 Z" id="path-1"></path>
        <path d="M0,0 L24,0 L24,24 L0,24 L0,0 Z" id="path-2"></path>
    </defs>
    <g id="Icons" stroke="none" stroke-width="1" fill="none" fill-rule="evenodd">
        <g id="Basic-System-feedback" transform="translate(-168, -530)" fill-rule="nonzero">
            <g id="Denger" transform="translate(148, 414)" xlink:href="#path-1">
                <g id="Icon/Danger/Bold" transform="translate(20, 116)" xlink:href="#path-2">
                    <polygon id="Vector" points="0 0 24 0 24 24 0 24"></polygon>
                    <path d="M21.8003387,16.0999517 L15.4003391,4.59995103 C14.5003392,2.999951 13.3003395,2.19995117 12.0003395,2.19995117 C10.7003396,2.19995117 9.50033939,2.999951 8.60033941,4.59995103 L2.20033914,16.0999517 C1.40033913,17.5999517 1.3003391,18.9999508 2.00033909,20.0999508 C2.70033908,21.1999512 3.90033889,21.7999496 5.60033894,21.7999496 L18.4003391,21.7999496 C20.1003392,21.7999496 21.4003395,21.1999512 22.0003395,20.0999508 C22.6003395,18.9999508 22.6003388,17.5999517 21.8003387,16.0999517 Z M11.2003393,9.19995117 C11.2003393,8.79995117 11.5003395,8.39995098 12.0003395,8.39995098 C12.5003395,8.39995098 12.8003397,8.69995117 12.8003397,9.19995117 L12.8003397,14.1999512 C12.8003397,14.5999512 12.5003395,14.9999514 12.0003395,14.9999514 C11.5003395,14.9999514 11.2003393,14.6999512 11.2003393,14.1999512 L11.2003393,9.19995117 Z M12.7003393,17.899951 C12.6336728,17.8999512 12.5670062,17.9332847 12.5003395,17.9999514 C12.433673,17.9999514 12.3670064,17.9999514 12.3003397,17.9999514 C12.2336732,17.9999514 12.1670066,17.9999514 12.1003399,17.9999514 C12.0336727,17.9999514 11.9670058,17.9999514 11.9003391,17.9999514 C11.8003391,17.9999514 11.8003393,17.9999514 11.7003393,17.9999514 C11.6336728,17.9999514 11.5670062,17.9999514 11.5003395,17.9999514 C11.433673,17.9999514 11.3670064,17.9999514 11.3003397,17.9999514 C11.2336728,17.9999511 11.2003393,17.9666176 11.2003393,17.899951 C11.0003393,17.6999512 10.9003391,17.4999521 10.9003391,17.1999512 C10.9003391,16.8999521 11.0003393,16.6999512 11.2003393,16.4999514 C11.2003396,16.4999511 11.233673,16.4666176 11.3003397,16.399951 C11.3670062,16.399951 11.4336728,16.399951 11.5003395,16.399951 C11.567006,16.399951 11.6336726,16.399951 11.7003393,16.399951 C11.8003393,16.399951 12.0003399,16.399951 12.1003399,16.399951 C12.1670064,16.399951 12.233673,16.399951 12.3003397,16.399951 C12.3670062,16.399951 12.4336728,16.399951 12.5003395,16.399951 C12.567006,16.3999512 12.6336726,16.4332847 12.7003393,16.4999514 C12.9003393,16.6999512 13.0003395,16.8999521 13.0003395,17.1999512 C13.0003395,17.4999521 12.9003393,17.6999512 12.7003393,17.899951 Z" id="Vector" fill="CURRENTCOLOR"></path>
                </g>
            </g>
        </g>
    </g>
</svg>