<?xml version="1.0" encoding="UTF-8"?>
<svg width="24px" height="24px" viewBox="0 0 24 24" version="1.1" xmlns="http://www.w3.org/2000/svg" xmlns:xlink="http://www.w3.org/1999/xlink">
    <title>Icon/Danger/Linear</title>
    <defs>
        <path d="M5,0 L59,0 C61.7614237,-8.8817842e-16 64,2.23857625 64,5 L64,203 C64,205.761424 61.7614237,208 59,208 L5,208 C2.23857625,208 0,205.761424 0,203 L0,5 C0,2.23857625 2.23857625,0 5,0 Z" id="path-1"></path>
        <path d="M0,0 L24,0 L24,24 L0,24 L0,0 Z" id="path-2"></path>
    </defs>
    <g id="Icons" stroke="none" stroke-width="1" fill="none" fill-rule="evenodd" stroke-linecap="round" stroke-linejoin="round">
        <g id="Basic-System-feedback" transform="translate(-168, -482)" fill-rule="nonzero" stroke="CURRENTCOLOR">
            <g id="Denger" transform="translate(148, 414)" xlink:href="#path-1">
                <g id="Icon/Danger/Linear" transform="translate(20, 68)" xlink:href="#path-2">
                    <line x1="11.9990234" y1="9.4074707" x2="11.9990234" y2="14.4074707" id="Vector" stroke-width="1.5"></line>
                    <path d="M11.999445,21.8174992 L5.93944454,21.8174992 C2.46944451,21.8174992 1.01944458,19.3374999 2.69944453,16.3074999 L5.81944466,10.6875 L8.75944471,5.40750003 C10.5394447,2.19749999 13.4594448,2.19749999 15.2394447,5.40750003 L18.1794453,10.6975002 L21.2994442,16.3175001 C22.9794441,19.3475001 21.5194445,21.8274994 18.0594444,21.8274994 L11.999445,21.8274994 L11.999445,21.8174992 Z" id="Vector" stroke-width="1.5"></path>
                    <line x1="11.9941406" y1="17.4074707" x2="12.0941406" y2="17.4074707" id="Vector" stroke-width="2"></line>
                </g>
            </g>
        </g>
    </g>
</svg>