<?xml version="1.0" encoding="UTF-8"?>
<svg width="24px" height="24px" viewBox="0 0 24 24" version="1.1" xmlns="http://www.w3.org/2000/svg" xmlns:xlink="http://www.w3.org/1999/xlink">
    <title>Icon/Progress/Bulk</title>
    <defs>
        <path d="M5,0 L59,0 C61.7614237,-8.8817842e-16 64,2.23857625 64,5 L64,203 C64,205.761424 61.7614237,208 59,208 L5,208 C2.23857625,208 0,205.761424 0,203 L0,5 C0,2.23857625 2.23857625,0 5,0 Z" id="path-1"></path>
        <path d="M0,0 L24,0 L24,24 L0,24 L0,0 Z" id="path-2"></path>
    </defs>
    <g id="Icons" stroke="none" stroke-width="1" fill="none" fill-rule="evenodd">
        <g id="Basic-System-feedback" transform="translate(-168, -826)" fill-rule="nonzero">
            <g id="Progress" transform="translate(148, 662)" xlink:href="#path-1">
                <g id="Icon/Progress/Bulk" transform="translate(20, 164)" xlink:href="#path-2">
                    <circle id="Ellipse-1180" fill="CURRENTCOLOR" fill-rule="nonzero" opacity="0.400000006" cx="12" cy="12" r="8"></circle>
                    <g id="Group-762" fill-rule="evenodd" stroke-width="1" transform="translate(1.9999, 1.9999)" stroke="CURRENTCOLOR" stroke-linecap="round">
                        <path d="M7.25878906,19.615715 C8.13074332,19.8659797 9.05051875,20.0001183 10.000103,20.0001183 C15.500103,20.0001183 20.000103,15.5001183 20.000103,10.0001183 C20.000103,5.18448067 16.5502968,1.13546753 12,0.202392578" id="Vector" stroke-width="1.5" fill-rule="nonzero"></path>
                        <path d="M10,0 C4.5,0 0,4.5 0,10 C0,13.6819239 2.01667881,16.9156976 5,18.6512833" id="Vector" stroke-width="1.5" stroke-dasharray="3,3" fill-rule="nonzero"></path>
                    </g>
                    <polyline id="Vector" stroke="CURRENTCOLOR" stroke-width="1.5" stroke-linecap="round" stroke-linejoin="round" fill-rule="nonzero" points="7.75 12 10.5799999 14.8299999 16.25 9.17000008"></polyline>
                    <polygon id="Vector" opacity="0" fill-rule="nonzero" points="0 0 24 0 24 24 0 24"></polygon>
                </g>
            </g>
        </g>
    </g>
</svg>