<?xml version="1.0" encoding="UTF-8"?>
<svg width="24px" height="24px" viewBox="0 0 24 24" version="1.1" xmlns="http://www.w3.org/2000/svg" xmlns:xlink="http://www.w3.org/1999/xlink">
    <title>Icon/Progress/Outline</title>
    <defs>
        <path d="M5,0 L59,0 C61.7614237,-8.8817842e-16 64,2.23857625 64,5 L64,203 C64,205.761424 61.7614237,208 59,208 L5,208 C2.23857625,208 0,205.761424 0,203 L0,5 C0,2.23857625 2.23857625,0 5,0 Z" id="path-1"></path>
        <path d="M0,0 L24,0 L24,24 L0,24 L0,0 Z" id="path-2"></path>
    </defs>
    <g id="Icons" stroke="none" stroke-width="1" fill="none" fill-rule="evenodd">
        <g id="Basic-System-feedback" transform="translate(-168, -682)" fill-rule="nonzero">
            <g id="Progress" transform="translate(148, 662)" xlink:href="#path-1">
                <g id="Icon/Progress/Outline" transform="translate(20, 20)" xlink:href="#path-2">
                    <path d="M21.2499475,12.000185 C21.2499475,7.54931593 18.0593324,3.80005014 13.8495574,2.93670845 C13.4438507,2.85351504 13.1824877,2.45764655 13.265573,2.05194283 C13.3487664,1.64623615 13.7446349,1.38487314 14.1503386,1.46795844 C19.0410628,2.4708408 22.7499475,6.81984615 22.7499475,12.000185 C22.7499475,17.9143414 17.9141197,22.750185 11.999948,22.750185 C10.9794557,22.750185 9.98997796,22.6054214 9.05170584,22.3361225 C8.65370649,22.2217575 8.42378349,21.8064514 8.53803395,21.4083881 C8.65246258,21.0104845 9.06775695,20.7804807 9.46576834,20.8947163 C10.2713115,21.1259098 11.1213818,21.2501753 11.999948,21.250185 C17.0856924,21.250185 21.2498788,17.0859141 21.2499475,12.000185 Z" id="Vector-(Stroke)" fill="CURRENTCOLOR"></path>
                    <path d="M5.32123756,19.4638081 C5.57406813,19.1359959 6.04500389,19.0755126 6.37299538,19.3280659 C6.69194016,19.5739268 7.02752179,19.7996041 7.37690163,20.0028706 C7.73488525,20.2111322 7.85655597,20.6702495 7.648386,21.0282612 C7.44014363,21.3862118 6.98099267,21.5078354 6.62299538,21.2997456 C6.21723053,21.0636866 5.82796386,20.8017403 5.45795631,20.5165424 C5.12989876,20.2636569 5.06835198,19.7918656 5.32123756,19.4638081 Z M2.47455788,15.1298237 C2.85686231,14.9703991 3.29657859,15.1508396 3.45600319,15.533144 C3.76851135,16.2825101 4.17722759,16.9836125 4.66694069,17.6200581 C4.91933739,17.9483291 4.85745195,18.4192773 4.52924538,18.6718159 C4.2010133,18.9241112 3.73002464,18.8631834 3.47748756,18.5350971 C2.90930343,17.7966684 2.43474317,16.9819885 2.07123756,16.1102924 C1.91192719,15.7280827 2.09243044,15.289302 2.47455788,15.1298237 Z M1.2499485,11.9999409 C1.2499485,11.5249004 1.28114197,11.0563539 1.34174538,10.5966206 C1.39594579,10.1860326 1.77292719,9.89698426 2.18354225,9.95111275 C2.59412786,10.0053153 2.88317836,10.382296 2.82905006,10.7929096 C2.77698461,11.1879038 2.7499485,11.5907727 2.7499485,11.9999409 C2.7499485,12.4087776 2.77706753,12.8113087 2.82905006,13.2059956 C2.8831219,13.6165448 2.59402168,13.9935355 2.18354225,14.0477924 C1.77300587,14.1018626 1.39602079,13.8127436 1.34174538,13.4022846 C1.28124699,12.9429407 1.2499485,12.4745629 1.2499485,11.9999409 Z M3.48041725,5.46185493 C3.73313874,5.13384429 4.20404673,5.07255223 4.53217506,5.32513618 C4.8602789,5.57779011 4.9213891,6.04871804 4.66889381,6.376894 C4.17863023,7.01356477 3.76886728,7.7150113 3.45600319,8.46478462 C3.2964592,8.84693211 2.85773692,9.02752934 2.47553444,8.86810493 C2.09338826,8.70864365 1.91296938,8.26981857 2.07221413,7.88763618 C2.43612364,7.01553339 2.91163343,6.20049441 3.48041725,5.46185493 Z M7.88764381,2.0722065 C8.26982638,1.91296127 8.70865121,2.09338039 8.86811256,2.47552681 C9.02753706,2.85772949 8.84694016,3.29645179 8.46479225,3.45599556 C7.71501869,3.76885968 7.01357257,4.17862248 6.37690163,4.66888618 C6.04872566,4.92138147 5.57779774,4.86027128 5.32514381,4.53216743 C5.07255986,4.2040391 5.13385192,3.73313111 5.46186256,3.48040962 C6.20050222,2.91162568 7.01554072,2.43611607 7.88764381,2.0722065 Z M11.9999485,1.24994087 C12.4141621,1.24994087 12.7499485,1.5857273 12.7499485,1.99994087 C12.7499485,2.41415444 12.4141621,2.74994087 11.9999485,2.74994087 C11.5907804,2.74994087 11.1879114,2.77697698 10.7929173,2.82904243 C10.3823037,2.88317069 10.0053229,2.5941202 9.95112038,2.18353462 C9.89699197,1.77291989 10.1860408,1.39593861 10.5966282,1.34173775 C11.0563612,1.28113442 11.5249084,1.24994087 11.9999485,1.24994087 Z" id="Vector-(Stroke)" fill="CURRENTCOLOR"></path>
                    <path d="M15.7197266,8.63875052 C16.0128798,8.34613574 16.488622,8.34658206 16.78125,8.63972709 C17.0738648,8.93288028 17.0734185,9.40862256 16.7802734,9.70125055 L11.109375,15.3604302 C10.8164407,15.6527835 10.3425047,15.6530035 10.0498047,15.3604302 L7.21972665,12.5303521 C6.92684647,12.2374719 6.92687255,11.7627016 7.21972665,11.4698052 C7.51261988,11.176912 7.98738033,11.176912 8.28027356,11.4698052 L10.5791016,13.7686334 L15.7197266,8.63875052 Z" id="Vector-(Stroke)" fill="CURRENTCOLOR"></path>
                    <polygon id="Vector" opacity="0" points="0 0 24 0 24 24 0 24"></polygon>
                </g>
            </g>
        </g>
    </g>
</svg>