<?xml version="1.0" encoding="UTF-8"?>
<svg width="24px" height="24px" viewBox="0 0 24 24" version="1.1" xmlns="http://www.w3.org/2000/svg" xmlns:xlink="http://www.w3.org/1999/xlink">
    <title>Icon/GridView-Square/Bold</title>
    <defs>
        <path d="M5,0 L59,0 C61.7614237,-8.8817842e-16 64,2.23857625 64,5 L64,203 C64,205.761424 61.7614237,208 59,208 L5,208 C2.23857625,208 0,205.761424 0,203 L0,5 C0,2.23857625 2.23857625,0 5,0 Z" id="path-1"></path>
        <path d="M0,0 L24,0 L24,24 L0,24 L0,0 Z" id="path-2"></path>
    </defs>
    <g id="Icons" stroke="none" stroke-width="1" fill="none" fill-rule="evenodd">
        <g id="View-Controls" transform="translate(-268, -530)" fill-rule="nonzero">
            <g id="Grid-View-Square" transform="translate(248, 414)" xlink:href="#path-1">
                <g id="Icon/GridView-Square/Bold" transform="translate(20, 116)" xlink:href="#path-2">
                    <path d="M16.1900005,2 L12.75,2 L12.75,8 L12.75,8.75 L12.75,13.75 L22,13.75 L22,8.75 L22,8 L22,7.80999994 C22,4.16999984 19.8300006,2 16.1900005,2 Z" id="Vector" fill="CURRENTCOLOR"></path>
                    <path d="M2,10.25 L2,15.25 L2,15.75 L2,16.1900005 C2,19.8300006 4.16999984,22 7.80999994,22 L11.25,22 L11.25,15.75 L11.25,15.25 L11.25,10.25 L2,10.25 Z" id="Vector" fill="CURRENTCOLOR"></path>
                    <polygon id="Vector" opacity="0" transform="translate(12, 12) rotate(-180) translate(-12, -12)" points="0 0 24 0 24 24 0 24"></polygon>
                    <path d="M11.25,2 L11.25,8.75 L2,8.75 L2,7.80999994 C2,4.16999984 4.16999984,2 7.80999994,2 L11.25,2 Z" id="Vector" fill="CURRENTCOLOR"></path>
                    <path d="M22,15.25 L22,16.1900005 C22,19.8300006 19.8300006,22 16.1900005,22 L12.75,22 L12.75,15.25 L22,15.25 Z" id="Vector" fill="CURRENTCOLOR"></path>
                </g>
            </g>
        </g>
    </g>
</svg>