<?xml version="1.0" encoding="UTF-8"?>
<svg width="24px" height="24px" viewBox="0 0 24 24" version="1.1" xmlns="http://www.w3.org/2000/svg" xmlns:xlink="http://www.w3.org/1999/xlink">
    <title>Icon/GridView-Square/Outline</title>
    <defs>
        <path d="M5,0 L59,0 C61.7614237,-8.8817842e-16 64,2.23857625 64,5 L64,203 C64,205.761424 61.7614237,208 59,208 L5,208 C2.23857625,208 0,205.761424 0,203 L0,5 C0,2.23857625 2.23857625,0 5,0 Z" id="path-1"></path>
        <path d="M0,0 L24,0 L24,24 L0,24 L0,0 Z" id="path-2"></path>
    </defs>
    <g id="Icons" stroke="none" stroke-width="1" fill="none" fill-rule="evenodd">
        <g id="View-Controls" transform="translate(-268, -434)" fill-rule="nonzero">
            <g id="Grid-View-Square" transform="translate(248, 414)" xlink:href="#path-1">
                <g id="Icon/GridView-Square/Outline" transform="translate(20, 20)" xlink:href="#path-2">
                    <path d="M15,22.75 L9,22.75 C3.57000017,22.75 1.25,20.4299998 1.25,15 L1.25,9 C1.25,3.57000017 3.57000017,1.25 9,1.25 L15,1.25 C20.4299998,1.25 22.75,3.57000017 22.75,9 L22.75,15 C22.75,20.4299998 20.4299998,22.75 15,22.75 Z M9,2.75 C4.38999987,2.75 2.75,4.38999987 2.75,9 L2.75,15 C2.75,19.6100001 4.38999987,21.25 9,21.25 L15,21.25 C19.6100001,21.25 21.25,19.6100001 21.25,15 L21.25,9 C21.25,4.38999987 19.6100001,2.75 15,2.75 L9,2.75 Z" id="Vector" fill="CURRENTCOLOR"></path>
                    <path d="M12,22.75 C11.59,22.75 11.25,22.41 11.25,22 L11.25,2 C11.25,1.59 11.59,1.25 12,1.25 C12.41,1.25 12.75,1.59 12.75,2 L12.75,22 C12.75,22.41 12.41,22.75 12,22.75 Z" id="Vector" fill="CURRENTCOLOR"></path>
                    <path d="M12,10.25 L2,10.25 C1.59,10.25 1.25,9.91 1.25,9.5 C1.25,9.09 1.59,8.75 2,8.75 L12,8.75 C12.41,8.75 12.75,9.09 12.75,9.5 C12.75,9.91 12.41,10.25 12,10.25 Z" id="Vector" fill="CURRENTCOLOR"></path>
                    <path d="M22,15.25 L12,15.25 C11.59,15.25 11.25,14.91 11.25,14.5 C11.25,14.09 11.59,13.75 12,13.75 L22,13.75 C22.41,13.75 22.75,14.09 22.75,14.5 C22.75,14.91 22.41,15.25 22,15.25 Z" id="Vector" fill="CURRENTCOLOR"></path>
                    <polygon id="Vector" opacity="0" points="0 0 24 0 24 24 0 24"></polygon>
                </g>
            </g>
        </g>
    </g>
</svg>