<?xml version="1.0" encoding="UTF-8"?>
<svg width="24px" height="24px" viewBox="0 0 24 24" version="1.1" xmlns="http://www.w3.org/2000/svg" xmlns:xlink="http://www.w3.org/1999/xlink">
    <title>Icon/GridView-Square/Bulk</title>
    <defs>
        <path d="M5,0 L59,0 C61.7614237,-8.8817842e-16 64,2.23857625 64,5 L64,203 C64,205.761424 61.7614237,208 59,208 L5,208 C2.23857625,208 0,205.761424 0,203 L0,5 C0,2.23857625 2.23857625,0 5,0 Z" id="path-1"></path>
        <path d="M0,0 L24,0 L24,24 L0,24 L0,0 Z" id="path-2"></path>
    </defs>
    <g id="Icons" stroke="none" stroke-width="1" fill="none" fill-rule="evenodd">
        <g id="View-Controls" transform="translate(-268, -578)" fill-rule="nonzero">
            <g id="Grid-View-Square" transform="translate(248, 414)" xlink:href="#path-1">
                <g id="Icon/GridView-Square/Bulk" transform="translate(20, 164)" xlink:href="#path-2">
                    <path d="M22,7.80999994 L22,14.5 L12,14.5 L12,2 L16.1900005,2 C19.8300006,2 22,4.16999984 22,7.80999994 Z" id="Vector" fill="CURRENTCOLOR" opacity="0.600000024"></path>
                    <path d="M12,9.5 L12,22 L7.80999994,22 C4.16999984,22 2,19.8300006 2,16.1900005 L2,9.5 L12,9.5 Z" id="Vector" fill="CURRENTCOLOR"></path>
                    <path d="M12,2 L12,9.5 L2,9.5 L2,7.80999994 C2,4.16999984 4.16999984,2 7.80999994,2 L12,2 Z" id="Vector" fill="CURRENTCOLOR" opacity="0.400000006"></path>
                    <path d="M22,14.5 L22,16.1900005 C22,19.8300006 19.8300006,22 16.1900005,22 L12,22 L12,14.5 L22,14.5 Z" id="Vector" fill="CURRENTCOLOR" opacity="0.400000006"></path>
                    <polygon id="Vector" opacity="0" points="0 0 24 0 24 24 0 24"></polygon>
                </g>
            </g>
        </g>
    </g>
</svg>