<?xml version="1.0" encoding="UTF-8"?>
<svg width="24px" height="24px" viewBox="0 0 24 24" version="1.1" xmlns="http://www.w3.org/2000/svg" xmlns:xlink="http://www.w3.org/1999/xlink">
    <title>Icon/Download/Outline</title>
    <defs>
        <path d="M5,0 L59,0 C61.7614237,-8.8817842e-16 64,2.23857625 64,5 L64,203 C64,205.761424 61.7614237,208 59,208 L5,208 C2.23857625,208 0,205.761424 0,203 L0,5 C0,2.23857625 2.23857625,0 5,0 Z" id="path-1"></path>
        <path d="M0,0 L24,0 L24,24 L0,24 L0,0 Z" id="path-2"></path>
    </defs>
    <g id="Icons" stroke="none" stroke-width="1" fill="none" fill-rule="evenodd">
        <g id="Basic-Actions" transform="translate(-168, -434)" fill-rule="nonzero">
            <g id="Download" transform="translate(148, 414)" xlink:href="#path-1">
                <g id="Icon/Download/Outline" transform="translate(20, 20)" xlink:href="#path-2">
                    <path d="M15.2604694,22.2499952 L8.7404685,22.2499952 C3.83046865,22.2499952 1.73046875,20.1499949 1.73046875,15.239995 L1.73046875,15.1099949 C1.73046875,10.6699948 3.48046875,8.52999507 7.40046883,8.15999506 C7.80046883,8.12999507 8.180469,8.42999539 8.220469,8.83999538 C8.260469,9.24999538 7.96046868,9.61999508 7.54046869,9.65999508 C4.40046859,9.94999507 3.23046875,11.4299951 3.23046875,15.1199951 L3.23046875,15.2499952 C3.23046875,19.3199954 4.67046833,20.7599955 8.7404685,20.7599955 L15.2604694,20.7599955 C19.3304696,20.7599955 20.7704697,19.3199954 20.7704697,15.2499952 L20.7704697,15.1199951 C20.7704697,11.4099951 19.5804684,9.92999509 16.3804684,9.65999508 C15.9704684,9.61999508 15.6604681,9.25999561 15.7004681,8.84999561 C15.7404681,8.43999562 16.0904694,8.12999529 16.5104694,8.16999529 C20.4904695,8.5099953 22.2704697,10.6599956 22.2704697,15.1299953 L22.2704697,15.2599955 C22.2704697,20.1499953 20.1704693,22.2499952 15.2604694,22.2499952 Z" id="Vector" fill="CURRENTCOLOR"></path>
                    <path d="M12,15.6300001 C11.59,15.6300001 11.25,15.2900001 11.25,14.8800001 L11.25,2 C11.25,1.59 11.59,1.25 12,1.25 C12.41,1.25 12.75,1.59 12.75,2 L12.75,14.8800001 C12.75,15.3000001 12.41,15.6300001 12,15.6300001 Z" id="Vector" fill="CURRENTCOLOR"></path>
                    <path d="M12,16.7500005 C11.81,16.7500005 11.62,16.6800012 11.47,16.5300012 L8.11999968,13.1800005 C7.82999969,12.8900006 7.82999969,12.4100001 8.11999968,12.1200002 C8.40999967,11.8300002 8.89000008,11.8300002 9.18000007,12.1200002 L12,14.9399998 L14.8199997,12.1200002 C15.1099997,11.8300002 15.5900001,11.8300002 15.8800001,12.1200002 C16.1700001,12.4100001 16.1700001,12.8900006 15.8800001,13.1800005 L12.5299997,16.5300012 C12.3799997,16.6800012 12.19,16.7500005 12,16.7500005 Z" id="Vector" fill="CURRENTCOLOR"></path>
                    <polygon id="Vector" opacity="0" points="0 0 24 0 24 24 0 24"></polygon>
                </g>
            </g>
        </g>
    </g>
</svg>