<?xml version="1.0" encoding="UTF-8"?>
<svg width="24px" height="24px" viewBox="0 0 24 24" version="1.1" xmlns="http://www.w3.org/2000/svg" xmlns:xlink="http://www.w3.org/1999/xlink">
    <title>Icon/Download/Bulk</title>
    <defs>
        <path d="M5,0 L59,0 C61.7614237,-8.8817842e-16 64,2.23857625 64,5 L64,203 C64,205.761424 61.7614237,208 59,208 L5,208 C2.23857625,208 0,205.761424 0,203 L0,5 C0,2.23857625 2.23857625,0 5,0 Z" id="path-1"></path>
        <path d="M0,0 L24,0 L24,24 L0,24 L0,0 Z" id="path-2"></path>
    </defs>
    <g id="Icons" stroke="none" stroke-width="1" fill="none" fill-rule="evenodd">
        <g id="Basic-Actions" transform="translate(-168, -578)" fill-rule="nonzero">
            <g id="Download" transform="translate(148, 414)" xlink:href="#path-1">
                <g id="Icon/Download/Bulk" transform="translate(20, 164)" xlink:href="#path-2">
                    <path d="M16.7999992,9 L7.19999981,9 C4,9 2,11 2,14.1999998 L2,16.7900009 C2,20 4,22 7.19999981,22 L16.7900009,22 C19.990001,22 21.9900379,20 21.9900379,16.7999992 L21.9900379,14.1999998 C22,11 20,9 16.7999992,9 Z" id="Vector" fill="CURRENTCOLOR" opacity="0.400000006"></path>
                    <path d="M15.8800001,12.4300003 L12.5299997,15.7799997 C12.2399997,16.0699997 11.76,16.0699997 11.47,15.7799997 L8.11999968,12.4300003 C7.82999969,12.1400003 7.82999969,11.6599999 8.11999968,11.3699999 C8.40999967,11.0799999 8.89000008,11.0799999 9.18000007,11.3699999 L11.2499998,13.4399996 L11.2499998,2.75 C11.2499998,2.34 11.59,2 12,2 C12.41,2 12.75,2.34 12.75,2.75 L12.75,13.4399996 L14.8199997,11.3699999 C14.9699997,11.2199999 15.1600004,11.1499996 15.3500004,11.1499996 C15.5400004,11.1499996 15.7300001,11.2199999 15.8800001,11.3699999 C16.1800001,11.6599999 16.1800001,12.1300003 15.8800001,12.4300003 Z" id="Vector" fill="CURRENTCOLOR"></path>
                    <polygon id="Vector" opacity="0" points="0 0 24 0 24 24 0 24"></polygon>
                </g>
            </g>
        </g>
    </g>
</svg>