<?xml version="1.0" encoding="UTF-8"?>
<svg width="24px" height="24px" viewBox="0 0 24 24" version="1.1" xmlns="http://www.w3.org/2000/svg" xmlns:xlink="http://www.w3.org/1999/xlink">
    <title>Icon/Notification-status-left/Bold</title>
    <defs>
        <path d="M5,0 L59,0 C61.7614237,-8.8817842e-16 64,2.23857625 64,5 L64,203 C64,205.761424 61.7614237,208 59,208 L5,208 C2.23857625,208 0,205.761424 0,203 L0,5 C0,2.23857625 2.23857625,0 5,0 Z" id="path-1"></path>
        <path d="M0,0 L24,0 L24,24 L0,24 L0,0 Z" id="path-2"></path>
    </defs>
    <g id="Icons" stroke="none" stroke-width="1" fill="none" fill-rule="evenodd">
        <g id="Basic-System-feedback" transform="translate(-584, -282)" fill="CURRENTCOLOR" fill-rule="nonzero">
            <g id="Notification-status-Left" transform="translate(564, 166)" xlink:href="#path-1">
                <g id="Icon/Notification-status-left/Bold" transform="translate(20, 116)" xlink:href="#path-2">
                    <path d="M22,5 C22,6.65685427 20.6568543,8 19,8 C17.3431457,8 16,6.65685427 16,5 C16,3.34314573 17.3431457,2 19,2 C20.6568543,2 22,3.34314573 22,5 Z" id="Vector"></path>
                    <path d="M19.7999992,9.42000008 C19.7799992,9.42000008 19.7599998,9.43000031 19.7399998,9.43000031 C19.6399998,9.4500003 19.5400003,9.45999954 19.4300003,9.47999954 C19.0100003,9.51999954 18.5600004,9.5 18.1000004,9.40999985 C17.9800004,9.37999985 17.8800005,9.35999969 17.7700005,9.31999969 C17.4400004,9.2399997 17.1300001,9.10999958 16.8400002,8.93999958 C16.7200002,8.87999958 16.5999998,8.79999954 16.4899998,8.72999954 C16.0099998,8.39999953 15.6000005,7.99000022 15.2700005,7.51000023 C15.2000005,7.40000023 15.1200004,7.27999984 15.0600004,7.15999985 C14.8900004,6.86999986 14.7600003,6.56000003 14.6800003,6.23000002 C14.6400003,6.12000002 14.6200002,6.02000009 14.5900002,5.9000001 C14.5,5.44000009 14.4800005,4.99000016 14.5200005,4.57000017 C14.5400005,4.46000017 14.5499997,4.36000023 14.5699997,4.26000023 C14.5699997,4.24000023 14.5799999,4.21999981 14.5799999,4.19999981 C14.6999999,3.5799998 14.2400004,3 13.6000004,3 L7.51999998,3 C7.37999998,3 7.24000013,3.00999998 7.11000013,3.01999998 C6.99000014,3.02999998 6.88000023,3.03999994 6.76000023,3.05999994 C6.64000023,3.06999994 6.51999985,3.0899999 6.40999985,3.1099999 C4,3.45999989 2.45999989,4.98999977 2.1099999,7.40999985 C2.0899999,7.51999985 2.06999994,7.64000023 2.05999994,7.76000023 C2.03999994,7.88000023 2.02999998,7.98999966 2.01999998,8.10999966 C2.00999998,8.23999965 2,8.38000046 2,8.52000046 L2,16.4799995 C2,16.6199995 2.00999998,16.7599994 2.01999998,16.8899994 C2.02999998,17.0099994 2.03999994,17.1199998 2.05999994,17.2399998 C2.06999994,17.3599998 2.0899999,17.4800002 2.1099999,17.5900002 C2.45999989,20.0100002 4,21.5399994 6.40999985,21.8899994 C6.51999985,21.9099994 6.64000023,21.9300005 6.76000023,21.9400005 C6.88000023,21.9600005 6.99000014,21.9699995 7.11000013,21.9799995 C7.24000013,21.9899995 7.37999998,22 7.51999998,22 L15.4799995,22 C15.6199995,22 15.7600003,21.9899995 15.8900003,21.9799995 C16.0100003,21.9699995 16.1199998,21.9600005 16.2399998,21.9400005 C16.3599998,21.9300005 16.4800002,21.9099994 16.5900002,21.8899994 C19,21.5399994 20.5399994,20.0100002 20.8899994,17.5900002 C20.9099994,17.4800002 20.9300005,17.3599998 20.9400005,17.2399998 C20.9600005,17.1199998 20.9699995,17.0099994 20.9799995,16.8899994 C20.9899995,16.7599994 21,16.6199995 21,16.4799995 L21,10.3999996 C21,9.75999963 20.4199992,9.30000008 19.7999992,9.42000008 Z M6.75,12.5 L11.75,12.5 C12.16,12.5 12.5,12.84 12.5,13.25 C12.5,13.66 12.16,14 11.75,14 L6.75,14 C6.34,14 6,13.66 6,13.25 C6,12.84 6.34,12.5 6.75,12.5 Z M15.75,18 L6.75,18 C6.34,18 6,17.66 6,17.25 C6,16.84 6.34,16.5 6.75,16.5 L15.75,16.5 C16.16,16.5 16.5,16.84 16.5,17.25 C16.5,17.66 16.16,18 15.75,18 Z" id="Vector"></path>
                </g>
            </g>
        </g>
    </g>
</svg>