<?xml version="1.0" encoding="UTF-8"?>
<svg width="24px" height="24px" viewBox="0 0 24 24" version="1.1" xmlns="http://www.w3.org/2000/svg" xmlns:xlink="http://www.w3.org/1999/xlink">
    <title>Icon/Notification-status-left/Linear</title>
    <defs>
        <path d="M5,0 L59,0 C61.7614237,-8.8817842e-16 64,2.23857625 64,5 L64,203 C64,205.761424 61.7614237,208 59,208 L5,208 C2.23857625,208 0,205.761424 0,203 L0,5 C0,2.23857625 2.23857625,0 5,0 Z" id="path-1"></path>
        <path d="M0,0 L24,0 L24,24 L0,24 L0,0 Z" id="path-2"></path>
    </defs>
    <g id="Icons" stroke="none" stroke-width="1" fill="none" fill-rule="evenodd" stroke-linecap="round" stroke-linejoin="round">
        <g id="Basic-System-feedback" transform="translate(-584, -234)" fill-rule="nonzero" stroke="CURRENTCOLOR" stroke-width="1.5">
            <g id="Notification-status-Left" transform="translate(564, 166)" xlink:href="#path-1">
                <g id="Icon/Notification-status-left/Linear" transform="translate(20, 68)" xlink:href="#path-2">
                    <path d="M22,5 C22,6.65685427 20.6568543,8 19,8 C17.3431457,8 16,6.65685427 16,5 C16,3.34314573 17.3431457,2 19,2 C20.6568543,2 22,3.34314573 22,5 Z" id="Vector"></path>
                    <line x1="7" y1="13" x2="12" y2="13" id="Vector"></line>
                    <line x1="7" y1="17" x2="16" y2="17" id="Vector"></line>
                    <path d="M14,2 L9,2 C2,2 2,2 2,9 L2,15 C2,20 2,22 9,22 L15,22 C20,22 22,20 22,15 L22,10" id="Vector"></path>
                </g>
            </g>
        </g>
    </g>
</svg>