<?xml version="1.0" encoding="UTF-8"?>
<svg width="24px" height="24px" viewBox="0 0 24 24" version="1.1" xmlns="http://www.w3.org/2000/svg" xmlns:xlink="http://www.w3.org/1999/xlink">
    <title>Icon/Notification-status-left/Outline</title>
    <defs>
        <path d="M5,0 L59,0 C61.7614237,-8.8817842e-16 64,2.23857625 64,5 L64,203 C64,205.761424 61.7614237,208 59,208 L5,208 C2.23857625,208 0,205.761424 0,203 L0,5 C0,2.23857625 2.23857625,0 5,0 Z" id="path-1"></path>
        <path d="M0,0 L24,0 L24,24 L0,24 L0,0 Z" id="path-2"></path>
    </defs>
    <g id="Icons" stroke="none" stroke-width="1" fill="none" fill-rule="evenodd">
        <g id="Basic-System-feedback" transform="translate(-584, -186)" fill="CURRENTCOLOR" fill-rule="nonzero">
            <g id="Notification-status-Left" transform="translate(564, 166)" xlink:href="#path-1">
                <g id="Icon/Notification-status-left/Outline" transform="translate(20, 20)" xlink:href="#path-2">
                    <path d="M21.25,5 C21.25,3.75735927 20.2426407,2.75 19,2.75 C17.7573593,2.75 16.75,3.75735927 16.75,5 C16.75,6.24264073 17.7573593,7.25 19,7.25 C20.2426407,7.25 21.25,6.24264073 21.25,5 Z M22.75,5 C22.75,7.07106781 21.0710678,8.75 19,8.75 C16.9289322,8.75 15.25,7.07106781 15.25,5 C15.25,2.92893219 16.9289322,1.25 19,1.25 C21.0710678,1.25 22.75,2.92893219 22.75,5 Z" id="Vector-(Stroke)"></path>
                    <path d="M12,12.25 C12.4142136,12.25 12.75,12.5857864 12.75,13 C12.75,13.4142136 12.4142136,13.75 12,13.75 L7,13.75 C6.58578643,13.75 6.25,13.4142136 6.25,13 C6.25,12.5857864 6.58578643,12.25 7,12.25 L12,12.25 Z" id="Vector-(Stroke)"></path>
                    <path d="M16,16.25 C16.4142136,16.25 16.75,16.5857864 16.75,17 C16.75,17.4142136 16.4142136,17.75 16,17.75 L7,17.75 C6.58578643,17.75 6.25,17.4142136 6.25,17 C6.25,16.5857864 6.58578643,16.25 7,16.25 L16,16.25 Z" id="Vector-(Stroke)"></path>
                    <path d="M1.25,15 L1.25,9 C1.25,6.42602777 1.76025784,4.42919528 3.09472656,3.09472656 C4.42919528,1.76025784 6.42602777,1.25 9,1.25 L14,1.25 C14.4142136,1.25 14.75,1.58578643 14.75,2 C14.75,2.41421357 14.4142136,2.75 14,2.75 L9,2.75 C6.57397223,2.75 5.07080472,3.23974216 4.15527344,4.15527344 C3.23974216,5.07080472 2.75,6.57397223 2.75,9 L2.75,15 C2.75,17.4260278 3.23974216,18.9291953 4.15527344,19.8447266 C5.07080472,20.7602578 6.57397223,21.25 9,21.25 L15,21.25 C17.4260278,21.25 18.9291953,20.7602578 19.8447266,19.8447266 C20.7602578,18.9291953 21.25,17.4260278 21.25,15 L21.25,10 C21.25,9.58578643 21.5857864,9.25 22,9.25 C22.4142136,9.25 22.75,9.58578643 22.75,10 L22.75,15 C22.75,17.5739722 22.2397422,19.5708047 20.9052734,20.9052734 C19.5708047,22.2397422 17.5739722,22.75 15,22.75 L9,22.75 C6.42602777,22.75 4.42919528,22.2397422 3.09472656,20.9052734 C1.76025784,19.5708047 1.25,17.5739722 1.25,15 Z" id="Vector-(Stroke)"></path>
                </g>
            </g>
        </g>
    </g>
</svg>