<?xml version="1.0" encoding="UTF-8"?>
<svg width="24px" height="24px" viewBox="0 0 24 24" version="1.1" xmlns="http://www.w3.org/2000/svg" xmlns:xlink="http://www.w3.org/1999/xlink">
    <title>Icon/Sort-circle/Linear</title>
    <defs>
        <path d="M5,0 L59,0 C61.7614237,-8.8817842e-16 64,2.23857625 64,5 L64,203 C64,205.761424 61.7614237,208 59,208 L5,208 C2.23857625,208 0,205.761424 0,203 L0,5 C0,2.23857625 2.23857625,0 5,0 Z" id="path-1"></path>
        <path d="M0,0 L24,0 L24,24 L0,24 L0,0 Z" id="path-2"></path>
    </defs>
    <g id="Icons" stroke="none" stroke-width="1" fill="none" fill-rule="evenodd">
        <g id="View-Controls" transform="translate(-684, -234)" fill-rule="nonzero" stroke="CURRENTCOLOR">
            <g id="Sort-circle" transform="translate(664, 166)" xlink:href="#path-1">
                <g id="Icon/Sort-circle/Linear" transform="translate(20, 68)" xlink:href="#path-2">
                    <g id="Vector" fill-rule="evenodd" stroke-width="1" transform="translate(14, 4)">
                        <path d="M0,3 C0,1.34314585 1.34314585,0 3,0 C4.65685415,0 6,1.34314585 6,3 C6,4.65685415 4.65685415,6 3,6 C1.34314585,6 0,4.65685415 0,3 Z" stroke-width="1.5" fill-rule="nonzero"></path>
                        <path d="M0,13 C0,11.3431458 1.34314585,10 3,10 C4.65685415,10 6,11.3431458 6,13 C6,14.6568542 4.65685415,16 3,16 C1.34314585,16 0,14.6568542 0,13 Z" stroke-width="1.5" fill-rule="nonzero"></path>
                    </g>
                    <line x1="7" y1="5.11999989" x2="7" y2="19" id="Vector" stroke-width="1.5" stroke-linecap="round" stroke-linejoin="round" fill-rule="nonzero" transform="translate(7.05, 12.06) scale(1, -1) translate(-7.05, -12.06)"></line>
                    <polyline id="Vector" stroke-width="1.5" stroke-linecap="round" stroke-linejoin="round" fill-rule="nonzero" transform="translate(7.0004, 5.6751) scale(1, -1) translate(-7.0004, -5.6751)" points="10.3503914 4.00009727 7.00039101 7.35009766 3.65039062 4.00009727"></polyline>
                    <polyline id="Vector" stroke-width="1.5" stroke-linecap="round" stroke-linejoin="round" fill-rule="nonzero" points="10.3503914 16.6499023 7.00039101 19.9999027 3.65039062 16.6499023"></polyline>
                </g>
            </g>
        </g>
    </g>
</svg>