<?xml version="1.0" encoding="UTF-8"?>
<svg width="24px" height="24px" viewBox="0 0 24 24" version="1.1" xmlns="http://www.w3.org/2000/svg" xmlns:xlink="http://www.w3.org/1999/xlink">
    <title>Icon/Sort-circle/Outline</title>
    <defs>
        <path d="M5,0 L59,0 C61.7614237,-8.8817842e-16 64,2.23857625 64,5 L64,203 C64,205.761424 61.7614237,208 59,208 L5,208 C2.23857625,208 0,205.761424 0,203 L0,5 C0,2.23857625 2.23857625,0 5,0 Z" id="path-1"></path>
        <path d="M0,0 L24,0 L24,24 L0,24 L0,0 Z" id="path-2"></path>
    </defs>
    <g id="Icons" stroke="none" stroke-width="1" fill="none" fill-rule="evenodd">
        <g id="View-Controls" transform="translate(-684, -186)" fill="CURRENTCOLOR" fill-rule="nonzero">
            <g id="Sort-circle" transform="translate(664, 166)" xlink:href="#path-1">
                <g id="Icon/Sort-circle/Outline" transform="translate(20, 20)" xlink:href="#path-2">
                    <path d="M19.25,17 C19.25,15.7573594 18.2426406,14.75 17,14.75 C15.7573594,14.75 14.75,15.7573594 14.75,17 C14.75,18.2426406 15.7573594,19.25 17,19.25 C18.2426406,19.25 19.25,18.2426406 19.25,17 Z M19.25,7 C19.25,5.75735939 18.2426406,4.75 17,4.75 C15.7573594,4.75 14.75,5.75735939 14.75,7 C14.75,8.24264061 15.7573594,9.25 17,9.25 C18.2426406,9.25 19.25,8.24264061 19.25,7 Z M20.75,17 C20.75,19.0710678 19.0710678,20.75 17,20.75 C14.9289322,20.75 13.25,19.0710678 13.25,17 C13.25,14.9289322 14.9289322,13.25 17,13.25 C19.0710678,13.25 20.75,14.9289322 20.75,17 Z M20.75,7 C20.75,9.07106781 19.0710678,10.75 17,10.75 C14.9289322,10.75 13.25,9.07106781 13.25,7 C13.25,4.92893219 14.9289322,3.25 17,3.25 C19.0710678,3.25 20.75,4.92893219 20.75,7 Z" id="Vector-(Stroke)"></path>
                    <path d="M6.25,19 L6.25,5.12011719 C6.25,4.70590362 6.58578643,4.37011719 7,4.37011719 C7.41421357,4.37011719 7.75,4.70590362 7.75,5.12011719 L7.75,19 C7.75,19.4142136 7.41421357,19.75 7,19.75 C6.58578643,19.75 6.25,19.4142136 6.25,19 Z" id="Vector-(Stroke)" transform="translate(7, 12.0601) scale(1, -1) translate(-7, -12.0601)"></path>
                    <path d="M9.82025576,3.47014962 C10.1131568,3.1773537 10.5879419,3.17728885 10.8808026,3.47014962 C11.1735662,3.76301827 11.1735662,4.23782787 10.8808026,4.53069651 L7.53021669,7.88030577 C7.23732346,8.173199 6.76256305,8.173199 6.46966982,7.88030577 L3.12006055,4.53069651 C2.82716732,4.23780328 2.82716732,3.76304285 3.12006055,3.47014962 C3.41295378,3.17725639 3.88771421,3.17725639 4.18060744,3.47014962 L6.99994326,6.28948545 L9.82025576,3.47014962 Z" id="Vector-(Stroke)" transform="translate(7.0004, 5.6752) scale(1, -1) translate(-7.0004, -5.6752)"></path>
                    <path d="M9.82025576,16.1196943 C10.1131568,15.8268984 10.5879419,15.8268336 10.8808026,16.1196943 C11.1735662,16.412563 11.1735662,16.8873726 10.8808026,17.1802412 L7.53021669,20.5298505 C7.23732346,20.8227437 6.76256305,20.8227437 6.46966982,20.5298505 L3.12006055,17.1802412 C2.82716732,16.887348 2.82716732,16.4125876 3.12006055,16.1196943 C3.41295378,15.8268011 3.88771421,15.8268011 4.18060744,16.1196943 L6.99994326,18.9390302 L9.82025576,16.1196943 Z" id="Vector-(Stroke)"></path>
                </g>
            </g>
        </g>
    </g>
</svg>