<?xml version="1.0" encoding="UTF-8"?>
<svg width="24px" height="24px" viewBox="0 0 24 24" version="1.1" xmlns="http://www.w3.org/2000/svg" xmlns:xlink="http://www.w3.org/1999/xlink">
    <title>Icon/Sort-circle/Bulk</title>
    <defs>
        <path d="M5,0 L59,0 C61.7614237,-8.8817842e-16 64,2.23857625 64,5 L64,203 C64,205.761424 61.7614237,208 59,208 L5,208 C2.23857625,208 0,205.761424 0,203 L0,5 C0,2.23857625 2.23857625,0 5,0 Z" id="path-1"></path>
        <path d="M0,0 L24,0 L24,24 L0,24 L0,0 Z" id="path-2"></path>
    </defs>
    <g id="Icons" stroke="none" stroke-width="1" fill="none" fill-rule="evenodd">
        <g id="View-Controls" transform="translate(-684, -330)" fill-rule="nonzero">
            <g id="Sort-circle" transform="translate(664, 166)" xlink:href="#path-1">
                <g id="Icon/Sort-circle/Bulk" transform="translate(20, 164)" xlink:href="#path-2">
                    <rect id="Rectangle-319" fill="CURRENTCOLOR" opacity="0.400000006" x="14" y="4" width="6" height="6" rx="3"></rect>
                    <rect id="Rectangle-320" fill="CURRENTCOLOR" opacity="0.400000006" x="14" y="14" width="6" height="6" rx="3"></rect>
                    <line x1="7" y1="5.11975574" x2="7" y2="18.9997559" id="Vector" stroke="CURRENTCOLOR" stroke-width="1.5" stroke-linecap="round" stroke-linejoin="round" transform="translate(7.05, 12.0598) scale(1, -1) translate(-7.05, -12.0598)"></line>
                    <polyline id="Vector" stroke="CURRENTCOLOR" stroke-width="1.5" stroke-linecap="round" stroke-linejoin="round" transform="translate(7.0004, 5.6749) scale(1, -1) translate(-7.0004, -5.6749)" points="10.3503914 3.99985313 7.00039101 7.34985352 3.65039062 3.99985313"></polyline>
                    <polyline id="Vector" stroke="CURRENTCOLOR" stroke-width="1.5" stroke-linecap="round" stroke-linejoin="round" points="10.3503914 16.6497803 7.00039101 19.9997807 3.65039062 16.6497803"></polyline>
                </g>
            </g>
        </g>
    </g>
</svg>