<?xml version="1.0" encoding="UTF-8"?>
<svg width="24px" height="24px" viewBox="0 0 24 24" version="1.1" xmlns="http://www.w3.org/2000/svg" xmlns:xlink="http://www.w3.org/1999/xlink">
    <title>Icon/Bag/Linear</title>
    <defs>
        <path d="M5,0 L59,0 C61.7614237,-8.8817842e-16 64,2.23857625 64,5 L64,203 C64,205.761424 61.7614237,208 59,208 L5,208 C2.23857625,208 0,205.761424 0,203 L0,5 C0,2.23857625 2.23857625,0 5,0 Z" id="path-1"></path>
        <path d="M0,0 L24,0 L24,24 L0,24 L0,0 Z" id="path-2"></path>
    </defs>
    <g id="Icons" stroke="none" stroke-width="1" fill="none" fill-rule="evenodd">
        <g id="Shop" transform="translate(-792, -233)" fill-rule="nonzero" stroke="CURRENTCOLOR">
            <g id="bag" transform="translate(772, 165)" xlink:href="#path-1">
                <g id="Icon/Bag/Linear" transform="translate(20, 68)" xlink:href="#path-2" fill-rule="evenodd">
                    <g id="Group" transform="translate(2, 1)">
                        <path d="M5,5.66170788 L5,4.69170761 C5,2.44170761 7.01111158,0.231707964 9.51111158,0.0217079706 C12.4888894,-0.23829202 15,1.87170792 15,4.50170803 L15,5.88170767" id="Vector" stroke-width="1.5" stroke-linecap="round" stroke-linejoin="round" fill-rule="nonzero"></path>
                        <path d="M0,7.84170794 C0,5.99170792 0.989999771,5.84170794 2.21999979,5.84170794 L17.7800007,5.84170794 C19.0100007,5.84170794 20,5.99170792 20,7.84170794 C20,9.99170804 19.0100007,9.84170794 17.7800007,9.84170794 L2.21999979,9.84170794 C0.989999771,9.84170794 0,9.99170804 0,7.84170794 Z" id="Vector" stroke-width="1.5" fill-rule="nonzero"></path>
                        <line x1="7.76000023" y1="13.991708" x2="7.76000023" y2="17.5417073" id="Vector" stroke-width="1.5" stroke-linecap="round" fill-rule="nonzero"></line>
                        <line x1="12.3599997" y1="13.991708" x2="12.3599997" y2="17.5417073" id="Vector" stroke-width="1.5" stroke-linecap="round" fill-rule="nonzero"></line>
                        <path d="M1.5,9.99170804 L2.90999985,18.6317074 C3.22999984,20.5717075 4,21.991708 6.85999966,21.991708 L12.8900003,21.991708 C16,21.991708 16.4599997,20.6317083 16.8199997,18.7517083 L18.5,9.99170804" id="Vector" stroke-width="1.5" stroke-linecap="round" fill-rule="nonzero"></path>
                    </g>
                </g>
            </g>
        </g>
    </g>
</svg>