<?xml version="1.0" encoding="UTF-8"?>
<svg width="24px" height="24px" viewBox="0 0 24 24" version="1.1" xmlns="http://www.w3.org/2000/svg" xmlns:xlink="http://www.w3.org/1999/xlink">
    <title>Icon/Bag/Outline</title>
    <defs>
        <path d="M5,0 L59,0 C61.7614237,-8.8817842e-16 64,2.23857625 64,5 L64,203 C64,205.761424 61.7614237,208 59,208 L5,208 C2.23857625,208 0,205.761424 0,203 L0,5 C0,2.23857625 2.23857625,0 5,0 Z" id="path-1"></path>
        <path d="M0,0 L24,0 L24,24 L0,24 L0,0 Z" id="path-2"></path>
    </defs>
    <g id="Icons" stroke="none" stroke-width="1" fill="none" fill-rule="evenodd">
        <g id="Shop" transform="translate(-792, -185)" fill="CURRENTCOLOR" fill-rule="nonzero">
            <g id="bag" transform="translate(772, 165)" xlink:href="#path-1">
                <g id="Icon/Bag/Outline" transform="translate(20, 20)" xlink:href="#path-2" fill-rule="evenodd">
                    <g id="Group" transform="translate(1, 0)">
                        <path d="M16.5,5.25156939 L16.5,6.63156902 C16.5,7.04578259 16.1642136,7.38156902 15.75,7.38156902 C15.3357864,7.38156902 15,7.04578259 15,6.63156902 L15,5.25156939 C15,3.06007617 12.8602787,1.29748057 10.3238905,1.51893725 C8.25315954,1.69287864 6.5,3.54220764 6.5,5.44156897 L6.5,6.41156923 C6.5,6.8257828 6.16421356,7.16156923 5.75,7.16156923 C5.33578644,7.16156923 5,6.8257828 5,6.41156923 L5,5.44156897 C5,2.75236163 7.36029112,0.262596889 10.1958747,0.0244119465 C13.5719793,-0.270367318 16.5,2.14159003 16.5,5.25156939 Z" id="Vector" fill-rule="nonzero"></path>
                        <path d="M21.5,8.59986126 C21.5,9.77051042 21.2297181,10.5399945 20.6009723,10.9765881 C20.1203371,11.3103354 19.7289132,11.3584899 18.747298,11.3509638 C18.6377978,11.35013 18.6377978,11.35013 18.5300007,11.3498613 L2.96999979,11.3498613 C2.8622027,11.35013 2.8622027,11.35013 2.75270248,11.3509638 C1.77108728,11.3584899 1.3796633,11.3103354 0.899028046,10.9765881 C0.270282047,10.5399946 0,9.77051043 0,8.59986126 C0,6.51388123 0.991397136,5.84986126 2.96999979,5.84986126 L18.5300007,5.84986126 C20.5086032,5.84986126 21.5,6.51388123 21.5,8.59986126 Z M2.96999979,7.34986126 C1.72255606,7.34986126 1.5,7.49892531 1.5,8.59986126 C1.5,9.32903102 1.61088832,9.64472644 1.75457468,9.7445005 C1.8762604,9.82899758 2.09541749,9.85595915 2.74120213,9.85100784 C2.85277802,9.8501548 2.85277802,9.8501548 2.96999979,9.84986126 L18.5300007,9.84986126 C18.6472225,9.8501548 18.6472225,9.8501548 18.7587983,9.85100784 C19.4045829,9.85595915 19.6237398,9.82899759 19.7454254,9.74450056 C19.8891117,9.64472654 20,9.32903108 20,8.59986126 C20,7.49892518 19.7774442,7.34986126 18.5300007,7.34986126 L2.96999979,7.34986126 Z" id="Vector" fill-rule="nonzero"></path>
                        <path d="M9.26000023,14.7498614 L9.26000023,18.2998606 C9.26000023,18.7140742 8.92421379,19.0498606 8.51000023,19.0498606 C8.09578667,19.0498606 7.76000023,18.7140742 7.76000023,18.2998606 L7.76000023,14.7498614 C7.76000023,14.3356478 8.09578667,13.9998614 8.51000023,13.9998614 C8.92421379,13.9998614 9.26000023,14.3356478 9.26000023,14.7498614 Z" id="Vector" fill-rule="nonzero"></path>
                        <path d="M13.8599997,14.7498614 L13.8599997,18.2998606 C13.8599997,18.7140742 13.5242132,19.0498606 13.1099997,19.0498606 C12.6957861,19.0498606 12.3599997,18.7140742 12.3599997,18.2998606 L12.3599997,14.7498614 C12.3599997,14.3356478 12.6957861,13.9998614 13.1099997,13.9998614 C13.5242132,13.9998614 13.8599997,14.3356478 13.8599997,14.7498614 Z" id="Vector" fill-rule="nonzero"></path>
                        <path d="M19.3912613,10.0132847 C19.7980614,10.0913011 20.0645932,10.4843226 19.9865767,10.8911227 L18.3066161,19.6509158 C17.7795561,22.4033401 16.7330936,23.4998614 13.6400003,23.4998614 L7.60999966,23.4998614 C4.66816053,23.4998614 3.35913738,22.1741978 2.91979185,19.5106586 L1.509792,10.8706592 C1.4430772,10.4618536 1.72039658,10.0763682 2.12920217,10.0096534 C2.53800776,9.94293856 2.9234932,10.2202579 2.990208,10.6290635 L4.40000044,19.2677988 C4.72764228,21.2541275 5.46401524,21.9998614 7.60999966,21.9998614 L13.6400003,21.9998614 C15.9289934,21.9998614 16.430114,21.4747691 16.833423,19.3686003 L18.5134233,10.6086 C18.5914398,10.2018 18.9844612,9.93526818 19.3912613,10.0132847 Z" id="Vector" fill-rule="nonzero"></path>
                    </g>
                </g>
            </g>
        </g>
    </g>
</svg>