<?xml version="1.0" encoding="UTF-8"?>
<svg width="24px" height="24px" viewBox="0 0 24 24" version="1.1" xmlns="http://www.w3.org/2000/svg" xmlns:xlink="http://www.w3.org/1999/xlink">
    <title>Icon/Bag/Bulk</title>
    <defs>
        <path d="M5,0 L59,0 C61.7614237,-8.8817842e-16 64,2.23857625 64,5 L64,203 C64,205.761424 61.7614237,208 59,208 L5,208 C2.23857625,208 0,205.761424 0,203 L0,5 C0,2.23857625 2.23857625,0 5,0 Z" id="path-1"></path>
        <path d="M0,0 L24,0 L24,24 L0,24 L0,0 Z" id="path-2"></path>
    </defs>
    <g id="Icons" stroke="none" stroke-width="1" fill="none" fill-rule="evenodd">
        <g id="Shop" transform="translate(-792, -329)" fill="CURRENTCOLOR" fill-rule="nonzero">
            <g id="bag" transform="translate(772, 165)" xlink:href="#path-1">
                <g id="Icon/Bag/Bulk" transform="translate(20, 164)" xlink:href="#path-2" fill-rule="evenodd">
                    <g id="Group" transform="translate(2, 1)">
                        <path d="M15.75,5.25156939 L15.75,6.63156902 C15.75,7.04578259 15.4142136,7.38156902 15,7.38156902 C14.5857864,7.38156902 14.25,7.04578259 14.25,6.63156902 L14.25,5.25156939 C14.25,3.06007617 12.1102787,1.29748057 9.57389048,1.51893725 C7.50315954,1.69287864 5.75,3.54220764 5.75,5.44156897 L5.75,6.41156923 C5.75,6.8257828 5.41421356,7.16156923 5,7.16156923 C4.58578644,7.16156923 4.25,6.8257828 4.25,6.41156923 L4.25,5.44156897 C4.25,2.75236163 6.61029112,0.262596889 9.44587471,0.0244119465 C12.8219793,-0.270367318 15.75,2.14159003 15.75,5.25156939 Z" id="Vector-Copy-2" fill-rule="nonzero"></path>
                        <path d="M17.2399998,5.3298614 L16.8400002,5.3298614 L14.8600006,5.3298614 L5.13999987,5.3298614 L3.17000008,5.3298614 L2.76999998,5.3298614 C1.87,5.3298614 0,5.3298614 0,7.88986182 C0,8.85986185 0.199999899,9.49986109 0.619999886,9.91986107 C0.85999988,10.1698611 1.15000004,10.2998609 1.46000004,10.3698609 C1.75000003,10.4398609 2.06000012,10.4498608 2.36000013,10.4498608 L17.6399994,10.4498608 C17.9499994,10.4498608 18.2400005,10.4298609 18.5200005,10.3698609 C19.3600004,10.1698609 20,9.56986177 20,7.88986182 C20,5.3298614 18.1299998,5.3298614 17.2399998,5.3298614 Z" id="Vector" fill-rule="nonzero" opacity="0.400000006"></path>
                        <path d="M17.6499987,10.4498612 L2.36000013,10.4498612 C2.06000012,10.4498612 1.75000003,10.4398612 1.46000004,10.3698612 L2.71999979,18.0498606 C2.99999979,19.7698606 3.75,21.7498614 7.07999992,21.7498614 L12.6899996,21.7498614 C16.0599995,21.7498614 16.6600004,20.0598614 17.0200005,18.1698614 L18.5299997,10.3698612 C18.2499997,10.4298612 17.9499987,10.4498612 17.6499987,10.4498612 Z M8.60999966,16.9098612 C8.60999966,17.2998612 8.29999983,17.609862 7.90999985,17.609862 C7.51999986,17.609862 7.21000004,17.2998612 7.21000004,16.9098612 L7.21000004,13.609861 C7.21000004,13.219861 7.51999986,12.9098612 7.90999985,12.9098612 C8.29999983,12.9098612 8.60999966,13.219861 8.60999966,13.609861 L8.60999966,16.9098612 Z M12.8900003,16.9098612 C12.8900003,17.2998612 12.5799996,17.609862 12.1899996,17.609862 C11.7999996,17.609862 11.4899998,17.2998612 11.4899998,16.9098612 L11.4899998,13.609861 C11.4899998,13.219861 11.7999996,12.9098612 12.1899996,12.9098612 C12.5799996,12.9098612 12.8900003,13.219861 12.8900003,13.609861 L12.8900003,16.9098612 Z" id="Vector" fill-rule="nonzero"></path>
                    </g>
                </g>
            </g>
        </g>
    </g>
</svg>