<?xml version="1.0" encoding="UTF-8"?>
<svg width="24px" height="24px" viewBox="0 0 24 24" version="1.1" xmlns="http://www.w3.org/2000/svg" xmlns:xlink="http://www.w3.org/1999/xlink">
    <title>Icon/Bag/Bold</title>
    <defs>
        <path d="M5,0 L59,0 C61.7614237,-8.8817842e-16 64,2.23857625 64,5 L64,203 C64,205.761424 61.7614237,208 59,208 L5,208 C2.23857625,208 0,205.761424 0,203 L0,5 C0,2.23857625 2.23857625,0 5,0 Z" id="path-1"></path>
        <path d="M0,0 L24,0 L24,24 L0,24 L0,0 Z" id="path-2"></path>
    </defs>
    <g id="Icons" stroke="none" stroke-width="1" fill="none" fill-rule="evenodd">
        <g id="Shop" transform="translate(-792, -281)" fill="CURRENTCOLOR" fill-rule="nonzero">
            <g id="bag" transform="translate(772, 165)" xlink:href="#path-1">
                <g id="Icon/Bag/Bold" transform="translate(20, 116)" xlink:href="#path-2" fill-rule="evenodd">
                    <g id="Group" transform="translate(2, 1)">
                        <path d="M16,5.50156193 L16,5.579 L17.3235293,5.57992518 C18.2129257,5.58213349 19.8909216,5.65279939 19.9949278,7.91410816 L20,8.13985436 C20,9.81985431 19.3600004,10.4198534 18.5200005,10.6198534 C18.2400005,10.6798534 17.9499994,10.6998534 17.6399994,10.6998534 L2.36000013,10.6998534 C2.06000012,10.6998534 1.75000003,10.6898534 1.46000004,10.6198534 C1.15000004,10.5498534 0.85999988,10.4198536 0.619999886,10.1698536 C0.199999899,9.74985363 0,9.10985439 0,8.13985436 C0,5.57985394 1.87,5.57985394 2.76999998,5.57985394 L4.002,5.579 L4.00482194,5.47505147 C4.12655923,2.7391026 6.53744508,0.267828189 9.42412908,0.0253520306 C12.9405961,-0.281682755 16,2.23850155 16,5.50156193 Z M9.59481678,2.01805243 C7.69294999,2.17780924 6.06981707,3.85103345 6.00219204,5.57975389 L14,5.579 L14,5.50156193 C14,3.46314974 11.991662,1.80878109 9.59481678,2.01805243 Z" id="Combined-Shape" fill-rule="nonzero"></path>
                        <path d="M17.0499995,11.9998539 L2.86999989,11.9998539 C2.24999988,11.9998539 1.7800001,12.5498537 1.8800001,13.1598537 L2.71999979,18.2998531 C2.99999979,20.0198532 3.74999976,21.9998539 7.07999969,21.9998539 L12.6899998,21.9998539 C16.0599997,21.9998539 16.6600007,20.309854 17.0200007,18.419854 L18.03,13.1898535 C18.15,12.5698535 17.6799995,11.9998539 17.0499995,11.9998539 Z M8.60999942,18.4498547 C8.60999942,18.8398546 8.29999983,19.1498535 7.91999984,19.1498535 C7.52999985,19.1498535 7.22000003,18.8398546 7.22000003,18.4498547 L7.22000003,15.1498535 C7.22000003,14.7698535 7.52999985,14.4498537 7.91999984,14.4498537 C8.29999983,14.4498537 8.60999942,14.7698535 8.60999942,15.1498535 L8.60999942,18.4498547 Z M12.8900006,18.4498547 C12.8900006,18.8398546 12.5799998,19.1498535 12.1899998,19.1498535 C11.8099998,19.1498535 11.49,18.8398546 11.49,18.4498547 L11.49,15.1498535 C11.49,14.7698535 11.8099998,14.4498537 12.1899998,14.4498537 C12.5799998,14.4498537 12.8900006,14.7698535 12.8900006,15.1498535 L12.8900006,18.4498547 Z" id="Vector" fill-rule="nonzero"></path>
                    </g>
                </g>
            </g>
        </g>
    </g>
</svg>