<?xml version="1.0" encoding="UTF-8"?>
<svg width="24px" height="24px" viewBox="0 0 24 24" version="1.1" xmlns="http://www.w3.org/2000/svg" xmlns:xlink="http://www.w3.org/1999/xlink">
    <title>Icon/Trash-common/Outline</title>
    <defs>
        <path d="M5,0 L59,0 C61.7614237,-8.8817842e-16 64,2.23857625 64,5 L64,203 C64,205.761424 61.7614237,208 59,208 L5,208 C2.23857625,208 0,205.761424 0,203 L0,5 C0,2.23857625 2.23857625,0 5,0 Z" id="path-1"></path>
        <path d="M0,0 L24,0 L24,24 L0,24 L0,0 Z" id="path-2"></path>
    </defs>
    <g id="Icons" stroke="none" stroke-width="1" fill="none" fill-rule="evenodd">
        <g id="Basic-Actions" transform="translate(-376, -186)" fill="CURRENTCOLOR" fill-rule="nonzero">
            <g id="Trash-common" transform="translate(356, 166)" xlink:href="#path-1">
                <g id="Icon/Trash-common/Outline" transform="translate(20, 20)" xlink:href="#path-2" fill-rule="evenodd">
                    <g id="trash" transform="translate(3.25, 1.25)">
                        <path d="M16,5.25 C16,4.83578646 15.6642135,4.5 15.25,4.5 L2.25,4.5 C1.83578646,4.5 1.5,4.83578646 1.5,5.25 L1.5,6.25 C1.5,6.66421354 1.83578646,7 2.25,7 L15.25,7 C15.6642135,7 16,6.66421354 16,6.25 L16,5.25 Z M17.5,6.25 C17.5,7.49264061 16.4926406,8.5 15.25,8.5 L2.25,8.5 C1.00735939,8.5 0,7.49264061 0,6.25 L0,5.25 C0,4.00735939 1.00735939,3 2.25,3 L15.25,3 C16.4926406,3 17.5,4.00735939 17.5,5.25 L17.5,6.25 Z" id="Rectangle-48-(Stroke)" fill-rule="nonzero"></path>
                        <path d="M10.0595703,0 C10.9944474,0 11.717229,0.205348551 12.1884766,0.748046875 C12.6147828,1.23931438 12.7032616,1.88766402 12.7695312,2.29492188 L12.9892578,3.59472656 C13.0583729,4.00313321 12.7834066,4.39084587 12.375,4.45996094 C11.9666736,4.52894126 11.579845,4.25306052 11.5107422,3.84472656 L11.2900391,2.54492188 L11.2900391,2.54101563 C11.2063945,2.02799541 11.1528239,1.84341053 11.0556641,1.73144531 C11.001617,1.66928779 10.8134158,1.5 10.0595703,1.5 L7.44042945,1.5 C6.67433274,1.5 6.49179586,1.66480066 6.44335914,1.71972656 C6.35133256,1.82419762 6.29998802,1.99971426 6.2099607,2.53417969 L5.98925757,3.84375 C5.92066891,4.25216374 5.5343816,4.52841584 5.12597632,4.45996094 C4.71748319,4.39135894 4.44213997,4.00419626 4.51074197,3.59570313 L4.73046853,2.28613281 L4.73046853,2.28515625 C4.80033918,1.87023941 4.88817039,1.2154367 5.31835914,0.727539063 C5.79242206,0.18996489 6.5165261,0 7.44042945,0 L10.0595703,0 Z" id="Vector-(Stroke)" fill-rule="nonzero"></path>
                        <path d="M15.6480467,7.14195362 C16.061252,7.16862524 16.37467,7.52468741 16.348242,7.93785203 L15.698828,18.0081644 L15.6978514,18.0120707 C15.6711372,18.3933555 15.6428986,18.8149636 15.5640624,19.2064066 C15.4836785,19.605518 15.3422964,20.026994 15.0552733,20.4007425 C14.4541007,21.1834375 13.4301341,21.5003519 11.9595702,21.5003519 L5.53964829,21.5003519 C4.06927299,21.5003519 3.04604608,21.1833755 2.44492185,20.4007425 C2.15785944,20.0269822 2.01652458,19.6055402 1.93613285,19.2064066 C1.85729685,18.8149638 1.82808143,18.3933553 1.80136722,18.0120707 L1.80136722,18.0081644 L1.15195316,7.93785203 C1.12551811,7.52468213 1.43893912,7.16862553 1.85214847,7.14195362 C2.26531836,7.11551857 2.62137494,7.42893955 2.64804685,7.8421489 L3.2984376,17.9075785 L3.34140635,18.45543 C3.35793663,18.620891 3.37873578,18.7709825 3.40683603,18.9105082 C3.46138934,19.1812058 3.53664867,19.3593038 3.6343751,19.48668 C3.80318791,19.7064657 4.2204895,20.0002998 5.53964829,20.0003519 L11.9595702,20.0003519 C13.2789327,20.0003519 13.695997,19.7064815 13.8648436,19.48668 C13.9627014,19.3592744 14.0387565,19.1814683 14.0933592,18.9105082 C14.1495231,18.6316394 14.173472,18.3112917 14.2017577,17.9075785 L14.8511717,7.8421489 C14.8778478,7.42887491 15.2347945,7.11540811 15.6480467,7.14195362 Z" id="Vector-(Stroke)" fill-rule="nonzero"></path>
                        <path d="M8.41503896,12.4949951 C8.82921658,12.4950373 9.16503896,12.8308076 9.16503896,13.2449951 C9.16503896,13.6591826 8.82921658,13.9949528 8.41503896,13.9949951 L5.08496083,13.9949951 C4.67074726,13.9949951 4.33496083,13.6592087 4.33496083,13.2449951 C4.33496083,12.8307815 4.67074726,12.4949951 5.08496083,12.4949951 L8.41503896,12.4949951 Z" id="Vector-(Stroke)" fill-rule="nonzero" transform="translate(6.75, 13.245) scale(-1, -1) rotate(-90) translate(-6.75, -13.245)"></path>
                        <path d="M13.2499999,12.5 C13.6642134,12.5 13.9999999,12.8357864 13.9999999,13.25 C13.9999999,13.6642135 13.6642134,14 13.2499999,14 L8.24999986,14 C7.83578629,14 7.49999986,13.6642135 7.49999986,13.25 C7.49999986,12.8357864 7.83578629,12.5 8.24999986,12.5 L13.2499999,12.5 Z" id="Vector-(Stroke)" fill-rule="nonzero" transform="translate(10.75, 13.25) scale(-1, -1) rotate(-90) translate(-10.75, -13.25)"></path>
                    </g>
                </g>
            </g>
        </g>
    </g>
</svg>