<?xml version="1.0" encoding="UTF-8"?>
<svg width="24px" height="24px" viewBox="0 0 24 24" version="1.1" xmlns="http://www.w3.org/2000/svg" xmlns:xlink="http://www.w3.org/1999/xlink">
    <title>Icon/Trash-common/Bulk</title>
    <defs>
        <path d="M5,0 L59,0 C61.7614237,-8.8817842e-16 64,2.23857625 64,5 L64,203 C64,205.761424 61.7614237,208 59,208 L5,208 C2.23857625,208 0,205.761424 0,203 L0,5 C0,2.23857625 2.23857625,0 5,0 Z" id="path-1"></path>
        <path d="M0,0 L24,0 L24,24 L0,24 L0,0 Z" id="path-2"></path>
    </defs>
    <g id="Icons" stroke="none" stroke-width="1" fill="none" fill-rule="evenodd">
        <g id="Basic-Actions" transform="translate(-376, -330)" fill-rule="nonzero">
            <g id="Trash-common" transform="translate(356, 166)" xlink:href="#path-1">
                <g id="Icon/Trash-common/Bulk" transform="translate(20, 164)" xlink:href="#path-2">
                    <path d="M5.5,5 L18.5,5 C19.3284271,5 20,5.67157286 20,6.5 L20,7.5 C20,8.32842714 19.3284271,9 18.5,9 L5.5,9 C4.67157286,9 4,8.32842714 4,7.5 L4,6.5 C4,5.67157286 4.67157286,5 5.5,5 Z" id="Vector" fill="CURRENTCOLOR"></path>
                    <path d="M8.5,5 L8.69999981,3.70000005 C8.89999981,2.70000005 9,2 10.6999998,2 L13.3000002,2 C15,2 15.1000002,2.80000007 15.3000002,3.70000005 L15.5,5" id="Vector" stroke="CURRENTCOLOR" stroke-width="1.5" stroke-linecap="round" stroke-linejoin="round"></path>
                    <path d="M6.30000019,10.1000004 C5.70000017,10.1000004 5.30000019,10.6000004 5.30000019,11.1999998 L5.80000019,19.2999992 C5.90000019,20.8999993 6.00000024,22.1000004 8.80000019,22.1000004 L15.1999998,22.1000004 C17.9999998,22.1000004 18.1000008,20.8999993 18.2000008,19.2999992 L18.7000008,11.1999998 C18.7000008,10.6000004 18.3000002,10.1000004 17.7000008,10.1000004 L6.30000019,10.1000004 Z M10.8000002,17.2999992 C10.8000002,17.6999992 10.5,18.1000004 10,18.1000004 C9.5,18.1000004 9.19999981,17.7999992 9.19999981,17.2999992 L9.19999981,14 C9.19999981,13.6000004 9.5,13.1999998 10,13.1999998 C10.5,13.1999998 10.8000002,13.5 10.8000002,14 L10.8000002,17.2999992 Z M14.8000002,18.2000008 C14.8000002,18.6000004 14.5,19 14,19 C13.5,19 13.1999998,18.7000008 13.1999998,18.2000008 L13.1999998,13.1999998 C13.1999998,12.7999998 13.5,12.3999996 14,12.3999996 C14.5,12.3999996 14.8000002,12.6999998 14.8000002,13.1999998 L14.8000002,18.2000008 Z" id="Vector" fill="CURRENTCOLOR" opacity="0.400000006"></path>
                    <path d="M10.7999973,17.299963 C10.7999973,17.699963 10.4999971,18.0999641 9.99999714,18.0999641 C9.49999714,18.0999641 9.19999695,17.799963 9.19999695,17.299963 L9.19999695,13.9999638 C9.19999695,13.5999638 9.49999714,13.1999636 9.99999714,13.1999636 C10.4999971,13.1999636 10.7999973,13.4999638 10.7999973,13.9999638 L10.7999973,17.299963 Z M14.7999973,18.1999645 C14.7999973,18.5999645 14.4999971,18.9999638 13.9999971,18.9999638 C13.4999971,18.9999638 13.1999969,18.6999645 13.1999969,18.1999645 L13.1999969,13.1999636 C13.1999969,12.7999636 13.4999971,12.3999634 13.9999971,12.3999634 C14.4999971,12.3999634 14.7999973,12.6999636 14.7999973,13.1999636 L14.7999973,18.1999645 Z" id="Vector"></path>
                </g>
            </g>
        </g>
    </g>
</svg>