<?xml version="1.0" encoding="UTF-8"?>
<svg width="24px" height="24px" viewBox="0 0 24 24" version="1.1" xmlns="http://www.w3.org/2000/svg" xmlns:xlink="http://www.w3.org/1999/xlink">
    <title>Icon/Tick-square/Outline</title>
    <defs>
        <path d="M5,0 L59,0 C61.7614237,-8.8817842e-16 64,2.23857625 64,5 L64,203 C64,205.761424 61.7614237,208 59,208 L5,208 C2.23857625,208 0,205.761424 0,203 L0,5 C0,2.23857625 2.23857625,0 5,0 Z" id="path-1"></path>
        <path d="M0,0 L24,0 L24,24 L0,24 L0,0 Z" id="path-2"></path>
    </defs>
    <g id="Icons" stroke="none" stroke-width="1" fill="none" fill-rule="evenodd">
        <g id="Basic-System-feedback" transform="translate(-688, -434)" fill-rule="nonzero">
            <g id="Tick-square" transform="translate(668, 414)" xlink:href="#path-1">
                <g id="Icon/Tick-square/Outline" transform="translate(20, 20)" xlink:href="#path-2">
                    <path d="M21.25,9 C21.25,6.57397223 20.7602578,5.07080472 19.8447266,4.15527344 C18.9291953,3.23974216 17.4260278,2.75 15,2.75 L9,2.75 C6.57397223,2.75 5.07080472,3.23974216 4.15527344,4.15527344 C3.23974216,5.07080472 2.75,6.57397223 2.75,9 L2.75,15 C2.75,17.4260278 3.23974216,18.9291953 4.15527344,19.8447266 C5.07080472,20.7602578 6.57397223,21.25 9,21.25 L15,21.25 C17.4260278,21.25 18.9291953,20.7602578 19.8447266,19.8447266 C20.7602578,18.9291953 21.25,17.4260278 21.25,15 L21.25,9 Z M22.75,15 C22.75,17.5739722 22.2397422,19.5708047 20.9052734,20.9052734 C19.5708047,22.2397422 17.5739722,22.75 15,22.75 L9,22.75 C6.42602777,22.75 4.42919528,22.2397422 3.09472656,20.9052734 C1.76025784,19.5708047 1.25,17.5739722 1.25,15 L1.25,9 C1.25,6.42602777 1.76025784,4.42919528 3.09472656,3.09472656 C4.42919528,1.76025784 6.42602777,1.25 9,1.25 L15,1.25 C17.5739722,1.25 19.5708047,1.76025784 20.9052734,3.09472656 C22.2397422,4.42919528 22.75,6.42602777 22.75,9 L22.75,15 Z" id="Vector-(Stroke)" fill="CURRENTCOLOR"></path>
                    <path d="M15.7197266,8.63875052 C16.0128798,8.34613574 16.488622,8.34658206 16.78125,8.63972709 C17.0738648,8.93288028 17.0734185,9.40862256 16.7802734,9.70125055 L11.109375,15.3604302 C10.8164407,15.6527835 10.3425047,15.6530035 10.0498047,15.3604302 L7.21972665,12.5303521 C6.92684647,12.2374719 6.92687255,11.7627016 7.21972665,11.4698052 C7.51261988,11.176912 7.98738033,11.176912 8.28027356,11.4698052 L10.5791016,13.7686334 L15.7197266,8.63875052 Z" id="Vector-(Stroke)" fill="CURRENTCOLOR"></path>
                    <polygon id="Vector" opacity="0" points="0 0 24 0 24 24 0 24"></polygon>
                </g>
            </g>
        </g>
    </g>
</svg>