<?xml version="1.0" encoding="UTF-8"?>
<svg width="24px" height="24px" viewBox="0 0 24 24" version="1.1" xmlns="http://www.w3.org/2000/svg" xmlns:xlink="http://www.w3.org/1999/xlink">
    <title>Icon/ListView-Square/Bulk</title>
    <defs>
        <path d="M5,0 L59,0 C61.7614237,-8.8817842e-16 64,2.23857625 64,5 L64,203 C64,205.761424 61.7614237,208 59,208 L5,208 C2.23857625,208 0,205.761424 0,203 L0,5 C0,2.23857625 2.23857625,0 5,0 Z" id="path-1"></path>
        <path d="M0,0 L24,0 L24,24 L0,24 L0,0 Z" id="path-2"></path>
    </defs>
    <g id="Icons" stroke="none" stroke-width="1" fill="none" fill-rule="evenodd">
        <g id="View-Controls" transform="translate(-476, -578)" fill="CURRENTCOLOR" fill-rule="nonzero">
            <g id="List-view-Square" transform="translate(456, 414)" xlink:href="#path-1">
                <g id="Icon/ListView-Square/Bulk" transform="translate(20, 164)" xlink:href="#path-2">
                    <path d="M2,6.5 C2,5.94771522 2.44771528,5.5 3,5.5 L6,5.5 C6.55228472,5.5 7,5.94771528 7,6.5 L7,9.5 C7,10.0522847 6.55228472,10.5 6,10.5 L3,10.5 C2.44771522,10.5 2,10.0522847 2,9.5 L2,6.5 Z" id="Rectangle-974"></path>
                    <path d="M2,14.5 C2,13.9477152 2.44771528,13.5 3,13.5 L6,13.5 C6.55228472,13.5 7,13.9477153 7,14.5 L7,17.5 C7,18.0522847 6.55228472,18.5 6,18.5 L3,18.5 C2.44771522,18.5 2,18.0522847 2,17.5 L2,14.5 Z" id="Rectangle-975" opacity="0.400000006"></path>
                    <path d="M9.25,6.25 C9.25,5.83578643 9.58578643,5.5 10,5.5 L16,5.5 C16.4142137,5.5 16.75,5.83578643 16.75,6.25 C16.75,6.66421357 16.4142137,7 16,7 L10,7 C9.58578643,7 9.25,6.66421357 9.25,6.25 Z" id="Vector-664-(Stroke)" opacity="0.400000006" transform="translate(13, 6.25) rotate(-0) translate(-13, -6.25)"></path>
                    <path d="M9.25,14.25 C9.25,13.8357864 9.58578643,13.5 10,13.5 L16,13.5 C16.4142137,13.5 16.75,13.8357864 16.75,14.25 C16.75,14.6642136 16.4142137,15 16,15 L10,15 C9.58578643,15 9.25,14.6642136 9.25,14.25 Z" id="Vector-666-(Stroke)"></path>
                    <path d="M9.25,9.75 C9.25,9.33578643 9.58578643,9 10,9 L22,9 C22.4142132,9 22.75,9.33578643 22.75,9.75 C22.75,10.1642136 22.4142132,10.5 22,10.5 L10,10.5 C9.58578643,10.5 9.25,10.1642136 9.25,9.75 Z" id="Vector-665-(Stroke)" opacity="0.400000006" transform="translate(16, 9.75) rotate(-0) translate(-16, -9.75)"></path>
                    <path d="M9.25,17.75 C9.25,17.3357864 9.58578643,17 10,17 L22,17 C22.4142132,17 22.75,17.3357864 22.75,17.75 C22.75,18.1642136 22.4142132,18.5 22,18.5 L10,18.5 C9.58578643,18.5 9.25,18.1642136 9.25,17.75 Z" id="Vector-667-(Stroke)"></path>
                </g>
            </g>
        </g>
    </g>
</svg>