<?xml version="1.0" encoding="UTF-8"?>
<svg width="24px" height="24px" viewBox="0 0 24 24" version="1.1" xmlns="http://www.w3.org/2000/svg" xmlns:xlink="http://www.w3.org/1999/xlink">
    <title>Icon/ListView-Square/Linear</title>
    <defs>
        <path d="M5,0 L59,0 C61.7614237,-8.8817842e-16 64,2.23857625 64,5 L64,203 C64,205.761424 61.7614237,208 59,208 L5,208 C2.23857625,208 0,205.761424 0,203 L0,5 C0,2.23857625 2.23857625,0 5,0 Z" id="path-1"></path>
        <path d="M0,0 L24,0 L24,24 L0,24 L0,0 Z" id="path-2"></path>
    </defs>
    <g id="Icons" stroke="none" stroke-width="1" fill="none" fill-rule="evenodd" stroke-linecap="round">
        <g id="View-Controls" transform="translate(-476, -482)" fill-rule="nonzero" stroke="CURRENTCOLOR">
            <g id="List-view-Square" transform="translate(456, 414)" xlink:href="#path-1">
                <g id="Icon/ListView-Square/Linear" transform="translate(20, 68)" xlink:href="#path-2" fill-rule="evenodd">
                    <g id="Vector" transform="translate(2, 6)">
                        <path d="M0,1 C0,0.447715282 0.447715282,0 1,0 L3,0 C3.55228472,0 4,0.447715282 4,1 L4,3 C4,3.55228472 3.55228472,4 3,4 L1,4 C0.447715282,4 0,3.55228472 0,3 L0,1 Z" stroke-width="1.5" fill-rule="nonzero"></path>
                        <path d="M0,9 C0,8.44771528 0.447715282,8 1,8 L3,8 C3.55228472,8 4,8.44771528 4,9 L4,11 C4,11.5522847 3.55228472,12 3,12 L1,12 C0.447715282,12 0,11.5522847 0,11 L0,9 Z" stroke-width="1.5" fill-rule="nonzero"></path>
                        <path d="M14,0 L8,0 M14,8 L8,8 M20,4 L8,4 M8,12 L20,12" stroke-width="1.5" fill-rule="nonzero"></path>
                    </g>
                </g>
            </g>
        </g>
    </g>
</svg>