<?xml version="1.0" encoding="UTF-8"?>
<svg width="24px" height="24px" viewBox="0 0 24 24" version="1.1" xmlns="http://www.w3.org/2000/svg" xmlns:xlink="http://www.w3.org/1999/xlink">
    <title>Icon/ListView-Square/Bold</title>
    <defs>
        <path d="M5,0 L59,0 C61.7614237,-8.8817842e-16 64,2.23857625 64,5 L64,203 C64,205.761424 61.7614237,208 59,208 L5,208 C2.23857625,208 0,205.761424 0,203 L0,5 C0,2.23857625 2.23857625,0 5,0 Z" id="path-1"></path>
        <path d="M0,0 L24,0 L24,24 L0,24 L0,0 Z" id="path-2"></path>
    </defs>
    <g id="Icons" stroke="none" stroke-width="1" fill="none" fill-rule="evenodd">
        <g id="View-Controls" transform="translate(-476, -530)" fill="CURRENTCOLOR" fill-rule="nonzero">
            <g id="List-view-Square" transform="translate(456, 414)" xlink:href="#path-1">
                <g id="Icon/ListView-Square/Bold" transform="translate(20, 116)" xlink:href="#path-2">
                    <path d="M1.25,7 C1.25,6.03350168 2.03350168,5.25 3,5.25 L5,5.25 C5.96649837,5.25 6.75,6.03350168 6.75,7 L6.75,9 C6.75,9.96649837 5.96649837,10.75 5,10.75 L3,10.75 C2.03350168,10.75 1.25,9.96649837 1.25,9 L1.25,7 Z" id="Rectangle-974-(Stroke)"></path>
                    <path d="M1.25,15 C1.25,14.0335017 2.03350168,13.25 3,13.25 L5,13.25 C5.96649837,13.25 6.75,14.0335017 6.75,15 L6.75,17 C6.75,17.9664984 5.96649837,18.75 5,18.75 L3,18.75 C2.03350168,18.75 1.25,17.9664984 1.25,17 L1.25,15 Z" id="Rectangle-975-(Stroke)"></path>
                    <path d="M9.25,6 C9.25,5.58578643 9.58578643,5.25 10,5.25 L16,5.25 C16.4142137,5.25 16.75,5.58578643 16.75,6 C16.75,6.41421354 16.4142137,6.75 16,6.75 L10,6.75 C9.58578643,6.75 9.25,6.41421354 9.25,6 Z" id="Vector-664-(Stroke)" transform="translate(13, 6) rotate(-0) translate(-13, -6)"></path>
                    <path d="M9.25,14 C9.25,13.5857864 9.58578643,13.25 10,13.25 L16,13.25 C16.4142137,13.25 16.75,13.5857864 16.75,14 C16.75,14.4142135 16.4142137,14.75 16,14.75 L10,14.75 C9.58578643,14.75 9.25,14.4142135 9.25,14 Z" id="Vector-666-(Stroke)"></path>
                    <path d="M9.25,10 C9.25,9.58578643 9.58578643,9.25 10,9.25 L22,9.25 C22.4142132,9.25 22.75,9.58578643 22.75,10 C22.75,10.4142135 22.4142132,10.75 22,10.75 L10,10.75 C9.58578643,10.75 9.25,10.4142135 9.25,10 Z" id="Vector-665-(Stroke)" transform="translate(16, 10) rotate(-0) translate(-16, -10)"></path>
                    <path d="M9.25,18 C9.25,17.5857864 9.58578643,17.25 10,17.25 L22,17.25 C22.4142132,17.25 22.75,17.5857864 22.75,18 C22.75,18.4142135 22.4142132,18.75 22,18.75 L10,18.75 C9.58578643,18.75 9.25,18.4142135 9.25,18 Z" id="Vector-667-(Stroke)"></path>
                </g>
            </g>
        </g>
    </g>
</svg>