<?xml version="1.0" encoding="UTF-8"?>
<svg width="24px" height="24px" viewBox="0 0 24 24" version="1.1" xmlns="http://www.w3.org/2000/svg" xmlns:xlink="http://www.w3.org/1999/xlink">
    <title>Icon/ListView-Square/Outline</title>
    <defs>
        <path d="M5,0 L59,0 C61.7614237,-8.8817842e-16 64,2.23857625 64,5 L64,203 C64,205.761424 61.7614237,208 59,208 L5,208 C2.23857625,208 0,205.761424 0,203 L0,5 C0,2.23857625 2.23857625,0 5,0 Z" id="path-1"></path>
        <path d="M0,0 L24,0 L24,24 L0,24 L0,0 Z" id="path-2"></path>
    </defs>
    <g id="Icons" stroke="none" stroke-width="1" fill="none" fill-rule="evenodd">
        <g id="View-Controls" transform="translate(-476, -434)" fill="CURRENTCOLOR" fill-rule="nonzero">
            <g id="List-view-Square" transform="translate(456, 414)" xlink:href="#path-1">
                <g id="Icon/ListView-Square/Outline" transform="translate(20, 20)" xlink:href="#path-2">
                    <path d="M5.25,15 C5.25,14.8619289 5.13807115,14.75 5,14.75 L3,14.75 C2.86192885,14.75 2.75,14.8619289 2.75,15 L2.75,17 C2.75,17.1380711 2.86192885,17.25 3,17.25 L5,17.25 C5.13807115,17.25 5.25,17.1380711 5.25,17 L5.25,15 Z M22,17.25 C22.4142136,17.25 22.75,17.5857864 22.75,18 C22.75,18.4142136 22.4142136,18.75 22,18.75 L10,18.75 C9.58578643,18.75 9.25,18.4142136 9.25,18 C9.25,17.5857864 9.58578643,17.25 10,17.25 L22,17.25 Z M16,13.25 C16.4142136,13.25 16.75,13.5857864 16.75,14 C16.75,14.4142136 16.4142136,14.75 16,14.75 L10,14.75 C9.58578643,14.75 9.25,14.4142136 9.25,14 C9.25,13.5857864 9.58578643,13.25 10,13.25 L16,13.25 Z M5.25,7 C5.25,6.86192885 5.13807115,6.75 5,6.75 L3,6.75 C2.86192885,6.75 2.75,6.86192885 2.75,7 L2.75,9 C2.75,9.13807115 2.86192885,9.25 3,9.25 L5,9.25 C5.13807115,9.25 5.25,9.13807115 5.25,9 L5.25,7 Z M22,9.25 C22.4142136,9.25 22.75,9.58578643 22.75,10 C22.75,10.4142136 22.4142136,10.75 22,10.75 L10,10.75 C9.58578643,10.75 9.25,10.4142136 9.25,10 C9.25,9.58578643 9.58578643,9.25 10,9.25 L22,9.25 Z M16,5.25 C16.4142136,5.25 16.75,5.58578643 16.75,6 C16.75,6.41421357 16.4142136,6.75 16,6.75 L10,6.75 C9.58578643,6.75 9.25,6.41421357 9.25,6 C9.25,5.58578643 9.58578643,5.25 10,5.25 L16,5.25 Z M6.75,17 C6.75,17.9664983 5.96649826,18.75 5,18.75 L3,18.75 C2.03350174,18.75 1.25,17.9664983 1.25,17 L1.25,15 C1.25,14.0335017 2.03350174,13.25 3,13.25 L5,13.25 C5.96649826,13.25 6.75,14.0335017 6.75,15 L6.75,17 Z M6.75,9 C6.75,9.96649826 5.96649826,10.75 5,10.75 L3,10.75 C2.03350174,10.75 1.25,9.96649826 1.25,9 L1.25,7 C1.25,6.03350174 2.03350174,5.25 3,5.25 L5,5.25 C5.96649826,5.25 6.75,6.03350174 6.75,7 L6.75,9 Z" id="Vector-(Stroke)"></path>
                </g>
            </g>
        </g>
    </g>
</svg>