<?xml version="1.0" encoding="UTF-8"?>
<svg width="24px" height="24px" viewBox="0 0 24 24" version="1.1" xmlns="http://www.w3.org/2000/svg" xmlns:xlink="http://www.w3.org/1999/xlink">
    <title>Icon/Shop-remove/Outline</title>
    <defs>
        <path d="M5,0 L59,0 C61.7614237,-8.8817842e-16 64,2.23857625 64,5 L64,203 C64,205.761424 61.7614237,208 59,208 L5,208 C2.23857625,208 0,205.761424 0,203 L0,5 C0,2.23857625 2.23857625,0 5,0 Z" id="path-1"></path>
        <path d="M0,0 L24,0 L24,24 L0,24 L0,0 Z" id="path-2"></path>
    </defs>
    <g id="Icons" stroke="none" stroke-width="1" fill="none" fill-rule="evenodd">
        <g id="Shop" transform="translate(-272, -433)" fill="CURRENTCOLOR" fill-rule="nonzero">
            <g id="shop-remove-" transform="translate(252, 413)" xlink:href="#path-1">
                <g id="Icon/Shop-remove/Outline" transform="translate(20, 20)" xlink:href="#path-2">
                    <path d="M15.4700236,22.5 L10.0800698,22.5 C9.44006979,22.5 8.88004792,22.4600146 8.37004793,22.3900146 C7.96004793,22.3300146 7.67003326,21.9500391 7.73003326,21.5400391 C7.79003326,21.1300391 8.16006991,20.8300244 8.5800699,20.9000244 C9.0200699,20.9600244 9.51006001,20.9899902 10.07006,20.9899902 L15.4600749,20.9899902 C19.5500751,20.9899902 21.0000525,19.5399513 21.0000525,15.4499512 L21.0000525,10.9599609 C21.0000525,10.5499609 21.3400525,10.2099609 21.7500525,10.2099609 C22.1600524,10.2099609 22.5000877,10.5499609 22.5000877,10.9599609 L22.5000877,15.4499512 C22.5100525,20.3899512 20.4000235,22.5 15.4700236,22.5 Z" id="Vector"></path>
                    <path d="M3.79003906,16.0200195 C3.38003907,16.0200195 3.04003906,15.6800195 3.04003906,15.2700195 L3.04003906,10.9699707 C3.04003906,10.5599707 3.38003907,10.2199707 3.79003906,10.2199707 C4.20003906,10.2199707 4.54003906,10.5599707 4.54003906,10.9699707 L4.54003906,15.2700195 C4.54003906,15.6800195 4.20003906,16.0200195 3.79003906,16.0200195 Z" id="Vector"></path>
                    <path d="M12.7798383,12.5 C11.6798383,12.5 10.6797796,12.0700293 9.96977967,11.2800293 C9.25977969,10.4900293 8.929787,9.45998538 9.039787,8.35998535 L9.70983094,1.68005371 C9.74983094,1.30005372 10.069831,1 10.459831,1 L15.1298137,1 C15.5198137,1 15.8398137,1.29005373 15.8798137,1.68005371 L16.5497966,8.35998535 C16.6597966,9.45998538 16.3298039,10.4900293 15.6198039,11.2800293 C14.8798039,12.0700293 13.8798383,12.5 12.7798383,12.5 Z M11.1198041,2.5 L10.5198286,8.51000977 C10.4498286,9.18000978 10.6498164,9.81001952 11.0698164,10.2700195 C11.9198164,11.2100195 13.6197795,11.2100195 14.4697795,10.2700195 C14.8897795,9.80001953 15.0898283,9.17000979 15.0198283,8.51000977 L14.4197917,2.5 L11.1198041,2.5 Z" id="Vector"></path>
                    <path d="M19.0800214,12.5 C17.0500214,12.5 15.2400336,10.8599658 15.0300336,8.83996582 L14.3300214,1.82995605 C14.3100214,1.61995606 14.3800238,1.41 14.5200238,1.25 C14.6600238,1.09 14.8600214,1 15.0800214,1 L18.1300092,1 C21.0700092,1 22.4399794,2.23000002 22.8499794,5.25 L23.1300087,8.0300293 C23.2500087,9.21002924 22.8899994,10.3300537 22.1199994,11.1800537 C21.3499994,12.0300537 20.2700214,12.5 19.0800214,12.5 Z M15.9099774,2.5 L16.5300336,8.68994141 C16.6600336,9.93994141 17.8300214,11 19.0800214,11 C19.8400214,11 20.520014,10.7100537 21.0100141,10.1800537 C21.490014,9.65005374 21.7100189,8.9400537 21.6400189,8.18005371 L21.3599896,5.43005371 C21.0499896,3.17005372 20.3200092,2.5 18.1300092,2.5 L15.9099774,2.5 Z" id="Vector"></path>
                    <path d="M6.41979408,12.5 C5.22979403,12.5 4.14981592,12.0300537 3.37981594,11.1800537 C2.60981596,10.3300537 2.24980617,9.21002924 2.36980616,8.0300293 L2.64983547,5.2800293 C3.06983545,2.23002934 4.439816,1 7.37981606,1 L10.4298038,1 C10.6398038,1 10.8398014,1.09 10.9898014,1.25 C11.1298014,1.41 11.1998038,1.61995606 11.1798038,1.82995605 L10.4797916,8.83996582 C10.2597916,10.8599658 8.43979406,12.5 6.41979408,12.5 Z M7.36980629,2.5 C5.17980623,2.5 4.44981593,3.15995121 4.12981594,5.44995117 L3.8597964,8.17004395 C3.77979641,8.93004394 4.00980118,9.64004397 4.48980117,10.1700439 C4.96980116,10.7000439 5.65979409,10.9899902 6.41979408,10.9899902 C7.67979407,10.9899902 8.84978188,9.93005371 8.96978188,8.68005371 L9.58983803,2.48999023 L7.36980629,2.48999023 L7.36980629,2.5 Z" id="Vector"></path>
                    <path d="M5.75,23.5 C4.35000002,23.5 3.04001462,22.8899463 2.14001465,21.8199463 C2.13001465,21.8099463 2.08999756,21.7699707 2.05999756,21.7199707 C1.90999755,21.5399707 1.77999268,21.3600439 1.67999268,21.1700439 C1.23999268,20.460044 1,19.6199902 1,18.7399902 C1,17.2799902 1.6500293,15.9300293 2.7800293,15.0300293 C2.9800293,14.8700293 3.20000245,14.7199658 3.44000244,14.5899658 C4.13000244,14.1999658 4.94,13.9799805 5.75,13.9799805 C6.90999997,13.9799805 7.98002684,14.3800049 8.84002686,15.1300049 C8.95002685,15.2100049 9.09998047,15.36 9.22998047,15.5 C10.0399805,16.39 10.4899902,17.5299706 10.4899902,18.7199707 C10.4899902,19.5899707 10.2499878,20.4400439 9.79998779,21.1700439 C9.57998779,21.5500439 9.31000978,21.8800147 9.01000977,22.1400146 C8.95000977,22.2000146 8.89000732,22.2600586 8.82000732,22.3100586 C8.0300073,23.0800586 6.91999996,23.5 5.75,23.5 Z M3.22998047,20.7900391 C3.25998047,20.8200391 3.30997559,20.8699414 3.34997559,20.9399414 C3.8999756,21.5899414 4.80000001,22.0100098 5.75,22.0100098 C6.54000002,22.0100098 7.3000049,21.7199512 7.88000488,21.1999512 C7.91000488,21.1599512 7.95,21.1199658 8,21.0899658 C8.2,20.9199658 8.3700293,20.6999414 8.5300293,20.4399414 C8.8400293,19.9299414 9.01000977,19.3600098 9.01000977,18.7600098 C9.01000977,17.9500098 8.70001465,17.1600488 8.14001465,16.5500488 C8.07001465,16.4700488 7.99997315,16.3899561 7.90997314,16.3299561 C6.8299731,15.399956 5.34998286,15.2600537 4.16998291,15.9300537 C4.00998291,16.0200537 3.86999023,16.1099707 3.73999023,16.2199707 C2.95999026,16.8399707 2.51000977,17.7600098 2.51000977,18.7600098 C2.51000977,19.3500097 2.66998047,19.9300537 2.97998047,20.4300537 C3.05998047,20.5700537 3.13998047,20.6800293 3.22998047,20.7800293 C3.21998047,20.7800293 3.22998047,20.7800391 3.22998047,20.7900391 Z" id="Vector"></path>
                    <path d="M7.24975586,19.4799805 L4.25976562,19.4799805 C3.84976563,19.4799805 3.50976562,19.1399805 3.50976562,18.7299805 C3.50976562,18.3199805 3.84976563,17.9799805 4.25976562,17.9799805 L7.24975586,17.9799805 C7.65975586,17.9799805 7.99975586,18.3199805 7.99975586,18.7299805 C7.99975586,19.1399805 7.65975586,19.4799805 7.24975586,19.4799805 Z" id="Vector"></path>
                </g>
            </g>
        </g>
    </g>
</svg>