<?xml version="1.0" encoding="UTF-8"?>
<svg width="24px" height="24px" viewBox="0 0 24 24" version="1.1" xmlns="http://www.w3.org/2000/svg" xmlns:xlink="http://www.w3.org/1999/xlink">
    <title>Icon/Shop-remove/Bold</title>
    <defs>
        <path d="M5,0 L59,0 C61.7614237,-8.8817842e-16 64,2.23857625 64,5 L64,203 C64,205.761424 61.7614237,208 59,208 L5,208 C2.23857625,208 0,205.761424 0,203 L0,5 C0,2.23857625 2.23857625,0 5,0 Z" id="path-1"></path>
        <path d="M0,0 L24,0 L24,24 L0,24 L0,0 Z" id="path-2"></path>
    </defs>
    <g id="Icons" stroke="none" stroke-width="1" fill="none" fill-rule="evenodd">
        <g id="Shop" transform="translate(-272, -529)" fill="CURRENTCOLOR" fill-rule="nonzero">
            <g id="shop-remove-" transform="translate(252, 413)" xlink:href="#path-1">
                <g id="Icon/Shop-remove/Bold" transform="translate(20, 116)" xlink:href="#path-2">
                    <path d="M7.79985261,22.2999996 C5.14985251,22.2999996 2.98985219,20.1500002 2.98985219,17.4900001 L2.98985219,14.65 C2.98985219,13.98 3.64985239,13.5300004 4.27985239,13.7500004 C4.53985238,13.8400004 4.79985234,13.8999999 5.06985235,13.9399999 C5.18985235,13.9599999 5.30985201,13.9799999 5.42985201,13.9799999 C5.57985201,13.9999999 5.73985204,14.0099996 5.88985205,14.0099996 C6.99985206,14.0099996 8.09985268,13.5999997 8.96985269,12.8899997 C9.79985267,13.5999997 10.8698527,14.0099996 12.0098526,14.0099996 C13.1498526,14.0099996 14.2098524,13.62 15.0398524,12.9 C15.8998524,13.6 16.9798523,14.0099996 18.0798523,14.0099996 C18.2498523,14.0099996 18.4298526,13.9999999 18.5898526,13.9799999 C18.7098526,13.9699999 18.8098525,13.9599999 18.9198525,13.9399999 C19.2198525,13.8999999 19.4898522,13.8199999 19.7598526,13.7299999 C20.3798527,13.5199999 21.0298531,13.9799995 21.0298531,14.6299995 L21.0298531,17.4900001 C21.0298531,20.1400002 18.8798518,22.2999996 16.2198517,22.2999996 L7.79985261,22.2999996 Z" id="Vector"></path>
                    <path d="M21.9798527,8.74000025 L21.6998539,6.07999992 C21.2998539,3.17999983 19.9798522,2 17.1698523,2 L6.81985235,2 C3.99985242,2 2.68985224,3.18000007 2.27985224,6.11000013 L2.01985225,8.75000048 C1.91985225,9.78000045 2.19985223,10.7799995 2.80985224,11.5599995 C3.53985226,12.5099995 4.65985203,13.0499992 5.90985203,13.0499992 C7.11985207,13.0499992 8.27985263,12.4399993 9.01985264,11.4699993 C9.66985261,12.4399993 10.7798526,13.0499992 12.0198526,13.0499992 C13.2598526,13.0499992 14.3498524,12.4699993 15.0098524,11.5099993 C15.7498524,12.4599993 16.8998532,13.0499992 18.0898533,13.0499992 C19.3698533,13.0499992 20.5198529,12.4799995 21.2398529,11.4799995 C21.8198529,10.7099996 22.0798527,9.74000025 21.9798527,8.74000025 Z M13.4998522,7.88000011 L10.4998522,7.88000011 C10.0898522,7.88000011 9.74985218,7.5500001 9.74985218,7.13000011 C9.74985218,6.72000012 10.0898522,6.38000011 10.4998522,6.38000011 L13.4998522,6.38000011 C13.9098522,6.38000011 14.2498522,6.72000012 14.2498522,7.13000011 C14.2498522,7.5500001 13.9098522,7.88000011 13.4998522,7.88000011 Z" id="Vector"></path>
                </g>
            </g>
        </g>
    </g>
</svg>