<?xml version="1.0" encoding="UTF-8"?>
<svg width="24px" height="24px" viewBox="0 0 24 24" version="1.1" xmlns="http://www.w3.org/2000/svg" xmlns:xlink="http://www.w3.org/1999/xlink">
    <title>Icon/Shop-remove/Bulk</title>
    <defs>
        <path d="M5,0 L59,0 C61.7614237,-8.8817842e-16 64,2.23857625 64,5 L64,203 C64,205.761424 61.7614237,208 59,208 L5,208 C2.23857625,208 0,205.761424 0,203 L0,5 C0,2.23857625 2.23857625,0 5,0 Z" id="path-1"></path>
        <path d="M0,0 L24,0 L24,24 L0,24 L0,0 Z" id="path-2"></path>
    </defs>
    <g id="Icons" stroke="none" stroke-width="1" fill="none" fill-rule="evenodd">
        <g id="Shop" transform="translate(-272, -577)" fill="CURRENTCOLOR" fill-rule="nonzero">
            <g id="shop-remove-" transform="translate(252, 413)" xlink:href="#path-1">
                <g id="Icon/Shop-remove/Bulk" transform="translate(20, 164)" xlink:href="#path-2">
                    <path d="M7.92999268,15.7200317 C7.82999267,15.6100317 7.71997558,15.4999731 7.59997559,15.4099731 C6.8999756,14.7999731 6,14.4400024 5,14.4400024 C4.29000002,14.4400024 3.61997801,14.630022 3.03997803,14.960022 C2.84997803,15.060022 2.67,15.1800073 2.5,15.3200073 C1.57999998,16.0500073 1,17.1800025 1,18.4400024 C1,19.1900024 1.21001709,19.9 1.58001709,20.5 C1.67001709,20.66 1.78002442,20.8100122 1.90002441,20.9500122 C1.92002441,20.9800122 1.9499707,21.0000293 1.9699707,21.0300293 C2.68997073,21.8900293 3.77999997,22.4400024 5,22.4400024 C6.00999999,22.4400024 6.93000489,22.0700024 7.63000488,21.4400024 C7.67000488,21.4100024 7.69998047,21.3800269 7.72998047,21.3400269 C7.99998048,21.1100269 8.22998291,20.82 8.41998291,20.5 C8.78998291,19.9 9,19.1900024 9,18.4400024 C9,17.3900025 8.5899927,16.4400318 7.92999268,15.7200317 Z M6.5,19.1699829 L3.51000977,19.1699829 C3.10000977,19.1699829 2.76000977,18.8299829 2.76000977,18.4199829 C2.76000977,18.0099829 3.10000977,17.6699829 3.51000977,17.6699829 L6.5,17.6699829 C6.91,17.6699829 7.25,18.0099829 7.25,18.4199829 C7.25,18.8299829 6.91,19.1699829 6.5,19.1699829 Z" id="Vector"></path>
                    <path d="M21.0499878,11.1500244 L21.0499878,17.1400146 C21.0499878,19.9000146 18.8099976,22.1400146 16.0499878,22.1400146 L7.30999756,22.1400146 C7.07999755,22.1400146 6.85000488,22.1200269 6.63000488,22.0900269 C7.00000489,21.9300269 7.33000487,21.7100025 7.63000488,21.4400024 C7.67000488,21.4100024 7.69998047,21.3800269 7.72998047,21.3400269 C7.99998048,21.1100269 8.22998291,20.82 8.41998291,20.5 C8.78998291,19.9 9,19.1900024 9,18.4400024 C9,17.3900025 8.5899927,16.4400318 7.92999268,15.7200317 C7.82999267,15.6100317 7.71997558,15.4999731 7.59997559,15.4099731 C6.8999756,14.7999731 6,14.4400024 5,14.4400024 C4.29000002,14.4400024 3.61997801,14.630022 3.03997803,14.960022 C2.84997803,15.060022 2.67,15.1800073 2.5,15.3200073 C2.43,15.3700073 2.36999756,15.4299902 2.30999756,15.4899902 L2.30999756,11.2200317 C3.06999755,12.0400317 4.15000737,12.5100098 5.32000732,12.5100098 C6.58000731,12.5100098 7.7899878,11.8799951 8.54998779,10.8699951 C9.2299878,11.8799951 10.3899927,12.5100098 11.6799927,12.5100098 C12.9599926,12.5100098 14.099978,11.9099731 14.789978,10.9099731 C15.559978,11.8999732 16.7499902,12.5100098 17.9899902,12.5100098 C19.1999903,12.5100098 20.2999878,12.0200244 21.0499878,11.1500244 Z" id="Vector" opacity="0.400000006"></path>
                    <path d="M14.6699586,1.01000977 L8.66995871,1.01000977 L7.92996846,8.36999512 C7.86996846,9.04999512 7.96994647,9.69001955 8.21994647,10.2700195 C8.79994646,11.6300195 10.1599684,12.5100098 11.6799684,12.5100098 C13.2199683,12.5100098 14.5500001,11.6500293 15.1500001,10.2800293 C15.3300001,9.85002929 15.4399879,9.35002685 15.4499879,8.84002686 L15.4499879,8.65002441 L14.6699586,1.01000977 Z" id="Vector"></path>
                    <path d="M22.039978,8.0300293 L21.7600098,5.25 C21.3400098,2.23000002 19.9699781,1 17.039978,1 L13.2000122,1 L13.9400024,8.5 C13.9500024,8.6 13.960022,8.71002442 13.960022,8.90002441 C14.020022,9.42002439 14.1799829,9.90001708 14.4199829,10.3300171 C15.1399829,11.6500171 16.54,12.5 18,12.5 C19.33,12.5 20.5300293,11.9099951 21.2800293,10.8699951 C21.8700293,10.0799951 22.139978,9.07002926 22.039978,8.0300293 Z" id="Vector" opacity="0.600000024"></path>
                    <path d="M6.27000856,1.01000977 C3.33000851,1.01000977 1.96996701,2.23997808 1.539967,5.28997803 L1.2700085,8.03997803 C1.1700085,9.10997808 1.46001583,10.150022 2.09001583,10.960022 C2.85001582,11.950022 4.0199964,12.5100098 5.31999636,12.5100098 C6.7799964,12.5100098 8.1800037,11.6599853 8.89000368,10.3599854 C9.15000367,9.90998536 9.31998367,9.38997561 9.36998367,8.84997559 L10.150013,1.02001953 L6.27000856,1.02001953 L6.27000856,1.01000977 Z" id="Vector" opacity="0.600000024"></path>
                </g>
            </g>
        </g>
    </g>
</svg>