<?xml version="1.0" encoding="UTF-8"?>
<svg width="24px" height="24px" viewBox="0 0 24 24" version="1.1" xmlns="http://www.w3.org/2000/svg" xmlns:xlink="http://www.w3.org/1999/xlink">
    <title>Icon/Chevron-Up/Outline</title>
    <defs>
        <path d="M5,0 L59,0 C61.7614237,-8.8817842e-16 64,2.23857625 64,5 L64,203 C64,205.761424 61.7614237,208 59,208 L5,208 C2.23857625,208 0,205.761424 0,203 L0,5 C0,2.23857625 2.23857625,0 5,0 Z" id="path-1"></path>
        <path d="M0,0 L24,0 L24,24 L0,24 L0,0 Z" id="path-2"></path>
    </defs>
    <g id="Icons" stroke="none" stroke-width="1" fill="none" fill-rule="evenodd">
        <g id="Basic-Navigation" transform="translate(-481, -186)" fill="CURRENTCOLOR" fill-rule="nonzero">
            <g id="Chevron-Up" transform="translate(461, 166)" xlink:href="#path-1">
                <g id="Icon/Chevron-Up/Outline" transform="translate(20, 20)" xlink:href="#path-2">
                    <path d="M21.25,12 C21.25,6.891366 17.108634,2.75 12,2.75 C6.891366,2.75 2.75,6.891366 2.75,12 C2.75,17.108634 6.891366,21.25 12,21.25 C17.108634,21.25 21.25,17.108634 21.25,12 Z M22.75,12 C22.75,17.9370613 17.9370613,22.75 12,22.75 C6.06293869,22.75 1.25,17.9370613 1.25,12 C1.25,6.06293869 6.06293869,1.25 12,1.25 C17.9370613,1.25 22.75,6.06293869 22.75,12 Z" id="Vector-(Stroke)"></path>
                    <path d="M11.5276172,9.15796895 C11.8218959,8.91854471 12.2551379,8.93518315 12.5295706,9.2087502 L16.059844,12.7292581 C16.3528495,13.0217604 16.3531972,13.4965977 16.0608206,13.7898049 C15.7683231,14.0828695 15.2935006,14.0831778 15.0002737,13.7907815 L11.9992971,10.798594 L8.99929702,13.7907815 C8.70599854,14.0832492 8.23123005,14.0830837 7.93875012,13.7898049 C7.64628223,13.4965062 7.64742377,13.0217379 7.94070324,12.7292581 L11.47,9.2087502 L11.5276172,9.15796895 Z" id="Vector-(Stroke)"></path>
                </g>
            </g>
        </g>
    </g>
</svg>