<?xml version="1.0" encoding="UTF-8"?>
<svg width="24px" height="24px" viewBox="0 0 24 24" version="1.1" xmlns="http://www.w3.org/2000/svg" xmlns:xlink="http://www.w3.org/1999/xlink">
    <title>Icon/Chevron-Up/Bold</title>
    <defs>
        <path d="M5,0 L59,0 C61.7614237,-8.8817842e-16 64,2.23857625 64,5 L64,203 C64,205.761424 61.7614237,208 59,208 L5,208 C2.23857625,208 0,205.761424 0,203 L0,5 C0,2.23857625 2.23857625,0 5,0 Z" id="path-1"></path>
        <path d="M0,0 L24,0 L24,24 L0,24 L0,0 Z" id="path-2"></path>
    </defs>
    <g id="Icons" stroke="none" stroke-width="1" fill="none" fill-rule="evenodd">
        <g id="Basic-Navigation" transform="translate(-481, -282)" fill="CURRENTCOLOR" fill-rule="nonzero">
            <g id="Chevron-Up" transform="translate(461, 166)" xlink:href="#path-1">
                <g id="Icon/Chevron-Up/Bold" transform="translate(20, 116)" xlink:href="#path-2">
                    <path d="M12,2 C6.48999977,2 2,6.48999977 2,12 C2,17.5100002 6.48999977,22 12,22 C17.5100002,22 22,17.5100002 22,12 C22,6.48999977 17.5100002,2 12,2 Z M16.0599995,13.79 C15.9099995,13.94 15.7199997,14.0100002 15.5299997,14.0100002 C15.3399997,14.0100002 15.15,13.94 15,13.79 L12,10.79 L9,13.79 C8.71000001,14.08 8.23000005,14.08 7.94000006,13.79 C7.65000007,13.5 7.65000007,13.0199995 7.94000006,12.7299995 L11.4700003,9.19999981 C11.7600003,8.90999982 12.2399997,8.90999982 12.5299997,9.19999981 L16.0599995,12.7299995 C16.3499995,13.0299996 16.3499995,13.5 16.0599995,13.79 Z" id="Vector"></path>
                </g>
            </g>
        </g>
    </g>
</svg>