<?xml version="1.0" encoding="UTF-8"?>
<svg width="24px" height="24px" viewBox="0 0 24 24" version="1.1" xmlns="http://www.w3.org/2000/svg" xmlns:xlink="http://www.w3.org/1999/xlink">
    <title>Icon/Wind/Bold</title>
    <defs>
        <path d="M5,0 L59,0 C61.7614237,-8.8817842e-16 64,2.23857625 64,5 L64,203 C64,205.761424 61.7614237,208 59,208 L5,208 C2.23857625,208 0,205.761424 0,203 L0,5 C0,2.23857625 2.23857625,0 5,0 Z" id="path-1"></path>
        <path d="M0,0 L24,0 L24,24 L0,24 L0,0 Z" id="path-2"></path>
    </defs>
    <g id="Icons" stroke="none" stroke-width="1" fill="none" fill-rule="evenodd">
        <g id="Weather" transform="translate(-584, -530)" fill-rule="nonzero">
            <g id="wind" transform="translate(564, 414)" xlink:href="#path-1">
                <g id="Icon/Wind/Bold" transform="translate(20, 116)" xlink:href="#path-2">
                    <use fill="#FFFFFF" fill-rule="evenodd" xlink:href="#path-2"></use>
                    <path d="M18.5,21.75 C16.1600001,21.75 14.25,19.8399999 14.25,17.5 L14.25,17 C14.25,16.59 14.59,16.25 15,16.25 C15.41,16.25 15.75,16.59 15.75,17 L15.75,17.5 C15.75,19.02 16.98,20.25 18.5,20.25 C20.02,20.25 21.25,19.02 21.25,17.5 C21.25,15.98 20.02,14.75 18.5,14.75 L2,14.75 C1.59,14.75 1.25,14.41 1.25,14 C1.25,13.59 1.59,13.25 2,13.25 L18.5,13.25 C20.8399999,13.25 22.75,15.1600001 22.75,17.5 C22.75,19.8399999 20.8399999,21.75 18.5,21.75 Z" id="Vector" fill="CURRENTCOLOR" fill-rule="nonzero"></path>
                    <path d="M18.5,11.75 L2,11.75 C1.59,11.75 1.25,11.41 1.25,11 C1.25,10.59 1.59,10.25 2,10.25 L18.5,10.25 C20.02,10.25 21.25,9.01999998 21.25,7.5 C21.25,5.98000002 20.02,4.75 18.5,4.75 C16.98,4.75 15.75,5.98000002 15.75,7.5 L15.75,8 C15.75,8.41 15.41,8.75 15,8.75 C14.59,8.75 14.25,8.41 14.25,8 L14.25,7.5 C14.25,5.16000009 16.1600001,3.25 18.5,3.25 C20.8399999,3.25 22.75,5.16000009 22.75,7.5 C22.75,9.83999991 20.8399999,11.75 18.5,11.75 Z" id="Vector" fill="CURRENTCOLOR" fill-rule="nonzero"></path>
                    <path d="M9.30999756,8.74999523 L2,8.74999523 C1.59,8.74999523 1.25,8.40999523 1.25,7.99999523 C1.25,7.58999524 1.59,7.24999523 2,7.24999523 L9.30999756,7.24999523 C10.3799976,7.24999523 11.25,6.37999523 11.25,5.30999517 C11.25,4.23999512 10.3799976,3.36999512 9.30999756,3.36999512 C8.23999751,3.36999512 7.36999512,4.23999512 7.36999512,5.30999517 L7.36999512,5.68999529 C7.36999512,6.09999529 7.02999511,6.43999529 6.61999512,6.43999529 C6.20999512,6.43999529 5.86999512,6.09999529 5.86999512,5.68999529 L5.86999512,5.30999517 C5.86999512,3.4099952 7.40999758,1.86999512 9.30999756,1.86999512 C11.2099975,1.86999512 12.75,3.4099952 12.75,5.30999517 C12.75,7.20999515 11.2099975,8.74999523 9.30999756,8.74999523 Z" id="Vector" fill="CURRENTCOLOR" fill-rule="nonzero"></path>
                </g>
            </g>
        </g>
    </g>
</svg>