<?xml version="1.0" encoding="UTF-8"?>
<svg width="24px" height="24px" viewBox="0 0 24 24" version="1.1" xmlns="http://www.w3.org/2000/svg" xmlns:xlink="http://www.w3.org/1999/xlink">
    <title>Icon/Wind/Outline</title>
    <defs>
        <path d="M5,0 L59,0 C61.7614237,-8.8817842e-16 64,2.23857625 64,5 L64,203 C64,205.761424 61.7614237,208 59,208 L5,208 C2.23857625,208 0,205.761424 0,203 L0,5 C0,2.23857625 2.23857625,0 5,0 Z" id="path-1"></path>
        <path d="M0,0 L24,0 L24,24 L0,24 L0,0 Z" id="path-2"></path>
    </defs>
    <g id="Icons" stroke="none" stroke-width="1" fill="none" fill-rule="evenodd">
        <g id="Weather" transform="translate(-584, -434)" fill-rule="nonzero">
            <g id="wind" transform="translate(564, 414)" xlink:href="#path-1">
                <g id="Icon/Wind/Outline" transform="translate(20, 20)" xlink:href="#path-2">
                    <use fill="#FFFFFF" fill-rule="evenodd" xlink:href="#path-2"></use>
                    <path d="M18.5,21.75 C16.1600001,21.75 14.25,19.8399999 14.25,17.5 L14.25,17 C14.25,16.59 14.59,16.25 15,16.25 C15.41,16.25 15.75,16.59 15.75,17 L15.75,17.5 C15.75,19.02 16.98,20.25 18.5,20.25 C20.02,20.25 21.25,19.02 21.25,17.5 C21.25,15.98 20.02,14.75 18.5,14.75 L2,14.75 C1.59,14.75 1.25,14.41 1.25,14 C1.25,13.59 1.59,13.25 2,13.25 L18.5,13.25 C20.8399999,13.25 22.75,15.1600001 22.75,17.5 C22.75,19.8399999 20.8399999,21.75 18.5,21.75 Z" id="Vector" fill="CURRENTCOLOR" fill-rule="nonzero"></path>
                    <path d="M18.5,11.75 L2,11.75 C1.59,11.75 1.25,11.41 1.25,11 C1.25,10.59 1.59,10.25 2,10.25 L18.5,10.25 C20.02,10.25 21.25,9.01999998 21.25,7.5 C21.25,5.98000002 20.02,4.75 18.5,4.75 C16.98,4.75 15.75,5.98000002 15.75,7.5 L15.75,8 C15.75,8.41 15.41,8.75 15,8.75 C14.59,8.75 14.25,8.41 14.25,8 L14.25,7.5 C14.25,5.16000009 16.1600001,3.25 18.5,3.25 C20.8399999,3.25 22.75,5.16000009 22.75,7.5 C22.75,9.83999991 20.8399999,11.75 18.5,11.75 Z" id="Vector" fill="CURRENTCOLOR" fill-rule="nonzero"></path>
                    <path d="M9.31000042,8.75 L2,8.75 C1.59,8.75 1.25,8.41 1.25,8 C1.25,7.59 1.59,7.25 2,7.25 L9.31000042,7.25 C10.3800005,7.25 11.25,6.38 11.25,5.30999994 C11.25,4.23999989 10.3800005,3.36999989 9.31000042,3.36999989 C8.24000037,3.36999989 7.36999989,4.23999989 7.36999989,5.30999994 L7.36999989,5.69000006 C7.36999989,6.10000005 7.02999988,6.44000006 6.61999989,6.44000006 C6.20999989,6.44000006 5.86999989,6.11000004 5.86999989,5.69000006 L5.86999989,5.30999994 C5.86999989,3.40999997 7.41000044,1.86999989 9.31000042,1.86999989 C11.2100004,1.86999989 12.75,3.40999997 12.75,5.30999994 C12.75,7.20999992 11.2100004,8.75 9.31000042,8.75 Z" id="Vector" fill="CURRENTCOLOR" fill-rule="nonzero"></path>
                </g>
            </g>
        </g>
    </g>
</svg>