<?xml version="1.0" encoding="UTF-8"?>
<svg width="24px" height="24px" viewBox="0 0 24 24" version="1.1" xmlns="http://www.w3.org/2000/svg" xmlns:xlink="http://www.w3.org/1999/xlink">
    <title>Icon/User-search/Bulk</title>
    <defs>
        <path d="M5,0 L59,0 C61.7614237,-8.8817842e-16 64,2.23857625 64,5 L64,203 C64,205.761424 61.7614237,208 59,208 L5,208 C2.23857625,208 0,205.761424 0,203 L0,5 C0,2.23857625 2.23857625,0 5,0 Z" id="path-1"></path>
        <path d="M0,0 L24,0 L24,24 L0,24 L0,0 Z" id="path-2"></path>
    </defs>
    <g id="Icons" stroke="none" stroke-width="1" fill="none" fill-rule="evenodd">
        <g id="Basic-Users" transform="translate(-64, -578)" fill="CURRENTCOLOR" fill-rule="nonzero">
            <g id="User-search" transform="translate(44, 414)" xlink:href="#path-1">
                <g id="Icon/User-search/Bulk" transform="translate(20, 164)" xlink:href="#path-2">
                    <path d="M17,7 C17,9.76142383 14.7614238,12 12,12 C9.23857617,12 7,9.76142383 7,7 C7,4.23857617 9.23857617,2 12,2 C14.7614238,2 17,4.23857617 17,7 Z" id="Vector"></path>
                    <path d="M12,14.5 C6.98999977,14.5 2.90997314,17.8600001 2.90997314,22 C2.90997314,22.28 3.12997314,22.5 3.40997314,22.5 L20.5900269,22.5 C20.8700269,22.5 21.0900269,22.28 21.0900269,22 C21.0900269,17.8600001 17.0100002,14.5 12,14.5 Z" id="Vector" opacity="0.400000006"></path>
                    <path d="M22.7700195,20.6799927 L22.0100098,19.9199829 C22.4100098,19.3199829 22.6400146,18.6000171 22.6400146,17.8300171 C22.6400146,15.7200172 20.9300072,14.0100098 18.8200073,14.0100098 C16.7100074,14.0100098 15,15.7200172 15,17.8300171 C15,19.940017 16.7100074,21.6500244 18.8200073,21.6500244 C19.5900073,21.6500244 20.3099731,21.4200195 20.9099731,21.0200195 L21.6699829,21.7800293 C21.8199829,21.9300293 22.0199707,22.0100098 22.2199707,22.0100098 C22.4199707,22.0100098 22.6200195,21.9300293 22.7700195,21.7800293 C23.0800195,21.4700293 23.0800195,20.9799927 22.7700195,20.6799927 Z" id="Vector"></path>
                </g>
            </g>
        </g>
    </g>
</svg>