<?xml version="1.0" encoding="UTF-8"?>
<svg width="24px" height="24px" viewBox="0 0 24 24" version="1.1" xmlns="http://www.w3.org/2000/svg" xmlns:xlink="http://www.w3.org/1999/xlink">
    <title>Icon/User-search/Outline</title>
    <defs>
        <path d="M5,0 L59,0 C61.7614237,-8.8817842e-16 64,2.23857625 64,5 L64,203 C64,205.761424 61.7614237,208 59,208 L5,208 C2.23857625,208 0,205.761424 0,203 L0,5 C0,2.23857625 2.23857625,0 5,0 Z" id="path-1"></path>
        <path d="M0,0 L24,0 L24,24 L0,24 L0,0 Z" id="path-2"></path>
    </defs>
    <g id="Icons" stroke="none" stroke-width="1" fill="none" fill-rule="evenodd">
        <g id="Basic-Users" transform="translate(-64, -434)" fill="CURRENTCOLOR" fill-rule="nonzero">
            <g id="User-search" transform="translate(44, 414)" xlink:href="#path-1">
                <g id="Icon/User-search/Outline" transform="translate(20, 20)" xlink:href="#path-2">
                    <path d="M16.25,7 C16.25,4.65278983 14.3472102,2.75 12,2.75 C9.65278983,2.75 7.75,4.65278983 7.75,7 C7.75,9.34721017 9.65278983,11.25 12,11.25 C14.3472102,11.25 16.25,9.34721017 16.25,7 Z M17.75,7 C17.75,10.1756375 15.1756375,12.75 12,12.75 C8.82436252,12.75 6.25,10.1756375 6.25,7 C6.25,3.82436252 8.82436252,1.25 12,1.25 C15.1756375,1.25 17.75,3.82436252 17.75,7 Z" id="Vector-(Stroke)"></path>
                    <path d="M2.65997314,22 C2.65997314,17.5791969 6.99702358,14.25 11.9998169,14.25 C12.4140305,14.25 12.7498169,14.5857864 12.7498169,15 C12.7498169,15.4142136 12.4140305,15.75 11.9998169,15.75 C7.52277946,15.7500799 4.15997314,18.6809022 4.15997314,22 C4.15997314,22.4142136 3.82418671,22.75 3.40997314,22.75 C2.99575958,22.75 2.65997314,22.4142136 2.65997314,22 Z" id="Vector-(Stroke)"></path>
                    <path d="M20.6503906,18.2001953 C20.6503906,16.8471587 19.5532088,15.750099 18.2001953,15.75 C16.8470976,15.75 15.75,16.8470976 15.75,18.2001953 C15.750099,19.5532088 16.8471587,20.6503906 18.2001953,20.6503906 C19.5531478,20.6502917 20.6502917,19.5531478 20.6503906,18.2001953 Z M22.1503906,18.2001953 C22.1502917,20.3815749 20.3815749,22.1502917 18.2001953,22.1503906 C16.0187316,22.1503906 14.250099,20.3816359 14.25,18.2001953 C14.25,16.0186706 16.0186706,14.25 18.2001953,14.25 C20.3816359,14.250099 22.1503906,16.0187316 22.1503906,18.2001953 Z" id="Vector-(Stroke)"></path>
                    <path d="M20.4697271,20.4697271 C20.7626204,20.1768339 21.2373808,20.1768339 21.530274,20.4697271 L22.5302739,21.4697272 C22.8231671,21.7626204 22.8231671,22.2373807 22.5302739,22.5302739 C22.2373807,22.8231671 21.7626204,22.8231671 21.4697272,22.5302739 L20.4697271,21.530274 C20.1768339,21.2373808 20.1768339,20.7626204 20.4697271,20.4697271 Z" id="Vector-(Stroke)"></path>
                </g>
            </g>
        </g>
    </g>
</svg>