<?xml version="1.0" encoding="UTF-8"?>
<svg width="24px" height="24px" viewBox="0 0 24 24" version="1.1" xmlns="http://www.w3.org/2000/svg" xmlns:xlink="http://www.w3.org/1999/xlink">
    <title>Icon/User-search/Linear</title>
    <defs>
        <path d="M5,0 L59,0 C61.7614237,-8.8817842e-16 64,2.23857625 64,5 L64,203 C64,205.761424 61.7614237,208 59,208 L5,208 C2.23857625,208 0,205.761424 0,203 L0,5 C0,2.23857625 2.23857625,0 5,0 Z" id="path-1"></path>
        <path d="M0,0 L24,0 L24,24 L0,24 L0,0 Z" id="path-2"></path>
    </defs>
    <g id="Icons" stroke="none" stroke-width="1" fill="none" fill-rule="evenodd" stroke-linecap="round" stroke-linejoin="round">
        <g id="Basic-Users" transform="translate(-64, -482)" fill-rule="nonzero" stroke="CURRENTCOLOR" stroke-width="1.5">
            <g id="User-search" transform="translate(44, 414)" xlink:href="#path-1">
                <g id="Icon/User-search/Linear" transform="translate(20, 68)" xlink:href="#path-2">
                    <path d="M17,7 C17,9.76142383 14.7614238,12 12,12 C9.23857617,12 7,9.76142383 7,7 C7,4.23857617 9.23857617,2 12,2 C14.7614238,2 17,4.23857617 17,7 Z" id="Vector"></path>
                    <path d="M3.40997314,22 C3.40997314,18.1300001 7.26000023,15 12,15" id="Vector"></path>
                    <path d="M21.4000244,18.2000122 C21.4000244,19.9673234 19.9673234,21.4000244 18.2000122,21.4000244 C16.432701,21.4000244 15,19.9673234 15,18.2000122 C15,16.432701 16.432701,15 18.2000122,15 C19.9673234,15 21.4000244,16.432701 21.4000244,18.2000122 Z" id="Vector"></path>
                    <line x1="22" y1="22" x2="21" y2="21" id="Vector"></line>
                </g>
            </g>
        </g>
    </g>
</svg>