<?xml version="1.0" encoding="UTF-8"?>
<svg width="24px" height="24px" viewBox="0 0 24 24" version="1.1" xmlns="http://www.w3.org/2000/svg" xmlns:xlink="http://www.w3.org/1999/xlink">
    <title>Icon/Filter/Linear</title>
    <defs>
        <path d="M5,0 L59,0 C61.7614237,-8.8817842e-16 64,2.23857625 64,5 L64,203 C64,205.761424 61.7614237,208 59,208 L5,208 C2.23857625,208 0,205.761424 0,203 L0,5 C0,2.23857625 2.23857625,0 5,0 Z" id="path-1"></path>
        <path d="M0,0 L24,0 L24,24 L0,24 L0,0 Z" id="path-2"></path>
    </defs>
    <g id="Icons" stroke="none" stroke-width="1" fill="none" fill-rule="evenodd" stroke-linecap="round" stroke-linejoin="round">
        <g id="Basic-Search" transform="translate(-272, -234)" fill-rule="nonzero" stroke="CURRENTCOLOR" stroke-width="1.5">
            <g id="Filter" transform="translate(252, 166)" xlink:href="#path-1">
                <g id="Icon/Filter/Linear" transform="translate(20, 68)" xlink:href="#path-2">
                    <path d="M5.84998047,3 L18.1364002,3 C19.1579002,3 20,3.82248002 20,4.82023001 L20,6.81570005 C20,7.54379004 19.530701,8.44718009 19.0750999,8.90561008 L15.0717001,12.3572998 C14.5195001,12.8156998 14.1466999,13.7190997 14.1466999,14.4470997 L14.1466999,18.3572998 C14.1466999,18.8966008 13.7739999,19.6247007 13.3046999,19.9078007 L12.0069914,20.7303009 C10.7921613,21.4584009 9.12173033,20.6359009 9.12173033,19.1797009 L9.12173033,14.3663006 C9.12173033,13.7325006 8.74903032,12.9100992 8.37630033,12.4517002 L4.84225047,8.81122112 C4.37288046,8.35279113 4.00016736,7.54380113 4.00016736,6.99099112 L4.00016736,4.9011209 C3.98636236,3.8224709 4.82841051,3 5.84998047,3 Z" id="Vector"></path>
                    <line x1="10" y1="6" x2="14" y2="6" id="Vector"></line>
                </g>
            </g>
        </g>
    </g>
</svg>