<?xml version="1.0" encoding="UTF-8"?>
<svg width="24px" height="24px" viewBox="0 0 24 24" version="1.1" xmlns="http://www.w3.org/2000/svg" xmlns:xlink="http://www.w3.org/1999/xlink">
    <title>Icon/Filter/Outline</title>
    <defs>
        <path d="M5,0 L59,0 C61.7614237,-8.8817842e-16 64,2.23857625 64,5 L64,203 C64,205.761424 61.7614237,208 59,208 L5,208 C2.23857625,208 0,205.761424 0,203 L0,5 C0,2.23857625 2.23857625,0 5,0 Z" id="path-1"></path>
        <path d="M0,0 L24,0 L24,24 L0,24 L0,0 Z" id="path-2"></path>
    </defs>
    <g id="Icons" stroke="none" stroke-width="1" fill="none" fill-rule="evenodd">
        <g id="Basic-Search" transform="translate(-272, -186)" fill-rule="nonzero">
            <g id="Filter" transform="translate(252, 166)" xlink:href="#path-1">
                <g id="Icon/Filter/Outline" transform="translate(20, 20)" xlink:href="#path-2">
                    <path d="M10.77074,21.4980469 C10.307849,21.4980469 9.84495932,21.3798831 9.42747831,21.1425781 C8.61009532,20.6796871 8.12181425,19.8525395 8.12181425,18.9296875 L8.12181425,14.1162109 C8.12181425,13.6787109 7.82347429,13.0175777 7.54466629,12.6748047 L4.05443239,9.08349609 C3.4494524,8.49267608 3.00023338,7.50195295 3.00023338,6.74121094 L3.00023338,4.65087891 C2.99095638,3.94189489 3.25853434,3.27050799 3.75267434,2.77002001 C4.24290833,2.27343801 4.89915836,2 5.60033035,2 L17.8869514,2 C19.3283575,2 20.5002327,3.15283203 20.5002327,4.57031202 L20.5002327,6.56591702 C20.5002327,7.52929604 19.9250376,8.61230409 19.3576546,9.18408108 L15.3107796,12.675292 C14.9396856,12.984374 14.646718,13.6630847 14.646718,14.1972647 L14.646718,18.1074219 C14.646718,18.9296879 14.1174205,19.8935553 13.4426155,20.3007812 L12.1584358,21.1142578 C11.7307018,21.3701168 11.25072,21.4980469 10.77074,21.4980469 Z M5.60033035,3.5 C5.30345535,3.5 5.02611127,3.61474694 4.82005727,3.82373095 C4.60960828,4.03662194 4.49632729,4.32714903 4.50023329,4.64160204 L4.50023329,6.74121094 C4.50023329,7.05615193 4.76927635,7.68554705 5.11644435,8.02441406 L8.66478443,11.6791992 C9.14867142,12.2700192 9.6218152,13.2480469 9.6218152,14.1162109 L9.6218152,18.9296875 C9.6218152,19.4707035 10.0031634,19.7451176 10.1672254,19.8378906 C10.5495494,20.0546876 11.0104877,20.0537111 11.3718157,19.8369141 L12.653554,19.0244141 C12.895742,18.8779301 13.146718,18.4023439 13.146718,18.1074219 L13.146718,14.1972656 C13.146718,13.2119136 13.6379285,12.1157227 14.3420296,11.5307617 L18.3361702,8.0878911 C18.6271862,7.79052809 19.0002327,7.06640697 19.0002327,6.56591797 L19.0002327,4.57031298 C19.0002327,3.99023497 18.4904665,3.5 17.8869514,3.5 L5.60033035,3.5 Z" id="Vector" fill="CURRENTCOLOR"></path>
                    <line x1="10" y1="6" x2="14" y2="6" id="Vector" stroke="CURRENTCOLOR" stroke-width="1.5" stroke-linecap="round" stroke-linejoin="round"></line>
                </g>
            </g>
        </g>
    </g>
</svg>