<?xml version="1.0" encoding="UTF-8"?>
<svg width="24px" height="24px" viewBox="0 0 24 24" version="1.1" xmlns="http://www.w3.org/2000/svg" xmlns:xlink="http://www.w3.org/1999/xlink">
    <title>Icon/Filter/Bold</title>
    <defs>
        <path d="M5,0 L59,0 C61.7614237,-8.8817842e-16 64,2.23857625 64,5 L64,203 C64,205.761424 61.7614237,208 59,208 L5,208 C2.23857625,208 0,205.761424 0,203 L0,5 C0,2.23857625 2.23857625,0 5,0 Z" id="path-1"></path>
        <path d="M0,0 L24,0 L24,24 L0,24 L0,0 Z" id="path-2"></path>
    </defs>
    <g id="Icons" stroke="none" stroke-width="1" fill="none" fill-rule="evenodd">
        <g id="Basic-Search" transform="translate(-272, -282)" fill="CURRENTCOLOR" fill-rule="nonzero">
            <g id="Filter" transform="translate(252, 166)" xlink:href="#path-1">
                <g id="Icon/Filter/Bold" transform="translate(20, 116)" xlink:href="#path-2">
                    <path d="M10.77074,21.4980469 C10.307849,21.4980469 9.84495926,21.3798831 9.42747825,21.1425781 C8.61009526,20.6796871 8.12181419,19.8525395 8.12181419,18.9296875 L8.12181419,14.1162109 C8.12181419,13.6787109 7.82347423,13.0175777 7.54466623,12.6748047 L4.05443233,9.08349609 C3.44945234,8.49267608 3.00023332,7.50195295 3.00023332,6.74121094 L3.00023332,4.65087891 C2.99095632,3.94189489 3.25853428,3.27050799 3.75267428,2.77002001 C4.24290827,2.27343801 4.8991583,2 5.60033029,2 L17.8869514,2 C19.3283574,2 20.5002326,3.15283203 20.5002326,4.57031202 L20.5002326,6.56591702 C20.5002326,7.52929604 19.9250375,8.61230409 19.3576545,9.18408108 L15.3107795,12.675292 C14.9396855,12.984374 14.646718,13.6630847 14.646718,14.1972647 L14.646718,18.1074219 C14.646718,18.9296879 14.1174204,19.8935553 13.4426154,20.3007812 L12.1584358,21.1142578 C11.7307018,21.3701168 11.25072,21.4980469 10.77074,21.4980469 Z M9.99999976,6 L13.9999998,6" id="Subtract"></path>
                </g>
            </g>
        </g>
    </g>
</svg>