<?xml version="1.0" encoding="UTF-8"?>
<svg width="24px" height="24px" viewBox="0 0 24 24" version="1.1" xmlns="http://www.w3.org/2000/svg" xmlns:xlink="http://www.w3.org/1999/xlink">
    <title>Icon/User-edit/Bulk</title>
    <defs>
        <path d="M5,0 L59,0 C61.7614237,-8.8817842e-16 64,2.23857625 64,5 L64,203 C64,205.761424 61.7614237,208 59,208 L5,208 C2.23857625,208 0,205.761424 0,203 L0,5 C0,2.23857625 2.23857625,0 5,0 Z" id="path-1"></path>
        <path d="M0,0 L24,0 L24,24 L0,24 L0,0 Z" id="path-2"></path>
    </defs>
    <g id="Icons" stroke="none" stroke-width="1" fill="none" fill-rule="evenodd">
        <g id="Basic-Users" transform="translate(-168, -578)" fill-rule="nonzero">
            <g id="User-edit" transform="translate(148, 414)" xlink:href="#path-1">
                <g id="Icon/User-edit/Bulk" transform="translate(20, 164)" xlink:href="#path-2">
                    <path d="M17,7 C17,9.76142383 14.7614238,12 12,12 C9.23857617,12 7,9.76142383 7,7 C7,4.23857617 9.23857617,2 12,2 C14.7614238,2 17,4.23857617 17,7 Z" id="Vector" fill="CURRENTCOLOR"></path>
                    <path d="M12,14.5 C6.98999977,14.5 2.90997314,17.8600001 2.90997314,22 C2.90997314,22.28 3.12997314,22.5 3.40997314,22.5 L20.5900269,22.5 C20.8700269,22.5 21.0900269,22.28 21.0900269,22 C21.0900269,17.8600001 17.0100002,14.5 12,14.5 Z" id="Vector" fill="CURRENTCOLOR" opacity="0.400000006"></path>
                    <path d="M19.6301723,15.1719655 L16.0901332,18.7120047 C15.9501332,18.8520047 15.8201454,19.1119705 15.7901454,19.3019705 L15.6001429,20.6519461 C15.5301429,21.1419461 15.8701527,21.4819558 16.3601527,21.4119558 L17.7101283,21.2219534 C17.9001283,21.1919534 18.1701552,21.0619656 18.3001552,20.9219656 L21.8401332,17.3819873 C22.4501332,16.7719873 22.7401332,16.0619557 21.8401332,15.1619557 C20.9501332,14.2719557 20.2401723,14.5619655 19.6301723,15.1719655 Z" id="Vector" stroke="CURRENTCOLOR" stroke-width="1.5" stroke-linecap="round" stroke-linejoin="round"></path>
                    <path d="M19.1201859,15.6819458 C19.4201859,16.7619458 20.2601565,17.6019165 21.3401566,17.9019165" id="Vector" stroke="CURRENTCOLOR" stroke-width="1.5" stroke-linecap="round" stroke-linejoin="round"></path>
                </g>
            </g>
        </g>
    </g>
</svg>