<?xml version="1.0" encoding="UTF-8"?>
<svg width="24px" height="24px" viewBox="0 0 24 24" version="1.1" xmlns="http://www.w3.org/2000/svg" xmlns:xlink="http://www.w3.org/1999/xlink">
    <title>Icon/User-edit/Outline</title>
    <defs>
        <path d="M5,0 L59,0 C61.7614237,-8.8817842e-16 64,2.23857625 64,5 L64,203 C64,205.761424 61.7614237,208 59,208 L5,208 C2.23857625,208 0,205.761424 0,203 L0,5 C0,2.23857625 2.23857625,0 5,0 Z" id="path-1"></path>
        <path d="M0,0 L24,0 L24,24 L0,24 L0,0 Z" id="path-2"></path>
    </defs>
    <g id="Icons" stroke="none" stroke-width="1" fill="none" fill-rule="evenodd">
        <g id="Basic-Users" transform="translate(-168, -434)" fill-rule="nonzero">
            <g id="User-edit" transform="translate(148, 414)" xlink:href="#path-1">
                <g id="Icon/User-edit/Outline" transform="translate(20, 20)" xlink:href="#path-2">
                    <path d="M16.25,7 C16.25,4.65278983 14.3472102,2.75 12,2.75 C9.65278983,2.75 7.75,4.65278983 7.75,7 C7.75,9.34721017 9.65278983,11.25 12,11.25 C14.3472102,11.25 16.25,9.34721017 16.25,7 Z M17.75,7 C17.75,10.1756375 15.1756375,12.75 12,12.75 C8.82436252,12.75 6.25,10.1756375 6.25,7 C6.25,3.82436252 8.82436252,1.25 12,1.25 C15.1756375,1.25 17.75,3.82436252 17.75,7 Z" id="Vector-(Stroke)" fill="CURRENTCOLOR"></path>
                    <path d="M2.65997314,22 C2.65997314,17.5791969 6.99702358,14.25 11.9998169,14.25 C12.4140305,14.25 12.7498169,14.5857864 12.7498169,15 C12.7498169,15.4142136 12.4140305,15.75 11.9998169,15.75 C7.52277946,15.7500799 4.15997314,18.6809022 4.15997314,22 C4.15997314,22.4142136 3.82418671,22.75 3.40997314,22.75 C2.99575958,22.75 2.65997314,22.4142136 2.65997314,22 Z" id="Vector-(Stroke)" fill="CURRENTCOLOR"></path>
                    <path d="M18.8291087,15.3621472 L15.2890696,18.9021864 C15.1490696,19.0421864 15.0190818,19.3021522 14.9890818,19.4921522 L14.7990794,20.8421278 C14.7290794,21.3321278 15.0690892,21.6721376 15.5590892,21.6021376 L16.9090648,21.4121351 C17.0990648,21.3821351 17.3690916,21.2521473 17.4990916,21.1121473 L21.0390697,17.5721691 C21.6490697,16.9621691 21.9390696,16.2521374 21.0390697,15.3521374 C20.1490697,14.4621375 19.4391087,14.7521472 18.8291087,15.3621472 Z" id="Vector" stroke="CURRENTCOLOR" stroke-width="1.5" stroke-linecap="round" stroke-linejoin="round"></path>
                    <path d="M18.3191223,15.8721275 C18.6191223,16.9521276 19.459093,17.7920982 20.539093,18.0920982" id="Vector" stroke="CURRENTCOLOR" stroke-width="1.5" stroke-linecap="round" stroke-linejoin="round"></path>
                </g>
            </g>
        </g>
    </g>
</svg>