<?xml version="1.0" encoding="UTF-8"?>
<svg width="24px" height="24px" viewBox="0 0 24 24" version="1.1" xmlns="http://www.w3.org/2000/svg" xmlns:xlink="http://www.w3.org/1999/xlink">
    <title>Icon/Filter-remove/Bulk</title>
    <defs>
        <path d="M5,0 L59,0 C61.7614237,-8.8817842e-16 64,2.23857625 64,5 L64,203 C64,205.761424 61.7614237,208 59,208 L5,208 C2.23857625,208 0,205.761424 0,203 L0,5 C0,2.23857625 2.23857625,0 5,0 Z" id="path-1"></path>
        <path d="M0,0 L24,0 L24,24 L0,24 L0,0 Z" id="path-2"></path>
    </defs>
    <g id="Icons" stroke="none" stroke-width="1" fill="none" fill-rule="evenodd">
        <g id="Basic-Search" transform="translate(-584, -330)" fill-rule="nonzero">
            <g id="Filter-remove" transform="translate(564, 166)" xlink:href="#path-1">
                <g id="Icon/Filter-remove/Bulk" transform="translate(20, 164)" xlink:href="#path-2">
                    <polygon id="Vector" opacity="0" transform="translate(12, 12) rotate(-180) translate(-12, -12)" points="0 0 24 0 24 24 0 24"></polygon>
                    <path d="M5.40999985,2 L18.5799999,2 C19.6799999,2 20.5799999,2.909989 20.5799999,4.01998901 L20.5799999,6.23999023 C20.5799999,7.04999024 20.0799999,8.05999756 19.5799999,8.55999756 L15.29,12.3999939 C14.6899999,12.9099939 14.29,13.9200012 14.29,14.7200012 L14.29,19.0599976 C14.29,19.6699976 13.8900003,20.4699988 13.3900003,20.7799988 L12,21.7000122 C10.7,22.5100122 8.90999985,21.600011 8.90999985,19.980011 L8.90999985,14.6300049 C8.90999985,13.9200049 8.50999966,13.0100098 8.10999966,12.5100098 L4.32000017,8.47000122 C3.82000017,7.96000123 3.42000008,7.06001222 3.42000008,6.45001221 L3.42000008,4.13000488 C3.42000008,2.91000485 4.31999981,2 5.40999985,2 Z" id="Vector" fill="CURRENTCOLOR" opacity="0.400000006"></path>
                    <path d="M16.8799992,10 C14.2599993,10 12.1300001,12.1300001 12.1300001,14.75 C12.1300001,15.64 12.3799997,16.4800122 12.8199997,17.2000122 C13.6399997,18.5800122 15.1499991,19.5 16.8799992,19.5 C18.6099992,19.5 20.1200005,18.5700122 20.9400005,17.2000122 C21.3800005,16.4900122 21.6300001,15.64 21.6300001,14.75 C21.6300001,12.1300001 19.5099993,10 16.8799992,10 Z M18.6800003,16.519989 C18.5300003,16.669989 18.3399996,16.7399902 18.1499996,16.7399902 C17.9599996,16.7399902 17.7700008,16.669989 17.6200008,16.519989 L16.8999996,15.7999878 L16.1499996,16.5499878 C15.9999996,16.6999878 15.8099999,16.769989 15.6199999,16.769989 C15.4299999,16.769989 15.2400002,16.6999878 15.0900002,16.5499878 C14.8000002,16.2599878 14.8000002,15.7799902 15.0900002,15.4899902 L15.8400002,14.7399902 L15.1199999,14.0100098 C14.8299999,13.7200098 14.8299999,13.2400122 15.1199999,12.9500122 C15.4099999,12.6600122 15.8900003,12.6600122 16.1800003,12.9500122 L16.8999996,13.6700134 L17.6000004,12.9700012 C17.8900004,12.6800012 18.3699999,12.6800012 18.6599998,12.9700012 C18.9499998,13.2600012 18.9499998,13.7399988 18.6599998,14.0299988 L17.9599991,14.730011 L18.6800003,15.4599915 C18.9800003,15.7499914 18.9800003,16.229989 18.6800003,16.519989 Z" id="Vector" fill="CURRENTCOLOR"></path>
                </g>
            </g>
        </g>
    </g>
</svg>