<?xml version="1.0" encoding="UTF-8"?>
<svg width="24px" height="24px" viewBox="0 0 24 24" version="1.1" xmlns="http://www.w3.org/2000/svg" xmlns:xlink="http://www.w3.org/1999/xlink">
    <title>Icon/Filter-remove/Outline</title>
    <defs>
        <path d="M5,0 L59,0 C61.7614237,-8.8817842e-16 64,2.23857625 64,5 L64,203 C64,205.761424 61.7614237,208 59,208 L5,208 C2.23857625,208 0,205.761424 0,203 L0,5 C0,2.23857625 2.23857625,0 5,0 Z" id="path-1"></path>
        <path d="M0,0 L24,0 L24,24 L0,24 L0,0 Z" id="path-2"></path>
    </defs>
    <g id="Icons" stroke="none" stroke-width="1" fill="none" fill-rule="evenodd">
        <g id="Basic-Search" transform="translate(-584, -186)" fill-rule="nonzero">
            <g id="Filter-remove" transform="translate(564, 166)" xlink:href="#path-1">
                <g id="Icon/Filter-remove/Outline" transform="translate(20, 20)" xlink:href="#path-2">
                    <path d="M13.4095707,20.789978 L11.9995708,21.7000122 C10.6895709,22.5100098 8.86957026,21.5999805 8.86957026,19.9799805 L8.86957026,14.6300049 C8.86957026,13.9200049 8.46957079,13.0100098 8.05957079,12.5100098 L4.21957016,8.4699707 C3.70957017,7.95997071 3.30957031,7.06001222 3.30957031,6.45001221 L3.30957031,4.13000488 C3.30957031,2.92000484 4.21957028,2.01000977 5.32957029,2.01000977 L18.6695709,2.01000977 C19.7795709,2.01000977 20.6895714,2.92002928 20.6895714,4.0300293 L20.6895714,6.25 C20.6895714,7.06 20.1795712,8.07000732 19.6795712,8.57000732" id="Vector" stroke="CURRENTCOLOR" stroke-width="1.5" stroke-linecap="round" stroke-linejoin="round"></path>
                    <path d="M20.8800001,14.75 C20.8800001,12.544214 19.0857861,10.75 16.8800001,10.75 C14.6742139,10.75 12.8800001,12.5442135 12.8800001,14.75 C12.8800001,15.5001568 13.0907572,16.2133219 13.4571486,16.8046875 L13.4639845,16.8144531 C14.1543574,17.9678811 15.4248732,18.75 16.8800001,18.75 C18.3375987,18.75 19.6061607,17.9757384 20.2950392,16.8164063 L20.299922,16.8085937 C20.6700826,16.2028011 20.8800001,15.4977702 20.8800001,14.75 Z M22.3800001,14.75 C22.3800001,15.7786684 22.0906712,16.7497365 21.5841017,17.5820312 L21.5850782,17.5830078 C20.6339571,19.1836752 18.8824008,20.25 16.8800001,20.25 C14.8751309,20.25 13.1265035,19.1715279 12.1768751,17.5849609 L12.1768751,17.5839844 C11.66747,16.7575956 11.3800001,15.7753334 11.3800001,14.75 C11.3800001,11.7157867 13.8457866,9.25 16.8800001,9.25 C19.9142132,9.25 22.3800001,11.7157869 22.3800001,14.75 Z" id="Vector-(Stroke)" fill="CURRENTCOLOR"></path>
                    <path d="M15.1093178,12.9496498 C15.4022113,12.6567576 15.876972,12.6567571 16.1698647,12.9496498 L18.6796303,15.4594154 C18.9725208,15.7523071 18.9725178,16.2270692 18.6796303,16.5199623 C18.3867365,16.8128549 17.911976,16.8128561 17.6190834,16.5199623 L15.1093178,14.0101967 C14.8164256,13.7173032 14.8164251,13.2425425 15.1093178,12.9496498 Z" id="Vector-(Stroke)" fill="CURRENTCOLOR"></path>
                    <path d="M17.5994921,12.9797362 C17.8923461,12.686881 18.3671358,12.6869594 18.6600389,12.9797362 C18.9529328,13.2726288 18.9529316,13.7473893 18.6600389,14.0402831 L16.1502733,16.5500488 C15.8573807,16.8429427 15.3826203,16.8429414 15.0897264,16.5500488 C14.7969558,16.2571463 14.7968749,15.7823547 15.0897264,15.489502 L17.5994921,12.9797362 Z" id="Vector-(Stroke)" fill="CURRENTCOLOR"></path>
                    <polygon id="Vector" opacity="0" transform="translate(12, 12) rotate(-180) translate(-12, -12)" points="0 0 24 0 24 24 0 24"></polygon>
                    <path d="M11.3798828,14.75 C11.3798828,11.7157865 13.8456693,9.25 16.8798828,9.25 C17.1567464,9.25001544 17.43084,9.2725867 17.6992187,9.31445312 L19.1542969,8.03222656 C19.3283723,7.85085598 19.5310689,7.55502117 19.6894531,7.20703125 C19.8524624,6.84883618 19.9393991,6.50266245 19.9394531,6.24023437 L19.9394531,4.02050781 C19.9394531,3.32482916 19.3655413,2.75019305 18.6699219,2.75 L5.32910156,2.75 C4.65702987,2.75025572 4.05957031,3.30059946 4.05957031,4.12011719 L4.05957031,6.45019531 L4.07128906,6.5859375 C4.09479902,6.74099864 4.15485175,6.95047605 4.26074219,7.18554688 C4.3640891,7.41493927 4.49278659,7.62707527 4.62402344,7.79394531 L4.75488281,7.9453125 L4.76367187,7.953125 L8.60351562,11.9931641 L8.64550781,12.0410156 C8.89857802,12.3573534 9.13555358,12.7763445 9.31054687,13.2109375 C9.48383877,13.6413254 9.61911778,14.1455295 9.61914062,14.6298828 L9.61914062,19.9804687 C9.6195142,20.9703958 10.756352,21.5827646 11.6015625,21.0634766 L13.0029297,20.1601562 L13.0292969,20.1435547 C13.1210878,20.08956 13.2644629,19.9429369 13.3896484,19.7011719 C13.4992418,19.4894871 13.5536107,19.277471 13.5644531,19.1220703 C13.0001199,18.7047116 12.5307289,18.1787615 12.1757813,17.5839844 L12.1757813,17.5830078 C11.6688907,16.7505254 11.3798828,15.7790202 11.3798828,14.75 Z M21.4394531,6.24023437 C21.4394531,6.78769314 21.2715914,7.35149738 21.0546875,7.828125 C20.8365425,8.30747464 20.5381942,8.76489994 20.2148437,9.09472656 C20.2020198,9.10780695 20.1885517,9.12070589 20.1748047,9.1328125 L18.4150391,10.6826172 C18.2314716,10.8442743 17.980889,10.9061875 17.7431641,10.8486328 C17.4752623,10.7836869 17.1846704,10.7500232 16.8798828,10.75 C14.6740966,10.75 12.8798828,12.5442138 12.8798828,14.75 C12.8798828,15.404323 13.03999,16.0261004 13.328125,16.5771484 L13.4599609,16.8085937 L13.4638672,16.8154297 C13.7751009,17.3369565 14.2008634,17.7775957 14.7119141,18.0908203 C14.9341214,18.2272197 15.0693359,18.4697127 15.0693359,18.7304687 L15.0693359,19.0703125 C15.0692717,19.522131 14.9265551,19.9948543 14.7216797,20.390625 C14.5236698,20.7730322 14.2202946,21.1714824 13.8154297,21.4189453 L13.8164062,21.4199219 L12.40625,22.3300781 C12.4021828,22.3327032 12.397672,22.3353448 12.3935547,22.3378906 C10.6193796,23.4345783 8.11950246,22.2285581 8.11914063,19.9804687 L8.11914063,14.6298828 C8.11911573,14.4043129 8.05058336,14.0984537 7.91894531,13.7714844 C7.79222003,13.4567493 7.62858555,13.1771838 7.484375,12.9931641 L3.68359375,8.99414062 C3.35833403,8.66216865 3.08562569,8.22806841 2.89355469,7.80175781 C2.72843896,7.43526122 2.5967664,7.01668346 2.56640625,6.61914062 L2.55957031,6.45019531 L2.55957031,4.12011719 C2.55957031,2.51998687 3.78158617,1.25025632 5.32910156,1.25 L18.6699219,1.25 C20.193985,1.25 21.4394531,2.49642038 21.4394531,4.02050781 L21.4394531,6.24023437 Z" id="Vector-(Stroke)" fill="CURRENTCOLOR"></path>
                </g>
            </g>
        </g>
    </g>
</svg>