<?xml version="1.0" encoding="UTF-8"?>
<svg width="24px" height="24px" viewBox="0 0 24 24" version="1.1" xmlns="http://www.w3.org/2000/svg" xmlns:xlink="http://www.w3.org/1999/xlink">
    <title>Icon/Filter-remove/Linear</title>
    <defs>
        <path d="M5,0 L59,0 C61.7614237,-8.8817842e-16 64,2.23857625 64,5 L64,203 C64,205.761424 61.7614237,208 59,208 L5,208 C2.23857625,208 0,205.761424 0,203 L0,5 C0,2.23857625 2.23857625,0 5,0 Z" id="path-1"></path>
        <path d="M0,0 L24,0 L24,24 L0,24 L0,0 Z" id="path-2"></path>
    </defs>
    <g id="Icons" stroke="none" stroke-width="1" fill="none" fill-rule="evenodd">
        <g id="Basic-Search" transform="translate(-584, -234)" fill-rule="nonzero">
            <g id="Filter-remove" transform="translate(564, 166)" xlink:href="#path-1">
                <g id="Icon/Filter-remove/Linear" transform="translate(20, 68)" xlink:href="#path-2">
                    <path d="M13.4095707,20.789978 L11.9995708,21.7000122 C10.6895709,22.5100098 8.86957026,21.5999805 8.86957026,19.9799805 L8.86957026,14.6300049 C8.86957026,13.9200049 8.46957079,13.0100098 8.05957079,12.5100098 L4.21957016,8.4699707 C3.70957017,7.95997071 3.30957031,7.06001222 3.30957031,6.45001221 L3.30957031,4.13000488 C3.30957031,2.92000484 4.21957028,2.01000977 5.32957029,2.01000977 L18.6695709,2.01000977 C19.7795709,2.01000977 20.6895714,2.92002928 20.6895714,4.0300293 L20.6895714,6.25 C20.6895714,7.06 20.1795712,8.07000732 19.6795712,8.57000732" id="Vector" stroke="CURRENTCOLOR" stroke-width="1.5" stroke-linecap="round" stroke-linejoin="round"></path>
                    <path d="M21.6300001,14.75 C21.6300001,15.64 21.3800005,16.4800122 20.9400005,17.2000122 C20.1200005,18.5800122 18.6099992,19.5 16.8799992,19.5 C15.1499991,19.5 13.6399997,18.5700122 12.8199997,17.2000122 C12.3799997,16.4900122 12.1300001,15.64 12.1300001,14.75 C12.1300001,12.1300001 14.2599993,10 16.8799992,10 C19.499999,10 21.6300001,12.1300001 21.6300001,14.75 Z" id="Vector" stroke="CURRENTCOLOR" stroke-width="1.5" stroke-linecap="round" stroke-linejoin="round"></path>
                    <line x1="18.1496477" y1="15.9899902" x2="15.6396484" y2="13.4799805" id="Vector" stroke="CURRENTCOLOR" stroke-width="1.5" stroke-linecap="round" stroke-linejoin="round"></line>
                    <line x1="18.1299992" y1="13.5100098" x2="15.6199999" y2="16.0200195" id="Vector" stroke="CURRENTCOLOR" stroke-width="1.5" stroke-linecap="round" stroke-linejoin="round"></line>
                    <polygon id="Vector" opacity="0" transform="translate(12, 12) rotate(-180) translate(-12, -12)" points="0 0 24 0 24 24 0 24"></polygon>
                    <path d="M20.6895714,4.02001953 L20.6895714,6.23999023 C20.6895714,7.04999024 20.1795712,8.06000733 19.6795712,8.57000732 L17.9195709,10.1199951 C17.5895709,10.0399951 17.23957,10 16.87957,10 C14.2595701,10 12.12957,12.1300001 12.12957,14.75 C12.12957,15.64 12.3795705,16.4800122 12.8195705,17.2000122 C13.1895705,17.8200122 13.6995705,18.3499805 14.3195705,18.7299805 L14.3195705,19.0700073 C14.3195705,19.6800073 13.9195707,20.489978 13.4095707,20.789978 L11.9995708,21.7000122 C10.6895709,22.5100122 8.86957026,21.5999805 8.86957026,19.9799805 L8.86957026,14.6300049 C8.86957026,13.9200049 8.4595708,13.0100098 8.05957079,12.5100098 L4.21957016,8.4699707 C3.71957016,7.95997071 3.30957031,7.05001223 3.30957031,6.45001221 L3.30957031,4.11999512 C3.30957031,2.90999508 4.21957028,2 5.32957029,2 L18.6695709,2 C19.7795709,2 20.6895714,2.91001952 20.6895714,4.02001953 Z" id="Vector" stroke="CURRENTCOLOR" stroke-width="1.5" stroke-linecap="round" stroke-linejoin="round"></path>
                </g>
            </g>
        </g>
    </g>
</svg>