<?xml version="1.0" encoding="UTF-8"?>
<svg width="24px" height="24px" viewBox="0 0 24 24" version="1.1" xmlns="http://www.w3.org/2000/svg" xmlns:xlink="http://www.w3.org/1999/xlink">
    <title>Icon/Loading-circle/Bulk</title>
    <defs>
        <path d="M5,0 L59,0 C61.7614237,-8.8817842e-16 64,2.23857625 64,5 L64,203 C64,205.761424 61.7614237,208 59,208 L5,208 C2.23857625,208 0,205.761424 0,203 L0,5 C0,2.23857625 2.23857625,0 5,0 Z" id="path-1"></path>
        <path d="M0,0 L24,0 L24,24 L0,24 L0,0 Z" id="path-2"></path>
    </defs>
    <g id="Icons" stroke="none" stroke-width="1" fill="none" fill-rule="evenodd">
        <g id="Basic-System-feedback" transform="translate(-64, -826)" fill="CURRENTCOLOR" fill-rule="nonzero">
            <g id="loading-circle" transform="translate(44, 662)" xlink:href="#path-1">
                <g id="Icon/Loading-circle/Bulk" transform="translate(20, 164)" xlink:href="#path-2">
                    <circle id="Ellipse-1173" opacity="0.400000006" cx="12" cy="4" r="2"></circle>
                    <circle id="Ellipse-1174" opacity="0.400000006" cx="12" cy="20" r="2"></circle>
                    <circle id="Ellipse-1175" transform="translate(18.9281, 8.0001) rotate(60) translate(-18.9281, -8.0001)" cx="18.9281053" cy="8.00011724" r="2"></circle>
                    <circle id="Ellipse-1176" opacity="0.400000006" transform="translate(5.0717, 16.0001) rotate(60) translate(-5.0717, -16.0001)" cx="5.07165998" cy="16.0001172" r="2"></circle>
                    <circle id="Ellipse-1177" opacity="0.400000006" transform="translate(18.9281, 16.0001) scale(-1, -1) rotate(-60) translate(-18.9281, -16.0001)" cx="18.9281054" cy="16.0001171" r="2"></circle>
                    <circle id="Ellipse-1178" opacity="0.400000006" transform="translate(5.0717, 8.0001) scale(-1, -1) rotate(-60) translate(-5.0717, -8.0001)" cx="5.07166004" cy="8.00011706" r="2"></circle>
                </g>
            </g>
        </g>
    </g>
</svg>