<?xml version="1.0" encoding="UTF-8"?>
<svg width="24px" height="24px" viewBox="0 0 24 24" version="1.1" xmlns="http://www.w3.org/2000/svg" xmlns:xlink="http://www.w3.org/1999/xlink">
    <title>Icon/Loading-circle/Bold</title>
    <defs>
        <path d="M5,0 L59,0 C61.7614237,-8.8817842e-16 64,2.23857625 64,5 L64,203 C64,205.761424 61.7614237,208 59,208 L5,208 C2.23857625,208 0,205.761424 0,203 L0,5 C0,2.23857625 2.23857625,0 5,0 Z" id="path-1"></path>
        <path d="M0,0 L24,0 L24,24 L0,24 L0,0 Z" id="path-2"></path>
    </defs>
    <g id="Icons" stroke="none" stroke-width="1" fill="none" fill-rule="evenodd">
        <g id="Basic-System-feedback" transform="translate(-64, -778)" fill="CURRENTCOLOR" fill-rule="nonzero">
            <g id="loading-circle" transform="translate(44, 662)" xlink:href="#path-1">
                <g id="Icon/Loading-circle/Bold" transform="translate(20, 116)" xlink:href="#path-2">
                    <path d="M13.9999638,4 C13.9999638,5.10456944 13.1045332,6 11.9999638,6 C10.8953942,6 9.99996376,5.10456944 9.99996376,4 C9.99996376,2.89543045 10.8953942,2 11.9999638,2 C13.1045332,2 13.9999638,2.89543045 13.9999638,4 Z" id="Ellipse-1173"></path>
                    <path d="M13.9999638,20 C13.9999638,21.1045694 13.1045332,22 11.9999638,22 C10.8953942,22 9.99996376,21.1045694 9.99996376,20 C9.99996376,18.8954304 10.8953942,18 11.9999638,18 C13.1045332,18 13.9999638,18.8954304 13.9999638,20 Z" id="Ellipse-1174"></path>
                    <path d="M20.9280691,8.00011724 C20.9280691,9.10468668 20.0326385,10.0001172 18.9280691,10.0001172 C17.8234995,10.0001172 16.9280691,9.10468668 16.9280691,8.00011724 C16.9280691,6.89554769 17.8234995,6.00011724 18.9280691,6.00011724 C20.0326385,6.00011724 20.9280691,6.89554769 20.9280691,8.00011724 Z" id="Ellipse-1175" transform="translate(18.9281, 8.0001) rotate(60) translate(-18.9281, -8.0001)"></path>
                    <path d="M7.07186693,16.0001172 C7.07186693,17.1046867 6.17643636,18.0001172 5.07186693,18.0001172 C3.96729738,18.0001172 3.07186693,17.1046867 3.07186693,16.0001172 C3.07186693,14.8955477 3.96729738,14.0001172 5.07186693,14.0001172 C6.17643636,14.0001172 7.07186693,14.8955477 7.07186693,16.0001172 Z" id="Ellipse-1176" transform="translate(5.0719, 16.0001) rotate(60) translate(-5.0719, -16.0001)"></path>
                    <path d="M20.9280691,15.9998729 C20.9280691,17.1044424 20.0326385,17.9998729 18.9280691,17.9998729 C17.8234996,17.9998729 16.9280691,17.1044424 16.9280691,15.9998729 C16.9280691,14.8953034 17.8234996,13.9998729 18.9280691,13.9998729 C20.0326385,13.9998729 20.9280691,14.8953034 20.9280691,15.9998729 Z" id="Ellipse-1177" transform="translate(18.9281, 15.9999) scale(-1, -1) rotate(-60) translate(-18.9281, -15.9999)"></path>
                    <path d="M7.07186747,8.00011706 C7.07186747,9.1046865 6.1764369,10.0001171 5.07186747,10.0001171 C3.96729791,10.0001171 3.07186747,9.1046865 3.07186747,8.00011706 C3.07186747,6.89554751 3.96729791,6.00011706 5.07186747,6.00011706 C6.1764369,6.00011706 7.07186747,6.89554751 7.07186747,8.00011706 Z" id="Ellipse-1178" transform="translate(5.0719, 8.0001) scale(-1, -1) rotate(-60) translate(-5.0719, -8.0001)"></path>
                </g>
            </g>
        </g>
    </g>
</svg>