<?xml version="1.0" encoding="UTF-8"?>
<svg width="24px" height="24px" viewBox="0 0 24 24" version="1.1" xmlns="http://www.w3.org/2000/svg" xmlns:xlink="http://www.w3.org/1999/xlink">
    <title>Icon/Loading-circle/Linear</title>
    <defs>
        <path d="M5,0 L59,0 C61.7614237,-8.8817842e-16 64,2.23857625 64,5 L64,203 C64,205.761424 61.7614237,208 59,208 L5,208 C2.23857625,208 0,205.761424 0,203 L0,5 C0,2.23857625 2.23857625,0 5,0 Z" id="path-1"></path>
        <path d="M0,0 L24,0 L24,24 L0,24 L0,0 Z" id="path-2"></path>
    </defs>
    <g id="Icons" stroke="none" stroke-width="1" fill="none" fill-rule="evenodd">
        <g id="Basic-System-feedback" transform="translate(-64, -730)" fill-rule="nonzero" stroke="CURRENTCOLOR">
            <g id="loading-circle" transform="translate(44, 662)" xlink:href="#path-1">
                <g id="Icon/Loading-circle/Linear" transform="translate(20, 68)" xlink:href="#path-2" fill-rule="evenodd">
                    <g id="Vector" transform="translate(3.0715, 2)">
                        <path d="M10.9284906,2 C10.9284906,3.10456955 10.0330602,4 8.92849064,4 C7.82392108,4 6.92849112,3.10456955 6.92849112,2 C6.92849112,0.895430446 7.82392108,0 8.92849064,0 C10.0330602,0 10.9284906,0.895430446 10.9284906,2 Z" stroke-width="1.5" fill-rule="nonzero"></path>
                        <path d="M10.9284906,18 C10.9284906,19.1045696 10.0330602,20 8.92849064,20 C7.82392108,20 6.92849112,19.1045696 6.92849112,18 C6.92849112,16.8954304 7.82392108,16 8.92849064,16 C10.0330602,16 10.9284906,16.8954304 10.9284906,18 Z" stroke-width="1.5" fill-rule="nonzero"></path>
                        <path d="M16.8567181,7.73204613 C15.9001328,8.28433084 14.6769519,7.95658052 14.1246672,7 C13.5723825,6.04340994 13.9001328,4.82022905 14.8567181,4.26794434 C15.8133034,3.71565962 17.0364852,4.04340994 17.5887699,5 C18.1410546,5.95658052 17.8133034,7.17976141 16.8567181,7.73204613 Z" stroke-width="1.5" fill-rule="nonzero"></path>
                        <path d="M3.00033402,15.7320461 C2.04374874,16.2843308 0.820567816,15.9565805 0.268283099,15 C-0.284001619,14.0434099 0.0437487364,12.8202291 1.00033402,12.2679443 C1.95691931,11.7156596 3.1801002,12.0434099 3.73238492,13 C4.28466964,13.9565805 3.95691931,15.1797614 3.00033402,15.7320461 Z" stroke-width="1.5" fill-rule="nonzero"></path>
                        <path d="M14.8567181,15.7320461 C13.9001328,15.1797613 13.5723823,13.9565805 14.1246672,13 C14.676952,12.04341 15.9001328,11.7156595 16.8567181,12.2679443 C17.8133033,12.8202292 18.1410547,14.04341 17.5887699,15 C17.0364851,15.9565805 15.8133033,16.284331 14.8567181,15.7320461 Z" stroke-width="1.5" fill-rule="nonzero"></path>
                        <path d="M1.00033391,7.73207617 C0.0437486768,7.17979133 -0.284001559,5.9566105 0.268283278,5.00002527 C0.820568115,4.04344004 2.04374903,3.71569002 3.00033426,4.26797485 C3.95691949,4.82025969 4.28466976,6.04344052 3.73238492,7.00002575 C3.18010008,7.95661098 1.95691913,8.284361 1.00033391,7.73207617 Z" stroke-width="1.5" fill-rule="nonzero"></path>
                    </g>
                </g>
            </g>
        </g>
    </g>
</svg>