<?xml version="1.0" encoding="UTF-8"?>
<svg width="24px" height="24px" viewBox="0 0 24 24" version="1.1" xmlns="http://www.w3.org/2000/svg" xmlns:xlink="http://www.w3.org/1999/xlink">
    <title>Icon/Loading-circle/Outline</title>
    <defs>
        <path d="M5,0 L59,0 C61.7614237,-8.8817842e-16 64,2.23857625 64,5 L64,203 C64,205.761424 61.7614237,208 59,208 L5,208 C2.23857625,208 0,205.761424 0,203 L0,5 C0,2.23857625 2.23857625,0 5,0 Z" id="path-1"></path>
        <path d="M0,0 L24,0 L24,24 L0,24 L0,0 Z" id="path-2"></path>
    </defs>
    <g id="Icons" stroke="none" stroke-width="1" fill="none" fill-rule="evenodd">
        <g id="Basic-System-feedback" transform="translate(-64, -682)" fill="CURRENTCOLOR" fill-rule="nonzero">
            <g id="loading-circle" transform="translate(44, 662)" xlink:href="#path-1">
                <g id="Icon/Loading-circle/Outline" transform="translate(20, 20)" xlink:href="#path-2">
                    <path d="M13.2498941,20 C13.2498941,19.3097174 12.6901489,18.750119 11.9998941,18.75 C11.3095384,18.75 10.7498941,19.3096437 10.7498941,20 C10.7498941,20.6903563 11.3095384,21.25 11.9998941,21.25 C12.6901489,21.249881 13.2498941,20.6902826 13.2498941,20 Z M3.69618332,13.6181641 C5.01147938,12.8587776 6.6936205,13.3097152 7.45301914,14.625 C8.21241063,15.9403048 7.76148796,17.6224445 6.4461832,18.3818359 C5.13098836,19.1408991 3.44969046,18.6900536 2.69032389,17.375 C1.93095887,16.059741 2.38098454,14.3775933 3.69618332,13.6181641 Z M16.5467691,14.625 C17.3061507,13.3099449 18.9874336,12.8590641 20.3026295,13.6181641 C21.6179334,14.3775553 22.0688575,16.0596946 21.3094654,17.375 C20.5500719,18.6902994 18.8679309,19.1412263 17.5526285,18.3818359 C16.2373914,17.6224204 15.7873942,15.9402758 16.5467691,14.625 Z M6.15419102,15.375 C5.8090131,14.7771342 5.04404902,14.5718142 4.4461832,14.9169922 C3.84835327,15.2621829 3.64398304,16.0271496 3.98915207,16.625 C4.33426255,17.2226545 5.09841031,17.4278018 5.6961832,17.0830078 C6.29402727,16.7378424 6.49931657,15.9728562 6.15419102,15.375 Z M19.5526295,14.9169922 C18.9548559,14.5721616 18.1907229,14.7773436 17.8455973,15.375 C17.5004193,15.9728656 17.7047626,16.7378297 18.3026285,17.0830078 C18.9004937,17.428183 19.6654599,17.2228646 20.0106373,16.625 C20.3557473,16.0271474 20.150468,15.2621545 19.5526295,14.9169922 Z M2.69032389,6.625 C3.44969308,5.3099612 5.13099492,4.85911131 6.4461832,5.61816406 C7.76148784,6.37755567 8.21241081,8.05969524 7.45301914,9.375 C6.69362462,10.690297 5.0114845,11.1412256 3.69618332,10.3818359 C2.38099146,9.6224041 1.93096036,7.940256 2.69032389,6.625 Z M17.5526285,5.61816406 C18.8679332,4.8587727 20.5500738,5.30969501 21.3094654,6.625 C22.068857,7.94030523 21.6179336,9.62244481 20.3026295,10.3818359 C18.9874367,11.140931 17.3061519,10.6900485 16.5467691,9.375 C15.7873953,8.05972576 16.2373943,6.3775807 17.5526285,5.61816406 Z M5.6961832,6.91796875 C5.09835434,6.57284448 4.33434641,6.77721965 3.98915207,7.375 C3.64398471,7.97284734 3.84836006,8.73781458 4.4461832,9.08300781 C5.04404908,9.42818591 5.80901307,9.22286564 6.15419102,8.625 C6.499304,8.02714616 6.29402208,7.26313126 5.6961832,6.91796875 Z M20.0106373,7.375 C19.6654594,6.77713436 18.9004945,6.57181412 18.3026285,6.91699219 C17.7047631,7.26217026 17.5004194,8.0271343 17.8455973,8.625 C18.1907239,9.22264934 18.9548587,9.42783368 19.5526295,9.08300781 C20.1504654,8.73784712 20.3557415,7.97285187 20.0106373,7.375 Z M13.2498941,4 C13.2498941,3.30971742 12.6901489,2.75011904 11.9998941,2.75 C11.3095384,2.75 10.7498941,3.30964375 10.7498941,4 C10.7498941,4.69035625 11.3095384,5.25 11.9998941,5.25 C12.6901489,5.24988096 13.2498941,4.69028258 13.2498941,4 Z M14.7498941,20 C14.7498941,21.5187097 13.518576,22.75 11.9998941,22.75 C10.4811108,22.75 9.24989414,21.5187829 9.24989414,20 C9.24989414,18.4812171 10.4811108,17.25 11.9998941,17.25 C13.518576,17.2501191 14.7498941,18.4812903 14.7498941,20 Z M14.7498941,4 C14.7498941,5.51870966 13.518576,6.74988095 11.9998941,6.75 C10.4811108,6.75 9.24989414,5.51878285 9.24989414,4 C9.24989414,2.48121715 10.4811108,1.25 11.9998941,1.25 C13.518576,1.25 14.7498941,2.48129034 14.7498941,4 Z" id="Vector-(Stroke)"></path>
                </g>
            </g>
        </g>
    </g>
</svg>