<?xml version="1.0" encoding="UTF-8"?>
<svg width="24px" height="24px" viewBox="0 0 24 24" version="1.1" xmlns="http://www.w3.org/2000/svg" xmlns:xlink="http://www.w3.org/1999/xlink">
    <title>Icon/Sort/Linear</title>
    <defs>
        <path d="M5,0 L59,0 C61.7614237,-8.8817842e-16 64,2.23857625 64,5 L64,203 C64,205.761424 61.7614237,208 59,208 L5,208 C2.23857625,208 0,205.761424 0,203 L0,5 C0,2.23857625 2.23857625,0 5,0 Z" id="path-1"></path>
        <path d="M0,0 L24,0 L24,24 L0,24 L0,0 Z" id="path-2"></path>
    </defs>
    <g id="Icons" stroke="none" stroke-width="1" fill="none" fill-rule="evenodd">
        <g id="View-Controls" transform="translate(-60, -234)" fill-rule="nonzero">
            <g id="Sort" transform="translate(40, 166)" xlink:href="#path-1">
                <g id="Icon/Sort/Linear" transform="translate(20, 68)" xlink:href="#path-2">
                    <line x1="3" y1="7" x2="21" y2="7" id="Vector" stroke="CURRENTCOLOR" stroke-width="1.5" stroke-linecap="round"></line>
                    <line x1="6" y1="12" x2="18" y2="12" id="Vector" stroke="CURRENTCOLOR" stroke-width="1.5" stroke-linecap="round"></line>
                    <line x1="10" y1="17" x2="14" y2="17" id="Vector" stroke="CURRENTCOLOR" stroke-width="1.5" stroke-linecap="round"></line>
                    <polygon id="Vector" opacity="0" points="0 0 24 0 24 24 0 24"></polygon>
                </g>
            </g>
        </g>
    </g>
</svg>