<?xml version="1.0" encoding="UTF-8"?>
<svg width="24px" height="24px" viewBox="0 0 24 24" version="1.1" xmlns="http://www.w3.org/2000/svg" xmlns:xlink="http://www.w3.org/1999/xlink">
    <title>Icon/Sort/Outline</title>
    <defs>
        <path d="M5,0 L59,0 C61.7614237,-8.8817842e-16 64,2.23857625 64,5 L64,203 C64,205.761424 61.7614237,208 59,208 L5,208 C2.23857625,208 0,205.761424 0,203 L0,5 C0,2.23857625 2.23857625,0 5,0 Z" id="path-1"></path>
        <path d="M0,0 L24,0 L24,24 L0,24 L0,0 Z" id="path-2"></path>
    </defs>
    <g id="Icons" stroke="none" stroke-width="1" fill="none" fill-rule="evenodd">
        <g id="View-Controls" transform="translate(-60, -186)" fill-rule="nonzero">
            <g id="Sort" transform="translate(40, 166)" xlink:href="#path-1">
                <g id="Icon/Sort/Outline" transform="translate(20, 20)" xlink:href="#path-2">
                    <path d="M21,6.25 C21.4142136,6.25 21.75,6.58578643 21.75,7 C21.75,7.41421357 21.4142136,7.75 21,7.75 L3,7.75 C2.58578643,7.75 2.25,7.41421357 2.25,7 C2.25,6.58578643 2.58578643,6.25 3,6.25 L21,6.25 Z" id="Vector-(Stroke)" fill="CURRENTCOLOR"></path>
                    <path d="M18,11.25 C18.4142136,11.25 18.75,11.5857864 18.75,12 C18.75,12.4142136 18.4142136,12.75 18,12.75 L6,12.75 C5.58578643,12.75 5.25,12.4142136 5.25,12 C5.25,11.5857864 5.58578643,11.25 6,11.25 L18,11.25 Z" id="Vector-(Stroke)" fill="CURRENTCOLOR"></path>
                    <path d="M14,16.25 C14.4142136,16.25 14.75,16.5857864 14.75,17 C14.75,17.4142136 14.4142136,17.75 14,17.75 L10,17.75 C9.58578643,17.75 9.25,17.4142136 9.25,17 C9.25,16.5857864 9.58578643,16.25 10,16.25 L14,16.25 Z" id="Vector-(Stroke)" fill="CURRENTCOLOR"></path>
                    <polygon id="Vector" opacity="0" points="0 0 24 0 24 24 0 24"></polygon>
                </g>
            </g>
        </g>
    </g>
</svg>