<?xml version="1.0" encoding="UTF-8"?>
<svg width="24px" height="24px" viewBox="0 0 24 24" version="1.1" xmlns="http://www.w3.org/2000/svg" xmlns:xlink="http://www.w3.org/1999/xlink">
    <title>Icon/AccountSettings/Outline</title>
    <defs>
        <path d="M5,0 L59,0 C61.7614237,-8.8817842e-16 64,2.23857625 64,5 L64,203 C64,205.761424 61.7614237,208 59,208 L5,208 C2.23857625,208 0,205.761424 0,203 L0,5 C0,2.23857625 2.23857625,0 5,0 Z" id="path-1"></path>
        <path d="M0,0 L24,0 L24,24 L0,24 L0,0 Z" id="path-2"></path>
    </defs>
    <g id="Icons" stroke="none" stroke-width="1" fill="none" fill-rule="evenodd">
        <g id="Basic-Users" transform="translate(-688, -186)" fill-rule="nonzero">
            <g id="Account-Settings" transform="translate(668, 166)" xlink:href="#path-1">
                <g id="Icon/AccountSettings/Outline" transform="translate(20, 20)" xlink:href="#path-2">
                    <path d="M12,12.75 C8.82999992,12.75 6.25,10.1700001 6.25,7 C6.25,3.82999992 8.82999992,1.25 12,1.25 C15.1700001,1.25 17.75,3.82999992 17.75,7 C17.75,10.1700001 15.1700001,12.75 12,12.75 Z M12,2.75 C9.66000009,2.75 7.75,4.66000009 7.75,7 C7.75,9.33999991 9.66000009,11.25 12,11.25 C14.3399999,11.25 16.25,9.33999991 16.25,7 C16.25,4.66000009 14.3399999,2.75 12,2.75 Z" id="Vector" fill="CURRENTCOLOR" fill-rule="nonzero"></path>
                    <path d="M3.41015625,22.75 C3.00015625,22.75 2.66015625,22.41 2.66015625,22 C2.66015625,17.73 6.85018301,14.25 12.0001831,14.25 C13.0101831,14.25 14.0002051,14.3800244 14.9602051,14.6500244 C15.3602051,14.7600244 15.11,14.6 15,15 C14.89,15.4 14.4,15.11 14,15 C13.6794975,14.910103 13.9130656,15.928561 13.5815363,15.8747264 C13.0648536,15.7908261 12.5362293,15.75 12.0001831,15.75 C7.68018293,15.75 4.16015625,18.55 4.16015625,22 C4.16015625,22.41 3.82015625,22.75 3.41015625,22.75 Z" id="Vector" fill="CURRENTCOLOR" fill-rule="nonzero"></path>
                    <g id="Vector" fill-rule="evenodd" stroke-width="1" transform="translate(13.25, 13.25)" stroke="CURRENTCOLOR">
                        <path d="M5.25378942,0 L4.2462101,0 C3.68973958,0 3.23863053,0.425329745 3.23863053,0.950000226 C3.23863053,1.55040652 2.59622627,1.9321267 2.06888914,1.64506698 L2.01532769,1.61591029 C1.53340989,1.35357517 0.917183995,1.50925654 0.638948679,1.96363449 L0.135158911,2.78635859 C-0.143076435,3.24073654 0.0220409632,3.82174772 0.503958762,4.08408308 C1.03154737,4.3712796 1.03154659,5.12872088 0.503957987,5.4159174 C0.0220401883,5.67825252 -0.143077075,6.25926322 0.135158271,6.71364117 L0.638948023,7.53636551 C0.917183399,7.99074346 1.53340942,8.1464251 2.01532722,7.88408947 L2.0688889,7.85493326 C2.59622616,7.56787366 3.23863053,7.94959319 3.23863053,8.54999924 C3.23863053,9.07467049 3.68973958,9.5 4.2462101,9.5 L5.25378942,9.5 C5.81026042,9.5 6.26136923,9.07467049 6.26136923,8.54999924 C6.26136923,7.94958967 6.90377712,7.56786737 7.43111753,7.85492849 L7.4846735,7.88408232 C7.96659106,8.14641744 8.58281675,7.99073678 8.86105251,7.53635883 L9.36484146,6.71363449 C9.64307722,6.25925654 9.47795981,5.67824537 8.99604225,5.41591024 C8.46845877,5.12871626 8.46845877,4.3712835 8.99604225,4.08408976 C9.47795981,3.8217544 9.64307722,3.24074346 9.36484146,2.78636551 L8.86105251,1.96364152 C8.58281675,1.50926358 7.96659058,1.35358208 7.48467302,1.61591733 L7.4311161,1.64507127 C6.90377623,1.93213239 6.26136923,1.55040956 6.26136923,0.949999988 C6.26136923,0.425329506 5.81026042,0 5.25378942,0 Z" stroke-width="1.5" stroke-linejoin="round" fill-rule="nonzero"></path>
                        <path d="M6.33333826,4.75 C6.33333826,5.62445086 5.62445563,6.33333349 4.75000477,6.33333349 C3.87555391,6.33333349 3.16667104,5.62445086 3.16667104,4.75 C3.16667104,3.87554914 3.87555391,3.16666675 4.75000477,3.16666675 C5.62445563,3.16666675 6.33333826,3.87554914 6.33333826,4.75 Z" stroke-width="1.5" fill-rule="nonzero"></path>
                    </g>
                </g>
            </g>
        </g>
    </g>
</svg>