<?xml version="1.0" encoding="UTF-8"?>
<svg width="24px" height="24px" viewBox="0 0 24 24" version="1.1" xmlns="http://www.w3.org/2000/svg" xmlns:xlink="http://www.w3.org/1999/xlink">
    <title>Icon/AccountSettings/Bulk</title>
    <defs>
        <path d="M5,0 L59,0 C61.7614237,-8.8817842e-16 64,2.23857625 64,5 L64,203 C64,205.761424 61.7614237,208 59,208 L5,208 C2.23857625,208 0,205.761424 0,203 L0,5 C0,2.23857625 2.23857625,0 5,0 Z" id="path-1"></path>
        <path d="M0,0 L24,0 L24,24 L0,24 L0,0 Z" id="path-2"></path>
    </defs>
    <g id="Icons" stroke="none" stroke-width="1" fill="none" fill-rule="evenodd">
        <g id="Basic-Users" transform="translate(-688, -330)" fill="CURRENTCOLOR" fill-rule="nonzero">
            <g id="Account-Settings" transform="translate(668, 166)" xlink:href="#path-1">
                <g id="Icon/AccountSettings/Bulk" transform="translate(20, 164)" xlink:href="#path-2">
                    <path d="M11.8,17 C11.8,15.9 12.1000001,14.9000004 12.6000001,14.1000004 C12.3000001,14.1000004 11.9000002,14.1000004 11.6000001,14.1000004 C6.50000024,14.1000004 2.39999991,17.499999 2.49999991,21.7999992 C2.49999991,21.9999992 2.7,22.1000004 2.90000001,22.1000004 L14.6999996,22.1000004 C12.9999995,21.1000004 11.8,19.2000003 11.8,17.1000004 L11.8,17 Z" id="Vector" fill-rule="nonzero" opacity="0.400000006"></path>
                    <path d="M16.9464051,12.1499023 L17.9539845,12.1499023 C18.5104555,12.1499023 18.9615643,12.5752318 18.9615643,13.0999023 C18.9615643,13.7003119 19.6039715,14.0820346 20.1313114,13.7949735 L20.184868,13.7658196 C20.6667856,13.5034844 21.2830117,13.6591659 21.5612475,14.1135439 L22.0650366,14.9362679 C22.3432724,15.3906458 22.1781546,15.9716566 21.696237,16.233992 C21.1686535,16.5211857 21.1686535,17.2786185 21.696237,17.5658125 C22.1781546,17.8281476 22.3432724,18.4091589 22.0650366,18.8635368 L21.5612475,19.6862608 C21.2830117,20.1406388 20.6667861,20.2963197 20.1848685,20.0339846 L20.1313124,20.0048308 C19.603972,19.7177697 18.9615643,20.0994922 18.9615643,20.6999017 C18.9615643,21.224573 18.5104555,21.6499023 17.9539845,21.6499023 L16.9464051,21.6499023 C16.3899346,21.6499023 15.9388258,21.224573 15.9388258,20.6999017 C15.9388258,20.0994957 15.2964214,19.7177757 14.7690841,20.0048353 L14.7155225,20.0339916 C14.2336047,20.2963272 13.6173787,20.1406458 13.3391433,19.6862679 L12.8353536,18.8635434 C12.5571182,18.4091654 12.7222355,17.8281546 13.2041533,17.5658195 C13.7317419,17.278623 13.7317426,16.5211817 13.2041541,16.2339852 C12.7222363,15.9716498 12.5571189,15.3906388 12.8353542,14.9362608 L13.339144,14.1135368 C13.6173793,13.6591589 14.2336052,13.5034775 14.715523,13.7658126 L14.7690845,13.7949692 C15.2964216,14.082029 15.9388258,13.7003088 15.9388258,13.0999026 C15.9388258,12.5752321 16.3899346,12.1499023 16.9464051,12.1499023 Z M17.4501998,18.4832357 C18.3246509,18.4832357 19.0335332,17.7743534 19.0335332,16.8999023 C19.0335332,16.0254515 18.3246509,15.316569 17.4501998,15.316569 C16.575749,15.316569 15.8668663,16.0254515 15.8668663,16.8999023 C15.8668663,17.7743534 16.575749,18.4832357 17.4501998,18.4832357 Z" id="Subtract" fill-rule="evenodd"></path>
                    <path d="M11.5,12 C14.3,12 16.5,9.79999995 16.5,7 C16.5,4.20000005 14.3,2 11.5,2 C8.70000005,2 6.5,4.20000005 6.5,7 C6.5,9.79999995 8.70000005,12 11.5,12 Z" id="Vector" fill-rule="nonzero"></path>
                </g>
            </g>
        </g>
    </g>
</svg>