<?xml version="1.0" encoding="UTF-8"?>
<svg width="24px" height="24px" viewBox="0 0 24 24" version="1.1" xmlns="http://www.w3.org/2000/svg" xmlns:xlink="http://www.w3.org/1999/xlink">
    <title>Icon/AccountSettings/Linear</title>
    <defs>
        <path d="M5,0 L59,0 C61.7614237,-8.8817842e-16 64,2.23857625 64,5 L64,203 C64,205.761424 61.7614237,208 59,208 L5,208 C2.23857625,208 0,205.761424 0,203 L0,5 C0,2.23857625 2.23857625,0 5,0 Z" id="path-1"></path>
        <path d="M0,0 L24,0 L24,24 L0,24 L0,0 Z" id="path-2"></path>
    </defs>
    <g id="Icons" stroke="none" stroke-width="1" fill="none" fill-rule="evenodd">
        <g id="Basic-Users" transform="translate(-688, -234)" fill-rule="nonzero" stroke="CURRENTCOLOR">
            <g id="Account-Settings" transform="translate(668, 166)" xlink:href="#path-1">
                <g id="Icon/AccountSettings/Linear" transform="translate(20, 68)" xlink:href="#path-2">
                    <path d="M17,7 C17,9.76142383 14.7614238,12 12,12 C9.23857617,12 7,9.76142383 7,7 C7,4.23857617 9.23857617,2 12,2 C14.7614238,2 17,4.23857617 17,7 Z" id="Vector" stroke-width="1.5" stroke-linecap="round" stroke-linejoin="round" fill-rule="nonzero"></path>
                    <path d="M3.40997314,22 C3.40997314,18.1300001 7.26000023,15 12,15 C12.5903973,15 13.1694512,15.049167 13.7301798,15.142851" id="Vector" stroke-width="1.5" stroke-linecap="round" stroke-linejoin="round" fill-rule="nonzero"></path>
                    <g id="Vector" fill-rule="evenodd" stroke-width="1" transform="translate(13.25, 13.25)">
                        <path d="M5.25378942,0 L4.2462101,0 C3.68973958,0 3.23863053,0.425329745 3.23863053,0.950000226 C3.23863053,1.55040652 2.59622627,1.9321267 2.06888914,1.64506698 L2.01532769,1.61591029 C1.53340989,1.35357517 0.917183995,1.50925654 0.638948679,1.96363449 L0.135158911,2.78635859 C-0.143076435,3.24073654 0.0220409632,3.82174772 0.503958762,4.08408308 C1.03154737,4.3712796 1.03154659,5.12872088 0.503957987,5.4159174 C0.0220401883,5.67825252 -0.143077075,6.25926322 0.135158271,6.71364117 L0.638948023,7.53636551 C0.917183399,7.99074346 1.53340942,8.1464251 2.01532722,7.88408947 L2.0688889,7.85493326 C2.59622616,7.56787366 3.23863053,7.94959319 3.23863053,8.54999924 C3.23863053,9.07467049 3.68973958,9.5 4.2462101,9.5 L5.25378942,9.5 C5.81026042,9.5 6.26136923,9.07467049 6.26136923,8.54999924 C6.26136923,7.94958967 6.90377712,7.56786737 7.43111753,7.85492849 L7.4846735,7.88408232 C7.96659106,8.14641744 8.58281675,7.99073678 8.86105251,7.53635883 L9.36484146,6.71363449 C9.64307722,6.25925654 9.47795981,5.67824537 8.99604225,5.41591024 C8.46845877,5.12871626 8.46845877,4.3712835 8.99604225,4.08408976 C9.47795981,3.8217544 9.64307722,3.24074346 9.36484146,2.78636551 L8.86105251,1.96364152 C8.58281675,1.50926358 7.96659058,1.35358208 7.48467302,1.61591733 L7.4311161,1.64507127 C6.90377623,1.93213239 6.26136923,1.55040956 6.26136923,0.949999988 C6.26136923,0.425329506 5.81026042,0 5.25378942,0 Z" stroke-width="1.5" stroke-linejoin="round" fill-rule="nonzero"></path>
                        <path d="M6.33333826,4.75 C6.33333826,5.62445086 5.62445563,6.33333349 4.75000477,6.33333349 C3.87555391,6.33333349 3.16667104,5.62445086 3.16667104,4.75 C3.16667104,3.87554914 3.87555391,3.16666675 4.75000477,3.16666675 C5.62445563,3.16666675 6.33333826,3.87554914 6.33333826,4.75 Z" stroke-width="1.5" fill-rule="nonzero"></path>
                    </g>
                </g>
            </g>
        </g>
    </g>
</svg>