<?xml version="1.0" encoding="UTF-8"?>
<svg width="24px" height="24px" viewBox="0 0 24 24" version="1.1" xmlns="http://www.w3.org/2000/svg" xmlns:xlink="http://www.w3.org/1999/xlink">
    <title>Icon/Export/Outline</title>
    <defs>
        <path d="M5,0 L59,0 C61.7614237,-8.8817842e-16 64,2.23857625 64,5 L64,203 C64,205.761424 61.7614237,208 59,208 L5,208 C2.23857625,208 0,205.761424 0,203 L0,5 C0,2.23857625 2.23857625,0 5,0 Z" id="path-1"></path>
        <path d="M0,0 L24,0 L24,24 L0,24 L0,0 Z" id="path-2"></path>
    </defs>
    <g id="Icons" stroke="none" stroke-width="1" fill="none" fill-rule="evenodd">
        <g id="Basic-Actions" transform="translate(-272, -434)" fill-rule="nonzero">
            <g id="Export" transform="translate(252, 414)" xlink:href="#path-1">
                <g id="Icon/Export/Outline" transform="translate(20, 20)" xlink:href="#path-2">
                    <path d="M15.2604694,22.2499952 L8.7404685,22.2499952 C3.83046865,22.2499952 1.73046875,20.1499949 1.73046875,15.239995 L1.73046875,15.1099949 C1.73046875,10.6699948 3.48046875,8.52999507 7.40046883,8.15999506 C7.80046883,8.12999507 8.180469,8.42999539 8.220469,8.83999538 C8.260469,9.24999538 7.96046868,9.61999508 7.54046869,9.65999508 C4.40046859,9.94999507 3.23046875,11.4299951 3.23046875,15.1199951 L3.23046875,15.2499952 C3.23046875,19.3199954 4.67046833,20.7599955 8.7404685,20.7599955 L15.2604694,20.7599955 C19.3304696,20.7599955 20.7704697,19.3199954 20.7704697,15.2499952 L20.7704697,15.1199951 C20.7704697,11.4099951 19.5804684,9.92999509 16.3804684,9.65999508 C15.9704684,9.61999508 15.6604681,9.25999561 15.7004681,8.84999561 C15.7404681,8.43999562 16.0904694,8.12999529 16.5104694,8.16999529 C20.4904695,8.5099953 22.2704697,10.6599956 22.2704697,15.1299953 L22.2704697,15.2599955 C22.2704697,20.1499953 20.1704693,22.2499952 15.2604694,22.2499952 Z" id="Vector" fill="CURRENTCOLOR"></path>
                    <path d="M12,15.75 C11.59,15.75 11.25,15.41 11.25,15 L11.25,3.61999989 C11.25,3.20999989 11.59,2.86999989 12,2.86999989 C12.41,2.86999989 12.75,3.20999989 12.75,3.61999989 L12.75,15 C12.75,15.41 12.41,15.75 12,15.75 Z" id="Vector" fill="CURRENTCOLOR"></path>
                    <path d="M15.3500004,6.5999999 C15.1600004,6.5999999 14.9699997,6.53000012 14.8199997,6.38000011 L12,3.55999994 L9.18000007,6.38000011 C8.89000008,6.67000011 8.40999967,6.67000011 8.11999968,6.38000011 C7.82999969,6.09000012 7.82999969,5.61000016 8.11999968,5.32000017 L11.47,1.97000006 C11.76,1.68000007 12.2399997,1.68000007 12.5299997,1.97000006 L15.8800001,5.32000017 C16.1700001,5.61000016 16.1700001,6.09000012 15.8800001,6.38000011 C15.7400001,6.53000012 15.5400004,6.5999999 15.3500004,6.5999999 Z" id="Vector" fill="CURRENTCOLOR"></path>
                    <polygon id="Vector" opacity="0" points="0 0 24 0 24 24 0 24"></polygon>
                </g>
            </g>
        </g>
    </g>
</svg>