<?xml version="1.0" encoding="UTF-8"?>
<svg width="24px" height="24px" viewBox="0 0 24 24" version="1.1" xmlns="http://www.w3.org/2000/svg" xmlns:xlink="http://www.w3.org/1999/xlink">
    <title>Icon/Export/Bulk</title>
    <defs>
        <path d="M5,0 L59,0 C61.7614237,-8.8817842e-16 64,2.23857625 64,5 L64,203 C64,205.761424 61.7614237,208 59,208 L5,208 C2.23857625,208 0,205.761424 0,203 L0,5 C0,2.23857625 2.23857625,0 5,0 Z" id="path-1"></path>
        <path d="M0,0 L24,0 L24,24 L0,24 L0,0 Z" id="path-2"></path>
    </defs>
    <g id="Icons" stroke="none" stroke-width="1" fill="none" fill-rule="evenodd">
        <g id="Basic-Actions" transform="translate(-272, -578)" fill-rule="nonzero">
            <g id="Export" transform="translate(252, 414)" xlink:href="#path-1">
                <g id="Icon/Export/Bulk" transform="translate(20, 164)" xlink:href="#path-2">
                    <path d="M16.7999992,9 L7.19999981,9 C4,9 2,11 2,14.1999998 L2,16.7900009 C2,20 4,22 7.19999981,22 L16.7900009,22 C19.990001,22 21.9900379,20 21.9900379,16.7999992 L21.9900379,14.1999998 C22,11 20,9 16.7999992,9 Z" id="Vector" fill="CURRENTCOLOR" opacity="0.400000006"></path>
                    <path d="M15.8800001,5.57000017 L12.5299997,2.22000006 C12.2399997,1.93000007 11.76,1.93000007 11.47,2.22000006 L8.11999968,5.57000017 C7.82999969,5.86000016 7.82999969,6.34000012 8.11999968,6.63000011 C8.40999967,6.92000011 8.89000008,6.92000011 9.18000007,6.63000011 L11.2499998,4.55999994 L11.2499998,15.2500005 C11.2499998,15.6600005 11.59,16.0000005 12,16.0000005 C12.41,16.0000005 12.75,15.6600005 12.75,15.2500005 L12.75,4.55999994 L14.8199997,6.63000011 C14.9699997,6.78000012 15.1600004,6.8499999 15.3500004,6.8499999 C15.5400004,6.8499999 15.7300001,6.78000012 15.8800001,6.63000011 C16.1800001,6.34000012 16.1800001,5.87000018 15.8800001,5.57000017 Z" id="Vector" fill="CURRENTCOLOR"></path>
                    <polygon id="Vector" opacity="0" points="0 0 24 0 24 24 0 24"></polygon>
                </g>
            </g>
        </g>
    </g>
</svg>