<?xml version="1.0" encoding="UTF-8"?>
<svg width="24px" height="24px" viewBox="0 0 24 24" version="1.1" xmlns="http://www.w3.org/2000/svg" xmlns:xlink="http://www.w3.org/1999/xlink">
    <title>Icon/Folder-text/Bold</title>
    <defs>
        <path d="M5,0 L59,0 C61.7614237,-8.8817842e-16 64,2.23857625 64,5 L64,203 C64,205.761424 61.7614237,208 59,208 L5,208 C2.23857625,208 0,205.761424 0,203 L0,5 C0,2.23857625 2.23857625,0 5,0 Z" id="path-1"></path>
        <path d="M0,0 L24,0 L24,24 L0,24 L0,0 Z" id="path-2"></path>
    </defs>
    <g id="Icons" stroke="none" stroke-width="1" fill="none" fill-rule="evenodd">
        <g id="Content-Managment" transform="translate(-376, -528)" fill-rule="nonzero">
            <g id="Folder-Text" transform="translate(356, 412)" xlink:href="#path-1">
                <g id="Icon/Folder-text/Bold" transform="translate(20, 116)" xlink:href="#path-2">
                    <path d="M8.73999977,2 C10.3699998,2 10.8799998,2.53000009 11.5299997,3.3900001 L12.9300003,5.25 C13.2400003,5.66 13.2799997,5.71999979 13.8599997,5.71999979 L17.5799999,5.71999979 C17.9599999,5.71999979 18.3400005,5.76999988 18.6900005,5.86999989 C19.2200005,6 19.7099994,6.22999996 20.1399994,6.53999996 C21.2699994,7.33999997 22,8.65000033 22,10.1400003 L22,17.5799999 C22,20.02 20.02,22 17.5799999,22 L6.42000008,22 C3.98000002,22 2,20.02 2,17.5799999 L2,6.42000008 C2,3.98000002 3.98000002,2 6.42000008,2 Z M14.319726,17.5999756 L9.66972637,17.5999756 C9.27972639,17.5999756 8.96972656,17.9199764 8.96972656,18.2999763 C8.96972656,18.6899763 9.27972639,18.9999752 9.66972637,18.9999752 L14.3297262,18.9999752 C14.7097263,18.9999752 15.0197268,18.6899763 15.0197268,18.2999763 C15.0197268,17.9199764 14.6997261,17.5999756 14.319726,17.5999756 Z M14.3199997,14.6000004 L9.67000008,14.6000004 C9.28000009,14.6000004 8.97000027,14.9200002 8.97000027,15.3000002 C8.97000027,15.6900002 9.28000009,16 9.67000008,16 L14.3299999,16 C14.7099999,16 15.0200005,15.6900002 15.0200005,15.3000002 C15.0200005,14.9200002 14.6999997,14.6000004 14.3199997,14.6000004 Z" id="Subtract" fill="CURRENTCOLOR"></path>
                    <polygon id="Vector" opacity="0" points="0 0 24 0 24 24 0 24"></polygon>
                    <path d="M19.7598438,4.6500001 C19.5398438,4.55000009 19.319844,4.47999983 19.099844,4.42999983 C18.629844,4.28999983 18.1098435,4.21999979 17.5798435,4.21999979 L14.2795545,4.21999979 C14.1223385,4.21999979 13.9742778,4.14605497 13.879832,4.0203694 L12.7298431,2.49000001 L12.7298431,2.49000001 C12.6098431,2.32000001 12.4798438,2.16 12.3398438,2 L15.7198439,2 C17.5298438,2 19.0898438,3.09000015 19.7598438,4.6500001 Z" id="Vector" fill="CURRENTCOLOR"></path>
                </g>
            </g>
        </g>
    </g>
</svg>