<?xml version="1.0" encoding="UTF-8"?>
<svg width="24px" height="24px" viewBox="0 0 24 24" version="1.1" xmlns="http://www.w3.org/2000/svg" xmlns:xlink="http://www.w3.org/1999/xlink">
    <title>Icon/Sort-arrow-down/Outline</title>
    <defs>
        <path d="M5,0 L59,0 C61.7614237,-8.8817842e-16 64,2.23857625 64,5 L64,203 C64,205.761424 61.7614237,208 59,208 L5,208 C2.23857625,208 0,205.761424 0,203 L0,5 C0,2.23857625 2.23857625,0 5,0 Z" id="path-1"></path>
        <path d="M0,0 L24,0 L24,24 L0,24 L0,0 Z" id="path-2"></path>
    </defs>
    <g id="Icons" stroke="none" stroke-width="1" fill="none" fill-rule="evenodd">
        <g id="View-Controls" transform="translate(-164, -186)" fill="CURRENTCOLOR" fill-rule="nonzero">
            <g id="Sort-arrow-down" transform="translate(144, 166)" xlink:href="#path-1">
                <g id="Icon/Sort-arrow-down/Outline" transform="translate(20, 20)" xlink:href="#path-2">
                    <path d="M21,16.25 C21.4142136,16.25 21.75,16.5857864 21.75,17 C21.75,17.4142136 21.4142136,17.75 21,17.75 L12,17.75 C11.5857864,17.75 11.25,17.4142136 11.25,17 C11.25,16.5857864 11.5857864,16.25 12,16.25 L21,16.25 Z M18,10.25 C18.4142136,10.25 18.75,10.5857864 18.75,11 C18.75,11.4142136 18.4142136,11.75 18,11.75 L12,11.75 C11.5857864,11.75 11.25,11.4142136 11.25,11 C11.25,10.5857864 11.5857864,10.25 12,10.25 L18,10.25 Z M15,4.25 C15.4142136,4.25 15.75,4.58578643 15.75,5 C15.75,5.41421357 15.4142136,5.75 15,5.75 L12,5.75 C11.5857864,5.75 11.25,5.41421357 11.25,5 C11.25,4.58578643 11.5857864,4.25 12,4.25 L15,4.25 Z" id="Vector-(Stroke)"></path>
                    <path d="M5.24902344,16.8800049 L5.24902344,4.00012207 C5.24902344,3.5859085 5.58480987,3.25012207 5.99902344,3.25012207 C6.41323701,3.25012207 6.74902344,3.5859085 6.74902344,4.00012207 L6.74902344,16.8800049 C6.74902344,17.2942185 6.41323701,17.6300049 5.99902344,17.6300049 C5.58480987,17.6300049 5.24902344,17.2942185 5.24902344,16.8800049 Z" id="Vector-(Stroke)"></path>
                    <path d="M8.81927919,14.1196943 C9.11218026,13.8268984 9.58696529,13.8268336 9.87982607,14.1196943 C10.1725896,14.412563 10.1725896,14.8873726 9.87982607,15.1802412 L6.52924013,18.5298505 C6.2363469,18.8227437 5.76158649,18.8227437 5.46869326,18.5298505 L2.11908399,15.1802412 C1.82619075,14.887348 1.82619075,14.4125876 2.11908399,14.1196943 C2.41197722,13.8268011 2.88673764,13.8268011 3.17963088,14.1196943 L5.99896669,16.9390302 L8.81927919,14.1196943 Z" id="Vector-(Stroke)"></path>
                </g>
            </g>
        </g>
    </g>
</svg>