<?xml version="1.0" encoding="UTF-8"?>
<svg width="24px" height="24px" viewBox="0 0 24 24" version="1.1" xmlns="http://www.w3.org/2000/svg" xmlns:xlink="http://www.w3.org/1999/xlink">
    <title>Icon/Redo/Outline</title>
    <defs>
        <path d="M5,0 L59,0 C61.7614237,-8.8817842e-16 64,2.23857625 64,5 L64,203 C64,205.761424 61.7614237,208 59,208 L5,208 C2.23857625,208 0,205.761424 0,203 L0,5 C0,2.23857625 2.23857625,0 5,0 Z" id="path-1"></path>
        <path d="M0,0 L24,0 L24,24 L0,24 L0,0 Z" id="path-2"></path>
    </defs>
    <g id="Icons" stroke="none" stroke-width="1" fill="none" fill-rule="evenodd">
        <g id="Basic-Actions" transform="translate(-480, -434)" fill-rule="nonzero">
            <g id="Redo" transform="translate(460, 414)" xlink:href="#path-1">
                <g id="Icon/Redo/Outline" transform="translate(20, 20)" xlink:href="#path-2">
                    <path d="M16.8700008,19.0599999 L8.86999989,19.0599999 C5.69999981,19.0599999 3.11999989,16.4800005 3.11999989,13.3100004 C3.11999989,10.1400003 5.69999981,7.55999994 8.86999989,7.55999994 L19.8699999,7.55999994 C20.2799999,7.55999994 20.6199999,7.90000042 20.6199999,8.31000042 C20.6199999,8.72000042 20.2799999,9.05999994 19.8699999,9.05999994 L8.86999989,9.05999994 C6.52999997,9.05999994 4.61999989,10.9700005 4.61999989,13.3100004 C4.61999989,15.6500003 6.52999997,17.5599999 8.86999989,17.5599999 L16.8700008,17.5599999 C17.2800008,17.5599999 17.6199999,17.8999999 17.6199999,18.3099999 C17.6199999,18.7199999 17.2900008,19.0599999 16.8700008,19.0599999 Z" id="Vector" fill="CURRENTCOLOR"></path>
                    <path d="M17.569999,11.5600004 C17.379999,11.5600004 17.1900002,11.4900002 17.0400002,11.3400002 C16.7500002,11.0500002 16.7500002,10.5699997 17.0400002,10.2799997 L19.069999,8.24999976 L17.0400002,6.21999955 C16.7500002,5.92999956 16.7500002,5.44999963 17.0400002,5.15999964 C17.3300002,4.86999965 17.8099997,4.86999965 18.0999997,5.15999964 L20.6599991,7.71999955 C20.9499991,8.00999954 20.9499991,8.4899995 20.6599991,8.77999949 L18.0999997,11.3400002 C17.9499997,11.4900002 17.759999,11.5600004 17.569999,11.5600004 Z" id="Vector" fill="CURRENTCOLOR"></path>
                    <polygon id="Vector" opacity="0" points="0 0 24 0 24 24 0 24"></polygon>
                </g>
            </g>
        </g>
    </g>
</svg>