<?xml version="1.0" encoding="UTF-8"?>
<svg width="24px" height="24px" viewBox="0 0 24 24" version="1.1" xmlns="http://www.w3.org/2000/svg" xmlns:xlink="http://www.w3.org/1999/xlink">
    <title>Icon/Redo/Linear</title>
    <defs>
        <path d="M5,0 L59,0 C61.7614237,-8.8817842e-16 64,2.23857625 64,5 L64,203 C64,205.761424 61.7614237,208 59,208 L5,208 C2.23857625,208 0,205.761424 0,203 L0,5 C0,2.23857625 2.23857625,0 5,0 Z" id="path-1"></path>
        <path d="M0,0 L24,0 L24,24 L0,24 L0,0 Z" id="path-2"></path>
    </defs>
    <g id="Icons" stroke="none" stroke-width="1" fill="none" fill-rule="evenodd">
        <g id="Basic-Actions" transform="translate(-480, -482)" fill-rule="nonzero">
            <g id="Redo" transform="translate(460, 414)" xlink:href="#path-1">
                <g id="Icon/Redo/Linear" transform="translate(20, 68)" xlink:href="#path-2">
                    <path d="M16.8699999,18.3100004 L8.86999989,18.3100004 C6.1099999,18.3100004 3.86999989,16.0700004 3.86999989,13.3100004 C3.86999989,10.5500004 6.1099999,8.31000042 8.86999989,8.31000042 L19.8699999,8.31000042" id="Vector" stroke="CURRENTCOLOR" stroke-width="1.5" stroke-linecap="round" stroke-linejoin="round"></path>
                    <polyline id="Vector" stroke="CURRENTCOLOR" stroke-width="1.5" stroke-linecap="round" stroke-linejoin="round" points="17.5703125 10.8100028 20.130312 8.25000238 17.5703125 5.69000244"></polyline>
                    <polygon id="Vector" opacity="0" transform="translate(12, 12) rotate(-180) translate(-12, -12)" points="0 0 24 0 24 24 0 24"></polygon>
                </g>
            </g>
        </g>
    </g>
</svg>