<?xml version="1.0" encoding="UTF-8"?>
<svg width="24px" height="24px" viewBox="0 0 24 24" version="1.1" xmlns="http://www.w3.org/2000/svg" xmlns:xlink="http://www.w3.org/1999/xlink">
    <title>Icon/Redo/Bulk</title>
    <defs>
        <path d="M5,0 L59,0 C61.7614237,-8.8817842e-16 64,2.23857625 64,5 L64,203 C64,205.761424 61.7614237,208 59,208 L5,208 C2.23857625,208 0,205.761424 0,203 L0,5 C0,2.23857625 2.23857625,0 5,0 Z" id="path-1"></path>
        <path d="M0,0 L24,0 L24,24 L0,24 L0,0 Z" id="path-2"></path>
    </defs>
    <g id="Icons" stroke="none" stroke-width="1" fill="none" fill-rule="evenodd">
        <g id="Basic-Actions" transform="translate(-480, -578)" fill-rule="nonzero">
            <g id="Redo" transform="translate(460, 414)" xlink:href="#path-1">
                <g id="Icon/Redo/Bulk" transform="translate(20, 164)" xlink:href="#path-2">
                    <path d="M7.80999994,2 L16.1800003,2 C19.8300004,2 22,4.16999984 22,7.80999994 L22,16.1800003 C22,19.8200004 19.8300006,21.9900341 16.1900005,21.9900341 L7.80999994,21.9900341 C4.16999984,22 2,19.8300006 2,16.1900005 L2,7.80999994 C2,4.16999984 4.16999984,2 7.80999994,2 Z" id="Vector" fill="CURRENTCOLOR" opacity="0.400000006"></path>
                    <path d="M17.5300007,9.15999961 L15.96,7.58999994 C15.67,7.29999995 15.1899996,7.29999995 14.8999996,7.58999994 C14.6099996,7.87999994 14.6099996,8.35999939 14.8999996,8.64999938 L15.2299995,8.9799993 L10.0799999,8.9799993 C7.97000003,8.9799993 6.25,10.7000005 6.25,12.8100004 C6.25,14.9200003 7.97000003,16.6399989 10.0799999,16.6399989 L15,16.6399989 C15.41,16.6399989 15.75,16.2999999 15.75,15.8899999 C15.75,15.4799999 15.41,15.1400003 15,15.1400003 L10.0799999,15.1400003 C8.79999995,15.1400003 7.75,14.1000004 7.75,12.8100004 C7.75,11.5200005 8.78999996,10.4799993 10.0799999,10.4799993 L15.1599998,10.4799993 L14.8999996,10.7399995 C14.6099996,11.0299995 14.6099996,11.5100002 14.8999996,11.8000002 C15.0499996,11.9500002 15.2400003,12.0200005 15.4300003,12.0200005 C15.6200003,12.0200005 15.81,11.9500002 15.96,11.8000002 L17.5300007,10.2299993 C17.8200007,9.92999929 17.8200007,9.45999962 17.5300007,9.15999961 Z" id="Vector" fill="CURRENTCOLOR"></path>
                    <polygon id="Vector" opacity="0" points="0 0 24 0 24 24 0 24"></polygon>
                </g>
            </g>
        </g>
    </g>
</svg>