<?xml version="1.0" encoding="UTF-8"?>
<svg width="24px" height="24px" viewBox="0 0 24 24" version="1.1" xmlns="http://www.w3.org/2000/svg" xmlns:xlink="http://www.w3.org/1999/xlink">
    <title>Icon/Redo/Bold</title>
    <defs>
        <path d="M5,0 L59,0 C61.7614237,-8.8817842e-16 64,2.23857625 64,5 L64,203 C64,205.761424 61.7614237,208 59,208 L5,208 C2.23857625,208 0,205.761424 0,203 L0,5 C0,2.23857625 2.23857625,0 5,0 Z" id="path-1"></path>
        <path d="M0,0 L24,0 L24,24 L0,24 L0,0 Z" id="path-2"></path>
    </defs>
    <g id="Icons" stroke="none" stroke-width="1" fill="none" fill-rule="evenodd">
        <g id="Basic-Actions" transform="translate(-480, -530)" fill-rule="nonzero">
            <g id="Redo" transform="translate(460, 414)" xlink:href="#path-1">
                <g id="Icon/Redo/Bold" transform="translate(20, 116)" xlink:href="#path-2">
                    <path d="M16.1900005,2 L7.80999994,2 C4.16999984,2 2,4.16999984 2,7.80999994 L2,16.1800003 C2,19.8300004 4.16999984,22 7.80999994,22 L16.1800003,22 C19.8200004,22 21.9900341,19.8300006 21.9900341,16.1900005 L21.9900341,7.80999994 C22,4.16999984 19.8300006,2 16.1900005,2 Z M17.5300007,10.2200003 L15.96,11.79 C15.81,11.94 15.6200003,12.0100002 15.4300003,12.0100002 C15.2400003,12.0100002 15.0499996,11.94 14.8999996,11.79 C14.6099996,11.5 14.6099996,11.0199995 14.8999996,10.7299995 L15.1599998,10.4700003 L10.0799999,10.4700003 C8.79999995,10.4700003 7.75,11.5100002 7.75,12.8000002 C7.75,14.0900002 8.78999996,15.1300001 10.0799999,15.1300001 L15,15.1300001 C15.41,15.1300001 15.75,15.4700001 15.75,15.8800001 C15.75,16.2900001 15.41,16.6299992 15,16.6299992 L10.0799999,16.6299992 C7.97000003,16.6299992 6.25,14.9100001 6.25,12.8000002 C6.25,10.6900003 7.97000003,8.97000027 10.0799999,8.97000027 L15.2299995,8.97000027 L14.8999996,8.64999962 C14.6099996,8.35999963 14.6099996,7.88000014 14.8999996,7.59000015 C15.1899996,7.30000016 15.67,7.30000016 15.96,7.59000015 L17.5300007,9.15999985 C17.8200007,9.45999986 17.8200007,9.93000028 17.5300007,10.2200003 Z" id="Vector" fill="CURRENTCOLOR"></path>
                    <polygon id="Vector" opacity="0" transform="translate(12, 12) rotate(-180) translate(-12, -12)" points="0 0 24 0 24 24 0 24"></polygon>
                </g>
            </g>
        </g>
    </g>
</svg>