<?xml version="1.0" encoding="UTF-8"?>
<svg width="24px" height="24px" viewBox="0 0 24 24" version="1.1" xmlns="http://www.w3.org/2000/svg" xmlns:xlink="http://www.w3.org/1999/xlink">
    <title>Icon/Bookmark/Outline</title>
    <defs>
        <path d="M5,0 L59,0 C61.7614237,-8.8817842e-16 64,2.23857625 64,5 L64,203 C64,205.761424 61.7614237,208 59,208 L5,208 C2.23857625,208 0,205.761424 0,203 L0,5 C0,2.23857625 2.23857625,0 5,0 Z" id="path-1"></path>
        <path d="M0,0 L24,0 L24,24 L0,24 L0,0 Z" id="path-2"></path>
    </defs>
    <g id="Icons" stroke="none" stroke-width="1" fill="none" fill-rule="evenodd">
        <g id="Basic-Actions" transform="translate(-688, -186)" fill="CURRENTCOLOR" fill-rule="nonzero">
            <g id="Bookmark" transform="translate(668, 166)" xlink:href="#path-1">
                <g id="Icon/Bookmark/Outline" transform="translate(20, 20)" xlink:href="#path-2">
                    <path d="M10.0996094,17.0498047 C11.077387,16.3164721 12.422613,16.3164721 13.4003906,17.0498047 L17,19.75 L17.1582031,19.8515625 C17.9664198,20.2926416 19,19.7157573 19,18.75 L19,8.5 L4.5,8.5 L4.5,18.75 C4.5,19.780056 5.67595434,20.3680335 6.5,19.75 L10.0996094,17.0498047 Z M19,4.75 C19,4.0596441 18.4403555,3.5 17.75,3.5 L5.75,3.5 C5.0596441,3.5 4.5,4.0596441 4.5,4.75 L4.5,7 L19,7 L19,4.75 Z M20.5,18.75 C20.5,21.0161247 17.9125091,22.3098685 16.0996094,20.9501953 L12.5,18.25 C12.0832774,17.9374583 11.5199622,17.9178537 11.0849609,18.1914063 L11,18.25 L7.40039063,20.9501953 C5.58749127,22.3098686 3,21.0161247 3,18.75 L3,4.75 C3,3.23121703 4.23121703,2 5.75,2 L17.75,2 C19.2687831,2 20.5,3.2312175 20.5,4.75 L20.5,18.75 Z" id="Vector-(Stroke)"></path>
                </g>
            </g>
        </g>
    </g>
</svg>