<?xml version="1.0" encoding="UTF-8"?>
<svg width="24px" height="24px" viewBox="0 0 24 24" version="1.1" xmlns="http://www.w3.org/2000/svg" xmlns:xlink="http://www.w3.org/1999/xlink">
    <title>Icon/Bookmark/Bold</title>
    <defs>
        <path d="M5,0 L59,0 C61.7614237,-8.8817842e-16 64,2.23857625 64,5 L64,203 C64,205.761424 61.7614237,208 59,208 L5,208 C2.23857625,208 0,205.761424 0,203 L0,5 C0,2.23857625 2.23857625,0 5,0 Z" id="path-1"></path>
        <path d="M0,0 L24,0 L24,24 L0,24 L0,0 Z" id="path-2"></path>
    </defs>
    <g id="Icons" stroke="none" stroke-width="1" fill="none" fill-rule="evenodd">
        <g id="Basic-Actions" transform="translate(-688, -282)" fill="CURRENTCOLOR" fill-rule="nonzero">
            <g id="Bookmark" transform="translate(668, 166)" xlink:href="#path-1">
                <g id="Icon/Bookmark/Bold" transform="translate(20, 116)" xlink:href="#path-2" fill-rule="evenodd">
                    <path d="M4,8.75 L4,19 C4,20.6480904 5.88152754,21.5888538 7.20000005,20.6000004 L10.8000002,17.8999996 C11.5111113,17.3666668 12.4888887,17.3666668 13.1999998,17.8999996 L16.8000002,20.6000004 C18.1184731,21.5888538 20,20.6480904 20,19 L20,8.75 L4,8.75 Z M4,7.25 L20,7.25 L20,5 C20,3.89543104 19.1045694,3 18,3 L6,3 C4.89543056,3 4,3.89543056 4,5 L4,7.25 Z" id="Subtract"></path>
                </g>
            </g>
        </g>
    </g>
</svg>