<?xml version="1.0" encoding="UTF-8"?>
<svg width="24px" height="24px" viewBox="0 0 24 24" version="1.1" xmlns="http://www.w3.org/2000/svg" xmlns:xlink="http://www.w3.org/1999/xlink">
    <title>Icon/Bookmark/Linear</title>
    <defs>
        <path d="M5,0 L59,0 C61.7614237,-8.8817842e-16 64,2.23857625 64,5 L64,203 C64,205.761424 61.7614237,208 59,208 L5,208 C2.23857625,208 0,205.761424 0,203 L0,5 C0,2.23857625 2.23857625,0 5,0 Z" id="path-1"></path>
        <path d="M0,0 L24,0 L24,24 L0,24 L0,0 Z" id="path-2"></path>
    </defs>
    <g id="Icons" stroke="none" stroke-width="1" fill="none" fill-rule="evenodd" stroke-linecap="round" stroke-linejoin="round">
        <g id="Basic-Actions" transform="translate(-688, -234)" fill-rule="nonzero" stroke="CURRENTCOLOR">
            <g id="Bookmark" transform="translate(668, 166)" xlink:href="#path-1">
                <g id="Icon/Bookmark/Linear" transform="translate(20, 68)" xlink:href="#path-2" fill-rule="evenodd">
                    <g id="Vector" transform="translate(4, 3)">
                        <path d="M0,16 L0,2 C0,0.895430565 0.895430565,0 2,0 L14,0 C15.1045694,0 16,0.895431042 16,2 L16,16 C16,17.6480904 14.1184731,18.5888538 12.8000002,17.6000004 L9.19999981,14.8999996 C8.48888874,14.3666668 7.51111126,14.3666668 6.80000019,14.8999996 L3.20000005,17.6000004 C1.88152754,18.5888538 0,17.6480904 0,16 Z" stroke-width="1.5" fill-rule="nonzero"></path>
                        <line x1="0" y1="5" x2="16" y2="5" stroke-width="1.5" fill-rule="nonzero"></line>
                    </g>
                </g>
            </g>
        </g>
    </g>
</svg>