<?xml version="1.0" encoding="UTF-8"?>
<svg width="24px" height="24px" viewBox="0 0 24 24" version="1.1" xmlns="http://www.w3.org/2000/svg" xmlns:xlink="http://www.w3.org/1999/xlink">
    <title>Icon/Bookmark/Bulk</title>
    <defs>
        <path d="M5,0 L59,0 C61.7614237,-8.8817842e-16 64,2.23857625 64,5 L64,203 C64,205.761424 61.7614237,208 59,208 L5,208 C2.23857625,208 0,205.761424 0,203 L0,5 C0,2.23857625 2.23857625,0 5,0 Z" id="path-1"></path>
        <path d="M0,0 L24,0 L24,24 L0,24 L0,0 Z" id="path-2"></path>
    </defs>
    <g id="Icons" stroke="none" stroke-width="1" fill="none" fill-rule="evenodd">
        <g id="Basic-Actions" transform="translate(-688, -330)" fill="CURRENTCOLOR" fill-rule="nonzero">
            <g id="Bookmark" transform="translate(668, 166)" xlink:href="#path-1">
                <g id="Icon/Bookmark/Bulk" transform="translate(20, 164)" xlink:href="#path-2">
                    <path d="M4,20.4914837 L4,5 C4,3.89543056 4.89543056,3 6,3 L18,3 C19.1045694,3 20,3.89543104 20,5 L20,20.4914837 C20,21.7408657 18.5620327,22.4426632 17.5771122,21.6739712 L13.2305145,17.7166843 C12.5072708,17.1522207 11.4927282,17.1522217 10.769484,17.7166853 L6.42288589,21.6739731 C5.43796504,22.4426651 4,21.7408657 4,20.4914837 Z" id="Vector-2929" opacity="0.400000006"></path>
                    <path d="M18,3 L6,3 C4.89543056,3 4,3.89543056 4,5 L4,8 L20,8 L20,5 C20,3.89543104 19.1045694,3 18,3 Z" id="Vector"></path>
                </g>
            </g>
        </g>
    </g>
</svg>