<?xml version="1.0" encoding="UTF-8"?>
<svg width="24px" height="24px" viewBox="0 0 24 24" version="1.1" xmlns="http://www.w3.org/2000/svg" xmlns:xlink="http://www.w3.org/1999/xlink">
    <title>Icon/Drop/Outline</title>
    <defs>
        <path d="M5,0 L59,0 C61.7614237,-8.8817842e-16 64,2.23857625 64,5 L64,203 C64,205.761424 61.7614237,208 59,208 L5,208 C2.23857625,208 0,205.761424 0,203 L0,5 C0,2.23857625 2.23857625,0 5,0 Z" id="path-1"></path>
        <path d="M0,0 L24,0 L24,24 L0,24 L0,0 Z" id="path-2"></path>
    </defs>
    <g id="Icons" stroke="none" stroke-width="1" fill="none" fill-rule="evenodd">
        <g id="Weather" transform="translate(-64, -682)" fill-rule="nonzero">
            <g id="drop" transform="translate(44, 662)" xlink:href="#path-1">
                <g id="Icon/Drop/Outline" transform="translate(20, 20)" xlink:href="#path-2">
                    <use fill="#FFFFFF" fill-rule="evenodd" xlink:href="#path-2"></use>
                    <path d="M12.0000315,22.75 C7.12003136,22.75 3.14990234,18.7799997 3.14990234,13.8999996 C3.12002547,8.1699996 8.58002424,3.39999995 10.9300241,1.60999998 C11.5600241,1.13 12.4400388,1.13 13.0700388,1.60999998 C15.4200387,3.43000004 20.8800385,8.25999975 20.8501606,13.9099998 C20.8501606,18.7799997 16.8800316,22.75 12.0000315,22.75 Z M12.0000315,2.75 C11.9500315,2.75 11.8900278,2.76999994 11.8400278,2.80999994 C10.1500278,4.0999999 4.63003525,8.70999956 4.66003525,13.8999996 C4.66003525,17.9599996 7.96004105,21.25 12.0100412,21.25 C16.0600414,21.25 19.3600178,17.96 19.3600178,13.9099998 C19.3900178,8.78999996 13.8600352,4.11999989 12.1600351,2.80999994 C12.1000351,2.76999994 12.0500315,2.75 12.0000315,2.75 Z" id="Vector" fill="CURRENTCOLOR" fill-rule="nonzero"></path>
                </g>
            </g>
        </g>
    </g>
</svg>