<?xml version="1.0" encoding="UTF-8"?>
<svg width="24px" height="24px" viewBox="0 0 24 24" version="1.1" xmlns="http://www.w3.org/2000/svg" xmlns:xlink="http://www.w3.org/1999/xlink">
    <title>Icon/Drop/Linear</title>
    <defs>
        <path d="M5,0 L59,0 C61.7614237,-8.8817842e-16 64,2.23857625 64,5 L64,203 C64,205.761424 61.7614237,208 59,208 L5,208 C2.23857625,208 0,205.761424 0,203 L0,5 C0,2.23857625 2.23857625,0 5,0 Z" id="path-1"></path>
        <path d="M0,0 L24,0 L24,24 L0,24 L0,0 Z" id="path-2"></path>
    </defs>
    <g id="Icons" stroke="none" stroke-width="1" fill="none" fill-rule="evenodd">
        <g id="Weather" transform="translate(-64, -730)" fill-rule="nonzero">
            <g id="drop" transform="translate(44, 662)" xlink:href="#path-1">
                <g id="Icon/Drop/Linear" transform="translate(20, 68)" xlink:href="#path-2">
                    <use fill="#FFFFFF" fill-rule="evenodd" xlink:href="#path-2"></use>
                    <path d="M12.7001019,2.21000001 C12.3401018,1.93000001 11.8401307,1.93000001 11.4801307,2.21000001 C9.5801307,3.66000006 3.97011986,8.38999939 4,13.8999996 C4,18.3599997 7.63012648,22 12.1001263,22 C16.5701261,22 20.2001152,18.3699999 20.2001152,13.9099998 C20.2101019,8.48000002 14.5901018,3.67000005 12.7001019,2.21000001 Z" id="Vector" stroke="CURRENTCOLOR" stroke-width="1.5" fill-rule="nonzero"></path>
                </g>
            </g>
        </g>
    </g>
</svg>