<?xml version="1.0" encoding="UTF-8"?>
<svg width="24px" height="24px" viewBox="0 0 24 24" version="1.1" xmlns="http://www.w3.org/2000/svg" xmlns:xlink="http://www.w3.org/1999/xlink">
    <title>Icon/Drop/Bulk</title>
    <defs>
        <path d="M5,0 L59,0 C61.7614237,-8.8817842e-16 64,2.23857625 64,5 L64,203 C64,205.761424 61.7614237,208 59,208 L5,208 C2.23857625,208 0,205.761424 0,203 L0,5 C0,2.23857625 2.23857625,0 5,0 Z" id="path-1"></path>
        <path d="M0,0 L24,0 L24,24 L0,24 L0,0 Z" id="path-2"></path>
    </defs>
    <g id="Icons" stroke="none" stroke-width="1" fill="none" fill-rule="evenodd">
        <g id="Weather" transform="translate(-64, -826)" fill-rule="nonzero">
            <g id="drop" transform="translate(44, 662)" xlink:href="#path-1">
                <g id="Icon/Drop/Bulk" transform="translate(20, 164)" xlink:href="#path-2">
                    <use fill="#FFFFFF" fill-rule="evenodd" xlink:href="#path-2"></use>
                    <path d="M16.5900006,7.40999985 L6.30999994,17.6900005 C5.82999995,18.1700005 5.00999978,18.0600008 4.71999979,17.4500008 C4.19999981,16.3800007 3.89994669,15.1699996 3.89994669,13.8999996 C3.88000012,8.37999964 9.48000014,3.66000006 11.3800001,2.21000001 C11.7500001,1.93000001 12.2500001,1.93000001 12.6100001,2.21000001 C13.4800001,2.87000003 15.1099999,4.24000001 16.6399999,6.03999996 C16.9799999,6.43999997 16.9600006,7.03999984 16.5900006,7.40999985 Z" id="Vector" fill="CURRENTCOLOR" fill-rule="nonzero"></path>
                    <path d="M20.1000004,13.9099998 C20.1000004,18.3699999 16.4699998,22 12,22 C10.21,22 8.5400002,21.4200001 7.19000018,20.4200001 C6.70000017,20.0600001 6.66000026,19.3399999 7.09000027,18.9099998 L17.1599998,8.84000003 C17.6299998,8.37000003 18.4199998,8.47000009 18.7399998,9.05000007 C19.5599998,10.5600001 20.1100004,12.1999998 20.1000004,13.9099998 Z" id="Vector" fill="CURRENTCOLOR" fill-rule="nonzero" opacity="0.400000006"></path>
                </g>
            </g>
        </g>
    </g>
</svg>