<?xml version="1.0" encoding="UTF-8"?>
<svg width="24px" height="24px" viewBox="0 0 24 24" version="1.1" xmlns="http://www.w3.org/2000/svg" xmlns:xlink="http://www.w3.org/1999/xlink">
    <title>Icon/Folder-arrow/Bulk</title>
    <defs>
        <path d="M5,0 L59,0 C61.7614237,-8.8817842e-16 64,2.23857625 64,5 L64,203 C64,205.761424 61.7614237,208 59,208 L5,208 C2.23857625,208 0,205.761424 0,203 L0,5 C0,2.23857625 2.23857625,0 5,0 Z" id="path-1"></path>
        <path d="M0,0 L24,0 L24,24 L0,24 L0,0 Z" id="path-2"></path>
    </defs>
    <g id="Icons" stroke="none" stroke-width="1" fill="none" fill-rule="evenodd">
        <g id="Content-Managment" transform="translate(-480, -576)" fill-rule="nonzero">
            <g id="Folder-Arrow" transform="translate(460, 412)" xlink:href="#path-1">
                <g id="Icon/Folder-arrow/Bulk" transform="translate(20, 164)" xlink:href="#path-2">
                    <path d="M21.7399998,9.43999958 L2,9.43999958 L2,6.42000008 C2,3.98000002 3.98000002,2 6.42000008,2 L8.75,2 C10.38,2 10.89,2.53000009 11.54,3.4000001 L12.9399996,5.26000023 C13.2499996,5.67000023 13.2899999,5.73000002 13.8699999,5.73000002 L16.6599998,5.73000002 C19.0299997,5.72000002 21.0499998,7.27999949 21.7399998,9.43999958 Z" id="Vector" fill="CURRENTCOLOR" opacity="0.400000006"></path>
                    <path d="M21.7399998,9.44015694 C21.8899998,9.89015692 21.9699998,10.3501575 21.9899998,10.8401575 C22,10.9101575 22,11.0001571 22,11.0701571 L22,16.650157 C22,19.600157 19.5999997,22.0001574 16.6499996,22.0001574 L7.3499999,22.0001574 C4.39999986,22.0001574 2,19.600157 2,16.650157 L2,9.44015694 Z M11.7499433,12.1901569 L11.7499433,18.1901569 L13.7499433,16.1901569 L11.7499433,12.1901569 Z" id="Subtract" fill="CURRENTCOLOR"></path>
                    <polygon id="Vector" opacity="0" points="0 0 24 0 24 24 0 24"></polygon>
                </g>
            </g>
        </g>
    </g>
</svg>