<?xml version="1.0" encoding="UTF-8"?>
<svg width="24px" height="24px" viewBox="0 0 24 24" version="1.1" xmlns="http://www.w3.org/2000/svg" xmlns:xlink="http://www.w3.org/1999/xlink">
    <title>Icon/Folder-arrow/Outline</title>
    <defs>
        <path d="M5,0 L59,0 C61.7614237,-8.8817842e-16 64,2.23857625 64,5 L64,203 C64,205.761424 61.7614237,208 59,208 L5,208 C2.23857625,208 0,205.761424 0,203 L0,5 C0,2.23857625 2.23857625,0 5,0 Z" id="path-1"></path>
        <path d="M0,0 L24,0 L24,24 L0,24 L0,0 Z" id="path-2"></path>
    </defs>
    <g id="Icons" stroke="none" stroke-width="1" fill="none" fill-rule="evenodd">
        <g id="Content-Managment" transform="translate(-480, -432)" fill-rule="nonzero">
            <g id="Folder-Arrow" transform="translate(460, 412)" xlink:href="#path-1">
                <g id="Icon/Folder-arrow/Outline" transform="translate(20, 20)" xlink:href="#path-2">
                    <g id="Group-783" fill-rule="evenodd" stroke-width="1" transform="translate(9.2501, 10.25)" fill="CURRENTCOLOR">
                        <path d="M1.99994338,0.75 C1.99994338,0.335786432 2.33572981,0 2.74994338,0 C3.16415694,0 3.49994338,0.335786432 3.49994338,0.75 L3.49994338,4.93945313 L4.21966994,4.21972656 C4.51256317,3.92683333 4.98732358,3.92683333 5.28021681,4.21972656 C5.57311004,4.51261979 5.57311004,4.98738021 5.28021681,5.28027344 L3.28021681,7.28027344 C3.06573778,7.49475247 2.74307203,7.55940186 2.462834,7.44335937 C2.18257821,7.32727362 1.99994338,7.05334669 1.99994338,6.75 L1.99994338,0.75 Z" id="Vector-(Stroke)" fill-rule="nonzero"></path>
                        <path d="M0.219669923,4.21972667 C0.512563154,3.92683344 0.987323582,3.92683344 1.28021681,4.21972667 L3.28021669,6.21972656 C3.57310992,6.51261979 3.57310992,6.98738021 3.28021669,7.28027344 C2.98732346,7.57316667 2.51256305,7.57316667 2.21966982,7.28027344 L0.219669923,5.28027356 C-0.0732233077,4.98738033 -0.0732233077,4.5126199 0.219669923,4.21972667 Z" id="Vector-(Stroke)" fill-rule="nonzero"></path>
                    </g>
                    <path d="M17,22.75 L7,22.75 C2.59000015,22.75 1.25,21.4099998 1.25,17 L1.25,7 C1.25,2.59000015 2.59000015,1.25 7,1.25 L8.5,1.25 C10.25,1.25 10.8,1.81999999 11.5,2.75 L13,4.75 C13.33,5.19 13.38,5.25 14,5.25 L17,5.25 C21.4099998,5.25 22.75,6.59000015 22.75,11 L22.75,17 C22.75,21.4099998 21.4099998,22.75 17,22.75 Z M7,2.75 C3.43000007,2.75 2.75,3.43000007 2.75,7 L2.75,17 C2.75,20.5699999 3.43000007,21.25 7,21.25 L17,21.25 C20.5699999,21.25 21.25,20.5699999 21.25,17 L21.25,11 C21.25,7.43000007 20.5699999,6.75 17,6.75 L14,6.75 C12.72,6.75 12.3000002,6.31000012 11.8000002,5.6500001 L10.3000002,3.6500001 C9.78000021,2.9600001 9.63,2.75 8.5,2.75 L7,2.75 L7,2.75 Z" id="Vector" fill="CURRENTCOLOR" fill-rule="nonzero"></path>
                    <polygon id="Vector" opacity="0" fill-rule="nonzero" points="0 0 24 0 24 24 0 24"></polygon>
                </g>
            </g>
        </g>
    </g>
</svg>