<?xml version="1.0" encoding="UTF-8"?>
<svg width="24px" height="24px" viewBox="0 0 24 24" version="1.1" xmlns="http://www.w3.org/2000/svg" xmlns:xlink="http://www.w3.org/1999/xlink">
    <title>Icon/Camera-Slash/Bold</title>
    <defs>
        <path d="M5,0 L59,0 C61.7614237,-8.8817842e-16 64,2.23857625 64,5 L64,203 C64,205.761424 61.7614237,208 59,208 L5,208 C2.23857625,208 0,205.761424 0,203 L0,5 C0,2.23857625 2.23857625,0 5,0 Z" id="path-1"></path>
        <path d="M0,0 L24,0 L24,24 L0,24 L0,0 Z" id="path-2"></path>
    </defs>
    <g id="Icons" stroke="none" stroke-width="1" fill="none" fill-rule="evenodd">
        <g id="Video,-Audio" transform="translate(-584, -282)" fill="CURRENTCOLOR" fill-rule="nonzero">
            <g id="camera-slash" transform="translate(564, 166)" xlink:href="#path-1">
                <g id="Icon/Camera-Slash/Bold" transform="translate(20, 116)" xlink:href="#path-2">
                    <path d="M21.7650013,2.23000012 C21.4650013,1.93000011 20.9750012,1.93000011 20.6750011,2.23000012 L2.22500001,20.6900015 C1.925,20.9900015 1.925,21.4800016 2.22500001,21.7800016 C2.37500001,21.9200016 2.56499998,22.000001 2.76499999,22.000001 C2.96499999,22.000001 3.15499994,21.9200014 3.30499995,21.7700014 L21.7650013,3.31000006 C22.0750013,3.01000005 22.0750013,2.53000014 21.7650013,2.23000012 Z" id="Vector"></path>
                    <path d="M16.5449994,5.11000013 L15.825,3.66000009 C15.365,2.75000006 14.1649997,2 13.1449997,2 L10.8549998,2 C9.82499981,2 8.62499973,2.75000006 8.16499972,3.66000009 L7.44499946,5.11000013 C7.16499946,5.65000015 6.6049999,6 5.99499989,6 C3.82499981,6 2.10499982,7.82999969 2.24499982,9.98999977 L2.76499981,18.25 C2.81499981,19.1 3.0249998,19.8900005 3.47499979,20.5200005 L17.9950001,6 C17.3850001,6 16.8249994,5.65000015 16.5449994,5.11000013 Z M9.49499965,10.75 L6.49499965,10.75 C6.08499965,10.75 5.74499989,10.41 5.74499989,10 C5.74499989,9.59 6.08499965,9.25 6.49499965,9.25 L9.49499965,9.25 C9.90499964,9.25 10.2450001,9.59 10.2450001,10 C10.2450001,10.41 9.90499964,10.75 9.49499965,10.75 Z" id="Vector"></path>
                    <path d="M21.7450004,9.99000001 L21.2249999,18.25 C21.0949999,20.3099999 19.9950001,22 17.2350001,22 L7.40499973,22 C6.51499975,22 6.06499973,20.9200009 6.69499972,20.2900009 L9.16499996,17.8199997 C9.47499996,17.5099997 9.95500028,17.4700005 10.3450003,17.6900005 C11.0350003,18.0800005 11.8649999,18.2300009 12.7449999,18.0400009 C14.0149999,17.7700009 15.0450006,16.7299998 15.2950006,15.4499998 C15.4650006,14.5899998 15.3149999,13.7799997 14.9349999,13.1099997 C14.7149999,12.7199997 14.7450001,12.2300001 15.0650001,11.9200001 L19.5650001,7.42000023 C19.9750001,7.01000023 20.6650008,7.06000036 21.0150008,7.53000036 C21.5350008,8.21000037 21.8050004,9.06999999 21.7450004,9.99000001 Z" id="Vector"></path>
                </g>
            </g>
        </g>
    </g>
</svg>