<?xml version="1.0" encoding="UTF-8"?>
<svg width="24px" height="24px" viewBox="0 0 24 24" version="1.1" xmlns="http://www.w3.org/2000/svg" xmlns:xlink="http://www.w3.org/1999/xlink">
    <title>Icon/Camera-Slash/Bulk</title>
    <defs>
        <path d="M5,0 L59,0 C61.7614237,-8.8817842e-16 64,2.23857625 64,5 L64,203 C64,205.761424 61.7614237,208 59,208 L5,208 C2.23857625,208 0,205.761424 0,203 L0,5 C0,2.23857625 2.23857625,0 5,0 Z" id="path-1"></path>
        <path d="M0,0 L24,0 L24,24 L0,24 L0,0 Z" id="path-2"></path>
    </defs>
    <g id="Icons" stroke="none" stroke-width="1" fill="none" fill-rule="evenodd">
        <g id="Video,-Audio" transform="translate(-584, -330)" fill="CURRENTCOLOR" fill-rule="nonzero">
            <g id="camera-slash" transform="translate(564, 166)" xlink:href="#path-1">
                <g id="Icon/Camera-Slash/Bulk" transform="translate(20, 164)" xlink:href="#path-2">
                    <path d="M21.7650013,2.23000012 C21.4650013,1.93000011 20.9750012,1.93000011 20.6750011,2.23000012 L2.22500001,20.6900015 C1.925,20.9900015 1.925,21.4800016 2.22500001,21.7800016 C2.37500001,21.9200016 2.56499998,22.000001 2.76499999,22.000001 C2.96499999,22.000001 3.15499994,21.9200014 3.30499995,21.7700014 L21.7650013,3.31000006 C22.0750013,3.01000005 22.0750013,2.53000014 21.7650013,2.23000012 Z" id="Vector"></path>
                    <path d="M21.7450004,9.98999977 L21.2249999,18.25 C21.0949999,20.3099999 19.9950001,22 17.2350001,22 L6.75500011,22 C6.16500014,22 5.65499967,21.9200007 5.21499968,21.7800007 L20.2450004,6.75 C21.2250004,7.48000002 21.8350004,8.66999972 21.7450004,9.98999977 Z" id="Vector" opacity="0.400000006"></path>
                    <path d="M17.9950001,6 L3.47499979,20.5200005 C3.0249998,19.8900005 2.81499981,19.1 2.76499981,18.25 L2.24499982,9.98999977 C2.10499982,7.82999969 3.82499981,6 5.99499989,6 C6.6049999,6 7.16499946,5.65000015 7.44499946,5.11000013 L8.16499972,3.66000009 C8.62499973,2.75000006 9.82499981,2 10.8549998,2 L13.1449997,2 C14.1649997,2 15.365,2.75000006 15.825,3.66000009 L16.5449994,5.11000013 C16.8249994,5.65000015 17.3850001,6 17.9950001,6 Z" id="Vector" opacity="0.400000006"></path>
                    <path d="M9.49499989,10.75 L6.49499989,10.75 C6.08499989,10.75 5.74499989,10.41 5.74499989,10 C5.74499989,9.59 6.08499989,9.25 6.49499989,9.25 L9.49499989,9.25 C9.90499988,9.25 10.2449999,9.59 10.2449999,10 C10.2449999,10.41 9.90499988,10.75 9.49499989,10.75 Z" id="Vector"></path>
                    <path d="M12.5649996,11.4300003 L8.67500019,15.3199997 C8.64500019,15.1399997 8.625,14.94 8.625,14.75 C8.625,12.89 10.1349999,11.3800001 11.9949999,11.3800001 C12.1849999,11.3800001 12.3849996,11.4000003 12.5649996,11.4300003 Z" id="Vector"></path>
                    <path d="M15.375,14.75 C15.375,16.61 13.8549999,18.1200008 11.9949999,18.1200008 C11.1249999,18.1200008 10.3349999,17.79 9.74499989,17.25 L14.4949999,12.5 C15.0449999,13.09 15.375,13.88 15.375,14.75 Z" id="Vector"></path>
                </g>
            </g>
        </g>
    </g>
</svg>