<?xml version="1.0" encoding="UTF-8"?>
<svg width="24px" height="24px" viewBox="0 0 24 24" version="1.1" xmlns="http://www.w3.org/2000/svg" xmlns:xlink="http://www.w3.org/1999/xlink">
    <title>Icon/Camera-Slash/Outline</title>
    <defs>
        <path d="M5,0 L59,0 C61.7614237,-8.8817842e-16 64,2.23857625 64,5 L64,203 C64,205.761424 61.7614237,208 59,208 L5,208 C2.23857625,208 0,205.761424 0,203 L0,5 C0,2.23857625 2.23857625,0 5,0 Z" id="path-1"></path>
        <path d="M0,0 L24,0 L24,24 L0,24 L0,0 Z" id="path-2"></path>
    </defs>
    <g id="Icons" stroke="none" stroke-width="1" fill="none" fill-rule="evenodd">
        <g id="Video,-Audio" transform="translate(-584, -186)" fill="CURRENTCOLOR" fill-rule="nonzero">
            <g id="camera-slash" transform="translate(564, 166)" xlink:href="#path-1">
                <g id="Icon/Camera-Slash/Outline" transform="translate(20, 20)" xlink:href="#path-2">
                    <path d="M8.74749994,10.5 L5.74749994,10.5 C5.33749995,10.5 4.99749994,10.16 4.99749994,9.75 C4.99749994,9.34 5.33749995,9 5.74749994,9 L8.74749994,9 C9.15749994,9 9.49749994,9.34 9.49749994,9.75 C9.49749994,10.16 9.15749994,10.5 8.74749994,10.5 Z" id="Vector"></path>
                    <path d="M16.9874997,22.4999995 L6.50750017,22.4999995 C6.09750018,22.4999995 5.75750017,22.1599995 5.75750017,21.7499995 C5.75750017,21.3399995 6.09750018,20.9999995 6.50750017,20.9999995 L16.9874997,20.9999995 C19.0074997,20.9999995 20.0974995,19.9700003 20.2274995,17.9500003 L20.7474999,9.68999958 C20.7974999,8.9799996 20.5874998,8.28000003 20.1574998,7.71000004 C19.9074998,7.38000003 19.9774994,6.90999982 20.3074994,6.65999982 C20.6374994,6.40999982 21.1075006,6.4799999 21.3575006,6.80999991 C21.9975005,7.66999993 22.3174999,8.71999991 22.2474999,9.78999996 L21.7274995,18.0499988 C21.5474995,20.8799987 19.8174996,22.4999995 16.9874997,22.4999995 Z" id="Vector"></path>
                    <path d="M3.1875,20.9599991 C2.94750001,20.9599991 2.70749989,20.8400008 2.55749989,20.6200008 C2.09749988,19.9200009 1.82749998,19.0500009 1.76749998,18.0400009 L1.24749999,9.78999996 C1.16749999,8.53999996 1.59749997,7.33999985 2.45749998,6.42999983 C3.3075,5.5199998 4.50750017,5 5.74750018,5 C6.06750017,5 6.37750039,4.81000024 6.52750039,4.51000023 L7.24750018,3.07999992 C7.83750015,1.90999997 9.31749988,1 10.6074998,1 L12.8974998,1 C14.1874998,1 15.6575002,1.90999997 16.2475002,3.06999993 L16.9674995,4.53000021 C17.1174995,4.81000021 17.4175002,5 17.7475002,5 C18.1575002,5 18.4975002,5.34 18.4975002,5.75 C18.4975002,6.16 18.1575002,6.5 17.7475002,6.5 C16.8575002,6.5 16.0475003,6 15.6275003,5.21000004 L14.8974998,3.75 C14.5674998,3.08999997 13.6275005,2.50999999 12.8875005,2.50999999 L10.5975006,2.50999999 C9.85750055,2.50999999 8.91750011,3.09000021 8.5775001,3.76000023 L7.86750007,5.19000006 C7.44750008,6 6.63750017,6.5 5.74750018,6.5 C4.90750021,6.5 4.12749988,6.83999979 3.5474999,7.44999981 C2.9774999,8.05999982 2.68749994,8.8599996 2.74749994,9.68999958 L3.26749992,17.9500008 C3.30749992,18.6800008 3.49750012,19.3200009 3.81750011,19.7900009 C4.04750012,20.1400009 3.94749984,20.5999999 3.60749984,20.8299999 C3.47749984,20.9199999 3.3275,20.9599991 3.1875,20.9599991 Z" id="Vector"></path>
                    <path d="M11.7474995,18.5000005 C10.8574995,18.5000005 9.98749942,18.2000001 9.28749943,17.6500001 C8.95749941,17.3900001 8.90749931,16.9200009 9.15749931,16.6000009 C9.4174993,16.2700008 9.88749951,16.2199998 10.2074995,16.4699998 C10.6474995,16.8099998 11.1874995,17.0000005 11.7474995,17.0000005 C13.1274995,17.0000005 14.2474995,15.8800005 14.2474995,14.5000005 C14.2474995,14.0200005 14.1174994,13.5600004 13.8674994,13.1700004 C13.6474994,12.8200004 13.7474999,12.3600005 14.0974998,12.1300005 C14.4474998,11.9100005 14.9074998,12.0100001 15.1374998,12.3600001 C15.5374998,12.9900001 15.7574997,13.7300003 15.7574997,14.4900002 C15.7474997,16.7100003 13.9574995,18.5000005 11.7474995,18.5000005 Z" id="Vector"></path>
                    <path d="M1.74749994,22.4999995 C1.55749995,22.4999995 1.36750001,22.4300002 1.2175,22.2800002 C0.92750001,21.9900002 0.92750001,21.5099988 1.2175,21.2199988 L21.2174988,1.22000006 C21.5074988,0.930000067 21.9875002,0.930000067 22.2775002,1.22000006 C22.5675001,1.51000005 22.5675001,1.98999998 22.2775002,2.27999997 L2.27749991,22.2800002 C2.12749991,22.4300002 1.93749994,22.4999995 1.74749994,22.4999995 Z" id="Vector"></path>
                </g>
            </g>
        </g>
    </g>
</svg>