<?xml version="1.0" encoding="UTF-8"?>
<svg width="24px" height="24px" viewBox="0 0 24 24" version="1.1" xmlns="http://www.w3.org/2000/svg" xmlns:xlink="http://www.w3.org/1999/xlink">
    <title>Icon/Camera-Slash/Linear</title>
    <defs>
        <path d="M5,0 L59,0 C61.7614237,-8.8817842e-16 64,2.23857625 64,5 L64,203 C64,205.761424 61.7614237,208 59,208 L5,208 C2.23857625,208 0,205.761424 0,203 L0,5 C0,2.23857625 2.23857625,0 5,0 Z" id="path-1"></path>
        <path d="M0,0 L24,0 L24,24 L0,24 L0,0 Z" id="path-2"></path>
    </defs>
    <g id="Icons" stroke="none" stroke-width="1" fill="none" fill-rule="evenodd" stroke-linecap="round" stroke-linejoin="round">
        <g id="Video,-Audio" transform="translate(-584, -234)" fill-rule="nonzero" stroke="CURRENTCOLOR" stroke-width="1.5">
            <g id="camera-slash" transform="translate(564, 166)" xlink:href="#path-1">
                <g id="Icon/Camera-Slash/Linear" transform="translate(20, 68)" xlink:href="#path-2">
                    <line x1="6" y1="10" x2="9" y2="10" id="Vector"></line>
                    <path d="M6.76000023,22 L17.2399998,22 C19.9999998,22 21.0999995,20.3099999 21.2299995,18.25 L21.75,9.98999977 C21.81,9.05999976 21.5200002,8.19000024 21.0100002,7.51000023" id="Vector"></path>
                    <path d="M18.0000002,6 C17.3900002,6 16.8299995,5.65000015 16.5499995,5.11000013 L15.8300002,3.66000009 C15.3700002,2.75000006 14.1699998,2 13.1499999,2 L10.8599999,2 C9.82999992,2 8.62999985,2.75000006 8.16999984,3.66000009 L7.44999957,5.11000013 C7.16999957,5.65000015 6.61000001,6 6,6 C3.82999992,6 2.10999993,7.82999969 2.24999993,9.98999977 L2.76999992,18.25 C2.81999992,19.07 3.02999994,19.8399991 3.43999994,20.4599991" id="Vector"></path>
                    <path d="M10,17.3099995 C10.55,17.7399995 11.25,18 12,18 C13.79,18 15.25,16.54 15.25,14.75 C15.25,14.11 15.07,13.5200005 14.75,13.0200005" id="Vector"></path>
                    <line x1="22" y1="2" x2="2" y2="22" id="Vector"></line>
                </g>
            </g>
        </g>
    </g>
</svg>