<?xml version="1.0" encoding="UTF-8"?>
<svg width="24px" height="24px" viewBox="0 0 24 24" version="1.1" xmlns="http://www.w3.org/2000/svg" xmlns:xlink="http://www.w3.org/1999/xlink">
    <title>Icon/Folder-setting/Outline</title>
    <defs>
        <path d="M5,0 L59,0 C61.7614237,-8.8817842e-16 64,2.23857625 64,5 L64,203 C64,205.761424 61.7614237,208 59,208 L5,208 C2.23857625,208 0,205.761424 0,203 L0,5 C0,2.23857625 2.23857625,0 5,0 Z" id="path-1"></path>
        <path d="M0,0 L24,0 L24,24 L0,24 L0,0 Z" id="path-2"></path>
    </defs>
    <g id="Icons" stroke="none" stroke-width="1" fill="none" fill-rule="evenodd">
        <g id="Content-Managment" transform="translate(-272, -432)" fill-rule="nonzero">
            <g id="Folder-setting" transform="translate(252, 412)" xlink:href="#path-1">
                <g id="Icon/Folder-setting/Outline" transform="translate(20, 20)" xlink:href="#path-2">
                    <path d="M9,22.75 L7,22.75 C2.59000015,22.75 1.25,21.4099998 1.25,17 L1.25,7 C1.25,2.59000015 2.59000015,1.25 7,1.25 L8.5,1.25 C10.25,1.25 10.8,1.81999999 11.5,2.75 L13,4.75 C13.33,5.19 13.38,5.25 14,5.25 L17,5.25 C21.4099998,5.25 22.75,6.59000015 22.75,11 L22.75,13 C22.75,13.41 22.41,13.75 22,13.75 C21.59,13.75 21.25,13.41 21.25,13 L21.25,11 C21.25,7.43000007 20.5799999,6.75 17,6.75 L14,6.75 C12.72,6.75 12.2999878,6.30999392 11.7999878,5.6499939 L10.2999878,3.6499939 C9.77998781,2.9599939 9.62,2.75 8.5,2.75 L7,2.75 C3.42000008,2.75 2.75,3.43000007 2.75,7 L2.75,17 C2.75,20.5699999 3.42000008,21.25 7,21.25 L9,21.25 C9.41,21.25 9.75,21.59 9.75,22 C9.75,22.41 9.41,22.75 9,22.75 Z" id="Vector" fill="CURRENTCOLOR" fill-rule="nonzero"></path>
                    <g id="Group-778" fill-rule="evenodd" stroke-width="1" transform="translate(9.9492, 12.28)" fill="CURRENTCOLOR">
                        <path d="M6.88964844,5.75224209 C6.88956389,5.28839481 6.51367173,4.91239834 6.04980469,4.91239834 C5.58600965,4.91248233 5.21004544,5.28844602 5.20996094,5.75224209 C5.20996094,6.21611006 5.58595756,6.59200181 6.04980469,6.59208584 C6.51372388,6.59208584 6.88964844,6.21616129 6.88964844,5.75224209 Z M8.38964844,5.75224209 C8.38964844,7.04458845 7.34215105,8.09208584 6.04980469,8.09208584 C4.75752926,8.09200183 3.70996094,7.044536 3.70996094,5.75224209 C3.71004546,4.46002007 4.75758135,3.41248235 6.04980469,3.41239834 C7.34209883,3.41239834 8.3895639,4.45996762 8.38964844,5.75224209 Z" id="Vector-(Stroke)" fill-rule="nonzero"></path>
                        <path d="M10.5800781,5.28227139 C10.5799422,5.14661666 10.4657484,5.03231516 10.3300781,5.03227139 C9.68964761,5.03227139 9.0426954,4.79956103 8.70507813,4.21293545 C8.36791319,3.6269101 8.49068338,2.95084555 8.81054688,2.39750577 L8.8125,2.39457608 C8.87731199,2.28325569 8.84495234,2.12848106 8.71191406,2.05082608 L7.80761719,1.52348233 C7.74237887,1.48642391 7.65475306,1.50818469 7.61425781,1.5762167 L7.61328125,1.57816983 L7.55859375,1.66703702 C7.23907381,2.21954024 6.71627063,2.66506676 6.04003906,2.66508389 C5.3637886,2.66508389 4.84003392,2.22052748 4.52050781,1.66801358 L4.52050781,1.66703702 L4.46679688,1.57816983 L4.46582031,1.5762167 C4.41756557,1.49514874 4.33050813,1.48848865 4.28320313,1.51664639 L4.27734375,1.52055264 L3.3671875,2.05082608 L3.35742187,2.05668545 L3.35644531,2.05570889 C3.24230378,2.12047218 3.19873229,2.27637682 3.26757813,2.39457608 L3.26953125,2.39750577 C3.58938056,2.9508397 3.71215859,3.62692202 3.375,4.21293545 C3.03738788,4.79958571 2.39044291,5.03227139 1.75,5.03227139 C1.61429539,5.03227139 1.500136,5.14659066 1.5,5.28227139 L1.5,6.21293545 C1.50021792,6.36615807 1.61884265,6.4650469 1.73632813,6.46293545 L1.75,6.46195889 L1.75,6.46293545 C2.39049268,6.46293545 3.03740969,6.6955213 3.375,7.28227139 C3.71218574,7.86833257 3.58943874,8.54434187 3.26953125,9.09770108 L3.26757813,9.10063077 C3.20283176,9.21196529 3.23510666,9.36676395 3.36816406,9.44438077 L4.27246094,9.97172452 L4.32421875,9.98832608 C4.37827887,9.99477582 4.43540893,9.97008125 4.46582031,9.91899014 L4.46679688,9.91703702 L4.52734375,9.81645108 C4.84742597,9.26894808 5.36819351,8.83012295 6.04003906,8.83012295 C6.71187967,8.83013998 7.23266006,9.26894284 7.55273438,9.81645108 L7.61328125,9.91703702 L7.61425781,9.91899014 C7.66251385,10.0000603 7.74957211,10.0057404 7.796875,9.97758389 L7.80273438,9.9746542 L8.71289063,9.44438077 L8.72265625,9.43852139 C8.83699575,9.37390239 8.8812736,9.2189244 8.8125,9.10063077 L8.81054688,9.09770108 C8.49062517,8.54433603 8.36788604,7.86834443 8.70507813,7.28227139 C9.04267359,6.69554598 9.68959785,6.46293545 10.3300781,6.46293545 C10.4656893,6.46289173 10.5798414,6.34851008 10.5800781,6.21293545 L10.5800781,5.28227139 Z M12.0800781,6.21293545 C12.0798484,7.17692978 11.294115,7.96289298 10.3300781,7.96293545 C10.1128765,7.96293545 10.0302938,8.01195406 10.0068359,8.03129483 C10.0018011,8.06104167 10,8.15753069 10.109375,8.34672452 L10.1083984,8.34672452 C10.5958933,9.18471873 10.3038961,10.261327 9.46679688,10.7393026 L9.46777344,10.7402792 L8.55761719,11.2705526 L8.55664063,11.2695761 C7.76504886,11.736092 6.77579281,11.4433557 6.32519531,10.6865683 L6.32519531,10.6855917 L6.26074219,10.5781698 C6.15289894,10.3916909 6.06915969,10.344367 6.04003906,10.3330526 C6.010981,10.3443186 5.92726383,10.3915445 5.81933594,10.5781698 L5.81347656,10.588912 L5.8125,10.5879355 L5.75390625,10.6855917 C5.29451063,11.4573763 4.30301952,11.7160063 3.52832031,11.2734823 L3.52246094,11.2705526 L2.61230469,10.7402792 C1.78557825,10.2580221 1.47691035,9.19336314 1.97167969,8.34477139 C2.08031902,8.15617376 2.07634485,8.06057077 2.07128906,8.03129483 C2.04637186,8.01135191 1.96382737,7.96293545 1.75,7.96293545 L1.75,7.96098233 C0.774158359,7.97123259 0.000226823875,7.17479361 0,6.21293545 L0,5.28227139 C0.000131851324,4.3181696 0.78586638,3.53227139 1.75,3.53227139 C1.96496858,3.53227139 2.04686288,3.48268219 2.07128906,3.46293545 C2.07625124,3.43271626 2.07970908,3.3367873 1.97167969,3.14945889 C1.48343766,2.31130934 1.77483952,1.2320731 2.61230469,0.753951079 L3.51660156,0.228560469 L3.51660156,0.227583906 C4.30923325,-0.24395276 5.30320266,0.0498302042 5.75488281,0.808638579 L5.75390625,0.808638579 L5.81347656,0.906294829 L5.81933594,0.917037016 L5.87695312,1.00688077 C5.95636071,1.11940978 6.01618273,1.15184994 6.04003906,1.16117764 C6.06940574,1.14967122 6.15323412,1.10293639 6.26074219,0.917037016 L6.26660156,0.906294829 L6.32519531,0.808638579 C6.78463143,0.0368421137 7.77705711,-0.220896342 8.55175781,0.221724531 L8.55761719,0.224654219 L9.46777344,0.753951079 L9.46777344,0.754927641 C10.2935752,1.23665339 10.6008438,2.29840267 10.1083984,3.1465292 L10.109375,3.14750577 C10.0008243,3.33520797 10.0019012,3.43229984 10.0068359,3.46293545 C10.0297582,3.48204066 10.1116496,3.53227139 10.3300781,3.53227139 C11.294176,3.53231387 12.0799463,4.31819565 12.0800781,5.28227139 L12.0800781,6.21293545 Z" id="Vector-(Stroke)" fill-rule="nonzero"></path>
                    </g>
                    <polygon id="Vector" opacity="0" fill-rule="nonzero" points="0 0 24 0 24 24 0 24"></polygon>
                </g>
            </g>
        </g>
    </g>
</svg>