<?xml version="1.0" encoding="UTF-8"?>
<svg width="24px" height="24px" viewBox="0 0 24 24" version="1.1" xmlns="http://www.w3.org/2000/svg" xmlns:xlink="http://www.w3.org/1999/xlink">
    <title>Icon/Folder-setting/Bulk</title>
    <defs>
        <path d="M5,0 L59,0 C61.7614237,-8.8817842e-16 64,2.23857625 64,5 L64,203 C64,205.761424 61.7614237,208 59,208 L5,208 C2.23857625,208 0,205.761424 0,203 L0,5 C0,2.23857625 2.23857625,0 5,0 Z" id="path-1"></path>
        <path d="M0,0 L24,0 L24,24 L0,24 L0,0 Z" id="path-2"></path>
    </defs>
    <g id="Icons" stroke="none" stroke-width="1" fill="none" fill-rule="evenodd">
        <g id="Content-Managment" transform="translate(-272, -576)" fill-rule="nonzero">
            <g id="Folder-setting" transform="translate(252, 412)" xlink:href="#path-1">
                <g id="Icon/Folder-setting/Bulk" transform="translate(20, 164)" xlink:href="#path-2">
                    <polygon id="Vector" opacity="0" fill-rule="nonzero" points="0 0 24 0 24 24 0 24"></polygon>
                    <g id="Group-780" fill-rule="evenodd" stroke-width="1" transform="translate(14.1973, 15.3772)" fill="CURRENTCOLOR">
                        <path d="M7.78056623,2.82435087 C7.2288681,2.82435087 6.91245326,2.55243187 6.91245326,2.15255116 C6.91245326,1.99259887 6.96113312,1.80865444 7.07471803,1.6167117 C7.30188784,1.23282623 7.16396262,0.736973474 6.77452867,0.521037881 L6.0362269,0.0971645643 C5.69547219,-0.102775792 5.25735816,0.0171881884 5.05452797,0.353087976 L5.00584916,0.433064399 C4.6164152,1.09686637 3.98358518,1.09686637 3.59415122,0.433064399 L3.54547241,0.353087976 C3.35075543,0.0171881884 2.90452839,-0.102775792 2.57188688,0.0971645643 L1.82547171,0.521037881 C1.56584908,0.664994943 1.41169871,0.936914498 1.41169871,1.21683099 C1.41169871,1.35279043 1.45226425,1.48874988 1.52528312,1.6167117 C1.63886803,1.80865444 1.69566052,1.99259887 1.69566052,2.15255116 C1.69566052,2.55243187 1.37113228,2.82435087 0.819434155,2.82435087 C0.373207726,2.82435087 0,3.18424427 0,3.62411306 L0,4.3758877 C0,4.81575649 0.373207726,5.17564912 0.819434155,5.17564912 C1.37113228,5.17564912 1.69566052,5.44756813 1.69566052,5.84744884 C1.69566052,6.00740113 1.63886803,6.19134632 1.52528312,6.38328906 C1.29811331,6.76717453 1.43603776,7.26302767 1.82547171,7.47896326 L2.57188688,7.90283584 C2.90452839,8.10277619 3.35075543,7.98281221 3.54547241,7.64691243 L3.59415122,7.56693598 C3.98358518,6.90313401 4.6164152,6.90313401 5.00584916,7.56693598 L5.05452797,7.64691243 C5.25735816,7.98281221 5.69547219,8.10277619 6.0362269,7.90283584 L6.77452867,7.47896326 C7.03415131,7.3350062 7.18830244,7.06308664 7.18830244,6.78317015 C7.18830244,6.64721071 7.1477369,6.51125088 7.07471803,6.38328906 C6.96113312,6.19134632 6.91245326,6.00740113 6.91245326,5.84744884 C6.91245326,5.44756813 7.2288681,5.17564912 7.78056623,5.17564912 C8.23490586,5.17564912 8.60000038,4.81575649 8.60000038,4.3758877 L8.60000038,3.62411306 C8.60000038,3.18424427 8.23490586,2.82435087 7.78056623,2.82435087 Z M4.30000096,5.37558948 C3.52924625,5.37558948 2.90452826,4.75977372 2.90452826,4 C2.90452826,3.24022704 3.52924625,2.62441052 4.30000096,2.62441052 C5.07075568,2.62441052 5.69547212,3.24022704 5.69547212,4 C5.69547212,4.75977372 5.07075568,5.37558948 4.30000096,5.37558948 Z" id="Vector" fill-rule="nonzero" opacity="0.400000006"></path>
                        <path d="M5.69524074,4.00001159 C5.69524074,4.759785 5.0705243,5.37560081 4.29976958,5.37560081 C3.52901486,5.37560081 2.90429688,4.759785 2.90429688,4.00001159 C2.90429688,3.24023817 3.52901486,2.62442159 4.29976958,2.62442159 C5.0705243,2.62442159 5.69524074,3.24023817 5.69524074,4.00001159 Z" id="Vector" fill-rule="nonzero"></path>
                    </g>
                    <path d="M22,11.0699997 L22,15.3400002 C22,15.6600001 21.4900005,15.7999997 21.2700005,15.5699997 C20.8000005,15.0799997 20.2100007,14.71 19.5300007,14.5 C17.9600006,14.01 16.1500002,14.4900001 15.0100002,15.6700001 C14.2900002,16.4400001 13.9000001,17.4000006 13.8800001,18.4400005 C13.8800001,18.6200005 13.7899996,18.7799994 13.6499996,18.8899994 C12.9299996,19.4599994 12.4899998,20.3500009 12.4899998,21.3700008 L12.4899998,21.3799992 C12.4899998,21.6999992 12.2599996,21.9900303 11.9399996,21.9900303 L7.34000015,21.9900303 C4.4000001,22 2,19.5999997 2,16.6499996 L2,6.42000008 C2,3.98000002 3.98000002,2 6.42000008,2 L8.73999977,2 C10.3699998,2 10.8799998,2.53000009 11.5299997,3.4000001 L12.9300003,5.26000023 C13.2400003,5.67000023 13.2799997,5.71999979 13.8599997,5.71999979 L16.6499996,5.71999979 C19.0299997,5.71999979 21.0499998,7.27999949 21.7399998,9.43999958 C21.8899998,9.88999957 21.9699998,10.3500001 21.9899998,10.8400002 C22,10.9100002 22,11 22,11.0699997 Z" id="Vector" fill="CURRENTCOLOR" fill-rule="nonzero" opacity="0.400000006"></path>
                </g>
            </g>
        </g>
    </g>
</svg>