<?xml version="1.0" encoding="UTF-8"?>
<svg width="24px" height="24px" viewBox="0 0 24 24" version="1.1" xmlns="http://www.w3.org/2000/svg" xmlns:xlink="http://www.w3.org/1999/xlink">
    <title>Icon/Folder-setting/Linear</title>
    <defs>
        <path d="M5,0 L59,0 C61.7614237,-8.8817842e-16 64,2.23857625 64,5 L64,203 C64,205.761424 61.7614237,208 59,208 L5,208 C2.23857625,208 0,205.761424 0,203 L0,5 C0,2.23857625 2.23857625,0 5,0 Z" id="path-1"></path>
        <path d="M0,0 L24,0 L24,24 L0,24 L0,0 Z" id="path-2"></path>
    </defs>
    <g id="Icons" stroke="none" stroke-width="1" fill="none" fill-rule="evenodd">
        <g id="Content-Managment" transform="translate(-272, -480)" fill-rule="nonzero">
            <g id="Folder-setting" transform="translate(252, 412)" xlink:href="#path-1">
                <g id="Icon/Folder-setting/Linear" transform="translate(20, 68)" xlink:href="#path-2">
                    <path d="M9,22 L7,22 C3,22 2,21 2,17 L2,7 C2,3 3,2 7,2 L8.5,2 C10,2 10.3300244,2.44001222 10.9000244,3.20001221 L12.4000244,5.20001221 C12.7800244,5.70001221 13,6 14,6 L17,6 C21,6 22,7 22,11 L22,13" id="Vector" stroke="CURRENTCOLOR" stroke-width="1.5" stroke-linecap="round" stroke-linejoin="round" fill-rule="nonzero"></path>
                    <polygon id="Vector" opacity="0" fill-rule="nonzero" points="0 0 24 0 24 24 0 24"></polygon>
                    <g id="Group-778" fill-rule="evenodd" stroke-width="1" transform="translate(10.6992, 13.031)" stroke="CURRENTCOLOR" stroke-linecap="round" stroke-linejoin="round">
                        <path d="M6.88996029,5.00137711 C6.88996029,5.87950987 6.1780929,6.59137726 5.29996014,6.59137726 C4.42182738,6.59137726 3.70996094,5.87950987 3.70996094,5.00137711 C3.70996094,4.12324435 4.42182738,3.41137695 5.29996014,3.41137695 C6.1780929,3.41137695 6.88996029,4.12324435 6.88996029,5.00137711 Z" id="Vector" stroke-width="1.5" fill-rule="nonzero"></path>
                        <path d="M0,5.46149111 L0,4.53149271 C0,3.9814927 0.449999988,3.53149176 1,3.53149176 C1.95999998,3.53149176 2.34999987,2.85149246 1.86999989,2.02149248 C1.58999988,1.54149249 1.75999978,0.921491653 2.23999977,0.651491642 L3.15000057,0.121491939 C3.57000056,-0.128508061 4.11000061,0.0214916468 4.36000061,0.441491634 L4.42000008,0.541491985 C4.90000007,1.37149197 5.67999986,1.37149197 6.15999985,0.541491985 L6.21999931,0.441491634 C6.46999931,0.0214916468 7.01000032,-0.118508056 7.43000031,0.121491939 L8.34000015,0.651491642 C8.82000014,0.931491643 8.99000099,1.54149249 8.71000099,2.02149248 C8.230001,2.85149246 8.61999995,3.53149176 9.57999992,3.53149176 C10.1299999,3.53149176 10.5799999,3.9814927 10.5799999,4.53149271 L10.5799999,5.46149111 C10.5799999,6.01149112 10.1299999,6.46149111 9.57999992,6.46149111 C8.61999995,6.46149111 8.230001,7.14149135 8.71000099,7.97149134 C8.99000099,8.45149133 8.82000014,9.07149264 8.34000015,9.34149265 L7.43000031,9.87149334 C7.01000032,10.1214933 6.46999931,9.97149172 6.21999931,9.55149174 L6.15999985,9.45149326 C5.67999986,8.62149328 4.90000007,8.62149328 4.42000008,9.45149326 L4.36000061,9.55149174 C4.11000061,9.97149172 3.57000056,10.1114933 3.15000057,9.87149334 L2.23999977,9.34149265 C1.75999978,9.06149265 1.58999988,8.45149133 1.86999989,7.97149134 C2.34999987,7.14149135 1.95999998,6.46149111 1,6.46149111 C0.449999988,6.47149111 0,6.02149111 0,5.46149111 Z" id="Vector" stroke-width="1.5" fill-rule="nonzero"></path>
                    </g>
                </g>
            </g>
        </g>
    </g>
</svg>