<?xml version="1.0" encoding="UTF-8"?>
<svg width="24px" height="24px" viewBox="0 0 24 24" version="1.1" xmlns="http://www.w3.org/2000/svg" xmlns:xlink="http://www.w3.org/1999/xlink">
    <title>Icon/Folder-setting/Bold</title>
    <defs>
        <path d="M5,0 L59,0 C61.7614237,-8.8817842e-16 64,2.23857625 64,5 L64,203 C64,205.761424 61.7614237,208 59,208 L5,208 C2.23857625,208 0,205.761424 0,203 L0,5 C0,2.23857625 2.23857625,0 5,0 Z" id="path-1"></path>
        <path d="M0,0 L24,0 L24,24 L0,24 L0,0 Z" id="path-2"></path>
    </defs>
    <g id="Icons" stroke="none" stroke-width="1" fill="none" fill-rule="evenodd">
        <g id="Content-Managment" transform="translate(-272, -528)" fill-rule="nonzero">
            <g id="Folder-setting" transform="translate(252, 412)" xlink:href="#path-1">
                <g id="Icon/Folder-setting/Bold" transform="translate(20, 116)" xlink:href="#path-2">
                    <polygon id="Vector" opacity="0" points="0 0 24 0 24 24 0 24"></polygon>
                    <path d="M21.7805662,18.8243509 C21.2288681,18.8243509 20.9124533,18.5524319 20.9124533,18.1525512 C20.9124533,17.9925989 20.9611331,17.8086544 21.074718,17.6167117 C21.3018878,17.2328262 21.1639626,16.7369735 20.7745287,16.5210379 L20.0362269,16.0971646 C19.6954722,15.8972242 19.2573582,16.0171882 19.054528,16.353088 L19.0058492,16.4330644 C18.6164152,17.0968664 17.9835852,17.0968664 17.5941512,16.4330644 L17.5454724,16.353088 C17.3507554,16.0171882 16.9045284,15.8972242 16.5718869,16.0971646 L15.8254717,16.5210379 C15.5658491,16.6649949 15.4116987,16.9369145 15.4116987,17.216831 C15.4116987,17.3527904 15.4522643,17.4887499 15.5252831,17.6167117 C15.638868,17.8086544 15.6956605,17.9925989 15.6956605,18.1525512 C15.6956605,18.5524319 15.3711323,18.8243509 14.8194342,18.8243509 C14.3732077,18.8243509 14,19.1842443 14,19.6241131 L14,20.3758877 C14,20.8157565 14.3732077,21.1756491 14.8194342,21.1756491 C15.3711323,21.1756491 15.6956605,21.4475681 15.6956605,21.8474488 C15.6956605,22.0074011 15.638868,22.1913463 15.5252831,22.3832891 C15.2981133,22.7671745 15.4360378,23.2630277 15.8254717,23.4789633 L16.5718869,23.9028358 C16.9045284,24.1027762 17.3507554,23.9828122 17.5454724,23.6469124 L17.5941512,23.566936 C17.9835852,22.903134 18.6164152,22.903134 19.0058492,23.566936 L19.054528,23.6469124 C19.2573582,23.9828122 19.6954722,24.1027762 20.0362269,23.9028358 L20.7745287,23.4789633 C21.0341513,23.3350062 21.1883024,23.0630866 21.1883024,22.7831702 C21.1883024,22.6472107 21.1477369,22.5112509 21.074718,22.3832891 C20.9611331,22.1913463 20.9124533,22.0074011 20.9124533,21.8474488 C20.9124533,21.4475681 21.2288681,21.1756491 21.7805662,21.1756491 C22.2349059,21.1756491 22.6000004,20.8157565 22.6000004,20.3758877 L22.6000004,19.6241131 C22.6000004,19.1842443 22.2349059,18.8243509 21.7805662,18.8243509 Z M18.300001,21.3755895 C17.5292463,21.3755895 16.9045283,20.7597737 16.9045283,20 C16.9045283,19.240227 17.5292463,18.6244105 18.300001,18.6244105 C19.0707557,18.6244105 19.6954721,19.240227 19.6954721,20 C19.6954721,20.7597737 19.0707557,21.3755895 18.300001,21.3755895 Z" id="Vector" fill="CURRENTCOLOR"></path>
                    <path d="M22,11.0699997 L22,15.3400002 C22,15.6600001 21.4900005,15.7999997 21.2700005,15.5699997 C20.8000005,15.0799997 20.2100007,14.71 19.5300007,14.5 C17.9600006,14.01 16.1500002,14.4900001 15.0100002,15.6700001 C14.2900002,16.4400001 13.9000001,17.4000006 13.8800001,18.4400005 C13.8800001,18.6200005 13.7899996,18.7799994 13.6499996,18.8899994 C12.9299996,19.4599994 12.4899998,20.3500009 12.4899998,21.3700008 L12.4899998,21.3799992 C12.4899998,21.6999992 12.2599996,21.9900303 11.9399996,21.9900303 L7.34000015,21.9900303 C4.4000001,22 2,19.5999997 2,16.6499996 L2,6.42000008 C2,3.98000002 3.98000002,2 6.42000008,2 L8.73999977,2 C10.3699998,2 10.8799998,2.53000009 11.5299997,3.4000001 L12.9300003,5.26000023 C13.2400003,5.67000023 13.2799997,5.71999979 13.8599997,5.71999979 L16.6499996,5.71999979 C19.0299997,5.71999979 21.0499998,7.27999949 21.7399998,9.43999958 C21.8899998,9.88999957 21.9699998,10.3500001 21.9899998,10.8400002 C22,10.9100002 22,11 22,11.0699997 Z" id="Vector" fill="CURRENTCOLOR"></path>
                </g>
            </g>
        </g>
    </g>
</svg>