<?xml version="1.0" encoding="UTF-8"?>
<svg width="24px" height="24px" viewBox="0 0 24 24" version="1.1" xmlns="http://www.w3.org/2000/svg" xmlns:xlink="http://www.w3.org/1999/xlink">
    <title>Icon/Video-Circle/Outline</title>
    <defs>
        <path d="M5,0 L59,0 C61.7614237,-8.8817842e-16 64,2.23857625 64,5 L64,203 C64,205.761424 61.7614237,208 59,208 L5,208 C2.23857625,208 0,205.761424 0,203 L0,5 C0,2.23857625 2.23857625,0 5,0 Z" id="path-1"></path>
        <path d="M0,0 L24,0 L24,24 L0,24 L0,0 Z" id="path-2"></path>
    </defs>
    <g id="Icons" stroke="none" stroke-width="1" fill="none" fill-rule="evenodd">
        <g id="Video,-Audio" transform="translate(-688, -186)" fill="CURRENTCOLOR" fill-rule="nonzero">
            <g id="video-circle" transform="translate(668, 166)" xlink:href="#path-1">
                <g id="Icon/Video-Circle/Outline" transform="translate(20, 20)" xlink:href="#path-2">
                    <path d="M10.7600002,16.3700013 C10.3400002,16.3700013 9.95000038,16.2700002 9.60000038,16.0700002 C8.80000037,15.6100002 8.34000015,14.6699996 8.34000015,13.4799995 L8.34000015,10.5200005 C8.34000015,9.34000051 8.80000037,8.3899999 9.60000038,7.92999989 C10.4000004,7.46999988 11.4400003,7.54000038 12.4700003,8.1400004 L15.04,9.61999989 C16.0599999,10.2099999 16.6499996,11.08 16.6499996,12 C16.6499996,12.92 16.0599999,13.7900001 15.04,14.3800001 L12.4700003,15.8600001 C11.8900003,16.2000001 11.3000003,16.3700013 10.7600002,16.3700013 Z M10.7700005,9.13000011 C10.6100005,9.13000011 10.4699997,9.15999954 10.3599997,9.22999954 C10.0399997,9.41999954 9.85000038,9.89000046 9.85000038,10.5200005 L9.85000038,13.4799995 C9.85000038,14.1099995 10.0299996,14.5800005 10.3599997,14.7700005 C10.6799996,14.9600005 11.1799995,14.8800004 11.7299995,14.5600004 L14.3000002,13.0799999 C14.8500002,12.7599999 15.1599998,12.37 15.1599998,12 C15.1599998,11.63 14.8500002,11.2300001 14.3000002,10.9200001 L11.7299995,9.43999958 C11.3699995,9.22999959 11.0400005,9.13000011 10.7700005,9.13000011 Z" id="Vector"></path>
                    <path d="M12,22.75 C6.07000017,22.75 1.25,17.9299998 1.25,12 C1.25,6.07000017 6.07000017,1.25 12,1.25 C17.9299998,1.25 22.75,6.07000017 22.75,12 C22.75,17.9299998 17.9299998,22.75 12,22.75 Z M12,2.75 C6.9000001,2.75 2.75,6.9000001 2.75,12 C2.75,17.0999999 6.9000001,21.25 12,21.25 C17.0999999,21.25 21.25,17.0999999 21.25,12 C21.25,6.9000001 17.0999999,2.75 12,2.75 Z" id="Vector"></path>
                </g>
            </g>
        </g>
    </g>
</svg>