<?xml version="1.0" encoding="UTF-8"?>
<svg width="24px" height="24px" viewBox="0 0 24 24" version="1.1" xmlns="http://www.w3.org/2000/svg" xmlns:xlink="http://www.w3.org/1999/xlink">
    <title>Icon/Notification/Outline</title>
    <defs>
        <path d="M5,0 L59,0 C61.7614237,-8.8817842e-16 64,2.23857625 64,5 L64,203 C64,205.761424 61.7614237,208 59,208 L5,208 C2.23857625,208 0,205.761424 0,203 L0,5 C0,2.23857625 2.23857625,0 5,0 Z" id="path-1"></path>
        <path d="M0,0 L24,0 L24,24 L0,24 L0,0 Z" id="path-2"></path>
    </defs>
    <g id="Icons" stroke="none" stroke-width="1" fill="none" fill-rule="evenodd">
        <g id="Basic-System-feedback" transform="translate(-64, -186)" fill="CURRENTCOLOR" fill-rule="nonzero">
            <g id="Notification" transform="translate(44, 166)" xlink:href="#path-1">
                <g id="Icon/Notification/Outline" transform="translate(20, 20)" xlink:href="#path-2">
                    <path d="M14.297852,19.7363281 C14.4433846,19.3487634 14.8759566,19.1525455 15.2636724,19.2978516 C15.6512375,19.4433839 15.847455,19.8759559 15.7021489,20.2636719 C15.1513626,21.7327141 13.685302,22.75 12.0000005,22.75 C10.3146982,22.75 8.8486377,21.7327139 8.29785156,20.2636719 C8.15254554,19.8759562 8.34876359,19.4433842 8.73632812,19.2978516 C9.12404382,19.1525455 9.55661578,19.3487636 9.70214844,19.7363281 C10.0248651,20.5974232 10.9154187,21.25 12.0000005,21.25 C13.0845822,21.25 13.9751355,20.597423 14.297852,19.7363281 Z M12.0000005,1.25 C13.5241581,1.25 14.7833623,2.37928414 14.9892583,3.84667969 C17.1220202,4.74481302 18.7241768,6.59815407 18.9843755,8.890625 L19.4316401,12.8310547 C19.4945551,13.3847638 19.7292703,13.9230415 20.1230464,14.3857422 C20.8882145,15.2846394 20.9120645,16.4111876 20.414062,17.2890625 C19.9232741,18.1539069 18.9506145,18.7499468 17.7773442,18.75 L6.22265625,18.75 C5.04938602,18.7499466 4.0767251,18.153907 3.58593753,17.2890625 C3.08793557,16.4111875 3.11178571,15.2846391 3.87695318,14.3857422 C4.27072945,13.9230419 4.50544417,13.3847647 4.56835937,12.8310547 L5.015625,8.890625 C5.2757903,6.59845185 6.87741876,4.74494481 9.00976562,3.84667969 C9.21560335,2.37921882 10.4757962,1.25 12.0000005,1.25 Z M12.0000005,2.75 C11.1606957,2.75 10.480693,3.43027925 10.4804687,4.26953125 L10.4804687,4.37402344 C10.4803155,4.69445702 10.275838,4.97920208 9.97265625,5.08300781 C8.0557344,5.73942828 6.70895331,7.27097881 6.50585938,9.05957031 L6.05859375,13 C5.96035766,13.8652626 5.59583533,14.6802257 5.01855469,15.3583984 C4.68707711,15.74799 4.68434004,16.1851284 4.890625,16.5488281 C5.10447447,16.9256643 5.56770039,17.249948 6.22265625,17.25 L17.7773442,17.25 C18.4323002,17.2499481 18.8955256,16.9256647 19.1093755,16.5488281 C19.3156612,16.185128 19.3129242,15.7479902 18.9814458,15.3583984 C18.4041661,14.6802264 18.0396428,13.8652633 17.9414067,13 L17.4941411,9.05957031 C17.2910475,7.27097821 15.9442672,5.73942786 14.0273442,5.08300781 C13.7241624,4.97920209 13.5196848,4.69445717 13.5195317,4.37402344 L13.5195317,4.26953125 C13.5193075,3.43027884 12.839305,2.75 12.0000005,2.75 Z M7.27050781,1.80371094 C7.65501606,1.65011214 8.09132572,1.83720073 8.24511719,2.22167969 C8.39878462,2.60621104 8.21165898,3.04248495 7.82714844,3.19628906 L7.66015625,3.26367188 C6.35430515,3.78601235 5.31257808,4.81045413 4.76855469,6.10742187 L4.69140625,6.29003906 C4.53117844,6.67199689 4.09192577,6.85162443 3.70996097,6.69140625 C3.32800314,6.53117844 3.14837561,6.09192571 3.30859379,5.70996094 L3.38476567,5.52636719 C4.08422934,3.85899043 5.42373073,2.54168642 7.10253906,1.87011719 L7.27050781,1.80371094 Z M15.8037114,2.22167969 C15.9575241,1.83714828 16.3937742,1.64999786 16.7783208,1.80371094 L16.945313,1.87011719 C18.6240956,2.54163021 19.9635684,3.85907543 20.6630855,5.52636719 L20.7402339,5.70996094 C20.9003969,6.09186319 20.7207025,6.5311307 20.3388667,6.69140625 C19.9569237,6.85161528 19.5176719,6.67195204 19.3574214,6.29003906 L19.280273,6.10742187 C18.7362687,4.81049979 17.6944591,3.78602928 16.3886724,3.26367188 L16.2216802,3.19628906 C15.8371488,3.04247639 15.6499983,2.60622624 15.8037114,2.22167969 Z" id="Vector-(Stroke)"></path>
                </g>
            </g>
        </g>
    </g>
</svg>