<?xml version="1.0" encoding="UTF-8"?>
<svg width="24px" height="24px" viewBox="0 0 24 24" version="1.1" xmlns="http://www.w3.org/2000/svg" xmlns:xlink="http://www.w3.org/1999/xlink">
    <title>Icon/Notification/Linear</title>
    <defs>
        <path d="M5,0 L59,0 C61.7614237,-8.8817842e-16 64,2.23857625 64,5 L64,203 C64,205.761424 61.7614237,208 59,208 L5,208 C2.23857625,208 0,205.761424 0,203 L0,5 C0,2.23857625 2.23857625,0 5,0 Z" id="path-1"></path>
        <path d="M0,0 L24,0 L24,24 L0,24 L0,0 Z" id="path-2"></path>
    </defs>
    <g id="Icons" stroke="none" stroke-width="1" fill="none" fill-rule="evenodd" stroke-linecap="round">
        <g id="Basic-System-feedback" transform="translate(-64, -234)" fill-rule="nonzero" stroke="CURRENTCOLOR">
            <g id="Notification" transform="translate(44, 166)" xlink:href="#path-1">
                <g id="Icon/Notification/Linear" transform="translate(20, 68)" xlink:href="#path-2" fill-rule="evenodd">
                    <g id="Vector" transform="translate(4, 2)">
                        <path d="M2.22281408,16 L13.7771864,16 C15.605566,16 16.6492443,14.1608791 15.5522156,12.8721218 C15.0665607,12.3015881 14.7672644,11.6248856 14.6867237,10.9152575 L14.2395363,6.97518635 C13.9984055,4.85063314 12.412344,3.10719204 10.2699471,2.37366176 L10.2699471,2.2699461 C10.2699471,1.01628935 9.25365734,0 8,0 C6.74634409,0 5.73005438,1.01628935 5.73005438,2.2699461 L5.73005438,2.37366152 C3.58765769,3.10719204 2.0015955,4.85063362 1.76046443,6.97518682 L1.31327701,10.9152575 C1.23273623,11.6248856 0.933440834,12.3015881 0.447785646,12.8721218 C-0.649242491,14.1608791 0.394433975,16 2.22281408,16 Z" stroke-width="1.5" fill-rule="nonzero"></path>
                        <path d="M15.9718447,3.81690574 L15.9718447,3.81690574 L15.9718447,3.81690574 C15.3501036,2.33465683 14.1596262,1.16385055 12.6672249,0.566890001 L12.5,0.5 M0.0768003687,3.81690574 L0.0768003687,3.81690574 L0.0768003687,3.81690574 C0.698541425,2.33465683 1.88901854,1.16385055 3.3814199,0.566890001 L3.54864502,0.5 M11,18 C10.5633163,19.1651924 9.38502955,20 8,20 C6.61497009,20 5.43668461,19.1651924 5,18" stroke-width="1.5" fill-rule="nonzero"></path>
                    </g>
                </g>
            </g>
        </g>
    </g>
</svg>