<?xml version="1.0" encoding="UTF-8"?>
<svg width="24px" height="24px" viewBox="0 0 24 24" version="1.1" xmlns="http://www.w3.org/2000/svg" xmlns:xlink="http://www.w3.org/1999/xlink">
    <title>Icon/Notification/Bulk</title>
    <defs>
        <path d="M5,0 L59,0 C61.7614237,-8.8817842e-16 64,2.23857625 64,5 L64,203 C64,205.761424 61.7614237,208 59,208 L5,208 C2.23857625,208 0,205.761424 0,203 L0,5 C0,2.23857625 2.23857625,0 5,0 Z" id="path-1"></path>
        <path d="M0,0 L24,0 L24,24 L0,24 L0,0 Z" id="path-2"></path>
    </defs>
    <g id="Icons" stroke="none" stroke-width="1" fill="none" fill-rule="evenodd">
        <g id="Basic-System-feedback" transform="translate(-64, -330)" fill="CURRENTCOLOR" fill-rule="nonzero">
            <g id="Notification" transform="translate(44, 166)" xlink:href="#path-1">
                <g id="Icon/Notification/Bulk" transform="translate(20, 164)" xlink:href="#path-2">
                    <path d="M15.803842,3.22165647 C15.957677,2.83706883 16.3941548,2.65000693 16.7787424,2.80384199 L16.9459676,2.87073199 C18.6249191,3.54231261 19.9642055,4.85946965 20.6636643,6.52699947 L20.7404647,6.71009398 C20.9006858,7.09206533 20.7209218,7.53159857 20.3389502,7.69181967 C19.9569788,7.85204077 19.5174451,7.67227674 19.3572242,7.29030514 L19.2804239,7.10721064 C18.7364004,5.81024289 17.6947326,4.78578752 16.3888815,4.26344705 L16.2216565,4.19655693 C15.8370688,4.04272193 15.6500069,3.60624409 15.803842,3.22165647 Z" id="Rectangle-141-(Stroke)"></path>
                    <path d="M3.30363075,3.22165647 C3.45746575,2.83706883 3.89394358,2.65000693 4.27853119,2.80384199 L4.44575632,2.87073199 C6.12470782,3.54231261 7.46399426,4.85946965 8.1634531,6.52699947 L8.24025345,6.71009398 C8.40047455,7.09206533 8.22071052,7.53159857 7.83873892,7.69181967 C7.45676756,7.85204077 7.01723385,7.67227674 6.85701299,7.29030514 L6.78021264,7.10721064 C6.23618913,5.81024289 5.19452137,4.78578752 3.88867027,4.26344705 L3.72144523,4.19655693 C3.33685759,4.04272193 3.14979569,3.60624409 3.30363075,3.22165647 Z" id="Rectangle-143-(Stroke)" transform="translate(5.7743, 5.2502) scale(-1, 1) translate(-5.7743, -5.2502)"></path>
                    <path d="M15,19 C14.5633159,20.1651924 13.38503,21 12,21 C10.6149704,21 9.43668461,20.1651924 9,19 L15,19 Z" id="Ellipse-219"></path>
                    <path d="M17.7771864,19 L6.22281408,19 C4.39443398,19 3.35075748,17.1608787 4.44778562,15.8721218 C4.93344083,15.3015882 5.23273618,14.6248852 5.31327701,13.9152575 L5.76046443,9.97518682 C6.00159553,7.85063362 7.58765769,6.10719192 9.73005438,5.37366152 L9.73005438,5.26994634 C9.73005438,4.01628959 10.746344,3 12.0000007,3 C13.2536575,3 14.2699471,4.01628959 14.2699471,5.26994634 L14.2699471,5.37366176 L14.2699471,5.37366176 C16.4123435,6.1071921 17.9984052,7.85063314 18.2395363,9.97518635 L18.6867237,13.9152575 C18.7672645,14.6248852 19.0665604,15.3015882 19.5522156,15.8721218 C20.6492437,17.1608787 19.6055665,19 17.7771864,19 Z" id="Vector" opacity="0.400000006"></path>
                </g>
            </g>
        </g>
    </g>
</svg>