<?xml version="1.0" encoding="UTF-8"?>
<svg width="24px" height="24px" viewBox="0 0 24 24" version="1.1" xmlns="http://www.w3.org/2000/svg" xmlns:xlink="http://www.w3.org/1999/xlink">
    <title>Icon/Notification/Bold</title>
    <defs>
        <path d="M5,0 L59,0 C61.7614237,-8.8817842e-16 64,2.23857625 64,5 L64,203 C64,205.761424 61.7614237,208 59,208 L5,208 C2.23857625,208 0,205.761424 0,203 L0,5 C0,2.23857625 2.23857625,0 5,0 Z" id="path-1"></path>
        <path d="M0,0 L24,0 L24,24 L0,24 L0,0 Z" id="path-2"></path>
    </defs>
    <g id="Icons" stroke="none" stroke-width="1" fill="none" fill-rule="evenodd">
        <g id="Basic-System-feedback" transform="translate(-64, -282)" fill="CURRENTCOLOR" fill-rule="nonzero">
            <g id="Notification" transform="translate(44, 166)" xlink:href="#path-1">
                <g id="Icon/Notification/Bold" transform="translate(20, 116)" xlink:href="#path-2">
                    <path d="M15.5633301,2.46213499 C15.7171651,2.07754734 16.1536429,1.89048545 16.5382305,2.04432051 L16.7054557,2.11121051 C18.384407,2.78279112 19.7236938,4.09994817 20.4231524,5.76747799 L20.4999528,5.95057249 C20.6601739,6.33254385 20.4804096,6.77207708 20.0984383,6.93229818 C19.7164669,7.09251928 19.2769332,6.91275501 19.1167123,6.53078365 L19.039912,6.34768915 C18.4958885,5.05072141 17.4542208,4.0262661 16.1483696,3.50392556 L15.9811446,3.43703544 C15.5965569,3.2832005 15.409495,2.8467226 15.5633301,2.46213499 Z" id="Rectangle-141-(Stroke)"></path>
                    <path d="M3.49524872,2.41794553 C3.64908372,2.03335789 4.08556151,1.846296 4.47014916,2.00013106 L4.63737428,2.06702106 C6.31632566,2.73860167 7.65561247,4.05575871 8.35507107,5.72328854 L8.43187141,5.90638304 C8.59209251,6.2883544 8.41232824,6.72788763 8.03035688,6.88810873 C7.64838552,7.04832983 7.20885181,6.86856556 7.04863095,6.4865942 L6.97183061,6.3034997 C6.42780709,5.00653195 5.38613945,3.98207664 4.08028823,3.45973611 L3.9130632,3.39284599 C3.52847555,3.23901105 3.34141366,2.80253315 3.49524872,2.41794553 Z" id="Rectangle-143-(Stroke)" transform="translate(5.9659, 4.4465) scale(-1, 1) translate(-5.9659, -4.4465)"></path>
                    <path d="M6.22278118,18.0002441 L17.7771535,18.0002441 C19.6055331,18.0002441 20.6492114,16.1611233 19.5521827,14.872366 C19.0665278,14.3018322 18.7672315,13.6251297 18.6866908,12.9155016 L18.2395034,8.97543049 C17.9983726,6.85087729 16.4123111,5.10743618 14.2699142,4.3739059 L14.2699142,4.27019024 C14.2699142,3.01653349 13.2536244,2.00024414 11.9999671,2.00024414 C10.7463112,2.00024414 9.73002148,3.01653349 9.73002148,4.27019024 L9.73002148,4.37390566 C7.58762479,5.10743618 6.0015626,6.85087776 5.76043153,8.97543097 L5.3132441,12.9155016 C5.23270333,13.6251297 4.93340793,14.3018322 4.44775274,14.872366 C3.35072461,16.1611233 4.39440107,18.0002441 6.22278118,18.0002441 Z" id="Vector"></path>
                    <path d="M11.9999676,22.0002441 C13.3564873,22.0002441 14.5146861,21.1994514 14.9720626,20.0717754 C14.9911389,20.024743 14.9999676,19.9742472 14.9999676,19.9234934 C14.9999676,19.6896044 14.8103638,19.5 14.5764747,19.5 L9.42346087,19.5 C9.18957196,19.5 8.99996758,19.6896044 8.99996758,19.9234934 C8.99996758,19.9742472 9.00879677,20.0247429 9.02787278,20.0717754 C9.48524926,21.1994514 10.6434485,22.0002441 11.9999676,22.0002441 Z" id="Ellipse-218"></path>
                </g>
            </g>
        </g>
    </g>
</svg>