<?xml version="1.0" encoding="UTF-8"?>
<svg width="24px" height="24px" viewBox="0 0 24 24" version="1.1" xmlns="http://www.w3.org/2000/svg" xmlns:xlink="http://www.w3.org/1999/xlink">
    <title>Icon/Chevron-down/Outline</title>
    <defs>
        <path d="M5,0 L59,0 C61.7614237,-8.8817842e-16 64,2.23857625 64,5 L64,203 C64,205.761424 61.7614237,208 59,208 L5,208 C2.23857625,208 0,205.761424 0,203 L0,5 C0,2.23857625 2.23857625,0 5,0 Z" id="path-1"></path>
        <path d="M0,0 L24,0 L24,24 L0,24 L0,0 Z" id="path-2"></path>
    </defs>
    <g id="Icons" stroke="none" stroke-width="1" fill="none" fill-rule="evenodd">
        <g id="Basic-Navigation" transform="translate(-585, -186)" fill="CURRENTCOLOR" fill-rule="nonzero">
            <g id="Chevron-down" transform="translate(565, 166)" xlink:href="#path-1">
                <g id="Icon/Chevron-down/Outline" transform="translate(20, 20)" xlink:href="#path-2">
                    <path d="M21.25,12 C21.25,6.891366 17.108634,2.75 12,2.75 C6.891366,2.75 2.75,6.891366 2.75,12 C2.75,17.108634 6.891366,21.25 12,21.25 C17.108634,21.25 21.25,17.108634 21.25,12 Z M22.75,12 C22.75,17.9370613 17.9370613,22.75 12,22.75 C6.06293869,22.75 1.25,17.9370613 1.25,12 C1.25,6.06293869 6.06293869,1.25 12,1.25 C17.9370613,1.25 22.75,6.06293869 22.75,12 Z" id="Vector-(Stroke)"></path>
                    <path d="M15.0002737,10.2087497 C15.2935828,9.91628177 15.7683463,9.91739766 16.0608206,10.2107028 C16.3532714,10.5039954 16.3530993,10.9787714 16.059844,11.2712497 L12.5295706,14.790781 C12.2368504,15.082672 11.7627205,15.082672 11.4700003,14.790781 L7.94070345,11.2712497 C7.64747006,10.9788469 7.64649731,10.504029 7.93875033,10.2107028 C8.2311531,9.91746943 8.705971,9.91649668 8.99929714,10.2087497 L11.9992971,13.2009373 L15.0002737,10.2087497 Z" id="Vector-(Stroke)"></path>
                </g>
            </g>
        </g>
    </g>
</svg>