<?xml version="1.0" encoding="UTF-8"?>
<svg width="24px" height="24px" viewBox="0 0 24 24" version="1.1" xmlns="http://www.w3.org/2000/svg" xmlns:xlink="http://www.w3.org/1999/xlink">
    <title>Icon/Chevron-down/Bold</title>
    <defs>
        <path d="M5,0 L59,0 C61.7614237,-8.8817842e-16 64,2.23857625 64,5 L64,203 C64,205.761424 61.7614237,208 59,208 L5,208 C2.23857625,208 0,205.761424 0,203 L0,5 C0,2.23857625 2.23857625,0 5,0 Z" id="path-1"></path>
        <path d="M0,0 L24,0 L24,24 L0,24 L0,0 Z" id="path-2"></path>
    </defs>
    <g id="Icons" stroke="none" stroke-width="1" fill="none" fill-rule="evenodd">
        <g id="Basic-Navigation" transform="translate(-585, -282)" fill="CURRENTCOLOR" fill-rule="nonzero">
            <g id="Chevron-down" transform="translate(565, 166)" xlink:href="#path-1">
                <g id="Icon/Chevron-down/Bold" transform="translate(20, 116)" xlink:href="#path-2">
                    <path d="M12,2 C6.48999977,2 2,6.48999977 2,12 C2,17.5100002 6.48999977,22 12,22 C17.5100002,22 22,17.5100002 22,12 C22,6.48999977 17.5100002,2 12,2 Z M16.0599995,11.2700005 L12.5299997,14.8000002 C12.3799997,14.9500002 12.19,15.0200005 12,15.0200005 C11.81,15.0200005 11.6200003,14.9500002 11.4700003,14.8000002 L7.94000006,11.2700005 C7.65000007,10.9800005 7.65000007,10.5 7.94000006,10.21 C8.23000005,9.92000005 8.71000001,9.92000005 9,10.21 L12,13.21 L15,10.21 C15.29,9.92000005 15.7699995,9.92000005 16.0599995,10.21 C16.3499995,10.5 16.3499995,10.9700004 16.0599995,11.2700005 Z" id="Vector"></path>
                </g>
            </g>
        </g>
    </g>
</svg>