<?xml version="1.0" encoding="UTF-8"?>
<svg width="24px" height="24px" viewBox="0 0 24 24" version="1.1" xmlns="http://www.w3.org/2000/svg" xmlns:xlink="http://www.w3.org/1999/xlink">
    <title>Icon/Chevron-down/Bulk</title>
    <defs>
        <path d="M5,0 L59,0 C61.7614237,-8.8817842e-16 64,2.23857625 64,5 L64,203 C64,205.761424 61.7614237,208 59,208 L5,208 C2.23857625,208 0,205.761424 0,203 L0,5 C0,2.23857625 2.23857625,0 5,0 Z" id="path-1"></path>
        <path d="M0,0 L24,0 L24,24 L0,24 L0,0 Z" id="path-2"></path>
    </defs>
    <g id="Icons" stroke="none" stroke-width="1" fill="none" fill-rule="evenodd">
        <g id="Basic-Navigation" transform="translate(-585, -330)" fill="CURRENTCOLOR" fill-rule="nonzero">
            <g id="Chevron-down" transform="translate(565, 166)" xlink:href="#path-1">
                <g id="Icon/Chevron-down/Bulk" transform="translate(20, 164)" xlink:href="#path-2">
                    <path d="M22,12 C22,17.5228477 17.5228477,22 12,22 C6.47715235,22 2,17.5228477 2,12 C2,6.47715235 6.47715235,2 12,2 C17.5228477,2 22,6.47715235 22,12 Z" id="Vector" opacity="0.400000006"></path>
                    <path d="M12,15.0100007 C11.81,15.0100007 11.62,14.9400004 11.47,14.7900004 L7.93999985,11.2600005 C7.64999986,10.9700005 7.64999986,10.4900001 7.93999985,10.2000001 C8.22999984,9.91000009 8.70999977,9.91000009 8.99999976,10.2000001 L12,13.2 L15,10.2000001 C15.29,9.91000009 15.7699995,9.91000009 16.0599995,10.2000001 C16.3499995,10.4900001 16.3499995,10.9700005 16.0599995,11.2600005 L12.5299997,14.7900004 C12.3799997,14.9400004 12.19,15.0100007 12,15.0100007 Z" id="Vector"></path>
                </g>
            </g>
        </g>
    </g>
</svg>