<?xml version="1.0" encoding="UTF-8"?>
<svg width="24px" height="24px" viewBox="0 0 24 24" version="1.1" xmlns="http://www.w3.org/2000/svg" xmlns:xlink="http://www.w3.org/1999/xlink">
    <title>Icon/Filter-tick/Outline</title>
    <defs>
        <path d="M5,0 L59,0 C61.7614237,-8.8817842e-16 64,2.23857625 64,5 L64,203 C64,205.761424 61.7614237,208 59,208 L5,208 C2.23857625,208 0,205.761424 0,203 L0,5 C0,2.23857625 2.23857625,0 5,0 Z" id="path-1"></path>
        <path d="M0,0 L24,0 L24,24 L0,24 L0,0 Z" id="path-2"></path>
    </defs>
    <g id="Icons" stroke="none" stroke-width="1" fill="none" fill-rule="evenodd">
        <g id="Basic-Search" transform="translate(-792, -186)" fill-rule="nonzero">
            <g id="Filter-tick" transform="translate(772, 166)" xlink:href="#path-1">
                <g id="Icon/Filter-tick/Outline" transform="translate(20, 20)" xlink:href="#path-2">
                    <path d="M20.8800049,14.75 C20.8800049,12.8471472 19.5493665,11.2478315 17.7579346,10.8525391 C17.7530211,10.8514521 17.7481767,10.8498184 17.7432861,10.8486328 C17.4753042,10.7836724 17.1848823,10.75 16.8800049,10.75 C14.6742187,10.75 12.8800049,12.5442138 12.8800049,14.75 C12.8800049,15.4044298 13.0409985,16.0260323 13.3292236,16.5771484 L13.460083,16.8085937 L13.4639893,16.8154297 C13.7363076,17.2717468 14.0964993,17.665599 14.5245361,17.9667969 L14.7120361,18.0908203 L14.7344971,18.1044922 C15.3549983,18.5153088 16.0913119,18.75 16.8800049,18.75 C18.3460126,18.75 19.6168574,17.9670998 20.3067627,16.8144531 L20.3096924,16.8085937 C20.6768292,16.2077907 20.8800049,15.5036399 20.8800049,14.75 Z M22.3800049,14.75 C22.3800049,15.7736833 22.1031962,16.7462658 21.5928955,17.5839844 L21.5938721,17.5849609 C20.6437774,19.1723143 18.8939972,20.25 16.8800049,20.25 C15.797734,20.25 14.7829244,19.9286286 13.9278564,19.3681641 L13.9278564,19.3691406 C13.9238556,19.3666881 13.9201304,19.363791 13.9161377,19.3613281 C13.9129707,19.3592409 13.9095347,19.3575625 13.9063721,19.3554687 L13.9063721,19.3544922 C13.1876388,18.9087871 12.6002568,18.2950632 12.1759033,17.5839844 L12.1759033,17.5830078 C11.6690662,16.7505573 11.3800049,15.7789637 11.3800049,14.75 C11.3800049,11.7157865 13.8457913,9.25 16.8800049,9.25 C17.295107,9.25 17.7047986,9.29559395 18.0968018,9.390625 L18.0958252,9.39160156 C20.5570996,9.94167954 22.3800049,12.137949 22.3800049,14.75 Z" id="Vector-(Stroke)" fill="CURRENTCOLOR"></path>
                    <path d="M18.2204592,13.0292057 C18.5245448,12.7479499 18.99975,12.7671123 19.2810059,13.0711979 C19.5618106,13.3753021 19.5429434,13.8496564 19.2390137,14.1307682 L16.709717,16.470612 C16.4139774,16.7441486 15.9545288,16.7349625 15.669678,16.4501042 L14.4997561,15.2801824 C14.2069055,14.9872822 14.206872,14.5125118 14.4997561,14.2196354 C14.7926387,13.9268024 15.2674223,13.926804 15.560303,14.2196354 L16.2194827,14.8788152 L18.2204592,13.0292057 Z" id="Vector-(Stroke)" fill="CURRENTCOLOR"></path>
                    <polygon id="Vector" opacity="0" transform="translate(12, 12) rotate(-180) translate(-12, -12)" points="0 0 24 0 24 24 0 24"></polygon>
                    <path d="M11.3798828,14.75 C11.3798828,11.7157865 13.8456693,9.25 16.8798828,9.25 C17.1567539,9.25001506 17.430843,9.27258561 17.6992187,9.31445313 L19.1542969,8.03222656 C19.3283728,7.85085467 19.5310678,7.55501825 19.6894531,7.20703125 C19.8524648,6.84883553 19.9393991,6.50265992 19.9394531,6.24023438 L19.9394531,4.01953125 C19.9392014,3.3240875 19.3654057,2.75020139 18.6699219,2.75 L5.33007813,2.75 C4.65780622,2.75 4.05957031,3.3004185 4.05957031,4.12011719 L4.05957031,6.45019531 L4.07128906,6.5859375 C4.09479696,6.74100308 4.1548608,6.95047672 4.26074219,7.18554687 C4.3640833,7.41494045 4.49279577,7.6270805 4.62402344,7.79394531 L4.75488281,7.9453125 L4.76367187,7.953125 L4.76269531,7.953125 L8.60351562,11.9931641 L8.64550781,12.0410156 C8.89857829,12.3573537 9.13555415,12.7763446 9.31054687,13.2109375 C9.48383828,13.6413255 9.61911778,14.14553 9.61914062,14.6298828 L9.61914062,19.9804688 C9.61949086,20.9703922 10.7563254,21.5827798 11.6015625,21.0634766 L13.0029297,20.1601563 L13.0292969,20.1435547 C13.1210893,20.0895531 13.2644586,19.9429384 13.3896484,19.7011719 C13.4992479,19.4894791 13.5536097,19.2774625 13.5644531,19.1220703 C13.0001205,18.7047006 12.5307192,18.1787453 12.1757813,17.5839844 L12.1757813,17.5830078 C11.6688929,16.7505273 11.3798828,15.7790196 11.3798828,14.75 Z M21.4394531,6.24023438 C21.4394531,6.78769428 21.271593,7.35149881 21.0546875,7.828125 C20.8365405,8.30747318 20.5381916,8.76490173 20.2148437,9.09472656 C20.2020194,9.10780743 20.1885522,9.12070548 20.1748047,9.1328125 L18.4150391,10.6826172 C18.2314745,10.8442767 17.9808884,10.9061824 17.7431641,10.8486328 C17.4752566,10.7836855 17.1846693,10.7500226 16.8798828,10.75 C14.6740966,10.75 12.8798828,12.5442138 12.8798828,14.75 C12.8798828,15.4043207 13.0399905,16.0261006 13.328125,16.5771484 L13.4599609,16.8085938 L13.4638672,16.8154297 C13.775109,17.33697 14.200876,17.7776034 14.7119141,18.0908203 C14.9341336,18.2272175 15.0693359,18.4697047 15.0693359,18.7304688 L15.0693359,19.0703125 C15.0692717,19.5222608 14.9266489,19.9957652 14.7216797,20.3916016 C14.5236642,20.7738695 14.2201252,21.1715746 13.8154297,21.4189453 L13.8164062,21.4199219 L12.40625,22.3300781 C12.4021841,22.3327023 12.3976706,22.3353457 12.3935547,22.3378906 C10.6193899,23.4345706 8.11947985,22.2285979 8.11914063,19.9804688 L8.11914063,14.6298828 C8.11911573,14.4043126 8.05058257,14.0984531 7.91894531,13.7714844 C7.79222049,13.4567495 7.62858516,13.1771834 7.484375,12.9931641 L3.68359375,8.99414062 C3.35832855,8.66216233 3.08561619,8.22807127 2.89355469,7.80175781 C2.72844598,7.43525437 2.59676433,7.01667556 2.56640625,6.61914063 L2.55957031,6.45019531 L2.55957031,4.12011719 C2.55957031,2.5198158 3.78234994,1.25 5.33007813,1.25 L18.6699219,1.25 C20.1938015,1.25 21.4392037,2.49563336 21.4394531,4.01953125 L21.4394531,6.24023438 Z" id="Vector-(Stroke)" fill="CURRENTCOLOR"></path>
                </g>
            </g>
        </g>
    </g>
</svg>