<?xml version="1.0" encoding="UTF-8"?>
<svg width="24px" height="24px" viewBox="0 0 24 24" version="1.1" xmlns="http://www.w3.org/2000/svg" xmlns:xlink="http://www.w3.org/1999/xlink">
    <title>Icon/Filter-tick/Linear</title>
    <defs>
        <path d="M5,0 L59,0 C61.7614237,-8.8817842e-16 64,2.23857625 64,5 L64,203 C64,205.761424 61.7614237,208 59,208 L5,208 C2.23857625,208 0,205.761424 0,203 L0,5 C0,2.23857625 2.23857625,0 5,0 Z" id="path-1"></path>
        <path d="M0,0 L24,0 L24,24 L0,24 L0,0 Z" id="path-2"></path>
    </defs>
    <g id="Icons" stroke="none" stroke-width="1" fill="none" fill-rule="evenodd">
        <g id="Basic-Search" transform="translate(-792, -234)" fill-rule="nonzero">
            <g id="Filter-tick" transform="translate(772, 166)" xlink:href="#path-1">
                <g id="Icon/Filter-tick/Linear" transform="translate(20, 68)" xlink:href="#path-2">
                    <path d="M21.6300049,14.75 C21.6300049,15.64 21.3900122,16.4800122 20.9500122,17.2000122 C20.1300049,18.5700122 18.6200049,19.5 16.8800049,19.5 C15.9400049,19.5 15.0600073,19.220011 14.3200073,18.730011 C13.7000073,18.350011 13.1900073,17.8200122 12.8200073,17.2000122 C12.3800073,16.4800122 12.1300049,15.64 12.1300049,14.75 C12.1300049,12.1300001 14.260005,10 16.8800049,10 C17.2400049,10 17.5899829,10.0399951 17.9199829,10.1199951 C20.049983,10.5899951 21.6300049,12.49 21.6300049,14.75 Z" id="Vector" stroke="CURRENTCOLOR" stroke-width="1.5" stroke-linecap="round" stroke-linejoin="round"></path>
                    <polyline id="Vector" stroke="CURRENTCOLOR" stroke-width="1.5" stroke-linecap="round" stroke-linejoin="round" points="15.0302734 14.7499695 16.2002563 15.9199829 18.7302246 13.5799561"></polyline>
                    <polygon id="Vector" opacity="0" transform="translate(12, 12) rotate(-180) translate(-12, -12)" points="0 0 24 0 24 24 0 24"></polygon>
                    <path d="M20.6895752,4.01998901 L20.6895752,6.23999023 C20.6895752,7.04999024 20.1795654,8.06000733 19.6795654,8.57000732 L17.9195557,10.1199951 C17.5895557,10.0399951 17.2395777,10 16.8795776,10 C14.2595778,10 12.1295776,12.1300001 12.1295776,14.75 C12.1295776,15.64 12.3795801,16.4800122 12.8195801,17.2000122 C13.1895801,17.8200122 13.6995801,18.350011 14.3195801,18.730011 L14.3195801,19.0700073 C14.3195801,19.6800073 13.9195459,20.4900085 13.4095459,20.7900085 L11.9995728,21.7000122 C10.6895728,22.5100122 8.86956787,21.600011 8.86956787,19.980011 L8.86956787,14.6300049 C8.86956787,13.9200049 8.45957032,13.0100098 8.05957031,12.5100098 L4.21954346,8.47000122 C3.71954346,7.96000123 3.30957031,7.05001223 3.30957031,6.45001221 L3.30957031,4.11999512 C3.30957031,2.90999508 4.21958983,2 5.32958984,2 L18.6695557,2 C19.7795557,2 20.6895752,2.909989 20.6895752,4.01998901 Z" id="Vector" stroke="CURRENTCOLOR" stroke-width="1.5" stroke-linecap="round" stroke-linejoin="round"></path>
                </g>
            </g>
        </g>
    </g>
</svg>