<?xml version="1.0" encoding="UTF-8"?>
<svg width="24px" height="24px" viewBox="0 0 24 24" version="1.1" xmlns="http://www.w3.org/2000/svg" xmlns:xlink="http://www.w3.org/1999/xlink">
    <title>Icon/Filter-tick/Bulk</title>
    <defs>
        <path d="M5,0 L59,0 C61.7614237,-8.8817842e-16 64,2.23857625 64,5 L64,203 C64,205.761424 61.7614237,208 59,208 L5,208 C2.23857625,208 0,205.761424 0,203 L0,5 C0,2.23857625 2.23857625,0 5,0 Z" id="path-1"></path>
        <path d="M0,0 L24,0 L24,24 L0,24 L0,0 Z" id="path-2"></path>
    </defs>
    <g id="Icons" stroke="none" stroke-width="1" fill="none" fill-rule="evenodd">
        <g id="Basic-Search" transform="translate(-792, -330)" fill-rule="nonzero">
            <g id="Filter-tick" transform="translate(772, 166)" xlink:href="#path-1">
                <g id="Icon/Filter-tick/Bulk" transform="translate(20, 164)" xlink:href="#path-2">
                    <polygon id="Vector" opacity="0" transform="translate(12, 12) rotate(-180) translate(-12, -12)" points="0 0 24 0 24 24 0 24"></polygon>
                    <path d="M17.9199829,10.1199951 C17.5899829,10.0399951 17.2400049,10 16.8800049,10 C14.260005,10 12.1300049,12.1300001 12.1300049,14.75 C12.1300049,15.64 12.3800073,16.4800122 12.8200073,17.2000122 C13.1900073,17.8200122 13.7000073,18.350011 14.3200073,18.730011 C15.0600073,19.220011 15.9400049,19.5 16.8800049,19.5 C18.6200049,19.5 20.1300049,18.5700122 20.9500122,17.2000122 C21.3900122,16.4800122 21.6300049,15.64 21.6300049,14.75 C21.6300049,12.49 20.049983,10.5899951 17.9199829,10.1199951 Z M19.25,14.1300049 L16.710022,16.4700012 C16.570022,16.6000012 16.3800122,16.6700134 16.2000122,16.6700134 C16.0100122,16.6700134 15.8199829,16.6000122 15.6699829,16.4500122 L14.5,15.2799988 C14.21,14.9899988 14.21,14.5100012 14.5,14.2200012 C14.79,13.9300012 15.2699976,13.9300012 15.5599976,14.2200012 L16.2199707,14.8800049 L18.2299805,13.0299988 C18.5399805,12.7499988 19.009978,12.7700073 19.289978,13.0700073 C19.569978,13.3800073 19.55,13.8500049 19.25,14.1300049 Z" id="Vector" fill="CURRENTCOLOR"></path>
                    <path d="M5.40997314,2 L18.5800171,2 C19.6800171,2 20.5800171,2.909989 20.5800171,4.01998901 L20.5800171,6.23999023 C20.5800171,7.04999024 20.0800171,8.05999756 19.5800171,8.55999756 L15.289978,12.3999939 C14.689978,12.9099939 14.289978,13.9200012 14.289978,14.7200012 L14.289978,19.0599976 C14.289978,19.6699976 13.8900146,20.4699988 13.3900146,20.7799988 L11.9899902,21.6900024 C10.6899903,22.5 8.90002441,21.5900012 8.90002441,19.9700012 L8.90002441,14.6199951 C8.90002441,13.9099951 8.49997559,13 8.09997559,12.5 L4.30999756,8.45999146 C3.80999756,7.94999146 3.40997314,7.05000246 3.40997314,6.44000244 L3.40997314,4.11999512 C3.41997314,2.90999508 4.31997311,2 5.40997314,2 Z" id="Vector" fill="CURRENTCOLOR" opacity="0.400000006"></path>
                </g>
            </g>
        </g>
    </g>
</svg>