<?xml version="1.0" encoding="UTF-8"?>
<svg width="24px" height="24px" viewBox="0 0 24 24" version="1.1" xmlns="http://www.w3.org/2000/svg" xmlns:xlink="http://www.w3.org/1999/xlink">
    <title>Icon/Folder-open/Linear</title>
    <defs>
        <path d="M5,0 L59,0 C61.7614237,-8.8817842e-16 64,2.23857625 64,5 L64,203 C64,205.761424 61.7614237,208 59,208 L5,208 C2.23857625,208 0,205.761424 0,203 L0,5 C0,2.23857625 2.23857625,0 5,0 Z" id="path-1"></path>
        <path d="M0,0 L24,0 L24,24 L0,24 L0,0 Z" id="path-2"></path>
    </defs>
    <g id="Icons" stroke="none" stroke-width="1" fill="none" fill-rule="evenodd">
        <g id="Content-Managment" transform="translate(-688, -232)" fill-rule="nonzero">
            <g id="Folder-open" transform="translate(668, 164)" xlink:href="#path-1">
                <g id="Icon/Folder-open/Linear" transform="translate(20, 68)" xlink:href="#path-2">
                    <path d="M21.6700008,14.3000002 L21.2700012,19.2999992 C21.1200012,20.8299992 21.0000007,22 18.2900007,22 L5.71000004,22 C3,22 2.88,20.8299992 2.72999999,19.2999992 L2.32999991,14.3000002 C2.24999991,13.4700002 2.51000002,12.6999996 2.98000002,12.1099997 C2.99000002,12.0999997 2.99,12.1000002 3,12.0900002 C3.55000001,11.4200001 4.37999994,11 5.30999994,11 L18.6900012,11 C19.6200013,11 20.4400002,11.4199997 20.9800003,12.0699997 C20.9900003,12.0799997 21.0000007,12.0900004 21.0000007,12.1000004 C21.4900007,12.6900004 21.7600008,13.4600002 21.6700008,14.3000002 Z" id="Vector" stroke="CURRENTCOLOR" stroke-width="1.5"></path>
                    <path d="M3.5,11.4300005 L3.5,6.27999997 C3.5,2.87999988 4.3499999,2.02999997 7.75,2.02999997 L9.02000046,2.02999997 C10.2900004,2.02999997 10.5800004,2.40999997 11.0600004,3.04999995 L12.3299999,4.75 C12.6499999,5.16999999 12.8399996,5.42999983 13.6899996,5.42999983 L16.2399998,5.42999983 C19.6399999,5.42999983 20.4899998,6.28000045 20.4899998,9.68000054 L20.4899998,11.4700005" id="Vector" stroke="CURRENTCOLOR" stroke-width="1.5" stroke-linecap="round" stroke-linejoin="round"></path>
                    <line x1="9.43000031" y1="17.0000019" x2="14.5699997" y2="17.0000019" id="Vector" stroke="CURRENTCOLOR" stroke-width="1.5" stroke-linecap="round" stroke-linejoin="round"></line>
                    <polygon id="Vector" opacity="0" points="-1.07288361e-05 -2.93254852e-05 23.9999893 -2.93254852e-05 23.9999893 23.9999707 -1.07288361e-05 23.9999707"></polygon>
                </g>
            </g>
        </g>
    </g>
</svg>