<?xml version="1.0" encoding="UTF-8"?>
<svg width="24px" height="24px" viewBox="0 0 24 24" version="1.1" xmlns="http://www.w3.org/2000/svg" xmlns:xlink="http://www.w3.org/1999/xlink">
    <title>Icon/Folder-open/Bulk</title>
    <defs>
        <path d="M5,0 L59,0 C61.7614237,-8.8817842e-16 64,2.23857625 64,5 L64,203 C64,205.761424 61.7614237,208 59,208 L5,208 C2.23857625,208 0,205.761424 0,203 L0,5 C0,2.23857625 2.23857625,0 5,0 Z" id="path-1"></path>
        <path d="M0,0 L24,0 L24,24 L0,24 L0,0 Z" id="path-2"></path>
    </defs>
    <g id="Icons" stroke="none" stroke-width="1" fill="none" fill-rule="evenodd">
        <g id="Content-Managment" transform="translate(-688, -328)" fill-rule="nonzero">
            <g id="Folder-open" transform="translate(668, 164)" xlink:href="#path-1">
                <g id="Icon/Folder-open/Bulk" transform="translate(20, 164)" xlink:href="#path-2">
                    <path d="M21.0599988,11.8199997 L20.8999989,11.6000004 C20.6199989,11.2600004 20.2899991,10.99 19.9099991,10.79 C19.3999991,10.5 18.8199996,10.3500004 18.2199996,10.3500004 L5.76999998,10.3500004 C5.16999996,10.3500004 4.5999999,10.5 4.07999992,10.79 C3.68999994,11 3.34,11.2899996 3.05000001,11.6499996 C2.48000002,12.3799996 2.21000001,13.2800003 2.30000001,14.1800003 L2.67000014,18.8500004 C2.80000013,20.2600003 2.96999979,22 6.13999987,22 L17.8600008,22 C21.0300009,22 21.1899992,20.2600001 21.3299992,18.8400002 L21.7,14.1899996 C21.7900001,13.3500004 21.5699987,12.5099997 21.0599988,11.8199997 Z M14.3900006,17.3400002 L9.60000062,17.3400002 C9.21000063,17.3400002 8.89999986,17.0199994 8.89999986,16.6399994 C8.89999986,16.2599994 9.21000063,15.9399996 9.60000062,15.9399996 L14.3900006,15.9399996 C14.7800006,15.9399996 15.0900004,16.2599994 15.0900004,16.6399994 C15.0900004,17.0299994 14.7800006,17.3400002 14.3900006,17.3400002 Z" id="Vector" fill="CURRENTCOLOR"></path>
                    <path d="M3.38000011,11.3100004 C3.60000011,11.1100004 3.81999993,10.93 4.07999992,10.79 C4.58999991,10.5 5.16999996,10.3500004 5.76999998,10.3500004 L18.2299995,10.3500004 C18.8299996,10.3500004 19.400001,10.5 19.920001,10.79 C20.180001,10.93 20.4100018,11.1099997 20.6200018,11.3199997 L20.6200018,10.79 L20.6200018,9.81999969 C20.6200018,6.24999976 19.53,5.15999985 15.96,5.15999985 L13.5799999,5.15999985 C13.1399999,5.15999985 13.1299999,5.14999995 12.8699999,4.80999994 L11.6700001,3.20000005 C11.1000001,2.46000004 10.6500002,2 9.22000027,2 L8.03999996,2 C4.47000003,2 3.38000011,3.08999991 3.38000011,6.65999985 L3.38000011,10.8000002 L3.38000011,11.3100004 Z" id="Vector" fill="CURRENTCOLOR" opacity="0.400000006"></path>
                    <polygon id="Vector" opacity="0" points="0 0 24 0 24 24 0 24"></polygon>
                </g>
            </g>
        </g>
    </g>
</svg>