<?xml version="1.0" encoding="UTF-8"?>
<svg width="24px" height="24px" viewBox="0 0 24 24" version="1.1" xmlns="http://www.w3.org/2000/svg" xmlns:xlink="http://www.w3.org/1999/xlink">
    <title>Icon/Folder-open/Outline</title>
    <defs>
        <path d="M5,0 L59,0 C61.7614237,-8.8817842e-16 64,2.23857625 64,5 L64,203 C64,205.761424 61.7614237,208 59,208 L5,208 C2.23857625,208 0,205.761424 0,203 L0,5 C0,2.23857625 2.23857625,0 5,0 Z" id="path-1"></path>
        <path d="M0,0 L24,0 L24,24 L0,24 L0,0 Z" id="path-2"></path>
    </defs>
    <g id="Icons" stroke="none" stroke-width="1" fill="none" fill-rule="evenodd">
        <g id="Content-Managment" transform="translate(-688, -184)" fill-rule="nonzero">
            <g id="Folder-open" transform="translate(668, 164)" xlink:href="#path-1">
                <g id="Icon/Folder-open/Outline" transform="translate(20, 20)" xlink:href="#path-2">
                    <path d="M18.2900015,22.75 L5.71000016,22.75 C2.31000006,22.75 2.13000003,20.8800008 1.98000002,19.3700008 L1.58000004,14.3599997 C1.49000004,13.3899996 1.7700001,12.4200003 2.3900001,11.6400003 C3.13000011,10.7400004 4.17999983,10.25 5.30999982,10.25 L18.6900011,10.25 C19.8000011,10.25 20.8500001,10.7400001 21.5600001,11.5900002 L21.7300001,11.8199997 C22.2700002,12.5599997 22.5100007,13.4599999 22.4200007,14.3699999 L22.0200011,19.3600006 C21.870001,20.8800006 21.6900016,22.75 18.2900015,22.75 Z M5.30999982,11.75 C4.63999981,11.75 3.99999979,12.0499997 3.5799998,12.5699997 L3.50999999,12.6400003 C3.19,13.0500003 3.01999993,13.6299995 3.07999992,14.2299995 L3.48000002,19.2399998 C3.62000002,20.6999998 3.68000019,21.25 5.71000016,21.25 L18.2900015,21.25 C20.3300015,21.25 20.3800011,20.6999996 20.5200011,19.2299995 L20.9200007,14.2200003 C20.9800007,13.6300003 20.8100007,13.0399999 20.4200007,12.5799999 L20.3200003,12.46 C19.8700003,11.99 19.3000009,11.75 18.6800009,11.75 L5.30999982,11.75 Z" id="Vector" fill="CURRENTCOLOR"></path>
                    <path d="M20.5,12.2200005 C20.09,12.2200005 19.75,11.8800005 19.75,11.4700005 L19.75,9.68000054 C19.75,6.70000052 19.23,6.17999959 16.25,6.17999959 L13.6999998,6.17999959 C12.5699998,6.17999959 12.18,5.77999997 11.75,5.21000004 L10.46,3.5 C10.02,2.92000002 9.92000043,2.77999997 9.02000046,2.77999997 L7.75,2.77999997 C4.76999998,2.77999997 4.25,3.29999995 4.25,6.27999997 L4.25,11.4300005 C4.25,11.8400005 3.91,12.1800005 3.5,12.1800005 C3.09,12.1800005 2.75,11.8400005 2.75,11.4300005 L2.75,6.27999997 C2.75,2.45000005 3.92000008,1.27999997 7.75,1.27999997 L9.02999973,1.27999997 C10.5699997,1.27999997 11.0500001,1.77999997 11.6700001,2.5999999 L12.9499998,4.30000019 C13.2199998,4.66000021 13.24,4.67999983 13.71,4.67999983 L16.2600002,4.67999983 C20.0900002,4.67999983 21.2600002,5.85000062 21.2600002,9.68000054 L21.2600002,11.4700005 C21.25,11.8800005 20.91,12.2200005 20.5,12.2200005 Z" id="Vector" fill="CURRENTCOLOR"></path>
                    <path d="M14.5699997,17.75 L9.43000031,17.75 C9.02000031,17.75 8.68000031,17.41 8.68000031,17 C8.68000031,16.59 9.02000031,16.25 9.43000031,16.25 L14.5699997,16.25 C14.9799997,16.25 15.3199997,16.59 15.3199997,17 C15.3199997,17.41 14.9899997,17.75 14.5699997,17.75 Z" id="Vector" fill="CURRENTCOLOR"></path>
                    <polygon id="Vector" opacity="0" points="0 0 24 0 24 24 0 24"></polygon>
                </g>
            </g>
        </g>
    </g>
</svg>