<?xml version="1.0" encoding="UTF-8"?>
<svg width="24px" height="24px" viewBox="0 0 24 24" version="1.1" xmlns="http://www.w3.org/2000/svg" xmlns:xlink="http://www.w3.org/1999/xlink">
    <title>bag-cross.Bulk</title>
    <defs>
        <path d="M0,0 L24,0 L24,24 L0,24 L0,0 Z" id="path-1"></path>
    </defs>
    <g id="bag-cross.Bulk" stroke="none" fill="none" xlink:href="#path-1" fill-rule="evenodd">
        <path d="M17.8,6.3 L17.8,7.7 C17.8,8.1 17.5,8.5 17,8.5 C16.5,8.5 16.2,8 16.2,7.6 L16.2,6.3 C16.2,4.1 14.1,2.3 11.5,2.6 C9.4,2.8 7.7,4.6 7.7,6.5 L7.7,7.5 C7.7,7.9 7.4,8.3 6.9,8.3 C6.4,8.3 6.2,7.8 6.2,7.4 L6.2,6.4 C6.2,3.7 8.6,1.2 11.4,1 C14.8,0.7 17.8,3.1 17.8,6.3 Z" id="Vector-Copy-2" fill="CURRENTCOLOR"></path>
        <path d="M19.2,6.3 L18.8,6.3 L16.8,6.3 L7.1,6.3 L5.1,6.3 L4.8,6.3 C3.9,6.3 2,6.3 2,8.9 C2,9.9 2.2,10.5 2.6,10.9 C2.8,11.1 3.1,11.3 3.4,11.3 C3.7,11.4 4,11.4 4.3,11.4 L19.6,11.4 C19.9,11.4 20.2,11.4 20.5,11.3 C21.3,11.1 22,10.5 22,8.8 C22,6.3 20.1,6.3 19.2,6.3 Z" id="Vector" fill="CURRENTCOLOR" opacity="0.4"></path>
        <path d="M20.6,11.4 L19.1,19.2 C18.8,21.1 18.2,22.8 14.8,22.8 L9.2,22.8 C5.8,22.8 5.1,20.8 4.8,19.1 L3.5,11.4 C3.8,11.5 4.1,11.5 4.4,11.5 L19.6,11.5 C19.9,11.5 20.2,11.4 20.6,11.4 Z M11.1303301,15.1113699 C10.8374369,14.8184767 10.3625631,14.8184767 10.0696699,15.1113699 C9.7767767,15.4042631 9.7767767,15.8791369 10.0696699,16.1720301 L10.9539992,17.057 L10.0793983,17.9018168 C9.80833535,18.1631989 9.77655885,18.5793537 9.9890398,18.876877 L10.0601168,18.9623017 C10.3476371,19.2604709 10.8224324,19.2691036 11.1206017,18.9815832 L12.0149992,18.118 L12.8696699,18.9720301 C13.1359365,19.2382966 13.5526002,19.2625027 13.8462117,19.0446482 L13.9303301,18.9720301 C14.2232233,18.6791369 14.2232233,18.2042631 13.9303301,17.9113699 L13.0949992,17.076 L13.9206017,16.2815832 C14.1916647,16.0202011 14.2234412,15.6040463 14.0109602,15.306523 L13.9398832,15.2210983 C13.6523629,14.9229291 13.1775676,14.9142964 12.8793983,15.2018168 L12.0339992,16.015 Z" id="Combined-Shape" fill="CURRENTCOLOR"></path>
        <g id="Group" stroke-width="1" transform="translate(10.6, 15.6417)"></g>
    </g>
</svg>