<?xml version="1.0" encoding="UTF-8"?>
<svg width="24px" height="24px" viewBox="0 0 24 24" version="1.1" xmlns="http://www.w3.org/2000/svg" xmlns:xlink="http://www.w3.org/1999/xlink">
    <title>bag-cross.Bold</title>
    <defs>
        <path d="M0,0 L24,0 L24,24 L0,24 L0,0 Z" id="path-1"></path>
    </defs>
    <g id="bag-cross.Bold" stroke="none" fill="none" xlink:href="#path-1">
        <path d="M18,6.5 L18,6.5 L19.3,6.6 C20.2,6.6 21.9,6.7 22,8.9 L22,9.1 C22,10.8 21.4,11.4 20.5,11.6 C20.2,11.7 19.9,11.7 19.6,11.7 L4.4,11.7 C4.1,11.7 3.8,11.7 3.5,11.6 C3.2,11.5 2.9,11.4 2.7,11.2 C2.2,10.7 2,10.1 2,9.1 C2,6.5 3.9,6.5 4.8,6.5 L6,6.5 L6,6.4 C6.1,3.7 8.5,1.3 11.4,1 C14.9,0.7 18,3.2 18,6.5 Z M11.6,3 C9.7,3.2 8.1,4.9 8,6.6 L16,6.6 L16,6.5 C16,4.5 14,2.8 11.6,3 Z" id="Combined-Shape" fill="CURRENTCOLOR" fill-rule="nonzero"></path>
        <path d="M19,13 C19.7,13 20.1,13.6 20,14.2 L19,19.4 L18.9483269,19.7061181 C18.626954,21.4788167 17.9162162,23 14.7,23 L9.1,23 C5.7,23 5,21 4.7,19.3 L3.9,14.2 C3.8,13.5 4.3,13 4.9,13 Z M13.8206017,16.0601168 C13.5224324,15.7725964 13.0476371,15.7812291 12.7601168,16.0793983 L11.9499992,16.9199992 L11.1398832,16.0793983 C10.8785011,15.8083353 10.4623463,15.7765588 10.164823,15.9890398 L10.0793983,16.0601168 C9.78122905,16.3476371 9.77259641,16.8224324 10.0601168,17.1206017 L10.9079992,17.9999992 L10.0601168,18.8793983 C9.79873463,19.1504613 9.78210703,19.5674962 10.005263,19.8570988 L10.0793983,19.9398832 C10.3775676,20.2274036 10.8523629,20.2187709 11.1398832,19.9206017 L11.9499992,19.0789992 L12.7601168,19.9206017 C13.0214989,20.1916647 13.4376537,20.2234412 13.735177,20.0109602 L13.8206017,19.9398832 C14.1187709,19.6523629 14.1274036,19.1775676 13.8398832,18.8793983 L12.9909992,17.9999992 L13.8398832,17.1206017 C14.1012654,16.8495387 14.117893,16.4325038 13.894737,16.1429012 Z" id="Combined-Shape" fill="CURRENTCOLOR" fill-rule="evenodd"></path>
        <g id="Group" stroke-width="1" fill-rule="evenodd" transform="translate(10.6, 16.6)"></g>
    </g>
</svg>