<?xml version="1.0" encoding="UTF-8"?>
<svg width="24px" height="24px" viewBox="0 0 24 24" version="1.1" xmlns="http://www.w3.org/2000/svg" xmlns:xlink="http://www.w3.org/1999/xlink">
    <title>bag-cross.outline</title>
    <defs>
        <path d="M0,0 L24,0 L24,24 L0,24 L0,0 Z" id="path-1"></path>
    </defs>
    <g id="bag-cross.outline" stroke="none" fill="none" xlink:href="#path-1">
        <path d="M17.6,5.22535398 L17.6,6.62535398 C17.6,7.02535398 16,7.12535398 16,6.62535398 L16,5.22535398 C16,3.02535398 13.9,1.22535398 11.3,1.52535398 C9.2,1.72535398 7.5,3.52535398 7.5,5.42535398 L7.5,6.42535398 C7.5,6.82535398 7.2,7.22535398 6.7,7.22535398 C6.2,7.22535398 6,6.82535398 6,6.42535398 L6,5.42535398 C6,2.72535398 8.4,0.225353978 11.2,0.0253539776 C14.6,-0.274646022 17.6,2.12535398 17.6,5.22535398 Z" id="Vector" fill="CURRENTCOLOR" fill-rule="evenodd"></path>
        <path d="M22.6,8.52535398 C22.6,9.72535398 22.3,10.425354 21.7,10.925354 C21.2,11.225354 20.8,11.325354 19.8,11.325354 C19.7,11.325354 19.7,11.325354 19.6,11.325354 L4,11.325354 C3.9,11.325354 3.9,11.325354 3.8,11.325354 C2.8,11.325354 2.4,11.325354 1.9,10.925354 C1.3,10.525354 1,9.72535398 1,8.52535398 C1,6.42535398 2,5.72535398 4,5.72535398 L19.6,5.72535398 C21.6,5.82535398 22.6,6.52535398 22.6,8.52535398 Z M4,7.32535398 C2.8,7.32535398 2.6,7.42535398 2.6,8.52535398 C2.6,9.22535398 2.7,9.52535398 2.9,9.62535398 C3,9.72535398 3.2,9.72535398 3.9,9.72535398 C4,9.72535398 4,9.72535398 4.1,9.72535398 L19.7,9.72535398 C19.8,9.72535398 19.8,9.72535398 19.9,9.72535398 C20.5,9.72535398 20.8,9.72535398 20.9,9.62535398 C21,9.52535398 21.2,9.22535398 21.2,8.52535398 C21.2,7.42535398 21,7.22535398 19.7,7.22535398 L4,7.22535398 L4,7.32535398 Z" id="Vector_00000155123915090285470110000017609271396400167080_" fill="CURRENTCOLOR" fill-rule="nonzero"></path>
        <path d="M20.4,10.025354 C20.8,10.125354 21.1,10.525354 21,10.925354 L19.3,19.725354 C18.8,22.525354 17.7,23.525354 14.6,23.525354 L8.6,23.525354 C5.7,23.525354 4.3,22.225354 3.9,19.525354 L2.5,10.925354 C2.4,10.525354 2.7,10.125354 3.1,10.025354 C3.5,9.92535398 3.9,10.225354 4,10.625354 L5.4,19.225354 C5.7,21.225354 6.5,21.925354 8.6,21.925354 L14.6,21.925354 C16.9,21.925354 17.4,21.425354 17.8,19.325354 L19.5,10.525354 C19.6,10.125354 20,9.92535398 20.4,10.025354 Z" id="Vector_00000114049763247217676210000017267056400922080914_" fill="CURRENTCOLOR" fill-rule="evenodd"></path>
        <g id="Group" stroke-width="1" fill-rule="evenodd" transform="translate(9.65, 14.5754)" fill="CURRENTCOLOR">
            <path d="M1.28033009,0.219669914 L4.08033009,3.01966991 C4.3732233,3.31256313 4.3732233,3.78743687 4.08033009,4.08033009 C3.78743687,4.3732233 3.31256313,4.3732233 3.01966991,4.08033009 L0.219669914,1.28033009 C-0.0732233047,0.987436867 -0.0732233047,0.512563133 0.219669914,0.219669914 C0.512563133,-0.0732233047 0.987436867,-0.0732233047 1.28033009,0.219669914 Z" id="Vector_00000106829446643496908940000012242339095632496289_" fill-rule="nonzero"></path>
            <path d="M4.08033009,0.219669914 C4.3732233,0.512563133 4.3732233,0.987436867 4.08033009,1.28033009 L1.28033009,4.08033009 C0.987436867,4.3732233 0.512563133,4.3732233 0.219669914,4.08033009 C-0.0732233047,3.78743687 -0.0732233047,3.31256313 0.219669914,3.01966991 L3.01966991,0.219669914 C3.31256313,-0.0732233047 3.78743687,-0.0732233047 4.08033009,0.219669914 Z" id="Vector_00000028310362451113194270000017377057515992309685_" fill-rule="nonzero"></path>
        </g>
    </g>
</svg>