<?xml version="1.0" encoding="UTF-8"?>
<svg width="24px" height="24px" viewBox="0 0 24 24" version="1.1" xmlns="http://www.w3.org/2000/svg" xmlns:xlink="http://www.w3.org/1999/xlink">
    <title>Icon/Camera2/Linear</title>
    <defs>
        <path d="M5,0 L59,0 C61.7614237,-8.8817842e-16 64,2.23857625 64,5 L64,203 C64,205.761424 61.7614237,208 59,208 L5,208 C2.23857625,208 0,205.761424 0,203 L0,5 C0,2.23857625 2.23857625,0 5,0 Z" id="path-1"></path>
        <path d="M0,0 L24,0 L24,24 L0,24 L0,0 Z" id="path-2"></path>
    </defs>
    <g id="Icons" stroke="none" stroke-width="1" fill="none" fill-rule="evenodd" stroke-linecap="round" stroke-linejoin="round">
        <g id="Video,-Audio" transform="translate(-480, -234)" fill-rule="nonzero" stroke="CURRENTCOLOR" stroke-width="1.5">
            <g id="camera-2" transform="translate(460, 166)" xlink:href="#path-1">
                <g id="Icon/Camera2/Linear" transform="translate(20, 68)" xlink:href="#path-2">
                    <path d="M6.5179801,22 L16.9979801,22 C19.7579801,22 20.8579799,20.3099999 20.9879799,18.25 L21.5079803,9.98999977 C21.6479803,7.82999969 19.9279804,6 17.7579803,6 C17.1479803,6 16.5879796,5.65000015 16.3079796,5.11000013 L15.5879803,3.66000009 C15.1279803,2.75000006 13.9279799,2 12.90798,2 L10.61798,2 C9.58798003,2 8.38797995,2.75000006 7.92797995,3.66000009 L7.20797968,5.11000013 C6.92797968,5.65000015 6.36798012,6 5.75798011,6 C3.58798003,6 1.86798004,7.82999969 2.00798004,9.98999977 L2.52798003,18.25 C2.64798003,20.3099999 3.75798011,22 6.5179801,22 Z" id="Vector"></path>
                    <line x1="10.2579801" y1="8" x2="13.2579801" y2="8" id="Vector"></line>
                    <path d="M11.7579801,18 C13.5479801,18 15.0079801,16.54 15.0079801,14.75 C15.0079801,12.96 13.5479801,11.5 11.7579801,11.5 C9.96798015,11.5 8.50798011,12.96 8.50798011,14.75 C8.50798011,16.54 9.96798015,18 11.7579801,18 Z" id="Vector"></path>
                </g>
            </g>
        </g>
    </g>
</svg>