<?xml version="1.0" encoding="UTF-8"?>
<svg width="24px" height="24px" viewBox="0 0 24 24" version="1.1" xmlns="http://www.w3.org/2000/svg" xmlns:xlink="http://www.w3.org/1999/xlink">
    <title>Icon/Camera2/Bold</title>
    <defs>
        <path d="M5,0 L59,0 C61.7614237,-8.8817842e-16 64,2.23857625 64,5 L64,203 C64,205.761424 61.7614237,208 59,208 L5,208 C2.23857625,208 0,205.761424 0,203 L0,5 C0,2.23857625 2.23857625,0 5,0 Z" id="path-1"></path>
        <path d="M0,0 L24,0 L24,24 L0,24 L0,0 Z" id="path-2"></path>
    </defs>
    <g id="Icons" stroke="none" stroke-width="1" fill="none" fill-rule="evenodd">
        <g id="Video,-Audio" transform="translate(-480, -282)" fill="CURRENTCOLOR" fill-rule="nonzero">
            <g id="camera-2" transform="translate(460, 166)" xlink:href="#path-1">
                <g id="Icon/Camera2/Bold" transform="translate(20, 116)" xlink:href="#path-2">
                    <path d="M17.7579803,6 C17.1479803,6 16.5879796,5.65000015 16.3079796,5.11000013 L15.5879803,3.66000009 C15.1279803,2.75000006 13.9279799,2 12.90798,2 L10.61798,2 C9.58798003,2 8.38797995,2.75000006 7.92797995,3.66000009 L7.20797968,5.11000013 C6.92797968,5.65000015 6.36798012,6 5.75798011,6 C3.58798003,6 1.86798004,7.82999969 2.00798004,9.98999977 L2.52798003,18.25 C2.64798003,20.3099999 3.75798011,22 6.5179801,22 L16.9979801,22 C19.7579801,22 20.8579799,20.3099999 20.9879799,18.25 L21.5079803,9.98999977 C21.6479803,7.82999969 19.9279804,6 17.7579803,6 Z M10.2579803,7.25 L13.2579803,7.25 C13.6679803,7.25 14.0079803,7.59 14.0079803,8 C14.0079803,8.41 13.6679803,8.75 13.2579803,8.75 L10.2579803,8.75 C9.84798035,8.75 9.50797987,8.41 9.50797987,8 C9.50797987,7.59 9.84798035,7.25 10.2579803,7.25 Z M11.7579803,18.1200008 C9.89798033,18.1200008 8.37797976,16.6099998 8.37797976,14.7399998 C8.37797976,12.8699998 9.88798034,11.3599997 11.7579803,11.3599997 C13.6279804,11.3599997 15.1379805,12.8699998 15.1379805,14.7399998 C15.1379805,16.6099998 13.6179804,18.1200008 11.7579803,18.1200008 Z" id="Vector"></path>
                </g>
            </g>
        </g>
    </g>
</svg>