<?xml version="1.0" encoding="UTF-8"?>
<svg width="24px" height="24px" viewBox="0 0 24 24" version="1.1" xmlns="http://www.w3.org/2000/svg" xmlns:xlink="http://www.w3.org/1999/xlink">
    <title>Icon/Camera2/Outline</title>
    <defs>
        <path d="M5,0 L59,0 C61.7614237,-8.8817842e-16 64,2.23857625 64,5 L64,203 C64,205.761424 61.7614237,208 59,208 L5,208 C2.23857625,208 0,205.761424 0,203 L0,5 C0,2.23857625 2.23857625,0 5,0 Z" id="path-1"></path>
        <path d="M0,0 L24,0 L24,24 L0,24 L0,0 Z" id="path-2"></path>
    </defs>
    <g id="Icons" stroke="none" stroke-width="1" fill="none" fill-rule="evenodd">
        <g id="Video,-Audio" transform="translate(-480, -186)" fill="CURRENTCOLOR" fill-rule="nonzero">
            <g id="camera-2" transform="translate(460, 166)" xlink:href="#path-1">
                <g id="Icon/Camera2/Outline" transform="translate(20, 20)" xlink:href="#path-2">
                    <path d="M16.7494507,22.5 L6.26945114,22.5 C3.46945119,22.5 1.68945071,20.8300009 1.52945071,18.0400009 L1.00945072,9.78999996 C0.929450725,8.53999996 1.3594507,7.33999985 2.21945071,6.42999983 C3.06945074,5.5199998 4.2694509,5 5.50945091,5 C5.82945091,5 6.13945112,4.81000024 6.28945112,4.51000023 L7.00945091,3.07999992 C7.59945089,1.90999997 9.07945061,1 10.3694506,1 L12.6594505,1 C13.9494505,1 15.4194509,1.90999997 16.0094509,3.06999993 L16.7294502,4.53000021 C16.8794502,4.81000021 17.1794509,5 17.5094509,5 C18.7494509,5 19.9494518,5.5199998 20.7994518,6.42999983 C21.6594518,7.34999985 22.0894509,8.53999996 22.0094509,9.78999996 L21.4894505,18.0499992 C21.3094504,20.8799992 19.5794506,22.5 16.7494507,22.5 Z M10.3694506,2.5 C9.62945056,2.5 8.68945107,3.07999998 8.34945107,3.75 L7.6294508,5.19000006 C7.20945081,6 6.3994509,6.5 5.50945091,6.5 C4.66945094,6.5 3.88945061,6.83999979 3.30945063,7.44999981 C2.73945063,8.05999982 2.44945068,8.8599996 2.50945067,9.68999958 L3.02945066,17.9500008 C3.14945065,19.9700007 4.23945117,21 6.26945114,21 L16.7494507,21 C18.7694507,21 19.8594505,19.9700007 19.9894505,17.9500008 L20.5094509,9.68999958 C20.5594509,8.8599996 20.2794517,8.05999982 19.7094517,7.44999981 C19.1294517,6.83999979 18.3494509,6.5 17.5094509,6.5 C16.6194509,6.5 15.809451,6 15.389451,5.21000004 L14.6594505,3.75 C14.3294505,3.08999997 13.3894513,2.50999999 12.6494513,2.50999999 L10.3694506,2.50999999 L10.3694506,2.5 Z" id="Vector"></path>
                    <path d="M13.0094507,8.5 L10.0094507,8.5 C9.59945068,8.5 9.25945067,8.16 9.25945067,7.75 C9.25945067,7.34 9.59945068,7 10.0094507,7 L13.0094507,7 C13.4194507,7 13.7594507,7.34 13.7594507,7.75 C13.7594507,8.16 13.4194507,8.5 13.0094507,8.5 Z" id="Vector"></path>
                    <path d="M11.5094507,18.5 C9.29945064,18.5 7.50945067,16.71 7.50945067,14.5 C7.50945067,12.29 9.29945064,10.5 11.5094507,10.5 C13.7194507,10.5 15.5094507,12.29 15.5094507,14.5 C15.5094507,16.71 13.7194507,18.5 11.5094507,18.5 Z M11.5094507,12 C10.1294507,12 9.00945067,13.12 9.00945067,14.5 C9.00945067,15.88 10.1294507,17 11.5094507,17 C12.8894507,17 14.0094507,15.88 14.0094507,14.5 C14.0094507,13.12 12.8894507,12 11.5094507,12 Z" id="Vector"></path>
                </g>
            </g>
        </g>
    </g>
</svg>