<?xml version="1.0" encoding="UTF-8"?>
<svg width="24px" height="24px" viewBox="0 0 24 24" version="1.1" xmlns="http://www.w3.org/2000/svg" xmlns:xlink="http://www.w3.org/1999/xlink">
    <title>Icon/Cloud-snow/Bold</title>
    <defs>
        <path d="M5,0 L59,0 C61.7614237,-8.8817842e-16 64,2.23857625 64,5 L64,203 C64,205.761424 61.7614237,208 59,208 L5,208 C2.23857625,208 0,205.761424 0,203 L0,5 C0,2.23857625 2.23857625,0 5,0 Z" id="path-1"></path>
        <path d="M0,0 L24,0 L24,24 L0,24 L0,0 Z" id="path-2"></path>
    </defs>
    <g id="Icons" stroke="none" stroke-width="1" fill="none" fill-rule="evenodd">
        <g id="Weather" transform="translate(-168, -530)" fill-rule="nonzero">
            <g id="cloud-snow" transform="translate(148, 414)" xlink:href="#path-1">
                <g id="Icon/Cloud-snow/Bold" transform="translate(20, 116)" xlink:href="#path-2">
                    <use fill="#FFFFFF" fill-rule="evenodd" xlink:href="#path-2"></use>
                    <path d="M20.1700001,17.5699995 C19.6400001,18.0599995 19.0300009,18.430001 18.3700008,18.680001 C17.7100008,18.930001 17,18.4499995 17,17.7399995 L17,16.4199998 C17,14.4699998 15.4200003,12.8900001 13.4700003,12.8900001 L10.5299997,12.8900001 C8.57999969,12.8900001 7,14.4699998 7,16.4199998 L7,17.9999998 C7,18.5499998 6.55000001,19.0000007 6,19.0000007 L5.55000019,19.0000007 C3.10000014,18.6300007 2,16.6399994 2,14.8599994 C2,13.1799995 2.98000002,11.3199999 5.11000013,10.8 C4.52000016,8.47000003 5.01999998,6.28000009 6.53999996,4.69000006 C8.26999998,2.88000011 11.0299997,2.16000012 13.4099998,2.90000013 C15.5999999,3.57000014 17.1400005,5.37000012 17.6900005,7.87000012 C19.6000005,8.30000013 21.1299998,9.73999953 21.7399998,11.7399995 C22.3999998,13.9099996 21.8000001,16.1399995 20.1700001,17.5699995 Z" id="Vector" fill="CURRENTCOLOR" fill-rule="nonzero"></path>
                    <path d="M13.4700003,14.3900003 L10.5299997,14.3900003 C9.25999975,14.3900003 8.5,15.1500001 8.5,16.4200001 L8.5,19.3600006 C8.5,20.6300006 9.25999975,21.3900003 10.5299997,21.3900003 L13.4700003,21.3900003 C14.7400002,21.3900003 15.5,20.6300006 15.5,19.3600006 L15.5,16.4200001 C15.5,15.1500001 14.7400002,14.3900003 13.4700003,14.3900003 Z M10.5,17.6299992 C10.08,17.6299992 9.75,17.2899992 9.75,16.8799992 C9.75,16.4699992 10.08,16.1299992 10.5,16.1299992 C10.92,16.1299992 11.25,16.4699992 11.25,16.8799992 C11.25,17.2899992 10.91,17.6299992 10.5,17.6299992 Z M12,19.8799992 C11.59,19.8799992 11.25,19.5399992 11.25,19.1299992 C11.25,18.7199992 11.59,18.3799992 12,18.3799992 C12.41,18.3799992 12.75,18.7199992 12.75,19.1299992 C12.75,19.5399992 12.42,19.8799992 12,19.8799992 Z M13.5100002,17.6299992 C13.0900002,17.6299992 12.7600002,17.2899992 12.7600002,16.8799992 C12.7600002,16.4699992 13.0900002,16.1299992 13.5100002,16.1299992 C13.9300002,16.1299992 14.2600002,16.4699992 14.2600002,16.8799992 C14.2600002,17.2899992 13.9200002,17.6299992 13.5100002,17.6299992 Z" id="Vector" fill="CURRENTCOLOR" fill-rule="nonzero"></path>
                </g>
            </g>
        </g>
    </g>
</svg>