<?xml version="1.0" encoding="UTF-8"?>
<svg width="24px" height="24px" viewBox="0 0 24 24" version="1.1" xmlns="http://www.w3.org/2000/svg" xmlns:xlink="http://www.w3.org/1999/xlink">
    <title>Icon/Cloud-snow/Outline</title>
    <defs>
        <path d="M5,0 L59,0 C61.7614237,-8.8817842e-16 64,2.23857625 64,5 L64,203 C64,205.761424 61.7614237,208 59,208 L5,208 C2.23857625,208 0,205.761424 0,203 L0,5 C0,2.23857625 2.23857625,0 5,0 Z" id="path-1"></path>
        <path d="M0,0 L24,0 L24,24 L0,24 L0,0 Z" id="path-2"></path>
    </defs>
    <g id="Icons" stroke="none" stroke-width="1" fill="none" fill-rule="evenodd">
        <g id="Weather" transform="translate(-168, -434)" fill-rule="nonzero">
            <g id="cloud-snow" transform="translate(148, 414)" xlink:href="#path-1">
                <g id="Icon/Cloud-snow/Outline" transform="translate(20, 20)" xlink:href="#path-2">
                    <use fill="#FFFFFF" fill-rule="evenodd" xlink:href="#path-2"></use>
                    <path d="M16.6500001,19.7500005 C16.6400001,19.7500005 16.6200011,19.7500005 16.6100011,19.7500005 C16.2000011,19.7500005 15.8600004,19.4100002 15.8700004,18.9900002 C15.8700004,18.5800003 16.2399997,18.2100005 16.6299996,18.2500005 C17.7299997,18.2500005 18.8900002,17.8299997 19.7400002,17.0499997 C21.2900002,15.6899997 21.4,13.7500006 20.98,12.3800006 C20.56,11.0100006 19.3900013,9.4599998 17.3700013,9.19999981 C17.0400013,9.15999981 16.7799998,8.90999994 16.7199998,8.57999992 C16.3299998,6.18999982 15.0300007,4.54000008 13.0900006,3.94000006 C11.0700006,3.32000005 8.74000025,3.93000007 7.28000021,5.46000004 C5.86000025,6.95000005 5.52999991,9.02000093 6.3499999,11.3100009 C6.48999991,11.7000009 6.29000008,12.1300009 5.9000001,12.2700009 C5.51000011,12.4100009 5.08000012,12.2100002 4.94000012,11.8200002 C3.93000013,9.01000023 4.38999987,6.31999981 6.19999981,4.42999983 C8.04999983,2.49999988 10.9900005,1.72999996 13.5400004,2.51999998 C15.8700004,3.24000001 17.5200011,5.15999961 18.1100011,7.81999969 C20.150001,8.2799997 21.7800008,9.82000017 22.4300008,11.9500003 C23.1400008,14.2700002 22.5000007,16.6500006 20.7600007,18.1700006 C19.6100007,19.1900005 18.1600001,19.7500005 16.6500001,19.7500005 Z" id="Vector" fill="CURRENTCOLOR" fill-rule="nonzero"></path>
                    <path d="M5.57000029,19.749999 C5.55000029,19.749999 5.5300001,19.749999 5.5200001,19.749999 C2.63999999,19.549999 1.33000004,17.2899997 1.33000004,15.2799997 C1.33000004,13.2699997 2.63999999,11.0199995 5.5200001,10.8099995 C6.28000009,10.8199995 6.99000025,10.969999 7.63000023,11.289999 C8.00000024,11.479999 8.14000016,11.9299992 7.96000016,12.2999992 C7.77000016,12.6699992 7.31999993,12.8099995 6.94999993,12.6299992 C6.52999994,12.4099992 6.06000027,12.3099995 5.59000027,12.3099995 C3.70000029,12.4499995 2.83999991,13.8999997 2.83999991,15.2799997 C2.83999991,16.6599997 3.70000029,18.109999 5.63000023,18.249999 C6.04000023,18.279999 6.35000004,18.6399983 6.33000004,19.0499983 C6.29000004,19.4499983 5.96000028,19.749999 5.57000029,19.749999 Z" id="Vector" fill="CURRENTCOLOR" fill-rule="nonzero"></path>
                    <path d="M15.8200002,9.64000034 C15.5400002,9.64000034 15.2800001,9.49000028 15.1500001,9.22000027 C14.9600001,8.85000026 15.1100002,8.40000004 15.4900002,8.21000004 C16.1000002,7.90000004 16.7899998,7.73000027 17.4699998,7.72000027 L17.48,7.72000027 C17.89,7.72000027 18.22,8.05000004 18.23,8.46000004 C18.24,8.87000003 17.9100002,9.22000027 17.4900002,9.22000027 C17.0300002,9.23000027 16.5700001,9.3400002 16.1500001,9.55000019 C16.0400001,9.62000019 15.9300002,9.64000034 15.8200002,9.64000034 Z" id="Vector" fill="CURRENTCOLOR" fill-rule="nonzero"></path>
                    <path d="M12.9799995,18 C12.4199995,18 11.9799995,17.55 11.9799995,17 C11.9799995,16.45 12.4299995,16 12.9799995,16 C13.5299996,16 13.9799995,16.45 13.9799995,17 C13.9799995,17.55 13.5299996,18 12.9799995,18 Z" id="Vector" fill="CURRENTCOLOR" fill-rule="nonzero"></path>
                    <path d="M8.98000002,18 C8.41999954,18 7.98000002,17.55 7.98000002,17 C7.98000002,16.45 8.42999953,16 8.98000002,16 C9.52999955,16 9.98000002,16.45 9.98000002,17 C9.98000002,17.55 9.52999955,18 8.98000002,18 Z" id="Vector" fill="CURRENTCOLOR" fill-rule="nonzero"></path>
                    <path d="M10.9799995,21 C10.4199995,21 9.97999954,20.55 9.97999954,20 C9.97999954,19.45 10.4299995,19 10.9799995,19 C11.5299996,19 11.9799995,19.45 11.9799995,20 C11.9799995,20.55 11.5299996,21 10.9799995,21 Z" id="Vector" fill="CURRENTCOLOR" fill-rule="nonzero"></path>
                </g>
            </g>
        </g>
    </g>
</svg>