<?xml version="1.0" encoding="UTF-8"?>
<svg width="24px" height="24px" viewBox="0 0 24 24" version="1.1" xmlns="http://www.w3.org/2000/svg" xmlns:xlink="http://www.w3.org/1999/xlink">
    <title>Icon/Cloud-snow/Bulk</title>
    <defs>
        <path d="M5,0 L59,0 C61.7614237,-8.8817842e-16 64,2.23857625 64,5 L64,203 C64,205.761424 61.7614237,208 59,208 L5,208 C2.23857625,208 0,205.761424 0,203 L0,5 C0,2.23857625 2.23857625,0 5,0 Z" id="path-1"></path>
        <path d="M0,0 L24,0 L24,24 L0,24 L0,0 Z" id="path-2"></path>
    </defs>
    <g id="Icons" stroke="none" stroke-width="1" fill="none" fill-rule="evenodd">
        <g id="Weather" transform="translate(-168, -578)" fill-rule="nonzero">
            <g id="cloud-snow" transform="translate(148, 414)" xlink:href="#path-1">
                <g id="Icon/Cloud-snow/Bulk" transform="translate(20, 164)" xlink:href="#path-2">
                    <use fill="#FFFFFF" fill-rule="evenodd" xlink:href="#path-2"></use>
                    <path d="M21.7399998,11.7399995 C21.1299998,9.73999953 19.6100007,8.29999965 17.7000008,7.86999965 C17.1400008,5.36999965 15.6000001,3.5800001 13.4200001,2.9000001 C11.04,2.17000008 8.28000021,2.88000011 6.55000019,4.69000006 C5.02000022,6.28000009 4.52000016,8.47000003 5.11000013,10.8 C2.98000002,11.3199999 2,13.1799995 2,14.8599994 C2,16.7399994 3.22999978,18.8500016 5.96999979,19.0400016 L8.5,19.0400016 L8.5,16.4099996 C8.5,15.1399996 9.25999975,14.3799999 10.5299997,14.3799999 L13.4700003,14.3799999 C14.7400002,14.3799999 15.5,15.1399996 15.5,16.4099996 L15.5,19.0400016 L16.3099995,19.0400016 C16.3199995,19.0400016 16.3400004,19.0400016 16.3500004,19.0400016 C17.7700003,19.0400016 19.1300001,18.5099992 20.1700001,17.5599992 C21.8000001,16.1399993 22.3999998,13.9099996 21.7399998,11.7399995 Z" id="Vector" fill="CURRENTCOLOR" fill-rule="nonzero" opacity="0.400000006"></path>
                    <path d="M13.4700003,14.3900003 L10.5299997,14.3900003 C9.25999975,14.3900003 8.5,15.1500001 8.5,16.4200001 L8.5,19.3600006 C8.5,20.6300006 9.25999975,21.3900003 10.5299997,21.3900003 L13.4700003,21.3900003 C14.7400002,21.3900003 15.5,20.6300006 15.5,19.3600006 L15.5,16.4200001 C15.5,15.1500001 14.7400002,14.3900003 13.4700003,14.3900003 Z M10.5,17.6299992 C10.08,17.6299992 9.75,17.2899992 9.75,16.8799992 C9.75,16.4699992 10.08,16.1299992 10.5,16.1299992 C10.92,16.1299992 11.25,16.4699992 11.25,16.8799992 C11.25,17.2899992 10.91,17.6299992 10.5,17.6299992 Z M12,19.8799992 C11.59,19.8799992 11.25,19.5399992 11.25,19.1299992 C11.25,18.7199992 11.59,18.3799992 12,18.3799992 C12.41,18.3799992 12.75,18.7199992 12.75,19.1299992 C12.75,19.5399992 12.42,19.8799992 12,19.8799992 Z M13.5100002,17.6299992 C13.0900002,17.6299992 12.7600002,17.2899992 12.7600002,16.8799992 C12.7600002,16.4699992 13.0900002,16.1299992 13.5100002,16.1299992 C13.9300002,16.1299992 14.2600002,16.4699992 14.2600002,16.8799992 C14.2600002,17.2899992 13.9200002,17.6299992 13.5100002,17.6299992 Z" id="Vector" fill="CURRENTCOLOR" fill-rule="nonzero"></path>
                </g>
            </g>
        </g>
    </g>
</svg>