<?xml version="1.0" encoding="UTF-8"?>
<svg width="24px" height="24px" viewBox="0 0 24 24" version="1.1" xmlns="http://www.w3.org/2000/svg" xmlns:xlink="http://www.w3.org/1999/xlink">
    <title>Icon/Mnue-vertical/Bulk</title>
    <defs>
        <path d="M5,0 L59,0 C61.7614237,-8.8817842e-16 64,2.23857625 64,5 L64,203 C64,205.761424 61.7614237,208 59,208 L5,208 C2.23857625,208 0,205.761424 0,203 L0,5 C0,2.23857625 2.23857625,0 5,0 Z" id="path-1"></path>
        <path d="M0,0 L24,0 L24,24 L0,24 L0,0 Z" id="path-2"></path>
    </defs>
    <g id="Icons" stroke="none" stroke-width="1" fill="none" fill-rule="evenodd">
        <g id="Basic-Navigation" transform="translate(-272, -578)" fill="CURRENTCOLOR" fill-rule="nonzero">
            <g id="More-vertical" transform="translate(252, 414)" xlink:href="#path-1">
                <g id="Icon/Mnue-vertical/Bulk" transform="translate(20, 164)" xlink:href="#path-2">
                    <path d="M12.5,11.25 C12.5,11.940356 11.940356,12.5 11.25,12.5 C10.559644,12.5 10,11.940356 10,11.25 C10,10.559644 10.559644,10 11.25,10 C11.940356,10 12.5,10.559644 12.5,11.25 Z" id="Ellipse-236"></path>
                    <path d="M12.5,6.25 C12.5,6.94035596 11.940356,7.5 11.25,7.5 C10.559644,7.5 10,6.94035596 10,6.25 C10,5.55964404 10.559644,5 11.25,5 C11.940356,5 12.5,5.55964404 12.5,6.25 Z" id="Ellipse-237" opacity="0.400000006"></path>
                    <path d="M12.5,16.25 C12.5,16.940356 11.940356,17.5 11.25,17.5 C10.559644,17.5 10,16.940356 10,16.25 C10,15.559644 10.559644,15 11.25,15 C11.940356,15 12.5,15.559644 12.5,16.25 Z" id="Ellipse-238" opacity="0.400000006"></path>
                </g>
            </g>
        </g>
    </g>
</svg>