<?xml version="1.0" encoding="UTF-8"?>
<svg width="24px" height="24px" viewBox="0 0 24 24" version="1.1" xmlns="http://www.w3.org/2000/svg" xmlns:xlink="http://www.w3.org/1999/xlink">
    <title>Icon/Mnue-vertical/Outline</title>
    <defs>
        <path d="M5,0 L59,0 C61.7614237,-8.8817842e-16 64,2.23857625 64,5 L64,203 C64,205.761424 61.7614237,208 59,208 L5,208 C2.23857625,208 0,205.761424 0,203 L0,5 C0,2.23857625 2.23857625,0 5,0 Z" id="path-1"></path>
        <path d="M0,0 L24,0 L24,24 L0,24 L0,0 Z" id="path-2"></path>
    </defs>
    <g id="Icons" stroke="none" stroke-width="1" fill="none" fill-rule="evenodd">
        <g id="Basic-Navigation" transform="translate(-272, -434)" fill="CURRENTCOLOR" fill-rule="nonzero">
            <g id="More-vertical" transform="translate(252, 414)" xlink:href="#path-1">
                <g id="Icon/Mnue-vertical/Outline" transform="translate(20, 20)" xlink:href="#path-2">
                    <path d="M13.25,20 C13.25,19.309644 12.690356,18.75 12,18.75 C11.309644,18.75 10.75,19.309644 10.75,20 C10.75,20.690356 11.309644,21.25 12,21.25 C12.690356,21.25 13.25,20.690356 13.25,20 Z M13.25,12 C13.25,11.309644 12.690356,10.75 12,10.75 C11.309644,10.75 10.75,11.309644 10.75,12 C10.75,12.690356 11.309644,13.25 12,13.25 C12.690356,13.25 13.25,12.690356 13.25,12 Z M13.25,4 C13.25,3.30964398 12.690356,2.75 12,2.75 C11.309644,2.75 10.75,3.30964398 10.75,4 C10.75,4.69035602 11.309644,5.25 12,5.25 C12.690356,5.25 13.25,4.69035602 13.25,4 Z M14.75,20 C14.75,21.5187831 13.5187831,22.75 12,22.75 C10.4812169,22.75 9.25,21.5187831 9.25,20 C9.25,18.4812169 10.4812169,17.25 12,17.25 C13.5187831,17.25 14.75,18.4812169 14.75,20 Z M14.75,12 C14.75,13.5187831 13.5187831,14.75 12,14.75 C10.4812169,14.75 9.25,13.5187831 9.25,12 C9.25,10.4812169 10.4812169,9.25 12,9.25 C13.5187831,9.25 14.75,10.4812169 14.75,12 Z M14.75,4 C14.75,5.51878309 13.5187831,6.75 12,6.75 C10.4812169,6.75 9.25,5.51878309 9.25,4 C9.25,2.48121691 10.4812169,1.25 12,1.25 C13.5187831,1.25 14.75,2.48121691 14.75,4 Z" id="Vector-(Stroke)"></path>
                </g>
            </g>
        </g>
    </g>
</svg>