<?xml version="1.0" encoding="UTF-8"?>
<svg width="24px" height="24px" viewBox="0 0 24 24" version="1.1" xmlns="http://www.w3.org/2000/svg" xmlns:xlink="http://www.w3.org/1999/xlink">
    <title>Icon/Verify/Outline</title>
    <defs>
        <path d="M5,0 L59,0 C61.7614237,-8.8817842e-16 64,2.23857625 64,5 L64,203 C64,205.761424 61.7614237,208 59,208 L5,208 C2.23857625,208 0,205.761424 0,203 L0,5 C0,2.23857625 2.23857625,0 5,0 Z" id="path-1"></path>
        <path d="M0,0 L24,0 L24,24 L0,24 L0,0 Z" id="path-2"></path>
    </defs>
    <g id="Icons" stroke="none" stroke-width="1" fill="none" fill-rule="evenodd">
        <g id="Basic-System-feedback" transform="translate(-584, -434)" fill-rule="nonzero">
            <g id="Verify" transform="translate(564, 414)" xlink:href="#path-1">
                <g id="Icon/Verify/Outline" transform="translate(20, 20)" xlink:href="#path-2">
                    <path d="M10.7895701,15.1700292 C10.5895701,15.1700292 10.3995704,15.0900289 10.2595704,14.9500289 L7.83957031,12.5300286 C7.54957032,12.2400286 7.54957032,11.7600291 7.83957031,11.4700291 C8.12957031,11.1800291 8.60956976,11.1800291 8.89956975,11.4700291 L10.7895701,13.3600287 L15.0895705,9.0600293 C15.3795705,8.77002931 15.8595695,8.77002931 16.1495695,9.0600293 C16.4395695,9.35002929 16.4395695,9.83002874 16.1495695,10.1200287 L11.3195698,14.9500289 C11.1795698,15.0900289 10.9895701,15.1700292 10.7895701,15.1700292 Z" id="Vector" fill="CURRENTCOLOR"></path>
                    <path d="M11.9999999,22.75 C11.3699999,22.75 10.7399999,22.5400008 10.2499999,22.1200008 L8.66999996,20.7600002 C8.50999996,20.6200002 8.10999997,20.4799995 7.89999998,20.4799995 L6.17999971,20.4799995 C4.69999969,20.4799995 3.49999988,19.2799993 3.49999988,17.7999992 L3.49999988,16.0900002 C3.49999988,15.8800002 3.36000003,15.4899999 3.22000003,15.3299999 L1.87,13.7399998 C1.05000001,12.7699997 1.05000001,11.2400005 1.87,10.2700005 L3.22000003,8.68000031 C3.36000003,8.52000031 3.49999988,8.13000007 3.49999988,7.92000008 L3.49999988,6.19999981 C3.49999988,4.71999979 4.69999969,3.51999998 6.17999971,3.51999998 L7.90999973,3.51999998 C8.11999972,3.51999998 8.52000019,3.37 8.68000019,3.24000001 L10.2600001,1.88 C11.2400001,1.04000002 12.7699999,1.04000002 13.7499999,1.88 L15.3299998,3.24000001 C15.4899998,3.38000001 15.8900003,3.51999998 16.1000003,3.51999998 L17.8000001,3.51999998 C19.2800001,3.51999998 20.4800004,4.71999979 20.4800004,6.19999981 L20.4800004,7.9000001 C20.4800004,8.11000009 20.6300013,8.51000008 20.7700013,8.67000008 L22.13,10.25 C22.97,11.23 22.97,12.7599998 22.13,13.7399998 L20.7700013,15.3199997 C20.6300013,15.4799997 20.4800004,15.8800002 20.4800004,16.0900002 L20.4800004,17.7900009 C20.4800004,19.2700009 19.2800001,20.4699993 17.8000001,20.4699993 L16.1000003,20.4699993 C15.8900003,20.4699993 15.4899998,20.62 15.3299998,20.75 L13.7499999,22.1100006 C13.2599999,22.5400006 12.6299999,22.75 11.9999999,22.75 Z M6.17999971,5.01999998 C5.52999973,5.01999998 4.99999988,5.54999983 4.99999988,6.19999981 L4.99999988,7.90999985 C4.99999988,8.47999984 4.73000002,9.21000034 4.36000001,9.64000034 L3.00999999,11.2299995 C2.66,11.6399995 2.66,12.3500002 3.00999999,12.7600002 L4.36000001,14.3500004 C4.73000002,14.7900004 4.99999988,15.5099999 4.99999988,16.0799999 L4.99999988,17.7900009 C4.99999988,18.4400009 5.52999973,18.9699993 6.17999971,18.9699993 L7.90999973,18.9699993 C8.48999971,18.9699993 9.21999973,19.2400008 9.65999973,19.6200008 L11.2399997,20.9799995 C11.6499996,21.3299995 12.3699996,21.3299995 12.7799996,20.9799995 L14.3599995,19.6200008 C14.7999995,19.25 15.5300005,18.9699993 16.1100005,18.9699993 L17.8100003,18.9699993 C18.4600003,18.9699993 18.9900006,18.4400009 18.9900006,17.7900009 L18.9900006,16.0900002 C18.9900006,15.5100002 19.2600002,14.7800002 19.6400002,14.3400002 L21.0000008,12.7600002 C21.3500008,12.3500002 21.3500008,11.6300003 21.0000008,11.2200003 L19.6400002,9.64000034 C19.2600002,9.20000035 18.9900006,8.46999985 18.9900006,7.88999987 L18.9900006,6.19999981 C18.9900006,5.54999983 18.4600003,5.01999998 17.8100003,5.01999998 L16.1100005,5.01999998 C15.5300005,5.01999998 14.7999995,4.75 14.3599995,4.36999989 L12.7799996,3.00999999 C12.3699996,2.66 11.6499996,2.66 11.2399997,3.00999999 L9.65999973,4.38000011 C9.21999973,4.75 8.47999972,5.01999998 7.90999973,5.01999998 L6.17999971,5.01999998 Z" id="Vector" fill="CURRENTCOLOR"></path>
                    <polygon id="Vector" opacity="0" points="0 0 24 0 24 24 0 24"></polygon>
                </g>
            </g>
        </g>
    </g>
</svg>