<?xml version="1.0" encoding="UTF-8"?>
<svg width="24px" height="24px" viewBox="0 0 24 24" version="1.1" xmlns="http://www.w3.org/2000/svg" xmlns:xlink="http://www.w3.org/1999/xlink">
    <title>Icon/Verify/Bold</title>
    <defs>
        <path d="M5,0 L59,0 C61.7614237,-8.8817842e-16 64,2.23857625 64,5 L64,203 C64,205.761424 61.7614237,208 59,208 L5,208 C2.23857625,208 0,205.761424 0,203 L0,5 C0,2.23857625 2.23857625,0 5,0 Z" id="path-1"></path>
        <path d="M0,0 L24,0 L24,24 L0,24 L0,0 Z" id="path-2"></path>
    </defs>
    <g id="Icons" stroke="none" stroke-width="1" fill="none" fill-rule="evenodd">
        <g id="Basic-System-feedback" transform="translate(-584, -530)" fill-rule="nonzero">
            <g id="Verify" transform="translate(564, 414)" xlink:href="#path-1">
                <g id="Icon/Verify/Bold" transform="translate(20, 116)" xlink:href="#path-2">
                    <path d="M21.5600004,10.7399994 L20.2000017,9.15999997 C19.9400017,8.85999995 19.7300005,8.30000022 19.7300005,7.90000021 L19.7300005,6.19999993 C19.7300005,5.13999999 18.8599992,4.26999986 17.7999992,4.26999986 L16.1000004,4.26999986 C15.7100004,4.26999986 15.1400002,4.05999994 14.8400002,3.79999995 L13.2600002,2.44000006 C12.5700002,1.85000008 11.4399998,1.85000008 10.7399998,2.44000006 L9.17000008,3.80999994 C8.87000006,4.05999994 8.29999983,4.26999986 7.90999985,4.26999986 L6.17999983,4.26999986 C5.11999989,4.26999986 4.25,5.13999999 4.25,6.19999993 L4.25,7.90999997 C4.25,8.29999995 4.03999996,8.85999995 3.78999996,9.15999997 L2.44000012,10.7499996 C1.86000013,11.4399996 1.86000013,12.5599996 2.44000012,13.2499996 L3.78999996,14.8399998 C4.03999996,15.1399998 4.25,15.6999998 4.25,16.0899998 L4.25,17.7999989 C4.25,18.8599988 5.11999989,19.7300001 6.17999983,19.7300001 L7.90999985,19.7300001 C8.29999983,19.7300001 8.87000006,19.9400014 9.17000008,20.2000014 L10.75,21.5600001 C11.44,22.15 12.5700005,22.15 13.2700005,21.5600001 L14.8500004,20.2000014 C15.1500004,19.9400014 15.7100006,19.7300001 16.1100006,19.7300001 L17.8099995,19.7300001 C18.8699994,19.7300001 19.7400007,18.8599988 19.7400007,17.7999989 L19.7400007,16.1 C19.7400007,15.71 19.95,15.1399998 20.21,14.8399998 L21.5700006,13.2599999 C22.1500006,12.5699999 22.1500004,11.4299994 21.5600004,10.7399994 Z M16.1599998,10.1099993 L11.3299999,14.9399992 C11.1899999,15.0799992 11.0000002,15.1599995 10.8000002,15.1599995 C10.6000002,15.1599995 10.4100005,15.0799992 10.2700005,14.9399992 L7.8499999,12.5200001 C7.55999991,12.2300001 7.55999991,11.7499997 7.8499999,11.4599997 C8.1399999,11.1699997 8.61999986,11.1699997 8.90999985,11.4599997 L10.8000002,13.35 L15.1000004,9.05000031 C15.3900004,8.76000032 15.8699999,8.76000032 16.1599998,9.05000031 C16.4499998,9.3400003 16.4499998,9.81999931 16.1599998,10.1099993 Z" id="Vector" fill="CURRENTCOLOR"></path>
                    <polygon id="Vector" opacity="0" transform="translate(12, 12) rotate(-180) translate(-12, -12)" points="0 0 24 0 24 24 0 24"></polygon>
                </g>
            </g>
        </g>
    </g>
</svg>