<?xml version="1.0" encoding="UTF-8"?>
<svg width="24px" height="24px" viewBox="0 0 24 24" version="1.1" xmlns="http://www.w3.org/2000/svg" xmlns:xlink="http://www.w3.org/1999/xlink">
    <title>Icon/Verify/Linear</title>
    <defs>
        <path d="M5,0 L59,0 C61.7614237,-8.8817842e-16 64,2.23857625 64,5 L64,203 C64,205.761424 61.7614237,208 59,208 L5,208 C2.23857625,208 0,205.761424 0,203 L0,5 C0,2.23857625 2.23857625,0 5,0 Z" id="path-1"></path>
        <path d="M0,0 L24,0 L24,24 L0,24 L0,0 Z" id="path-2"></path>
    </defs>
    <g id="Icons" stroke="none" stroke-width="1" fill="none" fill-rule="evenodd">
        <g id="Basic-System-feedback" transform="translate(-584, -482)" fill-rule="nonzero">
            <g id="Verify" transform="translate(564, 414)" xlink:href="#path-1">
                <g id="Icon/Verify/Linear" transform="translate(20, 68)" xlink:href="#path-2">
                    <polyline id="Vector" stroke="CURRENTCOLOR" stroke-width="1.5" stroke-linecap="round" stroke-linejoin="round" points="8.38000011 12 10.79 14.4200001 15.6199999 9.57999992"></polyline>
                    <path d="M10.75,2.45000017 C11.44,1.86000019 12.5700005,1.86000019 13.2700005,2.45000017 L14.8500004,3.81000006 C15.1500004,4.07000005 15.7100006,4.28000021 16.1100006,4.28000021 L17.8099995,4.28000021 C18.8699994,4.28000021 19.7400007,5.1500001 19.7400007,6.21000004 L19.7400007,7.90999985 C19.7400007,8.29999983 19.95,8.87000006 20.21,9.17000008 L21.5700006,10.7500005 C22.1600006,11.4400005 22.1600006,12.5700009 21.5700006,13.2700009 L20.21,14.8500009 C19.95,15.1500009 19.7400007,15.7100011 19.7400007,16.1100011 L19.7400007,17.8099999 C19.7400007,18.8699999 18.8699994,19.7400002 17.8099995,19.7400002 L16.1100006,19.7400002 C15.7200006,19.7400002 15.1500004,19.9499996 14.8500004,20.2099996 L13.2700005,21.5700002 C12.5800005,22.1600001 11.45,22.1600001 10.75,21.5700002 L9.17000008,20.2099996 C8.87000006,19.9499996 8.30999985,19.7400002 7.90999985,19.7400002 L6.17999983,19.7400002 C5.11999989,19.7400002 4.25,18.8699999 4.25,17.8099999 L4.25,16.1000009 C4.25,15.7100009 4.03999996,15.1500009 3.78999996,14.8500009 L2.44000012,13.2600007 C1.86000013,12.5700007 1.86000013,11.4500007 2.44000012,10.7600007 L3.78999996,9.17000008 C4.03999996,8.87000006 4.25,8.31000006 4.25,7.92000008 L4.25,6.19999981 C4.25,5.13999987 5.11999989,4.26999998 6.17999983,4.26999998 L7.90999985,4.26999998 C8.29999983,4.26999998 8.87000006,4.06000006 9.17000008,3.80000007 L10.75,2.45000017 Z" id="Vector" stroke="CURRENTCOLOR" stroke-width="1.5" stroke-linecap="round" stroke-linejoin="round"></path>
                    <polygon id="Vector" opacity="0" points="0 0 24 0 24 24 0 24"></polygon>
                </g>
            </g>
        </g>
    </g>
</svg>