<?xml version="1.0" encoding="UTF-8"?>
<svg width="24px" height="24px" viewBox="0 0 24 24" version="1.1" xmlns="http://www.w3.org/2000/svg" xmlns:xlink="http://www.w3.org/1999/xlink">
    <title>Icon/Back/Bold</title>
    <defs>
        <path d="M6,0 L58,0 C61.3137085,-8.8817842e-16 64,2.6862915 64,6 L64,202 C64,205.313708 61.3137085,208 58,208 L6,208 C2.6862915,208 0,205.313708 0,202 L0,6 C0,2.6862915 2.6862915,0 6,0 Z" id="path-1"></path>
        <path d="M0,0 L24,0 L24,24 L0,24 L0,0 Z" id="path-2"></path>
    </defs>
    <g id="Icons" stroke="none" stroke-width="1" fill="none" fill-rule="evenodd">
        <g id="Basic-Navigation" transform="translate(-480, -530)" fill="CURRENTCOLOR" fill-rule="nonzero">
            <g id="Back" transform="translate(460, 414)" xlink:href="#path-1">
                <g id="Icon/Back/Bold" transform="translate(20, 116)" xlink:href="#path-2">
                    <path d="M13.9140692,18.1997881 L8.24269772,13.099134 C7.5896737,12.511825 7.5896737,11.4880635 8.24269772,10.9007545 L13.9140692,5.80010011 C14.0427892,5.6843331 14.2478104,5.77568406 14.2478104,5.94880606 L14.2478104,18.0510836 C14.2478104,18.2242046 14.0427892,18.3155551 13.9140692,18.1997881 Z" id="Vector"></path>
                </g>
            </g>
        </g>
    </g>
</svg>