<?xml version="1.0" encoding="UTF-8"?>
<svg width="24px" height="24px" viewBox="0 0 24 24" version="1.1" xmlns="http://www.w3.org/2000/svg" xmlns:xlink="http://www.w3.org/1999/xlink">
    <title>Icon/Back/Linear</title>
    <defs>
        <path d="M6,0 L58,0 C61.3137085,-8.8817842e-16 64,2.6862915 64,6 L64,202 C64,205.313708 61.3137085,208 58,208 L6,208 C2.6862915,208 0,205.313708 0,202 L0,6 C0,2.6862915 2.6862915,0 6,0 Z" id="path-1"></path>
        <path d="M0,0 L24,0 L24,24 L0,24 L0,0 Z" id="path-2"></path>
    </defs>
    <g id="Icons" stroke="none" stroke-width="1" fill="none" fill-rule="evenodd" stroke-linecap="round">
        <g id="Basic-Navigation" transform="translate(-480, -482)" fill-rule="nonzero" stroke="CURRENTCOLOR" stroke-width="1.5">
            <g id="Back" transform="translate(460, 414)" xlink:href="#path-1">
                <g id="Icon/Back/Linear" transform="translate(20, 68)" xlink:href="#path-2">
                    <path d="M14.25,18.5 L8.24461952,13.1000004 C7.58512681,12.5100004 7.58512681,11.5 8.24461952,10.9000001 L14.25,5.5" id="Vector" transform="translate(11, 12) scale(1, -1) translate(-11, -12)"></path>
                </g>
            </g>
        </g>
    </g>
</svg>