<?xml version="1.0" encoding="UTF-8"?>
<svg width="24px" height="24px" viewBox="0 0 24 24" version="1.1" xmlns="http://www.w3.org/2000/svg" xmlns:xlink="http://www.w3.org/1999/xlink">
    <title>Icon/Back/Bulk</title>
    <defs>
        <path d="M6,0 L58,0 C61.3137085,-8.8817842e-16 64,2.6862915 64,6 L64,202 C64,205.313708 61.3137085,208 58,208 L6,208 C2.6862915,208 0,205.313708 0,202 L0,6 C0,2.6862915 2.6862915,0 6,0 Z" id="path-1"></path>
        <path d="M0,0 L24,0 L24,24 L0,24 L0,0 Z" id="path-2"></path>
    </defs>
    <g id="Icons" stroke="none" stroke-width="1" fill="none" fill-rule="evenodd">
        <g id="Basic-Navigation" transform="translate(-480, -578)" fill="CURRENTCOLOR" fill-rule="nonzero">
            <g id="Back" transform="translate(460, 414)" xlink:href="#path-1">
                <g id="Icon/Back/Bulk" transform="translate(20, 164)" xlink:href="#path-2" fill-rule="evenodd">
                    <g id="Group-736" transform="translate(7.7529, 5.7485)">
                        <path d="M0.489761263,5.1523447 C-0.163253754,5.73962468 -0.163253754,6.76342899 0.489761263,7.35070896 L6.16108704,12.451355 C6.28981003,12.567139 6.49482727,12.4757693 6.49482727,12.3026733 L6.49482727,4.24420166 L1.49952686,4.24420166 L0.489761263,5.1523447 Z" id="Vector" fill-rule="nonzero"></path>
                        <path d="M6.1605835,0.0516943708 L1.49902344,4.24419928 L6.49432373,4.24419928 L6.49432373,0.200376481 C6.49432373,0.0272804797 6.28930649,-0.0640886277 6.1605835,0.0516943708 Z" id="Vector" fill-rule="nonzero" opacity="0.400000006"></path>
                    </g>
                </g>
            </g>
        </g>
    </g>
</svg>