<?xml version="1.0" encoding="UTF-8"?>
<svg width="24px" height="24px" viewBox="0 0 24 24" version="1.1" xmlns="http://www.w3.org/2000/svg" xmlns:xlink="http://www.w3.org/1999/xlink">
    <title>Icon/Back/Outline</title>
    <defs>
        <path d="M6,0 L58,0 C61.3137085,-8.8817842e-16 64,2.6862915 64,6 L64,202 C64,205.313708 61.3137085,208 58,208 L6,208 C2.6862915,208 0,205.313708 0,202 L0,6 C0,2.6862915 2.6862915,0 6,0 Z" id="path-1"></path>
        <path d="M0,0 L24,0 L24,24 L0,24 L0,0 Z" id="path-2"></path>
    </defs>
    <g id="Icons" stroke="none" stroke-width="1" fill="none" fill-rule="evenodd">
        <g id="Basic-Navigation" transform="translate(-480, -434)" fill="CURRENTCOLOR" fill-rule="nonzero">
            <g id="Back" transform="translate(460, 414)" xlink:href="#path-1">
                <g id="Icon/Back/Outline" transform="translate(20, 20)" xlink:href="#path-2">
                    <path d="M13.7485199,4.94240092 C14.0564249,4.66553454 14.5310948,4.69034488 14.8080902,4.99806498 C15.0849565,5.30597006 15.0601464,5.78063989 14.7524261,6.05763531 L8.74656665,11.4580259 C8.43565238,11.74403 8.42302784,12.191842 8.6879729,12.4843931 L8.74559009,12.5410337 L8.74656665,12.5420103 L14.7524261,17.9424009 C15.0601462,18.2193969 15.0849565,18.6940659 14.8080902,19.0019712 C14.5310948,19.3096908 14.0564249,19.3345013 13.7485199,19.0576353 L7.74559003,13.6582212 C6.75015593,12.7676104 6.75701624,11.2407253 7.74070722,10.3457212 L7.74363691,10.3427916 L13.7485199,4.94240092 Z" id="Vector-(Stroke)" transform="translate(11.0007, 12) scale(1, -1) translate(-11.0007, -12)"></path>
                </g>
            </g>
        </g>
    </g>
</svg>