<?xml version="1.0" encoding="UTF-8"?>
<svg width="24px" height="24px" viewBox="0 0 24 24" version="1.1" xmlns="http://www.w3.org/2000/svg" xmlns:xlink="http://www.w3.org/1999/xlink">
    <title>Icon/arrow-left/Bulk</title>
    <defs>
        <path d="M5,0 L59,0 C61.7614237,-8.8817842e-16 64,2.23857625 64,5 L64,203 C64,205.761424 61.7614237,208 59,208 L5,208 C2.23857625,208 0,205.761424 0,203 L0,5 C0,2.23857625 2.23857625,0 5,0 Z" id="path-1"></path>
        <path d="M0,0 L24,0 L24,24 L0,24 L0,0 Z" id="path-2"></path>
    </defs>
    <g id="Icons" stroke="none" stroke-width="1" fill="none" fill-rule="evenodd">
        <g id="Basic-Navigation" transform="translate(-273, -330)" fill="CURRENTCOLOR" fill-rule="nonzero">
            <g id="arrow-Left" transform="translate(253, 166)" xlink:href="#path-1">
                <g id="Icon/arrow-left/Bulk" transform="translate(20, 164)" xlink:href="#path-2">
                    <path d="M7.80501795,2.00498199 L16.1750183,2.00498199 C19.8250184,2.00498199 21.995018,4.17498183 21.995018,7.81498194 L21.995018,16.1849823 C21.995018,19.8249824 19.8250186,21.9950161 16.1850185,21.9950161 L7.80501795,21.9950161 C4.16501784,22.004982 1.99501801,19.8349826 1.99501801,16.1949825 L1.99501801,7.81498194 C1.99501801,4.17498183 4.16501784,2.00498199 7.80501795,2.00498199 Z" id="Vector" opacity="0.400000006"></path>
                    <path d="M5.4650178,11.4749765 L9.75501823,7.18497589 C10.0450182,6.8949759 10.5250177,6.8949759 10.8150177,7.18497589 C11.1050177,7.47497588 11.1050177,7.95497581 10.8150177,8.24497581 L7.80501795,11.2549763 L17.995018,11.2549763 C18.405018,11.2549763 18.745018,11.5949763 18.745018,12.0049763 C18.745018,12.4149763 18.405018,12.7549763 17.995018,12.7549763 L7.80501795,12.7549763 L10.8150177,15.7649765 C11.1050177,16.0549765 11.1050177,16.534976 10.8150177,16.824976 C10.6650177,16.974976 10.475018,17.0449772 10.285018,17.0449772 C10.095018,17.0449772 9.90501824,16.974976 9.75501823,16.824976 L5.4650178,12.534976 C5.32501779,12.394976 5.24501801,12.2049763 5.24501801,12.0049763 C5.24501801,11.8049763 5.32501779,11.6149765 5.4650178,11.4749765 Z" id="Vector"></path>
                </g>
            </g>
        </g>
    </g>
</svg>