<?xml version="1.0" encoding="UTF-8"?>
<svg width="24px" height="24px" viewBox="0 0 24 24" version="1.1" xmlns="http://www.w3.org/2000/svg" xmlns:xlink="http://www.w3.org/1999/xlink">
    <title>Icon/arrow-left/Outline</title>
    <defs>
        <path d="M5,0 L59,0 C61.7614237,-8.8817842e-16 64,2.23857625 64,5 L64,203 C64,205.761424 61.7614237,208 59,208 L5,208 C2.23857625,208 0,205.761424 0,203 L0,5 C0,2.23857625 2.23857625,0 5,0 Z" id="path-1"></path>
        <path d="M0,0 L24,0 L24,24 L0,24 L0,0 Z" id="path-2"></path>
    </defs>
    <g id="Icons" stroke="none" stroke-width="1" fill="none" fill-rule="evenodd">
        <g id="Basic-Navigation" transform="translate(-273, -186)" fill="CURRENTCOLOR" fill-rule="nonzero">
            <g id="arrow-Left" transform="translate(253, 166)" xlink:href="#path-1">
                <g id="Icon/arrow-left/Outline" transform="translate(20, 20)" xlink:href="#path-2" fill-rule="evenodd">
                    <g id="Group-741" transform="translate(2.752, 5.1825)">
                        <path d="M6.81749964,13.6374998 C6.62749964,13.6374998 6.43749991,13.5675005 6.2874999,13.4175005 L0.217500001,7.34749985 C-0.0724999905,7.05749986 -0.0724999905,6.57750037 0.217500001,6.28750038 L6.2874999,0.217500001 C6.5774999,-0.0724999905 7.05750033,-0.0724999905 7.34750032,0.217500001 C7.63750032,0.507499993 7.63750032,0.987499923 7.34750032,1.27749991 L1.80749989,6.81750011 L7.34750032,12.357501 C7.63750032,12.647501 7.63750032,13.1275005 7.34750032,13.4175005 C7.20750032,13.5675005 7.00749964,13.6374998 6.81749964,13.6374998 Z" id="Vector" fill-rule="nonzero"></path>
                        <path d="M17.7479687,7.56750488 L0.91796875,7.56750488 C0.507968754,7.56750488 0.16796875,7.22750488 0.16796875,6.81750488 C0.16796875,6.40750489 0.507968754,6.06750488 0.91796875,6.06750488 L17.7479687,6.06750488 C18.1579687,6.06750488 18.4979687,6.40750489 18.4979687,6.81750488 C18.4979687,7.22750488 18.1579687,7.56750488 17.7479687,7.56750488 Z" id="Vector" fill-rule="nonzero"></path>
                    </g>
                </g>
            </g>
        </g>
    </g>
</svg>