<?xml version="1.0" encoding="UTF-8"?>
<svg width="24px" height="24px" viewBox="0 0 24 24" version="1.1" xmlns="http://www.w3.org/2000/svg" xmlns:xlink="http://www.w3.org/1999/xlink">
    <title>Icon/arrow-left/Bold</title>
    <defs>
        <path d="M5,0 L59,0 C61.7614237,-8.8817842e-16 64,2.23857625 64,5 L64,203 C64,205.761424 61.7614237,208 59,208 L5,208 C2.23857625,208 0,205.761424 0,203 L0,5 C0,2.23857625 2.23857625,0 5,0 Z" id="path-1"></path>
        <path d="M0,0 L24,0 L24,24 L0,24 L0,0 Z" id="path-2"></path>
    </defs>
    <g id="Icons" stroke="none" stroke-width="1" fill="none" fill-rule="evenodd">
        <g id="Basic-Navigation" transform="translate(-273, -282)" fill="CURRENTCOLOR" fill-rule="nonzero">
            <g id="arrow-Left" transform="translate(253, 166)" xlink:href="#path-1">
                <g id="Icon/arrow-left/Bold" transform="translate(20, 116)" xlink:href="#path-2">
                    <path d="M16.1900005,2 L7.80999994,2 C4.16999984,2 2,4.16999984 2,7.80999994 L2,16.1800003 C2,19.8300004 4.16999984,22 7.80999994,22 L16.1800003,22 C19.8200004,22 21.9900341,19.8300006 21.9900341,16.1900005 L21.9900341,7.80999994 C22,4.16999984 19.8300006,2 16.1900005,2 Z M18,12.75 L7.80999994,12.75 L10.8199997,15.7600002 C11.1099997,16.0500002 11.1099997,16.5299997 10.8199997,16.8199997 C10.6699997,16.9699997 10.48,17.0400009 10.29,17.0400009 C10.1,17.0400009 9.91000023,16.9699997 9.76000023,16.8199997 L5.46999979,12.5299997 C5.32999979,12.3899997 5.25,12.2 5.25,12 C5.25,11.8 5.32999979,11.6100003 5.46999979,11.4700003 L9.76000023,7.17999983 C10.0500002,6.88999984 10.5299997,6.88999984 10.8199997,7.17999983 C11.1099997,7.46999982 11.1099997,7.94999978 10.8199997,8.23999977 L7.80999994,11.25 L18,11.25 C18.41,11.25 18.75,11.59 18.75,12 C18.75,12.41 18.41,12.75 18,12.75 Z" id="Vector"></path>
                </g>
            </g>
        </g>
    </g>
</svg>