<?xml version="1.0" encoding="UTF-8"?>
<svg width="24px" height="24px" viewBox="0 0 24 24" version="1.1" xmlns="http://www.w3.org/2000/svg" xmlns:xlink="http://www.w3.org/1999/xlink">
    <title>Icon/arrow-left/Linear</title>
    <defs>
        <path d="M5,0 L59,0 C61.7614237,-8.8817842e-16 64,2.23857625 64,5 L64,203 C64,205.761424 61.7614237,208 59,208 L5,208 C2.23857625,208 0,205.761424 0,203 L0,5 C0,2.23857625 2.23857625,0 5,0 Z" id="path-1"></path>
        <path d="M0,0 L24,0 L24,24 L0,24 L0,0 Z" id="path-2"></path>
    </defs>
    <g id="Icons" stroke="none" stroke-width="1" fill="none" fill-rule="evenodd" stroke-linecap="round" stroke-linejoin="round">
        <g id="Basic-Navigation" transform="translate(-273, -234)" fill-rule="nonzero" stroke="CURRENTCOLOR" stroke-width="1.5">
            <g id="arrow-Left" transform="translate(253, 166)" xlink:href="#path-1">
                <g id="Icon/arrow-left/Linear" transform="translate(20, 68)" xlink:href="#path-2">
                    <polyline id="Vector" points="9.57097626 5.93127441 3.50097656 12.0012746 9.57097626 18.0712738"></polyline>
                    <line x1="20.5008984" y1="12.0012207" x2="3.67089844" y2="12.0012207" id="Vector"></line>
                </g>
            </g>
        </g>
    </g>
</svg>