<?xml version="1.0" encoding="UTF-8"?>
<svg width="24px" height="24px" viewBox="0 0 24 24" version="1.1" xmlns="http://www.w3.org/2000/svg" xmlns:xlink="http://www.w3.org/1999/xlink">
    <title>Icon/Folder-edit/Outline</title>
    <defs>
        <path d="M5,0 L59,0 C61.7614237,-8.8817842e-16 64,2.23857625 64,5 L64,203 C64,205.761424 61.7614237,208 59,208 L5,208 C2.23857625,208 0,205.761424 0,203 L0,5 C0,2.23857625 2.23857625,0 5,0 Z" id="path-1"></path>
        <path d="M0,0 L24,0 L24,24 L0,24 L0,0 Z" id="path-2"></path>
    </defs>
    <g id="Icons" stroke="none" stroke-width="1" fill="none" fill-rule="evenodd">
        <g id="Content-Managment" transform="translate(-64, -432)" fill-rule="nonzero">
            <g id="Folder-edit" transform="translate(44, 412)" xlink:href="#path-1">
                <g id="Icon/Folder-edit/Outline" transform="translate(20, 20)" xlink:href="#path-2">
                    <path d="M13.573112,9.82867828 C14.2360529,9.76070596 14.8461987,10.057946 15.3895183,10.6011392 C15.9360594,11.1476803 16.2374796,11.7596442 16.1717443,12.4243815 C16.1098713,13.0495137 15.7371416,13.5347658 15.3895183,13.8823891 L11.8494792,17.4224281 L11.8485026,17.4214516 C11.7033991,17.5709198 11.5282069,17.6816792 11.3826823,17.7544594 C11.2268645,17.8323756 11.0371718,17.903052 10.8465495,17.9331703 L10.8338542,17.9351234 L10.8338542,17.9341469 L9.4842447,18.1236 L9.48522127,18.1245766 C9.04352063,18.1876145 8.58773389,18.0717804 8.2586588,17.7427406 C7.92960119,17.413683 7.81380919,16.9578747 7.87682287,16.5161781 L8.06627598,15.1675453 L8.06822911,15.15485 C8.09881584,14.9611858 8.17133744,14.773002 8.24889317,14.6196938 C8.32644356,14.4664108 8.43674999,14.2941986 8.57897133,14.1519203 L12.1190104,10.6118814 C12.4666768,10.2642151 12.9509949,9.89258461 13.573112,9.82867828 Z M13.7264323,11.3208658 C13.6185384,11.331949 13.441891,11.4100946 13.1795573,11.6724283 L9.63951814,15.2124672 C9.6372956,15.2151539 9.63262478,15.2211917 9.62584627,15.2310219 C9.61406088,15.2481581 9.60067437,15.2709708 9.58776033,15.2964516 C9.57478542,15.3220972 9.56440356,15.346946 9.55748689,15.3667641 C9.55341515,15.378456 9.55147487,15.3859683 9.55065095,15.389225 L9.54967439,15.3882484 L9.37584627,16.6245766 L10.6131511,16.4497719 C10.6170253,16.4488187 10.6260648,16.4475635 10.6395183,16.4429359 C10.6608742,16.4355897 10.6863066,16.4254024 10.7117839,16.4126625 C10.7373903,16.3998488 10.7577677,16.3869444 10.7713542,16.3775063 C10.7782861,16.3726814 10.7811411,16.3696821 10.7811198,16.3696938 L14.3289714,12.8218424 C14.5912923,12.5595215 14.6689044,12.3842949 14.6795573,12.2769206 C14.6862572,12.2092289 14.6822294,12.0159774 14.3289714,11.6626626 C13.9831406,11.3168319 13.7935778,11.3140531 13.7264323,11.3208658 Z" id="Vector-(Stroke)" fill="CURRENTCOLOR"></path>
                    <path d="M1.25,17 L1.25,7 C1.25,5.00536013 1.4812209,3.45823222 2.46972656,2.46972656 C3.45823222,1.4812209 5.00536013,1.25 7,1.25 L8.5,1.25 C9.3147198,1.25 9.92798871,1.36768225 10.4345703,1.671875 C10.9234788,1.96557838 11.2329,2.39386669 11.5,2.75 L12.9970703,4.74609375 C13.207035,5.0223631 13.2729617,5.09563138 13.3554688,5.14550781 C13.4183281,5.18349971 13.5676878,5.25 14,5.25 L17,5.25 C18.9946399,5.25 20.5417678,5.4812209 21.5302734,6.46972656 C22.5187791,7.45823222 22.75,9.00536013 22.75,11 L22.75,17 C22.75,18.9946399 22.5187791,20.5417678 21.5302734,21.5302734 C20.5417678,22.5187791 18.9946399,22.75 17,22.75 L7,22.75 C5.00536013,22.75 3.45823222,22.5187791 2.46972656,21.5302734 C1.4812209,20.5417678 1.25,18.9946399 1.25,17 Z M2.75,17 C2.75,19.0053601 3.0187791,19.9582322 3.53027344,20.4697266 C4.04176778,20.9812209 4.99463987,21.25 7,21.25 L17,21.25 C19.0053601,21.25 19.9582322,20.9812209 20.4697266,20.4697266 C20.9812209,19.9582322 21.25,19.0053601 21.25,17 L21.25,11 C21.25,8.99463987 20.9812209,8.04176778 20.4697266,7.53027344 C19.9582322,7.0187791 19.0053601,6.75 17,6.75 L14,6.75 C13.4323122,6.75 12.9712424,6.6666957 12.5791016,6.4296875 C12.2068688,6.20464791 11.9726956,5.87794326 11.8027344,5.65429687 L10.2998047,3.65039062 C9.99690467,3.24652395 9.85570069,3.07430447 9.66210938,2.95800781 C9.48622729,2.85242985 9.18472517,2.75 8.5,2.75 L7,2.75 C4.99463987,2.75 4.04176778,3.0187791 3.53027344,3.53027344 C3.0187791,4.04176778 2.75,4.99463987 2.75,7 L2.75,17 Z" id="Vector-(Stroke)" fill="CURRENTCOLOR"></path>
                    <polygon id="Vector" opacity="0" points="0 0 24 0 24 24 0 24"></polygon>
                </g>
            </g>
        </g>
    </g>
</svg>