<?xml version="1.0" encoding="UTF-8"?>
<svg width="24px" height="24px" viewBox="0 0 24 24" version="1.1" xmlns="http://www.w3.org/2000/svg" xmlns:xlink="http://www.w3.org/1999/xlink">
    <title>Icon/Folder-edit/Bulk</title>
    <defs>
        <path d="M5,0 L59,0 C61.7614237,-8.8817842e-16 64,2.23857625 64,5 L64,203 C64,205.761424 61.7614237,208 59,208 L5,208 C2.23857625,208 0,205.761424 0,203 L0,5 C0,2.23857625 2.23857625,0 5,0 Z" id="path-1"></path>
        <path d="M0,0 L24,0 L24,24 L0,24 L0,0 Z" id="path-2"></path>
    </defs>
    <g id="Icons" stroke="none" stroke-width="1" fill="none" fill-rule="evenodd">
        <g id="Content-Managment" transform="translate(-64, -576)" fill-rule="nonzero">
            <g id="Folder-edit" transform="translate(44, 412)" xlink:href="#path-1">
                <g id="Icon/Folder-edit/Bulk" transform="translate(20, 164)" xlink:href="#path-2">
                    <path d="M21.6700001,9.25 L3,9.25 C2.44771525,9.25 2,8.80228475 2,8.25 L2,6.42000008 L2,6.42000008 C2,3.98000002 3.98000002,2 6.42000008,2 L8.73999977,2 C10.3699998,2 10.8799998,2.53000009 11.5299997,3.4000001 L12.9300003,5.26000023 C13.2400003,5.67000023 13.2799997,5.71999979 13.8599997,5.71999979 L16.6499996,5.71999979 C18.9599996,5.71999979 20.9300001,7.19000006 21.6700001,9.25 Z" id="Vector" fill="CURRENTCOLOR" opacity="0.400000006"></path>
                    <path d="M20.9833665,10.7496747 L3,10.7499993 C2.44772193,10.7500087 2.0000171,11.1977212 2.0000171,11.7499993 L2,16.6499991 L2,16.6499991 C2,19.5999992 4.39999986,22 7.3499999,22 L16.6499996,22 C19.5999997,22 22,19.5999992 22,16.6499991 L21.9833778,11.746285 C21.9815102,11.19532 21.5343346,10.7496653 20.9833665,10.7496747 Z" id="Vector" fill="CURRENTCOLOR"></path>
                    <path d="M13.9628911,11.9467775 C14.625832,11.8788052 15.2359778,12.1760452 15.7792974,12.7192384 C16.3258384,13.2657795 16.6272587,13.8777434 16.5615234,14.5424807 C16.4996503,15.1676129 16.1269207,15.652865 15.7792974,16.0004883 L12.2392583,19.5405273 L12.2382817,19.5395508 C12.0931782,19.6890191 11.917986,19.7997785 11.7724614,19.8725586 C11.6166436,19.9504748 11.4269509,20.0211512 11.2363286,20.0512695 L11.2236333,20.0532227 L11.2236333,20.0522461 L9.8740238,20.2416992 L9.87500036,20.2426758 C9.43329972,20.3057137 8.97751299,20.1898796 8.64843789,19.8608398 C8.31938028,19.5317822 8.20358828,19.075974 8.26660196,18.6342773 L8.45605507,17.2856445 L8.4580082,17.2729492 C8.48859493,17.079285 8.56111653,16.8911012 8.63867226,16.737793 C8.71622265,16.5845101 8.82652909,16.4122978 8.96875042,16.2700195 L12.5087895,12.7299806 C12.8564559,12.3823143 13.340774,12.0106838 13.9628911,11.9467775 Z M14.1162114,13.438965 C14.0083175,13.4500483 13.8316701,13.5281938 13.5693364,13.7905275 L10.0292972,17.3305664 C10.0270747,17.3332531 10.0224039,17.3392909 10.0156254,17.3491211 C10.00384,17.3662573 9.99045346,17.38907 9.97753942,17.4145508 C9.96456451,17.4401965 9.95418265,17.4650452 9.94726598,17.4848633 C9.94319424,17.4965552 9.94125396,17.5040675 9.94043005,17.5073242 L9.93945348,17.5063477 L9.76562536,18.7426758 L11.0029302,18.5678711 C11.0068044,18.5669179 11.0158438,18.5656627 11.0292974,18.5610352 C11.0506533,18.5536889 11.0760857,18.5435016 11.101563,18.5307617 C11.1271694,18.517948 11.1475468,18.5050437 11.1611333,18.4956055 C11.1680651,18.4907806 11.1709202,18.4877813 11.1708989,18.487793 L14.7187505,14.9399416 C14.9810714,14.6776207 15.0586835,14.5023941 15.0693364,14.3950198 C15.0760363,14.3273281 15.0720085,14.1340766 14.7187505,13.7807618 C14.3729197,13.4349311 14.1833569,13.4321523 14.1162114,13.438965 Z" id="Vector-(Stroke)" fill="#FFFFFF"></path>
                    <polygon id="Vector" opacity="0" transform="translate(12, 12) rotate(-180) translate(-12, -12)" points="0 0 24 0 24 24 0 24"></polygon>
                </g>
            </g>
        </g>
    </g>
</svg>