<?xml version="1.0" encoding="UTF-8"?>
<svg width="24px" height="24px" viewBox="0 0 24 24" version="1.1" xmlns="http://www.w3.org/2000/svg" xmlns:xlink="http://www.w3.org/1999/xlink">
    <title>Folder-edit-Bold</title>
    <defs>
        <path d="M0,0 L24,0 L24,24 L0,24 L0,0 Z" id="path-1"></path>
    </defs>
    <g id="Folder-edit-Bold" stroke="none" fill="none" fill-rule="nonzero" xlink:href="#path-1">
        <path d="M21.6700001,9.25 L3,9.25 C2.44771525,9.25 2,8.80228475 2,8.25 L2,6.42000008 L2,6.42000008 C2,3.98000002 3.98000002,2 6.42000008,2 L8.73999977,2 C10.3699998,2 10.8799998,2.53000009 11.5299997,3.4000001 L12.9300003,5.26000023 C13.2400003,5.67000023 13.2799997,5.71999979 13.8599997,5.71999979 L16.6499996,5.71999979 C18.9599996,5.71999979 20.9300001,7.19000006 21.6700001,9.25 Z" id="Vector" fill="CURRENTCOLOR"></path>
        <path d="M20.9833665,10.7496747 C21.5343346,10.7496653 21.9815102,11.19532 21.9833778,11.746285 L22,16.6499991 C22,19.5999992 19.5999997,22 16.6499996,22 L7.3499999,22 C4.39999986,22 2,19.5999992 2,16.6499991 L2.0000171,11.7499993 C2.0000171,11.1977212 2.44772193,10.7500087 3,10.7499993 Z M14.1275183,11.937324 L13.9628911,11.9467775 C13.340774,12.0106838 12.8564559,12.3823143 12.5087895,12.7299806 L8.96875042,16.2700195 C8.82652909,16.4122978 8.71622265,16.5845101 8.63867226,16.737793 C8.56111653,16.8911012 8.48859493,17.079285 8.4580082,17.2729492 L8.45605507,17.2856445 L8.26660196,18.6342773 C8.20358828,19.075974 8.31938028,19.5317822 8.64843789,19.8608398 C8.97751299,20.1898796 9.43329972,20.3057137 9.87500036,20.2426758 L11.2236333,20.0522461 L11.2363286,20.0512695 C11.4269509,20.0211512 11.6166436,19.9504748 11.7724614,19.8725586 C11.917986,19.7997785 12.0931782,19.6890191 12.2382817,19.5395508 L15.7792974,16.0004883 C16.1269207,15.652865 16.4996503,15.1676129 16.5615234,14.5424807 C16.6272587,13.8777434 16.3258384,13.2657795 15.7792974,12.7192384 C15.2359778,12.1760452 14.625832,11.8788052 13.9628911,11.9467775 Z M14.1162114,13.438965 C14.1833569,13.4321523 14.3729197,13.4349311 14.7187505,13.7807618 C15.0720085,14.1340766 15.0760363,14.3273281 15.0693364,14.3950198 C15.0586835,14.5023941 14.9810714,14.6776207 14.7187505,14.9399416 L11.1686235,18.4898856 C11.1475468,18.5050437 11.1271694,18.517948 11.101563,18.5307617 C11.0760857,18.5435016 11.0506533,18.5536889 11.0292974,18.5610352 C11.0158438,18.5656627 11.0068044,18.5669179 11.0029302,18.5678711 L9.76562536,18.7426758 L9.93945348,17.5063477 C9.94125396,17.5040675 9.94319424,17.4965552 9.94726598,17.4848633 C9.95418265,17.4650452 9.96456451,17.4401965 9.97753942,17.4145508 C9.99045346,17.38907 10.00384,17.3662573 10.0156254,17.3491211 C10.0224039,17.3392909 10.0270747,17.3332531 10.0292972,17.3305664 L13.5693364,13.7905275 C13.8316701,13.5281938 14.0083175,13.4500483 14.1162114,13.438965 Z" id="Combined-Shape" fill="CURRENTCOLOR"></path>
    </g>
</svg>