<?xml version="1.0" encoding="UTF-8"?>
<svg width="24px" height="24px" viewBox="0 0 24 24" version="1.1" xmlns="http://www.w3.org/2000/svg" xmlns:xlink="http://www.w3.org/1999/xlink">
    <title>Icon/Folder-edit/Linear</title>
    <defs>
        <path d="M5,0 L59,0 C61.7614237,-8.8817842e-16 64,2.23857625 64,5 L64,203 C64,205.761424 61.7614237,208 59,208 L5,208 C2.23857625,208 0,205.761424 0,203 L0,5 C0,2.23857625 2.23857625,0 5,0 Z" id="path-1"></path>
        <path d="M0,0 L24,0 L24,24 L0,24 L0,0 Z" id="path-2"></path>
    </defs>
    <g id="Icons" stroke="none" stroke-width="1" fill="none" fill-rule="evenodd">
        <g id="Content-Managment" transform="translate(-64, -480)" fill-rule="nonzero">
            <g id="Folder-edit" transform="translate(44, 412)" xlink:href="#path-1">
                <g id="Icon/Folder-edit/Linear" transform="translate(20, 68)" xlink:href="#path-2">
                    <path d="M12.6485057,11.1418576 L9.10852763,14.6818662 C8.96852763,14.8218662 8.83850933,15.0818625 8.80850933,15.2718625 L8.61850689,16.6218686 C8.54850689,17.1118686 8.88851666,17.4518784 9.37851667,17.3818784 L10.7285228,17.1918759 C10.9185228,17.1618759 11.1885191,17.0318576 11.3185191,16.8918576 L14.8585277,13.3518796 C15.4685277,12.7418796 15.7585276,12.0318784 14.8585277,11.1318784 C13.9685277,10.2418784 13.2585057,10.5318576 12.6485057,11.1418576 Z" id="Vector" stroke="CURRENTCOLOR" stroke-width="1.5" stroke-linecap="round" stroke-linejoin="round"></path>
                    <path d="M22,11 L22,17 C22,21 21,22 17,22 L7,22 C3,22 2,21 2,17 L2,7 C2,3 3,2 7,2 L8.5,2 C10,2 10.3299996,2.44000006 10.8999996,3.20000005 L12.3999996,5.19999981 C12.7799996,5.69999981 13,6 14,6 L17,6 C21,6 22,7 22,11 Z" id="Vector" stroke="CURRENTCOLOR" stroke-width="1.5"></path>
                    <polygon id="Vector" opacity="0" points="0 0 24 0 24 24 0 24"></polygon>
                </g>
            </g>
        </g>
    </g>
</svg>