<?xml version="1.0" encoding="UTF-8"?>
<svg width="24px" height="24px" viewBox="0 0 24 24" version="1.1" xmlns="http://www.w3.org/2000/svg" xmlns:xlink="http://www.w3.org/1999/xlink">
    <title>Icon/Trash/Bold</title>
    <defs>
        <path d="M5,0 L59,0 C61.7614237,-8.8817842e-16 64,2.23857625 64,5 L64,203 C64,205.761424 61.7614237,208 59,208 L5,208 C2.23857625,208 0,205.761424 0,203 L0,5 C0,2.23857625 2.23857625,0 5,0 Z" id="path-1"></path>
        <path d="M0,0 L24,0 L24,24 L0,24 L0,0 Z" id="path-2"></path>
    </defs>
    <g id="Icons" stroke="none" stroke-width="1" fill="none" fill-rule="evenodd">
        <g id="Basic-Actions" transform="translate(-480, -282)" fill-rule="nonzero">
            <g id="Trash" transform="translate(460, 166)" xlink:href="#path-1">
                <g id="Icon/Trash/Bold" transform="translate(20, 116)" xlink:href="#path-2">
                    <path d="M20.823576,4.98000002 C19.213576,4.82000002 17.6035749,4.70000014 15.9835749,4.61000013 L15.9835749,4.5999999 L15.7635756,3.29999995 C15.6135755,2.37999994 15.3935754,1 13.0535755,1 L10.4335756,1 C8.10357571,1 7.88357511,2.31999993 7.72357512,3.28999996 L7.51357555,4.57000017 C6.58357555,4.63000017 5.65357536,4.69000021 4.72357535,4.78000021 L2.68357557,4.98000002 C2.26357558,5.02000002 1.96357552,5.39000019 2.00357552,5.80000019 C2.04357552,6.21000019 2.40357545,6.50999979 2.82357544,6.46999979 L4.8635757,6.26999998 C10.1035755,5.75 15.3835764,5.95000005 20.6835766,6.48000002 C20.7135766,6.48000002 20.7335765,6.48000002 20.7635765,6.48000002 C21.1435765,6.48000002 21.4735765,6.19000018 21.5135765,5.80000019 C21.5435765,5.39000019 21.243576,5.02000002 20.823576,4.98000002 Z" id="Vector" fill="CURRENTCOLOR"></path>
                    <path d="M18.9837184,7.89000034 C18.7437184,7.64000034 18.4137186,7.5 18.0737185,7.5 L5.43371916,7.5 C5.09371915,7.5 4.75371926,7.64000034 4.52371925,7.89000034 C4.29371925,8.14000034 4.16371911,8.47999993 4.18371911,8.82999992 L4.80371946,19.0900002 C4.91371946,20.6100001 5.05371928,22.5100002 8.54371929,22.5100002 L14.9637189,22.5100002 C18.4537189,22.5100002 18.5937196,20.6200001 18.7037196,19.0900002 L19.3237185,8.84000015 C19.3437185,8.48000014 19.2137184,8.14000034 18.9837184,7.89000034 Z" id="Vector" fill="CURRENTCOLOR"></path>
                    <path d="M9.00372545,16.4099988 L9.00372559,13.0799994 C9.00372561,12.6699994 9.34372563,12.3299994 9.75372563,12.3299994 C10.1637256,12.3299994 10.5037256,12.6699994 10.5037256,13.0799994 L10.5037254,16.4099989 C10.5037254,16.8199989 10.1637254,17.1599989 9.75372541,17.1599989 C9.34372542,17.1599988 9.00372543,16.8199988 9.00372545,16.4099988 Z M13.0037254,17.2499992 L13.0037256,12.2499996 C13.0037256,11.8399996 13.3437257,11.4999996 13.7537257,11.4999997 C14.1637257,11.4999997 14.5037256,11.8399997 14.5037256,12.2499997 L14.5037254,17.2499992 C14.5037254,17.6599992 14.1637254,17.9999997 13.7537254,17.9999997 C13.3437254,17.9999996 13.0037254,17.6599991 13.0037254,17.2499992 Z" id="Vector" transform="translate(11.7537, 14.75) scale(-1, -1) rotate(-90) translate(-11.7537, -14.75)"></path>
                </g>
            </g>
        </g>
    </g>
</svg>