<?xml version="1.0" encoding="UTF-8"?>
<svg width="24px" height="24px" viewBox="0 0 24 24" version="1.1" xmlns="http://www.w3.org/2000/svg" xmlns:xlink="http://www.w3.org/1999/xlink">
    <title>Icon/Trash/Outline</title>
    <defs>
        <path d="M5,0 L59,0 C61.7614237,-8.8817842e-16 64,2.23857625 64,5 L64,203 C64,205.761424 61.7614237,208 59,208 L5,208 C2.23857625,208 0,205.761424 0,203 L0,5 C0,2.23857625 2.23857625,0 5,0 Z" id="path-1"></path>
        <path d="M0,0 L24,0 L24,24 L0,24 L0,0 Z" id="path-2"></path>
    </defs>
    <g id="Icons" stroke="none" stroke-width="1" fill="none" fill-rule="evenodd">
        <g id="Basic-Actions" transform="translate(-480, -186)" fill-rule="nonzero">
            <g id="Trash" transform="translate(460, 166)" xlink:href="#path-1">
                <g id="Icon/Trash/Outline" transform="translate(20, 20)" xlink:href="#path-2">
                    <path d="M21.0000005,6.72999978 C20.9800005,6.72999978 20.9500006,6.72999978 20.9200006,6.72999978 C15.6300006,6.19999981 10.3499999,6.00000012 5.11999989,6.53000009 L3.07999992,6.72999978 C2.65999994,6.76999978 2.28999997,6.47000006 2.24999997,6.05000007 C2.20999997,5.63000008 2.51000008,5.26999984 2.92000008,5.22999984 L4.96000004,5.03000006 C10.2800002,4.49000004 15.6700001,4.69999987 21.0700002,5.22999984 C21.4800002,5.26999984 21.7800002,5.64000008 21.7400002,6.05000007 C21.7100002,6.44000006 21.3800005,6.72999978 21.0000005,6.72999978 Z" id="Vector" fill="CURRENTCOLOR"></path>
                    <path d="M8.49999994,5.71999979 C8.45999994,5.71999979 8.41999983,5.72000004 8.36999983,5.71000004 C7.96999982,5.64000004 7.6900002,5.25 7.7600002,4.8499999 L7.97999999,3.53999996 C8.13999999,2.57999998 8.35999966,1.25 10.6899996,1.25 L13.3100004,1.25 C15.6500003,1.25 15.8700005,2.62999994 16.0200005,3.54999995 L16.2399998,4.8499999 C16.3099998,5.2599999 16.0300001,5.65000004 15.6300001,5.71000004 C15.2200001,5.78000004 14.8300005,5.49999991 14.7700005,5.0999999 L14.5500002,3.79999995 C14.4100002,2.92999995 14.3799996,2.75999999 13.3199997,2.75999999 L10.6999998,2.75999999 C9.63999987,2.75999999 9.62000027,2.89999998 9.47000027,3.78999996 L9.23999977,5.09000015 C9.17999977,5.46000016 8.85999995,5.71999979 8.49999994,5.71999979 Z" id="Vector" fill="CURRENTCOLOR"></path>
                    <path d="M15.2100005,22.75 L8.78999996,22.75 C5.29999995,22.75 5.16000043,20.8200002 5.05000043,19.2600002 L4.40000033,9.18999964 C4.37000033,8.77999964 4.69000015,8.42000041 5.10000014,8.39000041 C5.52000013,8.37000041 5.87000033,8.68000022 5.90000033,9.09000021 L6.55000043,19.1599998 C6.66000043,20.6799998 6.70000005,21.25 8.78999996,21.25 L15.2100005,21.25 C17.3100004,21.25 17.3500012,20.6799998 17.4500012,19.1599998 L18.1000009,9.09000021 C18.1300009,8.68000022 18.4900001,8.37000041 18.9000001,8.39000041 C19.3100001,8.42000041 19.6300009,8.76999965 19.6000009,9.18999964 L18.9500012,19.2600002 C18.8400012,20.8200002 18.7000005,22.75 15.2100005,22.75 Z" id="Vector" fill="CURRENTCOLOR"></path>
                    <path d="M11.6649999,15.244956 L8.33499993,15.244956 C7.92499994,15.244956 7.58499993,14.904956 7.58499993,14.494956 C7.58499993,14.084956 7.92499994,13.744956 8.33499993,13.744956 L11.6649999,13.744956 C12.0749999,13.744956 12.4149999,14.084956 12.4149999,14.494956 C12.4149999,14.904956 12.0749999,15.244956 11.6649999,15.244956 Z" id="Vector" fill="CURRENTCOLOR" transform="translate(10, 14.495) scale(-1, -1) rotate(-90) translate(-10, -14.495)"></path>
                    <path d="M16.4999999,15.25 L11.4999999,15.25 C11.0899999,15.25 10.7499999,14.91 10.7499999,14.5 C10.7499999,14.09 11.0899999,13.75 11.4999999,13.75 L16.4999999,13.75 C16.9099999,13.75 17.2499999,14.09 17.2499999,14.5 C17.2499999,14.91 16.9099999,15.25 16.4999999,15.25 Z" id="Vector" fill="CURRENTCOLOR" transform="translate(14, 14.5) scale(-1, -1) rotate(-90) translate(-14, -14.5)"></path>
                    <polygon id="Vector" opacity="0" points="0 0 24 0 24 24 0 24"></polygon>
                </g>
            </g>
        </g>
    </g>
</svg>