<?xml version="1.0" encoding="UTF-8"?>
<svg width="24px" height="24px" viewBox="0 0 24 24" version="1.1" xmlns="http://www.w3.org/2000/svg" xmlns:xlink="http://www.w3.org/1999/xlink">
    <title>Icon/Trash/Linear</title>
    <defs>
        <path d="M5,0 L59,0 C61.7614237,-8.8817842e-16 64,2.23857625 64,5 L64,203 C64,205.761424 61.7614237,208 59,208 L5,208 C2.23857625,208 0,205.761424 0,203 L0,5 C0,2.23857625 2.23857625,0 5,0 Z" id="path-1"></path>
        <path d="M0,0 L24,0 L24,24 L0,24 L0,0 Z" id="path-2"></path>
    </defs>
    <g id="Icons" stroke="none" stroke-width="1" fill="none" fill-rule="evenodd" stroke-linecap="round" stroke-linejoin="round">
        <g id="Basic-Actions" transform="translate(-480, -234)" fill-rule="nonzero" stroke="CURRENTCOLOR" stroke-width="1.5">
            <g id="Trash" transform="translate(460, 166)" xlink:href="#path-1">
                <g id="Icon/Trash/Linear" transform="translate(20, 68)" xlink:href="#path-2">
                    <path d="M21,5.98000002 C17.6700001,5.65000001 14.3199995,5.48000002 10.9799995,5.48000002 C9,5.48000002 7.01999998,5.58000021 5.03999996,5.78000021 L3,5.98000002" id="Vector"></path>
                    <path d="M8.5,4.96999979 L8.72000027,3.66000009 C8.88000026,2.7100001 9,2 10.6899996,2 L13.3100004,2 C15,2 15.1299997,2.75000006 15.2799997,3.67000008 L15.5,4.96999979" id="Vector"></path>
                    <path d="M18.8500009,9.14000034 L18.2000012,19.2099991 C18.0900012,20.7799991 17.9999995,22 15.2099996,22 L8.78999996,22 C6,22 5.91000019,20.7799991 5.80000019,19.2099991 L5.1500001,9.14000034" id="Vector"></path>
                    <line x1="8.33499997" y1="14.494956" x2="11.6649999" y2="14.494956" id="Vector" transform="translate(10, 14.545) scale(-1, -1) rotate(-90) translate(-10, -14.545)"></line>
                    <line x1="11.4999999" y1="14.5" x2="16.4999999" y2="14.5" id="Vector" transform="translate(14, 14.55) scale(-1, -1) rotate(-90) translate(-14, -14.55)"></line>
                </g>
            </g>
        </g>
    </g>
</svg>