<?xml version="1.0" encoding="UTF-8"?>
<svg width="24px" height="24px" viewBox="0 0 24 24" version="1.1" xmlns="http://www.w3.org/2000/svg" xmlns:xlink="http://www.w3.org/1999/xlink">
    <title>Icon/Trash/Bulk</title>
    <defs>
        <path d="M5,0 L59,0 C61.7614237,-8.8817842e-16 64,2.23857625 64,5 L64,203 C64,205.761424 61.7614237,208 59,208 L5,208 C2.23857625,208 0,205.761424 0,203 L0,5 C0,2.23857625 2.23857625,0 5,0 Z" id="path-1"></path>
        <path d="M0,0 L24,0 L24,24 L0,24 L0,0 Z" id="path-2"></path>
    </defs>
    <g id="Icons" stroke="none" stroke-width="1" fill="none" fill-rule="evenodd">
        <g id="Basic-Actions" transform="translate(-480, -330)" fill="CURRENTCOLOR" fill-rule="nonzero">
            <g id="Trash" transform="translate(460, 166)" xlink:href="#path-1">
                <g id="Icon/Trash/Bulk" transform="translate(20, 164)" xlink:href="#path-2">
                    <path d="M20.823576,4.98000002 C19.213576,4.82000002 17.6035749,4.70000014 15.9835749,4.61000013 L15.9835749,4.5999999 L15.7635756,3.29999995 C15.6135755,2.37999994 15.3935754,1 13.0535755,1 L10.4335756,1 C8.10357571,1 7.88357511,2.31999993 7.72357512,3.28999996 L7.51357555,4.57000017 C6.58357555,4.63000017 5.65357536,4.69000021 4.72357535,4.78000021 L2.68357557,4.98000002 C2.26357558,5.02000002 1.96357552,5.39000019 2.00357552,5.80000019 C2.04357552,6.21000019 2.40357545,6.50999979 2.82357544,6.46999979 L4.8635757,6.26999998 C10.1035755,5.75 15.3835764,5.95000005 20.6835766,6.48000002 C20.7135766,6.48000002 20.7335765,6.48000002 20.7635765,6.48000002 C21.1435765,6.48000002 21.4735765,6.19000018 21.5135765,5.80000019 C21.5435765,5.39000019 21.243576,5.02000002 20.823576,4.98000002 Z" id="Vector"></path>
                    <path d="M18.983655,7.89000034 C18.743655,7.64000034 18.4136551,7.5 18.0736551,7.5 L5.43365574,7.5 C5.09365574,7.5 4.75365584,7.64000034 4.52365583,7.89000034 C4.29365583,8.14000034 4.16365569,8.47999993 4.18365569,8.82999992 L4.80365604,19.0900002 C4.91365604,20.6100001 5.05365586,22.5100002 8.54365587,22.5100002 L14.9636555,22.5100002 C18.4536555,22.5100002 18.5936562,20.6200001 18.7036562,19.0900002 L19.3236551,8.84000015 C19.3436551,8.48000014 19.213655,8.14000034 18.983655,7.89000034 Z" id="Vector" opacity="0.399100006"></path>
                    <path d="M7.33890618,14.7450781 C7.33890618,14.3308645 7.67469261,13.9950781 8.08890618,13.9950781 L11.4189061,13.9950781 C11.8331198,13.9950781 12.1689061,14.3308645 12.1689061,14.7450781 C12.1689061,15.1592916 11.8331198,15.4950781 11.4189061,15.4950781 L8.08890618,15.4950781 C7.67469261,15.4950781 7.33890618,15.1592916 7.33890618,14.7450781 Z" id="Vector-(Stroke)" transform="translate(9.7539, 14.7451) scale(-1, -1) rotate(-90) translate(-9.7539, -14.7451)"></path>
                    <path d="M10.5039061,14.75 C10.5039061,14.3357864 10.8396925,14 11.2539061,14 L16.2539061,14 C16.6681198,14 17.0039061,14.3357864 17.0039061,14.75 C17.0039061,15.1642135 16.6681198,15.5 16.2539061,15.5 L11.2539061,15.5 C10.8396925,15.5 10.5039061,15.1642135 10.5039061,14.75 Z" id="Vector-(Stroke)" transform="translate(13.7539, 14.75) scale(-1, -1) rotate(-90) translate(-13.7539, -14.75)"></path>
                </g>
            </g>
        </g>
    </g>
</svg>