<?xml version="1.0" encoding="UTF-8"?>
<svg width="24px" height="24px" viewBox="0 0 24 24" version="1.1" xmlns="http://www.w3.org/2000/svg" xmlns:xlink="http://www.w3.org/1999/xlink">
    <title>Icon/Edit/Linear</title>
    <defs>
        <path d="M5,0 L59,0 C61.7614237,-8.8817842e-16 64,2.23857625 64,5 L64,203 C64,205.761424 61.7614237,208 59,208 L5,208 C2.23857625,208 0,205.761424 0,203 L0,5 C0,2.23857625 2.23857625,0 5,0 Z" id="path-1"></path>
        <path d="M0,0 L24,0 L24,24 L0,24 L0,0 Z" id="path-2"></path>
    </defs>
    <g id="Icons" stroke="none" stroke-width="1" fill="none" fill-rule="evenodd" stroke-linecap="round">
        <g id="Basic-Actions" transform="translate(-272, -234)" fill-rule="nonzero" stroke="CURRENTCOLOR">
            <g id="Edit" transform="translate(252, 166)" xlink:href="#path-1">
                <g id="Icon/Edit/Linear" transform="translate(20, 68)" xlink:href="#path-2" fill-rule="evenodd">
                    <g id="Vector" transform="translate(5, 3)">
                        <path d="M9.41903973,0.67708385 C10.3218182,-0.225694656 11.7855121,-0.225694537 12.6882906,0.677083969 L14.3229141,2.31170917 C15.2256926,3.21448767 15.2256926,4.67818129 14.3229141,5.5809598 L6.06003952,13.8438358 C5.70635524,14.1975201 5.24749684,14.4269495 4.75233889,14.4976864 L1.31962621,14.9880733 C0.556801081,15.0970484 -0.0970491767,14.4431974 0.0119258389,13.6803722 L0.502313256,10.2476606 C0.573050104,9.75250268 0.80247882,9.2936438 1.1561631,8.93995953 L9.41903973,0.67708385 Z" stroke-width="1.5" fill-rule="nonzero"></path>
                        <path d="M15,18 L4.75233889,18 M7.78441048,2.31171274 C7.78441064,3.40146287 8.32928578,4.491213 9.41903591,5.58096313 C10.508786,6.67071327 11.5985363,7.21558841 12.6882868,7.21558857" stroke-width="1.5" fill-rule="nonzero"></path>
                    </g>
                </g>
            </g>
        </g>
    </g>
</svg>