<?xml version="1.0" encoding="UTF-8"?>
<svg width="24px" height="24px" viewBox="0 0 24 24" version="1.1" xmlns="http://www.w3.org/2000/svg" xmlns:xlink="http://www.w3.org/1999/xlink">
    <title>Icon/Edit/Bulk</title>
    <defs>
        <path d="M5,0 L59,0 C61.7614237,-8.8817842e-16 64,2.23857625 64,5 L64,203 C64,205.761424 61.7614237,208 59,208 L5,208 C2.23857625,208 0,205.761424 0,203 L0,5 C0,2.23857625 2.23857625,0 5,0 Z" id="path-1"></path>
        <path d="M0,0 L24,0 L24,24 L0,24 L0,0 Z" id="path-2"></path>
    </defs>
    <g id="Icons" stroke="none" stroke-width="1" fill="none" fill-rule="evenodd">
        <g id="Basic-Actions" transform="translate(-272, -330)" fill="CURRENTCOLOR" fill-rule="nonzero">
            <g id="Edit" transform="translate(252, 166)" xlink:href="#path-1">
                <g id="Icon/Edit/Bulk" transform="translate(20, 164)" xlink:href="#path-2">
                    <path d="M8.75,21 C8.75,20.5857864 9.08578643,20.25 9.5,20.25 L19,20.25 C19.4142132,20.25 19.75,20.5857864 19.75,21 C19.75,21.4142136 19.4142132,21.75 19,21.75 L9.5,21.75 C9.08578643,21.75 8.75,21.4142136 8.75,21 Z" id="Vector-399-(Stroke)" opacity="0.400000006"></path>
                    <path d="M8.75233889,17.4977407 L5.31962633,17.9881277 C4.5568012,18.0971027 3.90295082,17.4432517 4.01192584,16.6804266 L4.50231338,13.247715 C4.57305022,12.752557 4.80247918,12.2936982 5.15616345,11.9400139 L11.7844105,5.31176758 C11.7844106,6.40151771 12.3292858,7.49126784 13.4190359,8.58101797 C14.508786,9.6707681 15.5985363,10.2156431 16.6882868,10.2156429 L10.060039,16.8438902 C9.70635477,17.1975745 9.24749684,17.4270039 8.75233889,17.4977407 Z" id="Vector"></path>
                    <path d="M16.6880598,3.67708397 L18.3226843,5.31170917 C19.2254628,6.21448767 19.2254628,7.67818129 18.3226843,8.5809598 L16.688056,10.2155886 C15.5983055,10.2155886 14.5085553,9.67071342 13.4188051,8.58096313 C12.3290548,7.491213 11.7841797,6.40146287 11.7841797,5.31171274 L13.4188089,3.67708385 C14.3215874,2.77430534 15.7852813,2.77430546 16.6880598,3.67708397 Z" id="Vector" opacity="0.400000006"></path>
                </g>
            </g>
        </g>
    </g>
</svg>