<?xml version="1.0" encoding="UTF-8"?>
<svg width="24px" height="24px" viewBox="0 0 24 24" version="1.1" xmlns="http://www.w3.org/2000/svg" xmlns:xlink="http://www.w3.org/1999/xlink">
    <title>Icon/Edit/Outline</title>
    <defs>
        <path d="M5,0 L59,0 C61.7614237,-8.8817842e-16 64,2.23857625 64,5 L64,203 C64,205.761424 61.7614237,208 59,208 L5,208 C2.23857625,208 0,205.761424 0,203 L0,5 C0,2.23857625 2.23857625,0 5,0 Z" id="path-1"></path>
        <path d="M0,0 L24,0 L24,24 L0,24 L0,0 Z" id="path-2"></path>
    </defs>
    <g id="Icons" stroke="none" stroke-width="1" fill="none" fill-rule="evenodd">
        <g id="Basic-Actions" transform="translate(-272, -186)" fill="CURRENTCOLOR" fill-rule="nonzero">
            <g id="Edit" transform="translate(252, 166)" xlink:href="#path-1">
                <g id="Icon/Edit/Outline" transform="translate(20, 20)" xlink:href="#path-2">
                    <path d="M19.7501221,20.0001764 C20.1643356,20.0001764 20.500123,20.3359629 20.500123,20.7501764 C20.500123,21.16439 20.1643356,21.5001764 19.7501221,21.5001764 L9.5020752,21.5001764 C9.08803892,21.499968 8.7520752,21.1642614 8.7520752,20.7501764 C8.7520752,20.3360915 9.08803892,20.0003848 9.5020752,20.0001764 L19.7501221,20.0001764 Z M13.6387939,2.89665985 C14.8344517,1.70112729 16.7732333,1.70109689 17.9688721,2.89665985 L19.6036377,4.53142548 C20.7991993,5.72706413 20.7991692,7.66584623 19.6036377,8.8615036 L11.3409424,17.1241989 C10.8725106,17.5926307 10.2643254,17.8967234 9.60852051,17.9904099 L6.17590332,18.4806452 C4.91810286,18.660331 3.83996773,17.5821935 4.01965334,16.3243942 L4.5098877,12.891777 C4.60357397,12.2359731 4.90766624,11.6277876 5.37609863,11.1593552 L13.6387939,2.89665985 Z M6.43664551,12.2208786 C6.19787875,12.4597282 6.04305616,12.7693659 5.99523926,13.1036911 L5.50402832,16.5363083 C5.46576389,16.8041593 5.69613948,17.0345335 5.96398926,16.9962692 L9.39660645,16.5050583 C9.73093051,16.4572414 10.0405688,16.3024193 10.2794189,16.063652 L15.9522705,10.3908005 C15.2785597,10.1339497 14.4534276,9.67613709 13.6387939,8.8615036 C12.8236858,8.04639542 12.3652858,7.2209776 12.1085205,6.54705048 L6.43664551,12.2208786 Z M16.9083252,3.95720673 C16.2984728,3.34743005 15.309212,3.34746063 14.6993408,3.95720673 L13.3214111,5.33513641 C13.3451513,5.46788035 13.3824735,5.64226882 13.4503174,5.8458786 C13.6222192,6.36158395 13.9736503,7.07526624 14.6993408,7.80095673 C15.4250311,8.52664685 16.1387135,8.87807836 16.6544189,9.04998016 C16.8574582,9.11763383 17.0315828,9.15414439 17.1641846,9.17790985 L18.5430908,7.80095673 C19.1528358,7.19108576 19.1528661,6.20182455 18.5430908,5.59197235 L16.9083252,3.95720673 Z" id="Vector-(Stroke)"></path>
                </g>
            </g>
        </g>
    </g>
</svg>