<?xml version="1.0" encoding="UTF-8"?>
<svg width="24px" height="24px" viewBox="0 0 24 24" version="1.1" xmlns="http://www.w3.org/2000/svg" xmlns:xlink="http://www.w3.org/1999/xlink">
    <title>Icon/Edit/Bold</title>
    <defs>
        <path d="M5,0 L59,0 C61.7614237,-8.8817842e-16 64,2.23857625 64,5 L64,203 C64,205.761424 61.7614237,208 59,208 L5,208 C2.23857625,208 0,205.761424 0,203 L0,5 C0,2.23857625 2.23857625,0 5,0 Z" id="path-1"></path>
        <path d="M0,0 L24,0 L24,24 L0,24 L0,0 Z" id="path-2"></path>
    </defs>
    <g id="Icons" stroke="none" stroke-width="1" fill="none" fill-rule="evenodd">
        <g id="Basic-Actions" transform="translate(-272, -282)" fill="CURRENTCOLOR" fill-rule="nonzero">
            <g id="Edit" transform="translate(252, 166)" xlink:href="#path-1">
                <g id="Icon/Edit/Bold" transform="translate(20, 116)" xlink:href="#path-2">
                    <path d="M9.75,20.25 C9.75,19.8357864 10.0857864,19.5 10.5,19.5 L19.25,19.5 C19.6642132,19.5 20,19.8357864 20,20.25 C20,20.6642135 19.6642132,21 19.25,21 L10.5,21 C10.0857864,21 9.75,20.6642135 9.75,20.25 Z" id="Vector-399-(Stroke)" fill-rule="nonzero"></path>
                    <path d="M17.6882906,3.67708397 C16.785512,2.77430546 15.3218184,2.77430534 14.4190397,3.67708385 L12.9697356,5.1263876 C13.026082,5.24017525 13.0870132,5.35989285 13.1523657,5.48402882 C13.5921822,6.31944895 14.2094717,7.31082106 14.9493446,8.05069399 C15.6892176,8.79056692 16.6805897,9.40785599 17.5160103,9.84767246 C17.6401272,9.91301537 17.7598257,9.97393703 17.8735981,10.0302763 L19.3229151,8.5809598 C20.2256937,7.67818117 20.2256937,6.21448755 19.3229151,5.31170917 L17.6882906,3.67708397 Z M16.7594604,11.1444139 C15.8776503,10.6759429 14.7642012,9.98687172 13.8886843,9.11135435 C13.0131493,8.23581982 12.3240681,7.12234354 11.855597,6.2405262 L6.15616345,11.9399595 C5.80247921,12.293644 5.5730502,12.7525024 5.50231338,13.2476606 L5.01192584,16.6803722 C4.90295083,17.4431973 5.55680126,18.0970488 6.31962633,17.9880733 L9.75233889,17.4976864 C10.2474966,17.4269495 10.7063546,17.1975203 11.060039,16.8438358 L16.7594604,11.1444139 Z" id="Subtract" fill-rule="evenodd"></path>
                </g>
            </g>
        </g>
    </g>
</svg>