<?xml version="1.0" encoding="UTF-8"?>
<svg width="24px" height="24px" viewBox="0 0 24 24" version="1.1" xmlns="http://www.w3.org/2000/svg" xmlns:xlink="http://www.w3.org/1999/xlink">
    <title>Icon/Folder-Minus/Bulk</title>
    <defs>
        <path d="M5,0 L59,0 C61.7614237,-8.8817842e-16 64,2.23857625 64,5 L64,203 C64,205.761424 61.7614237,208 59,208 L5,208 C2.23857625,208 0,205.761424 0,203 L0,5 C0,2.23857625 2.23857625,0 5,0 Z" id="path-1"></path>
        <path d="M0,0 L24,0 L24,24 L0,24 L0,0 Z" id="path-2"></path>
    </defs>
    <g id="Icons" stroke="none" stroke-width="1" fill="none" fill-rule="evenodd">
        <g id="Content-Managment" transform="translate(-376, -328)" fill-rule="nonzero">
            <g id="Folder-minus" transform="translate(356, 164)" xlink:href="#path-1">
                <g id="Icon/Folder-Minus/Bulk" transform="translate(20, 164)" xlink:href="#path-2">
                    <path d="M15.7200003,2 L8.27999973,2 C7.89999974,2 7.57999992,2.32000005 7.57999992,2.70000005 C7.57999992,3.08000004 7.89999974,3.4000001 8.27999973,3.4000001 L11.54,3.4000001 L12.9399996,5.26000023 C13.2499996,5.67000023 13.2899999,5.73000002 13.8699999,5.73000002 L17.5900002,5.73000002 C17.9700001,5.73000002 18.3400007,5.78000011 18.7000008,5.88000011 C18.7400008,6.06000012 18.7600002,6.23999983 18.7600002,6.42999983 L18.7600002,6.78000021 C18.7600002,7.16000021 19.0799999,7.48000002 19.4599991,7.48000002 C19.8399991,7.48000002 20.1599998,7.16000021 20.1599998,6.78000021 L20.1599998,6.42000008 C20.1399998,3.98000002 18.1600003,2 15.7200003,2 Z" id="Vector" fill="CURRENTCOLOR" opacity="0.400000006"></path>
                    <path d="M20.1399994,6.53999996 C19.7099994,6.22999996 19.2200005,6 18.6900005,5.86999989 C18.3400005,5.76999988 17.9599999,5.71999979 17.5799999,5.71999979 L13.8599997,5.71999979 C13.2799997,5.71999979 13.2400003,5.66 12.9300003,5.25 L11.5299997,3.3900001 C10.8799998,2.53000009 10.3699998,2 8.73999977,2 L6.42000008,2 C3.98000002,2 2,3.98000002 2,6.42000008 L2,17.5799999 C2,20.02 3.98000002,22 6.42000008,22 L17.5799999,22 C20.02,22 22,20.02 22,17.5799999 L22,10.1400003 C22,8.65000033 21.2699994,7.33999997 20.1399994,6.53999996 Z M14.3299999,16 L9.67000008,16 C9.28000009,16 8.97000027,15.6900002 8.97000027,15.3000002 C8.97000027,14.9200002 9.28000009,14.6000004 9.67000008,14.6000004 L14.3199997,14.6000004 C14.6999997,14.6000004 15.0200005,14.9200002 15.0200005,15.3000002 C15.0200005,15.6900002 14.7099999,16 14.3299999,16 Z" id="Vector" fill="CURRENTCOLOR"></path>
                    <polygon id="Vector" opacity="0" points="0 0 24 0 24 24 0 24"></polygon>
                </g>
            </g>
        </g>
    </g>
</svg>