<?xml version="1.0" encoding="UTF-8"?>
<svg width="24px" height="24px" viewBox="0 0 24 24" version="1.1" xmlns="http://www.w3.org/2000/svg" xmlns:xlink="http://www.w3.org/1999/xlink">
    <title>Icon/Group-Users/Linear</title>
    <defs>
        <path d="M5,0 L59,0 C61.7614237,-8.8817842e-16 64,2.23857625 64,5 L64,203 C64,205.761424 61.7614237,208 59,208 L5,208 C2.23857625,208 0,205.761424 0,203 L0,5 C0,2.23857625 2.23857625,0 5,0 Z" id="path-1"></path>
        <path d="M0,0 L24,0 L24,24 L0,24 L0,0 Z" id="path-2"></path>
    </defs>
    <g id="Icons" stroke="none" stroke-width="1" fill="none" fill-rule="evenodd" stroke-linecap="round" stroke-linejoin="round">
        <g id="Basic-Users" transform="translate(-376, -482)" fill-rule="nonzero" stroke="CURRENTCOLOR" stroke-width="1.5">
            <g id="Group-Users" transform="translate(356, 414)" xlink:href="#path-1">
                <g id="Icon/Group-Users/Linear" transform="translate(20, 68)" xlink:href="#path-2">
                    <path d="M18,7.16000366 C17.94,7.15000366 17.8700014,7.15000366 17.8100014,7.16000366 C16.4300014,7.11000366 15.3300018,5.98000181 15.3300018,4.58000183 C15.3300018,3.15000188 16.4799999,2 17.9099998,2 C19.3399998,2 20.4899979,3.16000187 20.4899979,4.58000183 C20.4799979,5.98000181 19.38,7.11000366 18,7.16000366 Z" id="Vector"></path>
                    <path d="M16.9704323,14.4399176 C18.3404323,14.6699176 19.8504348,14.4299163 20.9104347,13.7199163 C22.3204347,12.7799163 22.3204347,11.2399184 20.9104347,10.2999184 C19.8404347,9.58991838 18.3104297,9.34991167 16.9404297,9.58991166" id="Vector"></path>
                    <path d="M5.97047043,7.16000366 C6.03047043,7.15000366 6.10046906,7.15000366 6.16046906,7.16000366 C7.54046905,7.11000366 8.6404686,5.98000181 8.6404686,4.58000183 C8.6404686,3.15000188 7.49047053,2 6.06047058,2 C4.63047063,2 3.48046875,3.16000187 3.48046875,4.58000183 C3.49046875,5.98000181 4.59047043,7.11000366 5.97047043,7.16000366 Z" id="Vector"></path>
                    <path d="M7.0004282,14.4399176 C5.63042819,14.6699176 4.12042964,14.4299163 3.06042969,13.7199163 C1.65042973,12.7799163 1.65042973,11.2399184 3.06042969,10.2999184 C4.13042974,9.58991838 5.66042697,9.34991167 7.03042698,9.58991166" id="Vector"></path>
                    <path d="M12,14.6300049 C11.94,14.6200049 11.8700014,14.6200049 11.8100014,14.6300049 C10.4300014,14.5800049 9.33000183,13.450003 9.33000183,12.0500031 C9.33000183,10.6200031 10.4799999,9.47000122 11.9099998,9.47000122 C13.3399998,9.47000122 14.4900017,10.6300031 14.4900017,12.0500031 C14.4800017,13.450003 13.38,14.5900049 12,14.6300049 Z" id="Vector"></path>
                    <path d="M9.08972657,17.7801074 C7.6797266,18.7201074 7.6797266,20.2601057 9.08972657,21.2001057 C10.6897266,22.2701057 13.3097261,22.2701057 14.9097261,21.2001057 C16.3197261,20.2601057 16.3197261,18.7201074 14.9097261,17.7801074 C13.3197261,16.7201074 10.6897266,16.7201074 9.08972657,17.7801074 Z" id="Vector"></path>
                </g>
            </g>
        </g>
    </g>
</svg>