<?xml version="1.0" encoding="UTF-8"?>
<svg width="24px" height="24px" viewBox="0 0 24 24" version="1.1" xmlns="http://www.w3.org/2000/svg" xmlns:xlink="http://www.w3.org/1999/xlink">
    <title>Icon/Group-Users/Outline</title>
    <defs>
        <path d="M5,0 L59,0 C61.7614237,-8.8817842e-16 64,2.23857625 64,5 L64,203 C64,205.761424 61.7614237,208 59,208 L5,208 C2.23857625,208 0,205.761424 0,203 L0,5 C0,2.23857625 2.23857625,0 5,0 Z" id="path-1"></path>
        <path d="M0,0 L24,0 L24,24 L0,24 L0,0 Z" id="path-2"></path>
    </defs>
    <g id="Icons" stroke="none" stroke-width="1" fill="none" fill-rule="evenodd">
        <g id="Basic-Users" transform="translate(-376, -434)" fill="CURRENTCOLOR" fill-rule="nonzero">
            <g id="Group-Users" transform="translate(356, 414)" xlink:href="#path-1">
                <g id="Icon/Group-Users/Outline" transform="translate(20, 20)" xlink:href="#path-2">
                    <path d="M17.91008,1.25 C19.7561496,1.25 21.2401581,2.747787 21.2401581,4.58007812 L21.2401581,4.58496094 C21.2273089,6.38384461 19.8111445,7.84448155 18.0272675,7.90917969 C17.9864465,7.91065871 17.9456842,7.90751428 17.9051971,7.90234375 C17.8646723,7.90754055 17.8239884,7.91064548 17.7831268,7.90917969 C16.0001553,7.84457927 14.5800018,6.38407278 14.5800018,4.58007812 C14.5800018,2.73586607 16.065865,1.25 17.91008,1.25 Z M16.0800018,4.58007812 C16.0800411,5.56254679 16.8393629,6.35106059 17.7977753,6.40625 C17.8682719,6.40071352 17.94015,6.40079409 18.0106659,6.40625 C18.9672602,6.35193414 19.7303461,5.56560886 19.7401581,4.58007812 L19.7303925,4.39355469 C19.6370888,3.47286433 18.8606179,2.75004061 17.91008,2.75 C16.894295,2.75 16.0800018,3.56429029 16.0800018,4.58007812 Z" id="Vector-(Stroke)"></path>
                    <path d="M16.8101162,8.85140985 C18.2353132,8.60174032 19.8481811,8.80939895 21.0825772,9.52523798 L21.3247647,9.67465204 L21.3257413,9.6756286 C22.187004,10.2498038 22.7171921,11.0821018 22.7173429,12.009613 C22.7173429,12.9368762 22.1874341,13.7683898 21.3267179,14.3426208 C20.0758202,15.1803811 18.3630987,15.4340957 16.846249,15.1795349 C16.4379051,15.1109808 16.1617416,14.7245812 16.230038,14.3162537 C16.2986178,13.9077568 16.685799,13.631463 17.0942959,13.7000427 C18.3172419,13.9053392 19.623773,13.6785667 20.4927335,13.0965271 L20.49371,13.0955505 C21.0423189,12.7298087 21.2173429,12.3219402 21.2173429,12.009613 C21.2171951,11.6973357 21.042093,11.2892641 20.49371,10.9236755 L20.49371,10.922699 C19.6140453,10.3400641 18.2884543,10.1155815 17.0698818,10.328949 C16.6619581,10.4004101 16.2732979,10.1274468 16.2017177,9.71957392 C16.1302712,9.31173345 16.4023816,8.92310479 16.8101162,8.85140985 Z" id="Vector-(Stroke)"></path>
                    <path d="M7.890625,4.58007812 C7.890625,3.56431568 7.07629633,2.75004077 6.06054688,2.75 C5.04665244,2.75 4.23046875,3.57239723 4.23046875,4.58007812 C4.2402787,5.56532556 5.00277251,6.35153073 5.95898438,6.40625 C6.0294902,6.40075173 6.10136819,6.40075587 6.171875,6.40625 C7.13067365,6.35146391 7.89058569,5.56282645 7.890625,4.58007812 Z M9.390625,4.58007812 C9.390625,6.38407278 7.9704715,7.84457927 6.1875,7.90917969 C6.1466383,7.91065401 6.10595572,7.90753217 6.06542969,7.90234375 C6.02490304,7.90752787 5.98422116,7.91065839 5.94335937,7.90917969 C4.15942574,7.84454441 2.74331823,6.38388753 2.73046875,4.58496094 L2.73046875,4.58007812 C2.73046875,2.7477591 4.21444142,1.25 6.06054688,1.25 C7.90472651,1.25 9.390625,2.73589146 9.390625,4.58007812 Z" id="Vector-(Stroke)"></path>
                    <path d="M2.64550781,9.67457199 C3.90575004,8.83834815 5.63985014,8.58499883 7.16015625,8.85132982 C7.56797338,8.9229563 7.84098645,9.31160372 7.76953125,9.71949387 C7.69803756,10.1273181 7.3091993,10.400103 6.90136719,10.3288689 C5.68189931,10.1152395 4.35534424,10.3410391 3.47558594,10.924572 C2.92789608,11.2900099 2.75307736,11.6974228 2.75292969,12.0095329 C2.75292969,12.2828264 2.88705757,12.6294302 3.28808594,12.9567986 L3.4765625,13.0954704 L3.47753906,13.096447 C4.3464635,13.6784624 5.65307486,13.9052144 6.87597656,13.6999626 C7.28447342,13.6313828 7.6716546,13.9076767 7.74023437,14.3161736 C7.80852396,14.7243751 7.5331288,15.1107112 7.125,15.1794548 C5.60796428,15.4341396 3.89360201,15.1814673 2.64257813,14.3435173 L2.64257813,14.3425407 C1.78232628,13.7683278 1.25292969,12.9365133 1.25292969,12.0095329 C1.25308047,11.0820217 1.78326851,10.2497237 2.64453125,9.67554855 L2.64550781,9.67457199 Z" id="Vector-(Stroke)"></path>
                    <path d="M11.91008,8.72000122 C13.7561482,8.72000122 15.2401581,10.2177868 15.2401581,12.0500793 L15.2401581,12.0549622 C15.2273431,13.8490541 13.8144114,15.3281864 12.0214081,15.3801575 C11.9844076,15.3812134 11.9477777,15.375774 11.9110565,15.3713684 C11.8686035,15.3771552 11.8259719,15.3807179 11.7831268,15.3791809 C10.0001553,15.3145805 8.58000183,13.854074 8.58000183,12.0500793 C8.58000183,10.2058673 10.065865,8.72000122 11.91008,8.72000122 Z M11.9051971,15.372345 C11.9062523,15.3723433 11.9075245,15.3714235 11.9091034,15.3713684 C11.8984365,15.3700606 11.8874863,15.3711819 11.8768768,15.3694153 C11.8917082,15.3718809 11.9008263,15.372345 11.9051971,15.372345 Z M10.0800018,12.0500793 C10.0800411,13.032548 10.8393629,13.8210618 11.7977753,13.8762512 C11.8699153,13.8705857 11.9434527,13.8713825 12.0155487,13.8772278 C12.9636576,13.8300222 13.7303118,13.0404642 13.7401581,12.0500793 L13.7303925,11.8635559 C13.6370882,10.9428669 12.8606191,10.2200418 11.91008,10.2200012 C10.894295,10.2200012 10.0800018,11.0342915 10.0800018,12.0500793 Z" id="Vector-(Stroke)"></path>
                    <path d="M12.0039062,16.2351074 C13.1722777,16.2351788 14.3813273,16.5261095 15.3261719,17.1560059 C16.1873668,17.7302328 16.7167969,18.5624605 16.7167969,19.4899902 C16.7167969,20.359689 16.2514076,21.1456333 15.4833984,21.713623 L15.3261719,21.8239746 C14.3772786,22.4583558 13.1689281,22.7526855 12,22.7526855 C10.8308649,22.7526855 9.62186366,22.4585423 8.67285156,21.8239746 L8.67285156,21.822998 C7.81212503,21.2487666 7.28222656,20.4172597 7.28222656,19.4899902 C7.28222656,18.5623665 7.81247884,17.7302387 8.67382813,17.1560059 L8.67578125,17.1550293 C9.62474281,16.5263844 10.8352389,16.2351074 12.0039062,16.2351074 Z M12.0039062,17.7351074 C11.0609407,17.7351074 10.1557785,17.9724826 9.50488281,18.4030762 L9.50585938,18.4040527 C8.95731276,18.7697505 8.78226997,19.1776766 8.78222656,19.4899902 C8.78222656,19.7633149 8.91624805,20.1098546 9.31738281,20.4372559 L9.50585938,20.5759277 L9.50683594,20.5769043 C10.1577704,21.0121287 11.0593453,21.2526855 12,21.2526855 C12.9406701,21.2526389 13.8422745,21.0121867 14.4931641,20.5769043 L14.4941406,20.5759277 C15.0424647,20.2102478 15.2167969,19.8022489 15.2167969,19.4899902 C15.2167534,19.1777263 15.0424811,18.7697057 14.4941406,18.4040527 C13.8491989,17.9740916 12.9477448,17.73518 12.0039062,17.7351074 Z" id="Vector-(Stroke)"></path>
                </g>
            </g>
        </g>
    </g>
</svg>