<?xml version="1.0" encoding="UTF-8"?>
<svg width="24px" height="24px" viewBox="0 0 24 24" version="1.1" xmlns="http://www.w3.org/2000/svg" xmlns:xlink="http://www.w3.org/1999/xlink">
    <title>Icon/Group-Users/Bulk</title>
    <defs>
        <path d="M5,0 L59,0 C61.7614237,-8.8817842e-16 64,2.23857625 64,5 L64,203 C64,205.761424 61.7614237,208 59,208 L5,208 C2.23857625,208 0,205.761424 0,203 L0,5 C0,2.23857625 2.23857625,0 5,0 Z" id="path-1"></path>
        <path d="M0,0 L24,0 L24,24 L0,24 L0,0 Z" id="path-2"></path>
    </defs>
    <g id="Icons" stroke="none" stroke-width="1" fill="none" fill-rule="evenodd">
        <g id="Basic-Users" transform="translate(-376, -578)" fill="CURRENTCOLOR" fill-rule="nonzero">
            <g id="Group-Users" transform="translate(356, 414)" xlink:href="#path-1">
                <g id="Icon/Group-Users/Bulk" transform="translate(20, 164)" xlink:href="#path-2">
                    <path d="M17.5299988,7.77000427 C17.4599988,7.76000427 17.3899997,7.76000427 17.3199997,7.77000427 C15.7699997,7.72000427 14.5400009,6.44999933 14.5400009,4.88999939 C14.5400009,3.29999936 15.8300003,2 17.4300003,2 C19.0200003,2 20.3199997,3.28999937 20.3199997,4.88999939 C20.3099997,6.44999933 19.0799987,7.72000427 17.5299988,7.77000427 Z" id="Vector" opacity="0.400000006"></path>
                    <path d="M20.7896118,14.6999059 C19.6696118,15.4499059 18.0996094,15.7299022 16.6496124,15.5399022 C17.0296124,14.7199022 17.2296126,13.8099152 17.2396126,12.8499153 C17.2396126,11.8499153 17.0196094,10.8999164 16.5996094,10.0699164 C18.0796094,9.86991645 19.6496097,10.149903 20.7796097,10.899903 C22.3596097,11.939903 22.3596119,13.6499059 20.7896118,14.6999059 Z" id="Vector" opacity="0.400000006"></path>
                    <path d="M6.44038773,7.77000427 C6.51038773,7.76000427 6.58039062,7.76000427 6.65039062,7.77000427 C8.20039058,7.72000427 9.4303894,6.44999933 9.4303894,4.88999939 C9.4303894,3.29999936 8.14039004,2 6.54039001,2 C4.95038998,2 3.65039062,3.28999937 3.65039062,4.88999939 C3.66039062,6.44999933 4.89038777,7.72000427 6.44038773,7.77000427 Z" id="Vector" opacity="0.400000006"></path>
                    <path d="M6.54999781,12.8500009 C6.54999781,13.8200009 6.75999796,14.7400021 7.13999796,15.5700021 C5.72999799,15.7200021 4.25999904,15.4200014 3.17999899,14.7100015 C1.59999895,13.6600015 1.59999895,11.9499887 3.17999899,10.8999887 C4.24999905,10.1799887 5.75999892,9.88999789 7.17999887,10.0499979 C6.76999888,10.8899979 6.54999781,11.8400009 6.54999781,12.8500009 Z" id="Vector" opacity="0.400000006"></path>
                    <path d="M12.1199989,15.8699951 C12.0399989,15.8599951 11.9500006,15.8599951 11.8600006,15.8699951 C10.0200006,15.8099951 8.54999924,14.3000025 8.54999924,12.4400024 C8.54999924,10.5400025 10.0800017,9 11.9900017,9 C13.8900017,9 15.4300003,10.5400025 15.4300003,12.4400024 C15.4300003,14.3000025 13.969999,15.8099951 12.1199989,15.8699951 Z" id="Vector"></path>
                    <path d="M8.86999917,17.9399993 C7.35999918,18.9499993 7.35999918,20.6099977 8.86999917,21.6099977 C10.5899992,22.7599977 13.4100015,22.7599977 15.1300015,21.6099977 C16.6400015,20.5999978 16.6400015,18.9399993 15.1300015,17.9399993 C13.4200015,16.7899994 10.5999992,16.7899994 8.86999917,17.9399993 Z" id="Vector"></path>
                </g>
            </g>
        </g>
    </g>
</svg>