<?xml version="1.0" encoding="UTF-8"?>
<svg width="24px" height="24px" viewBox="0 0 24 24" version="1.1" xmlns="http://www.w3.org/2000/svg" xmlns:xlink="http://www.w3.org/1999/xlink">
    <title>Icon/Group-Users/Bold</title>
    <defs>
        <path d="M5,0 L59,0 C61.7614237,-8.8817842e-16 64,2.23857625 64,5 L64,203 C64,205.761424 61.7614237,208 59,208 L5,208 C2.23857625,208 0,205.761424 0,203 L0,5 C0,2.23857625 2.23857625,0 5,0 Z" id="path-1"></path>
        <path d="M0,0 L24,0 L24,24 L0,24 L0,0 Z" id="path-2"></path>
    </defs>
    <g id="Icons" stroke="none" stroke-width="1" fill="none" fill-rule="evenodd">
        <g id="Basic-Users" transform="translate(-376, -530)" fill="CURRENTCOLOR" fill-rule="nonzero">
            <g id="Group-Users" transform="translate(356, 414)" xlink:href="#path-1">
                <g id="Icon/Group-Users/Bold" transform="translate(20, 116)" xlink:href="#path-2">
                    <path d="M17.5300007,7.76999998 C17.4600007,7.75999998 17.3899997,7.75999998 17.3199997,7.76999998 C15.7699997,7.71999998 14.54,6.44999981 14.54,4.88999987 C14.54,3.29999983 15.8300003,2 17.4300003,2 C19.0200003,2 20.3199997,3.28999984 20.3199997,4.88999987 C20.3099997,6.44999981 19.0800006,7.71999998 17.5300007,7.76999998 Z" id="Vector"></path>
                    <path d="M20.7896099,14.6999149 C19.6696099,15.4499149 18.0996094,15.7299151 16.6496086,15.5399151 C17.0296086,14.7199151 17.2296088,13.8099157 17.2396088,12.8499157 C17.2396088,11.8499157 17.0196094,10.8999149 16.5996094,10.0699149 C18.0796094,9.86991494 19.6496097,10.1499149 20.7796097,10.8999149 C22.3596097,11.9399148 22.35961,13.649915 20.7896099,14.6999149 Z" id="Vector"></path>
                    <path d="M6.44000006,7.76999998 C6.51000006,7.75999998 6.5800001,7.75999998 6.6500001,7.76999998 C8.20000005,7.71999998 9.43000054,6.44999981 9.43000054,4.88999987 C9.43000054,3.28999984 8.13999999,2 6.53999996,2 C4.94999993,2 3.66000009,3.28999984 3.66000009,4.88999987 C3.66000009,6.44999981 4.8900001,7.71999998 6.44000006,7.76999998 Z" id="Vector"></path>
                    <path d="M6.55000031,12.8500001 C6.55000031,13.8200002 6.75999999,14.7399997 7.13999999,15.5699997 C5.73000002,15.7199997 4.26000011,15.42 3.18000007,14.71 C1.60000002,13.6600001 1.60000002,11.9499994 3.18000007,10.8999994 C4.25000012,10.1799994 5.75999999,9.89000003 7.17999995,10.05 C6.76999995,10.89 6.55000031,11.8400002 6.55000031,12.8500001 Z" id="Vector"></path>
                    <path d="M12.1199999,15.8699999 C12.0399999,15.8599999 11.9499997,15.8599999 11.8599997,15.8699999 C10.0199996,15.8099999 8.55000019,14.2999996 8.55000019,12.4399996 C8.56000019,10.5399996 10.09,9 12,9 C13.9,9 15.4399996,10.5399996 15.4399996,12.4399996 C15.4299996,14.2999996 13.9699999,15.8099999 12.1199999,15.8699999 Z" id="Vector"></path>
                    <path d="M8.86999965,17.9400012 C7.35999966,18.9500012 7.35999966,20.6100016 8.86999965,21.6100016 C10.5899997,22.7600015 13.4100001,22.7600015 15.1300001,21.6100016 C16.6400001,20.6000016 16.6400001,18.9400012 15.1300001,17.9400012 C13.4200001,16.7900013 10.5999997,16.7900013 8.86999965,17.9400012 Z" id="Vector"></path>
                </g>
            </g>
        </g>
    </g>
</svg>