<?xml version="1.0" encoding="UTF-8"?>
<svg width="24px" height="24px" viewBox="0 0 24 24" version="1.1" xmlns="http://www.w3.org/2000/svg" xmlns:xlink="http://www.w3.org/1999/xlink">
    <title>Icon/User/Linear</title>
    <defs>
        <path d="M5,0 L59,0 C61.7614237,-8.8817842e-16 64,2.23857625 64,5 L64,203 C64,205.761424 61.7614237,208 59,208 L5,208 C2.23857625,208 0,205.761424 0,203 L0,5 C0,2.23857625 2.23857625,0 5,0 Z" id="path-1"></path>
        <path d="M0,0 L24,0 L24,24 L0,24 L0,0 Z" id="path-2"></path>
    </defs>
    <g id="Icons" stroke="none" stroke-width="1" fill="none" fill-rule="evenodd">
        <g id="Basic-Users" transform="translate(-64, -234)" fill-rule="nonzero">
            <g id="User" transform="translate(44, 166)" xlink:href="#path-1">
                <g id="Icon/User/Linear" transform="translate(20, 68)" xlink:href="#path-2">
                    <path d="M17,7 C17,9.76142383 14.7614238,12 12,12 C9.23857617,12 7,9.76142383 7,7 C7,4.23857617 9.23857617,2 12,2 C14.7614238,2 17,4.23857617 17,7 Z" id="Vector" stroke="CURRENTCOLOR" stroke-width="1.5" stroke-linecap="round" stroke-linejoin="round" fill-rule="nonzero"></path>
                    <g id="Vector" stroke-linecap="round" stroke-linejoin="round" fill-rule="evenodd" stroke-width="1" transform="translate(3.41, 15)" stroke="CURRENTCOLOR">
                        <path d="M17.1799927,7 C17.1799927,3.13000011 13.3299961,0 8.58999634,0 C3.84999657,0 0,3.13000011 0,7" stroke-width="1.5" fill-rule="nonzero"></path>
                        <line x1="0" y1="7" x2="17.1799927" y2="7" stroke-width="1.5" fill-rule="nonzero"></line>
                    </g>
                    <polygon id="Vector" opacity="0" fill-rule="nonzero" points="0 0 24 0 24 24 0 24"></polygon>
                </g>
            </g>
        </g>
    </g>
</svg>