<?xml version="1.0" encoding="UTF-8"?>
<svg width="24px" height="24px" viewBox="0 0 24 24" version="1.1" xmlns="http://www.w3.org/2000/svg" xmlns:xlink="http://www.w3.org/1999/xlink">
    <title>Icon/User/Outline</title>
    <defs>
        <path d="M5,0 L59,0 C61.7614237,-8.8817842e-16 64,2.23857625 64,5 L64,203 C64,205.761424 61.7614237,208 59,208 L5,208 C2.23857625,208 0,205.761424 0,203 L0,5 C0,2.23857625 2.23857625,0 5,0 Z" id="path-1"></path>
        <path d="M0,0 L24,0 L24,24 L0,24 L0,0 Z" id="path-2"></path>
    </defs>
    <g id="Icons" stroke="none" stroke-width="1" fill="none" fill-rule="evenodd">
        <g id="Basic-Users" transform="translate(-64, -186)" fill-rule="nonzero">
            <g id="User" transform="translate(44, 166)" xlink:href="#path-1">
                <g id="Icon/User/Outline" transform="translate(20, 20)" xlink:href="#path-2">
                    <path d="M16.25,7 C16.25,4.65278983 14.3472102,2.75 12,2.75 C9.65278983,2.75 7.75,4.65278983 7.75,7 C7.75,9.34721017 9.65278983,11.25 12,11.25 C14.3472102,11.25 16.25,9.34721017 16.25,7 Z M17.75,7 C17.75,10.1756375 15.1756375,12.75 12,12.75 C8.82436252,12.75 6.25,10.1756375 6.25,7 C6.25,3.82436252 8.82436252,1.25 12,1.25 C15.1756375,1.25 17.75,3.82436252 17.75,7 Z" id="Vector-(Stroke)" fill="CURRENTCOLOR"></path>
                    <path d="M11.9998474,14.25 C17.0027218,14.25 21.3396912,17.5791464 21.3396912,22 C21.3396912,22.4142136 21.0039047,22.75 20.5896912,22.75 L3.41000366,22.75 C2.99579009,22.75 2.66000366,22.4142136 2.66000366,22 C2.66000366,17.5791912 6.99703741,14.25 11.9998474,14.25 Z M11.9998474,15.75 C7.86370087,15.7500615 4.68065101,18.2518706 4.21957397,21.25 L19.7801208,21.25 C19.3190127,18.2518542 16.1360474,15.75 11.9998474,15.75 Z" id="Vector-(Stroke)" fill="CURRENTCOLOR"></path>
                    <polygon id="Vector" opacity="0" points="0 0 24 0 24 24 0 24"></polygon>
                </g>
            </g>
        </g>
    </g>
</svg>