<?xml version="1.0" encoding="UTF-8"?>
<svg width="24px" height="24px" viewBox="0 0 24 24" version="1.1" xmlns="http://www.w3.org/2000/svg" xmlns:xlink="http://www.w3.org/1999/xlink">
    <title>Icon/Chevron-left/Bulk</title>
    <defs>
        <path d="M5,0 L60,0 C62.7614237,-8.8817842e-16 65,2.23857625 65,5 L65,203 C65,205.761424 62.7614237,208 60,208 L5,208 C2.23857625,208 0,205.761424 0,203 L0,5 C0,2.23857625 2.23857625,0 5,0 Z" id="path-1"></path>
        <path d="M0,0 L24,0 L24,24 L0,24 L0,0 Z" id="path-2"></path>
    </defs>
    <g id="Icons" stroke="none" stroke-width="1" fill="none" fill-rule="evenodd">
        <g id="Basic-Navigation" transform="translate(-689, -330)" fill="CURRENTCOLOR" fill-rule="nonzero">
            <g id="Chevron-Left" transform="translate(669, 166)" xlink:href="#path-1">
                <g id="Icon/Chevron-left/Bulk" transform="translate(20, 164)" xlink:href="#path-2">
                    <path d="M23,12 C23,18.0751324 18.0751324,23 12,23 C5.92486758,23 1,18.0751324 1,12 C1,5.92486758 5.92486758,1 12,1 C18.0751324,1 23,5.92486758 23,12 Z" id="Vector" opacity="0.400000006"></path>
                    <path d="M13.3859148,16.708005 C13.1769148,16.708005 12.9679138,16.6310036 12.8029138,16.4660036 L8.91991407,12.5830039 C8.60091407,12.2640039 8.60091407,11.7360042 8.91991407,11.4170042 L12.8029138,7.53400403 C13.1219138,7.21500404 13.6499145,7.21500404 13.9689145,7.53400403 C14.2879145,7.85300402 14.2879145,8.38100394 13.9689145,8.70000393 L10.6689142,12.0000042 L13.9689145,15.3000042 C14.2879145,15.6190042 14.2879145,16.1470036 13.9689145,16.4660036 C13.8149145,16.6310036 13.6059148,16.708005 13.3859148,16.708005 Z" id="Vector"></path>
                </g>
            </g>
        </g>
    </g>
</svg>