<?xml version="1.0" encoding="UTF-8"?>
<svg width="24px" height="24px" viewBox="0 0 24 24" version="1.1" xmlns="http://www.w3.org/2000/svg" xmlns:xlink="http://www.w3.org/1999/xlink">
    <title>Icon/Chevron-left/Outline</title>
    <defs>
        <path d="M5,0 L60,0 C62.7614237,-8.8817842e-16 65,2.23857625 65,5 L65,203 C65,205.761424 62.7614237,208 60,208 L5,208 C2.23857625,208 0,205.761424 0,203 L0,5 C0,2.23857625 2.23857625,0 5,0 Z" id="path-1"></path>
        <path d="M0,0 L24,0 L24,24 L0,24 L0,0 Z" id="path-2"></path>
    </defs>
    <g id="Icons" stroke="none" stroke-width="1" fill="none" fill-rule="evenodd">
        <g id="Basic-Navigation" transform="translate(-689, -186)" fill="CURRENTCOLOR" fill-rule="nonzero">
            <g id="Chevron-Left" transform="translate(669, 166)" xlink:href="#path-1">
                <g id="Icon/Chevron-left/Outline" transform="translate(20, 20)" xlink:href="#path-2">
                    <path d="M12,23 C5.9320932,23 1,18.0679068 1,12 C1,5.9320932 5.9320932,1 12,1 C18.0679068,1 23,5.9320932 23,12 C23,18.0679068 18.0679068,23 12,23 Z M12,2.53488372 C6.78139545,2.53488372 2.53488372,6.78139545 2.53488372,12 C2.53488372,17.2186046 6.78139545,21.4651163 12,21.4651163 C17.2186046,21.4651163 21.4651163,17.2186046 21.4651163,12 C21.4651163,6.78139545 17.2186046,2.53488372 12,2.53488372 Z" id="Vector"></path>
                    <path d="M13.2892698,16.3795466 C13.0948512,16.3795466 12.9004317,16.3079175 12.7469433,16.1544291 L9.13485062,12.5423363 C8.83810644,12.2455921 8.83810644,11.7544296 9.13485062,11.4576854 L12.7469433,7.84559215 C13.0436875,7.54884796 13.5348509,7.54884796 13.8315951,7.84559215 C14.1283393,8.14233633 14.1283393,8.63349906 13.8315951,8.93024324 L10.7618275,12.000011 L13.8315951,15.0697785 C14.1283393,15.3665227 14.1283393,15.8576849 13.8315951,16.1544291 C13.6883393,16.3079175 13.493921,16.3795466 13.2892698,16.3795466 Z" id="Vector"></path>
                </g>
            </g>
        </g>
    </g>
</svg>