<?xml version="1.0" encoding="UTF-8"?>
<svg width="24px" height="24px" viewBox="0 0 24 24" version="1.1" xmlns="http://www.w3.org/2000/svg" xmlns:xlink="http://www.w3.org/1999/xlink">
    <title>Icon/Cloud-drizzle/Outline</title>
    <defs>
        <path d="M5,0 L59,0 C61.7614237,-8.8817842e-16 64,2.23857625 64,5 L64,203 C64,205.761424 61.7614237,208 59,208 L5,208 C2.23857625,208 0,205.761424 0,203 L0,5 C0,2.23857625 2.23857625,0 5,0 Z" id="path-1"></path>
        <path d="M0,0 L24,0 L24,24 L0,24 L0,0 Z" id="path-2"></path>
    </defs>
    <g id="Icons" stroke="none" stroke-width="1" fill="none" fill-rule="evenodd">
        <g id="Weather" transform="translate(-64, -434)" fill-rule="nonzero">
            <g id="cloud-drizzle-" transform="translate(44, 414)" xlink:href="#path-1">
                <g id="Icon/Cloud-drizzle/Outline" transform="translate(20, 20)" xlink:href="#path-2">
                    <use fill="#FFFFFF" fill-rule="evenodd" xlink:href="#path-2"></use>
                    <path d="M16.6499991,19.7500005 C16.6399991,19.7500005 16.6200001,19.7500005 16.6100001,19.7500005 C16.2000001,19.7500005 15.8599994,19.4100002 15.8699994,18.9900002 C15.8699994,18.5800003 16.2100004,18.2500005 16.6200004,18.2500005 C16.6300004,18.2500005 16.6499994,18.2500005 16.6599994,18.2500005 C17.7999994,18.2500005 18.8899991,17.8299997 19.7299991,17.0499997 C21.279999,15.6899997 21.3899998,13.7500006 20.9699998,12.3800006 C20.5499998,11.0100006 19.3900001,9.4599998 17.3600001,9.19999981 C17.0300001,9.15999981 16.7699986,8.90999994 16.7099986,8.57999992 C16.3099986,6.18999982 15.0199995,4.54000008 13.0799994,3.94000006 C11.0599995,3.32000005 8.73000002,3.93000007 7.26999998,5.46000004 C5.85000002,6.95000005 5.52000004,9.02000093 6.34000003,11.3100009 C6.48000003,11.7000009 6.27999973,12.1300009 5.88999975,12.2700009 C5.49999976,12.4100009 5.06999971,12.2100002 4.92999971,11.8200002 C3.91999972,9.01000023 4.38,6.31999981 6.18999994,4.42999983 C8.03999996,2.49999988 10.9799993,1.72999996 13.5299993,2.51999998 C15.8599992,3.24000001 17.5099999,5.15999961 18.0999999,7.81999969 C20.1399999,8.2799997 21.7700006,9.82000017 22.4200006,11.9500003 C23.1300005,14.2700002 22.4800005,16.6500006 20.7500005,18.1700006 C19.6100005,19.1900005 18.1599991,19.7500005 16.6499991,19.7500005 Z" id="Vector" fill="CURRENTCOLOR" fill-rule="nonzero"></path>
                    <path d="M5.57000029,19.749999 C5.55000029,19.749999 5.5300001,19.749999 5.5200001,19.749999 C2.63999999,19.549999 1.33000004,17.2899992 1.33000004,15.2799993 C1.33000004,13.2699993 2.63999999,11.0199991 5.5200001,10.8099991 C6.26000011,10.7999991 6.99000025,10.9699986 7.63000023,11.2899986 C8.00000024,11.4799986 8.14000016,11.9299989 7.96000016,12.2999989 C7.77000016,12.6699989 7.31999993,12.8099988 6.94999993,12.6299988 C6.52999994,12.4099988 6.05000028,12.3199991 5.59000027,12.3099991 C3.70000029,12.4499991 2.83999991,13.8999993 2.83999991,15.2799993 C2.83999991,16.6599993 3.69999993,18.1099986 5.63999999,18.2499986 C6.04999998,18.2799986 6.36000004,18.6399983 6.33000004,19.0499983 C6.29000004,19.4499983 5.96000028,19.749999 5.57000029,19.749999 Z" id="Vector" fill="CURRENTCOLOR" fill-rule="nonzero"></path>
                    <path d="M15.8200002,9.64000034 C15.5500002,9.64000034 15.2800001,9.49000028 15.1500001,9.22000027 C14.9600001,8.85000026 15.1100002,8.40000004 15.4900002,8.21000004 C16.1000002,7.90000004 16.7899998,7.73000027 17.4699998,7.72000027 C17.8499998,7.74000027 18.23,8.04000005 18.23,8.46000004 C18.24,8.87000003 17.9100002,9.22000027 17.4900002,9.22000027 C17.0300002,9.23000027 16.5700001,9.3400002 16.1500001,9.55000019 C16.0500001,9.62000019 15.9300002,9.64000034 15.8200002,9.64000034 Z" id="Vector" fill="CURRENTCOLOR" fill-rule="nonzero"></path>
                    <path d="M7.96999955,21.7499993 C7.77999955,21.7499993 7.58999985,21.68 7.43999985,21.53 C7.14999986,21.24 7.14999986,20.7599986 7.43999985,20.4699986 L9.43999934,18.4699986 C9.72999933,18.1799986 10.2099998,18.1799986 10.4999998,18.4699986 C10.7899998,18.7599986 10.7899998,19.24 10.4999998,19.53 L8.49999976,21.53 C8.35999976,21.68 8.16999955,21.7499993 7.96999955,21.7499993 Z" id="Vector" fill="CURRENTCOLOR" fill-rule="nonzero"></path>
                    <path d="M11.9700005,21.7499993 C11.7800005,21.7499993 11.5899999,21.68 11.4399998,21.53 C11.1499999,21.24 11.1499999,20.7599986 11.4399998,20.4699986 L13.4399998,18.4699986 C13.7299998,18.1799986 14.2100002,18.1799986 14.5000002,18.4699986 C14.7900002,18.7599986 14.7900002,19.24 14.5000002,19.53 L12.5000002,21.53 C12.3600002,21.68 12.1700005,21.7499993 11.9700005,21.7499993 Z" id="Vector" fill="CURRENTCOLOR" fill-rule="nonzero"></path>
                    <path d="M11.9700005,17.7500002 C11.7800005,17.7500002 11.5899999,17.6800009 11.4399998,17.5300009 C11.1499999,17.2400009 11.1499999,16.7599995 11.4399998,16.4699996 L13.4399998,14.4700005 C13.7299998,14.1800005 14.2100002,14.1800005 14.5000002,14.4700005 C14.7900002,14.7600005 14.7900002,15.2400009 14.5000002,15.5300009 L12.5000002,17.5300009 C12.3600002,17.6800009 12.1700005,17.7500002 11.9700005,17.7500002 Z" id="Vector" fill="CURRENTCOLOR" fill-rule="nonzero"></path>
                    <path d="M7.96999955,17.7500002 C7.77999955,17.7500002 7.58999985,17.6800009 7.43999985,17.5300009 C7.14999986,17.2400009 7.14999986,16.7599995 7.43999985,16.4699996 L9.43999934,14.4700005 C9.72999933,14.1800005 10.2099998,14.1800005 10.4999998,14.4700005 C10.7899998,14.7600005 10.7899998,15.2400009 10.4999998,15.5300009 L8.49999976,17.5300009 C8.35999976,17.6800009 8.16999955,17.7500002 7.96999955,17.7500002 Z" id="Vector" fill="CURRENTCOLOR" fill-rule="nonzero"></path>
                </g>
            </g>
        </g>
    </g>
</svg>