<?xml version="1.0" encoding="UTF-8"?>
<svg width="24px" height="24px" viewBox="0 0 24 24" version="1.1" xmlns="http://www.w3.org/2000/svg" xmlns:xlink="http://www.w3.org/1999/xlink">
    <title>Icon/Cloud-drizzle/Bold</title>
    <defs>
        <path d="M5,0 L59,0 C61.7614237,-8.8817842e-16 64,2.23857625 64,5 L64,203 C64,205.761424 61.7614237,208 59,208 L5,208 C2.23857625,208 0,205.761424 0,203 L0,5 C0,2.23857625 2.23857625,0 5,0 Z" id="path-1"></path>
        <path d="M0,0 L24,0 L24,24 L0,24 L0,0 Z" id="path-2"></path>
    </defs>
    <g id="Icons" stroke="none" stroke-width="1" fill="none" fill-rule="evenodd">
        <g id="Weather" transform="translate(-64, -530)" fill-rule="nonzero">
            <g id="cloud-drizzle-" transform="translate(44, 414)" xlink:href="#path-1">
                <g id="Icon/Cloud-drizzle/Bold" transform="translate(20, 116)" xlink:href="#path-2">
                    <use fill="#FFFFFF" fill-rule="evenodd" xlink:href="#path-2"></use>
                    <path d="M20.1700001,17.5699995 C19.6400001,18.0599995 19.0300009,18.430001 18.3700008,18.680001 C17.7100008,18.930001 17,18.4499995 17,17.7399995 L17,16.4199998 C17,14.4699998 15.4200003,12.8900001 13.4700003,12.8900001 L10.5299997,12.8900001 C8.57999969,12.8900001 7,14.4699998 7,16.4199998 L7,17.9999998 C7,18.5499998 6.55000001,19.0000007 6,19.0000007 L5.55000019,19.0000007 C3.10000014,18.6300007 2,16.6399994 2,14.8599994 C2,13.1799995 2.98000002,11.3199999 5.11000013,10.8 C4.52000016,8.47000003 5.01999998,6.28000009 6.53999996,4.69000006 C8.26999998,2.88000011 11.0299997,2.16000012 13.4099998,2.90000013 C15.5999999,3.57000014 17.1400005,5.37000012 17.6900005,7.87000012 C19.6000005,8.30000013 21.1299998,9.73999953 21.7399998,11.7399995 C22.3999998,13.9099996 21.8000001,16.1399995 20.1700001,17.5699995 Z" id="Vector" fill="CURRENTCOLOR" fill-rule="nonzero"></path>
                    <path d="M13.4700003,14.3900003 L10.5299997,14.3900003 C9.25999975,14.3900003 8.5,15.1500001 8.5,16.4200001 L8.5,19.3600006 C8.5,20.6300006 9.25999975,21.3900003 10.5299997,21.3900003 L13.4700003,21.3900003 C14.7400002,21.3900003 15.5,20.6300006 15.5,19.3600006 L15.5,16.4200001 C15.5,15.1500001 14.7400002,14.3900003 13.4700003,14.3900003 Z M11.71,18.8400002 L10.4700003,20.0699997 C10.3800003,20.1599997 10.2599996,20.2099991 10.1499996,20.2099991 C10.0199996,20.2099991 9.9099997,20.1599997 9.81999969,20.0699997 C9.63999969,19.8900003 9.63999969,19.6000001 9.81999969,19.4200001 L11.0500002,18.1800003 C11.2400002,18.0000003 11.53,18.0000003 11.71,18.1800003 C11.89,18.3600003 11.89,18.6600001 11.71,18.8400002 Z M11.71,16.3600006 L10.4700003,17.6000004 C10.3800003,17.6900004 10.2599996,17.7399998 10.1499996,17.7399998 C10.0199996,17.7399998 9.9099997,17.6900004 9.81999969,17.6000004 C9.63999969,17.4200004 9.63999969,17.1200005 9.81999969,16.9400005 L11.0500002,15.71 C11.2400002,15.53 11.53,15.53 11.71,15.71 C11.89,15.8900003 11.89,16.1800006 11.71,16.3600006 Z M14.1800003,18.8400002 L12.9499998,20.0699997 C12.8499998,20.1599997 12.7399999,20.2099991 12.6199999,20.2099991 C12.5,20.2099991 12.38,20.1599997 12.29,20.0699997 C12.11,19.8900003 12.11,19.6000001 12.29,19.4200001 L13.5299997,18.1800003 C13.7099997,18.0000003 14,18.0000003 14.1800003,18.1800003 C14.3600003,18.3600003 14.3600003,18.6600001 14.1800003,18.8400002 Z M14.1800003,16.3600006 L12.9499998,17.6000004 C12.8499998,17.6900004 12.7399999,17.7399998 12.6199999,17.7399998 C12.5,17.7399998 12.38,17.6900004 12.29,17.6000004 C12.11,17.4200004 12.11,17.1200005 12.29,16.9400005 L13.5299997,15.71 C13.7099997,15.53 14,15.53 14.1800003,15.71 C14.3600003,15.8900003 14.3600003,16.1800006 14.1800003,16.3600006 Z" id="Vector" fill="CURRENTCOLOR" fill-rule="nonzero"></path>
                </g>
            </g>
        </g>
    </g>
</svg>