<?xml version="1.0" encoding="UTF-8"?>
<svg width="24px" height="24px" viewBox="0 0 24 24" version="1.1" xmlns="http://www.w3.org/2000/svg" xmlns:xlink="http://www.w3.org/1999/xlink">
    <title>Icon/arrow-up/Outline</title>
    <defs>
        <path d="M5,0 L59,0 C61.7614237,-8.8817842e-16 64,2.23857625 64,5 L64,203 C64,205.761424 61.7614237,208 59,208 L5,208 C2.23857625,208 0,205.761424 0,203 L0,5 C0,2.23857625 2.23857625,0 5,0 Z" id="path-1"></path>
        <path d="M0,0 L24,0 L24,24 L0,24 L0,0 Z" id="path-2"></path>
    </defs>
    <g id="Icons" stroke="none" stroke-width="1" fill="none" fill-rule="evenodd">
        <g id="Basic-Navigation" transform="translate(-65, -186)" fill-rule="nonzero">
            <g id="arrow-up" transform="translate(45, 166)" xlink:href="#path-1">
                <g id="Icon/arrow-up/Outline" transform="translate(20, 20)" xlink:href="#path-2">
                    <path d="M12.0003123,2.75 C12.1991121,2.75008267 12.3900071,2.82914789 12.5305858,2.96972656 L18.5999222,9.04003906 C18.8928154,9.33293229 18.8928154,9.80769274 18.5999222,10.1005859 C18.3070022,10.3931473 17.8321579,10.3933685 17.5393753,10.1005859 L11.9993358,4.56054688 L6.46027339,10.1005859 C6.16741967,10.3932707 5.69258016,10.3932707 5.39972645,10.1005859 C5.1068854,9.80774486 5.10698968,9.3329449 5.39972645,9.04003906 L11.4700389,2.96972656 L11.5842967,2.87597656 C11.7065497,2.79453817 11.8512459,2.75 12.0003123,2.75 Z" id="Vector-(Stroke)" fill="CURRENTCOLOR"></path>
                    <path d="M11.25,20.5000782 L11.25,3.67000008 C11.25,3.25578651 11.5857864,2.92000008 12,2.92000008 C12.4142136,2.92000008 12.75,3.25578651 12.75,3.67000008 L12.75,20.5000782 L12.7460938,20.5762501 C12.7078826,20.9546461 12.3884708,21.2500782 12,21.2500782 C11.6115292,21.2500782 11.2921174,20.9546461 11.2539062,20.5762501 L11.25,20.5000782 Z" id="Vector-(Stroke)" fill="CURRENTCOLOR"></path>
                    <polygon id="Vector" opacity="0" transform="translate(12, 12) rotate(-180) translate(-12, -12)" points="0 0 24 0 24 24 0 24"></polygon>
                </g>
            </g>
        </g>
    </g>
</svg>