<?xml version="1.0" encoding="UTF-8"?>
<svg width="24px" height="24px" viewBox="0 0 24 24" version="1.1" xmlns="http://www.w3.org/2000/svg" xmlns:xlink="http://www.w3.org/1999/xlink">
    <title>Icon/Moon2/Outline</title>
    <defs>
        <path d="M5,0 L59,0 C61.7614237,-8.8817842e-16 64,2.23857625 64,5 L64,203 C64,205.761424 61.7614237,208 59,208 L5,208 C2.23857625,208 0,205.761424 0,203 L0,5 C0,2.23857625 2.23857625,0 5,0 Z" id="path-1"></path>
        <path d="M0,0 L24,0 L24,24 L0,24 L0,0 Z" id="path-2"></path>
    </defs>
    <g id="Icons" stroke="none" stroke-width="1" fill="none" fill-rule="evenodd">
        <g id="Weather" transform="translate(-584, -186)" fill="CURRENTCOLOR" fill-rule="nonzero">
            <g id="Moon-2" transform="translate(564, 166)" xlink:href="#path-1">
                <g id="Icon/Moon2/Outline" transform="translate(20, 20)" xlink:href="#path-2" fill-rule="evenodd">
                    <path d="M2,12.0802293 C2,6.51319885 6.51296902,2.0001111 12.079999,2.0001111 C12.8206253,1.99650886 13.5590906,2.08042544 14.2799978,2.2502296 C11.4268436,3.06714225 9.55951262,5.7995894 9.83498096,8.75457764 C10.1104498,11.7095656 12.4506626,14.0497794 15.4056501,14.3252482 C18.3606377,14.6007171 21.0930843,12.7333837 21.9099979,9.88022947 C22.0798016,10.6011367 22.1637173,11.3396029 22.1601162,12.0802293 C22.1601162,17.6472592 17.6470289,22.1602292 12.079999,22.1602292 C6.51296902,22.1602292 2,17.6472592 2,12.0802293 Z M10.5429592,13.6164298 C7.92798662,11.0039086 7.54835749,6.8979125 9.64000177,3.85022974 C5.70313597,5.01948285 3.14687777,8.81451797 3.54276395,12.9022231 C3.93865025,16.9899278 7.17565393,20.2238984 11.2637291,20.615952 C15.3518038,21.0080056 19.1444416,18.4481893 20.3100033,14.5102296 C17.2642822,16.6047301 13.1579313,16.228951 10.5429592,13.6164298 Z" id="Icon"></path>
                </g>
            </g>
        </g>
    </g>
</svg>