<?xml version="1.0" encoding="UTF-8"?>
<svg width="24px" height="24px" viewBox="0 0 24 24" version="1.1" xmlns="http://www.w3.org/2000/svg" xmlns:xlink="http://www.w3.org/1999/xlink">
    <title>Icon/Moon2/Linear</title>
    <defs>
        <path d="M5,0 L59,0 C61.7614237,-8.8817842e-16 64,2.23857625 64,5 L64,203 C64,205.761424 61.7614237,208 59,208 L5,208 C2.23857625,208 0,205.761424 0,203 L0,5 C0,2.23857625 2.23857625,0 5,0 Z" id="path-1"></path>
        <path d="M0,0 L24,0 L24,24 L0,24 L0,0 Z" id="path-2"></path>
    </defs>
    <g id="Icons" stroke="none" stroke-width="1" fill="none" fill-rule="evenodd">
        <g id="Weather" transform="translate(-584, -234)" fill-rule="nonzero" stroke="CURRENTCOLOR" stroke-width="1.5">
            <g id="Moon-2" transform="translate(564, 166)" xlink:href="#path-1">
                <g id="Icon/Moon2/Linear" transform="translate(20, 68)" xlink:href="#path-2">
                    <path d="M9.08821872,8.82408081 C9.39717243,12.1382653 12.0218521,14.7629457 15.3360357,15.0718994 C17.7202226,15.2941572 19.9752409,14.2726728 21.3894461,12.4862417 C21.1852677,17.4540454 17.0945936,21.4101181 12.079999,21.4101181 C6.92718278,21.4101181 2.75,17.2329348 2.75,12.0801182 C2.75,7.06431152 6.70798353,2.97287228 11.6740915,2.7704971 C9.88752746,4.18469218 8.86595224,6.43979666 9.08821872,8.82408081 Z" id="Icon-Copy"></path>
                </g>
            </g>
        </g>
    </g>
</svg>