<?xml version="1.0" encoding="UTF-8"?>
<svg width="24px" height="24px" viewBox="0 0 24 24" version="1.1" xmlns="http://www.w3.org/2000/svg" xmlns:xlink="http://www.w3.org/1999/xlink">
    <title>Icon/Moon2/Bulk</title>
    <defs>
        <path d="M5,0 L59,0 C61.7614237,-8.8817842e-16 64,2.23857625 64,5 L64,203 C64,205.761424 61.7614237,208 59,208 L5,208 C2.23857625,208 0,205.761424 0,203 L0,5 C0,2.23857625 2.23857625,0 5,0 Z" id="path-1"></path>
        <path d="M0,0 L24,0 L24,24 L0,24 L0,0 Z" id="path-2"></path>
    </defs>
    <g id="Icons" stroke="none" stroke-width="1" fill="none" fill-rule="evenodd">
        <g id="Weather" transform="translate(-584, -330)" fill="CURRENTCOLOR" fill-rule="nonzero">
            <g id="Moon-2" transform="translate(564, 166)" xlink:href="#path-1">
                <g id="Icon/Moon2/Bulk" transform="translate(20, 164)" xlink:href="#path-2" fill-rule="evenodd">
                    <g id="Group" transform="translate(2, 1.9999)">
                        <path d="M20.1602273,10.0802294 C20.1602273,15.6472593 15.6470289,20.1602293 10.079999,20.1602293 C4.51296902,20.1602293 0,15.6472593 0,10.0802294 C0,4.51319896 4.51296902,0.000229706751 10.079999,0.000229706751 C10.8206253,-0.00349102612 11.5590906,0.0804255525 12.2799978,0.250229708 C9.42684364,1.06714236 7.55951262,3.79958951 7.83498096,6.75457775 C8.11044979,9.70956575 10.4506626,12.0497795 13.4056501,12.3252484 C16.3606377,12.6007172 19.0930843,10.7333838 19.9099979,7.88022958 C20.0798016,8.60113775 20.1639467,9.33960306 20.1602273,10.0802294 Z" id="Icon-Copy-2" fill-opacity="0.4" fill-rule="nonzero"></path>
                        <path d="M10.079999,20.1602293 C4.51296902,20.1602293 0,15.6472593 0,10.0802294 C0,4.51319896 4.51296902,0.000229706751 10.079999,0.000229706751 C10.8206253,-0.00349102612 11.5590906,0.0804255525 12.2799978,0.250229708 C9.42684364,1.06714236 7.55951262,3.79958951 7.83498096,6.75457775 C8.11044979,9.70956575 10.5300663,12.0545461 13.4850539,12.3300149 C16.4400414,12.6054838 15.6470289,20.1602293 10.079999,20.1602293 Z" id="Icon-Copy-3" fill-rule="nonzero"></path>
                    </g>
                </g>
            </g>
        </g>
    </g>
</svg>