<?xml version="1.0" encoding="UTF-8"?>
<svg width="24px" height="24px" viewBox="0 0 24 24" version="1.1" xmlns="http://www.w3.org/2000/svg" xmlns:xlink="http://www.w3.org/1999/xlink">
    <title>Icon/Moon2/Bold</title>
    <defs>
        <path d="M5,0 L59,0 C61.7614237,-8.8817842e-16 64,2.23857625 64,5 L64,203 C64,205.761424 61.7614237,208 59,208 L5,208 C2.23857625,208 0,205.761424 0,203 L0,5 C0,2.23857625 2.23857625,0 5,0 Z" id="path-1"></path>
        <path d="M0,0 L24,0 L24,24 L0,24 L0,0 Z" id="path-2"></path>
    </defs>
    <g id="Icons" stroke="none" stroke-width="1" fill="none" fill-rule="evenodd">
        <g id="Weather" transform="translate(-584, -282)" fill="CURRENTCOLOR" fill-rule="nonzero">
            <g id="Moon-2" transform="translate(564, 166)" xlink:href="#path-1">
                <g id="Icon/Moon2/Bold" transform="translate(20, 116)" xlink:href="#path-2">
                    <path d="M22.1601162,12.0801182 C22.1601162,17.6471481 17.6470289,22.1601181 12.079999,22.1601181 C6.51296902,22.1601181 2,17.6471481 2,12.0801182 C2,6.51308775 6.51296902,2 12.079999,2 C12.8206253,1.99639776 13.5590906,2.08031434 14.2799978,2.25011849 C11.4268436,3.06703115 9.55951262,5.79947829 9.83498096,8.75446653 C10.1104498,11.7094545 12.4506626,14.0496683 15.4056501,14.3251371 C18.3606377,14.600606 21.0930843,12.7332726 21.9099979,9.88011837 C22.0798016,10.6010265 22.1637173,11.3394918 22.1601162,12.0801182 Z" id="Icon"></path>
                </g>
            </g>
        </g>
    </g>
</svg>