<?xml version="1.0" encoding="UTF-8"?>
<svg width="24px" height="24px" viewBox="0 0 24 24" version="1.1" xmlns="http://www.w3.org/2000/svg" xmlns:xlink="http://www.w3.org/1999/xlink">
    <title>Icon/Filter-add/Outline</title>
    <defs>
        <path d="M5,0 L59,0 C61.7614237,-8.8817842e-16 64,2.23857625 64,5 L64,203 C64,205.761424 61.7614237,208 59,208 L5,208 C2.23857625,208 0,205.761424 0,203 L0,5 C0,2.23857625 2.23857625,0 5,0 Z" id="path-1"></path>
        <path d="M0,0 L24,0 L24,24 L0,24 L0,0 Z" id="path-2"></path>
    </defs>
    <g id="Icons" stroke="none" stroke-width="1" fill="none" fill-rule="evenodd">
        <g id="Basic-Search" transform="translate(-688, -186)" fill-rule="nonzero">
            <g id="Filter-add" transform="translate(668, 166)" xlink:href="#path-1">
                <g id="Icon/Filter-add/Outline" transform="translate(20, 20)" xlink:href="#path-2">
                    <path d="M20.8800011,14.75 C20.8800011,12.5442128 19.0857866,10.75 16.8800011,10.75 C14.6742148,10.75 12.8800011,12.5442138 12.8800011,14.75 C12.8800011,15.5001575 13.0907583,16.2133223 13.4571495,16.8046875 L13.4639854,16.8144531 C14.1543582,17.9678807 15.4248739,18.75 16.8800011,18.75 C18.3376001,18.75 19.6061615,17.9757386 20.2950401,16.8164063 L20.2999229,16.8085937 C20.6700825,16.202803 20.8800011,15.4977726 20.8800011,14.75 Z M22.3800011,14.75 C22.3800011,15.7786664 22.0906734,16.7497345 21.5841026,17.5820312 L21.5850792,17.5830078 C20.6339579,19.1836754 18.8824022,20.25 16.8800011,20.25 C14.8751323,20.25 13.1265047,19.1715279 12.1768761,17.5849609 L12.1768761,17.5839844 C11.6674705,16.757595 11.3800011,15.775333 11.3800011,14.75 C11.3800011,11.7157865 13.8457875,9.25 16.8800011,9.25 C19.9142153,9.25 22.3800011,11.7157874 22.3800011,14.75 Z" id="Vector-(Stroke)" fill="CURRENTCOLOR"></path>
                    <path d="M18.6601562,13.9799805 C19.0743698,13.9799805 19.4101562,14.3157669 19.4101562,14.7299805 C19.4101562,15.144194 19.0743698,15.4799805 18.6601562,15.4799805 L15.1103516,15.4799805 C14.696138,15.4799805 14.3603516,15.144194 14.3603516,14.7299805 C14.3603516,14.3157669 14.696138,13.9799805 15.1103516,13.9799805 L18.6601562,13.9799805 Z" id="Vector-(Stroke)" fill="CURRENTCOLOR"></path>
                    <path d="M16.1300011,16.5498047 L16.1300011,13 C16.1300011,12.5857864 16.4657875,12.25 16.8800011,12.25 C17.2942146,12.25 17.6300011,12.5857864 17.6300011,13 L17.6300011,16.5498047 C17.6300011,16.9640183 17.2942146,17.2998047 16.8800011,17.2998047 C16.4657875,17.2998047 16.1300011,16.9640183 16.1300011,16.5498047 Z" id="Vector-(Stroke)" fill="CURRENTCOLOR"></path>
                    <polygon id="Vector" opacity="0" transform="translate(12, 12) rotate(-180) translate(-12, -12)" points="0 0 24 0 24 24 0 24"></polygon>
                    <path d="M11.3798828,14.75 C11.3798828,11.7157865 13.8456693,9.25 16.8798828,9.25 C17.1567477,9.25001544 17.4308405,9.27258645 17.6992187,9.31445313 L19.1542969,8.03222656 C19.3283724,7.85085563 19.5310687,7.55502045 19.6894531,7.20703125 C19.8524629,6.84883606 19.9393991,6.50266194 19.9394531,6.24023438 L19.9394531,4.02050781 C19.9394531,3.32483226 19.3655414,2.75019515 18.6699219,2.75 L5.32910156,2.75 C4.65702981,2.75025598 4.05957031,3.30059987 4.05957031,4.12011719 L4.05957031,6.45019531 L4.07128906,6.5859375 C4.09479902,6.74099864 4.15485175,6.95047605 4.26074219,7.18554688 C4.3640891,7.41493927 4.49278659,7.62707527 4.62402344,7.79394531 L4.75488281,7.9453125 L4.76367187,7.953125 L8.60351562,11.9931641 L8.64550781,12.0410156 C8.89857829,12.3573537 9.13555415,12.7763446 9.31054687,13.2109375 C9.48383828,13.6413255 9.61911778,14.14553 9.61914062,14.6298828 L9.61914062,19.9804688 C9.61951421,20.9703962 10.7563518,21.5827662 11.6015625,21.0634766 L13.0029297,20.1601563 L13.0292969,20.1435547 C13.1210878,20.08956 13.2644629,19.9429369 13.3896484,19.7011719 C13.4992416,19.4894873 13.5536108,19.2774708 13.5644531,19.1220703 C13.0001194,18.7047114 12.5307292,18.178762 12.1757813,17.5839844 L12.1757813,17.5830078 C11.6688898,16.7505242 11.3798828,15.7790195 11.3798828,14.75 Z M21.4394531,6.24023438 C21.4394531,6.78769326 21.2715917,7.35149774 21.0546875,7.828125 C20.8365422,8.30747417 20.5381936,8.76490033 20.2148437,9.09472656 C20.2020197,9.10780705 20.1885518,9.12070581 20.1748047,9.1328125 L18.4150391,10.6826172 C18.2314723,10.8442749 17.9808889,10.9061862 17.7431641,10.8486328 C17.4752617,10.7836868 17.1846698,10.7500232 16.8798828,10.75 C14.6740966,10.75 12.8798828,12.5442138 12.8798828,14.75 C12.8798828,15.4043242 13.0399905,16.0261009 13.328125,16.5771484 L13.4599609,16.8085938 L13.4638672,16.8154297 C13.7751009,17.3369565 14.2008634,17.7775957 14.7119141,18.0908203 C14.9341206,18.2272199 15.0693359,18.4697133 15.0693359,18.7304688 L15.0693359,19.0703125 C15.0692717,19.5221307 14.9265548,19.9948545 14.7216797,20.390625 C14.52367,20.7730318 14.2202939,21.1714823 13.8154297,21.4189453 L13.8164062,21.4199219 L12.40625,22.3300781 C12.4021828,22.3327032 12.397672,22.3353448 12.3935547,22.3378906 C10.6193796,23.4345797 8.11950246,22.2285588 8.11914063,19.9804688 L8.11914063,14.6298828 C8.11911573,14.4043126 8.05058257,14.0984531 7.91894531,13.7714844 C7.79222049,13.4567495 7.62858516,13.1771834 7.484375,12.9931641 L3.68359375,8.99414063 C3.35833403,8.66216865 3.08562569,8.22806841 2.89355469,7.80175781 C2.72843896,7.43526122 2.5967664,7.01668346 2.56640625,6.61914063 L2.55957031,6.45019531 L2.55957031,4.12011719 C2.55957031,2.51998687 3.78158653,1.25025658 5.32910156,1.25 L18.6699219,1.25 C20.1939814,1.25 21.4394531,2.49641991 21.4394531,4.02050781 L21.4394531,6.24023438 Z" id="Vector-(Stroke)" fill="CURRENTCOLOR"></path>
                </g>
            </g>
        </g>
    </g>
</svg>