<?xml version="1.0" encoding="UTF-8"?>
<svg width="24px" height="24px" viewBox="0 0 24 24" version="1.1" xmlns="http://www.w3.org/2000/svg" xmlns:xlink="http://www.w3.org/1999/xlink">
    <title>Icon/Filter-add/Bulk</title>
    <defs>
        <path d="M5,0 L59,0 C61.7614237,-8.8817842e-16 64,2.23857625 64,5 L64,203 C64,205.761424 61.7614237,208 59,208 L5,208 C2.23857625,208 0,205.761424 0,203 L0,5 C0,2.23857625 2.23857625,0 5,0 Z" id="path-1"></path>
        <path d="M0,0 L24,0 L24,24 L0,24 L0,0 Z" id="path-2"></path>
    </defs>
    <g id="Icons" stroke="none" stroke-width="1" fill="none" fill-rule="evenodd">
        <g id="Basic-Search" transform="translate(-688, -330)" fill-rule="nonzero">
            <g id="Filter-add" transform="translate(668, 166)" xlink:href="#path-1">
                <g id="Icon/Filter-add/Bulk" transform="translate(20, 164)" xlink:href="#path-2">
                    <polygon id="Vector" opacity="0" transform="translate(12, 12) rotate(-180) translate(-12, -12)" points="0 0 24 0 24 24 0 24"></polygon>
                    <path d="M5.40999985,2 L18.5800018,2 C19.6800019,2 20.5800018,2.909989 20.5800018,4.01998901 L20.5800018,6.23999023 C20.5800018,7.04999024 20.0800018,8.05999756 19.5800018,8.55999756 L15.2900009,12.3999939 C14.6900009,12.9099939 14.2900009,13.9200012 14.2900009,14.7200012 L14.2900009,19.0599976 C14.2900009,19.6699976 13.8899994,20.4699988 13.3899994,20.7799988 L12,21.7000122 C10.7,22.5100122 8.90999985,21.600011 8.90999985,19.980011 L8.90999985,14.6300049 C8.90999985,13.9200049 8.51000062,13.0100098 8.11000061,12.5100098 L4.31999969,8.47000122 C3.81999969,7.96000123 3.41999817,7.06001222 3.41999817,6.45001221 L3.41999817,4.13000488 C3.41999817,2.91000485 4.31999981,2 5.40999985,2 Z" id="Vector" fill="CURRENTCOLOR" opacity="0.400000006"></path>
                    <path d="M16.8800011,10 C14.2600012,10 12.1300011,12.1300001 12.1300011,14.75 C12.1300011,15.64 12.3799997,16.4800122 12.8199997,17.2000122 C13.6399997,18.5800122 15.150001,19.5 16.8800011,19.5 C18.6100011,19.5 20.1200024,18.5700122 20.9400024,17.2000122 C21.3800024,16.4900122 21.6300011,15.64 21.6300011,14.75 C21.6300011,12.1300001 19.5100012,10 16.8800011,10 Z M18.6599998,15.480011 L17.6300011,15.480011 L17.6300011,16.5499878 C17.6300011,16.9599878 17.2900011,17.2999878 16.8800011,17.2999878 C16.4700011,17.2999878 16.1300011,16.9599878 16.1300011,16.5499878 L16.1300011,15.480011 L15.1100006,15.480011 C14.7000006,15.480011 14.3600006,15.140011 14.3600006,14.730011 C14.3600006,14.320011 14.7000006,13.980011 15.1100006,13.980011 L16.1300011,13.980011 L16.1300011,13 C16.1300011,12.59 16.4700011,12.25 16.8800011,12.25 C17.2900011,12.25 17.6300011,12.59 17.6300011,13 L17.6300011,13.980011 L18.6599998,13.980011 C19.0699998,13.980011 19.4099998,14.320011 19.4099998,14.730011 C19.4099998,15.140011 19.0699998,15.480011 18.6599998,15.480011 Z" id="Vector" fill="CURRENTCOLOR"></path>
                </g>
            </g>
        </g>
    </g>
</svg>