<?xml version="1.0" encoding="UTF-8"?>
<svg width="24px" height="24px" viewBox="0 0 24 24" version="1.1" xmlns="http://www.w3.org/2000/svg" xmlns:xlink="http://www.w3.org/1999/xlink">
    <title>Icon/Filter-add/Bold</title>
    <defs>
        <path d="M5,0 L59,0 C61.7614237,-8.8817842e-16 64,2.23857625 64,5 L64,203 C64,205.761424 61.7614237,208 59,208 L5,208 C2.23857625,208 0,205.761424 0,203 L0,5 C0,2.23857625 2.23857625,0 5,0 Z" id="path-1"></path>
        <path d="M0,0 L24,0 L24,24 L0,24 L0,0 Z" id="path-2"></path>
    </defs>
    <g id="Icons" stroke="none" stroke-width="1" fill="none" fill-rule="evenodd">
        <g id="Basic-Search" transform="translate(-688, -282)" fill-rule="nonzero">
            <g id="Filter-add" transform="translate(668, 166)" xlink:href="#path-1">
                <g id="Icon/Filter-add/Bold" transform="translate(20, 116)" xlink:href="#path-2">
                    <polygon id="Vector" opacity="0" transform="translate(12, 12) rotate(-180) translate(-12, -12)" points="0 0 24 0 24 24 0 24"></polygon>
                    <path d="M16.8799992,10 C14.2599993,10 12.1300001,12.1300001 12.1300001,14.75 C12.1300001,15.64 12.3799997,16.4800007 12.8199997,17.2000008 C13.6399997,18.5800008 15.1499991,19.5 16.8799992,19.5 C18.6099992,19.5 20.1200005,18.5700008 20.9400005,17.2000008 C21.3800005,16.4900008 21.6300001,15.64 21.6300001,14.75 C21.6300001,12.1300001 19.5099993,10 16.8799992,10 Z M18.6599998,15.4799995 L17.6300001,15.4799995 L17.6300001,16.5499992 C17.6300001,16.9599992 17.2899992,17.2999992 16.8799992,17.2999992 C16.4699992,17.2999992 16.1300001,16.9599992 16.1300001,16.5499992 L16.1300001,15.4799995 L15.1099997,15.4799995 C14.6999997,15.4799995 14.3599997,15.1399995 14.3599997,14.7299995 C14.3599997,14.3199995 14.6999997,13.9799995 15.1099997,13.9799995 L16.1300001,13.9799995 L16.1300001,13 C16.1300001,12.59 16.4699992,12.25 16.8799992,12.25 C17.2899992,12.25 17.6300001,12.59 17.6300001,13 L17.6300001,13.9799995 L18.6599998,13.9799995 C19.0699998,13.9799995 19.4099998,14.3199995 19.4099998,14.7299995 C19.4099998,15.1399995 19.0699998,15.4799995 18.6599998,15.4799995 Z" id="Vector" fill="CURRENTCOLOR"></path>
                    <path d="M20.5799999,4.01999998 L20.5799999,6.23999977 C20.5799999,7.04999977 20.0799999,8.0599997 19.5799999,8.56999969 L19.3999996,8.72999954 C19.2599996,8.85999954 19.0500008,8.88999992 18.8700008,8.82999992 C18.6700008,8.75999992 18.4700005,8.70999985 18.2700005,8.65999985 C17.8300005,8.54999985 17.3599992,8.5 16.8799992,8.5 C13.4299991,8.5 10.6300001,11.3 10.6300001,14.75 C10.6300001,15.89 10.9399998,17.0099993 11.5299997,17.9699993 C12.0299997,18.8099993 12.7299998,19.5099995 13.4899998,19.9799995 C13.7199998,20.1299995 13.8099997,20.4499992 13.6099997,20.6299992 C13.5399997,20.6899992 13.4699996,20.7400009 13.3999996,20.7900009 L12,21.7000008 C10.7,22.5100008 8.90999985,21.5999995 8.90999985,19.9799995 L8.90999985,14.6300001 C8.90999985,13.9200001 8.50999966,13.0100002 8.10999966,12.5100002 L4.32000017,8.47000027 C3.82000017,7.96000028 3.42000008,7.04999983 3.42000008,6.44999981 L3.42000008,4.11999989 C3.42000008,2.90999985 4.31999981,2 5.40999985,2 L18.5900002,2 C19.6800002,2 20.5799999,2.90999997 20.5799999,4.01999998 Z" id="Vector" fill="CURRENTCOLOR"></path>
                </g>
            </g>
        </g>
    </g>
</svg>