<?xml version="1.0" encoding="UTF-8"?>
<svg width="24px" height="24px" viewBox="0 0 24 24" version="1.1" xmlns="http://www.w3.org/2000/svg" xmlns:xlink="http://www.w3.org/1999/xlink">
    <title>Icon/Camera-Off/Bulk</title>
    <defs>
        <path d="M5,0 L59,0 C61.7614237,-8.8817842e-16 64,2.23857625 64,5 L64,203 C64,205.761424 61.7614237,208 59,208 L5,208 C2.23857625,208 0,205.761424 0,203 L0,5 C0,2.23857625 2.23857625,0 5,0 Z" id="path-1"></path>
        <path d="M0,0 L24,0 L24,24 L0,24 L0,0 Z" id="path-2"></path>
    </defs>
    <g id="Icons" stroke="none" stroke-width="1" fill="none" fill-rule="evenodd">
        <g id="Video,-Audio" transform="translate(-376, -327)" fill="#28303F" fill-rule="nonzero">
            <g id="camera-off" transform="translate(356, 166)" xlink:href="#path-1">
                <g id="Icon/Camera-Off/Bulk" transform="translate(20, 161)" xlink:href="#path-2">
                    <path d="M13.6796322,2.75000024 C14.3483386,2.75000024 14.9728012,3.08420253 15.3437328,3.64059985 L16.75,5.75000024 L17.75,5.75000024 C19.9591389,5.75000024 21.75,7.54086137 21.75,9.75000024 L21.75,16.7500002 C21.75,18.9591391 19.9591389,20.7500002 17.75,20.7500002 L5.75,20.7500002 C3.54086089,20.7500002 1.75,18.9591391 1.75,16.7500002 L1.75,9.75000024 C1.75,7.54086137 3.54086113,5.75000024 5.75,5.75000024 L6.75,5.75000024 L8.15626717,3.64059949 C8.52719867,3.08420217 9.1516614,2.75000024 9.82036781,2.75000024 L13.6796322,2.75000024 Z M9.85968494,10.9204104 C9.18262243,11.4704627 8.75,12.3097417 8.75,13.2500651 C8.75,14.9069194 10.0931457,16.2500651 11.75,16.2500651 C12.6903233,16.2500651 13.5296024,15.8174425 14.0796547,15.1403801 Z" id="Vector" opacity="0.400000006"></path>
                    <circle id="Ellipse-354" cx="11.75" cy="5.75000024" r="1"></circle>
                    <path d="M2.28033066,1.21966992 L22.2803307,21.2196693 C22.5732239,21.5125637 22.5732239,21.9874363 22.2803307,22.2803307 C21.9874375,22.5732231 21.5125625,22.5732231 21.2196693,22.2803307 L19.3545246,20.4151859 C18.8633624,20.6305103 18.3206351,20.75 17.75,20.75 L5.75,20.75 C3.54086113,20.75 1.75,18.9591389 1.75,16.75 L1.75,9.75 C1.75,7.86738348 3.05058777,6.28853512 4.80227876,5.86293936 L1.21966934,2.28033006 C0.926776886,1.98743686 0.926776886,1.51256312 1.21966934,1.21966992 C1.51256371,0.926776692 1.98743629,0.926776692 2.28033066,1.21966992 Z M9.85968494,10.9204104 C9.18262243,11.4704627 8.75,12.3097417 8.75,13.2500651 C8.75,14.9069194 10.0931457,16.2500651 11.75,16.2500651 C12.6903233,16.2500651 13.5296024,15.8174425 14.0796547,15.1403801 Z" id="Subtract"></path>
                    <path d="M11.7499914,10.25 C13.4068457,10.25 14.7499914,11.5931457 14.7499914,13.25 C14.7499914,13.3895534 14.7404625,13.5268812 14.7220201,13.6613684 L11.338623,10.2779713 C11.4731101,10.259529 11.6104382,10.25 11.7499914,10.25 Z" id="Vector"></path>
                </g>
            </g>
        </g>
    </g>
</svg>