<?xml version="1.0" encoding="UTF-8"?>
<svg width="24px" height="24px" viewBox="0 0 24 24" version="1.1" xmlns="http://www.w3.org/2000/svg" xmlns:xlink="http://www.w3.org/1999/xlink">
    <title>Icon/Camera-Off/Outline</title>
    <defs>
        <path d="M5,0 L59,0 C61.7614237,-8.8817842e-16 64,2.23857625 64,5 L64,203 C64,205.761424 61.7614237,208 59,208 L5,208 C2.23857625,208 0,205.761424 0,203 L0,5 C0,2.23857625 2.23857625,0 5,0 Z" id="path-1"></path>
        <path d="M0,0 L24,0 L24,24 L0,24 L0,0 Z" id="path-2"></path>
    </defs>
    <g id="Icons" stroke="none" stroke-width="1" fill="none" fill-rule="evenodd">
        <g id="Video,-Audio" transform="translate(-376, -183)" fill="CURRENTCOLOR" fill-rule="nonzero">
            <g id="camera-off" transform="translate(356, 166)" xlink:href="#path-1">
                <g id="Icon/Camera-Off/Outline" transform="translate(20, 17)" xlink:href="#path-2">
                    <path d="M2.53033009,1.46966991 L22.5303301,21.4696699 C22.8232233,21.7625631 22.8232233,22.2374369 22.5303301,22.5303301 C22.2374369,22.8232233 21.7625631,22.8232233 21.4696699,22.5303301 L20.1648904,21.2255506 C19.5035485,21.5684231 18.7647014,21.75 18,21.75 L6,21.75 C3.3766474,21.75 1.25,19.6233525 1.25,17 L1.25,10 C1.25,7.91929922 2.58783177,6.15106561 4.45235313,5.51301331 L1.46966991,2.53033009 C1.1767767,2.23743687 1.1767767,1.76256313 1.46966991,1.46966991 C1.76256313,1.1767767 2.23743687,1.1767767 2.53033009,1.46966991 Z M2.75,10 L2.75,17 C2.75,18.7949254 4.20507454,20.25 6,20.25 L18,20.25 C18.3535324,20.25 18.6981037,20.1936674 19.0232585,20.0839187 L14.8617365,15.9223966 C14.1647861,16.7471132 13.1281228,17.25 12,17.25 C9.92893045,17.25 8.25,15.5710717 8.25,13.5 C8.25,12.3759253 8.74917791,11.3382687 9.57807519,10.6387354 L5.70427276,6.76493295 C4.04770781,6.91292006 2.75,8.30491221 2.75,10 Z M16.2177705,3.47457452 L17.4013878,5.25 L18,5.25 C20.6233524,5.25 22.75,7.37664757 22.75,10 L22.75,17 C22.75,17.3618983 22.7093899,17.7190593 22.629639,18.066461 C22.5369612,18.4701734 22.1345574,18.7223168 21.730845,18.629639 C21.3271326,18.5369612 21.0749893,18.1345574 21.1676671,17.730845 C21.2221905,17.4933366 21.25,17.2487548 21.25,17 L21.25,10 C21.25,8.20507469 19.7949253,6.75 18,6.75 L17,6.75 C16.7492351,6.75 16.5150617,6.62467418 16.3759623,6.41602521 L14.9696952,4.30662494 C14.7378627,3.95887631 14.3475739,3.75 13.9296322,3.75 L10.0703678,3.75 C9.65242609,3.75 9.26213704,3.95887624 9.03030459,4.30662484 L8.82403723,4.6160254 C8.59427264,4.96067175 8.12862057,5.05380182 7.78397422,4.82403723 C7.43932787,4.59427264 7.34619779,4.12862057 7.57596238,3.78397422 L7.78222949,3.47457404 C8.29226042,2.70952781 9.15089647,2.25 10.0703678,2.25 L13.9296322,2.25 C14.8491037,2.25 15.7077394,2.70952807 16.2177705,3.47457452 Z M9.75,13.5 C9.75,14.7426442 10.7573571,15.75 12,15.75 C12.7204707,15.75 13.3785415,15.4084544 13.7954673,14.8561274 L10.6440828,11.704743 C10.08851,12.1238905 9.75,12.7821455 9.75,13.5 Z" id="Vector"></path>
                    <circle id="Ellipse-352" cx="12" cy="6" r="1"></circle>
                </g>
            </g>
        </g>
    </g>
</svg>