<?xml version="1.0" encoding="UTF-8"?>
<svg width="24px" height="24px" viewBox="0 0 24 24" version="1.1" xmlns="http://www.w3.org/2000/svg" xmlns:xlink="http://www.w3.org/1999/xlink">
    <title>Icon/Camera-Off/Bold</title>
    <defs>
        <path d="M5,0 L59,0 C61.7614237,-8.8817842e-16 64,2.23857625 64,5 L64,203 C64,205.761424 61.7614237,208 59,208 L5,208 C2.23857625,208 0,205.761424 0,203 L0,5 C0,2.23857625 2.23857625,0 5,0 Z" id="path-1"></path>
        <path d="M0,0 L24,0 L24,24 L0,24 L0,0 Z" id="path-2"></path>
    </defs>
    <g id="Icons" stroke="none" stroke-width="1" fill="none" fill-rule="evenodd">
        <g id="Video,-Audio" transform="translate(-376, -279)" fill="CURRENTCOLOR" fill-rule="nonzero">
            <g id="camera-off" transform="translate(356, 166)" xlink:href="#path-1">
                <g id="Icon/Camera-Off/Bold" transform="translate(20, 113)" xlink:href="#path-2" fill-rule="evenodd">
                    <path d="M1.21966934,2.28033006 C0.926776886,1.98743689 0.926776886,1.51256309 1.21966934,1.21966992 C1.51256371,0.926776692 1.98743629,0.926776692 2.28033066,1.21966992 L22.2803307,21.2196693 C22.5732231,21.5125637 22.5732231,21.9874363 22.2803307,22.2803307 C21.9874363,22.5732231 21.5125637,22.5732231 21.2196693,22.2803307 L19.3545227,20.415184 C18.8633614,20.6305084 18.3206348,20.75 17.75,20.75 L5.75,20.75 C3.54086089,20.75 1.75,18.9591389 1.75,16.75 L1.75,9.75 C1.75,7.86738348 3.05058765,6.28853512 4.80227876,5.86293936 L1.21966934,2.28033006 Z M9.85969639,10.9203568 C9.18262768,11.4704084 8.75,12.3096924 8.75,13.250021 C8.75,14.9068747 10.0931454,16.250021 11.75,16.250021 C12.6903286,16.250021 13.5296125,15.8173933 14.0796642,15.1403246 L9.85969639,10.9203568 Z M9.82036781,2.75 L13.6796322,2.75 C14.3483391,2.75 14.9728012,3.08420229 15.3437328,3.64059973 L16.75,5.75 L17.75,5.75 C19.9591389,5.75 21.75,7.54086113 21.75,9.75 L21.75,16.75 C21.75,17.0589867 21.7149658,17.3597889 21.648653,17.648653 L7.94999981,3.94999981 L8.15626717,3.64059925 C8.52719879,3.08420181 9.15166092,2.75 9.82036781,2.75 Z M11.75,6.75 C12.3022852,6.75 12.75,6.30228472 12.75,5.75 C12.75,5.19771528 12.3022852,4.75 11.75,4.75 C11.1977148,4.75 10.75,5.19771528 10.75,5.75 C10.75,6.30228472 11.1977148,6.75 11.75,6.75 Z" id="Vector"></path>
                </g>
            </g>
        </g>
    </g>
</svg>