<?xml version="1.0" encoding="UTF-8"?>
<svg width="24px" height="24px" viewBox="0 0 24 24" version="1.1" xmlns="http://www.w3.org/2000/svg" xmlns:xlink="http://www.w3.org/1999/xlink">
    <title>Refresh-Bold</title>
    <g id="Refresh-Bold" stroke="none" fill="none" fill-rule="evenodd" stroke-width="1">
        <g id="Layer_1" fill="CURRENTCOLOR">
            <path d="M17,2 L7,2 C4.238586,2 2,4.238586 2,7 L2,17 C2,19.761414 4.238586,22 7,22 L17,22 C19.761414,22 22,19.761414 22,17 L22,7 C22,4.238586 19.761414,2 17,2 Z M18.75,10.75 L13.333008,10.75 C12.918946,10.75 12.583008,10.414062 12.583008,10 C12.583008,9.585938 12.918946,9.25 13.333008,9.25 L16.456177,9.25 C16.262635,8.936646 16.048523,8.636658 15.791992,8.369629 C14.791992,7.324707 13.445312,6.75 12,6.75 C9.10498,6.75 6.75,9.10498 6.75,12 C6.75,14.894531 9.10498,17.25 12,17.25 C14.894531,17.25 17.25,14.894531 17.25,12 C17.25,11.585938 17.585938,11.25 18,11.25 C18.414062,11.25 18.75,11.585938 18.75,12 C18.75,15.72168 15.72168,18.75 12,18.75 C8.277832,18.75 5.25,15.72168 5.25,12 C5.25,8.277832 8.277832,5.25 12,5.25 C13.858398,5.25 15.589844,5.989258 16.875,7.331543 C17.011597,7.47406 17.126709,7.633789 17.25,7.787109 L17.25,6 C17.25,5.585938 17.585938,5.25 18,5.25 C18.414062,5.25 18.75,5.585938 18.75,6 L18.75,10.75 Z" id="Shape" fill-rule="nonzero"></path>
        </g>
    </g>
</svg>