<?xml version="1.0" encoding="UTF-8"?>
<svg width="24px" height="24px" viewBox="0 0 24 24" version="1.1" xmlns="http://www.w3.org/2000/svg" xmlns:xlink="http://www.w3.org/1999/xlink">
    <title>Icon/Refresh/Outline</title>
    <defs>
        <path d="M5,0 L59,0 C61.7614237,-8.8817842e-16 64,2.23857625 64,5 L64,203 C64,205.761424 61.7614237,208 59,208 L5,208 C2.23857625,208 0,205.761424 0,203 L0,5 C0,2.23857625 2.23857625,0 5,0 Z" id="path-1"></path>
        <path d="M0,0 L24,0 L24,24 L0,24 L0,0 Z" id="path-2"></path>
    </defs>
    <g id="Icons" stroke="none" stroke-width="1" fill="none" fill-rule="evenodd">
        <g id="Basic-Actions" transform="translate(-792, -186)" fill="CURRENTCOLOR" fill-rule="nonzero">
            <g id="Refresh" transform="translate(772, 166)" xlink:href="#path-1">
                <g id="Icon/Refresh/Outline" transform="translate(20, 20)" xlink:href="#path-2">
                    <path d="M2.25,12 C2.25,11.5857864 2.58578643,11.25 3,11.25 C3.41421357,11.25 3.75,11.5857864 3.75,12 C3.75,16.5563493 7.44365072,20.25 12,20.25 C16.5563493,20.25 20.25,16.5563493 20.25,12 C20.25,7.44365072 16.5563493,3.75 12,3.75 C9.65767765,3.75 7.54463768,4.72540998 6.04199219,6.29394531 C5.46654516,6.89465505 4.98111406,7.58202446 4.60742187,8.33398438 C4.42306395,8.70487335 3.97247601,8.85620327 3.6015625,8.671875 C3.2306655,8.48752052 3.07934178,8.0369328 3.26367188,7.66601562 C3.70555452,6.77686131 4.27879816,5.96488982 4.95800781,5.25585938 C6.73184597,3.4041481 9.23193026,2.25 12,2.25 C17.3847766,2.25 21.75,6.61522341 21.75,12 C21.75,17.3847766 17.3847766,21.75 12,21.75 C6.61522341,21.75 2.25,17.3847766 2.25,12 Z" id="Ellipse-133-(Stroke)" transform="translate(12, 12) scale(-1, 1) translate(-12, -12)"></path>
                    <path d="M13.25,3 C13.25,2.58578643 13.5857864,2.25 14,2.25 C14.4142136,2.25 14.75,2.58578643 14.75,3 L14.75,8.25 L21,8.25 C21.4142136,8.25 21.75,8.58578643 21.75,9 C21.75,9.41421357 21.4142136,9.75 21,9.75 L13.25,9.75 L13.25,3 Z" id="Vector-(Stroke)" transform="translate(17.5, 6) scale(-1, 1) translate(-17.5, -6)"></path>
                </g>
            </g>
        </g>
    </g>
</svg>