<?xml version="1.0" encoding="UTF-8"?>
<svg width="24px" height="24px" viewBox="0 0 24 24" version="1.1" xmlns="http://www.w3.org/2000/svg" xmlns:xlink="http://www.w3.org/1999/xlink">
    <title>Icon/Refresh/Linear</title>
    <defs>
        <path d="M5,0 L59,0 C61.7614237,-8.8817842e-16 64,2.23857625 64,5 L64,203 C64,205.761424 61.7614237,208 59,208 L5,208 C2.23857625,208 0,205.761424 0,203 L0,5 C0,2.23857625 2.23857625,0 5,0 Z" id="path-1"></path>
        <path d="M0,0 L24,0 L24,24 L0,24 L0,0 Z" id="path-2"></path>
    </defs>
    <g id="Icons" stroke="none" stroke-width="1" fill="none" fill-rule="evenodd" stroke-linecap="round">
        <g id="Basic-Actions" transform="translate(-792, -234)" fill-rule="nonzero" stroke="CURRENTCOLOR" stroke-width="1.5">
            <g id="Refresh" transform="translate(772, 166)" xlink:href="#path-1">
                <g id="Icon/Refresh/Linear" transform="translate(20, 68)" xlink:href="#path-2">
                    <path d="M3,12 C3,16.9705629 7.02943707,21 12,21 C16.9705629,21 21,16.9705629 21,12 C21,7.02943707 16.9705629,3 12,3 C9.444767,3 7.1382463,4.06486428 5.5,5.77503109 C4.87265801,6.429914 4.34331128,7.17942351 3.93551958,8" id="Ellipse-133" transform="translate(12, 12) scale(-1, 1) translate(-12, -12)"></path>
                    <polyline id="Vector" transform="translate(17.5, 6) scale(-1, 1) translate(-17.5, -6)" points="21 9 14 9 14 3"></polyline>
                </g>
            </g>
        </g>
    </g>
</svg>