<?xml version="1.0" encoding="UTF-8"?>
<svg width="24px" height="24px" viewBox="0 0 24 24" version="1.1" xmlns="http://www.w3.org/2000/svg" xmlns:xlink="http://www.w3.org/1999/xlink">
    <title>Icon/Logout/Bold</title>
    <defs>
        <path d="M5,0 L59,0 C61.7614237,-8.8817842e-16 64,2.23857625 64,5 L64,203 C64,205.761424 61.7614237,208 59,208 L5,208 C2.23857625,208 0,205.761424 0,203 L0,5 C0,2.23857625 2.23857625,0 5,0 Z" id="path-1"></path>
        <path d="M0,0 L24,0 L24,24 L0,24 L0,0 Z" id="path-2"></path>
    </defs>
    <g id="Icons" stroke="none" stroke-width="1" fill="none" fill-rule="evenodd">
        <g id="Basic-Users" transform="translate(-792, -530)" fill-rule="nonzero">
            <g id="logout" transform="translate(772, 414)" xlink:href="#path-1">
                <g id="Icon/Logout/Bold" transform="translate(20, 116)" xlink:href="#path-2">
                    <path d="M16.7999992,2 L14.1999998,2 C11,2 9,4 9,7.19999981 L9,11.25 L15.25,11.25 C15.66,11.25 16,11.59 16,12 C16,12.41 15.66,12.75 15.25,12.75 L9,12.75 L9,16.7999992 C9,20 11,22 14.1999998,22 L16.7900009,22 C19.990001,22 21.990037,20 21.990037,16.7999992 L21.990037,7.19999981 C22,4 20,2 16.7999992,2 Z" id="Vector" fill="CURRENTCOLOR"></path>
                    <path d="M4.56042957,11.250088 L6.63042974,9.18008828 C6.78042975,9.03008828 6.85042953,8.84008759 6.85042953,8.65008759 C6.85042953,8.4600876 6.78042975,8.26008789 6.63042974,8.12008789 C6.34042975,7.8300879 5.86042979,7.8300879 5.5704298,8.12008789 L2.22042969,11.4700882 C1.9304297,11.7600882 1.9304297,12.240088 2.22042969,12.5300879 L5.5704298,15.8800883 C5.86042979,16.1700883 6.34042975,16.1700883 6.63042974,15.8800883 C6.92042974,15.5900883 6.92042974,15.1100879 6.63042974,14.8200879 L4.56042957,12.7500882 L9.00042963,12.7500882 L9.00042963,11.250088 L4.56042957,11.250088 L4.56042957,11.250088 Z" id="Vector" fill="CURRENTCOLOR"></path>
                    <polygon id="Vector" opacity="0" transform="translate(12, 12) rotate(-180) translate(-12, -12)" points="0 0 24 0 24 24 0 24"></polygon>
                </g>
            </g>
        </g>
    </g>
</svg>