<?xml version="1.0" encoding="UTF-8"?>
<svg width="24px" height="24px" viewBox="0 0 24 24" version="1.1" xmlns="http://www.w3.org/2000/svg" xmlns:xlink="http://www.w3.org/1999/xlink">
    <title>Icon/Logout/Outline</title>
    <defs>
        <path d="M5,0 L59,0 C61.7614237,-8.8817842e-16 64,2.23857625 64,5 L64,203 C64,205.761424 61.7614237,208 59,208 L5,208 C2.23857625,208 0,205.761424 0,203 L0,5 C0,2.23857625 2.23857625,0 5,0 Z" id="path-1"></path>
        <path d="M0,0 L24,0 L24,24 L0,24 L0,0 Z" id="path-2"></path>
    </defs>
    <g id="Icons" stroke="none" stroke-width="1" fill="none" fill-rule="evenodd">
        <g id="Basic-Users" transform="translate(-792, -434)" fill-rule="nonzero">
            <g id="logout" transform="translate(772, 414)" xlink:href="#path-1">
                <g id="Icon/Logout/Outline" transform="translate(20, 20)" xlink:href="#path-2">
                    <path d="M15.2395267,22.2699814 L15.1095266,22.2699814 C10.6695266,22.2699814 8.52952679,20.5199814 8.15952678,16.5999813 C8.11952678,16.1899813 8.41952708,15.8199797 8.83952707,15.7799797 C9.23952708,15.7399797 9.61952683,16.04998 9.65952682,16.45998 C9.94952682,19.5999801 11.4295268,20.7699814 15.1195269,20.7699814 L15.249527,20.7699814 C19.3195271,20.7699814 20.7595272,19.3299813 20.7595272,15.2599812 L20.7595272,8.73998022 C20.7595272,4.66998005 19.3195271,3.22998047 15.249527,3.22998047 L15.1195269,3.22998047 C11.4095268,3.22998047 9.92952684,4.41998029 9.65952682,7.61998034 C9.60952682,8.02998033 9.25952706,8.33998064 8.83952707,8.29998064 C8.41952708,8.26998064 8.11952655,7.89998022 8.14952655,7.48998022 C8.48952655,3.5099802 10.6395268,1.72998047 15.1095266,1.72998047 L15.2395267,1.72998047 C20.1495266,1.72998047 22.249527,3.82998037 22.249527,8.73998022 L22.249527,15.2599812 C22.249527,20.169981 20.1495266,22.2699814 15.2395267,22.2699814 Z" id="Vector" fill="CURRENTCOLOR"></path>
                    <path d="M15,12.75 L3.61999989,12.75 C3.20999989,12.75 2.86999989,12.41 2.86999989,12 C2.86999989,11.59 3.20999989,11.25 3.61999989,11.25 L15,11.25 C15.41,11.25 15.75,11.59 15.75,12 C15.75,12.41 15.41,12.75 15,12.75 Z" id="Vector" fill="CURRENTCOLOR"></path>
                    <path d="M5.85042953,16.1000881 C5.66042954,16.1000881 5.47042981,16.0300883 5.3204298,15.8800883 L1.97042969,12.5300879 C1.6804297,12.240088 1.6804297,11.7600882 1.97042969,11.4700882 L5.3204298,8.12008789 C5.61042979,7.8300879 6.09042975,7.8300879 6.38042974,8.12008789 C6.67042974,8.41008788 6.67042974,8.89008829 6.38042974,9.18008828 L3.56042957,12.0000882 L6.38042974,14.8200879 C6.67042974,15.1100879 6.67042974,15.5900883 6.38042974,15.8800883 C6.24042974,16.0300883 6.04042953,16.1000881 5.85042953,16.1000881 Z" id="Vector" fill="CURRENTCOLOR"></path>
                    <polygon id="Vector" opacity="0" points="0 0 24 0 24 24 0 24"></polygon>
                </g>
            </g>
        </g>
    </g>
</svg>