<?xml version="1.0" encoding="UTF-8"?>
<svg width="24px" height="24px" viewBox="0 0 24 24" version="1.1" xmlns="http://www.w3.org/2000/svg" xmlns:xlink="http://www.w3.org/1999/xlink">
    <title>Icon/Logout/Bulk</title>
    <defs>
        <path d="M5,0 L59,0 C61.7614237,-8.8817842e-16 64,2.23857625 64,5 L64,203 C64,205.761424 61.7614237,208 59,208 L5,208 C2.23857625,208 0,205.761424 0,203 L0,5 C0,2.23857625 2.23857625,0 5,0 Z" id="path-1"></path>
        <path d="M0,0 L24,0 L24,24 L0,24 L0,0 Z" id="path-2"></path>
    </defs>
    <g id="Icons" stroke="none" stroke-width="1" fill="none" fill-rule="evenodd">
        <g id="Basic-Users" transform="translate(-792, -578)" fill-rule="nonzero">
            <g id="logout" transform="translate(772, 414)" xlink:href="#path-1">
                <g id="Icon/Logout/Bulk" transform="translate(20, 164)" xlink:href="#path-2">
                    <path d="M9,7.19999981 L9,16.7900009 C9,20 11,22 14.1999998,22 L16.7900009,22 C19.990001,22 21.990037,20 21.990037,16.7999992 L21.990037,7.19999981 C22,4 20,2 16.7999992,2 L14.1999998,2 C11,2 9,4 9,7.19999981 Z" id="Vector" fill="CURRENTCOLOR" opacity="0.400000006"></path>
                    <path d="M5.5704298,8.12001954 L2.22042969,11.4700198 C1.9304297,11.7600198 1.9304297,12.2400193 2.22042969,12.5300193 L5.5704298,15.8800197 C5.86042979,16.1700197 6.34042975,16.1700197 6.63042974,15.8800197 C6.92042974,15.5900197 6.92042974,15.1100192 6.63042974,14.8200192 L4.56042957,12.7500196 L15.2504301,12.7500196 C15.6604301,12.7500196 16.0004301,12.4100195 16.0004301,12.0000196 C16.0004301,11.5900196 15.6604301,11.2500196 15.2504301,11.2500196 L4.56042957,11.2500196 L6.63042974,9.18001997 C6.78042975,9.03001997 6.85042953,8.84001929 6.85042953,8.65001929 C6.85042953,8.46001929 6.78042975,8.26001954 6.63042974,8.12001954 C6.34042975,7.82001953 5.87042981,7.82001953 5.5704298,8.12001954 Z" id="Vector" fill="CURRENTCOLOR"></path>
                    <polygon id="Vector" opacity="0" points="0 0 24 0 24 24 0 24"></polygon>
                </g>
            </g>
        </g>
    </g>
</svg>