<?xml version="1.0" encoding="UTF-8"?>
<svg width="24px" height="24px" viewBox="0 0 24 24" version="1.1" xmlns="http://www.w3.org/2000/svg" xmlns:xlink="http://www.w3.org/1999/xlink">
    <title>Icon/Logout/Linear</title>
    <defs>
        <path d="M5,0 L59,0 C61.7614237,-8.8817842e-16 64,2.23857625 64,5 L64,203 C64,205.761424 61.7614237,208 59,208 L5,208 C2.23857625,208 0,205.761424 0,203 L0,5 C0,2.23857625 2.23857625,0 5,0 Z" id="path-1"></path>
        <path d="M0,0 L24,0 L24,24 L0,24 L0,0 Z" id="path-2"></path>
    </defs>
    <g id="Icons" stroke="none" stroke-width="1" fill="none" fill-rule="evenodd">
        <g id="Basic-Users" transform="translate(-792, -482)" fill-rule="nonzero">
            <g id="logout" transform="translate(772, 414)" xlink:href="#path-1">
                <g id="Icon/Logout/Linear" transform="translate(20, 68)" xlink:href="#path-2">
                    <path d="M8.90039062,7.55998993 C9.21039063,3.95999002 11.0603905,2.48999023 15.1103907,2.48999023 L15.2403908,2.48999023 C19.7103906,2.48999023 21.500391,4.27999067 21.500391,8.74999046 L21.500391,15.2699909 C21.500391,19.7399907 19.7103906,21.5299911 15.2403908,21.5299911 L15.1103907,21.5299911 C11.0903907,21.5299911 9.24039087,20.0799913 8.91039085,16.5399914" id="Vector" stroke="CURRENTCOLOR" stroke-width="1.5" stroke-linecap="round" stroke-linejoin="round"></path>
                    <line x1="15" y1="12" x2="3.61999989" y2="12" id="Vector" stroke="CURRENTCOLOR" stroke-width="1.5" stroke-linecap="round" stroke-linejoin="round"></line>
                    <polyline id="Vector" stroke="CURRENTCOLOR" stroke-width="1.5" stroke-linecap="round" stroke-linejoin="round" points="5.8499999 8.64999962 2.5 12 5.8499999 15.3500004"></polyline>
                    <polygon id="Vector" opacity="0" transform="translate(12, 12) rotate(-180) translate(-12, -12)" points="0 0 24 0 24 24 0 24"></polygon>
                </g>
            </g>
        </g>
    </g>
</svg>