<?xml version="1.0" encoding="UTF-8"?>
<svg width="24px" height="24px" viewBox="0 0 24 24" version="1.1" xmlns="http://www.w3.org/2000/svg" xmlns:xlink="http://www.w3.org/1999/xlink">
    <title>Icon/Umberlla/Outline</title>
    <defs>
        <path d="M5,0 L59,0 C61.7614237,-8.8817842e-16 64,2.23857625 64,5 L64,203 C64,205.761424 61.7614237,208 59,208 L5,208 C2.23857625,208 0,205.761424 0,203 L0,5 C0,2.23857625 2.23857625,0 5,0 Z" id="path-1"></path>
        <path d="M0,0 L24,0 L24,24 L0,24 L0,0 Z" id="path-2"></path>
    </defs>
    <g id="Icons" stroke="none" stroke-width="1" fill="none" fill-rule="evenodd">
        <g id="Weather" transform="translate(-168, -682)" fill-rule="nonzero">
            <g id="Umbrella" transform="translate(148, 662)" xlink:href="#path-1">
                <g id="Icon/Umberlla/Outline" transform="translate(20, 20)" xlink:href="#path-2">
                    <use fill="#FFFFFF" fill-rule="evenodd" xlink:href="#path-2"></use>
                    <path d="M22.6,13 C22,7.7 18.2,3.9 13.1,3.3 L13.1,2.4 C13.1,2 12.8,1.6 12.3,1.6 C11.8,1.6 11.6,2 11.6,2.4 L11.6,3.3 L11.2,3.3 C6.1,3.6 2.1,7.5 1.4,13 C1.3,13.7 1.6,14.5 2.3,15 C2.9,15.5 3.9,15.4 4.6,14.9 C5.5,14.3 6.6,14.3 7.3,15 C7.7,15.4 8.3,15.7 8.9,15.7 C9.5,15.7 10.1,15.5 10.6,15 C10.8,14.8 11.2,14.7 11.6,14.7 L11.6,19.3 C11.6,20.2 10.8,20.8 10.1,20.8 C9.3,20.8 8.5,20 8.5,19.3 C8.5,18.9 8.2,18.5 7.7,18.5 C7.2,18.5 7,18.9 7,19.3 C7,20.9 8.4,22.3 10.1,22.3 C11.7,22.3 13.1,20.9 13.1,19.3 C13.1,19.3 13.1,19.3 13.1,19.3 L13.1,14.8 C13.2,14.9 13.3,14.9 13.4,15 C13.8,15.4 14.4,15.6 15,15.6 C15.7,15.6 16.2,15.4 16.6,15 C17.3,14.3 18.6,14.3 19.3,14.8 C19.9,15.2 20.8,15.3 21.5,15 L21.6,14.9 C22.4,14.5 22.8,13.7 22.6,13 Z M20.9,13.8 C20.7,13.9 20.5,13.9 20.3,13.7 C18.9,12.7 16.9,12.8 15.6,14 C15.6,14 15.4,14.2 15,14.2 C14.6,14.2 14.5,14.1 14.4,14 C14,13.6 13.4,13.4 13,13.3 L13,12.9 C13,12.5 12.7,12.1 12.2,12.1 C11.7,12.1 11.4,12.4 11.4,12.9 L11.4,13.3 L11.4,13.3 C10.7,13.4 9.9,13.5 9.4,14 C9,14.3 8.4,14.4 8.1,14 C6.9,12.8 4.9,12.7 3.4,13.7 C3.2,13.8 3,13.9 2.9,13.8 C2.7,13.6 2.6,13.4 2.6,13.2 C3.5,8.4 6.9,5 11.3,4.8 L12.7,4.8 C17.2,5.2 20.6,8.6 21.1,13.3 C21.2,13.4 21.1,13.6 20.9,13.8 Z" id="Shape" fill="CURRENTCOLOR" fill-rule="nonzero"></path>
                </g>
            </g>
        </g>
    </g>
</svg>
