<?xml version="1.0" encoding="UTF-8"?>
<svg width="24px" height="24px" viewBox="0 0 24 24" version="1.1" xmlns="http://www.w3.org/2000/svg" xmlns:xlink="http://www.w3.org/1999/xlink">
    <title>Icon/Umberlla/Bold</title>
    <defs>
        <path d="M5,0 L59,0 C61.7614237,-8.8817842e-16 64,2.23857625 64,5 L64,203 C64,205.761424 61.7614237,208 59,208 L5,208 C2.23857625,208 0,205.761424 0,203 L0,5 C0,2.23857625 2.23857625,0 5,0 Z" id="path-1"></path>
        <path d="M0,0 L24,0 L24,24 L0,24 L0,0 Z" id="path-2"></path>
    </defs>
    <g id="Icons" stroke="none" stroke-width="1" fill="none" fill-rule="evenodd">
        <g id="Weather" transform="translate(-168, -778)" fill-rule="nonzero">
            <g id="Umbrella" transform="translate(148, 662)" xlink:href="#path-1">
                <g id="Icon/Umberlla/Bold" transform="translate(20, 116)" xlink:href="#path-2">
                    <use fill="#FFFFFF" fill-rule="evenodd" xlink:href="#path-2"></use>
                    <path d="M12.7520161,3.67999995 L12.7520161,2.75 C12.7520161,2.34 12.4120161,2 12.0020161,2 C11.5920161,2 11.2520161,2.34 11.2520161,2.75 L11.2520161,3.67999995 C6.47201586,4.02999994 2.72201806,7.68000031 2.01201808,12.8100004 C1.94201808,13.3300004 2.1820187,13.8300002 2.62201869,14.0900002 C3.06201869,14.3500001 3.61201248,14.3100002 4.02201247,14.0100002 C5.13201249,13.1700003 6.72201824,13.2600001 7.7620182,14.21 C8.3920182,14.79 9.38201272,14.79 10.0220127,14.21 C10.4420127,13.8200001 10.9620182,13.5799998 11.5120182,13.4899998 L11.5120182,19 C11.5120182,19.83 10.8420182,20.5 10.0120182,20.5 C9.6120182,20.5 9.23201302,20.3399995 8.95201302,20.0599995 C8.67201301,19.7799995 8.5120182,19.4 8.5120182,19 C8.5120182,18.6 8.1720182,18.25 7.7620182,18.25 C7.35201821,18.25 7.0120182,18.59 7.0120182,19 C7.0120182,19.8 7.32201546,20.5500008 7.89201546,21.1200008 C8.46201545,21.6900008 9.21201819,22 10.0120182,22 C11.6620182,22 13.0120182,20.65 13.0120182,19 L13.0120182,13.6199999 C13.3720182,13.7499999 13.7120161,13.94 14.0020161,14.21 C14.3220161,14.5 14.7220133,14.6499996 15.1320133,14.6499996 C15.5420133,14.6499996 15.9420182,14.5 16.2620182,14.21 C17.2920182,13.2600001 18.8820161,13.1700003 20.0020161,14.0100002 C20.4120161,14.3200002 20.9620176,14.3500001 21.4020176,14.0900002 C21.8420176,13.8300002 22.0820182,13.3300004 22.0120182,12.8100004 C21.3120182,7.68000031 17.5620127,4.01999995 12.7720127,3.67999995 L12.7520161,3.67999995 Z" id="Vector" fill="CURRENTCOLOR" fill-rule="nonzero"></path>
                </g>
            </g>
        </g>
    </g>
</svg>