<?xml version="1.0" encoding="UTF-8"?>
<svg width="24px" height="24px" viewBox="0 0 24 24" version="1.1" xmlns="http://www.w3.org/2000/svg" xmlns:xlink="http://www.w3.org/1999/xlink">
    <title>Icon/Umberlla/Linear</title>
    <defs>
        <path d="M5,0 L59,0 C61.7614237,-8.8817842e-16 64,2.23857625 64,5 L64,203 C64,205.761424 61.7614237,208 59,208 L5,208 C2.23857625,208 0,205.761424 0,203 L0,5 C0,2.23857625 2.23857625,0 5,0 Z" id="path-1"></path>
        <path d="M0,0 L24,0 L24,24 L0,24 L0,0 Z" id="path-2"></path>
    </defs>
    <g id="Icons" stroke="none" stroke-width="1" fill="none" fill-rule="evenodd">
        <g id="Weather" transform="translate(-168, -730)" fill-rule="nonzero">
            <g id="Umbrella" transform="translate(148, 662)" xlink:href="#path-1">
                <g id="Icon/Umberlla/Linear" transform="translate(20, 68)" xlink:href="#path-2">
                    <use fill="#FFFFFF" fill-rule="evenodd" xlink:href="#path-2"></use>
                    <path d="M12.8,13.9 C13.2,14 13.7,14.2 14,14.5 C14.3,14.8 14.7,14.9 15.1,14.9 C15.5,14.9 15.9,14.8 16.2,14.5 C17.2,13.6 18.8,13.5 19.9,14.3 C20.3,14.6 20.9,14.6 21.3,14.4 C21.7,14.1 22,13.6 21.9,13.1 C21.3,8 17.6,4.4 12.8,4 L12.8,4 L11.3,4 C6.5,4.3 2.8,8 2.1,13.1 C2,13.6 2.3,14.1 2.7,14.4 C3.1,14.7 3.7,14.6 4.1,14.3 C5.2,13.5 6.8,13.5 7.8,14.5 C8.4,15.1 9.4,15.1 10.1,14.5 C10.5,14.1 11.3,14 11.9,13.9" id="Vector_00000088837720716228216960000007619397630786783894_" stroke="CURRENTCOLOR" stroke-width="1.5"></path>
                    <path d="M12.4,19.3 C12.4,20.6 11.3,21.6 10.1,21.6 C8.9,21.6 7.8,20.5 7.8,19.3" id="Path" stroke="CURRENTCOLOR" stroke-width="1.5" stroke-linecap="round" stroke-linejoin="round"></path>
                    <line x1="12.4" y1="19.3" x2="12.4" y2="12.8" id="Path" stroke="CURRENTCOLOR" stroke-width="1.5" stroke-linecap="round"></line>
                    <line x1="12.4" y1="3.9" x2="12.4" y2="2.4" id="Path" stroke="CURRENTCOLOR" stroke-width="1.5" stroke-linecap="round"></line>
                </g>
            </g>
        </g>
    </g>
</svg>